<svg width="374" height="220" viewBox="0 0 374 220" fill="none" xmlns="http://www.w3.org/2000/svg">
<path fill-rule="evenodd" clip-rule="evenodd" d="M176 2.9238C169.997 1.1785 163.997 0.845201 158 1.9238C163.089 -0.247499 168.422 -0.580799 174 0.923801C175.213 1.171 175.88 1.8376 176 2.9238Z" fill="black"/>
<path fill-rule="evenodd" clip-rule="evenodd" d="M176 2.92377C179.02 4.94697 181.354 7.61357 183 10.9238C183 17.5905 183 24.2571 183 30.9238C180.765 30.6291 178.765 30.9624 177 31.9238C172.097 33.3976 167.597 35.731 163.5 38.9238C156.644 36.0123 150.977 31.679 146.5 25.9238C142.005 13.9147 145.838 5.91467 158 1.92377C163.997 0.845166 169.997 1.17847 176 2.92377Z" fill="black"/>
<path fill-rule="evenodd" clip-rule="evenodd" d="M194 31.9238C192.235 30.9624 190.235 30.6291 188 30.9238C187.764 22.8821 188.097 14.8821 189 6.92379C199.416 -0.78931 210.083 -0.95591 221 6.42379C228.306 15.9828 227.306 24.6494 218 32.4238C214.728 34.0316 211.728 36.0316 209 38.4238C208 39.0905 207 39.0905 206 38.4238C202.498 35.4165 198.498 33.2498 194 31.9238Z" fill="black"/>
<path fill-rule="evenodd" clip-rule="evenodd" d="M189 6.92383C188.097 14.8821 187.764 22.8821 188 30.9238C190.235 30.6291 192.235 30.9624 194 31.9238C191.667 31.9238 189.333 31.9238 187 31.9238C186.834 24.2499 187 16.5832 187.5 8.92383C187.778 8.00803 188.278 7.34133 189 6.92383Z" fill="black"/>
<path fill-rule="evenodd" clip-rule="evenodd" d="M183 10.9238C183.991 17.7372 184.325 24.7372 184 31.9238C181.667 31.9238 179.333 31.9238 177 31.9238C178.765 30.9624 180.765 30.6291 183 30.9238C183 24.2571 183 17.5905 183 10.9238Z" fill="black"/>
<path fill-rule="evenodd" clip-rule="evenodd" d="M140 98.9238C139.383 99.0348 138.883 99.3678 138.5 99.9238C137.583 104.286 136.749 108.619 136 112.924C129.075 117.645 125.742 124.311 126 132.924C126.268 135.941 126.602 138.941 127 141.924C115.214 140.786 107.214 134.786 103 123.924C102.392 119.952 101.892 115.952 101.5 111.924C101.117 111.368 100.617 111.035 100 110.924C99.9753 104.857 101.642 99.3568 105 94.4238C109.39 96.5768 114.223 98.0768 119.5 98.9238C122.091 98.8588 124.591 98.3588 127 97.4238C127.752 96.7528 128.086 95.9198 128 94.9238C123.195 93.9368 118.195 93.6028 113 93.9238C108.198 91.7828 105.198 88.1168 104 82.9238C103.127 78.6558 102.794 74.3218 103 69.9238C105.214 62.4918 109.047 55.8248 114.5 49.9238C116.756 53.9609 119.589 57.4608 123 60.4238C125.634 61.3488 126.801 60.5148 126.5 57.9238C122.282 55.3738 119.615 51.7076 118.5 46.9238C116.596 33.162 121.762 22.9953 134 16.4238C136.24 15.4468 138.573 14.9468 141 14.9238C140.228 23.374 143.228 30.0406 150 34.9238C150.522 36.0312 150.855 37.1979 151 38.4238C149.883 42.4331 148.717 46.2664 147.5 49.9238C147.914 50.3812 148.414 50.7145 149 50.9238C152.598 47.7274 154.598 43.7274 155 38.9238C157.614 39.2754 159.281 40.7754 160 43.4238C156.207 52.1889 156.04 61.0218 159.5 69.9238C160.285 71.7098 161.451 73.2098 163 74.4238C159.39 79.2298 154.723 82.5628 149 84.4238C144.913 88.6568 141.913 93.4908 140 98.9238Z" fill="black"/>
<path fill-rule="evenodd" clip-rule="evenodd" d="M230 13.9238C240.719 17.0882 248.219 23.7548 252.5 33.9238C254.896 43.2261 252.563 50.8928 245.5 56.9238C245.017 57.8718 244.851 58.8718 245 59.9238C249.906 58.8678 253.072 55.8678 254.5 50.9238C255.218 49.9732 256.051 49.8066 257 50.4238C266.981 60.2888 270.148 72.1218 266.5 85.9238C261.647 93.8488 254.647 96.8488 245.5 94.9238C244.667 95.2568 243.833 95.5908 243 95.9238C246.177 98.4588 249.843 99.2918 254 98.4238C258.459 98.0038 262.125 96.1708 265 92.9238C273.716 107.906 272.383 121.906 261 134.924C256.367 139.74 250.7 142.073 244 141.924C244.166 136.248 243.999 130.581 243.5 124.924C240.531 118.658 236.865 112.992 232.5 107.924C232.15 100.533 229.65 94.0328 225 88.4238C222.86 87.4508 221.193 85.9508 220 83.9238C218.115 82.8148 216.115 81.9808 214 81.4238C212.374 78.7958 210.374 76.4628 208 74.4238C209.666 71.6758 211.166 68.8428 212.5 65.9238C213.167 60.5908 213.167 55.2568 212.5 49.9238C212.194 47.5175 211.361 45.3508 210 43.4238C211.119 40.6214 213.119 39.1214 216 38.9238C215.879 42.7339 217.212 45.9006 220 48.4238C221.135 49.1732 222.135 49.0065 223 47.9238C221.784 44.665 220.451 41.4984 219 38.4238C220.661 34.7439 223.161 31.5773 226.5 28.9238C229.039 24.25 230.205 19.25 230 13.9238Z" fill="black"/>
<path fill-rule="evenodd" clip-rule="evenodd" d="M162 48.9238C160.909 53.9545 160.909 58.9548 162 63.9238C161.383 63.8128 160.883 63.4798 160.5 62.9238C159.627 57.9798 160.127 53.3134 162 48.9238Z" fill="black"/>
<path fill-rule="evenodd" clip-rule="evenodd" d="M103 69.9238C102.794 74.3218 103.127 78.6558 104 82.9238C102.7 81.2008 102.033 79.0338 102 76.4238C102.004 74.0628 102.337 71.8968 103 69.9238Z" fill="black"/>
<path fill-rule="evenodd" clip-rule="evenodd" d="M214 90.9238C214.376 96.7638 213.71 102.43 212 107.924C208.672 115.413 203.006 120.246 195 122.424C181.23 126.133 169.73 122.633 160.5 111.924C153.874 97.5068 156.374 85.1738 168 74.9238C164.691 71.9718 162.691 68.3048 162 63.9238C160.909 58.9548 160.909 53.9545 162 48.9238C164.883 42.2141 169.883 37.7141 177 35.4238C189.489 32.0319 199.489 35.3652 207 45.4238C211.628 56.2678 210.295 66.2678 203 75.4238C206.388 77.6958 209.221 80.5288 211.5 83.9238C212.198 86.4278 213.031 88.7608 214 90.9238ZM180 47.9238C192.298 45.0986 197.464 49.7652 195.5 61.9238C192.815 68.4808 187.981 70.6468 181 68.4238C179.214 67.6388 177.714 66.4728 176.5 64.9238C174.98 61.0488 174.646 57.0488 175.5 52.9238C176.24 50.4535 177.74 48.7868 180 47.9238ZM198.5 88.9238C194.081 84.2668 188.581 82.2668 182 82.9238C171.667 86.3568 168.5 93.3568 172.5 103.924C177.79 109.661 184.29 111.327 192 108.924C199.639 104.172 201.806 97.5048 198.5 88.9238Z" fill="black"/>
<path fill-rule="evenodd" clip-rule="evenodd" d="M173 124.924C173.111 125.541 173.444 126.041 174 126.424C177.013 126.926 180.013 127.426 183 127.924C183.14 133.96 182.807 139.96 182 145.924C174.655 154.432 165.321 157.932 154 156.424C147.731 155.784 142.065 153.784 137 150.424C133.587 147.769 131.587 144.269 131 139.924C129.88 135.896 129.88 131.896 131 127.924C133.674 115.915 141.007 111.581 153 114.924C152.939 112.374 151.606 110.874 149 110.424C146.354 109.927 143.687 109.76 141 109.924C141.515 100.224 145.682 92.5568 153.5 86.9238C150.895 98.8718 153.395 109.539 161 118.924C164.464 121.989 168.464 123.989 173 124.924Z" fill="black"/>
<path fill-rule="evenodd" clip-rule="evenodd" d="M217 155.924C211.905 156.203 206.905 155.869 202 154.924C198.452 153.817 195.119 152.15 192 149.924C190.979 148.523 189.979 147.189 189 145.924C188.087 139.983 187.754 133.983 188 127.924C211.06 124.002 220.893 110.336 217.5 86.9238C225.042 92.6748 228.876 100.342 229 109.924C225.243 109.495 221.743 110.161 218.5 111.924C218.017 112.872 217.851 113.872 218 114.924C220.85 114.788 223.683 114.455 226.5 113.924C228.467 113.966 230.301 114.466 232 115.424C240.104 123.384 242.271 132.884 238.5 143.924C237.167 145.924 235.833 147.924 234.5 149.924C229.213 153.409 223.38 155.409 217 155.924Z" fill="black"/>
<path fill-rule="evenodd" clip-rule="evenodd" d="M113 93.9238C118.195 93.6028 123.195 93.9368 128 94.9238C122.736 96.5518 117.736 96.2188 113 93.9238Z" fill="black"/>
<path fill-rule="evenodd" clip-rule="evenodd" d="M140 98.9238C139.155 103.967 137.822 108.634 136 112.924C136.749 108.619 137.583 104.286 138.5 99.9238C138.883 99.3678 139.383 99.0348 140 98.9238Z" fill="black"/>
<path fill-rule="evenodd" clip-rule="evenodd" d="M214 90.9238C215.147 95.0698 215.314 99.4038 214.5 103.924C214.378 105.861 213.545 107.194 212 107.924C213.71 102.43 214.376 96.7638 214 90.9238Z" fill="black"/>
<path fill-rule="evenodd" clip-rule="evenodd" d="M100 110.924C100.617 111.035 101.117 111.368 101.5 111.924C101.892 115.952 102.392 119.952 103 123.924C102.278 123.506 101.778 122.84 101.5 121.924C100.952 118.254 100.452 114.587 100 110.924Z" fill="black"/>
<path fill-rule="evenodd" clip-rule="evenodd" d="M173 124.924C176.671 125.181 180.005 126.181 183 127.924C180.013 127.426 177.013 126.926 174 126.424C173.444 126.041 173.111 125.541 173 124.924Z" fill="black"/>
<path fill-rule="evenodd" clip-rule="evenodd" d="M183 127.924C184.151 133.074 184.317 138.408 183.5 143.924C183.222 144.84 182.722 145.506 182 145.924C182.807 139.96 183.14 133.96 183 127.924Z" fill="black"/>
<path fill-rule="evenodd" clip-rule="evenodd" d="M188 127.924C187.754 133.983 188.087 139.983 189 145.924C188.383 145.813 187.883 145.48 187.5 144.924C186.682 139.075 186.848 133.409 188 127.924Z" fill="black"/>
<path fill-rule="evenodd" clip-rule="evenodd" d="M131 127.924C129.88 131.896 129.88 135.896 131 139.924C130.383 139.813 129.883 139.48 129.5 138.924C129.333 137.091 129.167 135.257 129 133.424C129.047 131.129 129.713 129.295 131 127.924Z" fill="black"/>
<path fill-rule="evenodd" clip-rule="evenodd" d="M202 154.924C206.905 155.869 211.905 156.203 217 155.924C214.69 156.588 212.19 156.921 209.5 156.924C206.571 156.899 204.071 156.233 202 154.924Z" fill="black"/>
<path fill-rule="evenodd" clip-rule="evenodd" d="M43.0002 167.924C50.9032 166.477 52.9032 169.144 49.0002 175.924C47.0161 177.13 45.0161 177.13 43.0002 175.924C41.7708 173.225 41.7708 170.559 43.0002 167.924Z" fill="black"/>
<path fill-rule="evenodd" clip-rule="evenodd" d="M59.0001 167.924C61.6671 167.924 64.3331 167.924 67.0001 167.924C67.0001 182.257 67.0001 196.591 67.0001 210.924C68.6671 210.924 70.3331 210.924 72.0001 210.924C72.0001 213.257 72.0001 215.591 72.0001 217.924C68.6501 218.089 65.3171 217.922 62.0001 217.424C60.6511 216.652 59.8181 215.485 59.5001 213.924C59.0001 198.594 58.8331 183.261 59.0001 167.924Z" fill="black"/>
<path fill-rule="evenodd" clip-rule="evenodd" d="M77.0001 167.924C79.6671 167.924 82.3331 167.924 85.0001 167.924C85.0001 182.257 85.0001 196.591 85.0001 210.924C86.6441 210.71 88.1441 211.044 89.5001 211.924C89.9951 213.897 90.1621 215.897 90.0001 217.924C86.3181 218.089 82.6521 217.923 79.0001 217.424C78.3741 216.674 77.8741 215.84 77.5001 214.924C77.0001 199.261 76.8331 183.594 77.0001 167.924Z" fill="black"/>
<path fill-rule="evenodd" clip-rule="evenodd" d="M94.9997 167.924C97.4197 167.716 99.7527 168.05 102 168.924C103.525 174.233 101.525 176.733 95.9997 176.424C93.7647 173.839 93.4307 171.006 94.9997 167.924Z" fill="black"/>
<path fill-rule="evenodd" clip-rule="evenodd" d="M255 167.924C262.908 166.381 265.241 169.047 262 175.924C261.167 176.257 260.333 176.591 259.5 176.924C254.78 175.484 253.28 172.484 255 167.924Z" fill="black"/>
<path fill-rule="evenodd" clip-rule="evenodd" d="M203 169.924C206.072 169.607 209.072 169.94 212 170.924C215.589 178.505 219.589 185.838 224 192.924C228.518 186.552 232.518 179.885 236 172.924C238.988 171.151 242.321 170.484 246 170.924C246 186.591 246 202.257 246 217.924C243.667 217.924 241.333 217.924 239 217.924C239.332 206.238 238.999 194.572 238 182.924C238 182.924 236.908 184.781 236.5 185.924C235.89 186.815 235.057 187.815 235 188.924C231.803 195.551 228.136 201.884 224 207.924C219.399 200.388 215.066 192.721 211 184.924C210.001 195.904 209.668 206.904 210 217.924C207.333 217.924 204.667 217.924 202 217.924C201.683 201.846 202.016 185.846 203 169.924Z" fill="black"/>
<path fill-rule="evenodd" clip-rule="evenodd" d="M148 181.924C150.333 181.924 152.667 181.924 155 181.924C154.715 183.712 155.048 185.379 156 186.924C157.441 185.559 158.774 184.059 160 182.424C166.322 180.605 171.489 182.105 175.5 186.924C176.926 197.178 177.426 207.512 177 217.924C174.333 217.924 171.667 217.924 169 217.924C169.166 209.251 169 200.584 168.5 191.924C167.369 189.627 165.536 188.293 163 187.924C160.429 188.825 158.096 190.158 156 191.924C155.002 200.565 154.669 209.232 155 217.924C152.667 217.924 150.333 217.924 148 217.924C148 205.924 148 193.924 148 181.924Z" fill="black"/>
<path fill-rule="evenodd" clip-rule="evenodd" d="M300 187.924C300 197.591 300 207.257 300 216.924C298 216.924 296 216.924 294 216.924C294.325 209.737 293.991 202.737 293 195.924C291.646 187.744 287.479 186.078 280.5 190.924C280 199.918 279.834 208.918 280 217.924C277.333 217.924 274.667 217.924 272 217.924C272 205.924 272 193.924 272 181.924C274.357 181.761 276.69 181.927 279 182.424C279.691 183.491 280.191 184.658 280.5 185.924C281.152 183.701 282.652 182.534 285 182.424C289.094 181.657 293.094 181.99 297 183.424C297.899 185.076 298.899 186.576 300 187.924Z" fill="black"/>
<path fill-rule="evenodd" clip-rule="evenodd" d="M355 181.924C362.071 180.594 368.071 182.428 373 187.424C372.154 189.604 370.654 191.104 368.5 191.924C365.764 190.437 362.931 189.104 360 187.924C355.678 188.906 354.345 191.406 356 195.424C362.427 195.737 368.093 197.903 373 201.924C375.228 215.194 369.561 220.694 356 218.424C351.379 218.176 348.046 216.01 346 211.924C347 210.257 348.333 208.924 350 207.924C352.896 210.492 356.23 212.159 360 212.924C364.833 212.251 366.499 209.751 365 205.424C361.209 204.406 357.375 203.573 353.5 202.924C347.447 199.688 345.447 194.688 347.5 187.924C349.207 184.834 351.707 182.834 355 181.924Z" fill="black"/>
<path fill-rule="evenodd" clip-rule="evenodd" d="M42 181.924C44.6667 181.924 47.3333 181.924 50 181.924C50 193.924 50 205.924 50 217.924C47.3333 217.924 44.6667 217.924 42 217.924C42 205.924 42 193.924 42 181.924Z" fill="black"/>
<path fill-rule="evenodd" clip-rule="evenodd" d="M101 181.924C101.979 193.844 102.312 205.844 102 217.924C99.3331 217.924 96.6671 217.924 94.0001 217.924C93.8331 206.253 94.0001 194.586 94.5001 182.924C96.5411 182.001 98.7081 181.668 101 181.924Z" fill="black"/>
<path fill-rule="evenodd" clip-rule="evenodd" d="M255 181.924C257.667 181.924 260.333 181.924 263 181.924C263 193.924 263 205.924 263 217.924C260.333 217.924 257.667 217.924 255 217.924C255 205.924 255 193.924 255 181.924Z" fill="black"/>
<path fill-rule="evenodd" clip-rule="evenodd" d="M128 188.924C125.263 188.825 122.596 189.159 120 189.924C120.992 188.398 122.492 187.731 124.5 187.924C125.885 187.938 127.051 188.272 128 188.924Z" fill="black"/>
<path fill-rule="evenodd" clip-rule="evenodd" d="M8.00029 177.924C8.00029 181.591 8.00029 185.257 8.00029 188.924C13.0003 188.924 18.0003 188.924 23.0003 188.924C22.2378 189.692 21.2378 190.192 20.0003 190.424C16.0003 191.091 12.0003 191.091 8.00029 190.424C6.67829 186.157 6.67829 181.99 8.00029 177.924Z" fill="black"/>
<path fill-rule="evenodd" clip-rule="evenodd" d="M340 167.924H332C332.329 173.961 331.996 179.961 331 185.924C330.393 185.8 330.06 185.467 330 184.924C329.442 183.634 328.442 182.801 327 182.424C322.544 181.557 318.211 181.89 314 183.424C307.773 191.66 306.273 200.827 309.5 210.924C314.041 219.062 320.541 221.062 329 216.924C330.904 212.98 331.904 213.314 332 217.924H340V167.924ZM331 200.424C331 190.924 330.011 187.442 321 187.924C318.763 189.231 317.263 191.231 316.5 193.924C315.833 198.257 315.833 202.591 316.5 206.924C317.567 208.367 318.734 209.7 320 210.924C329.221 213.54 331 210.424 331 200.424Z" fill="black"/>
<path fill-rule="evenodd" clip-rule="evenodd" d="M300 187.924C300.79 189.033 301.29 190.366 301.5 191.924C302 200.584 302.166 209.251 302 217.924C299 217.924 296 217.924 293 217.924C293 210.591 293 203.257 293 195.924C293.991 202.737 294.325 209.737 294 216.924C296 216.924 298 216.924 300 216.924C300 207.257 300 197.591 300 187.924Z" fill="black"/>
<path fill-rule="evenodd" clip-rule="evenodd" d="M24.0001 197.924C18.6668 197.924 13.3334 197.924 8.00008 197.924C8.00008 202.257 8.00008 206.591 8.00008 210.924C7.01398 206.454 6.68058 201.787 7.00008 196.924C12.8581 196.602 18.5248 196.935 24.0001 197.924Z" fill="black"/>
<path fill-rule="evenodd" clip-rule="evenodd" d="M33 197.924C33.9299 201.824 34.2633 205.824 34 209.924C32.6053 213.157 30.272 215.657 27 217.424C18.0062 217.924 9.0062 218.09 0 217.924V169.924C8.6922 169.593 17.3589 169.926 26 170.924C33.0385 175.593 34.8718 181.926 31.5 189.924C29.3787 192.045 29.0074 192.166 28.2647 192.409C27.9571 192.51 27.5858 192.631 27 192.924C29.4408 194.133 31.4408 195.8 33 197.924ZM8 177.924C13.0111 177.758 18.0111 177.925 23 178.424C25.6315 181.992 25.6315 185.492 23 188.924H8V177.924ZM24 209.924C27.9672 205.845 27.9672 201.845 24 197.924H8V210.924C13.3968 211.209 18.7302 210.875 24 209.924Z" fill="black"/>
<path fill-rule="evenodd" clip-rule="evenodd" d="M33 197.924C34.2943 199.472 34.9609 201.472 35 203.924C34.9954 206.12 34.662 208.12 34 209.924C34.2633 205.824 33.9299 201.824 33 197.924Z" fill="black"/>
<path fill-rule="evenodd" clip-rule="evenodd" d="M119 181.924C136.615 181.048 143.781 189.382 140.5 206.924C136.175 217.662 128.342 221.162 117 217.424C114.157 214.913 111.657 212.08 109.5 208.924C108.623 202.175 108.956 195.508 110.5 188.924C112.624 185.625 115.457 183.292 119 181.924ZM128 188.924C131.11 189.552 132.61 191.552 132.5 194.924C133.666 200.671 132.832 206.005 130 210.924C130 210.924 130 210.924 130 210.924C126.071 213.694 122.404 213.361 119 209.924C119 209.924 119 209.924 119 209.924C117.481 206.898 116.815 203.565 117 199.924C117.083 198.758 117.167 197.591 117.25 196.425L117.25 196.424C117.333 195.257 117.416 194.09 117.5 192.924C117.877 191.482 118.71 190.482 120 189.924C122.596 189.159 125.263 188.825 128 188.924Z" fill="black"/>
</svg>
