<svg width="1179" height="132" viewBox="0 0 1179 132" fill="none" xmlns="http://www.w3.org/2000/svg">
<path d="M289.78 132C324.014 132 348.158 111.277 348.158 82.6208C348.158 53.7668 323.642 33.6135 290.003 33.6135C255.721 33.6135 231.626 54.3369 231.626 82.9927C231.626 111.797 256.092 132 289.78 132ZM290.152 115.416C272.131 115.416 258.993 101.733 258.993 82.6208C258.993 63.5335 271.759 49.627 289.632 49.627C307.603 49.627 320.791 63.5335 320.791 82.7696C320.791 101.733 307.975 115.416 290.152 115.416ZM414.393 132C446.817 132 467.491 114.127 469.325 91.9662L444.115 91.2473C442.479 105.154 430.209 114.697 414.74 114.697C396.347 114.697 383.754 101.163 383.754 82.4225C383.754 63.7318 396.347 49.9989 414.195 49.9989C429.663 49.9989 441.413 60.1127 442.975 73.9944L468.408 72.8789C466.623 50.3459 445.33 33.6135 414.195 33.6135C381.548 33.6135 356.363 52.3538 356.363 82.9927C356.363 113.78 381.97 132 414.393 132ZM580.726 96.6761V37.2327H554.003V84.7775C554.003 102.799 544.856 112.714 530.256 112.714C515.085 112.714 506.459 101.733 506.459 84.4056V37.2327H479.811V87.6777C479.811 113.26 495.477 130.166 519.795 130.166C537.816 130.166 550.236 120.622 554.003 104.782V106.22H555.119L555.987 128.381H581.94L580.726 96.6761ZM726.483 35.4479C709.032 35.4479 695.498 44.6445 690.837 58.1048H690.639C684.863 43.7025 672.097 35.4479 654.274 35.4479C637.467 35.4479 624.899 44.0744 620.363 58.1048H619.148L619.495 37.2327H593.194V128.381H619.867V80.489C619.867 62.9634 628.841 52.7008 643.813 52.7008C658.562 52.7008 667.412 62.9634 667.412 80.2907V128.381H694.06V78.4811C694.06 62.2445 702.736 52.7008 717.51 52.7008C731.54 52.7008 740.018 62.9634 740.018 80.2907V128.381H766.691V77.4152C766.691 51.2631 751.347 35.4479 726.483 35.4479ZM887.61 79.0017C887.61 51.4862 864.532 33.6135 833.571 33.6135C802.213 33.6135 778.267 52.1803 778.267 82.6208C778.267 113.061 801.866 132 834.29 132C862.747 132 883.818 117.548 886.693 97.3949L862.747 95.9572C860.392 107.137 849.411 115.218 835.356 115.218C818.4 115.218 806.006 104.088 805.436 85.1245H887.263C887.61 82.9927 887.61 80.6377 887.61 79.0017ZM805.634 72.8789C806.923 57.9561 818.053 47.4952 833.719 47.4952C849.609 47.4952 861.111 58.3279 861.111 72.7301L805.634 72.8789ZM958.556 35.4479C941.749 35.4479 929.206 44.0744 924.645 58.1048H923.43L923.777 37.2327H897.476V128.381H924.149V80.489C924.149 62.9634 933.122 52.7008 948.095 52.7008C962.844 52.7008 971.694 62.9634 971.694 80.2907V128.381H998.341V77.4152C998.341 51.2631 983.22 35.4479 958.556 35.4479ZM1056.05 129.819C1063.09 129.819 1069.21 129.1 1075.14 128.034L1075.51 109.12C1071.72 110.012 1067.77 110.359 1065.07 110.359C1053.74 110.359 1047.4 102.799 1047.4 89.4625V53.618H1075.51V37.2327H1041.13V36.3155C1047.62 34.5307 1050.82 27.689 1050.82 17.0546V13.0637H1023.82V25.6811C1023.82 33.093 1020.03 37.2327 1013.34 37.2327H1003.45V53.618H1020.9V92.8834C1020.9 118.267 1035.35 129.819 1056.05 129.819ZM1130.44 131.802C1157.81 131.802 1178.04 120.622 1178.04 101.733C1178.04 84.4056 1162.37 75.0603 1140.55 72.7301L1121.62 70.5735C1112.77 69.458 1107.76 65.5166 1107.76 59.3938C1107.76 51.982 1115.47 47.1234 1127.02 47.1234C1141.07 47.1234 1150.62 53.7668 1152.6 65.6653L1175.85 64.5994C1174.04 46.578 1155.68 33.6135 1127.94 33.6135C1101.64 33.6135 1083.24 45.7104 1083.24 63.7318C1083.24 77.5639 1093.16 88.9172 1117.1 91.4704L1136.07 93.6022C1146.33 95.04 1152.11 99.378 1152.11 105.873C1152.11 113.632 1143.78 117.92 1131.16 117.92C1115.47 117.92 1105.06 110.706 1102.88 99.031L1079.13 100.097C1082.18 119.556 1102.16 131.802 1130.44 131.802Z" fill="black"/>
<path d="M155.723 0H121.564C118.217 0 115.491 2.72676 115.491 6.07324V124.663C115.491 128.034 118.217 130.736 121.564 130.736H155.078C189.832 130.736 219.083 103.245 220.992 68.9375H168.415C165.638 68.9375 163.159 68.2682 161.127 67.1031V67.0783C159.243 65.9876 157.756 64.5003 156.714 62.7155C155.648 60.8563 155.103 58.8237 155.103 56.667C155.103 54.3369 155.748 51.858 157.161 49.4287H157.185L182.445 5.70141C174.29 2.03268 165.242 0 155.723 0Z" fill="black"/>
<path d="M5.99887 93.0073H97.3454C100.667 93.0073 103.344 95.6845 103.344 99.0062V124.737C103.344 128.059 100.667 130.761 97.3454 130.761H5.99887C2.70197 130.761 0 128.059 0 124.737V99.0062C0 95.6845 2.70197 93.0073 5.99887 93.0073ZM5.99887 0H97.3454C100.667 0 103.344 2.70197 103.344 5.99887V31.7544C103.344 35.0513 100.667 37.7532 97.3454 37.7532H5.99887C2.70197 37.7532 0 35.0513 0 31.7544V5.99887C0 2.70197 2.70197 0 5.99887 0ZM5.99887 46.5037H69.3341C72.631 46.5037 75.333 49.1808 75.333 52.5025V78.2332C75.333 81.5549 72.631 84.2569 69.3341 84.2569H5.99887C2.70197 84.2569 0 81.5549 0 78.2332V52.5025C0 49.1808 2.70197 46.5037 5.99887 46.5037Z" fill="black"/>
<path d="M228.577 50.8665C226.346 31.7544 215.662 13.8817 198.112 3.14817C195.36 1.43775 194.245 2.75155 193.377 4.21409L164.746 53.8163C162.713 57.3363 164.374 60.187 168.415 60.187H224.611C228.23 60.187 228.924 58.3775 228.998 56.8654C229.098 55.1301 228.775 52.5769 228.577 50.8665Z" fill="black"/>
<path d="M228.577 50.8665C226.346 31.7544 215.662 13.8817 198.112 3.14817C195.36 1.43775 194.245 2.75155 193.377 4.21409L164.746 53.8163C162.713 57.3363 164.374 60.187 168.415 60.187H224.611C228.23 60.187 228.924 58.3775 228.998 56.8654C229.098 55.1301 228.775 52.5769 228.577 50.8665Z" fill="black"/>
</svg>
