<svg width="190" height="41" viewBox="0 0 190 41" fill="none" xmlns="http://www.w3.org/2000/svg">
<path d="M20.1919 21.1539C20.5686 20.7851 20.761 20.3283 20.761 19.7752C20.761 17.691 20.3682 15.8233 19.5827 14.2202C18.7971 12.609 17.6429 11.3265 16.1519 10.4127C14.661 9.49885 12.8654 9.03394 10.7893 9.03394C8.71321 9.03394 6.81346 9.51489 5.20228 10.4527C3.58308 11.3906 2.30054 12.7132 1.37872 14.3725C0.464918 16.0318 0 17.9716 0 20.1359C0 22.3001 0.488966 24.2079 1.45888 25.8592C2.4288 27.5185 3.78347 28.8331 5.49886 29.7789C7.20624 30.7168 9.18615 31.1977 11.3825 31.1977C12.6009 31.1977 13.8914 30.9733 15.2301 30.5244C16.5687 30.0755 17.699 29.4823 18.6048 28.7689C19.1017 28.3922 19.3422 27.9273 19.3101 27.3902C19.2781 26.8692 19.0216 26.3882 18.5326 25.9554C18.1559 25.6347 17.715 25.4824 17.202 25.4985C16.705 25.5145 16.2401 25.6748 15.8152 25.9874C15.3102 26.3642 14.6369 26.7089 13.8113 26.9974C12.9857 27.286 12.168 27.4383 11.3825 27.4383C9.93162 27.4383 8.63305 27.1177 7.51885 26.4844C6.40465 25.8512 5.51489 24.9774 4.88164 23.8873C4.5049 23.246 4.24038 22.5166 4.08808 21.707H18.7571C19.3262 21.707 19.8151 21.5226 20.1919 21.1619V21.1539ZM4.13617 18.172C4.27244 17.5067 4.47284 16.8975 4.73736 16.3524C5.2664 15.2542 6.05196 14.3805 7.07798 13.7473C8.10401 13.114 9.35448 12.7934 10.7973 12.7934C12.0558 12.7934 13.146 13.0899 14.0197 13.6671C14.9014 14.2442 15.5908 15.0458 16.0718 16.0398C16.3764 16.681 16.5928 17.3945 16.721 18.172H4.13617Z" fill="black"/>
<path d="M43.3738 10.5006C43.1894 10.0357 42.7726 9.66698 42.1393 9.39444C40.9209 8.88944 39.9831 9.24214 39.414 10.4365L33.2738 24.2959L26.276 10.3884C26.0195 9.85135 25.6428 9.47461 25.1458 9.29024C24.6568 9.10588 24.1278 9.12191 23.5907 9.35437C23.0456 9.58683 22.6609 9.95555 22.4444 10.4605C22.228 10.9736 22.2601 11.5106 22.5486 12.0637L31.318 28.7206L27.4463 37.4659C27.1658 38.0671 27.1096 38.6041 27.278 39.0691C27.4463 39.534 27.8551 39.9187 28.4884 40.2073C28.8731 40.3756 29.2178 40.4558 29.5064 40.4558C30.2999 40.4558 30.8771 40.0069 31.2138 39.1252L43.2135 12.1359C43.494 11.5186 43.5501 10.9655 43.3658 10.5086L43.3738 10.5006Z" fill="black"/>
<path d="M189.254 10.5006C189.069 10.0357 188.652 9.66698 188.019 9.39444C186.801 8.88143 185.863 9.24214 185.294 10.4365L179.154 24.2959L172.156 10.3884C171.899 9.85135 171.523 9.47461 171.026 9.29024C170.537 9.10588 170.008 9.12191 169.471 9.35437C168.926 9.58683 168.541 9.95555 168.324 10.4605C168.108 10.9736 168.14 11.5106 168.429 12.0637L177.198 28.7206L173.326 37.4659C173.046 38.0671 172.99 38.6041 173.158 39.0691C173.326 39.534 173.735 39.9187 174.368 40.2073C174.761 40.3756 175.098 40.4558 175.386 40.4558C176.18 40.4558 176.757 40.0069 177.094 39.1252L189.093 12.1359C189.374 11.5186 189.43 10.9655 189.246 10.5086L189.254 10.5006Z" fill="black"/>
<path d="M164.068 0.609211C163.667 0.20842 163.13 0 162.481 0C161.832 0 161.327 0.200396 160.91 0.601188C160.493 1.00198 160.285 1.53904 160.285 2.19634V12.2562C159.443 11.3264 158.433 10.5729 157.271 10.0038C155.94 9.35449 154.473 9.02584 152.91 9.02584C150.97 9.02584 149.207 9.5148 147.668 10.4847C146.129 11.4546 144.902 12.7853 144.012 14.4445C143.123 16.1038 142.674 17.9956 142.674 20.0877C142.674 22.1798 143.163 24.0876 144.133 25.7549C145.103 27.4222 146.433 28.7608 148.085 29.7307C149.744 30.7007 151.628 31.1896 153.696 31.1896C155.764 31.1896 157.639 30.7007 159.291 29.7307C160.934 28.7608 162.257 27.4222 163.226 25.7549C164.196 24.0876 164.685 22.1798 164.685 20.0877V2.20435C164.685 1.55507 164.485 1.01801 164.076 0.617223L164.068 0.609211ZM160.437 20.0877C160.437 21.4344 160.14 22.6688 159.555 23.7589C158.978 24.8491 158.168 25.7148 157.15 26.332C156.14 26.9492 154.978 27.2619 153.68 27.2619C152.381 27.2619 151.251 26.9492 150.233 26.332C149.207 25.7148 148.389 24.8491 147.796 23.7589C147.203 22.6688 146.898 21.4344 146.898 20.0877C146.898 18.741 147.203 17.4825 147.796 16.4164C148.389 15.3503 149.215 14.5007 150.233 13.8754C151.259 13.2582 152.413 12.9456 153.68 12.9456C154.946 12.9456 156.14 13.2582 157.15 13.8754C158.16 14.4926 158.97 15.3503 159.555 16.4084C160.14 17.4745 160.437 18.709 160.437 20.0797V20.0877Z" fill="black"/>
<path d="M64.9041 21.1539C65.2808 20.7851 65.4732 20.3283 65.4732 19.7752C65.4732 17.691 65.0804 15.8233 64.2949 14.2202C63.5093 12.609 62.3551 11.3265 60.8641 10.4127C59.3732 9.49885 57.5776 9.03394 55.5015 9.03394C53.4254 9.03394 51.5257 9.51489 49.9145 10.4527C48.2953 11.3906 47.0127 12.7132 46.0989 14.3725C45.1851 16.0318 44.7202 17.9716 44.7202 20.1359C44.7202 22.3001 45.2092 24.2079 46.1791 25.8592C47.149 27.5185 48.5037 28.8331 50.2191 29.7789C51.9265 30.7168 53.9064 31.1977 56.1027 31.1977C57.3211 31.1977 58.6117 30.9733 59.9503 30.5244C61.2889 30.0755 62.4192 29.4823 63.325 28.7689C63.822 28.3922 64.0624 27.9273 64.0304 27.3902C63.9983 26.8692 63.7418 26.3882 63.2528 25.9554C62.8761 25.6347 62.4432 25.4744 61.9222 25.4985C61.4252 25.5145 60.9603 25.6748 60.5355 25.9874C60.0305 26.3642 59.3571 26.7089 58.5315 26.9974C57.7059 27.286 56.8883 27.4383 56.1027 27.4383C54.6518 27.4383 53.3533 27.1177 52.2391 26.4844C51.1249 25.8512 50.2431 24.9774 49.6019 23.8873C49.2251 23.246 48.9606 22.5166 48.8083 21.707H63.4773C64.0464 21.707 64.5273 21.5226 64.9121 21.1619L64.9041 21.1539ZM48.8484 18.172C48.9846 17.5067 49.185 16.8975 49.4496 16.3524C49.9786 15.2542 50.7642 14.3805 51.7902 13.7473C52.8162 13.114 54.0667 12.7934 55.5095 12.7934C56.776 12.7934 57.8582 13.0899 58.7319 13.6671C59.6136 14.2442 60.303 15.0458 60.784 16.0398C61.0886 16.681 61.305 17.3945 61.4332 18.172H48.8484Z" fill="black"/>
<path d="M109.993 14.4606C109.023 12.7933 107.701 11.4547 106.058 10.4848C104.414 9.51484 102.531 9.02588 100.471 9.02588C98.4104 9.02588 96.5187 9.51484 94.8594 10.4848C93.2001 11.4547 91.8695 12.7933 90.9076 14.4606C89.9377 16.1279 89.4487 18.0357 89.4487 20.1278C89.4487 22.2199 89.8976 24.1197 90.7874 25.771C91.6771 27.4302 92.9036 28.7609 94.4426 29.7308C95.9816 30.7007 97.7451 31.1897 99.6849 31.1897C101.625 31.1897 103.388 30.7007 104.927 29.7308C105.697 29.2418 106.418 28.6326 107.06 27.9192V28.8811C107.06 29.5063 107.268 30.0354 107.685 30.4522C108.102 30.869 108.623 31.0774 109.256 31.0774C109.889 31.0774 110.41 30.869 110.827 30.4522C111.244 30.0354 111.452 29.5063 111.452 28.8811V20.1358C111.452 18.0437 110.963 16.1359 109.993 14.4686V14.4606ZM107.212 20.1278C107.212 21.4745 106.915 22.7009 106.33 23.783C105.745 24.8572 104.935 25.7148 103.925 26.3401C102.915 26.9573 101.753 27.2699 100.454 27.2699C99.1559 27.2699 98.0257 26.9573 97.0077 26.3401C95.9816 25.7229 95.164 24.8572 94.5708 23.783C93.9777 22.7089 93.6731 21.4745 93.6731 20.1358C93.6731 18.7972 93.9777 17.5227 94.5708 16.4405C95.164 15.3664 95.9897 14.5087 97.0077 13.8835C98.0337 13.2663 99.188 12.9536 100.454 12.9536C101.721 12.9536 102.907 13.2663 103.925 13.8835C104.935 14.5007 105.745 15.3664 106.33 16.4405C106.915 17.5146 107.212 18.7571 107.212 20.1358V20.1278Z" fill="black"/>
<path d="M86.7315 27.8871L79.2607 18.6849L86.3227 12.3845C86.7475 11.9837 86.98 11.5188 87.012 10.9977C87.0441 10.4767 86.8517 9.98774 86.4509 9.5629C86.0742 9.13004 85.6173 8.89759 85.0802 8.86553C84.5432 8.84148 84.0542 9.02584 83.6294 9.42663L74.4272 17.6429V2.11618C74.4272 1.49094 74.2268 0.977941 73.842 0.585165C73.4493 0.192389 72.9362 0 72.311 0C71.6858 0 71.1728 0.200405 70.78 0.585165C70.3872 0.969925 70.1948 1.49094 70.1948 2.11618V28.9051C70.1948 29.5303 70.3952 30.0434 70.78 30.4361C71.1728 30.8289 71.6858 31.0213 72.311 31.0213C72.9362 31.0213 73.4493 30.8209 73.842 30.4361C74.2348 30.0434 74.4272 29.5303 74.4272 28.9051V22.9974L76.1586 21.4504L83.4931 30.5163C83.8698 30.9732 84.3428 31.2297 84.9039 31.2778C84.96 31.2778 85.0161 31.2778 85.0722 31.2778C85.5692 31.2778 86.0261 31.1095 86.4349 30.7728C86.9159 30.372 87.1884 29.8991 87.2285 29.362C87.2686 28.8249 87.1082 28.328 86.7315 27.8711V27.8871Z" fill="black"/>
<path d="M136.269 13.635C135.435 12.12 134.273 10.9497 132.822 10.1642C131.371 9.37862 129.712 8.98584 127.884 8.98584C126.057 8.98584 124.534 9.37861 123.123 10.1481C122.506 10.4848 121.937 10.8856 121.416 11.3585C121.416 10.7173 121.207 10.1882 120.806 9.78742C120.406 9.38663 119.869 9.17822 119.219 9.17822C118.57 9.17822 118.065 9.37862 117.648 9.77941C117.231 10.1802 117.023 10.7173 117.023 11.3746V28.8651C117.023 29.4903 117.231 30.0194 117.648 30.4362C118.065 30.853 118.594 31.0614 119.219 31.0614C119.845 31.0614 120.406 30.853 120.814 30.4362C121.215 30.0194 121.416 29.4903 121.416 28.8651V17.8033C121.416 16.8814 121.664 16.0558 122.161 15.3504C122.658 14.637 123.347 14.0599 124.205 13.627C125.063 13.1941 126.033 12.9777 127.099 12.9777C128.261 12.9777 129.311 13.2022 130.209 13.643C131.099 14.0839 131.812 14.7653 132.341 15.663C132.87 16.5688 133.143 17.7632 133.143 19.214V28.8651C133.143 29.4903 133.351 30.0194 133.768 30.4362C134.185 30.853 134.706 31.0614 135.339 31.0614C135.972 31.0614 136.493 30.853 136.91 30.4362C137.327 30.0194 137.535 29.4903 137.535 28.8651V19.214C137.535 17.0177 137.111 15.142 136.277 13.627L136.269 13.635Z" fill="black"/>
</svg>
