<svg width="138" height="32" viewBox="0 0 138 32" fill="none" xmlns="http://www.w3.org/2000/svg">
<path fill-rule="evenodd" clip-rule="evenodd" d="M0 25.8687L4.13348 24.7664C4.44349 26.6265 5.92465 27.9699 8.09473 27.9699C10.9882 27.9699 12.6071 26.5231 12.6071 23.2508V22.0108C11.9182 23.113 10.3337 24.1808 7.88805 24.1808C3.37567 24.1808 0 20.7018 0 15.9483C0 11.4704 3.23789 7.68138 7.88805 7.68138C10.5748 7.68138 12.1249 8.85253 12.7104 9.98924V7.99139H17.1195V23.113C17.1195 27.7632 14.605 32 8.23251 32C3.58235 32 0.482239 29.1066 0 25.8687ZM8.6803 20.254C11.0226 20.254 12.676 18.5662 12.676 15.9483C12.676 13.3305 10.8848 11.6771 8.6803 11.6771C6.40689 11.6771 4.61572 13.3305 4.61572 15.9483C4.61572 18.6006 6.30355 20.254 8.6803 20.254ZM24.5813 31.4833H20V7.99139H24.4435V10.0581C25.2013 8.74919 27.0958 7.61249 29.6448 7.61249C34.605 7.61249 37.4639 11.4015 37.4639 16.4306C37.4639 21.563 34.2605 25.352 29.4726 25.352C27.1302 25.352 25.408 24.422 24.5813 23.2853V31.4833ZM32.9516 16.465C32.9516 13.4682 31.0915 11.7115 28.7492 11.7115C26.4069 11.7115 24.5124 13.4682 24.5124 16.465C24.5124 19.4618 26.4069 21.253 28.7492 21.253C31.0915 21.253 32.9516 19.4962 32.9516 16.465ZM44.5813 24.9386H40V7.99139H44.3746V10.0581C45.3046 8.40474 47.4747 7.50915 49.3348 7.50915C51.6426 7.50915 53.5027 8.50807 54.3638 10.3337C55.7072 8.26695 57.4984 7.50915 59.7374 7.50915C62.8719 7.50915 65.8687 9.40366 65.8687 13.9505V24.9386H61.4252V14.8805C61.4252 13.0549 60.5296 11.6771 58.4284 11.6771C56.465 11.6771 55.2939 13.1927 55.2939 15.0183V24.9386H50.747V14.8805C50.747 13.0549 49.817 11.6771 47.7503 11.6771C45.7524 11.6771 44.5813 13.1582 44.5813 15.0183V24.9386ZM85.4295 0V21.873C85.4295 23.0097 85.4984 24.2497 85.5673 24.9386H81.1927C81.1238 24.5942 81.0205 23.7675 81.0205 22.9752C80.2627 24.3186 78.5404 25.352 76.267 25.352C71.4446 25.352 68 21.563 68 16.4306C68 11.4704 71.3412 7.57804 76.1292 7.57804C79.0571 7.57804 80.4349 8.78364 80.9171 9.67922V0H85.4295ZM72.6157 16.4306C72.6157 19.4618 74.4069 21.253 76.8181 21.253C79.1604 21.253 80.986 19.4618 80.986 16.3961C80.986 13.3649 79.1604 11.6771 76.8181 11.6771C74.4758 11.6771 72.6157 13.3994 72.6157 16.4306Z" fill="black"/>
<path fill-rule="evenodd" clip-rule="evenodd" d="M134 25C132.873 25 131.924 24.6151 131.155 23.8454C130.385 23.0756 130 22.1134 130 20.9588C130 19.7766 130.385 18.8213 131.155 18.0928C131.924 17.3643 132.873 17 134 17C135.127 17 136.076 17.3643 136.845 18.0928C137.615 18.8213 138 19.7766 138 20.9588C138 22.1134 137.615 23.0756 136.845 23.8454C136.076 24.6151 135.127 25 134 25Z" fill="black"/>
<path fill-rule="evenodd" clip-rule="evenodd" d="M122 25C120.873 25 119.924 24.6151 119.155 23.8454C118.385 23.0756 118 22.1134 118 20.9588C118 19.7766 118.385 18.8213 119.155 18.0928C119.924 17.3643 120.873 17 122 17C123.127 17 124.076 17.3643 124.845 18.0928C125.615 18.8213 126 19.7766 126 20.9588C126 22.1134 125.615 23.0756 124.845 23.8454C124.076 24.6151 123.127 25 122 25Z" fill="black"/>
<path fill-rule="evenodd" clip-rule="evenodd" d="M110 25C108.873 25 107.924 24.6151 107.155 23.8454C106.385 23.0756 106 22.1134 106 20.9588C106 19.7766 106.385 18.8213 107.155 18.0928C107.924 17.3643 108.873 17 110 17C111.127 17 112.076 17.3643 112.845 18.0928C113.615 18.8213 114 19.7766 114 20.9588C114 22.1134 113.615 23.0756 112.845 23.8454C112.076 24.6151 111.127 25 110 25Z" fill="black"/>
<path fill-rule="evenodd" clip-rule="evenodd" d="M98 25C96.8728 25 95.9244 24.6151 95.1546 23.8454C94.3849 23.0756 94 22.1134 94 20.9588C94 19.7766 94.3849 18.8213 95.1546 18.0928C95.9244 17.3643 96.8728 17 98 17C99.1272 17 100.076 17.3643 100.845 18.0928C101.615 18.8213 102 19.7766 102 20.9588C102 22.1134 101.615 23.0756 100.845 23.8454C100.076 24.6151 99.1272 25 98 25Z" fill="black"/>
</svg>
