<svg width="659" height="273" viewBox="0 0 659 273" fill="none" xmlns="http://www.w3.org/2000/svg">
<path d="M7.14105 122.379V40.2226H62.5034V54.5438H24.512V74.1203H59.6551V88.4416H24.512V108.058H62.6639V122.379H7.14105ZM87.6111 122.379V40.2226H104.982V108.058H140.205V122.379H87.6111ZM169.024 40.2226L188.883 102.642H189.644L209.543 40.2226H228.799L200.476 122.379H178.09L149.728 40.2226H169.024ZM267.356 40.2226V122.379H249.985V40.2226H267.356ZM337.516 63.8507C337.195 60.6147 335.818 58.1007 333.384 56.3089C330.95 54.5171 327.647 53.6212 323.475 53.6212C320.64 53.6212 318.246 54.0224 316.294 54.8246C314.341 55.6002 312.844 56.6834 311.801 58.074C310.784 59.4647 310.276 61.0426 310.276 62.8077C310.222 64.2785 310.53 65.5623 311.199 66.6588C311.894 67.7552 312.844 68.7047 314.048 69.507C315.251 70.2826 316.642 70.9645 318.22 71.5529C319.798 72.1145 321.483 72.5959 323.274 72.997L330.656 74.7621C334.24 75.5644 337.53 76.6341 340.525 77.9714C343.521 79.3086 346.114 80.9533 348.308 82.9056C350.501 84.8578 352.199 87.1578 353.403 89.8054C354.633 92.4531 355.261 95.4888 355.289 98.9117C355.261 103.94 353.978 108.299 351.437 111.989C348.923 115.653 345.286 118.502 340.525 120.534C335.792 122.539 330.081 123.543 323.395 123.543C316.762 123.543 310.985 122.526 306.064 120.494C301.17 118.461 297.345 115.453 294.59 111.468C291.863 107.457 290.432 102.496 290.298 96.5846H307.107C307.295 99.34 308.084 101.64 309.474 103.485C310.892 105.304 312.777 106.681 315.13 107.617C317.511 108.526 320.199 108.981 323.194 108.981C326.136 108.981 328.69 108.552 330.857 107.697C333.05 106.841 334.749 105.651 335.952 104.127C337.155 102.602 337.757 100.851 337.757 98.8712C337.757 97.0261 337.209 95.4747 336.112 94.218C335.042 92.9612 333.464 91.8914 331.378 91.0089C329.319 90.1264 326.792 89.3241 323.796 88.602L314.85 86.3556C307.923 84.6707 302.454 82.0364 298.441 78.4528C294.43 74.869 292.437 70.0418 292.464 63.971C292.437 58.9967 293.762 54.6509 296.436 50.9334C299.137 47.216 302.842 44.3144 307.549 42.2284C312.256 40.1423 317.604 39.0994 323.595 39.0994C329.693 39.0994 335.016 40.1423 339.562 42.2284C344.136 44.3144 347.693 47.216 350.233 50.9334C352.774 54.6509 354.085 58.9565 354.166 63.8507H337.516ZM45.7342 183.997C45.3331 180.609 43.7061 177.979 40.8533 176.108C38.0005 174.235 34.5013 173.299 30.3558 173.299C27.3247 173.299 24.6725 173.79 22.3991 174.77C20.1481 175.751 18.3874 177.099 17.117 178.815C15.8689 180.531 15.2448 182.482 15.2448 184.666C15.2448 186.493 15.6794 188.064 16.5486 189.379C17.4402 190.672 18.5768 191.752 19.9587 192.621C21.3405 193.469 22.7892 194.171 24.3048 194.728C25.8203 195.263 27.2132 195.698 28.4837 196.032L35.4373 197.903C37.2204 198.371 39.204 199.018 41.3882 199.843C43.5946 200.667 45.7008 201.792 47.7067 203.219C49.7349 204.623 51.4064 206.428 52.7214 208.634C54.0364 210.841 54.6939 213.549 54.6939 216.758C54.6939 220.458 53.7244 223.801 51.7853 226.787C49.8686 229.773 47.0604 232.147 43.3606 233.907C39.6832 235.668 35.2145 236.548 29.9547 236.548C25.0513 236.548 20.8056 235.757 17.2173 234.175C13.6513 232.592 10.843 230.386 8.79256 227.556C6.76438 224.725 5.61657 221.438 5.34912 217.694H13.9075C14.1305 220.279 14.9997 222.419 16.5152 224.112C18.053 225.784 19.9921 227.032 22.3323 227.856C24.6948 228.659 27.2355 229.06 29.9547 229.06C33.1195 229.06 35.9612 228.547 38.4797 227.522C40.9982 226.475 42.9929 225.026 44.4639 223.177C45.9348 221.304 46.6704 219.12 46.6704 216.625C46.6704 214.351 46.0351 212.501 44.7647 211.075C43.4944 209.649 41.8228 208.49 39.75 207.599C37.6773 206.707 35.4373 205.927 33.0303 205.258L24.6056 202.851C19.2565 201.313 15.0219 199.119 11.9016 196.265C8.78141 193.413 7.22127 189.679 7.22127 185.067C7.22127 181.233 8.25766 177.891 10.3304 175.038C12.4254 172.163 15.2336 169.934 18.7551 168.352C22.2989 166.747 26.2549 165.944 30.6233 165.944C35.0362 165.944 38.9589 166.736 42.3911 168.319C45.8234 169.878 48.5425 172.018 50.5484 174.737C52.5765 177.456 53.6464 180.542 53.7578 183.997H45.7342ZM64.5812 174.235V166.881H115.932V174.235H94.4018V235.345H86.1111V174.235H64.5812ZM137.018 166.881V235.345H128.728V166.881H137.018ZM200.446 188.276C199.711 186.025 198.741 184.008 197.538 182.225C196.357 180.42 194.942 178.882 193.292 177.612C191.666 176.341 189.816 175.372 187.743 174.703C185.67 174.035 183.396 173.701 180.923 173.701C176.866 173.701 173.178 174.748 169.856 176.843C166.536 178.937 163.895 182.024 161.933 186.103C159.972 190.181 158.991 195.185 158.991 201.113C158.991 207.041 159.984 212.045 161.967 216.123C163.951 220.201 166.636 223.288 170.024 225.383C173.411 227.478 177.223 228.525 181.458 228.525C185.38 228.525 188.835 227.69 191.821 226.018C194.83 224.324 197.17 221.94 198.842 218.864C200.536 215.766 201.383 212.122 201.383 207.933L203.923 208.468H183.329V201.113H209.406V208.468C209.406 214.105 208.203 219.009 205.795 223.177C203.411 227.344 200.112 230.576 195.9 232.871C191.71 235.144 186.895 236.281 181.458 236.281C175.395 236.281 170.068 234.854 165.477 232.002C160.908 229.15 157.342 225.093 154.779 219.834C152.239 214.574 150.968 208.334 150.968 201.113C150.968 195.698 151.692 190.828 153.141 186.504C154.612 182.158 156.685 178.458 159.359 175.405C162.034 172.352 165.198 170.012 168.854 168.385C172.509 166.759 176.532 165.944 180.923 165.944C184.533 165.944 187.899 166.49 191.019 167.582C194.161 168.653 196.958 170.18 199.41 172.163C201.884 174.124 203.946 176.475 205.595 179.216C207.244 181.936 208.381 184.956 209.005 188.276H200.446ZM223.606 235.345V166.881H231.897V227.991H263.723V235.345H223.606ZM284.853 166.881V235.345H276.562V166.881H284.853ZM356.571 188.276H348.281C347.79 185.891 346.932 183.796 345.706 181.991C344.503 180.186 343.031 178.67 341.293 177.444C339.577 176.197 337.672 175.26 335.576 174.636C333.481 174.012 331.297 173.701 329.024 173.701C324.879 173.701 321.122 174.748 317.758 176.843C314.414 178.937 311.75 182.024 309.767 186.103C307.806 190.181 306.825 195.185 306.825 201.113C306.825 207.041 307.806 212.045 309.767 216.123C311.75 220.201 314.414 223.288 317.758 225.383C321.122 227.478 324.879 228.525 329.024 228.525C331.297 228.525 333.481 228.213 335.576 227.589C337.672 226.965 339.577 226.04 341.293 224.815C343.031 223.566 344.503 222.039 345.706 220.235C346.932 218.408 347.79 216.312 348.281 213.95H356.571C355.947 217.449 354.81 220.58 353.161 223.343C351.512 226.107 349.461 228.459 347.01 230.397C344.558 232.314 341.806 233.774 338.752 234.776C335.721 235.78 332.478 236.281 329.024 236.281C323.184 236.281 317.991 234.854 313.445 232.002C308.898 229.15 305.32 225.093 302.714 219.834C300.106 214.574 298.802 208.334 298.802 201.113C298.802 193.892 300.106 187.652 302.714 182.392C305.32 177.133 308.898 173.076 313.445 170.224C317.991 167.372 323.184 165.944 329.024 165.944C332.478 165.944 335.721 166.446 338.752 167.449C341.806 168.452 344.558 169.923 347.01 171.862C349.461 173.779 351.512 176.119 353.161 178.882C354.81 181.623 355.947 184.754 356.571 188.276Z" fill="#1E1E1E"/>
<path d="M499.438 44.5016L446.483 241.229H417.037L469.992 44.5016H499.438ZM635.538 164.929L522.566 214.672V182.179L599.913 151.129L598.87 152.814V148.802L599.913 150.487L522.566 119.438V86.9439L635.538 136.687V164.929Z" fill="#1E1E1E"/>
</svg>
