<svg width="70" height="29" viewBox="0 0 70 29" fill="none" xmlns="http://www.w3.org/2000/svg">
<path d="M0.758523 13V4.27273H6.6392V5.79403H2.60369V7.87358H6.33665V9.39489H2.60369V11.4787H6.65625V13H0.758523ZM9.30618 13V4.27273H11.1513V11.4787H14.8928V13H9.30618ZM17.954 4.27273L20.0634 10.9034H20.1443L22.258 4.27273H24.3034L21.2949 13H18.917L15.9043 4.27273H17.954ZM28.399 4.27273V13H26.5538V4.27273H28.399ZM35.8515 6.78267C35.8174 6.43892 35.6711 6.17187 35.4126 5.98153C35.154 5.79119 34.8032 5.69602 34.36 5.69602C34.0589 5.69602 33.8046 5.73864 33.5972 5.82386C33.3898 5.90625 33.2308 6.02131 33.12 6.16903C33.012 6.31676 32.958 6.48438 32.958 6.67188C32.9523 6.82812 32.985 6.96449 33.056 7.08097C33.1299 7.19744 33.2308 7.2983 33.3586 7.38352C33.4864 7.46591 33.6342 7.53835 33.8018 7.60085C33.9694 7.66051 34.1484 7.71165 34.3387 7.75426L35.1228 7.94176C35.5035 8.02699 35.8529 8.14062 36.1711 8.28267C36.4893 8.42472 36.7648 8.59943 36.9978 8.80682C37.2308 9.0142 37.4111 9.25852 37.539 9.53977C37.6697 9.82102 37.7364 10.1435 37.7393 10.5071C37.7364 11.0412 37.6001 11.5043 37.3302 11.8963C37.0631 12.2855 36.6768 12.5881 36.1711 12.804C35.6683 13.017 35.0617 13.1236 34.3515 13.1236C33.6469 13.1236 33.0333 13.0156 32.5106 12.7997C31.9907 12.5838 31.5844 12.2642 31.2918 11.8409C31.0021 11.4148 30.8501 10.8878 30.8359 10.2599H32.6214C32.6413 10.5526 32.7251 10.7969 32.8728 10.9929C33.0234 11.1861 33.2236 11.3324 33.4736 11.4318C33.7265 11.5284 34.012 11.5767 34.3302 11.5767C34.6427 11.5767 34.914 11.5312 35.1441 11.4403C35.3771 11.3494 35.5575 11.223 35.6853 11.0611C35.8131 10.8991 35.8771 10.7131 35.8771 10.5028C35.8771 10.3068 35.8188 10.142 35.7023 10.0085C35.5887 9.875 35.4211 9.76136 35.1995 9.66761C34.9808 9.57386 34.7123 9.48864 34.3941 9.41193L33.4438 9.1733C32.708 8.99432 32.1271 8.71449 31.7009 8.33381C31.2748 7.95312 31.0631 7.44034 31.066 6.79545C31.0631 6.26705 31.2038 5.8054 31.4879 5.41051C31.7748 5.01562 32.1683 4.70739 32.6683 4.4858C33.1683 4.2642 33.7364 4.15341 34.3728 4.15341C35.0205 4.15341 35.5859 4.2642 36.0688 4.4858C36.5546 4.70739 36.9325 5.01562 37.2023 5.41051C37.4722 5.8054 37.6114 6.26278 37.62 6.78267H35.8515ZM4.85795 19.5455C4.81534 19.1856 4.64252 18.9062 4.33949 18.7074C4.03646 18.5085 3.66477 18.4091 3.22443 18.4091C2.90246 18.4091 2.62074 18.4612 2.37926 18.5653C2.14015 18.6695 1.95313 18.8127 1.81818 18.995C1.68561 19.1773 1.61932 19.3845 1.61932 19.6165C1.61932 19.8106 1.66548 19.9775 1.75781 20.1172C1.85251 20.2545 1.97325 20.3693 2.12003 20.4616C2.26681 20.5516 2.42069 20.6262 2.58168 20.6854C2.74266 20.7422 2.89062 20.7884 3.02557 20.8239L3.7642 21.0227C3.9536 21.0724 4.1643 21.1411 4.39631 21.2287C4.63068 21.3163 4.8544 21.4358 5.06747 21.5874C5.28291 21.7365 5.46046 21.9283 5.60014 22.1626C5.73982 22.397 5.80966 22.6847 5.80966 23.0256C5.80966 23.4186 5.70668 23.7737 5.50071 24.0909C5.29711 24.4081 4.99882 24.6603 4.60582 24.8473C4.2152 25.0343 3.74053 25.1278 3.18182 25.1278C2.66098 25.1278 2.20999 25.0438 1.82884 24.8757C1.45005 24.7076 1.15175 24.4732 0.933949 24.1726C0.718513 23.8719 0.596591 23.5227 0.568182 23.125H1.47727C1.50095 23.3996 1.59328 23.6269 1.75426 23.8068C1.91761 23.9844 2.12358 24.117 2.37216 24.2045C2.62311 24.2898 2.89299 24.3324 3.18182 24.3324C3.51799 24.3324 3.81984 24.2779 4.08736 24.169C4.35488 24.0578 4.56676 23.9039 4.72301 23.7074C4.87926 23.5085 4.95739 23.2765 4.95739 23.0114C4.95739 22.7699 4.88991 22.5734 4.75497 22.4219C4.62003 22.2704 4.44247 22.1473 4.2223 22.0526C4.00213 21.9579 3.7642 21.875 3.50852 21.804L2.61364 21.5483C2.04545 21.3849 1.59564 21.1518 1.2642 20.8487C0.932765 20.5457 0.767045 20.1491 0.767045 19.6591C0.767045 19.2519 0.877131 18.8968 1.0973 18.5938C1.31984 18.2884 1.61813 18.0516 1.99219 17.8835C2.36861 17.7131 2.78883 17.6278 3.25284 17.6278C3.72159 17.6278 4.13826 17.7119 4.50284 17.88C4.86742 18.0457 5.15625 18.273 5.36932 18.5618C5.58475 18.8506 5.69839 19.1785 5.71023 19.5455H4.85795ZM6.85991 18.5085V17.7273H12.3145V18.5085H10.0275V25H9.14684V18.5085H6.85991ZM14.5543 17.7273V25H13.6737V17.7273H14.5543ZM21.2917 20C21.2136 19.7609 21.1106 19.5466 20.9828 19.3572C20.8573 19.1655 20.707 19.0021 20.5318 18.8672C20.359 18.7322 20.1625 18.6293 19.9423 18.5582C19.7221 18.4872 19.4806 18.4517 19.2179 18.4517C18.787 18.4517 18.3952 18.563 18.0424 18.7855C17.6897 19.008 17.4092 19.3359 17.2008 19.7692C16.9925 20.2024 16.8883 20.7339 16.8883 21.3636C16.8883 21.9934 16.9937 22.5249 17.2044 22.9581C17.4151 23.3913 17.7003 23.7192 18.0602 23.9418C18.42 24.1643 18.8249 24.2756 19.2747 24.2756C19.6913 24.2756 20.0583 24.1868 20.3755 24.0092C20.6951 23.8293 20.9437 23.576 21.1213 23.2493C21.3012 22.9202 21.3912 22.5331 21.3912 22.0881L21.661 22.1449H19.4735V21.3636H22.2434V22.1449C22.2434 22.7438 22.1156 23.2647 21.8599 23.7074C21.6066 24.1501 21.2562 24.4934 20.8088 24.7372C20.3637 24.9787 19.8523 25.0994 19.2747 25.0994C18.6307 25.0994 18.0649 24.9479 17.5772 24.6449C17.0919 24.3419 16.7131 23.911 16.4409 23.3523C16.171 22.7936 16.036 22.1307 16.036 21.3636C16.036 20.7884 16.113 20.2711 16.2669 19.8118C16.4231 19.3501 16.6433 18.9571 16.9274 18.6328C17.2115 18.3085 17.5476 18.0599 17.9359 17.8871C18.3242 17.7143 18.7515 17.6278 19.2179 17.6278C19.6014 17.6278 19.9589 17.6858 20.2903 17.8018C20.6241 17.9155 20.9212 18.0777 21.1816 18.2884C21.4444 18.4967 21.6634 18.7464 21.8386 19.0376C22.0138 19.3265 22.1345 19.6473 22.2008 20H21.2917ZM23.7518 25V17.7273H24.6325V24.2188H28.0131V25H23.7518ZM30.2575 17.7273V25H29.3768V17.7273H30.2575ZM37.8755 20H36.9949C36.9428 19.7467 36.8516 19.5241 36.7214 19.3324C36.5936 19.1406 36.4373 18.9796 36.2527 18.8494C36.0704 18.7169 35.868 18.6174 35.6454 18.5511C35.4229 18.4848 35.1909 18.4517 34.9494 18.4517C34.5091 18.4517 34.1101 18.563 33.7527 18.7855C33.3975 19.008 33.1146 19.3359 32.9039 19.7692C32.6956 20.2024 32.5914 20.7339 32.5914 21.3636C32.5914 21.9934 32.6956 22.5249 32.9039 22.9581C33.1146 23.3913 33.3975 23.7192 33.7527 23.9418C34.1101 24.1643 34.5091 24.2756 34.9494 24.2756C35.1909 24.2756 35.4229 24.2424 35.6454 24.1761C35.868 24.1098 36.0704 24.0116 36.2527 23.8814C36.4373 23.7488 36.5936 23.5866 36.7214 23.3949C36.8516 23.2008 36.9428 22.9782 36.9949 22.7273H37.8755C37.8092 23.099 37.6885 23.4316 37.5133 23.7251C37.3381 24.0187 37.1203 24.2685 36.8599 24.4744C36.5995 24.678 36.3071 24.8331 35.9828 24.9396C35.6608 25.0462 35.3163 25.0994 34.9494 25.0994C34.3291 25.0994 33.7775 24.9479 33.2946 24.6449C32.8116 24.3419 32.4316 23.911 32.1547 23.3523C31.8777 22.7936 31.7392 22.1307 31.7392 21.3636C31.7392 20.5966 31.8777 19.9337 32.1547 19.375C32.4316 18.8163 32.8116 18.3854 33.2946 18.0824C33.7775 17.7794 34.3291 17.6278 34.9494 17.6278C35.3163 17.6278 35.6608 17.6811 35.9828 17.7876C36.3071 17.8942 36.5995 18.0504 36.8599 18.2564C37.1203 18.46 37.3381 18.7086 37.5133 19.0021C37.6885 19.2933 37.8092 19.6259 37.8755 20Z" fill="#1E1E1E"/>
<path d="M53.0511 4.72727L47.4261 25.625H44.2983L49.9233 4.72727H53.0511ZM67.5078 17.5199L55.5078 22.804V19.3523L63.7237 16.054L63.6129 16.233V15.8068L63.7237 15.9858L55.5078 12.6875V9.23579L67.5078 14.5199V17.5199Z" fill="#1E1E1E"/>
</svg>
