<svg width="207" height="64" viewBox="0 0 207 64" fill="none" xmlns="http://www.w3.org/2000/svg">
<path d="M20.3455 5.67981H62.8337L63.5437 1.77489L66.0286 0.354919C89.5765 0.236588 137.453 0.425888 140.577 0.709882C143.701 0.993877 144.009 4.14148 143.772 5.67978H186.726L189.211 10.6497C193.471 10.3657 195.838 11.9514 196.311 12.7797L206.606 31.9493C204.239 36.9192 197.979 49.1621 195.956 51.4739C194.861 52.7251 191.696 52.8939 189.566 52.8939C188.856 53.9588 186.371 58.2188 186.371 58.2188L143.95 58.2742V60.3487C143.95 61.4137 142.352 63.1887 141.287 63.5436L66.0286 63.5436C64.0407 63.5436 63.307 61.6503 63.1887 60.7037V58.2187H20.2346L17.3946 52.8939H14.5547C12.3095 52.8938 10.6498 51.1189 9.93979 50.4089L0.35498 31.9493C3.54992 27.3344 9.58479 14.9096 10.6498 13.1347C12.194 10.5609 15.383 11.123 17.3946 11.0047L20.3455 5.67981Z" fill="#7E213B"/>
<path d="M96.7478 38.8725L96.7522 39.1243V40.1799V40.2064V41.4298L96.7478 41.6815V41.6904V41.6948V41.7125V41.7191C96.7478 41.7257 96.7479 41.7345 96.7457 41.7434C96.7457 41.7434 96.7457 41.7478 96.7435 41.75C96.7435 41.7588 96.7413 41.7699 96.7391 41.7809C96.7391 41.7809 96.7391 41.7831 96.7369 41.7853C96.7347 41.7986 96.7281 41.8096 96.7259 41.8207C96.7237 41.8229 96.7215 41.8273 96.7215 41.8295C96.7171 41.8383 96.7128 41.8427 96.7062 41.8516C96.7018 41.8538 96.6996 41.8582 96.6974 41.8604C96.6908 41.867 96.6821 41.8692 96.6777 41.8737C96.6755 41.8759 96.6711 41.8803 96.6667 41.8803C96.6557 41.8847 96.6426 41.8891 96.625 41.8891C96.4957 41.8891 96.4825 41.7655 96.4518 41.686C96.4233 41.6153 96.3597 41.5336 96.2369 41.4828C96.1382 41.443 95.9364 41.432 95.7961 41.4298H90.7676L90.7654 23.4361C90.7632 23.2948 90.7522 23.0938 90.7106 22.9922C90.6623 22.8664 90.579 22.8045 90.5088 22.7758C90.4277 22.7449 90.3092 22.7294 90.3092 22.5969C90.3092 22.5837 90.3114 22.5704 90.318 22.5594C90.3202 22.555 90.3202 22.5528 90.3224 22.5484C90.3268 22.5395 90.3312 22.5351 90.3377 22.5285C90.3399 22.5241 90.3443 22.5219 90.3465 22.5197C90.3531 22.513 90.3597 22.5086 90.3685 22.5042C90.3706 22.502 90.375 22.4998 90.3772 22.4998C90.386 22.4932 90.4013 22.4887 90.4101 22.4865C90.4123 22.4865 90.4145 22.4865 90.4145 22.4843C90.4255 22.4821 90.4342 22.4799 90.443 22.4777C90.4474 22.4755 90.4496 22.4755 90.454 22.4755C90.4606 22.4755 90.4693 22.4733 90.4759 22.4733H90.4847H90.5H90.5044H90.511L90.7632 22.4711H91.8114H92.0724H93.2873C93.2895 22.4711 93.5373 22.4733 93.5373 22.4733H93.5461H93.5483H93.5658H93.5746C93.5812 22.4733 93.5878 22.4755 93.5943 22.4755C93.5987 22.4755 93.6031 22.4755 93.6053 22.4777C93.6163 22.4799 93.6272 22.4821 93.636 22.4843C93.6382 22.4865 93.6404 22.4865 93.6404 22.4865C93.6535 22.4887 93.6645 22.4932 93.6755 22.4998C93.6799 22.4998 93.6821 22.502 93.6864 22.5042C93.693 22.5086 93.6996 22.513 93.7062 22.5197C93.7106 22.5219 93.7128 22.5241 93.715 22.5285C93.7193 22.5351 93.7237 22.5395 93.7303 22.5484C93.7325 22.5528 93.7347 22.555 93.7347 22.5594C93.7391 22.5704 93.7457 22.5837 93.7457 22.5969C93.7457 22.7294 93.6206 22.7427 93.5417 22.7758C93.4737 22.8045 93.3926 22.8664 93.3421 22.9922C93.3027 23.0938 93.2917 23.2948 93.2873 23.4361V25.1586V25.4303V39.1331L95.8093 39.1309C95.9474 39.1287 96.1492 39.1154 96.25 39.0779C96.3729 39.0271 96.4343 38.9454 96.465 38.8747C96.4957 38.793 96.511 38.6693 96.6382 38.6693C96.6557 38.6693 96.6667 38.676 96.6799 38.6782C96.6842 38.6804 96.6886 38.6826 96.6908 38.6848C96.6974 38.6892 96.704 38.6936 96.7106 38.698C96.7128 38.7003 96.715 38.7047 96.7193 38.7069C96.7237 38.7135 96.7303 38.7201 96.7347 38.7268C96.7369 38.7312 96.7391 38.7334 96.7391 38.7356C96.7435 38.7466 96.7478 38.7577 96.75 38.7709C96.7522 38.7731 96.7522 38.7753 96.7522 38.7753C96.7544 38.7864 96.7566 38.7952 96.7566 38.8063C96.7588 38.8085 96.7588 38.8151 96.7588 38.8151C96.761 38.8239 96.761 38.8283 96.761 38.835V38.8438V38.8593V38.8637V38.8725H96.7478ZM85.9737 22.2083V22.2039V22.1862V22.1796C85.9737 22.1707 85.9715 22.1641 85.9715 22.1575C85.9715 22.1575 85.9715 22.1509 85.9693 22.1464C85.9693 22.1354 85.9671 22.1288 85.9649 22.1155C85.9649 22.1155 85.9649 22.1133 85.9627 22.1111C85.9605 22.1001 85.9562 22.089 85.9518 22.078C85.9496 22.0736 85.9496 22.0714 85.9474 22.0691C85.943 22.0625 85.9386 22.0537 85.9342 22.0493C85.9298 22.0449 85.9255 22.0426 85.9255 22.0404C85.9189 22.0338 85.9123 22.0294 85.9057 22.025C85.9035 22.0228 85.8991 22.0206 85.8948 22.0184C85.8838 22.0117 85.8706 22.0095 85.8553 22.0095C85.7281 22.0095 85.7105 22.1332 85.6798 22.2149C85.6513 22.2856 85.5899 22.3673 85.4649 22.4181C85.3641 22.4578 85.1645 22.4689 85.0263 22.4711H80.0877V22.4689H79.7259V41.4055L85.0241 41.4099C85.1623 41.4121 85.3641 41.4254 85.4649 41.4629C85.5899 41.5137 85.6513 41.5954 85.6798 41.6661C85.7105 41.7478 85.7281 41.8692 85.8553 41.8692C85.8706 41.8692 85.8816 41.867 85.8948 41.8604C85.8991 41.8604 85.9035 41.856 85.9057 41.8538C85.9123 41.8516 85.9189 41.8472 85.9233 41.8405C85.9277 41.8361 85.9299 41.8339 85.932 41.8317C85.9386 41.8229 85.943 41.8185 85.9474 41.8096C85.9496 41.8052 85.9518 41.803 85.954 41.8008C85.9584 41.7897 85.9605 41.7787 85.9649 41.7677C85.9649 41.7654 85.9649 41.7632 85.9649 41.7632C85.9671 41.75 85.9693 41.7412 85.9693 41.7323C85.9715 41.7279 85.9715 41.7257 85.9715 41.7235C85.9737 41.7147 85.9737 41.708 85.9737 41.7014V41.6948V41.6793V41.6749V41.6661L85.9759 41.4143V40.1909V40.1644V39.1088L85.9737 38.857V38.8482V38.8438V38.8261V38.8173C85.9737 38.8129 85.9737 38.804 85.9715 38.7974C85.9715 38.7974 85.9715 38.7908 85.9693 38.7886C85.9693 38.7775 85.9671 38.7665 85.9649 38.7599C85.9649 38.7599 85.9649 38.7555 85.9649 38.7533C85.9605 38.7422 85.9584 38.7312 85.954 38.7201C85.9518 38.7157 85.9496 38.7135 85.9474 38.7113C85.943 38.7025 85.9386 38.6958 85.932 38.6914C85.9299 38.687 85.9277 38.6848 85.9233 38.6804C85.9189 38.6738 85.9123 38.6715 85.9057 38.6649C85.9013 38.6627 85.8969 38.6605 85.8948 38.6605C85.8838 38.6561 85.8706 38.6495 85.8553 38.6495C85.7281 38.6495 85.7105 38.7731 85.6798 38.8548C85.6513 38.9255 85.5877 39.0072 85.4649 39.058C85.3641 39.0978 85.1645 39.1088 85.0241 39.111H82.2369V38.5567H82.2412V32.8062L84.6053 32.8084C84.7434 32.8128 84.9452 32.8216 85.0439 32.8614C85.1689 32.91 85.2303 32.9939 85.2588 33.0645C85.2917 33.1462 85.307 33.2699 85.4342 33.2699C85.4496 33.2699 85.4627 33.2633 85.4759 33.2589C85.4781 33.2567 85.4825 33.2545 85.4847 33.2522C85.4912 33.2478 85.4978 33.2434 85.5022 33.2368C85.5066 33.2346 85.5088 33.2324 85.5132 33.2302C85.5176 33.2213 85.5219 33.2147 85.5241 33.2081C85.5263 33.2059 85.5307 33.2015 85.5307 33.1992C85.5351 33.1882 85.5395 33.1794 85.5417 33.1661C85.5417 33.1661 85.5417 33.1617 85.5439 33.1617C85.5461 33.1507 85.5461 33.1418 85.5505 33.1308V33.1197C85.5505 33.1153 85.5527 33.1065 85.5527 33.0977V33.0932V33.0756V33.0734V33.0645L85.5548 32.8128V31.5916V31.5629V30.5051L85.5527 30.2533V30.2467V30.2423V30.2246V30.218C85.5527 30.2091 85.5505 30.2025 85.5505 30.1981V30.1871C85.5483 30.1782 85.5483 30.1694 85.5439 30.1583C85.5417 30.1583 85.5417 30.1561 85.5417 30.1561C85.5395 30.1429 85.5329 30.1296 85.5307 30.1208C85.5285 30.1186 85.5263 30.1142 85.5241 30.1142C85.5219 30.1053 85.5176 30.0987 85.5132 30.0921C85.5088 30.0899 85.5066 30.0877 85.5022 30.0833C85.4978 30.0766 85.4912 30.0722 85.4847 30.0678C85.4803 30.0656 85.4759 30.0634 85.4759 30.0634C85.4627 30.059 85.4496 30.0546 85.4342 30.0546C85.307 30.0546 85.2917 30.1782 85.2588 30.2577C85.2325 30.3284 85.1689 30.4123 85.0439 30.4609C84.9452 30.4984 84.7434 30.5117 84.6053 30.5139L82.2412 30.5161V24.7678L85.0263 24.77C85.1645 24.7744 85.3641 24.7832 85.4649 24.8252C85.5899 24.876 85.6513 24.9599 85.6798 25.0283C85.7105 25.1078 85.7281 25.2315 85.8553 25.2315C85.8684 25.2315 85.8816 25.2271 85.8948 25.2227C85.9013 25.2205 85.9035 25.2183 85.9057 25.216C85.9123 25.2116 85.9189 25.2072 85.9255 25.2006C85.9277 25.1962 85.9298 25.194 85.9342 25.1918C85.9386 25.1851 85.943 25.1785 85.9474 25.1697C85.9496 25.1675 85.9496 25.1653 85.9518 25.163C85.9562 25.152 85.9605 25.141 85.9627 25.1277C85.9649 25.1255 85.9649 25.1255 85.9649 25.1255C85.9671 25.1145 85.9693 25.1034 85.9693 25.0946C85.9715 25.088 85.9715 25.088 85.9715 25.0813C85.9715 25.0747 85.9737 25.0681 85.9737 25.0615V25.0526V25.0416V25.0328L85.9715 25.0261L85.9759 24.7722V23.5487V23.5245V22.4667L85.9715 22.2149L85.9737 22.2083ZM49.3026 41.3061C49.3026 41.3194 49.3004 41.3326 49.2938 41.3437C49.2916 41.3503 49.2894 41.3525 49.2894 41.3547C49.285 41.3613 49.2807 41.3702 49.2763 41.3746C49.2719 41.3768 49.2697 41.379 49.2653 41.3812C49.2587 41.3878 49.2521 41.3922 49.2456 41.3967C49.2434 41.3989 49.239 41.4011 49.2368 41.4011C49.2258 41.4055 49.2149 41.4099 49.2039 41.4121C49.2017 41.4121 49.1995 41.4121 49.1973 41.4121C49.1886 41.4143 49.1776 41.4165 49.1666 41.4165C49.1644 41.4165 49.1622 41.4187 49.1579 41.4187C49.1491 41.4187 49.1425 41.4209 49.1359 41.4209H49.1293H49.1118H49.1074C49.1052 41.4209 49.1008 41.4187 49.1008 41.4187L48.8508 41.4232H47.8004H47.5416H46.3267L46.0767 41.4187C46.0767 41.4187 46.0723 41.4209 46.0679 41.4209H46.0657H46.0482H46.0416C46.035 41.4209 46.0284 41.4187 46.0219 41.4187C46.0197 41.4165 46.0153 41.4165 46.0109 41.4165C45.9999 41.4165 45.989 41.4143 45.9802 41.4121C45.978 41.4121 45.9758 41.4121 45.9758 41.4121C45.9649 41.4099 45.9539 41.4055 45.9429 41.4011C45.9407 41.4011 45.9364 41.3989 45.9342 41.3967C45.9276 41.3922 45.921 41.3878 45.9122 41.3812C45.91 41.379 45.9078 41.3768 45.9035 41.3746C45.8991 41.3679 45.8947 41.3591 45.8903 41.3547C45.8903 41.3525 45.8859 41.3503 45.8859 41.3437C45.8815 41.3304 45.8771 41.3194 45.8771 41.3061C45.8771 41.1736 45.9999 41.1604 46.0789 41.1272C46.1491 41.0985 46.2302 41.0345 46.2807 40.9108C46.3201 40.8114 46.3311 40.6083 46.3355 40.4691V38.7488V38.4728V34.4735H43.4539V35.4959H43.4517V40.4691C43.4561 40.6083 43.4649 40.8114 43.5043 40.9108C43.5526 41.0367 43.6359 41.0985 43.7061 41.1272C43.785 41.1582 43.9056 41.1736 43.9056 41.3061C43.9056 41.3194 43.9034 41.3326 43.8991 41.3437C43.8969 41.3503 43.8947 41.3525 43.8925 41.3547C43.8881 41.3613 43.8859 41.3702 43.8793 41.3746C43.8749 41.3768 43.8728 41.379 43.8684 41.3812C43.8596 41.3878 43.8552 41.3922 43.8464 41.3967C43.842 41.3989 43.8399 41.4011 43.8377 41.4011C43.8267 41.4055 43.8157 41.4099 43.8048 41.4121C43.8004 41.4121 43.8004 41.4121 43.7982 41.4121C43.7894 41.4143 43.7785 41.4165 43.7697 41.4165C43.7653 41.4165 43.7609 41.4187 43.7587 41.4187C43.7521 41.4187 43.7434 41.4209 43.7368 41.4209H43.728H43.7127H43.7083C43.7039 41.4209 43.6995 41.4187 43.6995 41.4187L43.4495 41.4232H42.3991H42.1381H40.9232L40.6754 41.4187C40.6754 41.4187 40.671 41.4209 40.6666 41.4209H40.6622H40.6447H40.6359C40.6315 41.4209 40.6249 41.4187 40.614 41.4187C40.6096 41.4165 40.6096 41.4165 40.6052 41.4165C40.5942 41.4165 40.5855 41.4143 40.5767 41.4121C40.5745 41.4121 40.5723 41.4121 40.5701 41.4121C40.5591 41.4099 40.5482 41.4055 40.5372 41.4011C40.535 41.4011 40.5306 41.3989 40.5284 41.3967C40.5219 41.3922 40.5131 41.3878 40.5087 41.3812C40.5065 41.379 40.5021 41.3768 40.5021 41.3746C40.4955 41.3679 40.4912 41.3591 40.4868 41.3547C40.4824 41.3525 40.4802 41.3503 40.478 41.3437C40.4736 41.3304 40.4692 41.3194 40.4692 41.3061C40.4692 41.1736 40.592 41.1604 40.6732 41.1272C40.7412 41.0985 40.8223 41.0345 40.8727 40.9108C40.9122 40.8114 40.9232 40.6083 40.9276 40.4691L40.9298 25.7173C40.9298 23.5532 41.932 22.4733 43.9429 22.4733H45.8267C47.8355 22.4733 48.8377 23.5532 48.8377 25.7173V40.4691C48.8421 40.6083 48.853 40.8114 48.8925 40.9108C48.9407 41.0367 49.0241 41.0985 49.0942 41.1272C49.182 41.1604 49.3026 41.1758 49.3026 41.3061ZM46.3333 25.8741C46.3333 25.1365 45.967 24.7655 45.2324 24.7655H44.5526C43.8201 24.7655 43.4517 25.1365 43.4517 25.8741V32.179H46.3333V25.8741ZM108.866 39.0138V39.0094V38.994V38.9873C108.864 38.9785 108.864 38.9697 108.864 38.9631V38.952C108.862 38.9432 108.86 38.9343 108.86 38.9233C108.858 38.9211 108.858 38.9189 108.858 38.9189C108.855 38.9056 108.853 38.8946 108.847 38.8836C108.844 38.8813 108.842 38.8769 108.84 38.8747C108.836 38.8681 108.831 38.8615 108.825 38.8526C108.822 38.8504 108.82 38.8482 108.818 38.8438C108.811 38.8394 108.805 38.8328 108.798 38.8283C108.796 38.8261 108.792 38.8217 108.787 38.8217C108.776 38.8173 108.761 38.8151 108.748 38.8151C108.621 38.8151 108.605 38.9388 108.572 39.0183C108.542 39.0911 108.483 39.1706 108.358 39.2214C108.259 39.2634 108.057 39.2722 107.919 39.2766H106.761H102.983H101.827C101.689 39.2722 101.489 39.2634 101.388 39.2214C101.261 39.1728 101.2 39.0911 101.173 39.0183C101.143 38.9388 101.125 38.8151 101 38.8151C100.985 38.8151 100.969 38.8173 100.958 38.8217C100.956 38.8217 100.952 38.8261 100.947 38.8283C100.943 38.8328 100.936 38.8394 100.93 38.8438C100.925 38.8482 100.923 38.8504 100.921 38.8526C100.915 38.8615 100.91 38.8681 100.908 38.8747C100.904 38.8769 100.904 38.8813 100.901 38.8836C100.897 38.8946 100.895 38.9034 100.888 38.9167V38.9189C100.886 38.9321 100.884 38.941 100.884 38.9498V38.9586C100.884 38.9675 100.882 38.9763 100.882 38.9829V38.9895V39.0006V39.0072V39.016L100.879 39.2678V40.1997V40.3256V41.4254L100.882 41.6749V41.6837V41.6948V41.7102V41.7169C100.882 41.7235 100.884 41.7301 100.884 41.7389V41.7478C100.884 41.7566 100.886 41.7677 100.888 41.7765V41.7831C100.895 41.7942 100.897 41.8052 100.901 41.8162C100.904 41.8207 100.904 41.8229 100.908 41.8251C100.912 41.8339 100.915 41.8383 100.921 41.8449C100.923 41.8494 100.925 41.8516 100.93 41.8538C100.934 41.8604 100.943 41.8648 100.947 41.8692C100.954 41.8714 100.956 41.8737 100.958 41.8759C100.972 41.8803 100.985 41.8825 101 41.8825C101.127 41.8825 101.143 41.7588 101.173 41.6793C101.2 41.6087 101.263 41.5269 101.388 41.4762C101.489 41.4364 101.689 41.4254 101.827 41.4232H102.983H103.535H103.807H105.939H106.213H106.763H107.921C108.059 41.4254 108.261 41.4364 108.36 41.4762C108.485 41.5269 108.544 41.6087 108.575 41.6793C108.605 41.7588 108.623 41.8825 108.75 41.8825C108.763 41.8825 108.779 41.8803 108.79 41.8759C108.794 41.8737 108.798 41.8714 108.801 41.8692C108.807 41.8648 108.814 41.8582 108.82 41.8538C108.822 41.8516 108.825 41.8494 108.827 41.8449C108.833 41.8361 108.838 41.8317 108.842 41.8251C108.844 41.8207 108.847 41.8185 108.849 41.8162C108.853 41.8052 108.858 41.7942 108.86 41.7831C108.86 41.7831 108.86 41.7787 108.862 41.7765C108.864 41.7654 108.864 41.7566 108.866 41.7478V41.7412C108.868 41.7301 108.868 41.7235 108.868 41.7169V41.7102V41.697V41.6904C108.866 41.6859 108.866 41.6815 108.866 41.6815L108.868 41.432V40.3322V40.2064V39.2744L108.866 39.0227C108.864 39.0227 108.864 39.0183 108.866 39.0138ZM61.853 22.9856C61.9035 22.8597 61.9846 22.8001 62.0548 22.7692C62.1338 22.7361 62.2566 22.7228 62.2566 22.5925C62.2566 22.5749 62.2522 22.5638 62.2478 22.5506C62.2456 22.5462 62.2434 22.5439 62.2434 22.5417C62.2368 22.5329 62.2324 22.5263 62.228 22.5219C62.2237 22.5174 62.2215 22.5152 62.2171 22.513C62.2105 22.5064 62.2039 22.502 62.1973 22.4998C62.1951 22.4976 62.1908 22.4954 62.1886 22.4932C62.1776 22.4887 62.1666 22.4843 62.1557 22.4821C62.1535 22.4821 62.1535 22.4821 62.1513 22.4799C62.1403 22.4755 62.1316 22.4733 62.1206 22.4733C62.1184 22.4733 62.114 22.4711 62.1118 22.4711C62.1031 22.4711 62.0965 22.4711 62.0921 22.4711H62.0833H62.0658H62.0614C62.057 22.4711 62.0526 22.4711 62.0526 22.4711L61.8026 22.4689H60.5877H60.3289H59.2763L59.0263 22.4711C59.0263 22.4711 59.0219 22.4711 59.0197 22.4711H59.0153H58.9978H58.989C58.9846 22.4711 58.9759 22.4711 58.9693 22.4711C58.9649 22.4711 58.9627 22.4733 58.9605 22.4733C58.9495 22.4733 58.9386 22.4755 58.9298 22.4799C58.9276 22.4821 58.9276 22.4821 58.9232 22.4821C58.9122 22.4843 58.9013 22.4887 58.8903 22.4932C58.8859 22.4932 58.8837 22.4976 58.8815 22.4998C58.8728 22.502 58.8662 22.5086 58.8596 22.513C58.8552 22.5152 58.853 22.5174 58.8508 22.5219C58.8443 22.5285 58.8399 22.5351 58.8355 22.5417C58.8333 22.5462 58.8311 22.5484 58.8311 22.5506C58.8245 22.5616 58.8223 22.5749 58.8223 22.5925C58.8223 22.7206 58.9451 22.7361 59.0219 22.7692C59.0921 22.7979 59.1732 22.8597 59.2258 22.9856C59.2631 23.0872 59.2741 23.2882 59.2763 23.4295L59.2741 31.6247L56.7456 23.0386C56.7193 22.926 56.7368 22.831 56.8092 22.7847C56.8114 22.7824 56.8136 22.7802 56.8158 22.7802C56.8201 22.778 56.8245 22.7714 56.8311 22.7692C56.8333 22.7692 56.8399 22.7692 56.8421 22.767C56.921 22.7361 57.0307 22.7184 57.0307 22.5925C57.0307 22.5771 57.0263 22.566 57.0219 22.5528C57.0197 22.5484 57.0175 22.5462 57.0153 22.5439C57.0109 22.5351 57.0065 22.5307 57 22.5241C56.9956 22.5197 56.9956 22.5174 56.9912 22.5152C56.9868 22.5086 56.978 22.5042 56.9693 22.502C56.9671 22.4998 56.9649 22.4976 56.9605 22.4954C56.9517 22.4887 56.9386 22.4865 56.9276 22.4843C56.9254 22.4821 56.9232 22.4799 56.921 22.4799C56.9122 22.4777 56.9013 22.4755 56.8925 22.4755H56.8815C56.8728 22.4755 56.8662 22.4755 56.8596 22.4755H56.853H56.8377H56.8311H56.8223L56.5723 22.4711H55.3574H55.0964H54.0482L53.7982 22.4755H53.7916H53.7872H53.7719H53.7631C53.7565 22.4755 53.75 22.4755 53.7412 22.4755H53.7302C53.7215 22.4777 53.7127 22.4777 53.7039 22.4799C53.6995 22.4799 53.6973 22.4821 53.6973 22.4843C53.6864 22.4843 53.6732 22.4887 53.6644 22.4954C53.6622 22.4954 53.6579 22.4998 53.6535 22.502C53.6469 22.5042 53.6403 22.5086 53.6315 22.5152C53.6293 22.5174 53.625 22.5197 53.6228 22.5241C53.6162 22.5307 53.6118 22.5351 53.6096 22.5439C53.6074 22.5462 53.603 22.5506 53.6008 22.5528C53.5964 22.566 53.5943 22.5771 53.5943 22.5925C53.5943 22.7228 53.7171 22.7383 53.796 22.7714C53.8662 22.7979 53.9473 22.8619 53.9978 22.9878C54.0394 23.0894 54.0504 23.2904 54.0526 23.4317L54.0548 38.475V38.751V40.4714C54.0526 40.6105 54.0416 40.8137 54.0022 40.913C53.9539 41.0389 53.8706 41.1007 53.7982 41.1294C53.7214 41.1604 53.5965 41.1758 53.5965 41.3083C53.5965 41.3216 53.6008 41.3348 53.6052 41.3459C53.6074 41.3525 53.6118 41.3547 53.6118 41.3569C53.6162 41.3635 53.6206 41.3724 53.625 41.3768C53.6293 41.379 53.6315 41.3812 53.6359 41.3834C53.6425 41.39 53.6491 41.3944 53.6557 41.3989C53.66 41.4011 53.6644 41.4033 53.6644 41.4033C53.6754 41.4077 53.6864 41.4121 53.6973 41.4143C53.6995 41.4165 53.7017 41.4165 53.7039 41.4165C53.7127 41.4187 53.7215 41.4209 53.7302 41.4209C53.7346 41.4209 53.7368 41.4232 53.7412 41.4232C53.75 41.4232 53.7565 41.4254 53.7631 41.4254H53.7719H53.7894H53.7916C53.796 41.4254 53.7982 41.4232 53.7982 41.4232L54.0504 41.4276H55.2653H55.5241H56.5745L56.8245 41.4232C56.8245 41.4232 56.8289 41.4254 56.8333 41.4254H56.8377H56.8552H56.864C56.8706 41.4254 56.8772 41.4232 56.8837 41.4232C56.8881 41.4209 56.8903 41.4209 56.8925 41.4209C56.9035 41.4209 56.9122 41.4187 56.9232 41.4165C56.9254 41.4165 56.9276 41.4165 56.9276 41.4143C56.9386 41.4121 56.9517 41.4077 56.9627 41.4033C56.9649 41.4033 56.9671 41.4011 56.9715 41.3989C56.9802 41.3944 56.9868 41.39 56.9934 41.3834C56.9978 41.3812 56.9978 41.379 57.0022 41.3768C57.0087 41.3702 57.0131 41.3613 57.0175 41.3569C57.0197 41.3547 57.0219 41.3525 57.0219 41.3459C57.0285 41.3326 57.0307 41.3216 57.0307 41.3083C57.0307 41.1758 56.9079 41.1626 56.8289 41.1294C56.7587 41.1007 56.6754 41.0367 56.6272 40.913C56.5855 40.8137 56.5745 40.6105 56.5723 40.4714L56.5745 29.0166L59.2697 37.6425V40.4714C59.2653 40.6105 59.2566 40.8137 59.2149 40.913C59.1666 41.0389 59.0833 41.1007 59.0131 41.1294C58.9364 41.1604 58.8136 41.1758 58.8136 41.3083C58.8136 41.3216 58.818 41.3348 58.8223 41.3459C58.8245 41.3525 58.8267 41.3547 58.8289 41.3569C58.8333 41.3635 58.8399 41.3724 58.8421 41.3768C58.8465 41.379 58.8486 41.3812 58.8508 41.3834C58.8574 41.39 58.864 41.3944 58.8706 41.3989C58.875 41.4011 58.8772 41.4033 58.8794 41.4033C58.8903 41.4077 58.9035 41.4121 58.9144 41.4143C58.9166 41.4165 58.9188 41.4165 58.921 41.4165C58.9298 41.4187 58.9408 41.4209 58.9495 41.4209C58.9539 41.4209 58.9561 41.4232 58.9583 41.4232C58.9671 41.4232 58.9737 41.4254 58.9802 41.4254H58.9868H59.0044H59.0087C59.0131 41.4254 59.0153 41.4232 59.0153 41.4232L59.2653 41.4276H60.4802H60.7412H61.7916L62.0395 41.4232C62.0395 41.4232 62.0438 41.4254 62.0504 41.4254H62.0526H62.0702H62.0789C62.0855 41.4254 62.0921 41.4232 62.0987 41.4232C62.1008 41.4209 62.1052 41.4209 62.1096 41.4209C62.1184 41.4209 62.1294 41.4187 62.1381 41.4165C62.1381 41.4165 62.1425 41.4165 62.1447 41.4143C62.1579 41.4121 62.1666 41.4077 62.1776 41.4033C62.1798 41.4033 62.182 41.4011 62.1864 41.3989C62.193 41.3944 62.2017 41.39 62.2083 41.3834C62.2105 41.3812 62.2127 41.379 62.2171 41.3768C62.2237 41.3702 62.2281 41.3613 62.2324 41.3569C62.2324 41.3569 62.2368 41.3525 62.239 41.3459C62.2434 41.3326 62.2456 41.3216 62.2456 41.3083C62.2456 41.1758 62.1228 41.1626 62.0438 41.1294C61.9737 41.1007 61.8925 41.0367 61.8421 40.913C61.8026 40.8137 61.7916 40.6105 61.7894 40.4714L61.7938 23.4317C61.8026 23.2882 61.8136 23.0872 61.853 22.9856ZM74.943 41.1317C74.8728 41.1029 74.7917 41.0389 74.7434 40.913C74.7039 40.8137 74.693 40.6083 74.6886 40.4714V32.1967H73.7939H73.5219H71.8136C71.6732 32.1922 71.4737 32.1812 71.3728 32.1414C71.2478 32.0929 71.1864 32.0089 71.1579 31.9383C71.125 31.8588 71.1096 31.7351 70.9803 31.7351C70.9671 31.7351 70.9539 31.7395 70.943 31.7417C70.9386 31.7439 70.9342 31.7462 70.932 31.7484C70.9254 31.7528 70.9188 31.7594 70.9123 31.7638C70.9101 31.7682 70.9079 31.7682 70.9035 31.7727C70.8969 31.7793 70.8925 31.7859 70.8881 31.7925C70.886 31.7969 70.886 31.7992 70.8838 31.7992C70.8794 31.8124 70.875 31.8234 70.8728 31.8345V31.8411C70.8706 31.8499 70.8684 31.861 70.8662 31.8698L70.864 31.8809V31.9029V31.9074V31.9206V31.9294V31.9361L70.8618 32.1878V33.4112V33.4223V34.4779L70.864 34.7296V34.7363V34.7429V34.7606V34.7672V34.7893L70.8662 34.7981C70.8684 34.8091 70.8706 34.818 70.8728 34.829V34.8334C70.8772 34.8467 70.8794 34.8577 70.8838 34.8666C70.886 34.871 70.886 34.8754 70.8881 34.8776C70.8925 34.8842 70.8969 34.8931 70.9035 34.8975C70.9057 34.9019 70.9079 34.9041 70.9123 34.9063C70.9188 34.9107 70.9254 34.9173 70.932 34.9218C70.9342 34.924 70.9408 34.9262 70.943 34.9262C70.9539 34.9306 70.9671 34.935 70.9803 34.935C71.1096 34.935 71.125 34.8113 71.1579 34.7318C71.1864 34.6612 71.2478 34.5795 71.3728 34.5287C71.4715 34.4911 71.6732 34.4779 71.8136 34.4757H72.1776V35.03H72.1732V39.1287H70.4715C69.7368 39.1287 69.3706 38.6738 69.3706 37.7573V26.1546C69.3706 25.2403 69.7368 24.7832 70.4715 24.7832H71.1009C71.8158 24.7832 72.1754 25.2425 72.1754 26.1546V26.9032C72.171 27.0446 72.1623 27.2433 72.1206 27.3449C72.0724 27.4686 71.989 27.5326 71.9211 27.5613C71.8421 27.5944 71.7193 27.6099 71.7193 27.738C71.7193 27.7534 71.7215 27.7667 71.7281 27.7755C71.7281 27.7822 71.7324 27.7844 71.7346 27.7866C71.739 27.7932 71.7456 27.802 71.75 27.8064C71.7522 27.8109 71.7544 27.8109 71.7588 27.8153C71.7654 27.8197 71.7719 27.8241 71.7785 27.8285C71.7829 27.8307 71.7851 27.8329 71.7873 27.8352C71.7982 27.8396 71.8092 27.844 71.8202 27.844C71.8224 27.844 71.8246 27.8462 71.8246 27.8462C71.8355 27.8506 71.8465 27.8506 71.8553 27.8528C71.8575 27.8528 71.8618 27.8528 71.864 27.855C71.8728 27.855 71.8794 27.8572 71.886 27.8572H71.8925H71.9079H71.9123H71.9211L72.1711 27.8617H73.386H73.6469H74.6974L74.9452 27.8572H74.9561H74.9605H74.9759H74.9803C74.989 27.8572 74.9956 27.855 75.0044 27.855C75.0088 27.8528 75.011 27.8528 75.0154 27.8528C75.0241 27.8506 75.0351 27.8506 75.0439 27.8462C75.0461 27.8462 75.0461 27.844 75.0483 27.844C75.0592 27.8418 75.0702 27.8374 75.0833 27.8352C75.0855 27.8329 75.0877 27.8307 75.0921 27.8285C75.1009 27.8241 75.1075 27.8175 75.114 27.8153C75.1184 27.8131 75.1206 27.8109 75.1228 27.8064C75.1294 27.7998 75.1338 27.791 75.1382 27.7866C75.1404 27.7822 75.1426 27.7799 75.1447 27.7755C75.1513 27.7667 75.1513 27.7534 75.1513 27.738C75.1513 27.6077 75.0307 27.5944 74.9496 27.5613C74.8794 27.5326 74.7982 27.4686 74.75 27.3449C74.7105 27.2433 74.6974 27.0446 74.6952 26.9032V25.7858C74.6952 23.5885 73.6294 22.4909 71.5 22.4909H69.7719C67.8333 22.4909 66.864 23.573 66.864 25.735V38.2365C66.864 40.3676 67.8333 41.432 69.7719 41.432H74.704L74.9518 41.4298H74.9605H74.9649H74.9825H74.989C74.9956 41.4298 75.0022 41.4298 75.011 41.4254H75.0219C75.0307 41.4232 75.0417 41.4209 75.0526 41.4209C75.0548 41.4187 75.0548 41.4187 75.057 41.4187C75.0702 41.4165 75.0789 41.4121 75.0921 41.4077C75.0943 41.4055 75.0987 41.4033 75.1009 41.4033C75.1097 41.3989 75.1162 41.3944 75.1228 41.39C75.125 41.3878 75.1294 41.3834 75.1316 41.379C75.1382 41.3746 75.1425 41.3679 75.1469 41.3613C75.1491 41.3569 75.1513 41.3547 75.1535 41.3503C75.1579 41.3392 75.1623 41.326 75.1623 41.3105C75.1447 41.178 75.0219 41.1626 74.943 41.1317ZM108.735 27.3074C108.662 27.2787 108.581 27.2168 108.531 27.0909C108.493 26.9916 108.48 26.8039 108.478 26.6625L108.476 25.7372C108.476 23.5752 107.469 22.4932 105.463 22.4932H103.893C101.884 22.4932 100.879 23.5752 100.879 25.7372V27.3162C100.879 27.8087 100.932 28.2062 101.037 28.5153C101.14 28.8223 101.311 29.074 101.548 29.2662C101.783 29.4605 102.162 29.6968 102.689 29.9773L105.07 31.3244C105.384 31.5143 105.61 31.6755 105.75 31.7969C105.89 31.9206 105.961 32.1591 105.961 32.5102V33.0822C105.961 33.8198 105.629 34.1908 104.963 34.1908H104.518C103.768 34.1908 103.393 33.822 103.393 33.0822V33.0645L103.39 33.0623V32.9983C103.395 32.857 103.406 32.656 103.443 32.5544C103.493 32.4285 103.575 32.3689 103.645 32.338C103.726 32.3049 103.849 32.2894 103.849 32.1591C103.849 32.1437 103.844 32.1326 103.84 32.1194C103.838 32.1149 103.836 32.1105 103.833 32.1083C103.829 32.1017 103.825 32.0951 103.82 32.0884C103.818 32.0862 103.814 32.084 103.811 32.0796C103.805 32.073 103.798 32.0708 103.79 32.0664C103.785 32.0642 103.783 32.0619 103.779 32.0619C103.77 32.0553 103.759 32.0509 103.746 32.0487H103.741C103.733 32.0465 103.722 32.0443 103.713 32.0443C103.711 32.0421 103.706 32.0421 103.704 32.0421C103.695 32.0399 103.689 32.0399 103.682 32.0399H103.675H103.658H103.656C103.649 32.0399 103.645 32.0421 103.645 32.0421L103.397 32.0377H102.18H101.921H100.871L100.621 32.0421C100.621 32.0421 100.616 32.0399 100.614 32.0399H100.61H100.592H100.583C100.577 32.0399 100.572 32.0421 100.564 32.0421C100.557 32.0421 100.555 32.0421 100.553 32.0443C100.544 32.0443 100.533 32.0465 100.524 32.0487H100.518C100.507 32.0509 100.496 32.0553 100.485 32.0619C100.48 32.0642 100.478 32.0664 100.476 32.0664C100.469 32.0708 100.463 32.073 100.456 32.0796C100.454 32.084 100.45 32.0862 100.445 32.0884C100.439 32.0951 100.436 32.1017 100.432 32.1083C100.43 32.1127 100.428 32.1149 100.425 32.1194C100.421 32.1304 100.419 32.1437 100.419 32.1591C100.419 32.2894 100.54 32.3027 100.621 32.338C100.691 32.3667 100.774 32.4285 100.822 32.5544C100.847 32.6185 100.862 32.7222 100.868 32.8282H100.871C100.875 32.8724 100.877 32.9144 100.877 32.9563V33.0005C100.877 33.0292 100.879 33.0535 100.879 33.0822V33.1507H100.882C100.925 35.3701 101.925 36.4831 103.89 36.4831H105.436C107.461 36.4831 108.474 35.4186 108.474 33.292V31.9029C108.474 31.236 108.41 30.7833 108.29 30.5448C108.167 30.3063 107.996 30.1053 107.776 29.9375C107.559 29.7697 107.186 29.5378 106.665 29.2397L104.281 27.9478C103.967 27.7557 103.739 27.5967 103.601 27.473C103.461 27.3493 103.39 27.2919 103.39 26.9408V25.9183C103.39 25.163 103.748 24.7854 104.465 24.7854H104.855C105.59 24.7854 105.956 25.163 105.956 25.9183L105.958 26.6449C105.956 26.784 105.945 26.9871 105.906 27.0887C105.855 27.2146 105.774 27.2742 105.702 27.3052C105.623 27.3361 105.5 27.3515 105.5 27.4818C105.5 27.4995 105.502 27.5105 105.509 27.5238C105.511 27.526 105.513 27.5282 105.513 27.5304C105.518 27.5392 105.524 27.5459 105.529 27.5525C105.533 27.5569 105.535 27.5591 105.537 27.5613C105.546 27.5679 105.553 27.5724 105.561 27.5746C105.564 27.5768 105.568 27.579 105.568 27.579C105.581 27.5856 105.59 27.5878 105.603 27.59C105.605 27.5922 105.605 27.5944 105.608 27.5944C105.616 27.5967 105.627 27.5989 105.638 27.5989H105.649C105.656 27.6011 105.662 27.6011 105.669 27.6011C105.671 27.6011 105.675 27.6033 105.678 27.6033C105.684 27.6033 105.691 27.6033 105.695 27.6011H105.7H105.706L105.956 27.6033H107.171H107.43H108.48L108.733 27.6011H108.737H108.743C108.748 27.6033 108.754 27.6033 108.759 27.6033C108.761 27.6033 108.765 27.6011 108.768 27.6011C108.774 27.6011 108.781 27.6011 108.79 27.5989H108.798C108.807 27.5967 108.818 27.5944 108.829 27.5944L108.833 27.5922C108.847 27.5878 108.858 27.5856 108.866 27.579C108.871 27.5768 108.875 27.5746 108.875 27.5746C108.884 27.5702 108.89 27.5657 108.895 27.5591C108.899 27.5569 108.901 27.5547 108.906 27.5503C108.912 27.5437 108.917 27.537 108.921 27.5282C108.923 27.526 108.926 27.5238 108.926 27.5238C108.932 27.5083 108.934 27.4973 108.934 27.4796C108.934 27.3537 108.811 27.3405 108.735 27.3074ZM162.662 22.5727C162.658 22.566 162.656 22.5594 162.649 22.5528C162.647 22.5506 162.643 22.5484 162.641 22.5439C162.634 22.5395 162.63 22.5351 162.621 22.5307C162.616 22.5285 162.614 22.5263 162.612 22.5241C162.601 22.5197 162.592 22.5152 162.579 22.513H162.575C162.566 22.5108 162.555 22.5086 162.546 22.5064C162.542 22.5064 162.54 22.5042 162.535 22.5042C162.529 22.502 162.52 22.502 162.513 22.502H162.505H162.489H162.485H162.476L162.224 22.4998H161.011H160.75H159.702L159.45 22.502H159.443H159.439H159.421H159.415C159.408 22.502 159.401 22.502 159.393 22.5042C159.388 22.5042 159.386 22.5064 159.382 22.5064C159.373 22.5086 159.364 22.5108 159.353 22.513H159.347C159.336 22.5152 159.325 22.5197 159.316 22.5241C159.314 22.5263 159.309 22.5285 159.307 22.5307C159.301 22.5351 159.294 22.5395 159.285 22.5439C159.283 22.5484 159.281 22.5506 159.276 22.5528C159.27 22.5594 159.266 22.566 159.261 22.5727C159.257 22.5771 159.257 22.5793 159.252 22.5837C159.25 22.5947 159.246 22.608 159.246 22.6234C159.246 22.7515 159.366 22.767 159.448 22.8001C159.509 22.8244 159.59 22.8443 159.612 22.9304C159.634 23.0298 159.603 23.1247 159.601 23.138C159.544 23.3853 158.033 30.7215 158.033 30.7215H157.954C157.954 30.7215 156.237 23.2639 156.208 23.138C156.204 23.1247 156.176 23.0298 156.195 22.9304C156.217 22.8443 156.298 22.8266 156.36 22.8001C156.441 22.7692 156.562 22.7515 156.562 22.6234C156.562 22.608 156.559 22.5947 156.553 22.5837C156.551 22.5793 156.548 22.5771 156.546 22.5727C156.542 22.566 156.54 22.5594 156.533 22.5528C156.529 22.5506 156.526 22.5484 156.524 22.5439C156.518 22.5395 156.509 22.5351 156.502 22.5307C156.498 22.5285 156.496 22.5263 156.494 22.5241C156.483 22.5197 156.472 22.5152 156.461 22.513H156.454C156.445 22.5108 156.434 22.5086 156.423 22.5064C156.421 22.5064 156.419 22.5042 156.415 22.5042C156.406 22.502 156.399 22.502 156.393 22.502H156.386H156.371H156.366H156.358L156.108 22.4998H155.057H154.796H153.581L153.331 22.502H153.323H153.316H153.301H153.292C153.287 22.502 153.279 22.502 153.272 22.5042C153.268 22.5042 153.266 22.5064 153.263 22.5064C153.252 22.5086 153.244 22.5108 153.233 22.513H153.228C153.217 22.5152 153.206 22.5197 153.193 22.5241C153.191 22.5263 153.189 22.5285 153.187 22.5307C153.178 22.5351 153.171 22.5395 153.165 22.5439C153.162 22.5484 153.16 22.5506 153.156 22.5528C153.151 22.5594 153.147 22.566 153.141 22.5727C153.138 22.5771 153.136 22.5793 153.134 22.5837C153.132 22.5947 153.13 22.608 153.13 22.6234C153.13 22.7007 153.171 22.7361 153.222 22.7604C153.553 22.8642 153.68 22.8884 153.719 23.0298C153.759 23.1711 156.671 34.4558 156.671 34.4558L156.665 40.4691C156.66 40.6105 156.654 40.8114 156.61 40.913C156.559 41.0367 156.478 41.1007 156.41 41.1294C156.329 41.1604 156.208 41.1758 156.208 41.3061C156.208 41.3216 156.213 41.3348 156.217 41.3481C156.217 41.3481 156.219 41.3547 156.222 41.3569C156.226 41.3657 156.233 41.3702 156.237 41.3768C156.239 41.3812 156.244 41.3834 156.246 41.3856C156.252 41.3922 156.259 41.3967 156.268 41.3989C156.272 41.4011 156.274 41.4033 156.276 41.4033C156.287 41.4099 156.298 41.4121 156.309 41.4165C156.312 41.4165 156.314 41.4165 156.316 41.4165C156.327 41.4187 156.336 41.4209 156.344 41.4209C156.349 41.4232 156.353 41.4232 156.353 41.4232C156.36 41.4254 156.369 41.4276 156.375 41.4276H156.382H156.399H156.404C156.408 41.4276 156.412 41.4254 156.412 41.4254L156.662 41.4276H157.877H158.136H159.187L159.437 41.4254C159.437 41.4254 159.439 41.4276 159.443 41.4276H159.448H159.463H159.472C159.48 41.4276 159.485 41.4254 159.491 41.4232C159.498 41.4232 159.5 41.4232 159.502 41.4209C159.513 41.4187 159.52 41.4187 159.531 41.4165C159.535 41.4165 159.537 41.4165 159.537 41.4165C159.548 41.4121 159.559 41.4099 159.57 41.4033C159.573 41.4011 159.577 41.3989 159.579 41.3989C159.586 41.3944 159.594 41.39 159.599 41.3856C159.603 41.3834 159.605 41.3812 159.61 41.3768C159.616 41.3702 159.619 41.3657 159.623 41.3569C159.625 41.3525 159.63 41.3503 159.63 41.3503C159.634 41.3348 159.638 41.3216 159.638 41.3061C159.638 41.1758 159.516 41.1626 159.437 41.1294C159.364 41.1007 159.283 41.0367 159.235 40.913C159.195 40.8114 159.187 40.6105 159.182 40.4691V34.4558C159.182 34.4558 162.04 23.1711 162.081 23.0298C162.121 22.8884 162.246 22.8642 162.577 22.7604C162.627 22.7361 162.671 22.7007 162.671 22.6234C162.671 22.608 162.667 22.5947 162.662 22.5837C162.669 22.5793 162.665 22.5771 162.662 22.5727ZM165.5 24.7567L165.976 25.5407H165.437L165.033 24.8318L164.779 24.845L164.805 25.512L164.344 25.5385L164.318 23.4074L165.11 23.3809C165.366 23.3809 165.577 23.4582 165.722 23.6017C165.842 23.7232 165.904 23.8888 165.904 24.092C165.901 24.4144 165.759 24.6441 165.5 24.7567ZM165.415 24.1229C165.415 23.9242 165.305 23.827 165.088 23.827H164.805V24.4409L165.099 24.4144C165.296 24.4144 165.415 24.3062 165.415 24.1229ZM124.945 22.2083V22.2039V22.1862V22.1796C124.945 22.1707 124.943 22.1641 124.943 22.1575L124.941 22.1464C124.939 22.1354 124.937 22.1288 124.934 22.1155V22.1133C124.932 22.1001 124.928 22.089 124.923 22.078C124.921 22.0736 124.917 22.0714 124.917 22.0714C124.912 22.0625 124.908 22.0537 124.904 22.0493C124.901 22.0449 124.899 22.0426 124.895 22.0404C124.888 22.0338 124.884 22.0294 124.875 22.025C124.871 22.0228 124.869 22.0206 124.864 22.0184C124.853 22.0117 124.84 22.0095 124.825 22.0095C124.695 22.0095 124.68 22.1332 124.647 22.2149C124.621 22.2856 124.557 22.3673 124.432 22.4181C124.331 22.4578 124.132 22.4689 123.991 22.4711H119.053V22.4689H118.691V41.4055L123.989 41.4099C124.129 41.4121 124.329 41.4254 124.43 41.4629C124.555 41.5137 124.616 41.5954 124.643 41.6661C124.676 41.7478 124.691 41.8692 124.82 41.8692C124.836 41.8692 124.849 41.867 124.86 41.8604C124.864 41.8604 124.866 41.856 124.871 41.8538C124.879 41.8516 124.884 41.8472 124.89 41.8405C124.895 41.8361 124.897 41.8339 124.899 41.8317C124.904 41.8229 124.908 41.8185 124.912 41.8096C124.915 41.8052 124.915 41.803 124.917 41.8008C124.923 41.7897 124.926 41.7787 124.928 41.7677C124.928 41.7654 124.928 41.7632 124.928 41.7632C124.93 41.75 124.932 41.7412 124.934 41.7323C124.934 41.7279 124.934 41.7257 124.937 41.7235C124.937 41.7147 124.937 41.708 124.939 41.7014V41.6948V41.6793V41.6749C124.937 41.6727 124.937 41.6661 124.937 41.6661L124.941 41.4143V40.1909V40.1644V39.1088L124.937 38.857C124.937 38.857 124.937 38.8526 124.939 38.8482V38.8438V38.8261V38.8173C124.937 38.8129 124.937 38.804 124.937 38.7974C124.934 38.793 124.934 38.7908 124.934 38.7908C124.932 38.7775 124.93 38.7665 124.928 38.7577C124.928 38.7577 124.928 38.7533 124.928 38.751C124.926 38.74 124.921 38.729 124.917 38.7179C124.915 38.7135 124.912 38.7113 124.912 38.7091C124.908 38.7003 124.904 38.6936 124.899 38.6892C124.895 38.6848 124.893 38.6826 124.89 38.6782C124.884 38.6715 124.879 38.6693 124.871 38.6627C124.866 38.6605 124.862 38.6583 124.86 38.6583C124.849 38.6539 124.836 38.6473 124.82 38.6473C124.691 38.6473 124.676 38.7709 124.643 38.8526C124.616 38.9233 124.555 39.005 124.43 39.0558C124.329 39.0956 124.129 39.1066 123.989 39.1088H121.204V38.5545H121.206V32.804L123.57 32.8062C123.711 32.8106 123.91 32.8194 124.011 32.8592C124.138 32.9077 124.197 32.9917 124.228 33.0623C124.259 33.144 124.274 33.2677 124.404 33.2677C124.419 33.2677 124.43 33.2611 124.443 33.2567C124.445 33.2545 124.447 33.2522 124.452 33.25C124.461 33.2456 124.465 33.2412 124.472 33.2346C124.476 33.2324 124.478 33.2302 124.48 33.228C124.487 33.2191 124.489 33.2125 124.494 33.2059C124.496 33.2037 124.5 33.1992 124.5 33.197C124.504 33.186 124.507 33.1772 124.509 33.1639L124.511 33.1595C124.513 33.1485 124.513 33.1396 124.515 33.1286C124.518 33.1242 124.518 33.122 124.518 33.1175C124.52 33.1131 124.52 33.1043 124.52 33.0955V33.091V33.0734V33.0712V33.0623L124.522 32.8106V31.5894V31.5606V30.5028L124.52 30.2511V30.2445V30.2401V30.2246V30.218C124.52 30.2091 124.52 30.2025 124.518 30.1981C124.518 30.1915 124.518 30.1915 124.515 30.1871C124.513 30.1782 124.513 30.1694 124.511 30.1583L124.509 30.1539C124.507 30.1429 124.504 30.1296 124.5 30.1208C124.498 30.1186 124.496 30.1142 124.494 30.1142C124.489 30.1053 124.487 30.0987 124.48 30.0921C124.476 30.0899 124.474 30.0877 124.472 30.0833C124.465 30.0766 124.461 30.0722 124.452 30.0678C124.447 30.0656 124.445 30.0634 124.443 30.0634C124.43 30.0568 124.419 30.0546 124.404 30.0546C124.274 30.0546 124.259 30.1782 124.228 30.2577C124.2 30.3284 124.138 30.4123 124.011 30.4609C123.91 30.4984 123.711 30.5117 123.57 30.5139L121.206 30.5161V24.7678L123.991 24.77C124.129 24.7744 124.331 24.7832 124.432 24.8252C124.557 24.876 124.619 24.9599 124.647 25.0283C124.68 25.1078 124.695 25.2337 124.825 25.2337C124.838 25.2337 124.851 25.2293 124.864 25.2249C124.869 25.2227 124.873 25.2205 124.875 25.2183C124.884 25.2138 124.888 25.2072 124.895 25.2028C124.899 25.1984 124.901 25.1962 124.904 25.194C124.908 25.1873 124.912 25.1807 124.917 25.1719C124.917 25.1719 124.921 25.1675 124.923 25.1653C124.928 25.1542 124.932 25.1432 124.934 25.1299V25.1233C124.939 25.1145 124.941 25.1034 124.941 25.0946C124.941 25.0902 124.943 25.088 124.943 25.0835C124.943 25.0769 124.945 25.0703 124.945 25.0637V25.0548V25.0438V25.035V25.0261L124.95 24.7744V23.551V23.5267V22.4689L124.945 22.2171V22.2083ZM166.847 24.4785V24.5381C166.847 25.6467 166.059 26.5168 165.055 26.5168C164.037 26.5168 163.268 25.6688 163.268 24.5425V24.4829C163.268 23.3743 164.055 22.5042 165.059 22.5042C166.079 22.5064 166.847 23.3544 166.847 24.4785ZM166.428 24.4785C166.428 23.5929 165.853 22.9503 165.062 22.9503C164.279 22.9503 163.691 23.6128 163.691 24.4895V24.5491C163.691 25.4347 164.266 26.0773 165.057 26.0773C165.84 26.0773 166.428 25.4148 166.428 24.5381V24.4785ZM137.494 22.9856C137.542 22.8597 137.625 22.7979 137.695 22.7692C137.776 22.7361 137.899 22.7228 137.899 22.5925C137.899 22.5749 137.895 22.5638 137.89 22.5506C137.888 22.5462 137.886 22.5439 137.884 22.5417C137.88 22.5329 137.877 22.5263 137.871 22.5219C137.866 22.5174 137.862 22.5152 137.86 22.513C137.853 22.5064 137.847 22.502 137.838 22.4998C137.836 22.4976 137.831 22.4954 137.829 22.4932C137.818 22.4887 137.807 22.4843 137.796 22.4821C137.796 22.4821 137.794 22.4821 137.79 22.4799C137.781 22.4755 137.77 22.4733 137.761 22.4733C137.759 22.4733 137.755 22.4711 137.752 22.4711C137.744 22.4711 137.737 22.4711 137.73 22.4711H137.722H137.704H137.7C137.697 22.4711 137.691 22.4711 137.691 22.4711L137.441 22.4689H136.226H135.967H134.917L134.667 22.4711C134.667 22.4711 134.662 22.4711 134.658 22.4711H134.654H134.638H134.63C134.625 22.4711 134.614 22.4711 134.61 22.4711C134.605 22.4711 134.603 22.4733 134.599 22.4733C134.588 22.4733 134.579 22.4755 134.568 22.4799L134.564 22.4821C134.553 22.4843 134.544 22.4887 134.531 22.4932C134.526 22.4932 134.526 22.4976 134.522 22.4998C134.513 22.502 134.509 22.5086 134.502 22.513C134.498 22.5152 134.494 22.5174 134.491 22.5219C134.487 22.5285 134.483 22.5351 134.476 22.5417C134.474 22.5462 134.472 22.5484 134.472 22.5484C134.467 22.5638 134.463 22.5749 134.463 22.5925C134.463 22.7206 134.583 22.7361 134.665 22.7692C134.735 22.7979 134.816 22.8597 134.866 22.9856C134.906 23.0872 134.917 23.2882 134.921 23.4295L134.919 31.6247L132.39 23.0386C132.366 22.926 132.382 22.831 132.454 22.7847C132.458 22.7824 132.461 22.7802 132.463 22.7802C132.469 22.778 132.472 22.7714 132.478 22.7692C132.483 22.7692 132.487 22.7692 132.489 22.767C132.568 22.7361 132.68 22.7184 132.68 22.5925C132.68 22.5771 132.676 22.566 132.671 22.5528C132.669 22.5484 132.667 22.5462 132.665 22.5439C132.66 22.5351 132.658 22.5307 132.651 22.5241C132.649 22.5197 132.647 22.5174 132.643 22.5152C132.636 22.5086 132.63 22.5042 132.621 22.502C132.616 22.4976 132.614 22.4976 132.61 22.4954C132.601 22.4887 132.59 22.4865 132.579 22.4843C132.577 22.4821 132.575 22.4799 132.572 22.4799C132.562 22.4777 132.553 22.4755 132.544 22.4755H132.533C132.526 22.4755 132.52 22.4755 132.511 22.4755H132.505H132.487H132.483H132.474L132.226 22.4711H131.011H130.75H129.7L129.45 22.4755H129.441H129.439H129.421H129.415C129.408 22.4755 129.399 22.4755 129.39 22.4755H129.382C129.371 22.4777 129.362 22.4777 129.353 22.4799C129.351 22.4799 129.349 22.4821 129.349 22.4843C129.338 22.4843 129.327 22.4887 129.316 22.4954C129.312 22.4954 129.309 22.4976 129.305 22.502C129.298 22.5042 129.29 22.5086 129.283 22.5152C129.279 22.5174 129.279 22.5197 129.274 22.5241C129.268 22.5307 129.263 22.5351 129.259 22.5439C129.257 22.5462 129.254 22.5506 129.254 22.5506C129.25 22.566 129.246 22.5793 129.246 22.5947C129.246 22.725 129.371 22.7405 129.447 22.7736C129.518 22.8001 129.601 22.8642 129.649 22.99C129.691 23.0916 129.7 23.2926 129.704 23.4339L129.706 38.4772V38.7533V40.4736C129.702 40.6127 129.691 40.8159 129.651 40.9152C129.603 41.0411 129.52 41.1029 129.452 41.1317C129.373 41.1626 129.25 41.178 129.25 41.3105C129.25 41.3238 129.252 41.337 129.257 41.3481C129.259 41.3547 129.261 41.3569 129.263 41.3591C129.268 41.3657 129.272 41.3746 129.279 41.379C129.283 41.3812 129.285 41.3834 129.285 41.3856C129.294 41.3922 129.301 41.3967 129.307 41.4011C129.314 41.4033 129.316 41.4055 129.318 41.4055C129.329 41.4099 129.342 41.4143 129.351 41.4165C129.355 41.4187 129.355 41.4187 129.358 41.4187C129.369 41.4209 129.377 41.4232 129.386 41.4232C129.39 41.4232 129.393 41.4254 129.395 41.4254C129.404 41.4254 129.41 41.4276 129.419 41.4276H129.426H129.443H129.445C129.45 41.4276 129.454 41.4254 129.454 41.4254L129.702 41.4298H130.919H131.178H132.226L132.476 41.4254C132.476 41.4254 132.483 41.4276 132.485 41.4276H132.489H132.505H132.513C132.52 41.4276 132.526 41.4254 132.533 41.4254C132.535 41.4232 132.54 41.4232 132.544 41.4232C132.553 41.4232 132.564 41.4209 132.572 41.4187C132.575 41.4187 132.577 41.4187 132.577 41.4165C132.588 41.4143 132.601 41.4099 132.608 41.4055C132.612 41.4055 132.614 41.4033 132.619 41.4011C132.627 41.3967 132.634 41.3922 132.64 41.3856C132.643 41.3834 132.647 41.3812 132.649 41.379C132.656 41.3724 132.66 41.3635 132.662 41.3591C132.667 41.3569 132.667 41.3547 132.669 41.3481C132.676 41.3348 132.678 41.3238 132.678 41.3105C132.678 41.178 132.555 41.1648 132.476 41.1317C132.406 41.1029 132.325 41.0389 132.274 40.9152C132.235 40.8159 132.224 40.6127 132.219 40.4736L132.224 29.0166L134.921 37.6447L134.919 40.4736C134.915 40.6127 134.906 40.8159 134.866 40.9152C134.816 41.0411 134.735 41.1029 134.662 41.1317C134.583 41.1626 134.461 41.178 134.461 41.3105C134.461 41.3238 134.465 41.337 134.469 41.3481C134.472 41.3547 134.474 41.3569 134.474 41.3591C134.478 41.3657 134.485 41.3746 134.489 41.379C134.494 41.3812 134.494 41.3834 134.5 41.3856C134.507 41.3922 134.513 41.3967 134.52 41.4011C134.522 41.4033 134.526 41.4055 134.529 41.4055C134.537 41.4099 134.551 41.4143 134.559 41.4165C134.562 41.4187 134.564 41.4187 134.566 41.4187C134.577 41.4209 134.586 41.4232 134.594 41.4232C134.601 41.4232 134.603 41.4254 134.603 41.4254C134.612 41.4254 134.619 41.4276 134.625 41.4276H134.632H134.647H134.651C134.656 41.4276 134.658 41.4254 134.658 41.4254L134.908 41.4298H136.123H136.384H137.432L137.684 41.4254C137.684 41.4254 137.687 41.4276 137.691 41.4276H137.695H137.711H137.719C137.726 41.4276 137.733 41.4254 137.739 41.4254C137.744 41.4232 137.748 41.4232 137.75 41.4232C137.759 41.4232 137.768 41.4209 137.779 41.4187C137.781 41.4187 137.785 41.4187 137.785 41.4165C137.794 41.4143 137.807 41.4099 137.816 41.4055C137.818 41.4055 137.82 41.4033 137.825 41.4011C137.833 41.3967 137.84 41.3922 137.847 41.3856C137.849 41.3834 137.851 41.3812 137.853 41.379C137.862 41.3724 137.866 41.3635 137.869 41.3591C137.871 41.3569 137.873 41.3547 137.873 41.3481C137.877 41.3348 137.882 41.3238 137.882 41.3105C137.882 41.178 137.761 41.1648 137.68 41.1317C137.608 41.1029 137.526 41.0389 137.478 40.9152C137.439 40.8159 137.428 40.6127 137.423 40.4736L137.426 23.4339C137.441 23.2882 137.452 23.0872 137.494 22.9856ZM150.873 22.5749C150.869 22.5682 150.862 22.5616 150.858 22.555C150.855 22.5528 150.851 22.5506 150.849 22.5484C150.842 22.5417 150.836 22.5373 150.827 22.5351C150.825 22.5329 150.82 22.5307 150.818 22.5307C150.807 22.5263 150.796 22.5219 150.785 22.5174H150.779C150.768 22.5152 150.759 22.513 150.75 22.5108C150.746 22.5108 150.744 22.5086 150.741 22.5086C150.733 22.5064 150.726 22.5064 150.719 22.5064H150.711H150.695H150.691H150.682L150.432 22.5042H149.217H148.956H147.908L147.658 22.5064H147.649H147.645H147.63H147.621C147.614 22.5064 147.61 22.5064 147.601 22.5086C147.597 22.5086 147.594 22.5108 147.59 22.5108C147.579 22.513 147.573 22.5152 147.562 22.5174H147.555C147.544 22.5219 147.533 22.5263 147.522 22.5307C147.52 22.5329 147.518 22.5329 147.515 22.5351C147.507 22.5395 147.498 22.5439 147.494 22.5484C147.489 22.5528 147.485 22.555 147.483 22.555C147.476 22.5616 147.474 22.5682 147.469 22.5749C147.467 22.5793 147.463 22.5815 147.463 22.5859C147.456 22.5969 147.456 22.6102 147.456 22.6257C147.456 22.7537 147.579 22.7714 147.658 22.8023C147.719 22.8266 147.825 22.8531 147.847 22.9392C147.869 23.0386 147.836 23.1336 147.836 23.1468C147.801 23.4052 145.891 36.9358 145.891 36.9358C145.891 36.9358 143.972 23.2882 143.954 23.1468C143.952 23.1336 143.919 23.0386 143.941 22.9392C143.961 22.8531 144.068 22.8288 144.13 22.8023C144.208 22.7714 144.331 22.7537 144.331 22.6257C144.331 22.6102 144.327 22.5969 144.323 22.5859C144.32 22.5815 144.318 22.5793 144.316 22.5749C144.312 22.5682 144.305 22.5616 144.301 22.555C144.298 22.5528 144.294 22.5506 144.292 22.5484C144.283 22.5417 144.276 22.5373 144.27 22.5351C144.268 22.5329 144.263 22.5307 144.259 22.5307C144.25 22.5263 144.237 22.5219 144.226 22.5174H144.222C144.211 22.5152 144.202 22.513 144.191 22.5108C144.187 22.5108 144.182 22.5086 144.182 22.5086C144.173 22.5064 144.167 22.5064 144.16 22.5064H144.154H144.138H144.134H144.127L143.875 22.5042H142.827H142.566H141.351L141.101 22.5064H141.094H141.09H141.07H141.064C141.055 22.5064 141.048 22.5064 141.042 22.5086C141.037 22.5086 141.035 22.5108 141.031 22.5108C141.022 22.513 141.013 22.5152 141.002 22.5174H140.998C140.985 22.5219 140.974 22.5263 140.963 22.5307C140.961 22.5329 140.958 22.5329 140.954 22.5351C140.948 22.5395 140.939 22.5439 140.934 22.5484C140.932 22.5528 140.928 22.555 140.926 22.555C140.919 22.5616 140.915 22.5682 140.91 22.5749C140.908 22.5793 140.906 22.5815 140.906 22.5859C140.901 22.5969 140.897 22.6102 140.897 22.6257C140.897 22.7029 140.939 22.7383 140.991 22.7626C141.325 22.8642 141.408 22.8907 141.448 23.032C141.48 23.1446 143.16 33.6696 143.888 38.2387C143.888 38.2387 144.18 40.0231 144.283 40.7408C144.309 40.9152 144.32 41.0257 144.318 41.0323C144.274 41.0809 144.228 41.1118 144.184 41.1294C144.105 41.1604 143.983 41.1758 143.983 41.3083C143.983 41.3216 143.987 41.3348 143.991 41.3459C143.994 41.3525 143.996 41.3547 143.996 41.3569C144 41.3613 144.007 41.3702 144.011 41.3768C144.013 41.379 144.018 41.3834 144.02 41.3834C144.026 41.39 144.033 41.3944 144.04 41.3989C144.044 41.4011 144.046 41.4033 144.048 41.4033C144.062 41.4077 144.07 41.4121 144.081 41.4143C144.086 41.4165 144.086 41.4165 144.086 41.4165C144.097 41.4187 144.108 41.4209 144.116 41.4209C144.121 41.4209 144.121 41.4232 144.125 41.4232C144.134 41.4232 144.14 41.4254 144.147 41.4254H144.154H144.171H144.176C144.178 41.4254 144.182 41.4232 144.182 41.4232L144.432 41.4276H145.649H146.298H147.351L147.599 41.4232C147.599 41.4232 147.603 41.4254 147.608 41.4254H147.61H147.627H147.634C147.64 41.4254 147.649 41.4232 147.656 41.4232C147.658 41.4209 147.665 41.4209 147.667 41.4209C147.676 41.4209 147.687 41.4187 147.695 41.4165C147.698 41.4165 147.7 41.4165 147.7 41.4143C147.711 41.4121 147.724 41.4077 147.733 41.4033C147.737 41.4033 147.739 41.4011 147.741 41.3989C147.748 41.3944 147.757 41.39 147.763 41.3834C147.768 41.3812 147.77 41.379 147.77 41.3768C147.779 41.3702 147.783 41.3613 147.787 41.3569C147.787 41.3569 147.792 41.3503 147.792 41.3459C147.796 41.3348 147.801 41.3216 147.801 41.3083C147.801 41.1758 147.678 41.1626 147.599 41.1294C147.551 41.1118 147.491 41.0787 147.452 41.0146C147.43 40.9727 147.491 40.7099 147.551 40.3124C147.68 39.4666 147.895 38.157 147.895 38.157C148.636 33.5327 150.307 23.1049 150.325 23.0342C150.364 22.8929 150.452 22.8686 150.781 22.7648C150.831 22.7405 150.875 22.7052 150.875 22.6279C150.875 22.6124 150.873 22.5992 150.869 22.5881C150.877 22.5793 150.875 22.5771 150.873 22.5749Z" fill="white"/>
<path d="M197.387 13.7512C196.359 11.7965 194.35 10.5806 192.144 10.5741H189.873L186.891 5.25924H144.312V3.91256C144.312 1.75526 142.56 0 140.406 0H66.5505C64.3971 0 62.645 1.75526 62.645 3.91256V5.25924H20.0627L17.0805 10.5741H14.8553C12.6497 10.5806 10.6431 11.7965 9.61209 13.7512L0 32L9.61209 50.2488C10.6399 52.2035 12.6497 53.4194 14.8553 53.4259H17.0805L20.0627 58.7408H62.6417V60.0874C62.6417 62.2447 64.3938 64 66.5472 64H140.403C142.557 64 144.309 62.2447 144.309 60.0874V58.7408H186.819L189.87 53.4259H192.144C194.35 53.4194 196.356 52.2035 197.387 50.2488L206.999 32L197.387 13.7512ZM196.545 14.1957L205.671 31.5228H200.497L190.369 11.5285H192.144C193.997 11.535 195.684 12.5549 196.545 14.1957ZM107.038 57.783L103.498 56.0147L99.9579 57.783H63.5684C63.4183 55.9624 62.4264 54.3771 60.981 53.4227H145.966C144.521 54.3771 143.529 55.9591 143.379 57.783H107.038ZM105.802 58.2308L103.498 59.3814L101.195 58.2308L103.498 57.0803L105.802 58.2308ZM17.6483 52.4682L7.27595 31.9967L17.6483 11.5252H189.296L199.668 31.9967L189.296 52.4682H17.6515H17.6483ZM100.017 6.21696L103.501 7.95587L106.986 6.21696H143.382C143.532 8.03759 144.524 9.62288 145.969 10.5773H60.9842C62.4296 9.62288 63.4215 8.04086 63.5716 6.21696H100.017ZM101.198 5.73973L103.501 4.58917L105.805 5.73973L103.501 6.8903L101.198 5.73973ZM188.783 10.5773H149.141C146.638 10.5773 144.576 8.6619 144.335 6.21696H186.333L188.78 10.5773H188.783ZM63.5945 3.91583C63.5945 2.28478 64.9191 0.957712 66.5472 0.957712H140.403C142.031 0.957712 143.356 2.28478 143.356 3.91583V5.26251H106.983L103.498 3.5236L100.013 5.26251H63.5912V3.91583H63.5945ZM20.6206 6.21696H62.6189C62.3774 8.6619 60.3154 10.5773 57.8128 10.5773H18.1703L20.6174 6.21696H20.6206ZM10.4539 14.199C11.3185 12.5581 13.0054 11.535 14.8553 11.5318H16.5813L6.45374 31.526H1.32794L10.4539 14.199ZM10.4539 49.8043L1.32794 32.4772H6.45374L16.5813 52.4715H14.8553C13.0054 52.4682 11.3153 51.4451 10.4539 49.8043ZM18.1703 53.4259H57.8128C60.3154 53.4259 62.3774 55.3414 62.6189 57.7863H20.6174L18.1703 53.4259ZM143.356 60.0842C143.356 61.7152 142.031 63.0423 140.403 63.0423H66.5472C64.9191 63.0423 63.5945 61.7152 63.5945 60.0842V58.7375H100.072L103.498 60.4503L106.924 58.7375H143.353V60.0842H143.356ZM186.271 57.783H144.335C144.576 55.3381 146.638 53.4227 149.141 53.4227H188.773L186.271 57.783ZM196.545 49.801C195.681 51.4419 193.994 52.4617 192.144 52.4682H190.369L200.497 32.474H205.671L196.545 49.801Z" fill="url(#paint0_linear_7_8216)"/>
<defs>
<linearGradient id="paint0_linear_7_8216" x1="0" y1="32" x2="206.999" y2="32" gradientUnits="userSpaceOnUse">
<stop stop-color="#856838"/>
<stop offset="0.02" stop-color="#856838"/>
<stop offset="0.04" stop-color="#91764B"/>
<stop offset="0.07" stop-color="#A08863"/>
<stop offset="0.1" stop-color="#AB9575"/>
<stop offset="0.13" stop-color="#B19D7F"/>
<stop offset="0.17" stop-color="#B4A083"/>
<stop offset="0.2" stop-color="#A59171"/>
<stop offset="0.26" stop-color="#917F5A"/>
<stop offset="0.31" stop-color="#86734C"/>
<stop offset="0.36" stop-color="#827048"/>
<stop offset="0.37" stop-color="#86744C"/>
<stop offset="0.49" stop-color="#B6A474"/>
<stop offset="0.59" stop-color="#D8C692"/>
<stop offset="0.67" stop-color="#EDDBA4"/>
<stop offset="0.73" stop-color="#F5E3AB"/>
<stop offset="0.78" stop-color="#F1DEA7"/>
<stop offset="0.83" stop-color="#E5D29D"/>
<stop offset="0.88" stop-color="#D2BE8C"/>
<stop offset="0.94" stop-color="#B8A274"/>
<stop offset="0.99" stop-color="#967D55"/>
<stop offset="1" stop-color="#8E754E"/>
</linearGradient>
</defs>
</svg>
