<svg width="102" height="16" viewBox="0 0 102 16" fill="none" xmlns="http://www.w3.org/2000/svg">
<path d="M45.4228 13.5721L45.4264 13.7747V14.6243V14.6456V15.6303L45.4228 15.8329V15.84V15.8436V15.8578V15.8631C45.4228 15.8685 45.4228 15.8756 45.421 15.8827C45.421 15.8827 45.421 15.8862 45.4193 15.888C45.4193 15.8951 45.4175 15.904 45.4157 15.9129C45.4157 15.9129 45.4157 15.9147 45.414 15.9165C45.4122 15.9271 45.4069 15.936 45.4051 15.9449C45.4033 15.9467 45.4016 15.9502 45.4016 15.952C45.398 15.9591 45.3945 15.9627 45.3892 15.9698C45.3857 15.9716 45.3839 15.9751 45.3821 15.9769C45.3768 15.9822 45.3697 15.984 45.3662 15.9876C45.3644 15.9893 45.3609 15.9929 45.3573 15.9929C45.3485 15.9964 45.3378 16 45.3237 16C45.2193 16 45.2086 15.9005 45.1839 15.8365C45.1609 15.7796 45.1095 15.7138 45.0104 15.673C44.9308 15.641 44.7679 15.6321 44.6546 15.6303H40.5961L40.5943 1.14819C40.5926 1.03444 40.5837 0.872695 40.5501 0.790935C40.5111 0.689625 40.4439 0.639858 40.3872 0.616752C40.3218 0.591869 40.2262 0.579427 40.2262 0.472784C40.2262 0.462119 40.2279 0.451455 40.2333 0.442568C40.235 0.439013 40.235 0.437236 40.2368 0.433681C40.2403 0.426572 40.2439 0.423017 40.2492 0.417685C40.2509 0.41413 40.2545 0.412352 40.2563 0.410575C40.2616 0.405243 40.2669 0.401688 40.274 0.398133C40.2757 0.396356 40.2793 0.394579 40.281 0.394579C40.2881 0.389247 40.3005 0.385692 40.3076 0.383915C40.3094 0.383915 40.3111 0.383914 40.3111 0.382137C40.32 0.38036 40.3271 0.378582 40.3341 0.376805C40.3377 0.375028 40.3395 0.375028 40.343 0.375028C40.3483 0.375028 40.3554 0.37325 40.3607 0.37325H40.3678H40.3802H40.3837H40.389L40.5926 0.371473H41.4386H41.6492H42.6298C42.6316 0.371473 42.8316 0.37325 42.8316 0.37325H42.8387H42.8404H42.8546H42.8617C42.867 0.37325 42.8723 0.375028 42.8776 0.375028C42.8811 0.375028 42.8847 0.375028 42.8864 0.376805C42.8953 0.378582 42.9041 0.38036 42.9112 0.382137C42.913 0.383914 42.9148 0.383915 42.9148 0.383915C42.9254 0.385692 42.9342 0.389247 42.9431 0.394579C42.9466 0.394579 42.9484 0.396356 42.9519 0.398133C42.9572 0.401688 42.9625 0.405243 42.9679 0.410575C42.9714 0.412352 42.9732 0.41413 42.9749 0.417685C42.9785 0.423017 42.982 0.426572 42.9873 0.433681C42.9891 0.437236 42.9909 0.439013 42.9909 0.442568C42.9944 0.451455 42.9997 0.462119 42.9997 0.472784C42.9997 0.579427 42.8988 0.590091 42.8351 0.616752C42.7802 0.639858 42.7148 0.689625 42.674 0.790935C42.6422 0.872695 42.6333 1.03444 42.6298 1.14819V2.53455V2.75317V13.7818L44.6653 13.78C44.7768 13.7783 44.9396 13.7676 45.021 13.7374C45.1202 13.6965 45.1697 13.6307 45.1945 13.5739C45.2193 13.5081 45.2317 13.4086 45.3343 13.4086C45.3485 13.4086 45.3573 13.4139 45.3679 13.4157C45.3715 13.4175 45.375 13.4192 45.3768 13.421C45.3821 13.4246 45.3874 13.4281 45.3927 13.4317C45.3945 13.4335 45.3963 13.437 45.3998 13.4388C45.4033 13.4441 45.4086 13.4495 45.4122 13.4548C45.414 13.4583 45.4157 13.4601 45.4157 13.4619C45.4193 13.4708 45.4228 13.4797 45.4246 13.4903C45.4263 13.4921 45.4264 13.4939 45.4264 13.4939C45.4281 13.5028 45.4299 13.5099 45.4299 13.5188C45.4317 13.5206 45.4317 13.5259 45.4317 13.5259C45.4334 13.533 45.4334 13.5365 45.4334 13.5419V13.549V13.5614V13.565V13.5721H45.4228ZM36.7269 0.159964V0.15641V0.14219V0.136859C36.7269 0.129749 36.7252 0.124416 36.7252 0.119084C36.7252 0.119084 36.7252 0.113752 36.7234 0.110198C36.7234 0.101311 36.7216 0.0959786 36.7199 0.0853143C36.7199 0.0853143 36.7199 0.0835368 36.7181 0.0817594C36.7163 0.0728725 36.7128 0.0639853 36.7092 0.0550984C36.7075 0.0515437 36.7075 0.0497668 36.7057 0.0479894C36.7022 0.0426573 36.6986 0.0355477 36.6951 0.0319929C36.6915 0.0284382 36.688 0.0266606 36.688 0.0248832C36.6827 0.0195511 36.6774 0.0159964 36.6721 0.0124416C36.6703 0.0106642 36.6668 0.00888708 36.6632 0.00710969C36.6544 0.00177755 36.6437 0 36.6314 0C36.5287 0 36.5145 0.0995335 36.4898 0.165297C36.4668 0.222173 36.4172 0.287936 36.3163 0.328816C36.2349 0.360808 36.0738 0.369696 35.9623 0.371473H31.9763V0.369695H31.6843V15.6108L35.9605 15.6143C36.072 15.6161 36.2349 15.6267 36.3163 15.657C36.4172 15.6978 36.4668 15.7636 36.4898 15.8205C36.5145 15.8862 36.5287 15.984 36.6314 15.984C36.6437 15.984 36.6526 15.9822 36.6632 15.9769C36.6668 15.9769 36.6703 15.9733 36.6721 15.9716C36.6774 15.9698 36.6827 15.9662 36.6862 15.9609C36.6898 15.9573 36.6915 15.9556 36.6933 15.9538C36.6986 15.9467 36.7022 15.9431 36.7057 15.936C36.7075 15.9325 36.7092 15.9307 36.711 15.9289C36.7145 15.92 36.7163 15.9111 36.7199 15.9022C36.7199 15.9005 36.7199 15.8987 36.7199 15.8987C36.7216 15.888 36.7234 15.8809 36.7234 15.8738C36.7252 15.8703 36.7252 15.8685 36.7252 15.8667C36.7269 15.8596 36.7269 15.8543 36.7269 15.8489V15.8436V15.8311V15.8276V15.8205L36.7287 15.6179V14.6332V14.6119V13.7623L36.7269 13.5597V13.5525V13.549V13.5348V13.5277C36.7269 13.5241 36.7269 13.517 36.7252 13.5117C36.7252 13.5117 36.7252 13.5063 36.7234 13.5046C36.7234 13.4957 36.7216 13.4868 36.7199 13.4814C36.7199 13.4814 36.7199 13.4779 36.7199 13.4761C36.7163 13.4672 36.7145 13.4583 36.711 13.4495C36.7092 13.4459 36.7075 13.4441 36.7057 13.4423C36.7022 13.4352 36.6986 13.4299 36.6933 13.4263C36.6915 13.4228 36.6898 13.421 36.6862 13.4175C36.6827 13.4121 36.6774 13.4104 36.6721 13.405C36.6685 13.4032 36.665 13.4015 36.6632 13.4015C36.6544 13.3979 36.6437 13.3926 36.6314 13.3926C36.5287 13.3926 36.5145 13.4921 36.4898 13.5579C36.4668 13.6148 36.4154 13.6805 36.3163 13.7214C36.2349 13.7534 36.0738 13.7623 35.9605 13.7641H33.7109V13.3179H33.7144V8.68962L35.6225 8.6914C35.734 8.69496 35.8968 8.70207 35.9765 8.73406C36.0774 8.77316 36.1269 8.8407 36.1499 8.89758C36.1765 8.96334 36.1889 9.06287 36.2915 9.06287C36.3039 9.06287 36.3145 9.05754 36.3252 9.05399C36.3269 9.05221 36.3305 9.05043 36.3322 9.04866C36.3375 9.0451 36.3429 9.04155 36.3464 9.03621C36.3499 9.03444 36.3517 9.03266 36.3552 9.03088C36.3588 9.02377 36.3623 9.01844 36.3641 9.01311C36.3659 9.01133 36.3694 9.00778 36.3694 9.006C36.3729 8.99711 36.3765 8.99 36.3783 8.97934C36.3783 8.97934 36.3783 8.97578 36.38 8.97578C36.3818 8.9669 36.3818 8.95979 36.3853 8.9509V8.94201C36.3853 8.93846 36.3871 8.93135 36.3871 8.92424V8.92068V8.90647V8.90469V8.89758L36.3889 8.69496V7.71206V7.68896V6.83759L36.3871 6.63497V6.62964V6.62608V6.61186V6.60653C36.3871 6.59942 36.3853 6.59409 36.3853 6.59054V6.58165C36.3836 6.57454 36.3836 6.56743 36.38 6.55854C36.3783 6.55854 36.3783 6.55677 36.3783 6.55677C36.3765 6.5461 36.3712 6.53544 36.3694 6.52833C36.3676 6.52655 36.3659 6.52299 36.3641 6.52299C36.3623 6.51588 36.3588 6.51055 36.3552 6.50522C36.3517 6.50344 36.3499 6.50167 36.3464 6.49811C36.3429 6.49278 36.3375 6.48922 36.3322 6.48567C36.3287 6.48389 36.3252 6.48212 36.3252 6.48212C36.3145 6.47856 36.3039 6.47501 36.2915 6.47501C36.1889 6.47501 36.1765 6.57454 36.1499 6.63852C36.1287 6.6954 36.0774 6.76294 35.9765 6.80204C35.8968 6.83226 35.734 6.84292 35.6225 6.8447L33.7144 6.84648V2.21995L35.9623 2.22173C36.0738 2.22528 36.2349 2.23239 36.3163 2.26616C36.4172 2.30704 36.4668 2.37458 36.4898 2.42968C36.5145 2.49367 36.5287 2.5932 36.6314 2.5932C36.642 2.5932 36.6526 2.58965 36.6632 2.58609C36.6685 2.58432 36.6703 2.58254 36.6721 2.58076C36.6774 2.5772 36.6827 2.57365 36.688 2.56832C36.6898 2.56476 36.6915 2.56299 36.6951 2.56121C36.6986 2.55588 36.7022 2.55054 36.7057 2.54343C36.7075 2.54166 36.7075 2.53988 36.7092 2.5381C36.7128 2.52922 36.7163 2.52033 36.7181 2.50967C36.7199 2.50789 36.7199 2.50789 36.7199 2.50789C36.7216 2.499 36.7234 2.49011 36.7234 2.483C36.7252 2.47767 36.7252 2.47767 36.7252 2.47234C36.7252 2.46701 36.7269 2.46168 36.7269 2.45634V2.44923V2.44035V2.43324L36.7252 2.4279L36.7287 2.22351V1.23884V1.21928V0.367918L36.7252 0.165297L36.7269 0.159964ZM7.12945 15.5308C7.12945 15.5414 7.12768 15.5521 7.12237 15.561C7.1206 15.5663 7.11883 15.5681 7.11883 15.5699C7.11529 15.5752 7.11175 15.5823 7.10821 15.5859C7.10467 15.5876 7.1029 15.5894 7.09936 15.5912C7.09405 15.5965 7.08873 15.6001 7.08342 15.6036C7.08165 15.6054 7.07812 15.6072 7.07635 15.6072C7.0675 15.6108 7.05864 15.6143 7.04979 15.6161C7.04802 15.6161 7.04626 15.6161 7.04449 15.6161C7.03741 15.6179 7.02856 15.6196 7.01971 15.6196C7.01794 15.6196 7.01617 15.6214 7.01263 15.6214C7.00555 15.6214 7.00024 15.6232 6.99493 15.6232H6.98962H6.97546H6.97192C6.97015 15.6232 6.96661 15.6214 6.96661 15.6214L6.76483 15.625H5.91702H5.70816H4.72759L4.52581 15.6214C4.52581 15.6214 4.52228 15.6232 4.51874 15.6232H4.51696H4.50281H4.4975C4.49219 15.6232 4.48687 15.6214 4.48156 15.6214C4.47979 15.6196 4.47625 15.6196 4.47271 15.6196C4.46386 15.6196 4.45501 15.6179 4.44793 15.6161C4.44616 15.6161 4.4444 15.6161 4.4444 15.6161C4.43555 15.6143 4.4267 15.6108 4.41785 15.6072C4.41608 15.6072 4.41254 15.6054 4.41077 15.6036C4.40546 15.6001 4.40014 15.5965 4.39306 15.5912C4.39129 15.5894 4.38953 15.5876 4.38599 15.5859C4.38245 15.5805 4.37891 15.5734 4.37537 15.5699C4.37537 15.5681 4.37182 15.5663 4.37182 15.561C4.36828 15.5503 4.36475 15.5414 4.36475 15.5308C4.36475 15.4241 4.46386 15.4135 4.52758 15.3868C4.58422 15.3637 4.64972 15.3122 4.69043 15.2126C4.72229 15.1326 4.73114 14.9691 4.73468 14.8571V13.4726V13.2504V10.0315H2.40893V10.8545H2.40716V14.8571C2.4107 14.9691 2.41778 15.1326 2.44964 15.2126C2.48858 15.3139 2.55583 15.3637 2.61247 15.3868C2.67619 15.4117 2.77354 15.4241 2.77354 15.5308C2.77354 15.5414 2.77177 15.5521 2.76823 15.561C2.76646 15.5663 2.7647 15.5681 2.76293 15.5699C2.75939 15.5752 2.75762 15.5823 2.75231 15.5859C2.74877 15.5876 2.747 15.5894 2.74346 15.5912C2.73638 15.5965 2.73283 15.6001 2.72575 15.6036C2.72221 15.6054 2.72045 15.6072 2.71868 15.6072C2.70983 15.6108 2.70097 15.6143 2.69212 15.6161C2.68858 15.6161 2.68859 15.6161 2.68682 15.6161C2.67974 15.6179 2.67089 15.6196 2.66381 15.6196C2.66027 15.6196 2.65673 15.6214 2.65496 15.6214C2.64965 15.6214 2.64256 15.6232 2.63725 15.6232H2.63018H2.61779H2.61424C2.6107 15.6232 2.60717 15.6214 2.60717 15.6214L2.40539 15.625H1.55757H1.34695H0.366375L0.166378 15.6214C0.166378 15.6214 0.162831 15.6232 0.159291 15.6232H0.155748H0.141596H0.134509C0.130969 15.6232 0.125663 15.6214 0.116813 15.6214C0.113274 15.6196 0.113277 15.6196 0.109737 15.6196C0.100888 15.6196 0.0938068 15.6179 0.0867269 15.6161C0.084957 15.6161 0.0831818 15.6161 0.0814118 15.6161C0.072562 15.6143 0.0637186 15.6108 0.0548687 15.6072C0.0530988 15.6072 0.0495519 15.6054 0.0477819 15.6036C0.042472 15.6001 0.0353982 15.5965 0.0318582 15.5912C0.0300882 15.5894 0.0265431 15.5876 0.0265431 15.5859C0.0212332 15.5805 0.017692 15.5734 0.014152 15.5699C0.0106121 15.5681 0.00884598 15.5663 0.007076 15.561C0.00353606 15.5503 0 15.5414 0 15.5308C0 15.4241 0.0991172 15.4135 0.164606 15.3868C0.219475 15.3637 0.28496 15.3122 0.325669 15.2126C0.357529 15.1326 0.366378 14.9691 0.369918 14.8571L0.37169 2.98423C0.37169 1.24239 1.18057 0.37325 2.80363 0.37325H4.32404C5.94534 0.37325 6.75421 1.24239 6.75421 2.98423V14.8571C6.75775 14.9691 6.7666 15.1326 6.79846 15.2126C6.8374 15.3139 6.90466 15.3637 6.9613 15.3868C7.03209 15.4135 7.12945 15.4259 7.12945 15.5308ZM4.73291 3.11042C4.73291 2.51677 4.43732 2.21817 3.84438 2.21817H3.29569C2.70452 2.21817 2.40716 2.51677 2.40716 3.11042V8.18485H4.73291V3.11042ZM55.2037 13.6858V13.6823V13.6699V13.6645C55.2019 13.6574 55.2019 13.6503 55.2019 13.645V13.6361C55.2001 13.629 55.1984 13.6219 55.1984 13.613C55.1966 13.6112 55.1966 13.6094 55.1966 13.6094C55.1948 13.5988 55.1931 13.5899 55.1878 13.581C55.186 13.5792 55.1842 13.5756 55.1824 13.5739C55.1789 13.5685 55.1754 13.5632 55.1701 13.5561C55.1683 13.5543 55.1665 13.5525 55.1647 13.549C55.1594 13.5454 55.1541 13.5401 55.1488 13.5365C55.147 13.5348 55.1435 13.5312 55.14 13.5312C55.1311 13.5277 55.1187 13.5259 55.1081 13.5259C55.0054 13.5259 54.9931 13.6254 54.9665 13.6894C54.9417 13.7481 54.8939 13.812 54.793 13.8529C54.7134 13.8867 54.5506 13.8938 54.4391 13.8974H53.5045H50.4548H49.5221C49.4106 13.8938 49.2495 13.8867 49.1681 13.8529C49.0654 13.8138 49.0159 13.7481 48.9946 13.6894C48.9698 13.6254 48.9557 13.5259 48.8548 13.5259C48.8424 13.5259 48.83 13.5277 48.8212 13.5312C48.8194 13.5312 48.8158 13.5348 48.8123 13.5365C48.8088 13.5401 48.8035 13.5454 48.7981 13.549C48.7946 13.5525 48.7928 13.5543 48.7911 13.5561C48.7858 13.5632 48.7822 13.5685 48.7805 13.5739C48.7769 13.5756 48.7769 13.5792 48.7751 13.581C48.7716 13.5899 48.7698 13.597 48.7645 13.6076V13.6094C48.7627 13.6201 48.761 13.6272 48.761 13.6343V13.6414C48.761 13.6485 48.7592 13.6556 48.7592 13.661V13.6663V13.6752V13.6805V13.6876L48.7574 13.8902V14.6403V14.7416V15.6267L48.7592 15.8276V15.8347V15.8436V15.856V15.8614C48.7592 15.8667 48.761 15.872 48.761 15.8791V15.8862C48.761 15.8934 48.7627 15.9022 48.7645 15.9094V15.9147C48.7698 15.9236 48.7716 15.9325 48.7751 15.9413C48.7769 15.9449 48.7769 15.9467 48.7805 15.9485C48.784 15.9556 48.7858 15.9591 48.7911 15.9645C48.7928 15.968 48.7946 15.9698 48.7981 15.9716C48.8017 15.9769 48.8088 15.9804 48.8123 15.984C48.8176 15.9858 48.8194 15.9876 48.8212 15.9893C48.8318 15.9929 48.8424 15.9947 48.8548 15.9947C48.9574 15.9947 48.9698 15.8951 48.9946 15.8311C49.0159 15.7743 49.0672 15.7085 49.1681 15.6676C49.2495 15.6356 49.4106 15.6267 49.5221 15.625H50.4548H50.9009H51.1204H52.8408H53.062H53.5063H54.4408C54.5523 15.6267 54.7152 15.6356 54.7948 15.6676C54.8957 15.7085 54.9435 15.7743 54.9683 15.8311C54.9931 15.8951 55.0072 15.9947 55.1099 15.9947C55.1205 15.9947 55.1329 15.9929 55.1417 15.9893C55.1453 15.9876 55.1488 15.9858 55.1506 15.984C55.1559 15.9804 55.1612 15.9751 55.1665 15.9716C55.1683 15.9698 55.1701 15.968 55.1718 15.9645C55.1771 15.9573 55.1807 15.9538 55.1842 15.9485C55.186 15.9449 55.1878 15.9431 55.1895 15.9413C55.1931 15.9325 55.1966 15.9236 55.1984 15.9147C55.1984 15.9147 55.1984 15.9111 55.2001 15.9094C55.2019 15.9005 55.2019 15.8934 55.2037 15.8862V15.8809C55.2055 15.872 55.2055 15.8667 55.2055 15.8614V15.856V15.8454V15.84C55.2037 15.8365 55.2037 15.8329 55.2037 15.8329L55.2055 15.6321V14.7469V14.6456V13.8956L55.2037 13.693C55.2019 13.693 55.2019 13.6894 55.2037 13.6858ZM17.259 0.785603C17.2997 0.684292 17.3652 0.636303 17.4218 0.611419C17.4856 0.584759 17.5847 0.574095 17.5847 0.469229C17.5847 0.45501 17.5811 0.446123 17.5776 0.435459C17.5758 0.431904 17.5741 0.430127 17.5741 0.428349C17.5687 0.42124 17.5652 0.415908 17.5617 0.412353C17.5581 0.408798 17.5564 0.40702 17.5528 0.405243C17.5475 0.399911 17.5422 0.396357 17.5369 0.394579C17.5351 0.392802 17.5316 0.391024 17.5298 0.389247C17.521 0.385692 17.5121 0.382137 17.5033 0.38036C17.5015 0.38036 17.5015 0.38036 17.4997 0.378583C17.4909 0.375028 17.4838 0.37325 17.4749 0.37325C17.4732 0.37325 17.4696 0.371473 17.4679 0.371473C17.4608 0.371473 17.4555 0.371473 17.4519 0.371473H17.4449H17.4307H17.4271C17.4236 0.371473 17.4201 0.371473 17.4201 0.371473L17.2183 0.369695H16.2377H16.0289H15.1793L14.9775 0.371473C14.9775 0.371473 14.974 0.371473 14.9722 0.371473H14.9687H14.9545H14.9474C14.9439 0.371473 14.9368 0.371473 14.9315 0.371473C14.9279 0.371473 14.9262 0.37325 14.9244 0.37325C14.9156 0.37325 14.9067 0.375028 14.8996 0.378583C14.8979 0.38036 14.8979 0.38036 14.8943 0.38036C14.8855 0.382137 14.8766 0.385692 14.8678 0.389247C14.8642 0.389247 14.8625 0.392802 14.8607 0.394579C14.8536 0.396357 14.8483 0.401688 14.843 0.405243C14.8395 0.40702 14.8377 0.408798 14.8359 0.412353C14.8306 0.417685 14.8271 0.423017 14.8235 0.428349C14.8218 0.431904 14.82 0.433682 14.82 0.435459C14.8147 0.444346 14.8129 0.45501 14.8129 0.469229C14.8129 0.572317 14.912 0.584759 14.974 0.611419C15.0306 0.634525 15.0961 0.684292 15.1386 0.785603C15.1687 0.867362 15.1775 1.0291 15.1793 1.14286L15.1775 7.73872L13.1367 0.82826C13.1155 0.737614 13.1297 0.661186 13.1881 0.623861C13.1898 0.622084 13.1916 0.620306 13.1934 0.620306C13.1969 0.618529 13.2005 0.613197 13.2058 0.611419C13.2075 0.611419 13.2128 0.61142 13.2146 0.609642C13.2783 0.584759 13.3668 0.57054 13.3668 0.469229C13.3668 0.456787 13.3633 0.4479 13.3598 0.437236C13.358 0.433681 13.3562 0.431904 13.3544 0.430126C13.3509 0.423017 13.3474 0.419462 13.342 0.41413C13.3385 0.410575 13.3385 0.408798 13.335 0.407021C13.3314 0.401689 13.3244 0.398134 13.3173 0.396356C13.3155 0.394579 13.3137 0.392802 13.3102 0.391024C13.3031 0.385692 13.2925 0.383914 13.2836 0.382137C13.2819 0.38036 13.2801 0.378583 13.2783 0.378583C13.2713 0.376805 13.2624 0.375028 13.2553 0.375028H13.2465C13.2394 0.375028 13.2341 0.375028 13.2288 0.375028H13.2235H13.2111H13.2058H13.1987L12.9969 0.371473H12.0163H11.8057H10.9597L10.7579 0.375028H10.7526H10.749H10.7367H10.7296C10.7243 0.375028 10.7189 0.375028 10.7119 0.375028H10.703C10.6959 0.376805 10.6889 0.376805 10.6818 0.378583C10.6782 0.378583 10.6765 0.38036 10.6765 0.382137C10.6676 0.382137 10.657 0.385692 10.6499 0.391024C10.6482 0.391024 10.6446 0.394579 10.6411 0.396356C10.6358 0.398134 10.6305 0.401689 10.6234 0.407021C10.6216 0.408798 10.6181 0.410575 10.6163 0.41413C10.611 0.419462 10.6074 0.423017 10.6057 0.430126C10.6039 0.431904 10.6004 0.435459 10.5986 0.437236C10.595 0.4479 10.5933 0.456787 10.5933 0.469229C10.5933 0.574095 10.6924 0.586536 10.7561 0.613197C10.8128 0.634526 10.8783 0.68607 10.919 0.787381C10.9526 0.86914 10.9614 1.03088 10.9632 1.14463L10.965 13.2522V13.4743V14.8589C10.9632 14.9709 10.9544 15.1344 10.9225 15.2144C10.8836 15.3157 10.8163 15.3655 10.7579 15.3886C10.6959 15.4135 10.5951 15.4259 10.5951 15.5325C10.5951 15.5432 10.5986 15.5539 10.6021 15.5628C10.6039 15.5681 10.6074 15.5699 10.6074 15.5717C10.611 15.577 10.6145 15.5841 10.6181 15.5876C10.6216 15.5894 10.6234 15.5912 10.6269 15.593C10.6322 15.5983 10.6375 15.6019 10.6428 15.6054C10.6464 15.6072 10.6499 15.609 10.6499 15.609C10.6588 15.6125 10.6676 15.6161 10.6765 15.6179C10.6782 15.6196 10.68 15.6196 10.6818 15.6196C10.6889 15.6214 10.6959 15.6232 10.703 15.6232C10.7066 15.6232 10.7083 15.625 10.7119 15.625C10.7189 15.625 10.7243 15.6267 10.7296 15.6267H10.7367H10.7508H10.7526C10.7561 15.6267 10.7579 15.625 10.7579 15.625L10.9614 15.6285H11.942H12.1509H12.9987L13.2005 15.625C13.2005 15.625 13.204 15.6267 13.2075 15.6267H13.2111H13.2252H13.2323C13.2376 15.6267 13.2429 15.625 13.2482 15.625C13.2518 15.6232 13.2535 15.6232 13.2553 15.6232C13.2642 15.6232 13.2713 15.6214 13.2801 15.6196C13.2819 15.6196 13.2836 15.6196 13.2836 15.6179C13.2925 15.6161 13.3031 15.6125 13.312 15.609C13.3137 15.609 13.3155 15.6072 13.319 15.6054C13.3261 15.6019 13.3314 15.5983 13.3367 15.593C13.3403 15.5912 13.3403 15.5894 13.3438 15.5876C13.3491 15.5823 13.3527 15.5752 13.3562 15.5717C13.358 15.5699 13.3598 15.5681 13.3598 15.5628C13.3651 15.5521 13.3668 15.5432 13.3668 15.5325C13.3668 15.4259 13.2677 15.4152 13.204 15.3886C13.1474 15.3655 13.0801 15.3139 13.0412 15.2144C13.0075 15.1344 12.9987 14.9709 12.9969 14.8589L12.9987 5.63963L15.174 12.5821V14.8589C15.1704 14.9709 15.1634 15.1344 15.1297 15.2144C15.0908 15.3157 15.0235 15.3655 14.9669 15.3886C14.9049 15.4135 14.8058 15.4259 14.8058 15.5325C14.8058 15.5432 14.8094 15.5539 14.8129 15.5628C14.8147 15.5681 14.8164 15.5699 14.8182 15.5717C14.8217 15.577 14.8271 15.5841 14.8288 15.5876C14.8324 15.5894 14.8341 15.5912 14.8359 15.593C14.8412 15.5983 14.8465 15.6019 14.8518 15.6054C14.8554 15.6072 14.8571 15.609 14.8589 15.609C14.8678 15.6125 14.8784 15.6161 14.8872 15.6179C14.889 15.6196 14.8908 15.6196 14.8925 15.6196C14.8996 15.6214 14.9085 15.6232 14.9156 15.6232C14.9191 15.6232 14.9209 15.625 14.9226 15.625C14.9297 15.625 14.935 15.6267 14.9403 15.6267H14.9457H14.9598H14.9633C14.9669 15.6267 14.9687 15.625 14.9687 15.625L15.1704 15.6285H16.151H16.3616H17.2094L17.4095 15.625C17.4095 15.625 17.413 15.6267 17.4183 15.6267H17.4201H17.4342H17.4413C17.4466 15.6267 17.4519 15.625 17.4572 15.625C17.459 15.6232 17.4626 15.6232 17.4661 15.6232C17.4732 15.6232 17.482 15.6214 17.4891 15.6196C17.4891 15.6196 17.4926 15.6196 17.4944 15.6179C17.505 15.6161 17.5121 15.6125 17.521 15.609C17.5227 15.609 17.5245 15.6072 17.528 15.6054C17.5333 15.6019 17.5404 15.5983 17.5457 15.593C17.5475 15.5912 17.5493 15.5894 17.5528 15.5876C17.5581 15.5823 17.5617 15.5752 17.5652 15.5717C17.5652 15.5717 17.5687 15.5681 17.5705 15.5628C17.5741 15.5521 17.5758 15.5432 17.5758 15.5325C17.5758 15.4259 17.4767 15.4152 17.413 15.3886C17.3563 15.3655 17.2909 15.3139 17.2502 15.2144C17.2183 15.1344 17.2094 14.9709 17.2077 14.8589L17.2112 1.14463C17.2183 1.02911 17.2271 0.867362 17.259 0.785603ZM27.824 15.3904C27.7673 15.3673 27.7018 15.3157 27.6629 15.2144C27.631 15.1344 27.6222 14.9691 27.6187 14.8589V8.19907H26.8965H26.677H25.2982C25.1849 8.19551 25.0239 8.18662 24.9425 8.15463C24.8416 8.11553 24.792 8.04799 24.769 7.99111C24.7425 7.92713 24.7301 7.82759 24.6256 7.82759C24.615 7.82759 24.6044 7.83115 24.5955 7.83293C24.592 7.8347 24.5885 7.83648 24.5867 7.83826C24.5814 7.84181 24.5761 7.84714 24.5708 7.8507C24.569 7.85425 24.5672 7.85425 24.5637 7.85781C24.5584 7.86314 24.5548 7.86847 24.5513 7.87381C24.5495 7.87736 24.5495 7.87914 24.5478 7.87914C24.5442 7.8898 24.5407 7.89869 24.5389 7.90758V7.91291C24.5371 7.92002 24.5354 7.92891 24.5336 7.93601L24.5318 7.9449V7.96268V7.96623V7.97689V7.984V7.98934L24.5301 8.19196V9.17663V9.18551V10.0351L24.5318 10.2377V10.2431V10.2484V10.2626V10.2679V10.2857L24.5336 10.2928C24.5354 10.3017 24.5371 10.3088 24.5389 10.3177V10.3213C24.5424 10.3319 24.5442 10.3408 24.5478 10.3479C24.5495 10.3515 24.5495 10.355 24.5513 10.3568C24.5548 10.3621 24.5584 10.3693 24.5637 10.3728C24.5655 10.3764 24.5672 10.3781 24.5708 10.3799C24.5761 10.3835 24.5814 10.3888 24.5867 10.3924C24.5885 10.3941 24.5938 10.3959 24.5955 10.3959C24.6044 10.3995 24.615 10.403 24.6256 10.403C24.7301 10.403 24.7425 10.3035 24.769 10.2395C24.792 10.1826 24.8416 10.1169 24.9425 10.076C25.0221 10.0458 25.1849 10.0351 25.2982 10.0333H25.592V10.4794H25.5885V13.7783H24.215C23.6221 13.7783 23.3265 13.4121 23.3265 12.6745V3.33615C23.3265 2.60031 23.6221 2.23239 24.215 2.23239H24.723C25.3 2.23239 25.5903 2.60209 25.5903 3.33615V3.93868C25.5867 4.05243 25.5796 4.2124 25.546 4.29416C25.5071 4.39369 25.4398 4.44523 25.385 4.46834C25.3212 4.495 25.2221 4.50744 25.2221 4.61053C25.2221 4.62297 25.2239 4.63364 25.2292 4.64075C25.2292 4.64608 25.2327 4.64786 25.2345 4.64963C25.238 4.65496 25.2433 4.66208 25.2469 4.66563C25.2487 4.66918 25.2504 4.66918 25.254 4.67274C25.2593 4.67629 25.2646 4.67985 25.2699 4.6834C25.2734 4.68518 25.2752 4.68696 25.277 4.68874C25.2858 4.69229 25.2947 4.69585 25.3035 4.69585C25.3053 4.69585 25.3071 4.69762 25.3071 4.69762C25.3159 4.70118 25.3248 4.70118 25.3319 4.70295C25.3336 4.70295 25.3372 4.70296 25.3389 4.70473C25.346 4.70473 25.3513 4.70651 25.3566 4.70651H25.3619H25.3743H25.3779H25.385L25.5867 4.71006H26.5673H26.7779H27.6257L27.8257 4.70651H27.8346H27.8381H27.8505H27.8541C27.8611 4.70651 27.8665 4.70473 27.8735 4.70473C27.8771 4.70296 27.8788 4.70295 27.8824 4.70295C27.8895 4.70118 27.8983 4.70118 27.9054 4.69762C27.9072 4.69762 27.9072 4.69585 27.9089 4.69585C27.9178 4.69407 27.9266 4.69051 27.9372 4.68874C27.939 4.68696 27.9408 4.68518 27.9443 4.6834C27.9514 4.67985 27.9567 4.67452 27.962 4.67274C27.9656 4.67096 27.9673 4.66918 27.9691 4.66563C27.9744 4.6603 27.978 4.65319 27.9815 4.64963C27.9833 4.64608 27.985 4.6443 27.9868 4.64075C27.9921 4.63364 27.9921 4.62297 27.9921 4.61053C27.9921 4.50567 27.8948 4.495 27.8293 4.46834C27.7726 4.44523 27.7071 4.39369 27.6682 4.29416C27.6363 4.2124 27.6257 4.05243 27.624 3.93868V3.03932C27.624 1.27083 26.7638 0.38747 25.0451 0.38747H23.6504C22.0857 0.38747 21.3034 1.25839 21.3034 2.99845V13.0602C21.3034 14.7754 22.0857 15.6321 23.6504 15.6321H27.631L27.8311 15.6303H27.8381H27.8417H27.8558H27.8611C27.8665 15.6303 27.8718 15.6303 27.8788 15.6267H27.8877C27.8948 15.625 27.9036 15.6232 27.9125 15.6232C27.9142 15.6214 27.9142 15.6214 27.916 15.6214C27.9266 15.6196 27.9337 15.6161 27.9443 15.6125C27.9461 15.6108 27.9496 15.609 27.9514 15.609C27.9585 15.6054 27.9638 15.6019 27.9691 15.5983C27.9709 15.5965 27.9744 15.593 27.9762 15.5894C27.9815 15.5859 27.985 15.5805 27.9886 15.5752C27.9903 15.5717 27.9921 15.5699 27.9939 15.5663C27.9974 15.5574 28.001 15.5468 28.001 15.5343C27.9868 15.4277 27.8877 15.4152 27.824 15.3904ZM55.0975 4.26394C55.0391 4.24084 54.9736 4.19107 54.9329 4.08976C54.9028 4.00978 54.8922 3.8587 54.8904 3.74495L54.8886 3.00022C54.8886 1.26016 54.0762 0.389247 52.4567 0.389247H51.1894C49.5681 0.389247 48.7574 1.26016 48.7574 3.00022V4.27105C48.7574 4.66741 48.7999 4.98734 48.8849 5.23617C48.9681 5.48323 49.1061 5.68585 49.2973 5.84048C49.4867 5.99689 49.7929 6.18707 50.2177 6.4128L52.1399 7.497C52.393 7.64986 52.5753 7.7796 52.6886 7.87736C52.8018 7.97689 52.8585 8.16885 52.8585 8.45146V8.9118C52.8585 9.50544 52.5912 9.80404 52.0531 9.80404H51.6938C51.0885 9.80404 50.7858 9.50722 50.7858 8.9118V8.89758L50.7841 8.8958V8.84426C50.7876 8.7305 50.7965 8.56876 50.8265 8.487C50.8672 8.38569 50.9327 8.3377 50.9894 8.31282C51.0549 8.28616 51.154 8.27372 51.154 8.16885C51.154 8.15641 51.1504 8.14752 51.1469 8.13686C51.1451 8.1333 51.1434 8.12975 51.1416 8.12797C51.1381 8.12264 51.1345 8.11731 51.131 8.11197C51.1292 8.1102 51.1257 8.10842 51.1239 8.10487C51.1186 8.09953 51.1133 8.09776 51.1062 8.0942C51.1027 8.09242 51.1009 8.09065 51.0974 8.09065C51.0903 8.08531 51.0814 8.08176 51.0708 8.07998H51.0673C51.0602 8.0782 51.0513 8.07643 51.0442 8.07643C51.0425 8.07465 51.0389 8.07465 51.0372 8.07465C51.0301 8.07287 51.0248 8.07287 51.0195 8.07287H51.0142H51H50.9982C50.9929 8.07287 50.9894 8.07465 50.9894 8.07465L50.7894 8.07109H49.807H49.5982H48.7504L48.5486 8.07465C48.5486 8.07465 48.545 8.07287 48.5433 8.07287H48.5397H48.5256H48.5185C48.5132 8.07287 48.5096 8.07465 48.5026 8.07465C48.4973 8.07465 48.4955 8.07465 48.4937 8.07643C48.4866 8.07643 48.4778 8.0782 48.4707 8.07998H48.4654C48.4565 8.08176 48.4477 8.08531 48.4389 8.09065C48.4353 8.09242 48.4335 8.0942 48.4318 8.0942C48.4265 8.09776 48.4212 8.09953 48.4158 8.10487C48.4141 8.10842 48.4105 8.1102 48.407 8.11197C48.4017 8.11731 48.3999 8.12264 48.3964 8.12797C48.3946 8.13153 48.3928 8.1333 48.3911 8.13686C48.3875 8.14575 48.3858 8.15641 48.3858 8.16885C48.3858 8.27372 48.4831 8.28438 48.5486 8.31282C48.6052 8.33593 48.6725 8.38569 48.7114 8.487C48.7309 8.53855 48.7433 8.62208 48.7486 8.7074H48.7504C48.7539 8.74295 48.7557 8.77672 48.7557 8.81049V8.84603C48.7557 8.86914 48.7574 8.88869 48.7574 8.9118V8.9669H48.7592C48.7946 10.7532 49.6017 11.649 51.1876 11.649H52.4355C54.0691 11.649 54.8869 10.7923 54.8869 9.08065V7.96268C54.8869 7.42591 54.8355 7.06154 54.7382 6.86958C54.6391 6.67763 54.501 6.51589 54.324 6.3808C54.1488 6.24572 53.8479 6.0591 53.4266 5.81915L51.5027 4.77938C51.2496 4.62475 51.0655 4.49678 50.954 4.39724C50.8407 4.29771 50.7841 4.2515 50.7841 3.9689V3.14597C50.7841 2.5381 51.0726 2.23417 51.6513 2.23417H51.9664C52.5593 2.23417 52.8549 2.5381 52.8549 3.14597L52.8567 3.73073C52.8549 3.8427 52.8461 4.00622 52.8142 4.08798C52.7735 4.18929 52.708 4.23728 52.6496 4.26216C52.5859 4.28705 52.4868 4.29949 52.4868 4.40435C52.4868 4.41857 52.4885 4.42746 52.4939 4.43813C52.4956 4.4399 52.4974 4.44168 52.4974 4.44346C52.5009 4.45057 52.5062 4.4559 52.5098 4.46123C52.5133 4.46479 52.5151 4.46656 52.5169 4.46834C52.5239 4.47367 52.5293 4.47723 52.5363 4.479C52.5381 4.48078 52.5416 4.48256 52.5416 4.48256C52.5523 4.48789 52.5593 4.48967 52.57 4.49145C52.5717 4.49322 52.5717 4.495 52.5735 4.495C52.5806 4.49678 52.5894 4.49856 52.5983 4.49856H52.6071C52.6124 4.50033 52.6178 4.50033 52.6231 4.50033C52.6248 4.50033 52.6284 4.50211 52.6301 4.50211C52.6355 4.50211 52.6408 4.50211 52.6443 4.50033H52.6478H52.6532L52.8549 4.50211H53.8355H54.0443H54.8922L55.0957 4.50033H55.0993H55.1046C55.1081 4.50211 55.1134 4.50211 55.117 4.50211C55.1187 4.50211 55.1223 4.50033 55.124 4.50033C55.1294 4.50033 55.1347 4.50033 55.1417 4.49856H55.1488C55.1559 4.49678 55.1647 4.495 55.1736 4.495L55.1771 4.49322C55.1878 4.48967 55.1966 4.48789 55.2037 4.48256C55.2072 4.48078 55.2108 4.479 55.2108 4.479C55.2178 4.47545 55.2232 4.47189 55.2267 4.46656C55.2302 4.46479 55.232 4.46301 55.2355 4.45945C55.2408 4.45412 55.2444 4.44879 55.2479 4.44168C55.2497 4.4399 55.2515 4.43813 55.2515 4.43813C55.2568 4.42568 55.2585 4.4168 55.2585 4.40258C55.2585 4.30127 55.1594 4.2906 55.0975 4.26394ZM98.6229 0.453232C98.6194 0.4479 98.6176 0.442568 98.6123 0.437236C98.6105 0.435459 98.607 0.433681 98.6052 0.430126C98.5999 0.426572 98.5963 0.423017 98.5893 0.419462C98.5857 0.417685 98.584 0.415907 98.5822 0.41413C98.5733 0.410575 98.5663 0.40702 98.5556 0.405243H98.5521C98.545 0.403466 98.5362 0.401689 98.5291 0.399911C98.5255 0.399911 98.5238 0.398133 98.5202 0.398133C98.5149 0.396356 98.5078 0.396356 98.5025 0.396356H98.4954H98.4831H98.4795H98.4724L98.2689 0.394579H97.2901H97.0795H96.2334L96.0299 0.396356H96.0246H96.021H96.0069H96.0016C95.9962 0.396356 95.9909 0.396356 95.9839 0.398133C95.9803 0.398133 95.9785 0.399911 95.975 0.399911C95.9679 0.401689 95.9608 0.403466 95.952 0.405243H95.9467C95.9379 0.40702 95.929 0.410575 95.9219 0.41413C95.9202 0.415907 95.9166 0.417685 95.9148 0.419462C95.9095 0.423017 95.9042 0.426572 95.8971 0.430126C95.8954 0.433681 95.8936 0.435459 95.8901 0.437236C95.8847 0.442568 95.8812 0.4479 95.8777 0.453232C95.8741 0.456787 95.8741 0.458564 95.8706 0.462119C95.8688 0.471006 95.8653 0.481671 95.8653 0.494112C95.8653 0.5972 95.9626 0.609642 96.0281 0.636303C96.0777 0.655854 96.1432 0.67185 96.1609 0.741168C96.1786 0.821151 96.1538 0.897578 96.152 0.908243C96.106 1.10731 94.8865 7.01177 94.8865 7.01177H94.8228C94.8228 7.01177 93.4369 1.00955 93.4139 0.908243C93.4103 0.897578 93.3873 0.821151 93.4033 0.741168C93.421 0.67185 93.4864 0.657631 93.536 0.636303C93.6015 0.611419 93.6988 0.5972 93.6988 0.494112C93.6988 0.481671 93.6971 0.471006 93.6918 0.462119C93.69 0.458564 93.6882 0.456787 93.6864 0.453232C93.6829 0.4479 93.6811 0.442568 93.6758 0.437236C93.6723 0.435459 93.6705 0.433681 93.6687 0.430126C93.6634 0.426572 93.6563 0.423017 93.651 0.419462C93.6475 0.417685 93.6457 0.415907 93.644 0.41413C93.6351 0.410575 93.6263 0.40702 93.6174 0.405243H93.6121C93.605 0.403466 93.5962 0.401689 93.5873 0.399911C93.5855 0.399911 93.5838 0.398133 93.5802 0.398133C93.5732 0.396356 93.5678 0.396356 93.5625 0.396356H93.5572H93.5448H93.5413H93.5342L93.3325 0.394579H92.4846H92.274H91.2934L91.0917 0.396356H91.0846H91.0793H91.0669H91.0598C91.0563 0.396356 91.0492 0.396356 91.0439 0.398133C91.0403 0.398133 91.0386 0.399911 91.0368 0.399911C91.0279 0.401689 91.0209 0.403466 91.012 0.405243H91.0085C90.9996 0.40702 90.9908 0.410575 90.9801 0.41413C90.9784 0.415907 90.9766 0.417685 90.9748 0.419462C90.9678 0.423017 90.9624 0.426572 90.9571 0.430126C90.9554 0.433681 90.9536 0.435459 90.9501 0.437236C90.9465 0.442568 90.943 0.4479 90.9377 0.453232C90.9359 0.456787 90.9341 0.458564 90.9324 0.462119C90.9306 0.471006 90.9288 0.481671 90.9288 0.494112C90.9288 0.556321 90.9624 0.584759 91.0032 0.60431C91.2704 0.687847 91.3731 0.707398 91.4049 0.821151C91.4368 0.934903 93.7873 10.0173 93.7873 10.0173L93.782 14.8571C93.7785 14.9709 93.7732 15.1326 93.7378 15.2144C93.697 15.3139 93.6316 15.3655 93.5767 15.3886C93.5112 15.4135 93.4139 15.4259 93.4139 15.5308C93.4139 15.5432 93.4174 15.5539 93.4209 15.5645C93.4209 15.5645 93.4227 15.5699 93.4245 15.5717C93.428 15.5788 93.4333 15.5823 93.4369 15.5876C93.4386 15.5912 93.4422 15.593 93.444 15.5948C93.4493 15.6001 93.4546 15.6036 93.4617 15.6054C93.4652 15.6072 93.467 15.609 93.4687 15.609C93.4776 15.6143 93.4864 15.6161 93.4953 15.6196C93.497 15.6196 93.4988 15.6196 93.5006 15.6196C93.5094 15.6214 93.5165 15.6232 93.5236 15.6232C93.5271 15.625 93.5307 15.625 93.5307 15.625C93.536 15.6267 93.5431 15.6285 93.5484 15.6285H93.5537H93.5678H93.5714C93.5749 15.6285 93.5785 15.6267 93.5785 15.6267L93.7803 15.6285H94.7608H94.9697H95.8175L96.0193 15.6267C96.0193 15.6267 96.021 15.6285 96.0246 15.6285H96.0281H96.0405H96.0476C96.0547 15.6285 96.0582 15.6267 96.0635 15.625C96.0688 15.625 96.0706 15.625 96.0724 15.6232C96.0812 15.6214 96.0865 15.6214 96.0954 15.6196C96.0989 15.6196 96.1007 15.6196 96.1007 15.6196C96.1095 15.6161 96.1184 15.6143 96.1272 15.609C96.129 15.6072 96.1325 15.6054 96.1343 15.6054C96.1396 15.6019 96.1467 15.5983 96.1502 15.5948C96.1538 15.593 96.1555 15.5912 96.1591 15.5876C96.1644 15.5823 96.1662 15.5788 96.1697 15.5717C96.1715 15.5681 96.175 15.5663 96.175 15.5663C96.1786 15.5539 96.1821 15.5432 96.1821 15.5308C96.1821 15.4259 96.083 15.4152 96.0193 15.3886C95.9608 15.3655 95.8954 15.3139 95.8564 15.2144C95.8246 15.1326 95.8175 14.9709 95.814 14.8571V10.0173C95.814 10.0173 98.1202 0.934903 98.1539 0.821151C98.1857 0.707398 98.2866 0.687847 98.5539 0.60431C98.5946 0.584759 98.63 0.556321 98.63 0.494112C98.63 0.481671 98.6264 0.471006 98.6229 0.462119C98.6282 0.458564 98.6247 0.456787 98.6229 0.453232ZM100.913 2.21106L101.297 2.84203H100.862L100.536 2.2715L100.331 2.28216L100.352 2.81893L99.9805 2.84026L99.9592 1.12508L100.598 1.10375C100.805 1.10375 100.975 1.16596 101.092 1.28149C101.189 1.37925 101.239 1.51255 101.239 1.67607C101.237 1.93557 101.122 2.12042 100.913 2.21106ZM100.844 1.70096C100.844 1.54099 100.756 1.46279 100.58 1.46279H100.352V1.9569L100.589 1.93557C100.749 1.93557 100.844 1.84848 100.844 1.70096ZM68.1811 0.159964V0.15641V0.14219V0.136859C68.1811 0.129749 68.1794 0.124416 68.1794 0.119084L68.1776 0.110198C68.1758 0.101311 68.174 0.0959786 68.1723 0.0853143V0.0835372C68.1705 0.0728729 68.167 0.0639853 68.1634 0.0550984C68.1617 0.0515437 68.1581 0.0497665 68.1581 0.0497665C68.1546 0.042657 68.151 0.0355477 68.1475 0.0319929C68.1457 0.0284382 68.144 0.0266606 68.1404 0.0248832C68.1351 0.0195511 68.1316 0.0159964 68.1245 0.0124416C68.1209 0.0106642 68.1192 0.00888708 68.1156 0.00710969C68.1068 0.00177755 68.0962 0 68.0838 0C67.9793 0 67.967 0.0995335 67.9404 0.165297C67.9192 0.222173 67.8678 0.287936 67.767 0.328816C67.6855 0.360808 67.5245 0.369696 67.4112 0.371473H63.4252V0.369695H63.1332V15.6108L67.4094 15.6143C67.5227 15.6161 67.6838 15.6267 67.7652 15.657C67.8661 15.6978 67.9156 15.7636 67.9369 15.8205C67.9634 15.8862 67.9758 15.984 68.0802 15.984C68.0926 15.984 68.1032 15.9822 68.1121 15.9769C68.1156 15.9769 68.1174 15.9733 68.1209 15.9716C68.128 15.9698 68.1316 15.9662 68.1369 15.9609C68.1404 15.9573 68.1422 15.9556 68.144 15.9538C68.1475 15.9467 68.151 15.9431 68.1546 15.936C68.1563 15.9325 68.1563 15.9307 68.1581 15.9289C68.1634 15.92 68.1652 15.9111 68.167 15.9022C68.167 15.9005 68.167 15.8987 68.167 15.8987C68.1687 15.888 68.1705 15.8809 68.1723 15.8738C68.1723 15.8703 68.1723 15.8685 68.174 15.8667C68.174 15.8596 68.174 15.8543 68.1758 15.8489V15.8436V15.8311V15.8276C68.174 15.8258 68.174 15.8205 68.174 15.8205L68.1776 15.6179V14.6332V14.6119V13.7623L68.174 13.5597C68.174 13.5597 68.174 13.5561 68.1758 13.5525V13.549V13.5348V13.5277C68.174 13.5241 68.174 13.517 68.174 13.5117C68.1723 13.5081 68.1723 13.5063 68.1723 13.5063C68.1705 13.4957 68.1687 13.4868 68.167 13.4797C68.167 13.4797 68.167 13.4761 68.167 13.4743C68.1652 13.4655 68.1617 13.4566 68.1581 13.4477C68.1563 13.4441 68.1546 13.4423 68.1546 13.4406C68.151 13.4335 68.1475 13.4281 68.144 13.4246C68.1404 13.421 68.1386 13.4192 68.1369 13.4157C68.1316 13.4104 68.128 13.4086 68.1209 13.4032C68.1174 13.4015 68.1139 13.3997 68.1121 13.3997C68.1032 13.3961 68.0926 13.3908 68.0802 13.3908C67.9758 13.3908 67.9634 13.4903 67.9369 13.5561C67.9156 13.613 67.8661 13.6787 67.7652 13.7196C67.6838 13.7516 67.5227 13.7605 67.4094 13.7623H65.1616V13.3162H65.1633V8.68785L67.0714 8.68962C67.1846 8.69318 67.3457 8.70029 67.4271 8.73228C67.5298 8.77138 67.5776 8.83893 67.6023 8.8958C67.6271 8.96157 67.6395 9.0611 67.7439 9.0611C67.7563 9.0611 67.7652 9.05577 67.7758 9.05221C67.7776 9.05043 67.7793 9.04866 67.7829 9.04688C67.79 9.04332 67.7935 9.03977 67.7988 9.03444C67.8024 9.03266 67.8041 9.03088 67.8059 9.02911C67.8112 9.022 67.813 9.01666 67.8165 9.01133C67.8183 9.00955 67.8218 9.006 67.8218 9.00422C67.8254 8.99533 67.8271 8.98822 67.8289 8.97756L67.8307 8.97401C67.8324 8.96512 67.8324 8.95801 67.8342 8.94912C67.836 8.94557 67.836 8.94379 67.836 8.94024C67.8377 8.93668 67.8377 8.92957 67.8377 8.92246V8.91891V8.90469V8.90291V8.8958L67.8395 8.69318V7.71029V7.68718V6.83581L67.8377 6.63319V6.62786V6.62431V6.61186V6.60653C67.8377 6.59942 67.8377 6.59409 67.836 6.59054C67.836 6.5852 67.836 6.5852 67.8342 6.58165C67.8324 6.57454 67.8324 6.56743 67.8307 6.55854L67.8289 6.55499C67.8271 6.5461 67.8254 6.53544 67.8218 6.52833C67.8201 6.52655 67.8183 6.52299 67.8165 6.52299C67.813 6.51588 67.8112 6.51055 67.8059 6.50522C67.8024 6.50344 67.8006 6.50167 67.7988 6.49811C67.7935 6.49278 67.79 6.48922 67.7829 6.48567C67.7793 6.48389 67.7776 6.48212 67.7758 6.48212C67.7652 6.47678 67.7563 6.47501 67.7439 6.47501C67.6395 6.47501 67.6271 6.57454 67.6023 6.63852C67.5793 6.6954 67.5298 6.76294 67.4271 6.80204C67.3457 6.83226 67.1846 6.84292 67.0714 6.8447L65.1633 6.84648V2.21995L67.4112 2.22173C67.5227 2.22528 67.6855 2.23239 67.767 2.26616C67.8678 2.30704 67.9174 2.37458 67.9404 2.42968C67.967 2.49367 67.9793 2.59498 68.0838 2.59498C68.0944 2.59498 68.105 2.59142 68.1156 2.58787C68.1192 2.58609 68.1227 2.58431 68.1245 2.58254C68.1316 2.57898 68.1351 2.57365 68.1404 2.5701C68.144 2.56654 68.1457 2.56476 68.1475 2.56299C68.151 2.55765 68.1546 2.55232 68.1581 2.54521C68.1581 2.54521 68.1617 2.54166 68.1634 2.53988C68.167 2.53099 68.1705 2.52211 68.1723 2.51144V2.50611C68.1758 2.499 68.1776 2.49011 68.1776 2.483C68.1776 2.47945 68.1794 2.47767 68.1794 2.47412C68.1794 2.46878 68.1811 2.46345 68.1811 2.45812V2.45101V2.44212V2.43501V2.4279L68.1847 2.22528V1.24061V1.22106V0.369695L68.1811 0.167074V0.159964ZM102 1.98711V2.0351C102 2.92735 101.365 3.62764 100.554 3.62764C99.7327 3.62764 99.1114 2.94512 99.1114 2.03866V1.99067C99.1114 1.09842 99.7468 0.398133 100.557 0.398133C101.381 0.399911 102 1.08243 102 1.98711ZM101.662 1.98711C101.662 1.27438 101.198 0.757165 100.559 0.757165C99.9274 0.757165 99.453 1.29038 99.453 1.996V2.04399C99.453 2.75672 99.9167 3.27394 100.556 3.27394C101.188 3.27394 101.662 2.74072 101.662 2.0351V1.98711ZM78.3089 0.785603C78.3479 0.684292 78.4151 0.634525 78.4717 0.611419C78.5372 0.584759 78.6364 0.574095 78.6364 0.469229C78.6364 0.45501 78.6328 0.446123 78.6293 0.435459C78.6275 0.431904 78.6257 0.430127 78.624 0.428349C78.6204 0.42124 78.6187 0.415908 78.6133 0.412353C78.6098 0.408798 78.6063 0.40702 78.6045 0.405243C78.5992 0.399911 78.5939 0.396357 78.5868 0.394579C78.585 0.392802 78.5815 0.391024 78.5797 0.389247C78.5709 0.385692 78.562 0.382137 78.5532 0.38036C78.5532 0.38036 78.5514 0.38036 78.5479 0.378583C78.5408 0.375028 78.5319 0.37325 78.5248 0.37325C78.5231 0.37325 78.5195 0.371473 78.5178 0.371473C78.5107 0.371473 78.5054 0.371473 78.5001 0.371473H78.493H78.4788H78.4753C78.4735 0.371473 78.4682 0.371473 78.4682 0.371473L78.2664 0.369695H77.2859H77.077H76.2292L76.0274 0.371473C76.0274 0.371473 76.0239 0.371473 76.0203 0.371473H76.0168H76.0044H75.9973C75.9938 0.371473 75.9849 0.371473 75.9814 0.371473C75.9779 0.371473 75.9761 0.37325 75.9725 0.37325C75.9637 0.37325 75.9566 0.375028 75.9478 0.378583L75.9442 0.38036C75.9354 0.382137 75.9283 0.385692 75.9177 0.389247C75.9141 0.389247 75.9141 0.392802 75.9106 0.394579C75.9035 0.396357 75.9 0.401688 75.8947 0.405243C75.8911 0.40702 75.8876 0.408798 75.8858 0.412353C75.8823 0.417685 75.8787 0.423017 75.8734 0.428349C75.8717 0.431904 75.8699 0.433681 75.8699 0.433681C75.8663 0.446123 75.8628 0.45501 75.8628 0.469229C75.8628 0.572317 75.9602 0.584759 76.0257 0.611419C76.0823 0.634525 76.1478 0.684292 76.1885 0.785603C76.2203 0.867362 76.2292 1.0291 76.2327 1.14286L76.231 7.73872L74.1902 0.82826C74.1707 0.737614 74.1831 0.661186 74.2415 0.623861C74.245 0.622084 74.2468 0.620306 74.2486 0.620306C74.2539 0.618529 74.2557 0.613197 74.261 0.611419C74.2645 0.611419 74.2681 0.61142 74.2698 0.609642C74.3336 0.584759 74.4238 0.57054 74.4238 0.469229C74.4238 0.456787 74.4203 0.4479 74.4167 0.437236C74.415 0.433681 74.4132 0.431904 74.4114 0.430126C74.4079 0.423017 74.4061 0.419462 74.4008 0.41413C74.399 0.410575 74.3973 0.408798 74.3937 0.407021C74.3884 0.401689 74.3831 0.398134 74.376 0.396356C74.3725 0.392802 74.3707 0.392802 74.3672 0.391024C74.3601 0.385692 74.3512 0.383914 74.3424 0.382137C74.3406 0.38036 74.3389 0.378583 74.3371 0.378583C74.3282 0.376805 74.3212 0.375028 74.3141 0.375028H74.3052C74.2999 0.375028 74.2946 0.375028 74.2875 0.375028H74.2822H74.2681H74.2645H74.2574L74.0574 0.371473H73.0769H72.8662H72.0184L71.8167 0.375028H71.8096H71.8078H71.7936H71.7883C71.783 0.375028 71.7759 0.375028 71.7689 0.375028H71.7618C71.7529 0.376805 71.7459 0.376805 71.7388 0.378583C71.737 0.378583 71.7352 0.38036 71.7352 0.382137C71.7264 0.382137 71.7175 0.385692 71.7087 0.391024C71.7051 0.391024 71.7034 0.392802 71.6998 0.396356C71.6945 0.398134 71.6874 0.401689 71.6821 0.407021C71.6786 0.408798 71.6786 0.410575 71.675 0.41413C71.6697 0.419462 71.6662 0.423017 71.6627 0.430126C71.6609 0.431904 71.6591 0.435459 71.6591 0.435459C71.6556 0.447901 71.652 0.458564 71.652 0.471006C71.652 0.575872 71.7529 0.588314 71.8149 0.614974C71.8715 0.636303 71.9388 0.687847 71.9777 0.789158C72.0113 0.870917 72.0184 1.03266 72.022 1.14641L72.0237 13.2539V13.4761V14.8607C72.0202 14.9727 72.0114 15.1362 71.9795 15.2162C71.9406 15.3175 71.8733 15.3673 71.8184 15.3904C71.7547 15.4152 71.6556 15.4277 71.6556 15.5343C71.6556 15.545 71.6574 15.5557 71.6609 15.5645C71.6627 15.5699 71.6644 15.5716 71.6662 15.5734C71.6697 15.5788 71.6733 15.5859 71.6786 15.5894C71.6821 15.5912 71.6839 15.593 71.6839 15.5948C71.691 15.6001 71.6963 15.6036 71.7016 15.6072C71.7069 15.609 71.7087 15.6108 71.7104 15.6108C71.7193 15.6143 71.7299 15.6179 71.737 15.6196C71.7405 15.6214 71.7405 15.6214 71.7423 15.6214C71.7512 15.6232 71.7582 15.625 71.7653 15.625C71.7689 15.625 71.7706 15.6267 71.7724 15.6267C71.7795 15.6267 71.7848 15.6285 71.7919 15.6285H71.7972H71.8113H71.8131C71.8167 15.6285 71.8202 15.6267 71.8202 15.6267L72.0202 15.6303H73.0025H73.2114H74.0574L74.2592 15.6267C74.2592 15.6267 74.2645 15.6285 74.2663 15.6285H74.2698H74.2822H74.2893C74.2946 15.6285 74.2999 15.6267 74.3052 15.6267C74.307 15.625 74.3105 15.625 74.3141 15.625C74.3212 15.625 74.33 15.6232 74.3371 15.6214C74.3389 15.6214 74.3406 15.6214 74.3406 15.6196C74.3495 15.6179 74.3601 15.6143 74.3654 15.6108C74.3689 15.6108 74.3707 15.609 74.3743 15.6072C74.3813 15.6036 74.3867 15.6001 74.392 15.5948C74.3937 15.593 74.3973 15.5912 74.399 15.5894C74.4044 15.5841 74.4079 15.577 74.4097 15.5734C74.4132 15.5716 74.4132 15.5699 74.415 15.5645C74.4203 15.5539 74.4221 15.545 74.4221 15.5343C74.4221 15.4277 74.3229 15.417 74.2592 15.3904C74.2026 15.3673 74.1371 15.3157 74.0964 15.2162C74.0645 15.1362 74.0557 14.9727 74.0521 14.8607L74.0557 5.63963L76.2327 12.5839L76.231 14.8607C76.2274 14.9727 76.2203 15.1362 76.1885 15.2162C76.1478 15.3175 76.0823 15.3673 76.0239 15.3904C75.9602 15.4152 75.861 15.4277 75.861 15.5343C75.861 15.545 75.8646 15.5557 75.8681 15.5645C75.8699 15.5699 75.8717 15.5716 75.8717 15.5734C75.8752 15.5788 75.8805 15.5859 75.884 15.5894C75.8876 15.5912 75.8876 15.593 75.8929 15.5948C75.8982 15.6001 75.9035 15.6036 75.9088 15.6072C75.9106 15.609 75.9141 15.6108 75.9159 15.6108C75.923 15.6143 75.9336 15.6179 75.9407 15.6196C75.9425 15.6214 75.9442 15.6214 75.946 15.6214C75.9548 15.6232 75.9619 15.625 75.969 15.625C75.9743 15.625 75.9761 15.6267 75.9761 15.6267C75.9832 15.6267 75.9885 15.6285 75.9938 15.6285H75.9991H76.0115H76.015C76.0186 15.6285 76.0203 15.6267 76.0203 15.6267L76.2221 15.6303H77.2027H77.4133H78.2594L78.4629 15.6267C78.4629 15.6267 78.4647 15.6285 78.4682 15.6285H78.4717H78.4841H78.4912C78.4965 15.6285 78.5018 15.6267 78.5071 15.6267C78.5107 15.625 78.5142 15.625 78.516 15.625C78.5231 15.625 78.5302 15.6232 78.539 15.6214C78.5408 15.6214 78.5443 15.6214 78.5443 15.6196C78.5514 15.6179 78.562 15.6143 78.5691 15.6108C78.5709 15.6108 78.5726 15.609 78.5762 15.6072C78.5833 15.6036 78.5886 15.6001 78.5939 15.5948C78.5956 15.593 78.5974 15.5912 78.5992 15.5894C78.6063 15.5841 78.6098 15.577 78.6116 15.5734C78.6133 15.5716 78.6151 15.5699 78.6151 15.5645C78.6187 15.5539 78.6222 15.545 78.6222 15.5343C78.6222 15.4277 78.5248 15.417 78.4594 15.3904C78.4009 15.3673 78.3355 15.3157 78.2965 15.2162C78.2647 15.1362 78.2558 14.9727 78.2523 14.8607L78.254 1.14641C78.2664 1.0291 78.2753 0.867362 78.3089 0.785603ZM89.1075 0.45501C89.104 0.449677 89.0987 0.444346 89.0951 0.439014C89.0934 0.437236 89.0898 0.435459 89.0881 0.433681C89.0827 0.428349 89.0774 0.424795 89.0703 0.423017C89.0686 0.42124 89.065 0.419462 89.0633 0.419462C89.0544 0.415908 89.0456 0.412353 89.0367 0.408798H89.0314C89.0226 0.407021 89.0155 0.405243 89.0084 0.403466C89.0049 0.403466 89.0031 0.401688 89.0013 0.401688C88.9942 0.399911 88.9889 0.399911 88.9836 0.399911H88.9765H88.9641H88.9606H88.9535L88.7518 0.398133H87.7712H87.5606H86.7145L86.5127 0.399911H86.5057H86.5021H86.4897H86.4826C86.4773 0.399911 86.4738 0.399911 86.4667 0.401688C86.4632 0.401688 86.4614 0.403466 86.4579 0.403466C86.449 0.405243 86.4437 0.407021 86.4349 0.408798H86.4296C86.4207 0.412353 86.4118 0.415908 86.403 0.419462C86.4012 0.42124 86.3995 0.42124 86.3977 0.423017C86.3906 0.426572 86.3835 0.430126 86.38 0.433681C86.3764 0.437236 86.3729 0.439014 86.3711 0.439014C86.3658 0.444346 86.3641 0.449677 86.3605 0.45501C86.3587 0.458564 86.3552 0.460342 86.3552 0.463897C86.3499 0.472784 86.3499 0.483448 86.3499 0.49589C86.3499 0.598978 86.449 0.613197 86.5127 0.63808C86.5623 0.657632 86.6473 0.67896 86.665 0.748278C86.6826 0.82826 86.6561 0.904687 86.6561 0.915352C86.6278 1.12331 85.0862 12.0133 85.0862 12.0133C85.0862 12.0133 83.5374 1.0291 83.5232 0.915352C83.5215 0.904687 83.4949 0.82826 83.5126 0.748278C83.5286 0.67896 83.6153 0.659409 83.6649 0.63808C83.7286 0.613197 83.8277 0.598978 83.8277 0.49589C83.8277 0.483448 83.8242 0.472784 83.8206 0.463897C83.8188 0.460342 83.8171 0.458564 83.8153 0.45501C83.8118 0.449677 83.8065 0.444346 83.8029 0.439014C83.8011 0.437236 83.7976 0.435459 83.7958 0.433681C83.7887 0.428349 83.7834 0.424795 83.7781 0.423017C83.7764 0.42124 83.7728 0.419462 83.7693 0.419462C83.7622 0.415908 83.7516 0.412353 83.7427 0.408798H83.7392C83.7303 0.407021 83.7233 0.405243 83.7144 0.403466C83.7109 0.403466 83.7073 0.401688 83.7073 0.401688C83.7003 0.399911 83.6949 0.399911 83.6896 0.399911H83.6843H83.6719H83.6684H83.6631L83.4595 0.398133H82.6135H82.4029H81.4223L81.2205 0.399911H81.2152H81.2117H81.1957H81.1904C81.1834 0.399911 81.178 0.399911 81.1727 0.401688C81.1692 0.401688 81.1674 0.403466 81.1639 0.403466C81.1568 0.405243 81.1497 0.407021 81.1409 0.408798H81.1373C81.1267 0.412353 81.1179 0.415908 81.109 0.419462C81.1072 0.42124 81.1055 0.42124 81.1019 0.423017C81.0966 0.426572 81.0895 0.430126 81.086 0.433681C81.0842 0.437236 81.0807 0.439014 81.0789 0.439014C81.0736 0.444346 81.0701 0.449677 81.0665 0.45501C81.0648 0.458564 81.063 0.460342 81.063 0.463897C81.0594 0.472784 81.0559 0.483448 81.0559 0.49589C81.0559 0.558098 81.0895 0.586536 81.132 0.606088C81.401 0.687847 81.4683 0.709176 81.5002 0.822928C81.5267 0.913575 82.8825 9.38458 83.4702 13.062C83.4702 13.062 83.7056 14.4981 83.7887 15.0758C83.81 15.2162 83.8188 15.305 83.8171 15.3104C83.7817 15.3495 83.7445 15.3744 83.7091 15.3886C83.6454 15.4135 83.5463 15.4259 83.5463 15.5325C83.5463 15.5432 83.5498 15.5539 83.5533 15.5628C83.5551 15.5681 83.5569 15.5699 83.5569 15.5717C83.5604 15.5752 83.5657 15.5823 83.5693 15.5876C83.571 15.5894 83.5746 15.593 83.5764 15.593C83.5817 15.5983 83.587 15.6019 83.5923 15.6054C83.5958 15.6072 83.5976 15.609 83.5994 15.609C83.61 15.6125 83.6171 15.6161 83.6259 15.6179C83.6295 15.6196 83.6294 15.6196 83.6294 15.6196C83.6383 15.6214 83.6471 15.6232 83.6542 15.6232C83.6578 15.6232 83.6578 15.625 83.6613 15.625C83.6684 15.625 83.6737 15.6267 83.679 15.6267H83.6843H83.6985H83.702C83.7038 15.6267 83.7073 15.625 83.7073 15.625L83.9091 15.6285H84.8914H85.4154H86.2649L86.4649 15.625C86.4649 15.625 86.4685 15.6267 86.472 15.6267H86.4738H86.488H86.4933C86.4986 15.6267 86.5057 15.625 86.511 15.625C86.5127 15.6232 86.5181 15.6232 86.5198 15.6232C86.5269 15.6232 86.5358 15.6214 86.5428 15.6196C86.5446 15.6196 86.5464 15.6196 86.5464 15.6179C86.5552 15.6161 86.5658 15.6125 86.5729 15.609C86.5764 15.609 86.5782 15.6072 86.58 15.6054C86.5853 15.6019 86.5924 15.5983 86.5977 15.593C86.6012 15.5912 86.603 15.5894 86.603 15.5876C86.6101 15.5823 86.6136 15.5752 86.6172 15.5717C86.6172 15.5717 86.6207 15.5663 86.6207 15.5628C86.6242 15.5539 86.6278 15.5432 86.6278 15.5325C86.6278 15.4259 86.5287 15.4152 86.4649 15.3886C86.426 15.3744 86.3782 15.3477 86.3464 15.2962C86.3287 15.2624 86.3782 15.0509 86.426 14.7309C86.5304 14.0502 86.7039 12.9962 86.7039 12.9962C87.3021 9.27438 88.6509 0.881582 88.665 0.824705C88.6969 0.710953 88.7677 0.691402 89.0332 0.607865C89.0739 0.588313 89.1093 0.559875 89.1093 0.497667C89.1093 0.485225 89.1075 0.474561 89.104 0.465674C89.1111 0.458565 89.1093 0.456787 89.1075 0.45501Z" fill="#8B1D41"/>
</svg>
