<svg width="434" height="74" viewBox="0 0 434 74" fill="none" xmlns="http://www.w3.org/2000/svg">
<g filter="url(#filter0_d_122_4236)">
<path d="M30.7465 53.2V59.8C30.7465 67.9333 26.9132 72 19.2465 72H13.0465C5.37982 72 1.54648 67.9333 1.54648 59.8V12.4C1.54648 4.26666 5.37982 0.199995 13.0465 0.199995H19.2465C26.9132 0.199995 30.7465 4.26666 30.7465 12.4V22.5H21.1465V12.4C21.1465 9.6 19.7132 8.2 16.8465 8.2H14.9465C12.4132 8.2 11.1465 9.6 11.1465 12.4V59.8C11.1465 62.6 12.4132 64 14.9465 64H17.3465C19.8798 64 21.1465 62.6 21.1465 59.8V53.2H30.7465ZM54.5332 72C46.7999 72 42.9332 67.9333 42.9332 59.8V12.5C42.9332 4.3 46.7665 0.199995 54.4332 0.199995H62.6332C70.2999 0.199995 74.1332 4.3 74.1332 12.5V59.8C74.1332 67.9333 70.2665 72 62.5332 72H54.5332ZM61.2332 64C63.4332 64 64.5332 62.7667 64.5332 60.3V11.9C64.5332 9.43333 63.2665 8.2 60.7332 8.2H56.2332C53.7665 8.2 52.5332 9.43333 52.5332 11.9V60.3C52.5332 62.7667 53.7999 64 56.3332 64H61.2332ZM107.336 42.4L116.236 0.199995H126.836V72H117.236L118.236 25L111.036 59H103.636L96.4355 25L97.4355 72H87.8355V0.199995H98.4355L107.336 42.4ZM140.55 72V0.199995H150.15V72H140.55ZM183.771 0.199995H193.371V72H183.771V57.7L173.471 25V72H163.871V0.199995H173.471L183.771 34.9V0.199995ZM237.013 36.7L237.113 72H218.613C210.946 72 207.113 67.9333 207.113 59.8V12.4C207.113 4.26666 210.946 0.199995 218.613 0.199995H224.813C232.48 0.199995 236.313 4.26666 236.313 12.4V22.5H226.713V13.1C226.713 10.3 225.28 8.9 222.413 8.9H220.513C217.98 8.9 216.713 10.3 216.713 13.1V59.1C216.713 61.9 218.146 63.3 221.013 63.3H227.413V44.7H221.613V36.7H237.013ZM290.027 22.5V11.3C290.094 9.23333 289.094 8.2 287.027 8.2H284.227C282.027 8.2 280.994 9.26667 281.127 11.4V25.9C281.127 27.2333 281.394 28.1333 281.927 28.6C282.46 29 283.16 29.4333 284.027 29.9L296.027 37.1C297.76 38.1667 298.86 39.2333 299.327 40.3C299.794 41.3 300.027 42.9333 300.027 45.2V59.9C300.027 67.9667 296.16 72 288.427 72H282.527C274.86 72 271.027 67.6 271.027 58.8V53.3H280.627V61C280.627 63 281.594 64 283.527 64H287.627C289.56 64 290.494 63 290.427 61V46.4C290.427 45.0667 290.194 44.2 289.727 43.8C289.327 43.3333 288.76 42.9 288.027 42.5L275.927 34.9C274.794 34.1667 273.927 33.5 273.327 32.9C272.794 32.2333 272.36 31.6 272.027 31C271.76 30.3333 271.594 29.6333 271.527 28.9C271.527 28.1667 271.527 27.3333 271.527 26.4V12.5C271.527 4.3 275.36 0.199995 283.027 0.199995H288.127C295.794 0.199995 299.627 4.3 299.627 12.5V22.5H290.027ZM324.807 72C317.073 72 313.207 67.9333 313.207 59.8V12.5C313.207 4.3 317.04 0.199995 324.707 0.199995H332.907C340.573 0.199995 344.407 4.3 344.407 12.5V59.8C344.407 67.9333 340.54 72 332.807 72H324.807ZM331.507 64C333.707 64 334.807 62.7667 334.807 60.3V11.9C334.807 9.43333 333.54 8.2 331.007 8.2H326.507C324.04 8.2 322.807 9.43333 322.807 11.9V60.3C322.807 62.7667 324.073 64 326.607 64H331.507ZM369.709 72C361.976 72 358.109 67.9333 358.109 59.8V12.5C358.109 4.3 361.942 0.199995 369.609 0.199995H377.809C385.476 0.199995 389.309 4.3 389.309 12.5V59.8C389.309 67.9333 385.442 72 377.709 72H369.709ZM376.409 64C378.609 64 379.709 62.7667 379.709 60.3V11.9C379.709 9.43333 378.442 8.2 375.909 8.2H371.409C368.942 8.2 367.709 9.43333 367.709 11.9V60.3C367.709 62.7667 368.976 64 371.509 64H376.409ZM422.911 0.199995H432.511V72H422.911V57.7L412.611 25V72H403.011V0.199995H412.611L422.911 34.9V0.199995Z" fill="#8A1E41"/>
</g>
<defs>
<filter id="filter0_d_122_4236" x="0.546478" y="0.200195" width="432.965" height="73.7998" filterUnits="userSpaceOnUse" color-interpolation-filters="sRGB">
<feFlood flood-opacity="0" result="BackgroundImageFix"/>
<feColorMatrix in="SourceAlpha" type="matrix" values="0 0 0 0 0 0 0 0 0 0 0 0 0 0 0 0 0 0 127 0" result="hardAlpha"/>
<feOffset dy="1"/>
<feGaussianBlur stdDeviation="0.5"/>
<feComposite in2="hardAlpha" operator="out"/>
<feColorMatrix type="matrix" values="0 0 0 0 0 0 0 0 0 0 0 0 0 0 0 0 0 0 0.5 0"/>
<feBlend mode="normal" in2="BackgroundImageFix" result="effect1_dropShadow_122_4236"/>
<feBlend mode="normal" in="SourceGraphic" in2="effect1_dropShadow_122_4236" result="shape"/>
</filter>
</defs>
</svg>
