<svg width="659" height="74" viewBox="0 0 659 74" fill="none" xmlns="http://www.w3.org/2000/svg">
<g filter="url(#filter0_d_122_4348)">
<path d="M1.22227 72V0.199995H22.4223V8.2H10.8223V32.7H22.4223V40.7H10.8223V64H22.4223V72H1.22227ZM51.9012 35.4L62.1012 72H53.5012L46.7012 46.9H46.5012L39.7012 72H31.1012L41.2012 35.4L32.1012 0.199995H40.8012L46.5012 23.7H46.7012L52.4012 0.199995H61.1012L51.9012 35.4ZM81.877 72H72.277V0.199995H90.377C98.1103 0.199995 101.977 4.3 101.977 12.5V28.9C101.977 33.9 100.41 37.8 97.277 40.6C94.1436 43.3333 89.5436 44.7 83.477 44.7H81.877V72ZM81.877 36.7H83.477C86.477 36.7 88.7103 36.1333 90.177 35C91.6436 33.8667 92.377 32.0333 92.377 29.5V11.4C92.4436 9.26667 91.3103 8.2 88.977 8.2H81.877V36.7ZM114.152 72V0.199995H135.352V8.2H123.752V32.7H135.352V40.7H123.752V64H135.352V72H114.152ZM168.231 72L161.931 43H156.131V72H146.531V0.199995H165.331C172.664 0.199995 176.331 4.3 176.331 12.5V30.2C176.331 36.4 174.431 40.3667 170.631 42.1L177.331 72H168.231ZM156.131 34.8H162.431C165.298 34.8 166.731 33.0667 166.731 29.6V14.1C166.731 10.6333 165.298 8.9 162.431 8.9H156.131V34.8ZM189.504 72V0.199995H199.104V72H189.504ZM212.824 72V0.199995H234.024V8.2H222.424V32.7H234.024V40.7H222.424V64H234.024V72H212.824ZM266.103 0.199995H275.703V72H266.103V57.7L255.803 25V72H246.203V0.199995H255.803L266.103 34.9V0.199995ZM318.645 53.2V59.8C318.645 67.9333 314.812 72 307.145 72H300.945C293.278 72 289.445 67.9333 289.445 59.8V12.4C289.445 4.26666 293.278 0.199995 300.945 0.199995H307.145C314.812 0.199995 318.645 4.26666 318.645 12.4V22.5H309.045V12.4C309.045 9.6 307.612 8.2 304.745 8.2H302.845C300.312 8.2 299.045 9.6 299.045 12.4V59.8C299.045 62.6 300.312 64 302.845 64H305.245C307.778 64 309.045 62.6 309.045 59.8V53.2H318.645ZM330.832 72V0.199995H352.032V8.2H340.432V32.7H352.032V40.7H340.432V64H352.032V72H330.832ZM406.094 32.7V40.7H394.494V72H384.894V0.199995H406.094V8.2H394.494V32.7H406.094ZM418.273 72V0.199995H427.873V72H418.273ZM461.493 0.199995H471.093V72H461.493V57.7L451.193 25V72H441.593V0.199995H451.193L461.493 34.9V0.199995ZM484.836 72V0.199995H494.436V72H484.836ZM526.656 22.5V11.3C526.723 9.23333 525.723 8.2 523.656 8.2H520.856C518.656 8.2 517.623 9.26667 517.756 11.4V25.9C517.756 27.2333 518.023 28.1333 518.556 28.6C519.089 29 519.789 29.4333 520.656 29.9L532.656 37.1C534.389 38.1667 535.489 39.2333 535.956 40.3C536.423 41.3 536.656 42.9333 536.656 45.2V59.9C536.656 67.9667 532.789 72 525.056 72H519.156C511.489 72 507.656 67.6 507.656 58.8V53.3H517.256V61C517.256 63 518.223 64 520.156 64H524.256C526.189 64 527.123 63 527.056 61V46.4C527.056 45.0667 526.823 44.2 526.356 43.8C525.956 43.3333 525.389 42.9 524.656 42.5L512.556 34.9C511.423 34.1667 510.556 33.5 509.956 32.9C509.423 32.2333 508.989 31.6 508.656 31C508.389 30.3333 508.223 29.6333 508.156 28.9C508.156 28.1667 508.156 27.3333 508.156 26.4V12.5C508.156 4.3 511.989 0.199995 519.656 0.199995H524.756C532.423 0.199995 536.256 4.3 536.256 12.5V22.5H526.656ZM570.436 72V40.7H559.436V72H549.836V0.199995H559.436V32.7H570.436V0.199995H580.036V72H570.436ZM593.761 72V0.199995H614.961V8.2H603.361V32.7H614.961V40.7H603.361V64H614.961V72H593.761ZM627.14 0.199995H643.84C652.84 0.199995 657.34 4.79999 657.34 14V61.6C657.34 68.5333 653.507 72 645.84 72H627.14V0.199995ZM636.74 63.3H643.94C646.474 63.3 647.74 62.2333 647.74 60.1V14.1C647.74 10.6333 646.307 8.9 643.44 8.9H636.74V63.3Z" fill="#8A1E41"/>
</g>
<defs>
<filter id="filter0_d_122_4348" x="0.22229" y="0.200195" width="658.118" height="73.7998" filterUnits="userSpaceOnUse" color-interpolation-filters="sRGB">
<feFlood flood-opacity="0" result="BackgroundImageFix"/>
<feColorMatrix in="SourceAlpha" type="matrix" values="0 0 0 0 0 0 0 0 0 0 0 0 0 0 0 0 0 0 127 0" result="hardAlpha"/>
<feOffset dy="1"/>
<feGaussianBlur stdDeviation="0.5"/>
<feComposite in2="hardAlpha" operator="out"/>
<feColorMatrix type="matrix" values="0 0 0 0 0 0 0 0 0 0 0 0 0 0 0 0 0 0 0.5 0"/>
<feBlend mode="normal" in2="BackgroundImageFix" result="effect1_dropShadow_122_4348"/>
<feBlend mode="normal" in="SourceGraphic" in2="effect1_dropShadow_122_4348" result="shape"/>
</filter>
</defs>
</svg>
