<svg width="313" height="165" viewBox="0 0 313 165" fill="none" xmlns="http://www.w3.org/2000/svg">
<path d="M75.7742 22H72.8942V0.459998H78.3242C80.6442 0.459998 81.8042 1.69 81.8042 4.15V9.07C81.8042 10.57 81.3342 11.74 80.3942 12.58C79.4542 13.4 78.0742 13.81 76.2542 13.81H75.7742V22ZM75.7742 11.41H76.2542C77.1542 11.41 77.8242 11.24 78.2642 10.9C78.7042 10.56 78.9242 10.01 78.9242 9.25V3.82C78.9442 3.18 78.6042 2.86 77.9042 2.86H75.7742V11.41ZM91.8167 22H85.4567V0.459998H88.3367V19.6H91.8167V22ZM97.9074 22H95.0274V4.15C95.0274 1.69 96.1774 0.459998 98.4774 0.459998H100.637C102.937 0.459998 104.087 1.69 104.087 4.15V22H101.207V14.11H97.9074V22ZM101.207 11.5V4.33C101.207 3.49 100.787 3.07 99.9474 3.07H99.1674C98.3274 3.07 97.9074 3.49 97.9074 4.33V11.5H101.207ZM114.003 0.459998H116.883V22H114.003V17.71L110.913 7.9V22H108.033V0.459998H110.913L114.003 10.87V0.459998ZM125.596 2.86V22H122.716V2.86H119.956V0.459998H128.356V2.86H125.596ZM141.684 9.82L143.634 0.459998H146.484L143.004 14.08V22H140.124V14.08L136.584 0.459998H139.434L141.594 9.82H141.684ZM153.032 22C150.712 22 149.552 20.78 149.552 18.34V4.15C149.552 1.69 150.702 0.459998 153.002 0.459998H155.462C157.762 0.459998 158.912 1.69 158.912 4.15V18.34C158.912 20.78 157.752 22 155.432 22H153.032ZM155.042 19.6C155.702 19.6 156.032 19.23 156.032 18.49V3.97C156.032 3.23 155.652 2.86 154.892 2.86H153.542C152.802 2.86 152.432 3.23 152.432 3.97V18.49C152.432 19.23 152.812 19.6 153.572 19.6H155.042ZM172.083 0.459998V17.92C172.083 20.64 170.713 22 167.973 22H167.103C164.383 22 163.023 20.63 163.023 17.89V0.459998H165.903V17.98C165.903 18.44 165.993 18.79 166.173 19.03C166.373 19.27 166.703 19.39 167.163 19.39H167.883C168.763 19.39 169.203 18.92 169.203 17.98V0.459998H172.083ZM182.411 22L180.521 13.3H178.781V22H175.901V0.459998H181.541C183.741 0.459998 184.841 1.69 184.841 4.15V9.46C184.841 11.32 184.271 12.51 183.131 13.03L185.141 22H182.411ZM178.781 10.84H180.671C181.531 10.84 181.961 10.32 181.961 9.28V4.63C181.961 3.59 181.531 3.07 180.671 3.07H178.781V10.84ZM199.588 2.86V22H196.708V2.86H193.948V0.459998H202.348V2.86H199.588ZM211.632 22L209.742 13.3H208.002V22H205.122V0.459998H210.762C212.962 0.459998 214.062 1.69 214.062 4.15V9.46C214.062 11.32 213.492 12.51 212.352 13.03L214.362 22H211.632ZM208.002 10.84H209.892C210.752 10.84 211.182 10.32 211.182 9.28V4.63C211.182 3.59 210.752 3.07 209.892 3.07H208.002V10.84ZM218.013 22V0.459998H224.373V2.86H220.893V10.21H224.373V12.61H220.893V19.6H224.373V22H218.013ZM228.027 22V0.459998H234.387V2.86H230.907V10.21H234.387V12.61H230.907V19.6H234.387V22H228.027Z" fill="#7E213B"/>
<path d="M25.9601 55.56L29.1401 70H27.5801L26.7201 65.72H23.0401L22.1801 70H20.6201L23.8001 55.56H25.9601ZM24.8601 56.64L23.2601 64.4H26.5001L24.9001 56.64H24.8601ZM31.9504 55.56V70H30.5104V55.56H31.9504ZM36.0871 55.56V70H34.6471V55.56H36.0871ZM41.1638 59.4C42.2705 59.4 43.0772 59.8333 43.5838 60.7C44.0905 61.5667 44.3438 62.9333 44.3438 64.8C44.3438 66.6667 44.0905 68.0333 43.5838 68.9C43.0772 69.7667 42.2705 70.2 41.1638 70.2C40.0438 70.2 39.2305 69.7667 38.7238 68.9C38.2305 68.0333 37.9838 66.6667 37.9838 64.8C37.9838 62.9333 38.2305 61.5667 38.7238 60.7C39.2305 59.8333 40.0438 59.4 41.1638 59.4ZM39.4238 64.8C39.4238 65.5733 39.4505 66.2333 39.5038 66.78C39.5572 67.3133 39.6438 67.7467 39.7638 68.08C39.8972 68.4 40.0772 68.6333 40.3038 68.78C40.5305 68.9267 40.8172 69 41.1638 69C41.4705 69 41.7305 68.94 41.9438 68.82C42.1705 68.7 42.3505 68.48 42.4838 68.16C42.6305 67.84 42.7372 67.4133 42.8038 66.88C42.8705 66.3333 42.9038 65.64 42.9038 64.8C42.9038 63.9333 42.8705 63.2333 42.8038 62.7C42.7372 62.1533 42.6305 61.7267 42.4838 61.42C42.3505 61.1 42.1705 60.8867 41.9438 60.78C41.7172 60.66 41.4505 60.6 41.1438 60.6C40.7972 60.6 40.5105 60.6733 40.2838 60.82C40.0705 60.9667 39.8972 61.2067 39.7638 61.54C39.6438 61.8733 39.5572 62.3067 39.5038 62.84C39.4505 63.3733 39.4238 64.0267 39.4238 64.8ZM46.4804 59.6L47.9604 67.24H48.0004L49.6804 59.6H51.0404L52.7604 67.24H52.8004L54.1604 59.6H55.5204L53.3604 70H52.1604L50.3604 61.92H50.3204L48.5204 70H47.3204L45.1204 59.6H46.4804ZM64.6335 59.4C65.5935 59.4 66.3335 59.86 66.8535 60.78C67.3735 61.6867 67.6335 63.0267 67.6335 64.8C67.6335 66.5467 67.3735 67.8867 66.8535 68.82C66.3468 69.74 65.6068 70.2 64.6335 70.2C64.3135 70.2 63.9935 70.1267 63.6735 69.98C63.3535 69.82 63.0335 69.5733 62.7135 69.24V73.4H61.2735V59.6H62.4735V60.6H62.5135C62.7535 60.2267 63.0468 59.9333 63.3935 59.72C63.7535 59.5067 64.1668 59.4 64.6335 59.4ZM62.7135 68.08C63.0335 68.4133 63.3135 68.6533 63.5535 68.8C63.7935 68.9333 64.0402 69 64.2935 69C64.9468 69 65.4268 68.6733 65.7335 68.02C66.0402 67.3533 66.1935 66.28 66.1935 64.8C66.1935 63.36 66.0335 62.3 65.7135 61.62C65.4068 60.94 64.9135 60.6 64.2335 60.6C63.9935 60.6 63.7335 60.6933 63.4535 60.88C63.1735 61.0533 62.9268 61.2933 62.7135 61.6V68.08ZM72.1638 59.4C73.1905 59.4 73.9772 59.82 74.5238 60.66C75.0705 61.4867 75.3438 62.7867 75.3438 64.56V65.04H70.4238V65.48C70.4238 66.1333 70.4572 66.6867 70.5238 67.14C70.5905 67.5933 70.6972 67.96 70.8438 68.24C70.9905 68.5067 71.1905 68.7 71.4438 68.82C71.6972 68.94 72.0038 69 72.3638 69C73.2572 69 73.8372 68.3467 74.1038 67.04L75.4638 67.2C75.3172 68.08 74.9505 68.8 74.3638 69.36C73.7772 69.92 73.0438 70.2 72.1638 70.2C71.0438 70.2 70.2305 69.7667 69.7238 68.9C69.2305 68.0333 68.9838 66.6667 68.9838 64.8C68.9838 62.9333 69.2305 61.5667 69.7238 60.7C70.2305 59.8333 71.0438 59.4 72.1638 59.4ZM73.9038 63.84C73.8772 62.68 73.7372 61.8533 73.4838 61.36C73.2438 60.8533 72.7972 60.6 72.1438 60.6C71.5572 60.6 71.1238 60.86 70.8438 61.38C70.5638 61.8867 70.4238 62.7067 70.4238 63.84H73.9038ZM81.2004 60.76C80.5471 60.76 80.0204 60.9067 79.6204 61.2C79.2204 61.48 78.8537 61.9467 78.5204 62.6V70H77.0804V59.6H78.5204V60.86H78.5604C78.7337 60.5933 78.9004 60.3733 79.0604 60.2C79.2337 60.0133 79.4204 59.86 79.6204 59.74C79.8204 59.62 80.0471 59.5333 80.3004 59.48C80.5537 59.4267 80.8537 59.4 81.2004 59.4V60.76ZM86.3699 59.4C86.7433 59.4 87.1099 59.52 87.4699 59.76C87.8433 59.9867 88.0966 60.3067 88.2299 60.72C88.5899 60.2933 88.9766 59.9667 89.3899 59.74C89.8166 59.5133 90.2366 59.4 90.6499 59.4C91.3566 59.4 91.8833 59.6267 92.2299 60.08C92.5766 60.52 92.7499 61.0733 92.7499 61.74V70H91.3099V61.94C91.3099 61.4867 91.2299 61.1533 91.0699 60.94C90.9233 60.7133 90.6433 60.6 90.2299 60.6C89.9633 60.6 89.6899 60.6667 89.4099 60.8C89.1433 60.9333 88.8099 61.2267 88.4099 61.68V70H86.9699V61.94C86.9699 61.5133 86.8899 61.1867 86.7299 60.96C86.5699 60.72 86.2699 60.6 85.8299 60.6C85.5366 60.6 85.2499 60.68 84.9699 60.84C84.6899 60.9867 84.3899 61.2667 84.0699 61.68V70H82.6299V59.6H83.9499V60.74C84.3233 60.2867 84.7166 59.9533 85.1299 59.74C85.5433 59.5133 85.9566 59.4 86.3699 59.4ZM97.0129 55.56V57.24H95.5729V55.56H97.0129ZM97.0129 59.6V70H95.5729V59.6H97.0129ZM101.99 59.4C102.79 59.4 103.43 59.62 103.91 60.06C104.39 60.4867 104.716 61.0933 104.89 61.88L103.69 62.24C103.516 61.6133 103.283 61.1867 102.99 60.96C102.71 60.72 102.35 60.6 101.91 60.6C101.563 60.6 101.276 60.7133 101.05 60.94C100.836 61.1667 100.73 61.4667 100.73 61.84C100.73 62.24 100.883 62.6 101.19 62.92C101.496 63.24 101.916 63.5533 102.45 63.86C103.036 64.2067 103.503 64.5333 103.85 64.84C104.21 65.1467 104.483 65.44 104.67 65.72C104.856 66 104.976 66.2733 105.03 66.54C105.096 66.8067 105.13 67.0733 105.13 67.34C105.13 67.7533 105.056 68.14 104.91 68.5C104.763 68.8467 104.563 69.1467 104.31 69.4C104.056 69.6533 103.756 69.8533 103.41 70C103.063 70.1333 102.69 70.2 102.29 70.2C101.423 70.2 100.716 69.98 100.17 69.54C99.6363 69.1 99.2363 68.4 98.9696 67.44L100.29 67.16C100.49 67.8 100.75 68.2667 101.07 68.56C101.403 68.8533 101.776 69 102.19 69C102.576 69 102.923 68.8467 103.23 68.54C103.536 68.22 103.69 67.8467 103.69 67.42C103.69 67.0867 103.616 66.8 103.47 66.56C103.323 66.32 103.116 66.0933 102.85 65.88C102.596 65.6533 102.29 65.4267 101.93 65.2C101.57 64.9733 101.183 64.72 100.77 64.44C100.343 64.1467 99.9896 63.7933 99.7096 63.38C99.4296 62.9667 99.2896 62.48 99.2896 61.92C99.2896 61.5733 99.3563 61.2533 99.4896 60.96C99.6229 60.6533 99.8096 60.3867 100.05 60.16C100.29 59.92 100.57 59.7333 100.89 59.6C101.223 59.4667 101.59 59.4 101.99 59.4ZM109.466 59.4C110.266 59.4 110.906 59.62 111.386 60.06C111.866 60.4867 112.193 61.0933 112.366 61.88L111.166 62.24C110.993 61.6133 110.76 61.1867 110.466 60.96C110.186 60.72 109.826 60.6 109.386 60.6C109.04 60.6 108.753 60.7133 108.526 60.94C108.313 61.1667 108.206 61.4667 108.206 61.84C108.206 62.24 108.36 62.6 108.666 62.92C108.973 63.24 109.393 63.5533 109.926 63.86C110.513 64.2067 110.98 64.5333 111.326 64.84C111.686 65.1467 111.96 65.44 112.146 65.72C112.333 66 112.453 66.2733 112.506 66.54C112.573 66.8067 112.606 67.0733 112.606 67.34C112.606 67.7533 112.533 68.14 112.386 68.5C112.24 68.8467 112.04 69.1467 111.786 69.4C111.533 69.6533 111.233 69.8533 110.886 70C110.54 70.1333 110.166 70.2 109.766 70.2C108.9 70.2 108.193 69.98 107.646 69.54C107.113 69.1 106.713 68.4 106.446 67.44L107.766 67.16C107.966 67.8 108.226 68.2667 108.546 68.56C108.88 68.8533 109.253 69 109.666 69C110.053 69 110.4 68.8467 110.706 68.54C111.013 68.22 111.166 67.8467 111.166 67.42C111.166 67.0867 111.093 66.8 110.946 66.56C110.8 66.32 110.593 66.0933 110.326 65.88C110.073 65.6533 109.766 65.4267 109.406 65.2C109.046 64.9733 108.66 64.72 108.246 64.44C107.82 64.1467 107.466 63.7933 107.186 63.38C106.906 62.9667 106.766 62.48 106.766 61.92C106.766 61.5733 106.833 61.2533 106.966 60.96C107.1 60.6533 107.286 60.3867 107.526 60.16C107.766 59.92 108.046 59.7333 108.366 59.6C108.7 59.4667 109.066 59.4 109.466 59.4ZM116.103 55.56V57.24H114.663V55.56H116.103ZM116.103 59.6V70H114.663V59.6H116.103ZM121.179 59.4C122.286 59.4 123.093 59.8333 123.599 60.7C124.106 61.5667 124.359 62.9333 124.359 64.8C124.359 66.6667 124.106 68.0333 123.599 68.9C123.093 69.7667 122.286 70.2 121.179 70.2C120.059 70.2 119.246 69.7667 118.739 68.9C118.246 68.0333 117.999 66.6667 117.999 64.8C117.999 62.9333 118.246 61.5667 118.739 60.7C119.246 59.8333 120.059 59.4 121.179 59.4ZM119.439 64.8C119.439 65.5733 119.466 66.2333 119.519 66.78C119.573 67.3133 119.659 67.7467 119.779 68.08C119.913 68.4 120.093 68.6333 120.319 68.78C120.546 68.9267 120.833 69 121.179 69C121.486 69 121.746 68.94 121.959 68.82C122.186 68.7 122.366 68.48 122.499 68.16C122.646 67.84 122.753 67.4133 122.819 66.88C122.886 66.3333 122.919 65.64 122.919 64.8C122.919 63.9333 122.886 63.2333 122.819 62.7C122.753 62.1533 122.646 61.7267 122.499 61.42C122.366 61.1 122.186 60.8867 121.959 60.78C121.733 60.66 121.466 60.6 121.159 60.6C120.813 60.6 120.526 60.6733 120.299 60.82C120.086 60.9667 119.913 61.2067 119.779 61.54C119.659 61.8733 119.573 62.3067 119.519 62.84C119.466 63.3733 119.439 64.0267 119.439 64.8ZM129.936 59.4C130.723 59.4 131.296 59.6333 131.656 60.1C132.029 60.5667 132.216 61.2133 132.216 62.04V70H130.776V62.24C130.776 61.6933 130.683 61.2867 130.496 61.02C130.323 60.74 130.036 60.6 129.636 60.6C129.276 60.6 128.936 60.7133 128.616 60.94C128.296 61.1533 127.976 61.4667 127.656 61.88V70H126.216V59.6H127.576V60.74C127.976 60.3267 128.389 60 128.816 59.76C129.256 59.52 129.629 59.4 129.936 59.4ZM137.126 59.4C137.926 59.4 138.566 59.62 139.046 60.06C139.526 60.4867 139.853 61.0933 140.026 61.88L138.826 62.24C138.653 61.6133 138.42 61.1867 138.126 60.96C137.846 60.72 137.486 60.6 137.046 60.6C136.7 60.6 136.413 60.7133 136.186 60.94C135.973 61.1667 135.866 61.4667 135.866 61.84C135.866 62.24 136.02 62.6 136.326 62.92C136.633 63.24 137.053 63.5533 137.586 63.86C138.173 64.2067 138.64 64.5333 138.986 64.84C139.346 65.1467 139.62 65.44 139.806 65.72C139.993 66 140.113 66.2733 140.166 66.54C140.233 66.8067 140.266 67.0733 140.266 67.34C140.266 67.7533 140.193 68.14 140.046 68.5C139.9 68.8467 139.7 69.1467 139.446 69.4C139.193 69.6533 138.893 69.8533 138.546 70C138.2 70.1333 137.826 70.2 137.426 70.2C136.56 70.2 135.853 69.98 135.306 69.54C134.773 69.1 134.373 68.4 134.106 67.44L135.426 67.16C135.626 67.8 135.886 68.2667 136.206 68.56C136.54 68.8533 136.913 69 137.326 69C137.713 69 138.06 68.8467 138.366 68.54C138.673 68.22 138.826 67.8467 138.826 67.42C138.826 67.0867 138.753 66.8 138.606 66.56C138.46 66.32 138.253 66.0933 137.986 65.88C137.733 65.6533 137.426 65.4267 137.066 65.2C136.706 64.9733 136.32 64.72 135.906 64.44C135.48 64.1467 135.126 63.7933 134.846 63.38C134.566 62.9667 134.426 62.48 134.426 61.92C134.426 61.5733 134.493 61.2533 134.626 60.96C134.76 60.6533 134.946 60.3867 135.186 60.16C135.426 59.92 135.706 59.7333 136.026 59.6C136.36 59.4667 136.726 59.4 137.126 59.4ZM146.68 59.6L148.16 67.24H148.2L149.88 59.6H151.24L152.96 67.24H153L154.36 59.6H155.72L153.56 70H152.36L150.56 61.92H150.52L148.72 70H147.52L145.32 59.6H146.68ZM158.656 55.56V60.74C159.003 60.3533 159.389 60.0333 159.816 59.78C160.243 59.5267 160.643 59.4 161.016 59.4C161.763 59.4 162.316 59.6333 162.676 60.1C163.036 60.5667 163.216 61.2133 163.216 62.04V70H161.776V62.3C161.776 61.7133 161.683 61.2867 161.496 61.02C161.323 60.74 161.036 60.6 160.636 60.6C160.276 60.6 159.936 60.7133 159.616 60.94C159.296 61.1533 158.976 61.4667 158.656 61.88V70H157.216V55.56H158.656ZM168.226 59.4C169.253 59.4 170.04 59.82 170.586 60.66C171.133 61.4867 171.406 62.7867 171.406 64.56V65.04H166.486V65.48C166.486 66.1333 166.52 66.6867 166.586 67.14C166.653 67.5933 166.76 67.96 166.906 68.24C167.053 68.5067 167.253 68.7 167.506 68.82C167.76 68.94 168.066 69 168.426 69C169.32 69 169.9 68.3467 170.166 67.04L171.526 67.2C171.38 68.08 171.013 68.8 170.426 69.36C169.84 69.92 169.106 70.2 168.226 70.2C167.106 70.2 166.293 69.7667 165.786 68.9C165.293 68.0333 165.046 66.6667 165.046 64.8C165.046 62.9333 165.293 61.5667 165.786 60.7C166.293 59.8333 167.106 59.4 168.226 59.4ZM169.966 63.84C169.94 62.68 169.8 61.8533 169.546 61.36C169.306 60.8533 168.86 60.6 168.206 60.6C167.62 60.6 167.186 60.86 166.906 61.38C166.626 61.8867 166.486 62.7067 166.486 63.84H169.966ZM176.983 59.4C177.77 59.4 178.343 59.6333 178.703 60.1C179.076 60.5667 179.263 61.2133 179.263 62.04V70H177.823V62.24C177.823 61.6933 177.73 61.2867 177.543 61.02C177.37 60.74 177.083 60.6 176.683 60.6C176.323 60.6 175.983 60.7133 175.663 60.94C175.343 61.1533 175.023 61.4667 174.703 61.88V70H173.263V59.6H174.623V60.74C175.023 60.3267 175.436 60 175.863 59.76C176.303 59.52 176.676 59.4 176.983 59.4ZM189.45 59.4C190.41 59.4 191.15 59.86 191.67 60.78C192.19 61.6867 192.45 63.0267 192.45 64.8C192.45 66.5467 192.19 67.8867 191.67 68.82C191.163 69.74 190.423 70.2 189.45 70.2C189.13 70.2 188.81 70.1267 188.49 69.98C188.17 69.82 187.85 69.5733 187.53 69.24V73.4H186.09V59.6H187.29V60.6H187.33C187.57 60.2267 187.863 59.9333 188.21 59.72C188.57 59.5067 188.983 59.4 189.45 59.4ZM187.53 68.08C187.85 68.4133 188.13 68.6533 188.37 68.8C188.61 68.9333 188.857 69 189.11 69C189.763 69 190.243 68.6733 190.55 68.02C190.857 67.3533 191.01 66.28 191.01 64.8C191.01 63.36 190.85 62.3 190.53 61.62C190.223 60.94 189.73 60.6 189.05 60.6C188.81 60.6 188.55 60.6933 188.27 60.88C187.99 61.0533 187.743 61.2933 187.53 61.6V68.08ZM198.54 60.76C197.887 60.76 197.36 60.9067 196.96 61.2C196.56 61.48 196.194 61.9467 195.86 62.6V70H194.42V59.6H195.86V60.86H195.9C196.074 60.5933 196.24 60.3733 196.4 60.2C196.574 60.0133 196.76 59.86 196.96 59.74C197.16 59.62 197.387 59.5333 197.64 59.48C197.894 59.4267 198.194 59.4 198.54 59.4V60.76ZM202.25 59.4C203.356 59.4 204.163 59.8333 204.67 60.7C205.176 61.5667 205.43 62.9333 205.43 64.8C205.43 66.6667 205.176 68.0333 204.67 68.9C204.163 69.7667 203.356 70.2 202.25 70.2C201.13 70.2 200.316 69.7667 199.81 68.9C199.316 68.0333 199.07 66.6667 199.07 64.8C199.07 62.9333 199.316 61.5667 199.81 60.7C200.316 59.8333 201.13 59.4 202.25 59.4ZM200.51 64.8C200.51 65.5733 200.536 66.2333 200.59 66.78C200.643 67.3133 200.73 67.7467 200.85 68.08C200.983 68.4 201.163 68.6333 201.39 68.78C201.616 68.9267 201.903 69 202.25 69C202.556 69 202.816 68.94 203.03 68.82C203.256 68.7 203.436 68.48 203.57 68.16C203.716 67.84 203.823 67.4133 203.89 66.88C203.956 66.3333 203.99 65.64 203.99 64.8C203.99 63.9333 203.956 63.2333 203.89 62.7C203.823 62.1533 203.716 61.7267 203.57 61.42C203.436 61.1 203.256 60.8867 203.03 60.78C202.803 60.66 202.536 60.6 202.23 60.6C201.883 60.6 201.596 60.6733 201.37 60.82C201.156 60.9667 200.983 61.2067 200.85 61.54C200.73 61.8733 200.643 62.3067 200.59 62.84C200.536 63.3733 200.51 64.0267 200.51 64.8ZM211.186 59.4C211.56 59.4 211.926 59.52 212.286 59.76C212.66 59.9867 212.913 60.3067 213.046 60.72C213.406 60.2933 213.793 59.9667 214.206 59.74C214.633 59.5133 215.053 59.4 215.466 59.4C216.173 59.4 216.7 59.6267 217.046 60.08C217.393 60.52 217.566 61.0733 217.566 61.74V70H216.126V61.94C216.126 61.4867 216.046 61.1533 215.886 60.94C215.74 60.7133 215.46 60.6 215.046 60.6C214.78 60.6 214.506 60.6667 214.226 60.8C213.96 60.9333 213.626 61.2267 213.226 61.68V70H211.786V61.94C211.786 61.5133 211.706 61.1867 211.546 60.96C211.386 60.72 211.086 60.6 210.646 60.6C210.353 60.6 210.066 60.68 209.786 60.84C209.506 60.9867 209.206 61.2667 208.886 61.68V70H207.446V59.6H208.766V60.74C209.14 60.2867 209.533 59.9533 209.946 59.74C210.36 59.5133 210.773 59.4 211.186 59.4ZM223.809 59.4C224.769 59.4 225.509 59.86 226.029 60.78C226.549 61.6867 226.809 63.0267 226.809 64.8C226.809 66.5467 226.549 67.8867 226.029 68.82C225.523 69.74 224.783 70.2 223.809 70.2C223.489 70.2 223.169 70.1267 222.849 69.98C222.529 69.82 222.209 69.5733 221.889 69.24V73.4H220.449V59.6H221.649V60.6H221.689C221.929 60.2267 222.223 59.9333 222.569 59.72C222.929 59.5067 223.343 59.4 223.809 59.4ZM221.889 68.08C222.209 68.4133 222.489 68.6533 222.729 68.8C222.969 68.9333 223.216 69 223.469 69C224.123 69 224.603 68.6733 224.909 68.02C225.216 67.3533 225.369 66.28 225.369 64.8C225.369 63.36 225.209 62.3 224.889 61.62C224.583 60.94 224.089 60.6 223.409 60.6C223.169 60.6 222.909 60.6933 222.629 60.88C222.349 61.0533 222.103 61.2933 221.889 61.6V68.08ZM230.46 56.12V59.6H232.38V60.8H230.46V68.12C230.46 68.3867 230.54 68.62 230.7 68.82C230.86 69.02 231.126 69.12 231.5 69.12C231.62 69.12 231.753 69.1067 231.9 69.08C232.046 69.04 232.206 68.9867 232.38 68.92V70C232.126 70.0667 231.92 70.1133 231.76 70.14C231.613 70.18 231.373 70.2 231.04 70.2C230.333 70.2 229.82 70.0267 229.5 69.68C229.18 69.3333 229.02 68.7867 229.02 68.04V60.8H227.62V59.6H229.02V56.12H230.46ZM236.609 59.4C237.636 59.4 238.422 59.82 238.969 60.66C239.516 61.4867 239.789 62.7867 239.789 64.56V65.04H234.869V65.48C234.869 66.1333 234.902 66.6867 234.969 67.14C235.036 67.5933 235.142 67.96 235.289 68.24C235.436 68.5067 235.636 68.7 235.889 68.82C236.142 68.94 236.449 69 236.809 69C237.702 69 238.282 68.3467 238.549 67.04L239.909 67.2C239.762 68.08 239.396 68.8 238.809 69.36C238.222 69.92 237.489 70.2 236.609 70.2C235.489 70.2 234.676 69.7667 234.169 68.9C233.676 68.0333 233.429 66.6667 233.429 64.8C233.429 62.9333 233.676 61.5667 234.169 60.7C234.676 59.8333 235.489 59.4 236.609 59.4ZM238.349 63.84C238.322 62.68 238.182 61.8533 237.929 61.36C237.689 60.8533 237.242 60.6 236.589 60.6C236.002 60.6 235.569 60.86 235.289 61.38C235.009 61.8867 234.869 62.7067 234.869 63.84H238.349ZM247.526 55.56V67.38C247.526 67.8733 247.539 68.3467 247.566 68.8C247.606 69.2533 247.672 69.6533 247.766 70H246.406L246.346 69H246.306C246.039 69.3867 245.726 69.6867 245.366 69.9C245.019 70.1 244.619 70.2 244.166 70.2C243.179 70.2 242.432 69.7467 241.926 68.84C241.419 67.92 241.166 66.5733 241.166 64.8C241.166 63.0133 241.426 61.6667 241.946 60.76C242.466 59.8533 243.206 59.4 244.166 59.4C244.806 59.4 245.446 59.72 246.086 60.36V55.56H247.526ZM242.606 64.8C242.606 66.24 242.752 67.3 243.046 67.98C243.352 68.66 243.852 69 244.546 69C244.786 69 245.046 68.9133 245.326 68.74C245.606 68.5533 245.859 68.3067 246.086 68V61.52C245.766 61.1867 245.479 60.9533 245.226 60.82C244.986 60.6733 244.746 60.6 244.506 60.6C243.799 60.6 243.306 60.9467 243.026 61.64C242.746 62.3333 242.606 63.3867 242.606 64.8ZM251.836 68.12V70H250.156V68.12H251.836ZM264.669 55.56V56.88H261.709V70H260.149V56.88H257.189V55.56H264.669ZM267.406 55.56V60.74C267.753 60.3533 268.139 60.0333 268.566 59.78C268.993 59.5267 269.393 59.4 269.766 59.4C270.513 59.4 271.066 59.6333 271.426 60.1C271.786 60.5667 271.966 61.2133 271.966 62.04V70H270.526V62.3C270.526 61.7133 270.433 61.2867 270.246 61.02C270.073 60.74 269.786 60.6 269.386 60.6C269.026 60.6 268.686 60.7133 268.366 60.94C268.046 61.1533 267.726 61.4667 267.406 61.88V70H265.966V55.56H267.406ZM276.976 59.4C278.003 59.4 278.79 59.82 279.336 60.66C279.883 61.4867 280.156 62.7867 280.156 64.56V65.04H275.236V65.48C275.236 66.1333 275.27 66.6867 275.336 67.14C275.403 67.5933 275.51 67.96 275.656 68.24C275.803 68.5067 276.003 68.7 276.256 68.82C276.51 68.94 276.816 69 277.176 69C278.07 69 278.65 68.3467 278.916 67.04L280.276 67.2C280.13 68.08 279.763 68.8 279.176 69.36C278.59 69.92 277.856 70.2 276.976 70.2C275.856 70.2 275.043 69.7667 274.536 68.9C274.043 68.0333 273.796 66.6667 273.796 64.8C273.796 62.9333 274.043 61.5667 274.536 60.7C275.043 59.8333 275.856 59.4 276.976 59.4ZM278.716 63.84C278.69 62.68 278.55 61.8533 278.296 61.36C278.056 60.8533 277.61 60.6 276.956 60.6C276.37 60.6 275.936 60.86 275.656 61.38C275.376 61.8867 275.236 62.7067 275.236 63.84H278.716ZM285.733 59.4C286.52 59.4 287.093 59.6333 287.453 60.1C287.826 60.5667 288.013 61.2133 288.013 62.04V70H286.573V62.24C286.573 61.6933 286.48 61.2867 286.293 61.02C286.12 60.74 285.833 60.6 285.433 60.6C285.073 60.6 284.733 60.7133 284.413 60.94C284.093 61.1533 283.773 61.4667 283.453 61.88V70H282.013V59.6H283.373V60.74C283.773 60.3267 284.186 60 284.613 59.76C285.053 59.52 285.426 59.4 285.733 59.4ZM292.203 68.12V70.12L291.003 73H290.403L291.323 70H290.523V68.12H292.203ZM15.7234 83.4C16.6834 83.4 17.4234 83.86 17.9434 84.78C18.4634 85.6867 18.7234 87.0267 18.7234 88.8C18.7234 90.5467 18.4634 91.8867 17.9434 92.82C17.4367 93.74 16.6967 94.2 15.7234 94.2C15.4034 94.2 15.0834 94.1267 14.7634 93.98C14.4434 93.82 14.1234 93.5733 13.8034 93.24V97.4H12.3634V83.6H13.5634V84.6H13.6034C13.8434 84.2267 14.1367 83.9333 14.4834 83.72C14.8434 83.5067 15.2567 83.4 15.7234 83.4ZM13.8034 92.08C14.1234 92.4133 14.4034 92.6533 14.6434 92.8C14.8834 92.9333 15.13 93 15.3834 93C16.0367 93 16.5167 92.6733 16.8234 92.02C17.13 91.3533 17.2834 90.28 17.2834 88.8C17.2834 87.36 17.1234 86.3 16.8034 85.62C16.4967 84.94 16.0034 84.6 15.3234 84.6C15.0834 84.6 14.8234 84.6933 14.5434 84.88C14.2634 85.0533 14.0167 85.2933 13.8034 85.6V92.08ZM22.3137 79.56V94H20.8737V79.56H22.3137ZM27.8304 83.4C28.8037 83.4 29.5437 83.6733 30.0504 84.22C30.5571 84.7667 30.8104 85.46 30.8104 86.3V92.28C30.8104 92.6267 30.8304 92.9667 30.8704 93.3C30.9104 93.62 30.9771 93.8533 31.0704 94H29.5704L29.3904 93.12C29.2437 93.2533 29.0771 93.3867 28.8904 93.52C28.7037 93.6533 28.5104 93.7733 28.3104 93.88C28.1104 93.9733 27.9104 94.0467 27.7104 94.1C27.5104 94.1667 27.3304 94.2 27.1704 94.2C26.3571 94.2 25.7037 93.96 25.2104 93.48C24.7171 93 24.4704 92.3467 24.4704 91.52C24.4704 90.52 24.8971 89.64 25.7504 88.88C26.6037 88.12 27.8104 87.56 29.3704 87.2V86.5C29.3704 85.9 29.2371 85.4333 28.9704 85.1C28.7037 84.7667 28.3371 84.6 27.8704 84.6C27.4037 84.6 27.0104 84.7867 26.6904 85.16C26.3837 85.52 26.1771 86.0133 26.0704 86.64L24.7504 86.44C24.9237 85.4533 25.2771 84.7 25.8104 84.18C26.3437 83.66 27.0171 83.4 27.8304 83.4ZM25.9104 91.4C25.9104 91.88 26.0237 92.2667 26.2504 92.56C26.4771 92.8533 26.8571 93 27.3904 93C28.0304 93 28.6904 92.64 29.3704 91.92V88.4C28.8771 88.5467 28.4171 88.7267 27.9904 88.94C27.5771 89.14 27.2104 89.3667 26.8904 89.62C26.5837 89.8733 26.3437 90.1533 26.1704 90.46C25.9971 90.7533 25.9104 91.0667 25.9104 91.4ZM37.2407 83.4C38.0274 83.4 38.6007 83.6333 38.9607 84.1C39.334 84.5667 39.5207 85.2133 39.5207 86.04V94H38.0807V86.24C38.0807 85.6933 37.9874 85.2867 37.8007 85.02C37.6274 84.74 37.3407 84.6 36.9407 84.6C36.5807 84.6 36.2407 84.7133 35.9207 84.94C35.6007 85.1533 35.2807 85.4667 34.9607 85.88V94H33.5207V83.6H34.8807V84.74C35.2807 84.3267 35.694 84 36.1207 83.76C36.5607 83.52 36.934 83.4 37.2407 83.4ZM43.651 80.12V83.6H45.571V84.8H43.651V92.12C43.651 92.3867 43.731 92.62 43.891 92.82C44.051 93.02 44.3177 93.12 44.691 93.12C44.811 93.12 44.9443 93.1067 45.091 93.08C45.2377 93.04 45.3977 92.9867 45.571 92.92V94C45.3177 94.0667 45.111 94.1133 44.951 94.14C44.8043 94.18 44.5643 94.2 44.231 94.2C43.5243 94.2 43.011 94.0267 42.691 93.68C42.371 93.3333 42.211 92.7867 42.211 92.04V84.8H40.811V83.6H42.211V80.12H43.651ZM51.5773 83.6L53.5373 91.56H53.5773L55.1773 83.6H56.6573L54.3173 93.58C53.9839 94.9933 53.5439 95.98 52.9973 96.54C52.4506 97.1133 51.7506 97.4 50.8973 97.4H50.2573V96.2H50.6173C51.1639 96.2 51.6239 96.0333 51.9973 95.7C52.3839 95.3667 52.6706 94.7733 52.8573 93.92L50.0973 83.6H51.5773ZM60.3005 83.4C61.4072 83.4 62.2139 83.8333 62.7205 84.7C63.2272 85.5667 63.4805 86.9333 63.4805 88.8C63.4805 90.6667 63.2272 92.0333 62.7205 92.9C62.2139 93.7667 61.4072 94.2 60.3005 94.2C59.1805 94.2 58.3672 93.7667 57.8605 92.9C57.3672 92.0333 57.1205 90.6667 57.1205 88.8C57.1205 86.9333 57.3672 85.5667 57.8605 84.7C58.3672 83.8333 59.1805 83.4 60.3005 83.4ZM58.5605 88.8C58.5605 89.5733 58.5872 90.2333 58.6405 90.78C58.6939 91.3133 58.7805 91.7467 58.9005 92.08C59.0339 92.4 59.2139 92.6333 59.4405 92.78C59.6672 92.9267 59.9539 93 60.3005 93C60.6072 93 60.8672 92.94 61.0805 92.82C61.3072 92.7 61.4872 92.48 61.6205 92.16C61.7672 91.84 61.8739 91.4133 61.9405 90.88C62.0072 90.3333 62.0405 89.64 62.0405 88.8C62.0405 87.9333 62.0072 87.2333 61.9405 86.7C61.8739 86.1533 61.7672 85.7267 61.6205 85.42C61.4872 85.1 61.3072 84.8867 61.0805 84.78C60.8539 84.66 60.5872 84.6 60.2805 84.6C59.9339 84.6 59.6472 84.6733 59.4205 84.82C59.2072 84.9667 59.0339 85.2067 58.9005 85.54C58.7805 85.8733 58.6939 86.3067 58.6405 86.84C58.5872 87.3733 58.5605 88.0267 58.5605 88.8ZM66.7771 83.6V91.36C66.7771 92.4533 67.1571 93 67.9171 93C68.2638 93 68.5971 92.8867 68.9171 92.66C69.2371 92.4333 69.5638 92.12 69.8971 91.72V83.6H71.3371V94H69.9771V92.86C69.5904 93.2467 69.1771 93.5667 68.7371 93.82C68.3104 94.0733 67.9171 94.2 67.5571 94.2C66.8104 94.2 66.2504 93.9733 65.8771 93.52C65.5171 93.0533 65.3371 92.4 65.3371 91.56V83.6H66.7771ZM77.9074 84.76C77.2541 84.76 76.7274 84.9067 76.3274 85.2C75.9274 85.48 75.5608 85.9467 75.2274 86.6V94H73.7874V83.6H75.2274V84.86H75.2674C75.4408 84.5933 75.6074 84.3733 75.7674 84.2C75.9408 84.0133 76.1274 83.86 76.3274 83.74C76.5274 83.62 76.7541 83.5333 77.0074 83.48C77.2608 83.4267 77.5608 83.4 77.9074 83.4V84.76ZM84.8737 80.12V83.6H86.7937V84.8H84.8737V92.12C84.8737 92.3867 84.9537 92.62 85.1137 92.82C85.2737 93.02 85.5403 93.12 85.9137 93.12C86.0337 93.12 86.167 93.1067 86.3137 93.08C86.4603 93.04 86.6203 92.9867 86.7937 92.92V94C86.5403 94.0667 86.3337 94.1133 86.1737 94.14C86.027 94.18 85.787 94.2 85.4537 94.2C84.747 94.2 84.2337 94.0267 83.9137 93.68C83.5937 93.3333 83.4337 92.7867 83.4337 92.04V84.8H82.0337V83.6H83.4337V80.12H84.8737ZM92.5832 84.76C91.9299 84.76 91.4032 84.9067 91.0032 85.2C90.6032 85.48 90.2365 85.9467 89.9032 86.6V94H88.4632V83.6H89.9032V84.86H89.9432C90.1165 84.5933 90.2832 84.3733 90.4432 84.2C90.6165 84.0133 90.8032 83.86 91.0032 83.74C91.2032 83.62 91.4299 83.5333 91.6832 83.48C91.9365 83.4267 92.2365 83.4 92.5832 83.4V84.76ZM96.2927 83.4C97.3194 83.4 98.1061 83.82 98.6527 84.66C99.1994 85.4867 99.4727 86.7867 99.4727 88.56V89.04H94.5527V89.48C94.5527 90.1333 94.5861 90.6867 94.6527 91.14C94.7194 91.5933 94.8261 91.96 94.9727 92.24C95.1194 92.5067 95.3194 92.7 95.5727 92.82C95.8261 92.94 96.1327 93 96.4927 93C97.3861 93 97.9661 92.3467 98.2327 91.04L99.5927 91.2C99.4461 92.08 99.0794 92.8 98.4927 93.36C97.9061 93.92 97.1727 94.2 96.2927 94.2C95.1727 94.2 94.3594 93.7667 93.8527 92.9C93.3594 92.0333 93.1127 90.6667 93.1127 88.8C93.1127 86.9333 93.3594 85.5667 93.8527 84.7C94.3594 83.8333 95.1727 83.4 96.2927 83.4ZM98.0327 87.84C98.0061 86.68 97.8661 85.8533 97.6127 85.36C97.3727 84.8533 96.9261 84.6 96.2727 84.6C95.6861 84.6 95.2527 84.86 94.9727 85.38C94.6927 85.8867 94.5527 86.7067 94.5527 87.84H98.0327ZM103.769 83.4C104.796 83.4 105.583 83.82 106.129 84.66C106.676 85.4867 106.949 86.7867 106.949 88.56V89.04H102.029V89.48C102.029 90.1333 102.063 90.6867 102.129 91.14C102.196 91.5933 102.303 91.96 102.449 92.24C102.596 92.5067 102.796 92.7 103.049 92.82C103.303 92.94 103.609 93 103.969 93C104.863 93 105.443 92.3467 105.709 91.04L107.069 91.2C106.923 92.08 106.556 92.8 105.969 93.36C105.383 93.92 104.649 94.2 103.769 94.2C102.649 94.2 101.836 93.7667 101.329 92.9C100.836 92.0333 100.589 90.6667 100.589 88.8C100.589 86.9333 100.836 85.5667 101.329 84.7C101.836 83.8333 102.649 83.4 103.769 83.4ZM105.509 87.84C105.483 86.68 105.343 85.8533 105.089 85.36C104.849 84.8533 104.403 84.6 103.749 84.6C103.163 84.6 102.729 84.86 102.449 85.38C102.169 85.8867 102.029 86.7067 102.029 87.84H105.509ZM114.503 79.56V84.36C115.143 83.72 115.783 83.4 116.423 83.4C117.383 83.4 118.123 83.86 118.643 84.78C119.163 85.6867 119.423 87.0267 119.423 88.8C119.423 90.5467 119.163 91.8867 118.643 92.82C118.136 93.74 117.396 94.2 116.423 94.2C115.956 94.2 115.543 94.0933 115.183 93.88C114.823 93.6667 114.516 93.3733 114.263 93L113.943 94H112.823C112.903 93.6667 112.963 93.2733 113.003 92.82C113.043 92.3533 113.063 91.8733 113.063 91.38V79.56H114.503ZM114.503 92C114.703 92.3067 114.949 92.5533 115.243 92.74C115.536 92.9133 115.803 93 116.043 93C116.696 93 117.183 92.6667 117.503 92C117.823 91.32 117.983 90.2533 117.983 88.8C117.983 87.3467 117.836 86.2867 117.543 85.62C117.249 84.94 116.756 84.6 116.063 84.6C115.809 84.6 115.563 84.6733 115.323 84.82C115.096 84.9533 114.823 85.1867 114.503 85.52V92ZM121.593 83.6L123.553 91.56H123.593L125.193 83.6H126.673L124.333 93.58C124 94.9933 123.56 95.98 123.013 96.54C122.466 97.1133 121.766 97.4 120.913 97.4H120.273V96.2H120.633C121.18 96.2 121.64 96.0333 122.013 95.7C122.4 95.3667 122.686 94.7733 122.873 93.92L120.113 83.6H121.593ZM135.493 83.4C136.453 83.4 137.193 83.86 137.713 84.78C138.233 85.6867 138.493 87.0267 138.493 88.8C138.493 90.5467 138.233 91.8867 137.713 92.82C137.206 93.74 136.466 94.2 135.493 94.2C135.173 94.2 134.853 94.1267 134.533 93.98C134.213 93.82 133.893 93.5733 133.573 93.24V97.4H132.133V83.6H133.333V84.6H133.373C133.613 84.2267 133.906 83.9333 134.253 83.72C134.613 83.5067 135.026 83.4 135.493 83.4ZM133.573 92.08C133.893 92.4133 134.173 92.6533 134.413 92.8C134.653 92.9333 134.9 93 135.153 93C135.806 93 136.286 92.6733 136.593 92.02C136.9 91.3533 137.053 90.28 137.053 88.8C137.053 87.36 136.893 86.3 136.573 85.62C136.266 84.94 135.773 84.6 135.093 84.6C134.853 84.6 134.593 84.6933 134.313 84.88C134.033 85.0533 133.786 85.2933 133.573 85.6V92.08ZM143.023 83.4C144.13 83.4 144.937 83.8333 145.443 84.7C145.95 85.5667 146.203 86.9333 146.203 88.8C146.203 90.6667 145.95 92.0333 145.443 92.9C144.937 93.7667 144.13 94.2 143.023 94.2C141.903 94.2 141.09 93.7667 140.583 92.9C140.09 92.0333 139.843 90.6667 139.843 88.8C139.843 86.9333 140.09 85.5667 140.583 84.7C141.09 83.8333 141.903 83.4 143.023 83.4ZM141.283 88.8C141.283 89.5733 141.31 90.2333 141.363 90.78C141.417 91.3133 141.503 91.7467 141.623 92.08C141.757 92.4 141.937 92.6333 142.163 92.78C142.39 92.9267 142.677 93 143.023 93C143.33 93 143.59 92.94 143.803 92.82C144.03 92.7 144.21 92.48 144.343 92.16C144.49 91.84 144.597 91.4133 144.663 90.88C144.73 90.3333 144.763 89.64 144.763 88.8C144.763 87.9333 144.73 87.2333 144.663 86.7C144.597 86.1533 144.49 85.7267 144.343 85.42C144.21 85.1 144.03 84.8867 143.803 84.78C143.577 84.66 143.31 84.6 143.003 84.6C142.657 84.6 142.37 84.6733 142.143 84.82C141.93 84.9667 141.757 85.2067 141.623 85.54C141.503 85.8733 141.417 86.3067 141.363 86.84C141.31 87.3733 141.283 88.0267 141.283 88.8ZM149.56 79.56V81.24H148.12V79.56H149.56ZM149.56 83.6V94H148.12V83.6H149.56ZM155.916 83.4C156.703 83.4 157.276 83.6333 157.636 84.1C158.01 84.5667 158.196 85.2133 158.196 86.04V94H156.756V86.24C156.756 85.6933 156.663 85.2867 156.476 85.02C156.303 84.74 156.016 84.6 155.616 84.6C155.256 84.6 154.916 84.7133 154.596 84.94C154.276 85.1533 153.956 85.4667 153.636 85.88V94H152.196V83.6H153.556V84.74C153.956 84.3267 154.37 84 154.796 83.76C155.236 83.52 155.61 83.4 155.916 83.4ZM162.327 80.12V83.6H164.247V84.8H162.327V92.12C162.327 92.3867 162.407 92.62 162.567 92.82C162.727 93.02 162.993 93.12 163.367 93.12C163.487 93.12 163.62 93.1067 163.767 93.08C163.913 93.04 164.073 92.9867 164.247 92.92V94C163.993 94.0667 163.787 94.1133 163.627 94.14C163.48 94.18 163.24 94.2 162.907 94.2C162.2 94.2 161.687 94.0267 161.367 93.68C161.047 93.3333 160.887 92.7867 160.887 92.04V84.8H159.487V83.6H160.887V80.12H162.327ZM167.536 79.56V81.24H166.096V79.56H167.536ZM167.536 83.6V94H166.096V83.6H167.536ZM173.893 83.4C174.68 83.4 175.253 83.6333 175.613 84.1C175.986 84.5667 176.173 85.2133 176.173 86.04V94H174.733V86.24C174.733 85.6933 174.64 85.2867 174.453 85.02C174.28 84.74 173.993 84.6 173.593 84.6C173.233 84.6 172.893 84.7133 172.573 84.94C172.253 85.1533 171.933 85.4667 171.613 85.88V94H170.173V83.6H171.533V84.74C171.933 84.3267 172.346 84 172.773 83.76C173.213 83.52 173.586 83.4 173.893 83.4ZM181.803 83.4C182.203 83.4 182.577 83.4867 182.923 83.66C183.27 83.82 183.53 84.0533 183.703 84.36C183.863 84.0667 184.083 83.8333 184.363 83.66C184.643 83.4867 185.01 83.4 185.463 83.4V84.72C185.357 84.6933 185.23 84.68 185.083 84.68C184.95 84.68 184.803 84.7 184.643 84.74C184.497 84.78 184.33 84.8933 184.143 85.08C184.263 85.4667 184.343 85.8 184.383 86.08C184.437 86.3467 184.463 86.68 184.463 87.08C184.463 88.2533 184.217 89.1667 183.723 89.82C183.243 90.4733 182.557 90.8 181.663 90.8C181.503 90.8 181.337 90.7867 181.163 90.76C181.003 90.7333 180.857 90.72 180.723 90.72C180.683 90.72 180.623 90.74 180.543 90.78C180.463 90.8067 180.377 90.8533 180.283 90.92C180.203 90.9733 180.13 91.04 180.063 91.12C180.01 91.2 179.983 91.2933 179.983 91.4C179.983 91.6667 180.13 91.8667 180.423 92C180.717 92.12 181.203 92.2333 181.883 92.34C183.123 92.5267 184.01 92.8267 184.543 93.24C185.077 93.6533 185.343 94.22 185.343 94.94C185.343 95.3133 185.25 95.6467 185.063 95.94C184.89 96.2467 184.643 96.5067 184.323 96.72C184.017 96.9333 183.65 97.1 183.223 97.22C182.797 97.34 182.33 97.4 181.823 97.4C180.65 97.4 179.763 97.2 179.163 96.8C178.563 96.4133 178.263 95.8667 178.263 95.16C178.263 94.6933 178.397 94.28 178.663 93.92C178.93 93.56 179.303 93.28 179.783 93.08C179.463 92.9733 179.197 92.8 178.983 92.56C178.77 92.32 178.663 92.0267 178.663 91.68C178.663 91.3467 178.777 91.06 179.003 90.82C179.23 90.5667 179.57 90.3933 180.023 90.3C179.837 90.18 179.663 90.02 179.503 89.82C179.357 89.6067 179.23 89.3667 179.123 89.1C179.017 88.8333 178.93 88.5467 178.863 88.24C178.81 87.9333 178.783 87.6267 178.783 87.32C178.783 86.1067 179.05 85.1533 179.583 84.46C180.13 83.7533 180.87 83.4 181.803 83.4ZM180.103 87.1C180.103 88.8467 180.61 89.72 181.623 89.72C182.117 89.72 182.49 89.4933 182.743 89.04C183.01 88.5867 183.143 87.94 183.143 87.1C183.143 86.26 183.017 85.6133 182.763 85.16C182.51 84.7067 182.123 84.48 181.603 84.48C181.137 84.48 180.77 84.6867 180.503 85.1C180.237 85.5133 180.103 86.18 180.103 87.1ZM179.583 94.86C179.583 95.2867 179.763 95.6333 180.123 95.9C180.497 96.18 181.077 96.32 181.863 96.32C183.303 96.32 184.023 95.8267 184.023 94.84C184.023 94.5867 183.91 94.38 183.683 94.22C183.47 94.0733 183.203 93.9533 182.883 93.86C182.577 93.7667 182.243 93.6933 181.883 93.64C181.537 93.5733 181.237 93.5067 180.983 93.44C180.57 93.6267 180.23 93.8333 179.963 94.06C179.71 94.2867 179.583 94.5533 179.583 94.86ZM191.53 83.6L193.49 91.56H193.53L195.13 83.6H196.61L194.27 93.58C193.937 94.9933 193.497 95.98 192.95 96.54C192.404 97.1133 191.704 97.4 190.85 97.4H190.21V96.2H190.57C191.117 96.2 191.577 96.0333 191.95 95.7C192.337 95.3667 192.624 94.7733 192.81 93.92L190.05 83.6H191.53ZM200.254 83.4C201.36 83.4 202.167 83.8333 202.674 84.7C203.18 85.5667 203.434 86.9333 203.434 88.8C203.434 90.6667 203.18 92.0333 202.674 92.9C202.167 93.7667 201.36 94.2 200.254 94.2C199.134 94.2 198.32 93.7667 197.814 92.9C197.32 92.0333 197.074 90.6667 197.074 88.8C197.074 86.9333 197.32 85.5667 197.814 84.7C198.32 83.8333 199.134 83.4 200.254 83.4ZM198.514 88.8C198.514 89.5733 198.54 90.2333 198.594 90.78C198.647 91.3133 198.734 91.7467 198.854 92.08C198.987 92.4 199.167 92.6333 199.394 92.78C199.62 92.9267 199.907 93 200.254 93C200.56 93 200.82 92.94 201.034 92.82C201.26 92.7 201.44 92.48 201.574 92.16C201.72 91.84 201.827 91.4133 201.894 90.88C201.96 90.3333 201.994 89.64 201.994 88.8C201.994 87.9333 201.96 87.2333 201.894 86.7C201.827 86.1533 201.72 85.7267 201.574 85.42C201.44 85.1 201.26 84.8867 201.034 84.78C200.807 84.66 200.54 84.6 200.234 84.6C199.887 84.6 199.6 84.6733 199.374 84.82C199.16 84.9667 198.987 85.2067 198.854 85.54C198.734 85.8733 198.647 86.3067 198.594 86.84C198.54 87.3733 198.514 88.0267 198.514 88.8ZM206.73 83.6V91.36C206.73 92.4533 207.11 93 207.87 93C208.217 93 208.55 92.8867 208.87 92.66C209.19 92.4333 209.517 92.12 209.85 91.72V83.6H211.29V94H209.93V92.86C209.544 93.2467 209.13 93.5667 208.69 93.82C208.264 94.0733 207.87 94.2 207.51 94.2C206.764 94.2 206.204 93.9733 205.83 93.52C205.47 93.0533 205.29 92.4 205.29 91.56V83.6H206.73ZM217.861 84.76C217.207 84.76 216.681 84.9067 216.281 85.2C215.881 85.48 215.514 85.9467 215.181 86.6V94H213.741V83.6H215.181V84.86H215.221C215.394 84.5933 215.561 84.3733 215.721 84.2C215.894 84.0133 216.081 83.86 216.281 83.74C216.481 83.62 216.707 83.5333 216.961 83.48C217.214 83.4267 217.514 83.4 217.861 83.4V84.76ZM225.707 83.4C226.573 83.4 227.253 83.6667 227.747 84.2C228.253 84.72 228.587 85.5467 228.747 86.68H227.347C227.293 86 227.133 85.4867 226.867 85.14C226.6 84.78 226.213 84.6 225.707 84.6C225.36 84.6 225.073 84.6733 224.847 84.82C224.62 84.9667 224.44 85.2067 224.307 85.54C224.187 85.86 224.1 86.2867 224.047 86.82C223.993 87.3533 223.967 88.0133 223.967 88.8C223.967 89.64 223.993 90.3333 224.047 90.88C224.113 91.4267 224.213 91.86 224.347 92.18C224.493 92.4867 224.673 92.7 224.887 92.82C225.113 92.94 225.387 93 225.707 93C226.267 93 226.66 92.8133 226.887 92.44C227.113 92.0533 227.28 91.48 227.387 90.72H228.787C228.64 91.8533 228.3 92.72 227.767 93.32C227.247 93.9067 226.56 94.2 225.707 94.2C224.587 94.2 223.773 93.7667 223.267 92.9C222.773 92.0333 222.527 90.6667 222.527 88.8C222.527 86.9333 222.773 85.5667 223.267 84.7C223.773 83.8333 224.587 83.4 225.707 83.4ZM233.623 83.4C234.597 83.4 235.337 83.6733 235.843 84.22C236.35 84.7667 236.603 85.46 236.603 86.3V92.28C236.603 92.6267 236.623 92.9667 236.663 93.3C236.703 93.62 236.77 93.8533 236.863 94H235.363L235.183 93.12C235.037 93.2533 234.87 93.3867 234.683 93.52C234.497 93.6533 234.303 93.7733 234.103 93.88C233.903 93.9733 233.703 94.0467 233.503 94.1C233.303 94.1667 233.123 94.2 232.963 94.2C232.15 94.2 231.497 93.96 231.003 93.48C230.51 93 230.263 92.3467 230.263 91.52C230.263 90.52 230.69 89.64 231.543 88.88C232.397 88.12 233.603 87.56 235.163 87.2V86.5C235.163 85.9 235.03 85.4333 234.763 85.1C234.497 84.7667 234.13 84.6 233.663 84.6C233.197 84.6 232.803 84.7867 232.483 85.16C232.177 85.52 231.97 86.0133 231.863 86.64L230.543 86.44C230.717 85.4533 231.07 84.7 231.603 84.18C232.137 83.66 232.81 83.4 233.623 83.4ZM231.703 91.4C231.703 91.88 231.817 92.2667 232.043 92.56C232.27 92.8533 232.65 93 233.183 93C233.823 93 234.483 92.64 235.163 91.92V88.4C234.67 88.5467 234.21 88.7267 233.783 88.94C233.37 89.14 233.003 89.3667 232.683 89.62C232.377 89.8733 232.137 90.1533 231.963 90.46C231.79 90.7533 231.703 91.0667 231.703 91.4ZM243.214 83.4C243.587 83.4 243.954 83.52 244.314 83.76C244.687 83.9867 244.94 84.3067 245.074 84.72C245.434 84.2933 245.82 83.9667 246.234 83.74C246.66 83.5133 247.08 83.4 247.494 83.4C248.2 83.4 248.727 83.6267 249.074 84.08C249.42 84.52 249.594 85.0733 249.594 85.74V94H248.154V85.94C248.154 85.4867 248.074 85.1533 247.914 84.94C247.767 84.7133 247.487 84.6 247.074 84.6C246.807 84.6 246.534 84.6667 246.254 84.8C245.987 84.9333 245.654 85.2267 245.254 85.68V94H243.814V85.94C243.814 85.5133 243.734 85.1867 243.574 84.96C243.414 84.72 243.114 84.6 242.674 84.6C242.38 84.6 242.094 84.68 241.814 84.84C241.534 84.9867 241.234 85.2667 240.914 85.68V94H239.474V83.6H240.794V84.74C241.167 84.2867 241.56 83.9533 241.974 83.74C242.387 83.5133 242.8 83.4 243.214 83.4ZM254.797 83.4C255.823 83.4 256.61 83.82 257.157 84.66C257.703 85.4867 257.977 86.7867 257.977 88.56V89.04H253.057V89.48C253.057 90.1333 253.09 90.6867 253.157 91.14C253.223 91.5933 253.33 91.96 253.477 92.24C253.623 92.5067 253.823 92.7 254.077 92.82C254.33 92.94 254.637 93 254.997 93C255.89 93 256.47 92.3467 256.737 91.04L258.097 91.2C257.95 92.08 257.583 92.8 256.997 93.36C256.41 93.92 255.677 94.2 254.797 94.2C253.677 94.2 252.863 93.7667 252.357 92.9C251.863 92.0333 251.617 90.6667 251.617 88.8C251.617 86.9333 251.863 85.5667 252.357 84.7C252.863 83.8333 253.677 83.4 254.797 83.4ZM256.537 87.84C256.51 86.68 256.37 85.8533 256.117 85.36C255.877 84.8533 255.43 84.6 254.777 84.6C254.19 84.6 253.757 84.86 253.477 85.38C253.197 85.8867 253.057 86.7067 253.057 87.84H256.537ZM263.833 84.76C263.18 84.76 262.653 84.9067 262.253 85.2C261.853 85.48 261.487 85.9467 261.153 86.6V94H259.713V83.6H261.153V84.86H261.193C261.367 84.5933 261.533 84.3733 261.693 84.2C261.867 84.0133 262.053 83.86 262.253 83.74C262.453 83.62 262.68 83.5333 262.933 83.48C263.187 83.4267 263.487 83.4 263.833 83.4V84.76ZM267.983 83.4C268.956 83.4 269.696 83.6733 270.203 84.22C270.709 84.7667 270.963 85.46 270.963 86.3V92.28C270.963 92.6267 270.983 92.9667 271.023 93.3C271.063 93.62 271.129 93.8533 271.223 94H269.723L269.543 93.12C269.396 93.2533 269.229 93.3867 269.043 93.52C268.856 93.6533 268.663 93.7733 268.463 93.88C268.263 93.9733 268.063 94.0467 267.863 94.1C267.663 94.1667 267.483 94.2 267.323 94.2C266.509 94.2 265.856 93.96 265.363 93.48C264.869 93 264.623 92.3467 264.623 91.52C264.623 90.52 265.049 89.64 265.903 88.88C266.756 88.12 267.963 87.56 269.523 87.2V86.5C269.523 85.9 269.389 85.4333 269.123 85.1C268.856 84.7667 268.489 84.6 268.023 84.6C267.556 84.6 267.163 84.7867 266.843 85.16C266.536 85.52 266.329 86.0133 266.223 86.64L264.903 86.44C265.076 85.4533 265.429 84.7 265.963 84.18C266.496 83.66 267.169 83.4 267.983 83.4ZM266.063 91.4C266.063 91.88 266.176 92.2667 266.403 92.56C266.629 92.8533 267.009 93 267.543 93C268.183 93 268.843 92.64 269.523 91.92V88.4C269.029 88.5467 268.569 88.7267 268.143 88.94C267.729 89.14 267.363 89.3667 267.043 89.62C266.736 89.8733 266.496 90.1533 266.323 90.46C266.149 90.7533 266.063 91.0667 266.063 91.4ZM280.69 83.4C281.663 83.4 282.403 83.6733 282.91 84.22C283.416 84.7667 283.67 85.46 283.67 86.3V92.28C283.67 92.6267 283.69 92.9667 283.73 93.3C283.77 93.62 283.836 93.8533 283.93 94H282.43L282.25 93.12C282.103 93.2533 281.936 93.3867 281.75 93.52C281.563 93.6533 281.37 93.7733 281.17 93.88C280.97 93.9733 280.77 94.0467 280.57 94.1C280.37 94.1667 280.19 94.2 280.03 94.2C279.216 94.2 278.563 93.96 278.07 93.48C277.576 93 277.33 92.3467 277.33 91.52C277.33 90.52 277.756 89.64 278.61 88.88C279.463 88.12 280.67 87.56 282.23 87.2V86.5C282.23 85.9 282.096 85.4333 281.83 85.1C281.563 84.7667 281.196 84.6 280.73 84.6C280.263 84.6 279.87 84.7867 279.55 85.16C279.243 85.52 279.036 86.0133 278.93 86.64L277.61 86.44C277.783 85.4533 278.136 84.7 278.67 84.18C279.203 83.66 279.876 83.4 280.69 83.4ZM278.77 91.4C278.77 91.88 278.883 92.2667 279.11 92.56C279.336 92.8533 279.716 93 280.25 93C280.89 93 281.55 92.64 282.23 91.92V88.4C281.736 88.5467 281.276 88.7267 280.85 88.94C280.436 89.14 280.07 89.3667 279.75 89.62C279.443 89.8733 279.203 90.1533 279.03 90.46C278.856 90.7533 278.77 91.0667 278.77 91.4ZM287.94 80.12V83.6H289.86V84.8H287.94V92.12C287.94 92.3867 288.02 92.62 288.18 92.82C288.34 93.02 288.607 93.12 288.98 93.12C289.1 93.12 289.233 93.1067 289.38 93.08C289.527 93.04 289.687 92.9867 289.86 92.92V94C289.607 94.0667 289.4 94.1133 289.24 94.14C289.093 94.18 288.853 94.2 288.52 94.2C287.813 94.2 287.3 94.0267 286.98 93.68C286.66 93.3333 286.5 92.7867 286.5 92.04V84.8H285.1V83.6H286.5V80.12H287.94ZM298.666 83.4C299.64 83.4 300.38 83.6733 300.886 84.22C301.393 84.7667 301.646 85.46 301.646 86.3V92.28C301.646 92.6267 301.666 92.9667 301.706 93.3C301.746 93.62 301.813 93.8533 301.906 94H300.406L300.226 93.12C300.08 93.2533 299.913 93.3867 299.726 93.52C299.54 93.6533 299.346 93.7733 299.146 93.88C298.946 93.9733 298.746 94.0467 298.546 94.1C298.346 94.1667 298.166 94.2 298.006 94.2C297.193 94.2 296.54 93.96 296.046 93.48C295.553 93 295.306 92.3467 295.306 91.52C295.306 90.52 295.733 89.64 296.586 88.88C297.44 88.12 298.646 87.56 300.206 87.2V86.5C300.206 85.9 300.073 85.4333 299.806 85.1C299.54 84.7667 299.173 84.6 298.706 84.6C298.24 84.6 297.846 84.7867 297.526 85.16C297.22 85.52 297.013 86.0133 296.906 86.64L295.586 86.44C295.76 85.4533 296.113 84.7 296.646 84.18C297.18 83.66 297.853 83.4 298.666 83.4ZM296.746 91.4C296.746 91.88 296.86 92.2667 297.086 92.56C297.313 92.8533 297.693 93 298.226 93C298.866 93 299.526 92.64 300.206 91.92V88.4C299.713 88.5467 299.253 88.7267 298.826 88.94C298.413 89.14 298.046 89.3667 297.726 89.62C297.42 89.8733 297.18 90.1533 297.006 90.46C296.833 90.7533 296.746 91.0667 296.746 91.4ZM38.1861 103.36C38.3728 103.36 38.5594 103.373 38.7461 103.4C38.9328 103.427 39.1194 103.453 39.3061 103.48V104.6C39.0528 104.493 38.7928 104.44 38.5261 104.44C38.1528 104.44 37.8861 104.547 37.7261 104.76C37.5794 104.973 37.5061 105.22 37.5061 105.5V107.6H39.1861V108.8H37.5061V118H36.0661V108.8H34.4661V107.6H36.0661V105.42C36.0661 104.74 36.2261 104.227 36.5461 103.88C36.8794 103.533 37.4261 103.36 38.1861 103.36ZM41.6861 103.56V118H40.2461V103.56H41.6861ZM46.9964 107.4C47.9697 107.4 48.7097 107.673 49.2164 108.22C49.7231 108.767 49.9764 109.46 49.9764 110.3V116.28C49.9764 116.627 49.9964 116.967 50.0364 117.3C50.0764 117.62 50.1431 117.853 50.2364 118H48.7364L48.5564 117.12C48.4097 117.253 48.2431 117.387 48.0564 117.52C47.8697 117.653 47.6764 117.773 47.4764 117.88C47.2764 117.973 47.0764 118.047 46.8764 118.1C46.6764 118.167 46.4964 118.2 46.3364 118.2C45.5231 118.2 44.8697 117.96 44.3764 117.48C43.8831 117 43.6364 116.347 43.6364 115.52C43.6364 114.52 44.0631 113.64 44.9164 112.88C45.7697 112.12 46.9764 111.56 48.5364 111.2V110.5C48.5364 109.9 48.4031 109.433 48.1364 109.1C47.8697 108.767 47.5031 108.6 47.0364 108.6C46.5697 108.6 46.1764 108.787 45.8564 109.16C45.5497 109.52 45.3431 110.013 45.2364 110.64L43.9164 110.44C44.0897 109.453 44.4431 108.7 44.9764 108.18C45.5097 107.66 46.1831 107.4 46.9964 107.4ZM45.0764 115.4C45.0764 115.88 45.1897 116.267 45.4164 116.56C45.6431 116.853 46.0231 117 46.5564 117C47.1964 117 47.8564 116.64 48.5364 115.92V112.4C48.0431 112.547 47.5831 112.727 47.1564 112.94C46.7431 113.14 46.3764 113.367 46.0564 113.62C45.7497 113.873 45.5097 114.153 45.3364 114.46C45.1631 114.753 45.0764 115.067 45.0764 115.4ZM54.2467 104.12V107.6H56.1667V108.8H54.2467V116.12C54.2467 116.387 54.3267 116.62 54.4867 116.82C54.6467 117.02 54.9134 117.12 55.2867 117.12C55.4067 117.12 55.5401 117.107 55.6867 117.08C55.8334 117.04 55.9934 116.987 56.1667 116.92V118C55.9134 118.067 55.7067 118.113 55.5467 118.14C55.4001 118.18 55.1601 118.2 54.8267 118.2C54.1201 118.2 53.6067 118.027 53.2867 117.68C52.9667 117.333 52.8067 116.787 52.8067 116.04V108.8H51.4067V107.6H52.8067V104.12H54.2467ZM64.433 107.4C65.233 107.4 65.873 107.62 66.353 108.06C66.833 108.487 67.1596 109.093 67.333 109.88L66.133 110.24C65.9596 109.613 65.7263 109.187 65.433 108.96C65.153 108.72 64.793 108.6 64.353 108.6C64.0063 108.6 63.7196 108.713 63.493 108.94C63.2796 109.167 63.173 109.467 63.173 109.84C63.173 110.24 63.3263 110.6 63.633 110.92C63.9396 111.24 64.3596 111.553 64.893 111.86C65.4796 112.207 65.9463 112.533 66.293 112.84C66.653 113.147 66.9263 113.44 67.113 113.72C67.2996 114 67.4196 114.273 67.473 114.54C67.5396 114.807 67.573 115.073 67.573 115.34C67.573 115.753 67.4996 116.14 67.353 116.5C67.2063 116.847 67.0063 117.147 66.753 117.4C66.4996 117.653 66.1996 117.853 65.853 118C65.5063 118.133 65.133 118.2 64.733 118.2C63.8663 118.2 63.1596 117.98 62.613 117.54C62.0796 117.1 61.6796 116.4 61.413 115.44L62.733 115.16C62.933 115.8 63.193 116.267 63.513 116.56C63.8463 116.853 64.2196 117 64.633 117C65.0196 117 65.3663 116.847 65.673 116.54C65.9796 116.22 66.133 115.847 66.133 115.42C66.133 115.087 66.0596 114.8 65.913 114.56C65.7663 114.32 65.5596 114.093 65.293 113.88C65.0396 113.653 64.733 113.427 64.373 113.2C64.013 112.973 63.6263 112.72 63.213 112.44C62.7863 112.147 62.433 111.793 62.153 111.38C61.873 110.967 61.733 110.48 61.733 109.92C61.733 109.573 61.7996 109.253 61.933 108.96C62.0663 108.653 62.253 108.387 62.493 108.16C62.733 107.92 63.013 107.733 63.333 107.6C63.6663 107.467 64.033 107.4 64.433 107.4ZM71.0095 107.6V115.36C71.0095 116.453 71.3895 117 72.1495 117C72.4962 117 72.8295 116.887 73.1495 116.66C73.4695 116.433 73.7962 116.12 74.1295 115.72V107.6H75.5695V118H74.2095V116.86C73.8229 117.247 73.4095 117.567 72.9695 117.82C72.5429 118.073 72.1495 118.2 71.7895 118.2C71.0429 118.2 70.4829 117.973 70.1095 117.52C69.7495 117.053 69.5695 116.4 69.5695 115.56V107.6H71.0095ZM82.1398 108.76C81.4865 108.76 80.9598 108.907 80.5598 109.2C80.1598 109.48 79.7932 109.947 79.4598 110.6V118H78.0198V107.6H79.4598V108.86H79.4998C79.6732 108.593 79.8398 108.373 79.9998 108.2C80.1732 108.013 80.3598 107.86 80.5598 107.74C80.7598 107.62 80.9865 107.533 81.2398 107.48C81.4932 107.427 81.7932 107.4 82.1398 107.4V108.76ZM86.0494 103.36C86.236 103.36 86.4227 103.373 86.6094 103.4C86.796 103.427 86.9827 103.453 87.1694 103.48V104.6C86.916 104.493 86.656 104.44 86.3894 104.44C86.016 104.44 85.7494 104.547 85.5894 104.76C85.4427 104.973 85.3694 105.22 85.3694 105.5V107.6H87.0494V108.8H85.3694V118H83.9294V108.8H82.3294V107.6H83.9294V105.42C83.9294 104.74 84.0894 104.227 84.4094 103.88C84.7427 103.533 85.2894 103.36 86.0494 103.36ZM91.5589 107.4C92.5322 107.4 93.2722 107.673 93.7789 108.22C94.2856 108.767 94.5389 109.46 94.5389 110.3V116.28C94.5389 116.627 94.5589 116.967 94.5989 117.3C94.6389 117.62 94.7056 117.853 94.7989 118H93.2989L93.1189 117.12C92.9722 117.253 92.8056 117.387 92.6189 117.52C92.4322 117.653 92.2389 117.773 92.0389 117.88C91.8389 117.973 91.6389 118.047 91.4389 118.1C91.2389 118.167 91.0589 118.2 90.8989 118.2C90.0856 118.2 89.4322 117.96 88.9389 117.48C88.4456 117 88.1989 116.347 88.1989 115.52C88.1989 114.52 88.6256 113.64 89.4789 112.88C90.3322 112.12 91.5389 111.56 93.0989 111.2V110.5C93.0989 109.9 92.9656 109.433 92.6989 109.1C92.4322 108.767 92.0656 108.6 91.5989 108.6C91.1322 108.6 90.7389 108.787 90.4189 109.16C90.1122 109.52 89.9056 110.013 89.7989 110.64L88.4789 110.44C88.6522 109.453 89.0056 108.7 89.5389 108.18C90.0722 107.66 90.7456 107.4 91.5589 107.4ZM89.6389 115.4C89.6389 115.88 89.7522 116.267 89.9789 116.56C90.2056 116.853 90.5856 117 91.1189 117C91.7589 117 92.4189 116.64 93.0989 115.92V112.4C92.6056 112.547 92.1456 112.727 91.7189 112.94C91.3056 113.14 90.9389 113.367 90.6189 113.62C90.3122 113.873 90.0722 114.153 89.8989 114.46C89.7256 114.753 89.6389 115.067 89.6389 115.4ZM99.6892 107.4C100.556 107.4 101.236 107.667 101.729 108.2C102.236 108.72 102.569 109.547 102.729 110.68H101.329C101.276 110 101.116 109.487 100.849 109.14C100.583 108.78 100.196 108.6 99.6892 108.6C99.3426 108.6 99.0559 108.673 98.8292 108.82C98.6026 108.967 98.4226 109.207 98.2892 109.54C98.1692 109.86 98.0826 110.287 98.0292 110.82C97.9759 111.353 97.9492 112.013 97.9492 112.8C97.9492 113.64 97.9759 114.333 98.0292 114.88C98.0959 115.427 98.1959 115.86 98.3292 116.18C98.4759 116.487 98.6559 116.7 98.8692 116.82C99.0959 116.94 99.3692 117 99.6892 117C100.249 117 100.643 116.813 100.869 116.44C101.096 116.053 101.263 115.48 101.369 114.72H102.769C102.623 115.853 102.283 116.72 101.749 117.32C101.229 117.907 100.543 118.2 99.6892 118.2C98.5692 118.2 97.7559 117.767 97.2492 116.9C96.7559 116.033 96.5092 114.667 96.5092 112.8C96.5092 110.933 96.7559 109.567 97.2492 108.7C97.7559 107.833 98.5692 107.4 99.6892 107.4ZM107.166 107.4C108.192 107.4 108.979 107.82 109.526 108.66C110.072 109.487 110.346 110.787 110.346 112.56V113.04H105.426V113.48C105.426 114.133 105.459 114.687 105.526 115.14C105.592 115.593 105.699 115.96 105.846 116.24C105.992 116.507 106.192 116.7 106.446 116.82C106.699 116.94 107.006 117 107.366 117C108.259 117 108.839 116.347 109.106 115.04L110.466 115.2C110.319 116.08 109.952 116.8 109.366 117.36C108.779 117.92 108.046 118.2 107.166 118.2C106.046 118.2 105.232 117.767 104.726 116.9C104.232 116.033 103.986 114.667 103.986 112.8C103.986 110.933 104.232 109.567 104.726 108.7C105.232 107.833 106.046 107.4 107.166 107.4ZM108.906 111.84C108.879 110.68 108.739 109.853 108.486 109.36C108.246 108.853 107.799 108.6 107.146 108.6C106.559 108.6 106.126 108.86 105.846 109.38C105.566 109.887 105.426 110.707 105.426 111.84H108.906ZM119.219 107.4C120.192 107.4 120.932 107.673 121.439 108.22C121.946 108.767 122.199 109.46 122.199 110.3V116.28C122.199 116.627 122.219 116.967 122.259 117.3C122.299 117.62 122.366 117.853 122.459 118H120.959L120.779 117.12C120.632 117.253 120.466 117.387 120.279 117.52C120.092 117.653 119.899 117.773 119.699 117.88C119.499 117.973 119.299 118.047 119.099 118.1C118.899 118.167 118.719 118.2 118.559 118.2C117.746 118.2 117.092 117.96 116.599 117.48C116.106 117 115.859 116.347 115.859 115.52C115.859 114.52 116.286 113.64 117.139 112.88C117.992 112.12 119.199 111.56 120.759 111.2V110.5C120.759 109.9 120.626 109.433 120.359 109.1C120.092 108.767 119.726 108.6 119.259 108.6C118.792 108.6 118.399 108.787 118.079 109.16C117.772 109.52 117.566 110.013 117.459 110.64L116.139 110.44C116.312 109.453 116.666 108.7 117.199 108.18C117.732 107.66 118.406 107.4 119.219 107.4ZM117.299 115.4C117.299 115.88 117.412 116.267 117.639 116.56C117.866 116.853 118.246 117 118.779 117C119.419 117 120.079 116.64 120.759 115.92V112.4C120.266 112.547 119.806 112.727 119.379 112.94C118.966 113.14 118.599 113.367 118.279 113.62C117.972 113.873 117.732 114.153 117.559 114.46C117.386 114.753 117.299 115.067 117.299 115.4ZM128.629 107.4C129.416 107.4 129.989 107.633 130.349 108.1C130.723 108.567 130.909 109.213 130.909 110.04V118H129.469V110.24C129.469 109.693 129.376 109.287 129.189 109.02C129.016 108.74 128.729 108.6 128.329 108.6C127.969 108.6 127.629 108.713 127.309 108.94C126.989 109.153 126.669 109.467 126.349 109.88V118H124.909V107.6H126.269V108.74C126.669 108.327 127.083 108 127.509 107.76C127.949 107.52 128.323 107.4 128.629 107.4ZM139.36 103.56V115.38C139.36 115.873 139.373 116.347 139.4 116.8C139.44 117.253 139.506 117.653 139.6 118H138.24L138.18 117H138.14C137.873 117.387 137.56 117.687 137.2 117.9C136.853 118.1 136.453 118.2 136 118.2C135.013 118.2 134.266 117.747 133.76 116.84C133.253 115.92 133 114.573 133 112.8C133 111.013 133.26 109.667 133.78 108.76C134.3 107.853 135.04 107.4 136 107.4C136.64 107.4 137.28 107.72 137.92 108.36V103.56H139.36ZM134.44 112.8C134.44 114.24 134.586 115.3 134.88 115.98C135.186 116.66 135.686 117 136.38 117C136.62 117 136.88 116.913 137.16 116.74C137.44 116.553 137.693 116.307 137.92 116V109.52C137.6 109.187 137.313 108.953 137.06 108.82C136.82 108.673 136.58 108.6 136.34 108.6C135.633 108.6 135.14 108.947 134.86 109.64C134.58 110.333 134.44 111.387 134.44 112.8ZM147.747 104.12V107.6H149.667V108.8H147.747V116.12C147.747 116.387 147.827 116.62 147.987 116.82C148.147 117.02 148.413 117.12 148.787 117.12C148.907 117.12 149.04 117.107 149.187 117.08C149.333 117.04 149.493 116.987 149.667 116.92V118C149.413 118.067 149.207 118.113 149.047 118.14C148.9 118.18 148.66 118.2 148.327 118.2C147.62 118.2 147.107 118.027 146.787 117.68C146.467 117.333 146.307 116.787 146.307 116.04V108.8H144.907V107.6H146.307V104.12H147.747ZM154.336 107.4C155.31 107.4 156.05 107.673 156.556 108.22C157.063 108.767 157.316 109.46 157.316 110.3V116.28C157.316 116.627 157.336 116.967 157.376 117.3C157.416 117.62 157.483 117.853 157.576 118H156.076L155.896 117.12C155.75 117.253 155.583 117.387 155.396 117.52C155.21 117.653 155.016 117.773 154.816 117.88C154.616 117.973 154.416 118.047 154.216 118.1C154.016 118.167 153.836 118.2 153.676 118.2C152.863 118.2 152.21 117.96 151.716 117.48C151.223 117 150.976 116.347 150.976 115.52C150.976 114.52 151.403 113.64 152.256 112.88C153.11 112.12 154.316 111.56 155.876 111.2V110.5C155.876 109.9 155.743 109.433 155.476 109.1C155.21 108.767 154.843 108.6 154.376 108.6C153.91 108.6 153.516 108.787 153.196 109.16C152.89 109.52 152.683 110.013 152.576 110.64L151.256 110.44C151.43 109.453 151.783 108.7 152.316 108.18C152.85 107.66 153.523 107.4 154.336 107.4ZM152.416 115.4C152.416 115.88 152.53 116.267 152.756 116.56C152.983 116.853 153.363 117 153.896 117C154.536 117 155.196 116.64 155.876 115.92V112.4C155.383 112.547 154.923 112.727 154.496 112.94C154.083 113.14 153.716 113.367 153.396 113.62C153.09 113.873 152.85 114.153 152.676 114.46C152.503 114.753 152.416 115.067 152.416 115.4ZM163.507 107.4C164.467 107.4 165.207 107.86 165.727 108.78C166.247 109.687 166.507 111.027 166.507 112.8C166.507 114.547 166.247 115.887 165.727 116.82C165.22 117.74 164.48 118.2 163.507 118.2C163.187 118.2 162.867 118.127 162.547 117.98C162.227 117.82 161.907 117.573 161.587 117.24V121.4H160.147V107.6H161.347V108.6H161.387C161.627 108.227 161.92 107.933 162.267 107.72C162.627 107.507 163.04 107.4 163.507 107.4ZM161.587 116.08C161.907 116.413 162.187 116.653 162.427 116.8C162.667 116.933 162.913 117 163.167 117C163.82 117 164.3 116.673 164.607 116.02C164.913 115.353 165.067 114.28 165.067 112.8C165.067 111.36 164.907 110.3 164.587 109.62C164.28 108.94 163.787 108.6 163.107 108.6C162.867 108.6 162.607 108.693 162.327 108.88C162.047 109.053 161.8 109.293 161.587 109.6V116.08ZM172.077 107.4C173.037 107.4 173.777 107.86 174.297 108.78C174.817 109.687 175.077 111.027 175.077 112.8C175.077 114.547 174.817 115.887 174.297 116.82C173.79 117.74 173.05 118.2 172.077 118.2C171.757 118.2 171.437 118.127 171.117 117.98C170.797 117.82 170.477 117.573 170.157 117.24V121.4H168.717V107.6H169.917V108.6H169.957C170.197 108.227 170.49 107.933 170.837 107.72C171.197 107.507 171.61 107.4 172.077 107.4ZM170.157 116.08C170.477 116.413 170.757 116.653 170.997 116.8C171.237 116.933 171.484 117 171.737 117C172.39 117 172.87 116.673 173.177 116.02C173.484 115.353 173.637 114.28 173.637 112.8C173.637 111.36 173.477 110.3 173.157 109.62C172.85 108.94 172.357 108.6 171.677 108.6C171.437 108.6 171.177 108.693 170.897 108.88C170.617 109.053 170.37 109.293 170.157 109.6V116.08ZM178.667 103.56V105.24H177.227V103.56H178.667ZM178.667 107.6V118H177.227V107.6H178.667ZM185.024 107.4C185.811 107.4 186.384 107.633 186.744 108.1C187.117 108.567 187.304 109.213 187.304 110.04V118H185.864V110.24C185.864 109.693 185.771 109.287 185.584 109.02C185.411 108.74 185.124 108.6 184.724 108.6C184.364 108.6 184.024 108.713 183.704 108.94C183.384 109.153 183.064 109.467 182.744 109.88V118H181.304V107.6H182.664V108.74C183.064 108.327 183.477 108 183.904 107.76C184.344 107.52 184.717 107.4 185.024 107.4ZM192.934 107.4C193.334 107.4 193.708 107.487 194.054 107.66C194.401 107.82 194.661 108.053 194.834 108.36C194.994 108.067 195.214 107.833 195.494 107.66C195.774 107.487 196.141 107.4 196.594 107.4V108.72C196.488 108.693 196.361 108.68 196.214 108.68C196.081 108.68 195.934 108.7 195.774 108.74C195.628 108.78 195.461 108.893 195.274 109.08C195.394 109.467 195.474 109.8 195.514 110.08C195.568 110.347 195.594 110.68 195.594 111.08C195.594 112.253 195.348 113.167 194.854 113.82C194.374 114.473 193.688 114.8 192.794 114.8C192.634 114.8 192.468 114.787 192.294 114.76C192.134 114.733 191.988 114.72 191.854 114.72C191.814 114.72 191.754 114.74 191.674 114.78C191.594 114.807 191.508 114.853 191.414 114.92C191.334 114.973 191.261 115.04 191.194 115.12C191.141 115.2 191.114 115.293 191.114 115.4C191.114 115.667 191.261 115.867 191.554 116C191.848 116.12 192.334 116.233 193.014 116.34C194.254 116.527 195.141 116.827 195.674 117.24C196.208 117.653 196.474 118.22 196.474 118.94C196.474 119.313 196.381 119.647 196.194 119.94C196.021 120.247 195.774 120.507 195.454 120.72C195.148 120.933 194.781 121.1 194.354 121.22C193.928 121.34 193.461 121.4 192.954 121.4C191.781 121.4 190.894 121.2 190.294 120.8C189.694 120.413 189.394 119.867 189.394 119.16C189.394 118.693 189.528 118.28 189.794 117.92C190.061 117.56 190.434 117.28 190.914 117.08C190.594 116.973 190.328 116.8 190.114 116.56C189.901 116.32 189.794 116.027 189.794 115.68C189.794 115.347 189.908 115.06 190.134 114.82C190.361 114.567 190.701 114.393 191.154 114.3C190.968 114.18 190.794 114.02 190.634 113.82C190.488 113.607 190.361 113.367 190.254 113.1C190.148 112.833 190.061 112.547 189.994 112.24C189.941 111.933 189.914 111.627 189.914 111.32C189.914 110.107 190.181 109.153 190.714 108.46C191.261 107.753 192.001 107.4 192.934 107.4ZM191.234 111.1C191.234 112.847 191.741 113.72 192.754 113.72C193.248 113.72 193.621 113.493 193.874 113.04C194.141 112.587 194.274 111.94 194.274 111.1C194.274 110.26 194.148 109.613 193.894 109.16C193.641 108.707 193.254 108.48 192.734 108.48C192.268 108.48 191.901 108.687 191.634 109.1C191.368 109.513 191.234 110.18 191.234 111.1ZM190.714 118.86C190.714 119.287 190.894 119.633 191.254 119.9C191.628 120.18 192.208 120.32 192.994 120.32C194.434 120.32 195.154 119.827 195.154 118.84C195.154 118.587 195.041 118.38 194.814 118.22C194.601 118.073 194.334 117.953 194.014 117.86C193.708 117.767 193.374 117.693 193.014 117.64C192.668 117.573 192.368 117.507 192.114 117.44C191.701 117.627 191.361 117.833 191.094 118.06C190.841 118.287 190.714 118.553 190.714 118.86ZM204.141 104.12V107.6H206.061V108.8H204.141V116.12C204.141 116.387 204.221 116.62 204.381 116.82C204.541 117.02 204.808 117.12 205.181 117.12C205.301 117.12 205.435 117.107 205.581 117.08C205.728 117.04 205.888 116.987 206.061 116.92V118C205.808 118.067 205.601 118.113 205.441 118.14C205.295 118.18 205.055 118.2 204.721 118.2C204.015 118.2 203.501 118.027 203.181 117.68C202.861 117.333 202.701 116.787 202.701 116.04V108.8H201.301V107.6H202.701V104.12H204.141ZM209.291 103.56V108.74C209.637 108.353 210.024 108.033 210.451 107.78C210.877 107.527 211.277 107.4 211.651 107.4C212.397 107.4 212.951 107.633 213.311 108.1C213.671 108.567 213.851 109.213 213.851 110.04V118H212.411V110.3C212.411 109.713 212.317 109.287 212.131 109.02C211.957 108.74 211.671 108.6 211.271 108.6C210.911 108.6 210.571 108.713 210.251 108.94C209.931 109.153 209.611 109.467 209.291 109.88V118H207.851V103.56H209.291ZM218.861 107.4C219.888 107.4 220.674 107.82 221.221 108.66C221.768 109.487 222.041 110.787 222.041 112.56V113.04H217.121V113.48C217.121 114.133 217.154 114.687 217.221 115.14C217.288 115.593 217.394 115.96 217.541 116.24C217.688 116.507 217.888 116.7 218.141 116.82C218.394 116.94 218.701 117 219.061 117C219.954 117 220.534 116.347 220.801 115.04L222.161 115.2C222.014 116.08 221.648 116.8 221.061 117.36C220.474 117.92 219.741 118.2 218.861 118.2C217.741 118.2 216.928 117.767 216.421 116.9C215.928 116.033 215.681 114.667 215.681 112.8C215.681 110.933 215.928 109.567 216.421 108.7C216.928 107.833 217.741 107.4 218.861 107.4ZM220.601 111.84C220.574 110.68 220.434 109.853 220.181 109.36C219.941 108.853 219.494 108.6 218.841 108.6C218.254 108.6 217.821 108.86 217.541 109.38C217.261 109.887 217.121 110.707 217.121 111.84H220.601ZM230.374 107.4C231.174 107.4 231.814 107.62 232.294 108.06C232.774 108.487 233.101 109.093 233.274 109.88L232.074 110.24C231.901 109.613 231.668 109.187 231.374 108.96C231.094 108.72 230.734 108.6 230.294 108.6C229.948 108.6 229.661 108.713 229.434 108.94C229.221 109.167 229.114 109.467 229.114 109.84C229.114 110.24 229.268 110.6 229.574 110.92C229.881 111.24 230.301 111.553 230.834 111.86C231.421 112.207 231.888 112.533 232.234 112.84C232.594 113.147 232.868 113.44 233.054 113.72C233.241 114 233.361 114.273 233.414 114.54C233.481 114.807 233.514 115.073 233.514 115.34C233.514 115.753 233.441 116.14 233.294 116.5C233.148 116.847 232.948 117.147 232.694 117.4C232.441 117.653 232.141 117.853 231.794 118C231.448 118.133 231.074 118.2 230.674 118.2C229.808 118.2 229.101 117.98 228.554 117.54C228.021 117.1 227.621 116.4 227.354 115.44L228.674 115.16C228.874 115.8 229.134 116.267 229.454 116.56C229.788 116.853 230.161 117 230.574 117C230.961 117 231.308 116.847 231.614 116.54C231.921 116.22 232.074 115.847 232.074 115.42C232.074 115.087 232.001 114.8 231.854 114.56C231.708 114.32 231.501 114.093 231.234 113.88C230.981 113.653 230.674 113.427 230.314 113.2C229.954 112.973 229.568 112.72 229.154 112.44C228.728 112.147 228.374 111.793 228.094 111.38C227.814 110.967 227.674 110.48 227.674 109.92C227.674 109.573 227.741 109.253 227.874 108.96C228.008 108.653 228.194 108.387 228.434 108.16C228.674 107.92 228.954 107.733 229.274 107.6C229.608 107.467 229.974 107.4 230.374 107.4ZM237.951 107.4C238.818 107.4 239.498 107.667 239.991 108.2C240.498 108.72 240.831 109.547 240.991 110.68H239.591C239.538 110 239.378 109.487 239.111 109.14C238.844 108.78 238.458 108.6 237.951 108.6C237.604 108.6 237.318 108.673 237.091 108.82C236.864 108.967 236.684 109.207 236.551 109.54C236.431 109.86 236.344 110.287 236.291 110.82C236.238 111.353 236.211 112.013 236.211 112.8C236.211 113.64 236.238 114.333 236.291 114.88C236.358 115.427 236.458 115.86 236.591 116.18C236.738 116.487 236.918 116.7 237.131 116.82C237.358 116.94 237.631 117 237.951 117C238.511 117 238.904 116.813 239.131 116.44C239.358 116.053 239.524 115.48 239.631 114.72H241.031C240.884 115.853 240.544 116.72 240.011 117.32C239.491 117.907 238.804 118.2 237.951 118.2C236.831 118.2 236.018 117.767 235.511 116.9C235.018 116.033 234.771 114.667 234.771 112.8C234.771 110.933 235.018 109.567 235.511 108.7C236.018 107.833 236.831 107.4 237.951 107.4ZM246.988 108.76C246.334 108.76 245.808 108.907 245.408 109.2C245.008 109.48 244.641 109.947 244.308 110.6V118H242.868V107.6H244.308V108.86H244.348C244.521 108.593 244.688 108.373 244.848 108.2C245.021 108.013 245.208 107.86 245.408 107.74C245.608 107.62 245.834 107.533 246.088 107.48C246.341 107.427 246.641 107.4 246.988 107.4V108.76ZM250.697 107.4C251.724 107.4 252.51 107.82 253.057 108.66C253.604 109.487 253.877 110.787 253.877 112.56V113.04H248.957V113.48C248.957 114.133 248.99 114.687 249.057 115.14C249.124 115.593 249.23 115.96 249.377 116.24C249.524 116.507 249.724 116.7 249.977 116.82C250.23 116.94 250.537 117 250.897 117C251.79 117 252.37 116.347 252.637 115.04L253.997 115.2C253.85 116.08 253.484 116.8 252.897 117.36C252.31 117.92 251.577 118.2 250.697 118.2C249.577 118.2 248.764 117.767 248.257 116.9C247.764 116.033 247.517 114.667 247.517 112.8C247.517 110.933 247.764 109.567 248.257 108.7C248.764 107.833 249.577 107.4 250.697 107.4ZM252.437 111.84C252.41 110.68 252.27 109.853 252.017 109.36C251.777 108.853 251.33 108.6 250.677 108.6C250.09 108.6 249.657 108.86 249.377 109.38C249.097 109.887 248.957 110.707 248.957 111.84H252.437ZM258.174 107.4C259.2 107.4 259.987 107.82 260.534 108.66C261.08 109.487 261.354 110.787 261.354 112.56V113.04H256.434V113.48C256.434 114.133 256.467 114.687 256.534 115.14C256.6 115.593 256.707 115.96 256.854 116.24C257 116.507 257.2 116.7 257.454 116.82C257.707 116.94 258.014 117 258.374 117C259.267 117 259.847 116.347 260.114 115.04L261.474 115.2C261.327 116.08 260.96 116.8 260.374 117.36C259.787 117.92 259.054 118.2 258.174 118.2C257.054 118.2 256.24 117.767 255.734 116.9C255.24 116.033 254.994 114.667 254.994 112.8C254.994 110.933 255.24 109.567 255.734 108.7C256.24 107.833 257.054 107.4 258.174 107.4ZM259.914 111.84C259.887 110.68 259.747 109.853 259.494 109.36C259.254 108.853 258.807 108.6 258.154 108.6C257.567 108.6 257.134 108.86 256.854 109.38C256.574 109.887 256.434 110.707 256.434 111.84H259.914ZM266.93 107.4C267.717 107.4 268.29 107.633 268.65 108.1C269.023 108.567 269.21 109.213 269.21 110.04V118H267.77V110.24C267.77 109.693 267.677 109.287 267.49 109.02C267.317 108.74 267.03 108.6 266.63 108.6C266.27 108.6 265.93 108.713 265.61 108.94C265.29 109.153 264.97 109.467 264.65 109.88V118H263.21V107.6H264.57V108.74C264.97 108.327 265.383 108 265.81 107.76C266.25 107.52 266.623 107.4 266.93 107.4ZM273.4 116.12V118H271.72V116.12H273.4Z" fill="#402020"/>
</svg>
