<svg width="313" height="164" viewBox="0 0 313 164" fill="none" xmlns="http://www.w3.org/2000/svg">
<path d="M77.1405 8.15V4.79C77.1605 4.17 76.8605 3.86 76.2405 3.86H75.4005C74.7405 3.86 74.4305 4.18 74.4705 4.82V9.17C74.4705 9.57 74.5505 9.84 74.7105 9.98C74.8705 10.1 75.0805 10.23 75.3405 10.37L78.9405 12.53C79.4605 12.85 79.7905 13.17 79.9305 13.49C80.0705 13.79 80.1405 14.28 80.1405 14.96V19.37C80.1405 21.79 78.9805 23 76.6605 23H74.8905C72.5905 23 71.4405 21.68 71.4405 19.04V17.39H74.3205V19.7C74.3205 20.3 74.6105 20.6 75.1905 20.6H76.4205C77.0005 20.6 77.2805 20.3 77.2605 19.7V15.32C77.2605 14.92 77.1905 14.66 77.0505 14.54C76.9305 14.4 76.7605 14.27 76.5405 14.15L72.9105 11.87C72.5705 11.65 72.3105 11.45 72.1305 11.27C71.9705 11.07 71.8405 10.88 71.7405 10.7C71.6605 10.5 71.6105 10.29 71.5905 10.07C71.5905 9.85 71.5905 9.6 71.5905 9.32V5.15C71.5905 2.69 72.7405 1.46 75.0405 1.46H76.5705C78.8705 1.46 80.0205 2.69 80.0205 5.15V8.15H77.1405ZM90.2744 23V13.61H86.9744V23H84.0944V1.46H86.9744V11.21H90.2744V1.46H93.1544V23H90.2744ZM100.002 23H97.1221V5.15C97.1221 2.69 98.2721 1.46 100.572 1.46H102.732C105.032 1.46 106.182 2.69 106.182 5.15V23H103.302V15.11H100.002V23ZM103.302 12.5V5.33C103.302 4.49 102.882 4.07 102.042 4.07H101.262C100.422 4.07 100.002 4.49 100.002 5.33V12.5H103.302ZM116.338 23L114.448 14.3H112.708V23H109.828V1.46H115.468C117.668 1.46 118.768 2.69 118.768 5.15V10.46C118.768 12.32 118.198 13.51 117.058 14.03L119.068 23H116.338ZM112.708 11.84H114.598C115.458 11.84 115.888 11.32 115.888 10.28V5.63C115.888 4.59 115.458 4.07 114.598 4.07H112.708V11.84ZM122.719 23V1.46H129.079V3.86H125.599V11.21H129.079V13.61H125.599V20.6H129.079V23H122.719ZM142.988 10.82L144.938 1.46H147.788L144.308 15.08V23H141.428V15.08L137.888 1.46H140.738L142.898 10.82H142.988ZM154.336 23C152.016 23 150.856 21.78 150.856 19.34V5.15C150.856 2.69 152.006 1.46 154.306 1.46H156.766C159.066 1.46 160.216 2.69 160.216 5.15V19.34C160.216 21.78 159.056 23 156.736 23H154.336ZM156.346 20.6C157.006 20.6 157.336 20.23 157.336 19.49V4.97C157.336 4.23 156.956 3.86 156.196 3.86H154.846C154.106 3.86 153.736 4.23 153.736 4.97V19.49C153.736 20.23 154.116 20.6 154.876 20.6H156.346ZM173.387 1.46V18.92C173.387 21.64 172.017 23 169.277 23H168.407C165.687 23 164.327 21.63 164.327 18.89V1.46H167.207V18.98C167.207 19.44 167.297 19.79 167.477 20.03C167.677 20.27 168.007 20.39 168.467 20.39H169.187C170.067 20.39 170.507 19.92 170.507 18.98V1.46H173.387ZM183.715 23L181.825 14.3H180.085V23H177.205V1.46H182.845C185.045 1.46 186.145 2.69 186.145 5.15V10.46C186.145 12.32 185.575 13.51 184.435 14.03L186.445 23H183.715ZM180.085 11.84H181.975C182.835 11.84 183.265 11.32 183.265 10.28V5.63C183.265 4.59 182.835 4.07 181.975 4.07H180.085V11.84ZM200.891 3.86V23H198.011V3.86H195.251V1.46H203.651V3.86H200.891ZM212.935 23L211.045 14.3H209.305V23H206.425V1.46H212.065C214.265 1.46 215.365 2.69 215.365 5.15V10.46C215.365 12.32 214.795 13.51 213.655 14.03L215.665 23H212.935ZM209.305 11.84H211.195C212.055 11.84 212.485 11.32 212.485 10.28V5.63C212.485 4.59 212.055 4.07 211.195 4.07H209.305V11.84ZM219.317 23V1.46H225.677V3.86H222.197V11.21H225.677V13.61H222.197V20.6H225.677V23H219.317ZM229.331 23V1.46H235.691V3.86H232.211V11.21H235.691V13.61H232.211V20.6H235.691V23H229.331Z" fill="#7E213B"/>
<path d="M19.586 55.36C20.6793 55.36 21.5527 55.7467 22.206 56.52C22.8593 57.2933 23.2593 58.4533 23.406 60H21.846C21.7527 58.84 21.5193 58 21.146 57.48C20.786 56.9467 20.266 56.68 19.586 56.68C18.6527 56.68 17.986 57.16 17.586 58.12C17.1993 59.0667 17.006 60.62 17.006 62.78C17.006 63.8733 17.0527 64.8067 17.146 65.58C17.2393 66.34 17.386 66.9667 17.586 67.46C17.7993 67.9533 18.066 68.3133 18.386 68.54C18.7193 68.7667 19.1193 68.88 19.586 68.88C20.3327 68.88 20.8927 68.68 21.266 68.28C21.6527 67.88 21.846 67.34 21.846 66.66V64.56H19.886V63.24H23.406V70H22.406L22.206 68.92C21.886 69.3333 21.5127 69.6533 21.086 69.88C20.6727 70.0933 20.1727 70.2 19.586 70.2C18.1593 70.2 17.1127 69.5933 16.446 68.38C15.7793 67.1667 15.446 65.3 15.446 62.78C15.446 60.26 15.7793 58.3933 16.446 57.18C17.126 55.9667 18.1727 55.36 19.586 55.36ZM29.1091 59.4C30.1358 59.4 30.9225 59.82 31.4691 60.66C32.0158 61.4867 32.2891 62.7867 32.2891 64.56V65.04H27.3691V65.48C27.3691 66.1333 27.4025 66.6867 27.4691 67.14C27.5358 67.5933 27.6425 67.96 27.7891 68.24C27.9358 68.5067 28.1358 68.7 28.3891 68.82C28.6425 68.94 28.9491 69 29.3091 69C30.2025 69 30.7825 68.3467 31.0491 67.04L32.4091 67.2C32.2625 68.08 31.8958 68.8 31.3091 69.36C30.7225 69.92 29.9891 70.2 29.1091 70.2C27.9891 70.2 27.1758 69.7667 26.6691 68.9C26.1758 68.0333 25.9291 66.6667 25.9291 64.8C25.9291 62.9333 26.1758 61.5667 26.6691 60.7C27.1758 59.8333 27.9891 59.4 29.1091 59.4ZM30.8491 63.84C30.8225 62.68 30.6825 61.8533 30.4291 61.36C30.1891 60.8533 29.7425 60.6 29.0891 60.6C28.5025 60.6 28.0691 60.86 27.7891 61.38C27.5091 61.8867 27.3691 62.7067 27.3691 63.84H30.8491ZM36.7057 56.12V59.6H38.6257V60.8H36.7057V68.12C36.7057 68.3867 36.7857 68.62 36.9457 68.82C37.1057 69.02 37.3724 69.12 37.7457 69.12C37.8657 69.12 37.999 69.1067 38.1457 69.08C38.2924 69.04 38.4524 68.9867 38.6257 68.92V70C38.3724 70.0667 38.1657 70.1133 38.0057 70.14C37.859 70.18 37.619 70.2 37.2857 70.2C36.579 70.2 36.0657 70.0267 35.7457 69.68C35.4257 69.3333 35.2657 68.7867 35.2657 68.04V60.8H33.8657V59.6H35.2657V56.12H36.7057ZM48.992 59.4C50.0986 59.4 50.9053 59.8333 51.412 60.7C51.9186 61.5667 52.172 62.9333 52.172 64.8C52.172 66.6667 51.9186 68.0333 51.412 68.9C50.9053 69.7667 50.0986 70.2 48.992 70.2C47.872 70.2 47.0586 69.7667 46.552 68.9C46.0586 68.0333 45.812 66.6667 45.812 64.8C45.812 62.9333 46.0586 61.5667 46.552 60.7C47.0586 59.8333 47.872 59.4 48.992 59.4ZM47.252 64.8C47.252 65.5733 47.2786 66.2333 47.332 66.78C47.3853 67.3133 47.472 67.7467 47.592 68.08C47.7253 68.4 47.9053 68.6333 48.132 68.78C48.3586 68.9267 48.6453 69 48.992 69C49.2986 69 49.5586 68.94 49.772 68.82C49.9986 68.7 50.1786 68.48 50.312 68.16C50.4586 67.84 50.5653 67.4133 50.632 66.88C50.6986 66.3333 50.732 65.64 50.732 64.8C50.732 63.9333 50.6986 63.2333 50.632 62.7C50.5653 62.1533 50.4586 61.7267 50.312 61.42C50.1786 61.1 49.9986 60.8867 49.772 60.78C49.5453 60.66 49.2786 60.6 48.972 60.6C48.6253 60.6 48.3386 60.6733 48.112 60.82C47.8986 60.9667 47.7253 61.2067 47.592 61.54C47.472 61.8733 47.3853 62.3067 47.332 62.84C47.2786 63.3733 47.252 64.0267 47.252 64.8ZM56.5885 56.12V59.6H58.5085V60.8H56.5885V68.12C56.5885 68.3867 56.6685 68.62 56.8285 68.82C56.9885 69.02 57.2552 69.12 57.6285 69.12C57.7485 69.12 57.8818 69.1067 58.0285 69.08C58.1752 69.04 58.3352 68.9867 58.5085 68.92V70C58.2552 70.0667 58.0485 70.1133 57.8885 70.14C57.7418 70.18 57.5018 70.2 57.1685 70.2C56.4618 70.2 55.9485 70.0267 55.6285 69.68C55.3085 69.3333 55.1485 68.7867 55.1485 68.04V60.8H53.7485V59.6H55.1485V56.12H56.5885ZM62.738 55.56V60.74C63.0847 60.3533 63.4714 60.0333 63.898 59.78C64.3247 59.5267 64.7247 59.4 65.098 59.4C65.8447 59.4 66.398 59.6333 66.758 60.1C67.118 60.5667 67.298 61.2133 67.298 62.04V70H65.858V62.3C65.858 61.7133 65.7647 61.2867 65.578 61.02C65.4047 60.74 65.118 60.6 64.718 60.6C64.358 60.6 64.018 60.7133 63.698 60.94C63.378 61.1533 63.058 61.4667 62.738 61.88V70H61.298V55.56H62.738ZM73.3084 59.4C74.335 59.4 75.1217 59.82 75.6684 60.66C76.215 61.4867 76.4884 62.7867 76.4884 64.56V65.04H71.5684V65.48C71.5684 66.1333 71.6017 66.6867 71.6684 67.14C71.735 67.5933 71.8417 67.96 71.9884 68.24C72.135 68.5067 72.335 68.7 72.5884 68.82C72.8417 68.94 73.1484 69 73.5084 69C74.4017 69 74.9817 68.3467 75.2484 67.04L76.6084 67.2C76.4617 68.08 76.095 68.8 75.5084 69.36C74.9217 69.92 74.1884 70.2 73.3084 70.2C72.1884 70.2 71.375 69.7667 70.8684 68.9C70.375 68.0333 70.1284 66.6667 70.1284 64.8C70.1284 62.9333 70.375 61.5667 70.8684 60.7C71.375 59.8333 72.1884 59.4 73.3084 59.4ZM75.0484 63.84C75.0217 62.68 74.8817 61.8533 74.6284 61.36C74.3884 60.8533 73.9417 60.6 73.2884 60.6C72.7017 60.6 72.2684 60.86 71.9884 61.38C71.7084 61.8867 71.5684 62.7067 71.5684 63.84H75.0484ZM83.3449 60.76C82.6916 60.76 82.1649 60.9067 81.7649 61.2C81.3649 61.48 80.9983 61.9467 80.6649 62.6V70H79.2249V59.6H80.6649V60.86H80.7049C80.8783 60.5933 81.0449 60.3733 81.2049 60.2C81.3783 60.0133 81.5649 59.86 81.7649 59.74C81.9649 59.62 82.1916 59.5333 82.4449 59.48C82.6983 59.4267 82.9983 59.4 83.3449 59.4V60.76ZM87.9545 59.4C88.7545 59.4 89.3945 59.62 89.8745 60.06C90.3545 60.4867 90.6811 61.0933 90.8545 61.88L89.6545 62.24C89.4811 61.6133 89.2478 61.1867 88.9545 60.96C88.6745 60.72 88.3145 60.6 87.8745 60.6C87.5278 60.6 87.2411 60.7133 87.0145 60.94C86.8011 61.1667 86.6945 61.4667 86.6945 61.84C86.6945 62.24 86.8478 62.6 87.1545 62.92C87.4611 63.24 87.8811 63.5533 88.4145 63.86C89.0011 64.2067 89.4678 64.5333 89.8145 64.84C90.1745 65.1467 90.4478 65.44 90.6345 65.72C90.8211 66 90.9411 66.2733 90.9945 66.54C91.0611 66.8067 91.0945 67.0733 91.0945 67.34C91.0945 67.7533 91.0211 68.14 90.8745 68.5C90.7278 68.8467 90.5278 69.1467 90.2745 69.4C90.0211 69.6533 89.7211 69.8533 89.3745 70C89.0278 70.1333 88.6545 70.2 88.2545 70.2C87.3878 70.2 86.6811 69.98 86.1345 69.54C85.6011 69.1 85.2011 68.4 84.9345 67.44L86.2545 67.16C86.4545 67.8 86.7145 68.2667 87.0345 68.56C87.3678 68.8533 87.7411 69 88.1545 69C88.5411 69 88.8878 68.8467 89.1945 68.54C89.5011 68.22 89.6545 67.8467 89.6545 67.42C89.6545 67.0867 89.5811 66.8 89.4345 66.56C89.2878 66.32 89.0811 66.0933 88.8145 65.88C88.5611 65.6533 88.2545 65.4267 87.8945 65.2C87.5345 64.9733 87.1478 64.72 86.7345 64.44C86.3078 64.1467 85.9545 63.7933 85.6745 63.38C85.3945 62.9667 85.2545 62.48 85.2545 61.92C85.2545 61.5733 85.3211 61.2533 85.4545 60.96C85.5878 60.6533 85.7745 60.3867 86.0145 60.16C86.2545 59.92 86.5345 59.7333 86.8545 59.6C87.1878 59.4667 87.5545 59.4 87.9545 59.4ZM100.728 55.56V57.24H99.2877V55.56H100.728ZM100.728 59.6V70H99.2877V59.6H100.728ZM108.084 59.4C108.871 59.4 109.444 59.6333 109.804 60.1C110.178 60.5667 110.364 61.2133 110.364 62.04V70H108.924V62.24C108.924 61.6933 108.831 61.2867 108.644 61.02C108.471 60.74 108.184 60.6 107.784 60.6C107.424 60.6 107.084 60.7133 106.764 60.94C106.444 61.1533 106.124 61.4667 105.804 61.88V70H104.364V59.6H105.724V60.74C106.124 60.3267 106.538 60 106.964 59.76C107.404 59.52 107.778 59.4 108.084 59.4ZM121.511 59.4C122.618 59.4 123.425 59.8333 123.931 60.7C124.438 61.5667 124.691 62.9333 124.691 64.8C124.691 66.6667 124.438 68.0333 123.931 68.9C123.425 69.7667 122.618 70.2 121.511 70.2C120.391 70.2 119.578 69.7667 119.071 68.9C118.578 68.0333 118.331 66.6667 118.331 64.8C118.331 62.9333 118.578 61.5667 119.071 60.7C119.578 59.8333 120.391 59.4 121.511 59.4ZM119.771 64.8C119.771 65.5733 119.798 66.2333 119.851 66.78C119.905 67.3133 119.991 67.7467 120.111 68.08C120.245 68.4 120.425 68.6333 120.651 68.78C120.878 68.9267 121.165 69 121.511 69C121.818 69 122.078 68.94 122.291 68.82C122.518 68.7 122.698 68.48 122.831 68.16C122.978 67.84 123.085 67.4133 123.151 66.88C123.218 66.3333 123.251 65.64 123.251 64.8C123.251 63.9333 123.218 63.2333 123.151 62.7C123.085 62.1533 122.978 61.7267 122.831 61.42C122.698 61.1 122.518 60.8867 122.291 60.78C122.065 60.66 121.798 60.6 121.491 60.6C121.145 60.6 120.858 60.6733 120.631 60.82C120.418 60.9667 120.245 61.2067 120.111 61.54C119.991 61.8733 119.905 62.3067 119.851 62.84C119.798 63.3733 119.771 64.0267 119.771 64.8ZM131.268 59.4C132.055 59.4 132.628 59.6333 132.988 60.1C133.361 60.5667 133.548 61.2133 133.548 62.04V70H132.108V62.24C132.108 61.6933 132.015 61.2867 131.828 61.02C131.655 60.74 131.368 60.6 130.968 60.6C130.608 60.6 130.268 60.7133 129.948 60.94C129.628 61.1533 129.308 61.4667 128.988 61.88V70H127.548V59.6H128.908V60.74C129.308 60.3267 129.721 60 130.148 59.76C130.588 59.52 130.961 59.4 131.268 59.4ZM143.815 56.12V59.6H145.735V60.8H143.815V68.12C143.815 68.3867 143.895 68.62 144.055 68.82C144.215 69.02 144.482 69.12 144.855 69.12C144.975 69.12 145.108 69.1067 145.255 69.08C145.402 69.04 145.562 68.9867 145.735 68.92V70C145.482 70.0667 145.275 70.1133 145.115 70.14C144.968 70.18 144.728 70.2 144.395 70.2C143.688 70.2 143.175 70.0267 142.855 69.68C142.535 69.3333 142.375 68.7867 142.375 68.04V60.8H140.975V59.6H142.375V56.12H143.815ZM149.965 55.56V60.74C150.311 60.3533 150.698 60.0333 151.125 59.78C151.551 59.5267 151.951 59.4 152.325 59.4C153.071 59.4 153.625 59.6333 153.985 60.1C154.345 60.5667 154.525 61.2133 154.525 62.04V70H153.085V62.3C153.085 61.7133 152.991 61.2867 152.805 61.02C152.631 60.74 152.345 60.6 151.945 60.6C151.585 60.6 151.245 60.7133 150.925 60.94C150.605 61.1533 150.285 61.4667 149.965 61.88V70H148.525V55.56H149.965ZM160.535 59.4C161.562 59.4 162.348 59.82 162.895 60.66C163.442 61.4867 163.715 62.7867 163.715 64.56V65.04H158.795V65.48C158.795 66.1333 158.828 66.6867 158.895 67.14C158.962 67.5933 159.068 67.96 159.215 68.24C159.362 68.5067 159.562 68.7 159.815 68.82C160.068 68.94 160.375 69 160.735 69C161.628 69 162.208 68.3467 162.475 67.04L163.835 67.2C163.688 68.08 163.322 68.8 162.735 69.36C162.148 69.92 161.415 70.2 160.535 70.2C159.415 70.2 158.602 69.7667 158.095 68.9C157.602 68.0333 157.355 66.6667 157.355 64.8C157.355 62.9333 157.602 61.5667 158.095 60.7C158.602 59.8333 159.415 59.4 160.535 59.4ZM162.275 63.84C162.248 62.68 162.108 61.8533 161.855 61.36C161.615 60.8533 161.168 60.6 160.515 60.6C159.928 60.6 159.495 60.86 159.215 61.38C158.935 61.8867 158.795 62.7067 158.795 63.84H162.275ZM174.148 59.4C175.015 59.4 175.695 59.6667 176.188 60.2C176.695 60.72 177.028 61.5467 177.188 62.68H175.788C175.735 62 175.575 61.4867 175.308 61.14C175.042 60.78 174.655 60.6 174.148 60.6C173.802 60.6 173.515 60.6733 173.288 60.82C173.062 60.9667 172.882 61.2067 172.748 61.54C172.628 61.86 172.542 62.2867 172.488 62.82C172.435 63.3533 172.408 64.0133 172.408 64.8C172.408 65.64 172.435 66.3333 172.488 66.88C172.555 67.4267 172.655 67.86 172.788 68.18C172.935 68.4867 173.115 68.7 173.328 68.82C173.555 68.94 173.828 69 174.148 69C174.708 69 175.102 68.8133 175.328 68.44C175.555 68.0533 175.722 67.48 175.828 66.72H177.228C177.082 67.8533 176.742 68.72 176.208 69.32C175.688 69.9067 175.002 70.2 174.148 70.2C173.028 70.2 172.215 69.7667 171.708 68.9C171.215 68.0333 170.968 66.6667 170.968 64.8C170.968 62.9333 171.215 61.5667 171.708 60.7C172.215 59.8333 173.028 59.4 174.148 59.4ZM182.625 59.4C183.731 59.4 184.538 59.8333 185.045 60.7C185.551 61.5667 185.805 62.9333 185.805 64.8C185.805 66.6667 185.551 68.0333 185.045 68.9C184.538 69.7667 183.731 70.2 182.625 70.2C181.505 70.2 180.691 69.7667 180.185 68.9C179.691 68.0333 179.445 66.6667 179.445 64.8C179.445 62.9333 179.691 61.5667 180.185 60.7C180.691 59.8333 181.505 59.4 182.625 59.4ZM180.885 64.8C180.885 65.5733 180.911 66.2333 180.965 66.78C181.018 67.3133 181.105 67.7467 181.225 68.08C181.358 68.4 181.538 68.6333 181.765 68.78C181.991 68.9267 182.278 69 182.625 69C182.931 69 183.191 68.94 183.405 68.82C183.631 68.7 183.811 68.48 183.945 68.16C184.091 67.84 184.198 67.4133 184.265 66.88C184.331 66.3333 184.365 65.64 184.365 64.8C184.365 63.9333 184.331 63.2333 184.265 62.7C184.198 62.1533 184.091 61.7267 183.945 61.42C183.811 61.1 183.631 60.8867 183.405 60.78C183.178 60.66 182.911 60.6 182.605 60.6C182.258 60.6 181.971 60.6733 181.745 60.82C181.531 60.9667 181.358 61.2067 181.225 61.54C181.105 61.8733 181.018 62.3067 180.965 62.84C180.911 63.3733 180.885 64.0267 180.885 64.8ZM192.561 59.4C192.935 59.4 193.301 59.52 193.661 59.76C194.035 59.9867 194.288 60.3067 194.421 60.72C194.781 60.2933 195.168 59.9667 195.581 59.74C196.008 59.5133 196.428 59.4 196.841 59.4C197.548 59.4 198.075 59.6267 198.421 60.08C198.768 60.52 198.941 61.0733 198.941 61.74V70H197.501V61.94C197.501 61.4867 197.421 61.1533 197.261 60.94C197.115 60.7133 196.835 60.6 196.421 60.6C196.155 60.6 195.881 60.6667 195.601 60.8C195.335 60.9333 195.001 61.2267 194.601 61.68V70H193.161V61.94C193.161 61.5133 193.081 61.1867 192.921 60.96C192.761 60.72 192.461 60.6 192.021 60.6C191.728 60.6 191.441 60.68 191.161 60.84C190.881 60.9867 190.581 61.2667 190.261 61.68V70H188.821V59.6H190.141V60.74C190.515 60.2867 190.908 59.9533 191.321 59.74C191.735 59.5133 192.148 59.4 192.561 59.4ZM206.184 59.4C207.144 59.4 207.884 59.86 208.404 60.78C208.924 61.6867 209.184 63.0267 209.184 64.8C209.184 66.5467 208.924 67.8867 208.404 68.82C207.898 69.74 207.158 70.2 206.184 70.2C205.864 70.2 205.544 70.1267 205.224 69.98C204.904 69.82 204.584 69.5733 204.264 69.24V73.4H202.824V59.6H204.024V60.6H204.064C204.304 60.2267 204.598 59.9333 204.944 59.72C205.304 59.5067 205.718 59.4 206.184 59.4ZM204.264 68.08C204.584 68.4133 204.864 68.6533 205.104 68.8C205.344 68.9333 205.591 69 205.844 69C206.498 69 206.978 68.6733 207.284 68.02C207.591 67.3533 207.744 66.28 207.744 64.8C207.744 63.36 207.584 62.3 207.264 61.62C206.958 60.94 206.464 60.6 205.784 60.6C205.544 60.6 205.284 60.6933 205.004 60.88C204.724 61.0533 204.478 61.2933 204.264 61.6V68.08ZM214.715 59.4C215.741 59.4 216.528 59.82 217.075 60.66C217.621 61.4867 217.895 62.7867 217.895 64.56V65.04H212.975V65.48C212.975 66.1333 213.008 66.6867 213.075 67.14C213.141 67.5933 213.248 67.96 213.395 68.24C213.541 68.5067 213.741 68.7 213.995 68.82C214.248 68.94 214.555 69 214.915 69C215.808 69 216.388 68.3467 216.655 67.04L218.015 67.2C217.868 68.08 217.501 68.8 216.915 69.36C216.328 69.92 215.595 70.2 214.715 70.2C213.595 70.2 212.781 69.7667 212.275 68.9C211.781 68.0333 211.535 66.6667 211.535 64.8C211.535 62.9333 211.781 61.5667 212.275 60.7C212.781 59.8333 213.595 59.4 214.715 59.4ZM216.455 63.84C216.428 62.68 216.288 61.8533 216.035 61.36C215.795 60.8533 215.348 60.6 214.695 60.6C214.108 60.6 213.675 60.86 213.395 61.38C213.115 61.8867 212.975 62.7067 212.975 63.84H216.455ZM222.311 56.12V59.6H224.231V60.8H222.311V68.12C222.311 68.3867 222.391 68.62 222.551 68.82C222.711 69.02 222.978 69.12 223.351 69.12C223.471 69.12 223.605 69.1067 223.751 69.08C223.898 69.04 224.058 68.9867 224.231 68.92V70C223.978 70.0667 223.771 70.1133 223.611 70.14C223.465 70.18 223.225 70.2 222.891 70.2C222.185 70.2 221.671 70.0267 221.351 69.68C221.031 69.3333 220.871 68.7867 220.871 68.04V60.8H219.471V59.6H220.871V56.12H222.311ZM228.521 55.56V57.24H227.081V55.56H228.521ZM228.521 59.6V70H227.081V59.6H228.521ZM233.717 56.12V59.6H235.637V60.8H233.717V68.12C233.717 68.3867 233.797 68.62 233.957 68.82C234.117 69.02 234.384 69.12 234.757 69.12C234.877 69.12 235.011 69.1067 235.157 69.08C235.304 69.04 235.464 68.9867 235.637 68.92V70C235.384 70.0667 235.177 70.1133 235.017 70.14C234.871 70.18 234.631 70.2 234.297 70.2C233.591 70.2 233.077 70.0267 232.757 69.68C232.437 69.3333 232.277 68.7867 232.277 68.04V60.8H230.877V59.6H232.277V56.12H233.717ZM239.927 55.56V57.24H238.487V55.56H239.927ZM239.927 59.6V70H238.487V59.6H239.927ZM246.004 59.4C247.11 59.4 247.917 59.8333 248.424 60.7C248.93 61.5667 249.184 62.9333 249.184 64.8C249.184 66.6667 248.93 68.0333 248.424 68.9C247.917 69.7667 247.11 70.2 246.004 70.2C244.884 70.2 244.07 69.7667 243.564 68.9C243.07 68.0333 242.824 66.6667 242.824 64.8C242.824 62.9333 243.07 61.5667 243.564 60.7C244.07 59.8333 244.884 59.4 246.004 59.4ZM244.264 64.8C244.264 65.5733 244.29 66.2333 244.344 66.78C244.397 67.3133 244.484 67.7467 244.604 68.08C244.737 68.4 244.917 68.6333 245.144 68.78C245.37 68.9267 245.657 69 246.004 69C246.31 69 246.57 68.94 246.784 68.82C247.01 68.7 247.19 68.48 247.324 68.16C247.47 67.84 247.577 67.4133 247.644 66.88C247.71 66.3333 247.744 65.64 247.744 64.8C247.744 63.9333 247.71 63.2333 247.644 62.7C247.577 62.1533 247.47 61.7267 247.324 61.42C247.19 61.1 247.01 60.8867 246.784 60.78C246.557 60.66 246.29 60.6 245.984 60.6C245.637 60.6 245.35 60.6733 245.124 60.82C244.91 60.9667 244.737 61.2067 244.604 61.54C244.484 61.8733 244.397 62.3067 244.344 62.84C244.29 63.3733 244.264 64.0267 244.264 64.8ZM255.76 59.4C256.547 59.4 257.12 59.6333 257.48 60.1C257.854 60.5667 258.04 61.2133 258.04 62.04V70H256.6V62.24C256.6 61.6933 256.507 61.2867 256.32 61.02C256.147 60.74 255.86 60.6 255.46 60.6C255.1 60.6 254.76 60.7133 254.44 60.94C254.12 61.1533 253.8 61.4667 253.48 61.88V70H252.04V59.6H253.4V60.74C253.8 60.3267 254.214 60 254.64 59.76C255.08 59.52 255.454 59.4 255.76 59.4ZM264.331 55.56L264.011 65.72H262.971L262.651 55.56H264.331ZM264.331 68.12V70H262.651V68.12H264.331ZM280.291 55.56V56.88H277.331V70H275.771V56.88H272.811V55.56H280.291ZM284.373 59.4C285.347 59.4 286.087 59.6733 286.593 60.22C287.1 60.7667 287.353 61.46 287.353 62.3V68.28C287.353 68.6267 287.373 68.9667 287.413 69.3C287.453 69.62 287.52 69.8533 287.613 70H286.113L285.933 69.12C285.787 69.2533 285.62 69.3867 285.433 69.52C285.247 69.6533 285.053 69.7733 284.853 69.88C284.653 69.9733 284.453 70.0467 284.253 70.1C284.053 70.1667 283.873 70.2 283.713 70.2C282.9 70.2 282.247 69.96 281.753 69.48C281.26 69 281.013 68.3467 281.013 67.52C281.013 66.52 281.44 65.64 282.293 64.88C283.147 64.12 284.353 63.56 285.913 63.2V62.5C285.913 61.9 285.78 61.4333 285.513 61.1C285.247 60.7667 284.88 60.6 284.413 60.6C283.947 60.6 283.553 60.7867 283.233 61.16C282.927 61.52 282.72 62.0133 282.613 62.64L281.293 62.44C281.467 61.4533 281.82 60.7 282.353 60.18C282.887 59.66 283.56 59.4 284.373 59.4ZM282.453 67.4C282.453 67.88 282.567 68.2667 282.793 68.56C283.02 68.8533 283.4 69 283.933 69C284.573 69 285.233 68.64 285.913 67.92V64.4C285.42 64.5467 284.96 64.7267 284.533 64.94C284.12 65.14 283.753 65.3667 283.433 65.62C283.127 65.8733 282.887 66.1533 282.713 66.46C282.54 66.7533 282.453 67.0667 282.453 67.4ZM294.544 59.4C295.504 59.4 296.244 59.86 296.764 60.78C297.284 61.6867 297.544 63.0267 297.544 64.8C297.544 66.5467 297.284 67.8867 296.764 68.82C296.257 69.74 295.517 70.2 294.544 70.2C294.224 70.2 293.904 70.1267 293.584 69.98C293.264 69.82 292.944 69.5733 292.624 69.24V73.4H291.184V59.6H292.384V60.6H292.424C292.664 60.2267 292.957 59.9333 293.304 59.72C293.664 59.5067 294.077 59.4 294.544 59.4ZM292.624 68.08C292.944 68.4133 293.224 68.6533 293.464 68.8C293.704 68.9333 293.95 69 294.204 69C294.857 69 295.337 68.6733 295.644 68.02C295.95 67.3533 296.104 66.28 296.104 64.8C296.104 63.36 295.944 62.3 295.624 61.62C295.317 60.94 294.824 60.6 294.144 60.6C293.904 60.6 293.644 60.6933 293.364 60.88C293.084 61.0533 292.837 61.2933 292.624 61.6V68.08ZM16.0709 79.12V82.6H17.9909V83.8H16.0709V91.12C16.0709 91.3867 16.1509 91.62 16.3109 91.82C16.4709 92.02 16.7376 92.12 17.1109 92.12C17.2309 92.12 17.3643 92.1067 17.5109 92.08C17.6576 92.04 17.8176 91.9867 17.9909 91.92V93C17.7376 93.0667 17.5309 93.1133 17.3709 93.14C17.2243 93.18 16.9843 93.2 16.6509 93.2C15.9443 93.2 15.4309 93.0267 15.1109 92.68C14.7909 92.3333 14.6309 91.7867 14.6309 91.04V83.8H13.2309V82.6H14.6309V79.12H16.0709ZM22.2205 78.56V83.74C22.5671 83.3533 22.9538 83.0333 23.3805 82.78C23.8071 82.5267 24.2071 82.4 24.5805 82.4C25.3271 82.4 25.8805 82.6333 26.2405 83.1C26.6005 83.5667 26.7805 84.2133 26.7805 85.04V93H25.3405V85.3C25.3405 84.7133 25.2471 84.2867 25.0605 84.02C24.8871 83.74 24.6005 83.6 24.2005 83.6C23.8405 83.6 23.5005 83.7133 23.1805 83.94C22.8605 84.1533 22.5405 84.4667 22.2205 84.88V93H20.7805V78.56H22.2205ZM32.7908 82.4C33.8174 82.4 34.6041 82.82 35.1508 83.66C35.6974 84.4867 35.9708 85.7867 35.9708 87.56V88.04H31.0508V88.48C31.0508 89.1333 31.0841 89.6867 31.1508 90.14C31.2174 90.5933 31.3241 90.96 31.4708 91.24C31.6174 91.5067 31.8174 91.7 32.0708 91.82C32.3241 91.94 32.6308 92 32.9908 92C33.8841 92 34.4641 91.3467 34.7308 90.04L36.0908 90.2C35.9441 91.08 35.5774 91.8 34.9908 92.36C34.4041 92.92 33.6708 93.2 32.7908 93.2C31.6708 93.2 30.8574 92.7667 30.3508 91.9C29.8574 91.0333 29.6108 89.6667 29.6108 87.8C29.6108 85.9333 29.8574 84.5667 30.3508 83.7C30.8574 82.8333 31.6708 82.4 32.7908 82.4ZM34.5308 86.84C34.5041 85.68 34.3641 84.8533 34.1108 84.36C33.8708 83.8533 33.4241 83.6 32.7708 83.6C32.1841 83.6 31.7508 83.86 31.4708 84.38C31.1908 84.8867 31.0508 85.7067 31.0508 86.84H34.5308ZM45.1641 78.36H45.7641L44.8441 81.36H45.6441V83.24H43.9641V81.24L45.1641 78.36ZM48.5041 78.36H49.1041L48.1841 81.36H48.9841V83.24H47.3041V81.24L48.5041 78.36ZM54.7806 82.4C55.5806 82.4 56.2206 82.62 56.7006 83.06C57.1806 83.4867 57.5073 84.0933 57.6806 84.88L56.4806 85.24C56.3073 84.6133 56.074 84.1867 55.7806 83.96C55.5006 83.72 55.1406 83.6 54.7006 83.6C54.354 83.6 54.0673 83.7133 53.8406 83.94C53.6273 84.1667 53.5206 84.4667 53.5206 84.84C53.5206 85.24 53.674 85.6 53.9806 85.92C54.2873 86.24 54.7073 86.5533 55.2406 86.86C55.8273 87.2067 56.294 87.5333 56.6406 87.84C57.0006 88.1467 57.274 88.44 57.4606 88.72C57.6473 89 57.7673 89.2733 57.8206 89.54C57.8873 89.8067 57.9206 90.0733 57.9206 90.34C57.9206 90.7533 57.8473 91.14 57.7006 91.5C57.554 91.8467 57.354 92.1467 57.1006 92.4C56.8473 92.6533 56.5473 92.8533 56.2006 93C55.854 93.1333 55.4806 93.2 55.0806 93.2C54.214 93.2 53.5073 92.98 52.9606 92.54C52.4273 92.1 52.0273 91.4 51.7606 90.44L53.0806 90.16C53.2806 90.8 53.5406 91.2667 53.8606 91.56C54.194 91.8533 54.5673 92 54.9806 92C55.3673 92 55.714 91.8467 56.0206 91.54C56.3273 91.22 56.4806 90.8467 56.4806 90.42C56.4806 90.0867 56.4073 89.8 56.2606 89.56C56.114 89.32 55.9073 89.0933 55.6406 88.88C55.3873 88.6533 55.0806 88.4267 54.7206 88.2C54.3606 87.9733 53.974 87.72 53.5606 87.44C53.134 87.1467 52.7806 86.7933 52.5006 86.38C52.2206 85.9667 52.0806 85.48 52.0806 84.92C52.0806 84.5733 52.1473 84.2533 52.2806 83.96C52.414 83.6533 52.6006 83.3867 52.8406 83.16C53.0806 82.92 53.3606 82.7333 53.6806 82.6C54.014 82.4667 54.3806 82.4 54.7806 82.4ZM62.3572 78.56V83.74C62.7039 83.3533 63.0905 83.0333 63.5172 82.78C63.9439 82.5267 64.3439 82.4 64.7172 82.4C65.4639 82.4 66.0172 82.6333 66.3772 83.1C66.7372 83.5667 66.9172 84.2133 66.9172 85.04V93H65.4772V85.3C65.4772 84.7133 65.3839 84.2867 65.1972 84.02C65.0239 83.74 64.7372 83.6 64.3372 83.6C63.9772 83.6 63.6372 83.7133 63.3172 83.94C62.9972 84.1533 62.6772 84.4667 62.3572 84.88V93H60.9172V78.56H62.3572ZM73.3675 82.4C74.3408 82.4 75.0808 82.6733 75.5875 83.22C76.0942 83.7667 76.3475 84.46 76.3475 85.3V91.28C76.3475 91.6267 76.3675 91.9667 76.4075 92.3C76.4475 92.62 76.5142 92.8533 76.6075 93H75.1075L74.9275 92.12C74.7808 92.2533 74.6142 92.3867 74.4275 92.52C74.2408 92.6533 74.0475 92.7733 73.8475 92.88C73.6475 92.9733 73.4475 93.0467 73.2475 93.1C73.0475 93.1667 72.8675 93.2 72.7075 93.2C71.8942 93.2 71.2408 92.96 70.7475 92.48C70.2542 92 70.0075 91.3467 70.0075 90.52C70.0075 89.52 70.4342 88.64 71.2875 87.88C72.1408 87.12 73.3475 86.56 74.9075 86.2V85.5C74.9075 84.9 74.7742 84.4333 74.5075 84.1C74.2408 83.7667 73.8742 83.6 73.4075 83.6C72.9408 83.6 72.5475 83.7867 72.2275 84.16C71.9208 84.52 71.7142 85.0133 71.6075 85.64L70.2875 85.44C70.4608 84.4533 70.8142 83.7 71.3475 83.18C71.8808 82.66 72.5542 82.4 73.3675 82.4ZM71.4475 90.4C71.4475 90.88 71.5608 91.2667 71.7875 91.56C72.0142 91.8533 72.3942 92 72.9275 92C73.5675 92 74.2275 91.64 74.9075 90.92V87.4C74.4142 87.5467 73.9542 87.7267 73.5275 87.94C73.1142 88.14 72.7475 88.3667 72.4275 88.62C72.1208 88.8733 71.8808 89.1533 71.7075 89.46C71.5342 89.7533 71.4475 90.0667 71.4475 90.4ZM84.0578 83.76C83.4045 83.76 82.8778 83.9067 82.4778 84.2C82.0778 84.48 81.7111 84.9467 81.3778 85.6V93H79.9378V82.6H81.3778V83.86H81.4178C81.5911 83.5933 81.7578 83.3733 81.9178 83.2C82.0911 83.0133 82.2778 82.86 82.4778 82.74C82.6778 82.62 82.9045 82.5333 83.1578 82.48C83.4111 82.4267 83.7111 82.4 84.0578 82.4V83.76ZM88.7673 82.4C89.794 82.4 90.5807 82.82 91.1273 83.66C91.674 84.4867 91.9473 85.7867 91.9473 87.56V88.04H87.0273V88.48C87.0273 89.1333 87.0607 89.6867 87.1273 90.14C87.194 90.5933 87.3007 90.96 87.4473 91.24C87.594 91.5067 87.794 91.7 88.0473 91.82C88.3007 91.94 88.6073 92 88.9673 92C89.8607 92 90.4407 91.3467 90.7073 90.04L92.0673 90.2C91.9207 91.08 91.554 91.8 90.9673 92.36C90.3807 92.92 89.6473 93.2 88.7673 93.2C87.6473 93.2 86.834 92.7667 86.3273 91.9C85.834 91.0333 85.5873 89.6667 85.5873 87.8C85.5873 85.9333 85.834 84.5667 86.3273 83.7C86.834 82.8333 87.6473 82.4 88.7673 82.4ZM90.5073 86.84C90.4807 85.68 90.3407 84.8533 90.0873 84.36C89.8473 83.8533 89.4007 83.6 88.7473 83.6C88.1607 83.6 87.7273 83.86 87.4473 84.38C87.1673 84.8867 87.0273 85.7067 87.0273 86.84H90.5073ZM101.441 78.56V80.24H100.001V78.56H101.441ZM101.441 82.6V93H100.001V82.6H101.441ZM107.517 82.4C108.384 82.4 109.064 82.6667 109.557 83.2C110.064 83.72 110.397 84.5467 110.557 85.68H109.157C109.104 85 108.944 84.4867 108.677 84.14C108.411 83.78 108.024 83.6 107.517 83.6C107.171 83.6 106.884 83.6733 106.657 83.82C106.431 83.9667 106.251 84.2067 106.117 84.54C105.997 84.86 105.911 85.2867 105.857 85.82C105.804 86.3533 105.777 87.0133 105.777 87.8C105.777 88.64 105.804 89.3333 105.857 89.88C105.924 90.4267 106.024 90.86 106.157 91.18C106.304 91.4867 106.484 91.7 106.697 91.82C106.924 91.94 107.197 92 107.517 92C108.077 92 108.471 91.8133 108.697 91.44C108.924 91.0533 109.091 90.48 109.197 89.72H110.597C110.451 90.8533 110.111 91.72 109.577 92.32C109.057 92.9067 108.371 93.2 107.517 93.2C106.397 93.2 105.584 92.7667 105.077 91.9C104.584 91.0333 104.337 89.6667 104.337 87.8C104.337 85.9333 104.584 84.5667 105.077 83.7C105.584 82.8333 106.397 82.4 107.517 82.4ZM115.994 82.4C117.101 82.4 117.907 82.8333 118.414 83.7C118.921 84.5667 119.174 85.9333 119.174 87.8C119.174 89.6667 118.921 91.0333 118.414 91.9C117.907 92.7667 117.101 93.2 115.994 93.2C114.874 93.2 114.061 92.7667 113.554 91.9C113.061 91.0333 112.814 89.6667 112.814 87.8C112.814 85.9333 113.061 84.5667 113.554 83.7C114.061 82.8333 114.874 82.4 115.994 82.4ZM114.254 87.8C114.254 88.5733 114.281 89.2333 114.334 89.78C114.387 90.3133 114.474 90.7467 114.594 91.08C114.727 91.4 114.907 91.6333 115.134 91.78C115.361 91.9267 115.647 92 115.994 92C116.301 92 116.561 91.94 116.774 91.82C117.001 91.7 117.181 91.48 117.314 91.16C117.461 90.84 117.567 90.4133 117.634 89.88C117.701 89.3333 117.734 88.64 117.734 87.8C117.734 86.9333 117.701 86.2333 117.634 85.7C117.567 85.1533 117.461 84.7267 117.314 84.42C117.181 84.1 117.001 83.8867 116.774 83.78C116.547 83.66 116.281 83.6 115.974 83.6C115.627 83.6 115.341 83.6733 115.114 83.82C114.901 83.9667 114.727 84.2067 114.594 84.54C114.474 84.8733 114.387 85.3067 114.334 85.84C114.281 86.3733 114.254 87.0267 114.254 87.8ZM125.75 82.4C126.537 82.4 127.11 82.6333 127.47 83.1C127.844 83.5667 128.03 84.2133 128.03 85.04V93H126.59V85.24C126.59 84.6933 126.497 84.2867 126.31 84.02C126.137 83.74 125.85 83.6 125.45 83.6C125.09 83.6 124.75 83.7133 124.43 83.94C124.11 84.1533 123.79 84.4667 123.47 84.88V93H122.03V82.6H123.39V83.74C123.79 83.3267 124.204 83 124.63 82.76C125.07 82.52 125.444 82.4 125.75 82.4ZM133.161 78.56V80.56L131.961 83.44H131.361L132.281 80.44H131.481V78.56H133.161ZM136.501 78.56V80.56L135.301 83.44H134.701L135.621 80.44H134.821V78.56H136.501ZM146.774 79.12V82.6H148.694V83.8H146.774V91.12C146.774 91.3867 146.854 91.62 147.014 91.82C147.174 92.02 147.441 92.12 147.814 92.12C147.934 92.12 148.067 92.1067 148.214 92.08C148.361 92.04 148.521 91.9867 148.694 91.92V93C148.441 93.0667 148.234 93.1133 148.074 93.14C147.927 93.18 147.687 93.2 147.354 93.2C146.647 93.2 146.134 93.0267 145.814 92.68C145.494 92.3333 145.334 91.7867 145.334 91.04V83.8H143.934V82.6H145.334V79.12H146.774ZM153.924 82.4C155.03 82.4 155.837 82.8333 156.344 83.7C156.85 84.5667 157.104 85.9333 157.104 87.8C157.104 89.6667 156.85 91.0333 156.344 91.9C155.837 92.7667 155.03 93.2 153.924 93.2C152.804 93.2 151.99 92.7667 151.484 91.9C150.99 91.0333 150.744 89.6667 150.744 87.8C150.744 85.9333 150.99 84.5667 151.484 83.7C151.99 82.8333 152.804 82.4 153.924 82.4ZM152.184 87.8C152.184 88.5733 152.21 89.2333 152.264 89.78C152.317 90.3133 152.404 90.7467 152.524 91.08C152.657 91.4 152.837 91.6333 153.064 91.78C153.29 91.9267 153.577 92 153.924 92C154.23 92 154.49 91.94 154.704 91.82C154.93 91.7 155.11 91.48 155.244 91.16C155.39 90.84 155.497 90.4133 155.564 89.88C155.63 89.3333 155.664 88.64 155.664 87.8C155.664 86.9333 155.63 86.2333 155.564 85.7C155.497 85.1533 155.39 84.7267 155.244 84.42C155.11 84.1 154.93 83.8867 154.704 83.78C154.477 83.66 154.21 83.6 153.904 83.6C153.557 83.6 153.27 83.6733 153.044 83.82C152.83 83.9667 152.657 84.2067 152.524 84.54C152.404 84.8733 152.317 85.3067 152.264 85.84C152.21 86.3733 152.184 87.0267 152.184 87.8ZM167.437 82.4C168.237 82.4 168.877 82.62 169.357 83.06C169.837 83.4867 170.164 84.0933 170.337 84.88L169.137 85.24C168.964 84.6133 168.73 84.1867 168.437 83.96C168.157 83.72 167.797 83.6 167.357 83.6C167.01 83.6 166.724 83.7133 166.497 83.94C166.284 84.1667 166.177 84.4667 166.177 84.84C166.177 85.24 166.33 85.6 166.637 85.92C166.944 86.24 167.364 86.5533 167.897 86.86C168.484 87.2067 168.95 87.5333 169.297 87.84C169.657 88.1467 169.93 88.44 170.117 88.72C170.304 89 170.424 89.2733 170.477 89.54C170.544 89.8067 170.577 90.0733 170.577 90.34C170.577 90.7533 170.504 91.14 170.357 91.5C170.21 91.8467 170.01 92.1467 169.757 92.4C169.504 92.6533 169.204 92.8533 168.857 93C168.51 93.1333 168.137 93.2 167.737 93.2C166.87 93.2 166.164 92.98 165.617 92.54C165.084 92.1 164.684 91.4 164.417 90.44L165.737 90.16C165.937 90.8 166.197 91.2667 166.517 91.56C166.85 91.8533 167.224 92 167.637 92C168.024 92 168.37 91.8467 168.677 91.54C168.984 91.22 169.137 90.8467 169.137 90.42C169.137 90.0867 169.064 89.8 168.917 89.56C168.77 89.32 168.564 89.0933 168.297 88.88C168.044 88.6533 167.737 88.4267 167.377 88.2C167.017 87.9733 166.63 87.72 166.217 87.44C165.79 87.1467 165.437 86.7933 165.157 86.38C164.877 85.9667 164.737 85.48 164.737 84.92C164.737 84.5733 164.804 84.2533 164.937 83.96C165.07 83.6533 165.257 83.3867 165.497 83.16C165.737 82.92 166.017 82.7333 166.337 82.6C166.67 82.4667 167.037 82.4 167.437 82.4ZM175.013 78.56V83.74C175.36 83.3533 175.747 83.0333 176.173 82.78C176.6 82.5267 177 82.4 177.373 82.4C178.12 82.4 178.673 82.6333 179.033 83.1C179.393 83.5667 179.573 84.2133 179.573 85.04V93H178.133V85.3C178.133 84.7133 178.04 84.2867 177.853 84.02C177.68 83.74 177.393 83.6 176.993 83.6C176.633 83.6 176.293 83.7133 175.973 83.94C175.653 84.1533 175.333 84.4667 175.013 84.88V93H173.573V78.56H175.013ZM186.024 82.4C186.997 82.4 187.737 82.6733 188.244 83.22C188.75 83.7667 189.004 84.46 189.004 85.3V91.28C189.004 91.6267 189.024 91.9667 189.064 92.3C189.104 92.62 189.17 92.8533 189.264 93H187.764L187.584 92.12C187.437 92.2533 187.27 92.3867 187.084 92.52C186.897 92.6533 186.704 92.7733 186.504 92.88C186.304 92.9733 186.104 93.0467 185.904 93.1C185.704 93.1667 185.524 93.2 185.364 93.2C184.55 93.2 183.897 92.96 183.404 92.48C182.91 92 182.664 91.3467 182.664 90.52C182.664 89.52 183.09 88.64 183.944 87.88C184.797 87.12 186.004 86.56 187.564 86.2V85.5C187.564 84.9 187.43 84.4333 187.164 84.1C186.897 83.7667 186.53 83.6 186.064 83.6C185.597 83.6 185.204 83.7867 184.884 84.16C184.577 84.52 184.37 85.0133 184.264 85.64L182.944 85.44C183.117 84.4533 183.47 83.7 184.004 83.18C184.537 82.66 185.21 82.4 186.024 82.4ZM184.104 90.4C184.104 90.88 184.217 91.2667 184.444 91.56C184.67 91.8533 185.05 92 185.584 92C186.224 92 186.884 91.64 187.564 90.92V87.4C187.07 87.5467 186.61 87.7267 186.184 87.94C185.77 88.14 185.404 88.3667 185.084 88.62C184.777 88.8733 184.537 89.1533 184.364 89.46C184.19 89.7533 184.104 90.0667 184.104 90.4ZM196.714 83.76C196.061 83.76 195.534 83.9067 195.134 84.2C194.734 84.48 194.367 84.9467 194.034 85.6V93H192.594V82.6H194.034V83.86H194.074C194.247 83.5933 194.414 83.3733 194.574 83.2C194.747 83.0133 194.934 82.86 195.134 82.74C195.334 82.62 195.561 82.5333 195.814 82.48C196.067 82.4267 196.367 82.4 196.714 82.4V83.76ZM201.424 82.4C202.45 82.4 203.237 82.82 203.784 83.66C204.33 84.4867 204.604 85.7867 204.604 87.56V88.04H199.684V88.48C199.684 89.1333 199.717 89.6867 199.784 90.14C199.85 90.5933 199.957 90.96 200.104 91.24C200.25 91.5067 200.45 91.7 200.704 91.82C200.957 91.94 201.264 92 201.624 92C202.517 92 203.097 91.3467 203.364 90.04L204.724 90.2C204.577 91.08 204.21 91.8 203.624 92.36C203.037 92.92 202.304 93.2 201.424 93.2C200.304 93.2 199.49 92.7667 198.984 91.9C198.49 91.0333 198.244 89.6667 198.244 87.8C198.244 85.9333 198.49 84.5667 198.984 83.7C199.49 82.8333 200.304 82.4 201.424 82.4ZM203.164 86.84C203.137 85.68 202.997 84.8533 202.744 84.36C202.504 83.8533 202.057 83.6 201.404 83.6C200.817 83.6 200.384 83.86 200.104 84.38C199.824 84.8867 199.684 85.7067 199.684 86.84H203.164ZM212.677 82.6L214.637 90.56H214.677L216.277 82.6H217.757L215.417 92.58C215.084 93.9933 214.644 94.98 214.097 95.54C213.55 96.1133 212.85 96.4 211.997 96.4H211.357V95.2H211.717C212.264 95.2 212.724 95.0333 213.097 94.7C213.484 94.3667 213.77 93.7733 213.957 92.92L211.197 82.6H212.677ZM222.4 82.4C223.507 82.4 224.313 82.8333 224.82 83.7C225.327 84.5667 225.58 85.9333 225.58 87.8C225.58 89.6667 225.327 91.0333 224.82 91.9C224.313 92.7667 223.507 93.2 222.4 93.2C221.28 93.2 220.467 92.7667 219.96 91.9C219.467 91.0333 219.22 89.6667 219.22 87.8C219.22 85.9333 219.467 84.5667 219.96 83.7C220.467 82.8333 221.28 82.4 222.4 82.4ZM220.66 87.8C220.66 88.5733 220.687 89.2333 220.74 89.78C220.793 90.3133 220.88 90.7467 221 91.08C221.133 91.4 221.313 91.6333 221.54 91.78C221.767 91.9267 222.053 92 222.4 92C222.707 92 222.967 91.94 223.18 91.82C223.407 91.7 223.587 91.48 223.72 91.16C223.867 90.84 223.973 90.4133 224.04 89.88C224.107 89.3333 224.14 88.64 224.14 87.8C224.14 86.9333 224.107 86.2333 224.04 85.7C223.973 85.1533 223.867 84.7267 223.72 84.42C223.587 84.1 223.407 83.8867 223.18 83.78C222.953 83.66 222.687 83.6 222.38 83.6C222.033 83.6 221.747 83.6733 221.52 83.82C221.307 83.9667 221.133 84.2067 221 84.54C220.88 84.8733 220.793 85.3067 220.74 85.84C220.687 86.3733 220.66 87.0267 220.66 87.8ZM229.877 82.6V90.36C229.877 91.4533 230.257 92 231.017 92C231.363 92 231.697 91.8867 232.017 91.66C232.337 91.4333 232.663 91.12 232.997 90.72V82.6H234.437V93H233.077V91.86C232.69 92.2467 232.277 92.5667 231.837 92.82C231.41 93.0733 231.017 93.2 230.657 93.2C229.91 93.2 229.35 92.9733 228.977 92.52C228.617 92.0533 228.437 91.4 228.437 90.56V82.6H229.877ZM242.007 83.76C241.354 83.76 240.827 83.9067 240.427 84.2C240.027 84.48 239.66 84.9467 239.327 85.6V93H237.887V82.6H239.327V83.86H239.367C239.54 83.5933 239.707 83.3733 239.867 83.2C240.04 83.0133 240.227 82.86 240.427 82.74C240.627 82.62 240.854 82.5333 241.107 82.48C241.36 82.4267 241.66 82.4 242.007 82.4V83.76ZM250.973 79.12V82.6H252.893V83.8H250.973V91.12C250.973 91.3867 251.053 91.62 251.213 91.82C251.373 92.02 251.64 92.12 252.013 92.12C252.133 92.12 252.267 92.1067 252.413 92.08C252.56 92.04 252.72 91.9867 252.893 91.92V93C252.64 93.0667 252.433 93.1133 252.273 93.14C252.127 93.18 251.887 93.2 251.553 93.2C250.847 93.2 250.333 93.0267 250.013 92.68C249.693 92.3333 249.533 91.7867 249.533 91.04V83.8H248.133V82.6H249.533V79.12H250.973ZM259.683 83.76C259.029 83.76 258.503 83.9067 258.103 84.2C257.703 84.48 257.336 84.9467 257.003 85.6V93H255.563V82.6H257.003V83.86H257.043C257.216 83.5933 257.383 83.3733 257.543 83.2C257.716 83.0133 257.903 82.86 258.103 82.74C258.303 82.62 258.529 82.5333 258.783 82.48C259.036 82.4267 259.336 82.4 259.683 82.4V83.76ZM264.392 82.4C265.419 82.4 266.206 82.82 266.752 83.66C267.299 84.4867 267.572 85.7867 267.572 87.56V88.04H262.652V88.48C262.652 89.1333 262.686 89.6867 262.752 90.14C262.819 90.5933 262.926 90.96 263.072 91.24C263.219 91.5067 263.419 91.7 263.672 91.82C263.926 91.94 264.232 92 264.592 92C265.486 92 266.066 91.3467 266.332 90.04L267.692 90.2C267.546 91.08 267.179 91.8 266.592 92.36C266.006 92.92 265.272 93.2 264.392 93.2C263.272 93.2 262.459 92.7667 261.952 91.9C261.459 91.0333 261.212 89.6667 261.212 87.8C261.212 85.9333 261.459 84.5667 261.952 83.7C262.459 82.8333 263.272 82.4 264.392 82.4ZM266.132 86.84C266.106 85.68 265.966 84.8533 265.712 84.36C265.472 83.8533 265.026 83.6 264.372 83.6C263.786 83.6 263.352 83.86 263.072 84.38C262.792 84.8867 262.652 85.7067 262.652 86.84H266.132ZM272.869 82.4C273.896 82.4 274.682 82.82 275.229 83.66C275.776 84.4867 276.049 85.7867 276.049 87.56V88.04H271.129V88.48C271.129 89.1333 271.162 89.6867 271.229 90.14C271.296 90.5933 271.402 90.96 271.549 91.24C271.696 91.5067 271.896 91.7 272.149 91.82C272.402 91.94 272.709 92 273.069 92C273.962 92 274.542 91.3467 274.809 90.04L276.169 90.2C276.022 91.08 275.656 91.8 275.069 92.36C274.482 92.92 273.749 93.2 272.869 93.2C271.749 93.2 270.936 92.7667 270.429 91.9C269.936 91.0333 269.689 89.6667 269.689 87.8C269.689 85.9333 269.936 84.5667 270.429 83.7C270.936 82.8333 271.749 82.4 272.869 82.4ZM274.609 86.84C274.582 85.68 274.442 84.8533 274.189 84.36C273.949 83.8533 273.502 83.6 272.849 83.6C272.262 83.6 271.829 83.86 271.549 84.38C271.269 84.8867 271.129 85.7067 271.129 86.84H274.609ZM286.482 82.4C287.589 82.4 288.396 82.8333 288.902 83.7C289.409 84.5667 289.662 85.9333 289.662 87.8C289.662 89.6667 289.409 91.0333 288.902 91.9C288.396 92.7667 287.589 93.2 286.482 93.2C285.362 93.2 284.549 92.7667 284.042 91.9C283.549 91.0333 283.302 89.6667 283.302 87.8C283.302 85.9333 283.549 84.5667 284.042 83.7C284.549 82.8333 285.362 82.4 286.482 82.4ZM284.742 87.8C284.742 88.5733 284.769 89.2333 284.822 89.78C284.876 90.3133 284.962 90.7467 285.082 91.08C285.216 91.4 285.396 91.6333 285.622 91.78C285.849 91.9267 286.136 92 286.482 92C286.789 92 287.049 91.94 287.262 91.82C287.489 91.7 287.669 91.48 287.802 91.16C287.949 90.84 288.056 90.4133 288.122 89.88C288.189 89.3333 288.222 88.64 288.222 87.8C288.222 86.9333 288.189 86.2333 288.122 85.7C288.056 85.1533 287.949 84.7267 287.802 84.42C287.669 84.1 287.489 83.8867 287.262 83.78C287.036 83.66 286.769 83.6 286.462 83.6C286.116 83.6 285.829 83.6733 285.602 83.82C285.389 83.9667 285.216 84.2067 285.082 84.54C284.962 84.8733 284.876 85.3067 284.822 85.84C284.769 86.3733 284.742 87.0267 284.742 87.8ZM296.239 82.4C297.025 82.4 297.599 82.6333 297.959 83.1C298.332 83.5667 298.519 84.2133 298.519 85.04V93H297.079V85.24C297.079 84.6933 296.985 84.2867 296.799 84.02C296.625 83.74 296.339 83.6 295.939 83.6C295.579 83.6 295.239 83.7133 294.919 83.94C294.599 84.1533 294.279 84.4667 293.959 84.88V93H292.519V82.6H293.879V83.74C294.279 83.3267 294.692 83 295.119 82.76C295.559 82.52 295.932 82.4 296.239 82.4ZM135.435 105.4C136.235 105.4 136.875 105.62 137.355 106.06C137.835 106.487 138.162 107.093 138.335 107.88L137.135 108.24C136.962 107.613 136.728 107.187 136.435 106.96C136.155 106.72 135.795 106.6 135.355 106.6C135.008 106.6 134.722 106.713 134.495 106.94C134.282 107.167 134.175 107.467 134.175 107.84C134.175 108.24 134.328 108.6 134.635 108.92C134.942 109.24 135.362 109.553 135.895 109.86C136.482 110.207 136.948 110.533 137.295 110.84C137.655 111.147 137.928 111.44 138.115 111.72C138.302 112 138.422 112.273 138.475 112.54C138.542 112.807 138.575 113.073 138.575 113.34C138.575 113.753 138.502 114.14 138.355 114.5C138.208 114.847 138.008 115.147 137.755 115.4C137.502 115.653 137.202 115.853 136.855 116C136.508 116.133 136.135 116.2 135.735 116.2C134.868 116.2 134.162 115.98 133.615 115.54C133.082 115.1 132.682 114.4 132.415 113.44L133.735 113.16C133.935 113.8 134.195 114.267 134.515 114.56C134.848 114.853 135.222 115 135.635 115C136.022 115 136.368 114.847 136.675 114.54C136.982 114.22 137.135 113.847 137.135 113.42C137.135 113.087 137.062 112.8 136.915 112.56C136.768 112.32 136.562 112.093 136.295 111.88C136.042 111.653 135.735 111.427 135.375 111.2C135.015 110.973 134.628 110.72 134.215 110.44C133.788 110.147 133.435 109.793 133.155 109.38C132.875 108.967 132.735 108.48 132.735 107.92C132.735 107.573 132.802 107.253 132.935 106.96C133.068 106.653 133.255 106.387 133.495 106.16C133.735 105.92 134.015 105.733 134.335 105.6C134.668 105.467 135.035 105.4 135.435 105.4ZM144.011 105.4C145.118 105.4 145.925 105.833 146.431 106.7C146.938 107.567 147.191 108.933 147.191 110.8C147.191 112.667 146.938 114.033 146.431 114.9C145.925 115.767 145.118 116.2 144.011 116.2C142.891 116.2 142.078 115.767 141.571 114.9C141.078 114.033 140.831 112.667 140.831 110.8C140.831 108.933 141.078 107.567 141.571 106.7C142.078 105.833 142.891 105.4 144.011 105.4ZM142.271 110.8C142.271 111.573 142.298 112.233 142.351 112.78C142.405 113.313 142.491 113.747 142.611 114.08C142.745 114.4 142.925 114.633 143.151 114.78C143.378 114.927 143.665 115 144.011 115C144.318 115 144.578 114.94 144.791 114.82C145.018 114.7 145.198 114.48 145.331 114.16C145.478 113.84 145.585 113.413 145.651 112.88C145.718 112.333 145.751 111.64 145.751 110.8C145.751 109.933 145.718 109.233 145.651 108.7C145.585 108.153 145.478 107.727 145.331 107.42C145.198 107.1 145.018 106.887 144.791 106.78C144.565 106.66 144.298 106.6 143.991 106.6C143.645 106.6 143.358 106.673 143.131 106.82C142.918 106.967 142.745 107.207 142.611 107.54C142.491 107.873 142.405 108.307 142.351 108.84C142.298 109.373 142.271 110.027 142.271 110.8ZM152.488 105.4C153.355 105.4 154.035 105.667 154.528 106.2C155.035 106.72 155.368 107.547 155.528 108.68H154.128C154.075 108 153.915 107.487 153.648 107.14C153.381 106.78 152.995 106.6 152.488 106.6C152.141 106.6 151.855 106.673 151.628 106.82C151.401 106.967 151.221 107.207 151.088 107.54C150.968 107.86 150.881 108.287 150.828 108.82C150.775 109.353 150.748 110.013 150.748 110.8C150.748 111.64 150.775 112.333 150.828 112.88C150.895 113.427 150.995 113.86 151.128 114.18C151.275 114.487 151.455 114.7 151.668 114.82C151.895 114.94 152.168 115 152.488 115C153.048 115 153.441 114.813 153.668 114.44C153.895 114.053 154.061 113.48 154.168 112.72H155.568C155.421 113.853 155.081 114.72 154.548 115.32C154.028 115.907 153.341 116.2 152.488 116.2C151.368 116.2 150.555 115.767 150.048 114.9C149.555 114.033 149.308 112.667 149.308 110.8C149.308 108.933 149.555 107.567 150.048 106.7C150.555 105.833 151.368 105.4 152.488 105.4ZM160.025 101.56V103.24H158.585V101.56H160.025ZM160.025 105.6V116H158.585V105.6H160.025ZM166.541 105.4C167.515 105.4 168.255 105.673 168.761 106.22C169.268 106.767 169.521 107.46 169.521 108.3V114.28C169.521 114.627 169.541 114.967 169.581 115.3C169.621 115.62 169.688 115.853 169.781 116H168.281L168.101 115.12C167.955 115.253 167.788 115.387 167.601 115.52C167.415 115.653 167.221 115.773 167.021 115.88C166.821 115.973 166.621 116.047 166.421 116.1C166.221 116.167 166.041 116.2 165.881 116.2C165.068 116.2 164.415 115.96 163.921 115.48C163.428 115 163.181 114.347 163.181 113.52C163.181 112.52 163.608 111.64 164.461 110.88C165.315 110.12 166.521 109.56 168.081 109.2V108.5C168.081 107.9 167.948 107.433 167.681 107.1C167.415 106.767 167.048 106.6 166.581 106.6C166.115 106.6 165.721 106.787 165.401 107.16C165.095 107.52 164.888 108.013 164.781 108.64L163.461 108.44C163.635 107.453 163.988 106.7 164.521 106.18C165.055 105.66 165.728 105.4 166.541 105.4ZM164.621 113.4C164.621 113.88 164.735 114.267 164.961 114.56C165.188 114.853 165.568 115 166.101 115C166.741 115 167.401 114.64 168.081 113.92V110.4C167.588 110.547 167.128 110.727 166.701 110.94C166.288 111.14 165.921 111.367 165.601 111.62C165.295 111.873 165.055 112.153 164.881 112.46C164.708 112.753 164.621 113.067 164.621 113.4ZM174.732 101.56V116H173.292V101.56H174.732ZM179.988 114.12V116H178.308V114.12H179.988Z" fill="#402020"/>
</svg>
