<svg width="313" height="165" viewBox="0 0 313 165" fill="none" xmlns="http://www.w3.org/2000/svg">
<path d="M106.805 34H100.445V12.46H103.325V31.6H106.805V34ZM110.166 34V12.46H116.526V14.86H113.046V22.21H116.526V24.61H113.046V31.6H116.526V34H110.166ZM122.909 34H120.029V16.15C120.029 13.69 121.179 12.46 123.479 12.46H125.639C127.939 12.46 129.089 13.69 129.089 16.15V34H126.209V26.11H122.909V34ZM126.209 23.5V16.33C126.209 15.49 125.789 15.07 124.949 15.07H124.169C123.329 15.07 122.909 15.49 122.909 16.33V23.5H126.209ZM139.245 34L137.355 25.3H135.615V34H132.735V12.46H138.375C140.575 12.46 141.675 13.69 141.675 16.15V21.46C141.675 23.32 141.105 24.51 139.965 25.03L141.975 34H139.245ZM135.615 22.84H137.505C138.365 22.84 138.795 22.32 138.795 21.28V16.63C138.795 15.59 138.365 15.07 137.505 15.07H135.615V22.84ZM151.597 12.46H154.477V34H151.597V29.71L148.507 19.9V34H145.627V12.46H148.507L151.597 22.87V12.46ZM170.654 25.12L173.324 12.46H176.504V34H173.624L173.924 19.9L171.764 30.1H169.544L167.384 19.9L167.684 34H164.804V12.46H167.984L170.654 25.12ZM184.099 34C181.779 34 180.619 32.78 180.619 30.34V16.15C180.619 13.69 181.769 12.46 184.069 12.46H186.529C188.829 12.46 189.979 13.69 189.979 16.15V30.34C189.979 32.78 188.819 34 186.499 34H184.099ZM186.109 31.6C186.769 31.6 187.099 31.23 187.099 30.49V15.97C187.099 15.23 186.719 14.86 185.959 14.86H184.609C183.869 14.86 183.499 15.23 183.499 15.97V30.49C183.499 31.23 183.879 31.6 184.639 31.6H186.109ZM200.3 34L198.41 25.3H196.67V34H193.79V12.46H199.43C201.63 12.46 202.73 13.69 202.73 16.15V21.46C202.73 23.32 202.16 24.51 201.02 25.03L203.03 34H200.3ZM196.67 22.84H198.56C199.42 22.84 199.85 22.32 199.85 21.28V16.63C199.85 15.59 199.42 15.07 198.56 15.07H196.67V22.84ZM206.681 34V12.46H213.041V14.86H209.561V22.21H213.041V24.61H209.561V31.6H213.041V34H206.681Z" fill="#7E213B"/>
<path d="M34.3318 67.56L36.8718 79H36.9118L39.4518 67.56H41.0118L37.6118 82H36.1718L32.7718 67.56H34.3318ZM43.6105 67.56V69.24H42.1705V67.56H43.6105ZM43.6105 71.6V82H42.1705V71.6H43.6105ZM48.5873 71.4C49.3873 71.4 50.0273 71.62 50.5073 72.06C50.9873 72.4867 51.3139 73.0933 51.4873 73.88L50.2873 74.24C50.1139 73.6133 49.8806 73.1867 49.5873 72.96C49.3073 72.72 48.9473 72.6 48.5073 72.6C48.1606 72.6 47.8739 72.7133 47.6473 72.94C47.4339 73.1667 47.3273 73.4667 47.3273 73.84C47.3273 74.24 47.4806 74.6 47.7873 74.92C48.0939 75.24 48.5139 75.5533 49.0473 75.86C49.6339 76.2067 50.1006 76.5333 50.4473 76.84C50.8073 77.1467 51.0806 77.44 51.2673 77.72C51.4539 78 51.5739 78.2733 51.6273 78.54C51.6939 78.8067 51.7273 79.0733 51.7273 79.34C51.7273 79.7533 51.6539 80.14 51.5073 80.5C51.3606 80.8467 51.1606 81.1467 50.9073 81.4C50.6539 81.6533 50.3539 81.8533 50.0073 82C49.6606 82.1333 49.2873 82.2 48.8873 82.2C48.0206 82.2 47.3139 81.98 46.7673 81.54C46.2339 81.1 45.8339 80.4 45.5673 79.44L46.8873 79.16C47.0873 79.8 47.3473 80.2667 47.6673 80.56C48.0006 80.8533 48.3739 81 48.7873 81C49.1739 81 49.5206 80.8467 49.8273 80.54C50.1339 80.22 50.2873 79.8467 50.2873 79.42C50.2873 79.0867 50.2139 78.8 50.0673 78.56C49.9206 78.32 49.7139 78.0933 49.4473 77.88C49.1939 77.6533 48.8873 77.4267 48.5273 77.2C48.1673 76.9733 47.7806 76.72 47.3673 76.44C46.9406 76.1467 46.5873 75.7933 46.3073 75.38C46.0273 74.9667 45.8873 74.48 45.8873 73.92C45.8873 73.5733 45.9539 73.2533 46.0873 72.96C46.2206 72.6533 46.4073 72.3867 46.6473 72.16C46.8873 71.92 47.1673 71.7333 47.4873 71.6C47.8206 71.4667 48.1873 71.4 48.5873 71.4ZM55.2238 67.56V69.24H53.7838V67.56H55.2238ZM55.2238 71.6V82H53.7838V71.6H55.2238ZM59.4205 68.12V71.6H61.3405V72.8H59.4205V80.12C59.4205 80.3867 59.5005 80.62 59.6605 80.82C59.8205 81.02 60.0872 81.12 60.4605 81.12C60.5805 81.12 60.7139 81.1067 60.8605 81.08C61.0072 81.04 61.1672 80.9867 61.3405 80.92V82C61.0872 82.0667 60.8805 82.1133 60.7205 82.14C60.5739 82.18 60.3339 82.2 60.0005 82.2C59.2939 82.2 58.7805 82.0267 58.4605 81.68C58.1405 81.3333 57.9805 80.7867 57.9805 80.04V72.8H56.5805V71.6H57.9805V68.12H59.4205ZM69.7068 71.4C70.8135 71.4 71.6201 71.8333 72.1268 72.7C72.6335 73.5667 72.8868 74.9333 72.8868 76.8C72.8868 78.6667 72.6335 80.0333 72.1268 80.9C71.6201 81.7667 70.8135 82.2 69.7068 82.2C68.5868 82.2 67.7735 81.7667 67.2668 80.9C66.7735 80.0333 66.5268 78.6667 66.5268 76.8C66.5268 74.9333 66.7735 73.5667 67.2668 72.7C67.7735 71.8333 68.5868 71.4 69.7068 71.4ZM67.9668 76.8C67.9668 77.5733 67.9935 78.2333 68.0468 78.78C68.1001 79.3133 68.1868 79.7467 68.3068 80.08C68.4401 80.4 68.6201 80.6333 68.8468 80.78C69.0735 80.9267 69.3601 81 69.7068 81C70.0135 81 70.2735 80.94 70.4868 80.82C70.7135 80.7 70.8935 80.48 71.0268 80.16C71.1735 79.84 71.2801 79.4133 71.3468 78.88C71.4135 78.3333 71.4468 77.64 71.4468 76.8C71.4468 75.9333 71.4135 75.2333 71.3468 74.7C71.2801 74.1533 71.1735 73.7267 71.0268 73.42C70.8935 73.1 70.7135 72.8867 70.4868 72.78C70.2601 72.66 69.9935 72.6 69.6868 72.6C69.3401 72.6 69.0535 72.6733 68.8268 72.82C68.6135 72.9667 68.4401 73.2067 68.3068 73.54C68.1868 73.8733 68.1001 74.3067 68.0468 74.84C67.9935 75.3733 67.9668 76.0267 67.9668 76.8ZM76.1834 71.6V79.36C76.1834 80.4533 76.5634 81 77.3234 81C77.67 81 78.0034 80.8867 78.3234 80.66C78.6434 80.4333 78.97 80.12 79.3034 79.72V71.6H80.7434V82H79.3834V80.86C78.9967 81.2467 78.5834 81.5667 78.1434 81.82C77.7167 82.0733 77.3234 82.2 76.9634 82.2C76.2167 82.2 75.6567 81.9733 75.2834 81.52C74.9234 81.0533 74.7434 80.4 74.7434 79.56V71.6H76.1834ZM87.3137 72.76C86.6603 72.76 86.1337 72.9067 85.7337 73.2C85.3337 73.48 84.967 73.9467 84.6337 74.6V82H83.1937V71.6H84.6337V72.86H84.6737C84.847 72.5933 85.0137 72.3733 85.1737 72.2C85.347 72.0133 85.5337 71.86 85.7337 71.74C85.9337 71.62 86.1603 71.5333 86.4137 71.48C86.667 71.4267 86.967 71.4 87.3137 71.4V72.76ZM95.0599 71.4C95.8599 71.4 96.4999 71.62 96.9799 72.06C97.4599 72.4867 97.7866 73.0933 97.9599 73.88L96.7599 74.24C96.5866 73.6133 96.3533 73.1867 96.0599 72.96C95.7799 72.72 95.4199 72.6 94.9799 72.6C94.6333 72.6 94.3466 72.7133 94.1199 72.94C93.9066 73.1667 93.7999 73.4667 93.7999 73.84C93.7999 74.24 93.9533 74.6 94.2599 74.92C94.5666 75.24 94.9866 75.5533 95.5199 75.86C96.1066 76.2067 96.5733 76.5333 96.9199 76.84C97.2799 77.1467 97.5533 77.44 97.7399 77.72C97.9266 78 98.0466 78.2733 98.0999 78.54C98.1666 78.8067 98.1999 79.0733 98.1999 79.34C98.1999 79.7533 98.1266 80.14 97.9799 80.5C97.8333 80.8467 97.6333 81.1467 97.3799 81.4C97.1266 81.6533 96.8266 81.8533 96.4799 82C96.1333 82.1333 95.7599 82.2 95.3599 82.2C94.4933 82.2 93.7866 81.98 93.2399 81.54C92.7066 81.1 92.3066 80.4 92.0399 79.44L93.3599 79.16C93.5599 79.8 93.8199 80.2667 94.1399 80.56C94.4733 80.8533 94.8466 81 95.2599 81C95.6466 81 95.9933 80.8467 96.2999 80.54C96.6066 80.22 96.7599 79.8467 96.7599 79.42C96.7599 79.0867 96.6866 78.8 96.5399 78.56C96.3933 78.32 96.1866 78.0933 95.9199 77.88C95.6666 77.6533 95.3599 77.4267 94.9999 77.2C94.6399 76.9733 94.2533 76.72 93.8399 76.44C93.4133 76.1467 93.0599 75.7933 92.7799 75.38C92.4999 74.9667 92.3599 74.48 92.3599 73.92C92.3599 73.5733 92.4266 73.2533 92.5599 72.96C92.6933 72.6533 92.8799 72.3867 93.1199 72.16C93.3599 71.92 93.6399 71.7333 93.9599 71.6C94.2933 71.4667 94.6599 71.4 95.0599 71.4ZM101.696 67.56V69.24H100.256V67.56H101.696ZM101.696 71.6V82H100.256V71.6H101.696ZM105.893 68.12V71.6H107.813V72.8H105.893V80.12C105.893 80.3867 105.973 80.62 106.133 80.82C106.293 81.02 106.56 81.12 106.933 81.12C107.053 81.12 107.187 81.1067 107.333 81.08C107.48 81.04 107.64 80.9867 107.813 80.92V82C107.56 82.0667 107.353 82.1133 107.193 82.14C107.047 82.18 106.807 82.2 106.473 82.2C105.767 82.2 105.253 82.0267 104.933 81.68C104.613 81.3333 104.453 80.7867 104.453 80.04V72.8H103.053V71.6H104.453V68.12H105.893ZM112.043 71.4C113.069 71.4 113.856 71.82 114.403 72.66C114.949 73.4867 115.223 74.7867 115.223 76.56V77.04H110.303V77.48C110.303 78.1333 110.336 78.6867 110.403 79.14C110.469 79.5933 110.576 79.96 110.723 80.24C110.869 80.5067 111.069 80.7 111.323 80.82C111.576 80.94 111.883 81 112.243 81C113.136 81 113.716 80.3467 113.983 79.04L115.343 79.2C115.196 80.08 114.829 80.8 114.243 81.36C113.656 81.92 112.923 82.2 112.043 82.2C110.923 82.2 110.109 81.7667 109.603 80.9C109.109 80.0333 108.863 78.6667 108.863 76.8C108.863 74.9333 109.109 73.5667 109.603 72.7C110.109 71.8333 110.923 71.4 112.043 71.4ZM113.783 75.84C113.756 74.68 113.616 73.8533 113.363 73.36C113.123 72.8533 112.676 72.6 112.023 72.6C111.436 72.6 111.003 72.86 110.723 73.38C110.443 73.8867 110.303 74.7067 110.303 75.84H113.783ZM122.776 68.12V71.6H124.696V72.8H122.776V80.12C122.776 80.3867 122.856 80.62 123.016 80.82C123.176 81.02 123.443 81.12 123.816 81.12C123.936 81.12 124.069 81.1067 124.216 81.08C124.363 81.04 124.523 80.9867 124.696 80.92V82C124.443 82.0667 124.236 82.1133 124.076 82.14C123.929 82.18 123.689 82.2 123.356 82.2C122.649 82.2 122.136 82.0267 121.816 81.68C121.496 81.3333 121.336 80.7867 121.336 80.04V72.8H119.936V71.6H121.336V68.12H122.776ZM128.926 71.4C130.032 71.4 130.839 71.8333 131.346 72.7C131.852 73.5667 132.106 74.9333 132.106 76.8C132.106 78.6667 131.852 80.0333 131.346 80.9C130.839 81.7667 130.032 82.2 128.926 82.2C127.806 82.2 126.992 81.7667 126.486 80.9C125.992 80.0333 125.746 78.6667 125.746 76.8C125.746 74.9333 125.992 73.5667 126.486 72.7C126.992 71.8333 127.806 71.4 128.926 71.4ZM127.186 76.8C127.186 77.5733 127.212 78.2333 127.266 78.78C127.319 79.3133 127.406 79.7467 127.526 80.08C127.659 80.4 127.839 80.6333 128.066 80.78C128.292 80.9267 128.579 81 128.926 81C129.232 81 129.492 80.94 129.706 80.82C129.932 80.7 130.112 80.48 130.246 80.16C130.392 79.84 130.499 79.4133 130.566 78.88C130.632 78.3333 130.666 77.64 130.666 76.8C130.666 75.9333 130.632 75.2333 130.566 74.7C130.499 74.1533 130.392 73.7267 130.246 73.42C130.112 73.1 129.932 72.8867 129.706 72.78C129.479 72.66 129.212 72.6 128.906 72.6C128.559 72.6 128.272 72.6733 128.046 72.82C127.832 72.9667 127.659 73.2067 127.526 73.54C127.406 73.8733 127.319 74.3067 127.266 74.84C127.212 75.3733 127.186 76.0267 127.186 76.8ZM139.599 67.56V82H138.159V67.56H139.599ZM144.676 71.4C145.702 71.4 146.489 71.82 147.036 72.66C147.582 73.4867 147.856 74.7867 147.856 76.56V77.04H142.936V77.48C142.936 78.1333 142.969 78.6867 143.036 79.14C143.102 79.5933 143.209 79.96 143.356 80.24C143.502 80.5067 143.702 80.7 143.956 80.82C144.209 80.94 144.516 81 144.876 81C145.769 81 146.349 80.3467 146.616 79.04L147.976 79.2C147.829 80.08 147.462 80.8 146.876 81.36C146.289 81.92 145.556 82.2 144.676 82.2C143.556 82.2 142.742 81.7667 142.236 80.9C141.742 80.0333 141.496 78.6667 141.496 76.8C141.496 74.9333 141.742 73.5667 142.236 72.7C142.742 71.8333 143.556 71.4 144.676 71.4ZM146.416 75.84C146.389 74.68 146.249 73.8533 145.996 73.36C145.756 72.8533 145.309 72.6 144.656 72.6C144.069 72.6 143.636 72.86 143.356 73.38C143.076 73.8867 142.936 74.7067 142.936 75.84H146.416ZM152.592 71.4C153.565 71.4 154.305 71.6733 154.812 72.22C155.319 72.7667 155.572 73.46 155.572 74.3V80.28C155.572 80.6267 155.592 80.9667 155.632 81.3C155.672 81.62 155.739 81.8533 155.832 82H154.332L154.152 81.12C154.005 81.2533 153.839 81.3867 153.652 81.52C153.465 81.6533 153.272 81.7733 153.072 81.88C152.872 81.9733 152.672 82.0467 152.472 82.1C152.272 82.1667 152.092 82.2 151.932 82.2C151.119 82.2 150.465 81.96 149.972 81.48C149.479 81 149.232 80.3467 149.232 79.52C149.232 78.52 149.659 77.64 150.512 76.88C151.365 76.12 152.572 75.56 154.132 75.2V74.5C154.132 73.9 153.999 73.4333 153.732 73.1C153.465 72.7667 153.099 72.6 152.632 72.6C152.165 72.6 151.772 72.7867 151.452 73.16C151.145 73.52 150.939 74.0133 150.832 74.64L149.512 74.44C149.685 73.4533 150.039 72.7 150.572 72.18C151.105 71.66 151.779 71.4 152.592 71.4ZM150.672 79.4C150.672 79.88 150.785 80.2667 151.012 80.56C151.239 80.8533 151.619 81 152.152 81C152.792 81 153.452 80.64 154.132 79.92V76.4C153.639 76.5467 153.179 76.7267 152.752 76.94C152.339 77.14 151.972 77.3667 151.652 77.62C151.345 77.8733 151.105 78.1533 150.932 78.46C150.759 78.7533 150.672 79.0667 150.672 79.4ZM162.282 72.76C161.629 72.76 161.102 72.9067 160.702 73.2C160.302 73.48 159.936 73.9467 159.602 74.6V82H158.162V71.6H159.602V72.86H159.642C159.816 72.5933 159.982 72.3733 160.142 72.2C160.316 72.0133 160.502 71.86 160.702 71.74C160.902 71.62 161.129 71.5333 161.382 71.48C161.636 71.4267 161.936 71.4 162.282 71.4V72.76ZM167.272 71.4C168.059 71.4 168.632 71.6333 168.992 72.1C169.365 72.5667 169.552 73.2133 169.552 74.04V82H168.112V74.24C168.112 73.6933 168.019 73.2867 167.832 73.02C167.659 72.74 167.372 72.6 166.972 72.6C166.612 72.6 166.272 72.7133 165.952 72.94C165.632 73.1533 165.312 73.4667 164.992 73.88V82H163.552V71.6H164.912V72.74C165.312 72.3267 165.725 72 166.152 71.76C166.592 71.52 166.965 71.4 167.272 71.4ZM180.159 71.4C180.532 71.4 180.899 71.52 181.259 71.76C181.632 71.9867 181.886 72.3067 182.019 72.72C182.379 72.2933 182.766 71.9667 183.179 71.74C183.606 71.5133 184.026 71.4 184.439 71.4C185.146 71.4 185.672 71.6267 186.019 72.08C186.366 72.52 186.539 73.0733 186.539 73.74V82H185.099V73.94C185.099 73.4867 185.019 73.1533 184.859 72.94C184.712 72.7133 184.432 72.6 184.019 72.6C183.752 72.6 183.479 72.6667 183.199 72.8C182.932 72.9333 182.599 73.2267 182.199 73.68V82H180.759V73.94C180.759 73.5133 180.679 73.1867 180.519 72.96C180.359 72.72 180.059 72.6 179.619 72.6C179.326 72.6 179.039 72.68 178.759 72.84C178.479 72.9867 178.179 73.2667 177.859 73.68V82H176.419V71.6H177.739V72.74C178.112 72.2867 178.506 71.9533 178.919 71.74C179.332 71.5133 179.746 71.4 180.159 71.4ZM191.742 71.4C192.849 71.4 193.655 71.8333 194.162 72.7C194.669 73.5667 194.922 74.9333 194.922 76.8C194.922 78.6667 194.669 80.0333 194.162 80.9C193.655 81.7667 192.849 82.2 191.742 82.2C190.622 82.2 189.809 81.7667 189.302 80.9C188.809 80.0333 188.562 78.6667 188.562 76.8C188.562 74.9333 188.809 73.5667 189.302 72.7C189.809 71.8333 190.622 71.4 191.742 71.4ZM190.002 76.8C190.002 77.5733 190.029 78.2333 190.082 78.78C190.135 79.3133 190.222 79.7467 190.342 80.08C190.475 80.4 190.655 80.6333 190.882 80.78C191.109 80.9267 191.395 81 191.742 81C192.049 81 192.309 80.94 192.522 80.82C192.749 80.7 192.929 80.48 193.062 80.16C193.209 79.84 193.315 79.4133 193.382 78.88C193.449 78.3333 193.482 77.64 193.482 76.8C193.482 75.9333 193.449 75.2333 193.382 74.7C193.315 74.1533 193.209 73.7267 193.062 73.42C192.929 73.1 192.749 72.8867 192.522 72.78C192.295 72.66 192.029 72.6 191.722 72.6C191.375 72.6 191.089 72.6733 190.862 72.82C190.649 72.9667 190.475 73.2067 190.342 73.54C190.222 73.8733 190.135 74.3067 190.082 74.84C190.029 75.3733 190.002 76.0267 190.002 76.8ZM200.779 72.76C200.125 72.76 199.599 72.9067 199.199 73.2C198.799 73.48 198.432 73.9467 198.099 74.6V82H196.659V71.6H198.099V72.86H198.139C198.312 72.5933 198.479 72.3733 198.639 72.2C198.812 72.0133 198.999 71.86 199.199 71.74C199.399 71.62 199.625 71.5333 199.879 71.48C200.132 71.4267 200.432 71.4 200.779 71.4V72.76ZM204.488 71.4C205.515 71.4 206.301 71.82 206.848 72.66C207.395 73.4867 207.668 74.7867 207.668 76.56V77.04H202.748V77.48C202.748 78.1333 202.781 78.6867 202.848 79.14C202.915 79.5933 203.021 79.96 203.168 80.24C203.315 80.5067 203.515 80.7 203.768 80.82C204.021 80.94 204.328 81 204.688 81C205.581 81 206.161 80.3467 206.428 79.04L207.788 79.2C207.641 80.08 207.275 80.8 206.688 81.36C206.101 81.92 205.368 82.2 204.488 82.2C203.368 82.2 202.555 81.7667 202.048 80.9C201.555 80.0333 201.308 78.6667 201.308 76.8C201.308 74.9333 201.555 73.5667 202.048 72.7C202.555 71.8333 203.368 71.4 204.488 71.4ZM206.228 75.84C206.201 74.68 206.061 73.8533 205.808 73.36C205.568 72.8533 205.121 72.6 204.468 72.6C203.881 72.6 203.448 72.86 203.168 73.38C202.888 73.8867 202.748 74.7067 202.748 75.84H206.228ZM216.541 71.4C217.515 71.4 218.255 71.6733 218.761 72.22C219.268 72.7667 219.521 73.46 219.521 74.3V80.28C219.521 80.6267 219.541 80.9667 219.581 81.3C219.621 81.62 219.688 81.8533 219.781 82H218.281L218.101 81.12C217.955 81.2533 217.788 81.3867 217.601 81.52C217.415 81.6533 217.221 81.7733 217.021 81.88C216.821 81.9733 216.621 82.0467 216.421 82.1C216.221 82.1667 216.041 82.2 215.881 82.2C215.068 82.2 214.415 81.96 213.921 81.48C213.428 81 213.181 80.3467 213.181 79.52C213.181 78.52 213.608 77.64 214.461 76.88C215.315 76.12 216.521 75.56 218.081 75.2V74.5C218.081 73.9 217.948 73.4333 217.681 73.1C217.415 72.7667 217.048 72.6 216.581 72.6C216.115 72.6 215.721 72.7867 215.401 73.16C215.095 73.52 214.888 74.0133 214.781 74.64L213.461 74.44C213.635 73.4533 213.988 72.7 214.521 72.18C215.055 71.66 215.728 71.4 216.541 71.4ZM214.621 79.4C214.621 79.88 214.735 80.2667 214.961 80.56C215.188 80.8533 215.568 81 216.101 81C216.741 81 217.401 80.64 218.081 79.92V76.4C217.588 76.5467 217.128 76.7267 216.701 76.94C216.288 77.14 215.921 77.3667 215.601 77.62C215.295 77.8733 215.055 78.1533 214.881 78.46C214.708 78.7533 214.621 79.0667 214.621 79.4ZM223.792 67.56V72.36C224.432 71.72 225.072 71.4 225.712 71.4C226.672 71.4 227.412 71.86 227.932 72.78C228.452 73.6867 228.712 75.0267 228.712 76.8C228.712 78.5467 228.452 79.8867 227.932 80.82C227.425 81.74 226.685 82.2 225.712 82.2C225.245 82.2 224.832 82.0933 224.472 81.88C224.112 81.6667 223.805 81.3733 223.552 81L223.232 82H222.112C222.192 81.6667 222.252 81.2733 222.292 80.82C222.332 80.3533 222.352 79.8733 222.352 79.38V67.56H223.792ZM223.792 80C223.992 80.3067 224.238 80.5533 224.532 80.74C224.825 80.9133 225.092 81 225.332 81C225.985 81 226.472 80.6667 226.792 80C227.112 79.32 227.272 78.2533 227.272 76.8C227.272 75.3467 227.125 74.2867 226.832 73.62C226.538 72.94 226.045 72.6 225.352 72.6C225.098 72.6 224.852 72.6733 224.612 72.82C224.385 72.9533 224.112 73.1867 223.792 73.52V80ZM233.242 71.4C234.349 71.4 235.155 71.8333 235.662 72.7C236.169 73.5667 236.422 74.9333 236.422 76.8C236.422 78.6667 236.169 80.0333 235.662 80.9C235.155 81.7667 234.349 82.2 233.242 82.2C232.122 82.2 231.309 81.7667 230.802 80.9C230.309 80.0333 230.062 78.6667 230.062 76.8C230.062 74.9333 230.309 73.5667 230.802 72.7C231.309 71.8333 232.122 71.4 233.242 71.4ZM231.502 76.8C231.502 77.5733 231.529 78.2333 231.582 78.78C231.635 79.3133 231.722 79.7467 231.842 80.08C231.975 80.4 232.155 80.6333 232.382 80.78C232.609 80.9267 232.895 81 233.242 81C233.549 81 233.809 80.94 234.022 80.82C234.249 80.7 234.429 80.48 234.562 80.16C234.709 79.84 234.815 79.4133 234.882 78.88C234.949 78.3333 234.982 77.64 234.982 76.8C234.982 75.9333 234.949 75.2333 234.882 74.7C234.815 74.1533 234.709 73.7267 234.562 73.42C234.429 73.1 234.249 72.8867 234.022 72.78C233.795 72.66 233.529 72.6 233.222 72.6C232.875 72.6 232.589 72.6733 232.362 72.82C232.149 72.9667 231.975 73.2067 231.842 73.54C231.722 73.8733 231.635 74.3067 231.582 74.84C231.529 75.3733 231.502 76.0267 231.502 76.8ZM239.719 71.6V79.36C239.719 80.4533 240.099 81 240.859 81C241.205 81 241.539 80.8867 241.859 80.66C242.179 80.4333 242.505 80.12 242.839 79.72V71.6H244.279V82H242.919V80.86C242.532 81.2467 242.119 81.5667 241.679 81.82C241.252 82.0733 240.859 82.2 240.499 82.2C239.752 82.2 239.192 81.9733 238.819 81.52C238.459 81.0533 238.279 80.4 238.279 79.56V71.6H239.719ZM248.409 68.12V71.6H250.329V72.8H248.409V80.12C248.409 80.3867 248.489 80.62 248.649 80.82C248.809 81.02 249.075 81.12 249.449 81.12C249.569 81.12 249.702 81.1067 249.849 81.08C249.995 81.04 250.155 80.9867 250.329 80.92V82C250.075 82.0667 249.869 82.1133 249.709 82.14C249.562 82.18 249.322 82.2 248.989 82.2C248.282 82.2 247.769 82.0267 247.449 81.68C247.129 81.3333 246.969 80.7867 246.969 80.04V72.8H245.569V71.6H246.969V68.12H248.409ZM258.695 71.4C259.802 71.4 260.608 71.8333 261.115 72.7C261.622 73.5667 261.875 74.9333 261.875 76.8C261.875 78.6667 261.622 80.0333 261.115 80.9C260.608 81.7667 259.802 82.2 258.695 82.2C257.575 82.2 256.762 81.7667 256.255 80.9C255.762 80.0333 255.515 78.6667 255.515 76.8C255.515 74.9333 255.762 73.5667 256.255 72.7C256.762 71.8333 257.575 71.4 258.695 71.4ZM256.955 76.8C256.955 77.5733 256.982 78.2333 257.035 78.78C257.088 79.3133 257.175 79.7467 257.295 80.08C257.428 80.4 257.608 80.6333 257.835 80.78C258.062 80.9267 258.348 81 258.695 81C259.002 81 259.262 80.94 259.475 80.82C259.702 80.7 259.882 80.48 260.015 80.16C260.162 79.84 260.268 79.4133 260.335 78.88C260.402 78.3333 260.435 77.64 260.435 76.8C260.435 75.9333 260.402 75.2333 260.335 74.7C260.268 74.1533 260.162 73.7267 260.015 73.42C259.882 73.1 259.702 72.8867 259.475 72.78C259.248 72.66 258.982 72.6 258.675 72.6C258.328 72.6 258.042 72.6733 257.815 72.82C257.602 72.9667 257.428 73.2067 257.295 73.54C257.175 73.8733 257.088 74.3067 257.035 74.84C256.982 75.3733 256.955 76.0267 256.955 76.8ZM265.172 71.6V79.36C265.172 80.4533 265.552 81 266.312 81C266.658 81 266.992 80.8867 267.312 80.66C267.632 80.4333 267.958 80.12 268.292 79.72V71.6H269.732V82H268.372V80.86C267.985 81.2467 267.572 81.5667 267.132 81.82C266.705 82.0733 266.312 82.2 265.952 82.2C265.205 82.2 264.645 81.9733 264.272 81.52C263.912 81.0533 263.732 80.4 263.732 79.56V71.6H265.172ZM276.302 72.76C275.649 72.76 275.122 72.9067 274.722 73.2C274.322 73.48 273.955 73.9467 273.622 74.6V82H272.182V71.6H273.622V72.86H273.662C273.835 72.5933 274.002 72.3733 274.162 72.2C274.335 72.0133 274.522 71.86 274.722 71.74C274.922 71.62 275.149 71.5333 275.402 71.48C275.655 71.4267 275.955 71.4 276.302 71.4V72.76ZM64.8452 91.56V92.88H61.8852V106H60.3252V92.88H57.3652V91.56H64.8452ZM67.488 95.4C68.5947 95.4 69.4014 95.8333 69.908 96.7C70.4147 97.5667 70.668 98.9333 70.668 100.8C70.668 102.667 70.4147 104.033 69.908 104.9C69.4014 105.767 68.5947 106.2 67.488 106.2C66.368 106.2 65.5547 105.767 65.048 104.9C64.5547 104.033 64.308 102.667 64.308 100.8C64.308 98.9333 64.5547 97.5667 65.048 96.7C65.5547 95.8333 66.368 95.4 67.488 95.4ZM65.748 100.8C65.748 101.573 65.7747 102.233 65.828 102.78C65.8814 103.313 65.968 103.747 66.088 104.08C66.2214 104.4 66.4014 104.633 66.628 104.78C66.8547 104.927 67.1414 105 67.488 105C67.7947 105 68.0547 104.94 68.268 104.82C68.4947 104.7 68.6747 104.48 68.808 104.16C68.9547 103.84 69.0614 103.413 69.128 102.88C69.1947 102.333 69.228 101.64 69.228 100.8C69.228 99.9333 69.1947 99.2333 69.128 98.7C69.0614 98.1533 68.9547 97.7267 68.808 97.42C68.6747 97.1 68.4947 96.8867 68.268 96.78C68.0414 96.66 67.7747 96.6 67.468 96.6C67.1214 96.6 66.8347 96.6733 66.608 96.82C66.3947 96.9667 66.2214 97.2067 66.088 97.54C65.968 97.8733 65.8814 98.3067 65.828 98.84C65.7747 99.3733 65.748 100.027 65.748 100.8ZM75.4046 95.4C76.3779 95.4 77.1179 95.6733 77.6246 96.22C78.1313 96.7667 78.3846 97.46 78.3846 98.3V104.28C78.3846 104.627 78.4046 104.967 78.4446 105.3C78.4846 105.62 78.5513 105.853 78.6446 106H77.1446L76.9646 105.12C76.8179 105.253 76.6513 105.387 76.4646 105.52C76.2779 105.653 76.0846 105.773 75.8846 105.88C75.6846 105.973 75.4846 106.047 75.2846 106.1C75.0846 106.167 74.9046 106.2 74.7446 106.2C73.9313 106.2 73.2779 105.96 72.7846 105.48C72.2913 105 72.0446 104.347 72.0446 103.52C72.0446 102.52 72.4713 101.64 73.3246 100.88C74.1779 100.12 75.3846 99.56 76.9446 99.2V98.5C76.9446 97.9 76.8113 97.4333 76.5446 97.1C76.2779 96.7667 75.9113 96.6 75.4446 96.6C74.9779 96.6 74.5846 96.7867 74.2646 97.16C73.9579 97.52 73.7513 98.0133 73.6446 98.64L72.3246 98.44C72.4979 97.4533 72.8513 96.7 73.3846 96.18C73.9179 95.66 74.5913 95.4 75.4046 95.4ZM73.4846 103.4C73.4846 103.88 73.5979 104.267 73.8246 104.56C74.0513 104.853 74.4313 105 74.9646 105C75.6046 105 76.2646 104.64 76.9446 103.92V100.4C76.4513 100.547 75.9913 100.727 75.5646 100.94C75.1513 101.14 74.7846 101.367 74.4646 101.62C74.1579 101.873 73.9179 102.153 73.7446 102.46C73.5713 102.753 73.4846 103.067 73.4846 103.4ZM83.4349 95.4C84.2349 95.4 84.8749 95.62 85.3549 96.06C85.8349 96.4867 86.1616 97.0933 86.3349 97.88L85.1349 98.24C84.9616 97.6133 84.7283 97.1867 84.4349 96.96C84.1549 96.72 83.7949 96.6 83.3549 96.6C83.0083 96.6 82.7216 96.7133 82.4949 96.94C82.2816 97.1667 82.1749 97.4667 82.1749 97.84C82.1749 98.24 82.3283 98.6 82.6349 98.92C82.9416 99.24 83.3616 99.5533 83.8949 99.86C84.4816 100.207 84.9483 100.533 85.2949 100.84C85.6549 101.147 85.9283 101.44 86.1149 101.72C86.3016 102 86.4216 102.273 86.4749 102.54C86.5416 102.807 86.5749 103.073 86.5749 103.34C86.5749 103.753 86.5016 104.14 86.3549 104.5C86.2083 104.847 86.0083 105.147 85.7549 105.4C85.5016 105.653 85.2016 105.853 84.8549 106C84.5083 106.133 84.1349 106.2 83.7349 106.2C82.8683 106.2 82.1616 105.98 81.6149 105.54C81.0816 105.1 80.6816 104.4 80.4149 103.44L81.7349 103.16C81.9349 103.8 82.1949 104.267 82.5149 104.56C82.8483 104.853 83.2216 105 83.6349 105C84.0216 105 84.3683 104.847 84.6749 104.54C84.9816 104.22 85.1349 103.847 85.1349 103.42C85.1349 103.087 85.0616 102.8 84.9149 102.56C84.7683 102.32 84.5616 102.093 84.2949 101.88C84.0416 101.653 83.7349 101.427 83.3749 101.2C83.0149 100.973 82.6283 100.72 82.2149 100.44C81.7883 100.147 81.4349 99.7933 81.1549 99.38C80.8749 98.9667 80.7349 98.48 80.7349 97.92C80.7349 97.5733 80.8016 97.2533 80.9349 96.96C81.0683 96.6533 81.2549 96.3867 81.4949 96.16C81.7349 95.92 82.0149 95.7333 82.3349 95.6C82.6683 95.4667 83.0349 95.4 83.4349 95.4ZM90.1315 92.12V95.6H92.0515V96.8H90.1315V104.12C90.1315 104.387 90.2115 104.62 90.3715 104.82C90.5315 105.02 90.7982 105.12 91.1715 105.12C91.2915 105.12 91.4248 105.107 91.5715 105.08C91.7182 105.04 91.8782 104.987 92.0515 104.92V106C91.7982 106.067 91.5915 106.113 91.4315 106.14C91.2848 106.18 91.0448 106.2 90.7115 106.2C90.0048 106.2 89.4915 106.027 89.1715 105.68C88.8515 105.333 88.6915 104.787 88.6915 104.04V96.8H87.2915V95.6H88.6915V92.12H90.1315ZM104.158 91.56V92.88H101.198V106H99.6377V92.88H96.6777V91.56H104.158ZM106.894 91.56V96.74C107.241 96.3533 107.628 96.0333 108.054 95.78C108.481 95.5267 108.881 95.4 109.254 95.4C110.001 95.4 110.554 95.6333 110.914 96.1C111.274 96.5667 111.454 97.2133 111.454 98.04V106H110.014V98.3C110.014 97.7133 109.921 97.2867 109.734 97.02C109.561 96.74 109.274 96.6 108.874 96.6C108.514 96.6 108.174 96.7133 107.854 96.94C107.534 97.1533 107.214 97.4667 106.894 97.88V106H105.454V91.56H106.894ZM116.465 95.4C117.491 95.4 118.278 95.82 118.825 96.66C119.371 97.4867 119.645 98.7867 119.645 100.56V101.04H114.725V101.48C114.725 102.133 114.758 102.687 114.825 103.14C114.891 103.593 114.998 103.96 115.145 104.24C115.291 104.507 115.491 104.7 115.745 104.82C115.998 104.94 116.305 105 116.665 105C117.558 105 118.138 104.347 118.405 103.04L119.765 103.2C119.618 104.08 119.251 104.8 118.665 105.36C118.078 105.92 117.345 106.2 116.465 106.2C115.345 106.2 114.531 105.767 114.025 104.9C113.531 104.033 113.285 102.667 113.285 100.8C113.285 98.9333 113.531 97.5667 114.025 96.7C114.531 95.8333 115.345 95.4 116.465 95.4ZM118.205 99.84C118.178 98.68 118.038 97.8533 117.785 97.36C117.545 96.8533 117.098 96.6 116.445 96.6C115.858 96.6 115.425 96.86 115.145 97.38C114.865 97.8867 114.725 98.7067 114.725 99.84H118.205ZM131.818 91.56V92.88H128.858V106H127.298V92.88H124.338V91.56H131.818ZM136.021 96.76C135.367 96.76 134.841 96.9067 134.441 97.2C134.041 97.48 133.674 97.9467 133.341 98.6V106H131.901V95.6H133.341V96.86H133.381C133.554 96.5933 133.721 96.3733 133.881 96.2C134.054 96.0133 134.241 95.86 134.441 95.74C134.641 95.62 134.867 95.5333 135.121 95.48C135.374 95.4267 135.674 95.4 136.021 95.4V96.76ZM139.73 95.4C140.757 95.4 141.544 95.82 142.09 96.66C142.637 97.4867 142.91 98.7867 142.91 100.56V101.04H137.99V101.48C137.99 102.133 138.024 102.687 138.09 103.14C138.157 103.593 138.264 103.96 138.41 104.24C138.557 104.507 138.757 104.7 139.01 104.82C139.264 104.94 139.57 105 139.93 105C140.824 105 141.404 104.347 141.67 103.04L143.03 103.2C142.884 104.08 142.517 104.8 141.93 105.36C141.344 105.92 140.61 106.2 139.73 106.2C138.61 106.2 137.797 105.767 137.29 104.9C136.797 104.033 136.55 102.667 136.55 100.8C136.55 98.9333 136.797 97.5667 137.29 96.7C137.797 95.8333 138.61 95.4 139.73 95.4ZM141.47 99.84C141.444 98.68 141.304 97.8533 141.05 97.36C140.81 96.8533 140.364 96.6 139.71 96.6C139.124 96.6 138.69 96.86 138.41 97.38C138.13 97.8867 137.99 98.7067 137.99 99.84H141.47ZM147.207 95.4C148.233 95.4 149.02 95.82 149.567 96.66C150.113 97.4867 150.387 98.7867 150.387 100.56V101.04H145.467V101.48C145.467 102.133 145.5 102.687 145.567 103.14C145.633 103.593 145.74 103.96 145.887 104.24C146.033 104.507 146.233 104.7 146.487 104.82C146.74 104.94 147.047 105 147.407 105C148.3 105 148.88 104.347 149.147 103.04L150.507 103.2C150.36 104.08 149.993 104.8 149.407 105.36C148.82 105.92 148.087 106.2 147.207 106.2C146.087 106.2 145.273 105.767 144.767 104.9C144.273 104.033 144.027 102.667 144.027 100.8C144.027 98.9333 144.273 97.5667 144.767 96.7C145.273 95.8333 146.087 95.4 147.207 95.4ZM148.947 99.84C148.92 98.68 148.78 97.8533 148.527 97.36C148.287 96.8533 147.84 96.6 147.187 96.6C146.6 96.6 146.167 96.86 145.887 97.38C145.607 97.8867 145.467 98.7067 145.467 99.84H148.947ZM154.583 95.4C155.383 95.4 156.023 95.62 156.503 96.06C156.983 96.4867 157.31 97.0933 157.483 97.88L156.283 98.24C156.11 97.6133 155.877 97.1867 155.583 96.96C155.303 96.72 154.943 96.6 154.503 96.6C154.157 96.6 153.87 96.7133 153.643 96.94C153.43 97.1667 153.323 97.4667 153.323 97.84C153.323 98.24 153.477 98.6 153.783 98.92C154.09 99.24 154.51 99.5533 155.043 99.86C155.63 100.207 156.097 100.533 156.443 100.84C156.803 101.147 157.077 101.44 157.263 101.72C157.45 102 157.57 102.273 157.623 102.54C157.69 102.807 157.723 103.073 157.723 103.34C157.723 103.753 157.65 104.14 157.503 104.5C157.357 104.847 157.157 105.147 156.903 105.4C156.65 105.653 156.35 105.853 156.003 106C155.657 106.133 155.283 106.2 154.883 106.2C154.017 106.2 153.31 105.98 152.763 105.54C152.23 105.1 151.83 104.4 151.563 103.44L152.883 103.16C153.083 103.8 153.343 104.267 153.663 104.56C153.997 104.853 154.37 105 154.783 105C155.17 105 155.517 104.847 155.823 104.54C156.13 104.22 156.283 103.847 156.283 103.42C156.283 103.087 156.21 102.8 156.063 102.56C155.917 102.32 155.71 102.093 155.443 101.88C155.19 101.653 154.883 101.427 154.523 101.2C154.163 100.973 153.777 100.72 153.363 100.44C152.937 100.147 152.583 99.7933 152.303 99.38C152.023 98.9667 151.883 98.48 151.883 97.92C151.883 97.5733 151.95 97.2533 152.083 96.96C152.217 96.6533 152.403 96.3867 152.643 96.16C152.883 95.92 153.163 95.7333 153.483 95.6C153.817 95.4667 154.183 95.4 154.583 95.4ZM166.297 95.4C167.163 95.4 167.843 95.6667 168.337 96.2C168.843 96.72 169.177 97.5467 169.337 98.68H167.937C167.883 98 167.723 97.4867 167.457 97.14C167.19 96.78 166.803 96.6 166.297 96.6C165.95 96.6 165.663 96.6733 165.437 96.82C165.21 96.9667 165.03 97.2067 164.897 97.54C164.777 97.86 164.69 98.2867 164.637 98.82C164.583 99.3533 164.557 100.013 164.557 100.8C164.557 101.64 164.583 102.333 164.637 102.88C164.703 103.427 164.803 103.86 164.937 104.18C165.083 104.487 165.263 104.7 165.477 104.82C165.703 104.94 165.977 105 166.297 105C166.857 105 167.25 104.813 167.477 104.44C167.703 104.053 167.87 103.48 167.977 102.72H169.377C169.23 103.853 168.89 104.72 168.357 105.32C167.837 105.907 167.15 106.2 166.297 106.2C165.177 106.2 164.363 105.767 163.857 104.9C163.363 104.033 163.117 102.667 163.117 100.8C163.117 98.9333 163.363 97.5667 163.857 96.7C164.363 95.8333 165.177 95.4 166.297 95.4ZM173.773 95.4C174.88 95.4 175.687 95.8333 176.193 96.7C176.7 97.5667 176.953 98.9333 176.953 100.8C176.953 102.667 176.7 104.033 176.193 104.9C175.687 105.767 174.88 106.2 173.773 106.2C172.653 106.2 171.84 105.767 171.333 104.9C170.84 104.033 170.593 102.667 170.593 100.8C170.593 98.9333 170.84 97.5667 171.333 96.7C171.84 95.8333 172.653 95.4 173.773 95.4ZM172.033 100.8C172.033 101.573 172.06 102.233 172.113 102.78C172.167 103.313 172.253 103.747 172.373 104.08C172.507 104.4 172.687 104.633 172.913 104.78C173.14 104.927 173.427 105 173.773 105C174.08 105 174.34 104.94 174.553 104.82C174.78 104.7 174.96 104.48 175.093 104.16C175.24 103.84 175.347 103.413 175.413 102.88C175.48 102.333 175.513 101.64 175.513 100.8C175.513 99.9333 175.48 99.2333 175.413 98.7C175.347 98.1533 175.24 97.7267 175.093 97.42C174.96 97.1 174.78 96.8867 174.553 96.78C174.327 96.66 174.06 96.6 173.753 96.6C173.407 96.6 173.12 96.6733 172.893 96.82C172.68 96.9667 172.507 97.2067 172.373 97.54C172.253 97.8733 172.167 98.3067 172.113 98.84C172.06 99.3733 172.033 100.027 172.033 100.8ZM182.71 95.4C183.083 95.4 183.45 95.52 183.81 95.76C184.183 95.9867 184.436 96.3067 184.57 96.72C184.93 96.2933 185.316 95.9667 185.73 95.74C186.156 95.5133 186.576 95.4 186.99 95.4C187.696 95.4 188.223 95.6267 188.57 96.08C188.916 96.52 189.09 97.0733 189.09 97.74V106H187.65V97.94C187.65 97.4867 187.57 97.1533 187.41 96.94C187.263 96.7133 186.983 96.6 186.57 96.6C186.303 96.6 186.03 96.6667 185.75 96.8C185.483 96.9333 185.15 97.2267 184.75 97.68V106H183.31V97.94C183.31 97.5133 183.23 97.1867 183.07 96.96C182.91 96.72 182.61 96.6 182.17 96.6C181.876 96.6 181.59 96.68 181.31 96.84C181.03 96.9867 180.73 97.2667 180.41 97.68V106H178.97V95.6H180.29V96.74C180.663 96.2867 181.056 95.9533 181.47 95.74C181.883 95.5133 182.296 95.4 182.71 95.4ZM195.753 95.4C196.126 95.4 196.493 95.52 196.853 95.76C197.226 95.9867 197.479 96.3067 197.613 96.72C197.973 96.2933 198.359 95.9667 198.773 95.74C199.199 95.5133 199.619 95.4 200.033 95.4C200.739 95.4 201.266 95.6267 201.613 96.08C201.959 96.52 202.133 97.0733 202.133 97.74V106H200.693V97.94C200.693 97.4867 200.613 97.1533 200.453 96.94C200.306 96.7133 200.026 96.6 199.613 96.6C199.346 96.6 199.073 96.6667 198.793 96.8C198.526 96.9333 198.193 97.2267 197.793 97.68V106H196.353V97.94C196.353 97.5133 196.273 97.1867 196.113 96.96C195.953 96.72 195.653 96.6 195.213 96.6C194.919 96.6 194.633 96.68 194.353 96.84C194.073 96.9867 193.773 97.2667 193.453 97.68V106H192.013V95.6H193.333V96.74C193.706 96.2867 194.099 95.9533 194.513 95.74C194.926 95.5133 195.339 95.4 195.753 95.4ZM206.396 91.56V93.24H204.956V91.56H206.396ZM206.396 95.6V106H204.956V95.6H206.396ZM210.592 92.12V95.6H212.512V96.8H210.592V104.12C210.592 104.387 210.672 104.62 210.832 104.82C210.992 105.02 211.259 105.12 211.632 105.12C211.752 105.12 211.886 105.107 212.032 105.08C212.179 105.04 212.339 104.987 212.512 104.92V106C212.259 106.067 212.052 106.113 211.892 106.14C211.746 106.18 211.506 106.2 211.172 106.2C210.466 106.2 209.952 106.027 209.632 105.68C209.312 105.333 209.152 104.787 209.152 104.04V96.8H207.752V95.6H209.152V92.12H210.592ZM218.202 95.4C218.575 95.4 218.942 95.52 219.302 95.76C219.675 95.9867 219.929 96.3067 220.062 96.72C220.422 96.2933 220.809 95.9667 221.222 95.74C221.649 95.5133 222.069 95.4 222.482 95.4C223.189 95.4 223.715 95.6267 224.062 96.08C224.409 96.52 224.582 97.0733 224.582 97.74V106H223.142V97.94C223.142 97.4867 223.062 97.1533 222.902 96.94C222.755 96.7133 222.475 96.6 222.062 96.6C221.795 96.6 221.522 96.6667 221.242 96.8C220.975 96.9333 220.642 97.2267 220.242 97.68V106H218.802V97.94C218.802 97.5133 218.722 97.1867 218.562 96.96C218.402 96.72 218.102 96.6 217.662 96.6C217.369 96.6 217.082 96.68 216.802 96.84C216.522 96.9867 216.222 97.2667 215.902 97.68V106H214.462V95.6H215.782V96.74C216.155 96.2867 216.549 95.9533 216.962 95.74C217.375 95.5133 217.789 95.4 218.202 95.4ZM229.785 95.4C230.812 95.4 231.598 95.82 232.145 96.66C232.692 97.4867 232.965 98.7867 232.965 100.56V101.04H228.045V101.48C228.045 102.133 228.078 102.687 228.145 103.14C228.212 103.593 228.318 103.96 228.465 104.24C228.612 104.507 228.812 104.7 229.065 104.82C229.318 104.94 229.625 105 229.985 105C230.878 105 231.458 104.347 231.725 103.04L233.085 103.2C232.938 104.08 232.572 104.8 231.985 105.36C231.398 105.92 230.665 106.2 229.785 106.2C228.665 106.2 227.852 105.767 227.345 104.9C226.852 104.033 226.605 102.667 226.605 100.8C226.605 98.9333 226.852 97.5667 227.345 96.7C227.852 95.8333 228.665 95.4 229.785 95.4ZM231.525 99.84C231.498 98.68 231.358 97.8533 231.105 97.36C230.865 96.8533 230.418 96.6 229.765 96.6C229.178 96.6 228.745 96.86 228.465 97.38C228.185 97.8867 228.045 98.7067 228.045 99.84H231.525ZM238.541 95.4C239.328 95.4 239.901 95.6333 240.261 96.1C240.635 96.5667 240.821 97.2133 240.821 98.04V106H239.381V98.24C239.381 97.6933 239.288 97.2867 239.101 97.02C238.928 96.74 238.641 96.6 238.241 96.6C237.881 96.6 237.541 96.7133 237.221 96.94C236.901 97.1533 236.581 97.4667 236.261 97.88V106H234.821V95.6H236.181V96.74C236.581 96.3267 236.995 96 237.421 95.76C237.861 95.52 238.235 95.4 238.541 95.4ZM244.952 92.12V95.6H246.872V96.8H244.952V104.12C244.952 104.387 245.032 104.62 245.192 104.82C245.352 105.02 245.618 105.12 245.992 105.12C246.112 105.12 246.245 105.107 246.392 105.08C246.538 105.04 246.698 104.987 246.872 104.92V106C246.618 106.067 246.412 106.113 246.252 106.14C246.105 106.18 245.865 106.2 245.532 106.2C244.825 106.2 244.312 106.027 243.992 105.68C243.672 105.333 243.512 104.787 243.512 104.04V96.8H242.112V95.6H243.512V92.12H244.952ZM250.281 104.12V106H248.601V104.12H250.281Z" fill="#402020"/>
</svg>
