<svg width="329" height="94" viewBox="0 0 329 94" fill="none" xmlns="http://www.w3.org/2000/svg">
<path d="M54.1373 52H42.0533V11.074H47.5253V47.44H54.1373V52ZM60.5227 52V11.074H72.6067V15.634H65.9947V29.599H72.6067V34.159H65.9947V47.44H72.6067V52H60.5227ZM84.7356 52H79.2636V18.085C79.2636 13.411 81.4486 11.074 85.8186 11.074H89.9226C94.2926 11.074 96.4776 13.411 96.4776 18.085V52H91.0056V37.009H84.7356V52ZM91.0056 32.05V18.427C91.0056 16.831 90.2076 16.033 88.6116 16.033H87.1296C85.5336 16.033 84.7356 16.831 84.7356 18.427V32.05H91.0056ZM103.974 11.074H113.493C118.623 11.074 121.188 13.696 121.188 18.94V46.072C121.188 50.024 119.003 52 114.633 52H103.974V11.074ZM109.446 47.041H113.55C114.994 47.041 115.716 46.433 115.716 45.217V18.997C115.716 17.021 114.899 16.033 113.265 16.033H109.446V47.041ZM128.733 52V11.074H140.817V15.634H134.205V29.599H140.817V34.159H134.205V47.44H140.817V52H128.733ZM159.558 52L155.967 35.47H152.661V52H147.189V11.074H157.905C162.085 11.074 164.175 13.411 164.175 18.085V28.174C164.175 31.708 163.092 33.969 160.926 34.957L164.745 52H159.558ZM152.661 30.796H156.252C157.886 30.796 158.703 29.808 158.703 27.832V18.997C158.703 17.021 157.886 16.033 156.252 16.033H152.661V30.796ZM184.395 31.765C187.397 31.765 188.898 33.228 188.898 36.154V45.901C188.898 49.967 186.827 52 182.685 52H171.684V11.074H180.462C185.326 11.074 187.758 13.544 187.758 18.484V27.148C187.682 29.618 186.561 31.157 184.395 31.765ZM177.156 47.44H181.716C182.856 47.44 183.426 46.851 183.426 45.673V37.066C183.426 35.128 182.343 34.159 180.177 34.159H177.156V47.44ZM177.156 29.599H179.607C180.633 29.599 181.336 29.409 181.716 29.029C182.096 28.611 182.286 27.908 182.286 26.92V18.598C182.286 16.622 181.469 15.634 179.835 15.634H177.156V29.599ZM202.721 52C198.313 52 196.109 49.682 196.109 45.046V18.085C196.109 13.411 198.294 11.074 202.664 11.074H207.338C211.708 11.074 213.893 13.411 213.893 18.085V45.046C213.893 49.682 211.689 52 207.281 52H202.721ZM206.54 47.44C207.794 47.44 208.421 46.737 208.421 45.331V17.743C208.421 16.337 207.699 15.634 206.255 15.634H203.69C202.284 15.634 201.581 16.337 201.581 17.743V45.331C201.581 46.737 202.303 47.44 203.747 47.44H206.54ZM226.891 52H221.419V18.085C221.419 13.411 223.604 11.074 227.974 11.074H232.078C236.448 11.074 238.633 13.411 238.633 18.085V52H233.161V37.009H226.891V52ZM233.161 32.05V18.427C233.161 16.831 232.363 16.033 230.767 16.033H229.285C227.689 16.033 226.891 16.831 226.891 18.427V32.05H233.161ZM257.928 52L254.337 35.47H251.031V52H245.559V11.074H256.275C260.455 11.074 262.545 13.411 262.545 18.085V28.174C262.545 31.708 261.462 33.969 259.296 34.957L263.115 52H257.928ZM251.031 30.796H254.622C256.256 30.796 257.073 29.808 257.073 27.832V18.997C257.073 17.021 256.256 16.033 254.622 16.033H251.031V30.796ZM270.053 11.074H279.572C284.702 11.074 287.267 13.696 287.267 18.94V46.072C287.267 50.024 285.082 52 280.712 52H270.053V11.074ZM275.525 47.041H279.629C281.073 47.041 281.795 46.433 281.795 45.217V18.997C281.795 17.021 280.978 16.033 279.344 16.033H275.525V47.041Z" fill="#8A1E41"/>
<path d="M13.7388 69.412V86H11.2428V69.412H8.8508V67.332H16.1308V69.412H13.7388ZM21.8108 86C19.8001 86 18.7948 84.9427 18.7948 82.828V70.53C18.7948 68.398 19.7915 67.332 21.7848 67.332H23.9168C25.9101 67.332 26.9068 68.398 26.9068 70.53V82.828C26.9068 84.9427 25.9015 86 23.8908 86H21.8108ZM23.5528 83.92C24.1248 83.92 24.4108 83.5993 24.4108 82.958V70.374C24.4108 69.7327 24.0815 69.412 23.4228 69.412H22.2528C21.6115 69.412 21.2908 69.7327 21.2908 70.374V82.958C21.2908 83.5993 21.6201 83.92 22.2788 83.92H23.5528ZM32.9654 86H30.4694V67.332H35.1754C37.1861 67.332 38.1914 68.398 38.1914 70.53V74.794C38.1914 76.094 37.7841 77.108 36.9694 77.836C36.1547 78.5467 34.9587 78.902 33.3814 78.902H32.9654V86ZM32.9654 76.822H33.3814C34.1614 76.822 34.7421 76.6747 35.1234 76.38C35.5047 76.0853 35.6954 75.6087 35.6954 74.95V70.244C35.7127 69.6893 35.4181 69.412 34.8114 69.412H32.9654V76.822ZM49.1006 83.01C49.1006 83.4953 49.3433 83.738 49.8286 83.738H50.7906C51.2586 83.738 51.4926 83.4953 51.4926 83.01V77.914C51.4926 77.4113 51.198 77.16 50.6086 77.16H46.6826V67.332H53.7286V69.646H49.0226V74.898H51.2326C53.07 74.898 53.9886 75.7473 53.9886 77.446V82.698C53.9886 84.8993 52.992 86 50.9986 86H49.5946C47.6013 86 46.6046 84.9427 46.6046 82.828V81.372H49.1006V83.01ZM70.3887 81.112V82.828C70.3887 84.9427 69.3921 86 67.3987 86H65.7867C63.7934 86 62.7967 84.9427 62.7967 82.828V70.504C62.7967 68.3893 63.7934 67.332 65.7867 67.332H67.3987C69.3921 67.332 70.3887 68.3893 70.3887 70.504V73.13H67.8927V70.504C67.8927 69.776 67.5201 69.412 66.7747 69.412H66.2807C65.6221 69.412 65.2927 69.776 65.2927 70.504V82.828C65.2927 83.556 65.6221 83.92 66.2807 83.92H66.9047C67.5634 83.92 67.8927 83.556 67.8927 82.828V81.112H70.3887ZM73.5573 86V67.332H76.0533V86H73.5573ZM83.5986 69.412V86H81.1026V69.412H78.7106V67.332H85.9906V69.412H83.5986ZM88.6546 86V67.332H91.1506V86H88.6546ZM94.7178 86V67.332H100.23V69.412H97.2138V75.782H100.23V77.862H97.2138V83.92H100.23V86H94.7178ZM108.206 73.13V70.218C108.224 69.6807 107.964 69.412 107.426 69.412H106.698C106.126 69.412 105.858 69.6893 105.892 70.244V74.014C105.892 74.3607 105.962 74.5947 106.1 74.716C106.239 74.82 106.421 74.9327 106.646 75.054L109.766 76.926C110.217 77.2033 110.503 77.4807 110.624 77.758C110.746 78.018 110.806 78.4427 110.806 79.032V82.854C110.806 84.9513 109.801 86 107.79 86H106.256C104.263 86 103.266 84.856 103.266 82.568V81.138H105.762V83.14C105.762 83.66 106.014 83.92 106.516 83.92H107.582C108.085 83.92 108.328 83.66 108.31 83.14V79.344C108.31 78.9973 108.25 78.772 108.128 78.668C108.024 78.5467 107.877 78.434 107.686 78.33L104.54 76.354C104.246 76.1633 104.02 75.99 103.864 75.834C103.726 75.6607 103.613 75.496 103.526 75.34C103.457 75.1667 103.414 74.9847 103.396 74.794C103.396 74.6033 103.396 74.3867 103.396 74.144V70.53C103.396 68.398 104.393 67.332 106.386 67.332H107.712C109.706 67.332 110.702 68.398 110.702 70.53V73.13H108.206ZM127.385 76.822L127.411 86H122.601C120.607 86 119.611 84.9427 119.611 82.828V70.504C119.611 68.3893 120.607 67.332 122.601 67.332H124.213C126.206 67.332 127.203 68.3893 127.203 70.504V73.13H124.707V70.686C124.707 69.958 124.334 69.594 123.589 69.594H123.095C122.436 69.594 122.107 69.958 122.107 70.686V82.646C122.107 83.374 122.479 83.738 123.225 83.738H124.889V78.902H123.381V76.822H127.385ZM130.981 86V67.332H136.493V69.412H133.477V75.782H136.493V77.862H133.477V83.92H136.493V86H130.981ZM143.637 69.412V86H141.141V69.412H138.749V67.332H146.029V69.412H143.637ZM159.453 86L157.815 78.46H156.307V86H153.811V67.332H158.699C160.606 67.332 161.559 68.398 161.559 70.53V75.132C161.559 76.744 161.065 77.7753 160.077 78.226L161.819 86H159.453ZM156.307 76.328H157.945C158.69 76.328 159.063 75.8773 159.063 74.976V70.946C159.063 70.0447 158.69 69.594 157.945 69.594H156.307V76.328ZM164.984 86V67.332H170.496V69.412H167.48V75.782H170.496V77.862H167.48V83.92H170.496V86H164.984ZM176.028 86H173.532V70.53C173.532 68.398 174.529 67.332 176.522 67.332H178.394C180.388 67.332 181.384 68.398 181.384 70.53V86H178.888V79.162H176.028V86ZM178.888 76.9V70.686C178.888 69.958 178.524 69.594 177.796 69.594H177.12C176.392 69.594 176.028 69.958 176.028 70.686V76.9H178.888ZM190.316 86H184.804V67.332H187.3V83.92H190.316V86ZM202.584 69.412V86H200.088V69.412H197.696V67.332H204.976V69.412H202.584ZM213.022 86L211.384 78.46H209.876V86H207.38V67.332H212.268C214.175 67.332 215.128 68.398 215.128 70.53V75.132C215.128 76.744 214.634 77.7753 213.646 78.226L215.388 86H213.022ZM209.876 76.328H211.514C212.259 76.328 212.632 75.8773 212.632 74.976V70.946C212.632 70.0447 212.259 69.594 211.514 69.594H209.876V76.328ZM218.553 86V67.332H224.065V69.412H221.049V75.782H224.065V77.862H221.049V83.92H224.065V86H218.553ZM227.232 86V67.332H232.744V69.412H229.728V75.782H232.744V77.862H229.728V83.92H232.744V86H227.232ZM240.72 73.13V70.218C240.737 69.6807 240.477 69.412 239.94 69.412H239.212C238.64 69.412 238.371 69.6893 238.406 70.244V74.014C238.406 74.3607 238.475 74.5947 238.614 74.716C238.753 74.82 238.935 74.9327 239.16 75.054L242.28 76.926C242.731 77.2033 243.017 77.4807 243.138 77.758C243.259 78.018 243.32 78.4427 243.32 79.032V82.854C243.32 84.9513 242.315 86 240.304 86H238.77C236.777 86 235.78 84.856 235.78 82.568V81.138H238.276V83.14C238.276 83.66 238.527 83.92 239.03 83.92H240.096C240.599 83.92 240.841 83.66 240.824 83.14V79.344C240.824 78.9973 240.763 78.772 240.642 78.668C240.538 78.5467 240.391 78.434 240.2 78.33L237.054 76.354C236.759 76.1633 236.534 75.99 236.378 75.834C236.239 75.6607 236.127 75.496 236.04 75.34C235.971 75.1667 235.927 74.9847 235.91 74.794C235.91 74.6033 235.91 74.3867 235.91 74.144V70.53C235.91 68.398 236.907 67.332 238.9 67.332H240.226C242.219 67.332 243.216 68.398 243.216 70.53V73.13H240.72ZM254.62 86H252.124V67.332H256.83C258.841 67.332 259.846 68.398 259.846 70.53V74.794C259.846 76.094 259.439 77.108 258.624 77.836C257.81 78.5467 256.614 78.902 255.036 78.902H254.62V86ZM254.62 76.822H255.036C255.816 76.822 256.397 76.6747 256.778 76.38C257.16 76.0853 257.35 75.6087 257.35 74.95V70.244C257.368 69.6893 257.073 69.412 256.466 69.412H254.62V76.822ZM268.524 86H263.012V67.332H265.508V83.92H268.524V86ZM273.803 86H271.307V70.53C271.307 68.398 272.303 67.332 274.297 67.332H276.169C278.162 67.332 279.159 68.398 279.159 70.53V86H276.663V79.162H273.803V86ZM276.663 76.9V70.686C276.663 69.958 276.299 69.594 275.571 69.594H274.895C274.167 69.594 273.803 69.958 273.803 70.686V76.9H276.663ZM287.752 67.332H290.248V86H287.752V82.282L285.074 73.78V86H282.578V67.332H285.074L287.752 76.354V67.332ZM297.799 69.412V86H295.303V69.412H292.911V67.332H300.191V69.412H297.799ZM302.855 86V67.332H308.367V69.412H305.351V75.782H308.367V77.862H305.351V83.92H308.367V86H302.855ZM311.533 67.332H315.875C318.215 67.332 319.385 68.528 319.385 70.92V83.296C319.385 85.0987 318.389 86 316.395 86H311.533V67.332ZM314.029 83.738H315.901C316.56 83.738 316.889 83.4607 316.889 82.906V70.946C316.889 70.0447 316.517 69.594 315.771 69.594H314.029V83.738Z" fill="#AA9767"/>
</svg>
