<svg width="265" height="65" viewBox="0 0 265 65" fill="none" xmlns="http://www.w3.org/2000/svg">
<rect width="265" height="65" fill="#8A1E41"/>
<rect x="4.66626" y="5.25" width="255.667" height="54.5" stroke="url(#paint0_linear_7_8225)" stroke-width="0.5"/>
<g filter="url(#filter0_d_7_8225)">
<path d="M40.4513 44.1431V22.6031H46.8113V25.0031H43.3313V32.3531H46.8113V34.7531H43.3313V41.7431H46.8113V44.1431H40.4513ZM56.435 22.6031H59.315V44.1431H56.435V39.8531L53.345 30.0431V44.1431H50.465V22.6031H53.345L56.435 33.0131V22.6031ZM68.0276 25.0031V44.1431H65.1476V25.0031H62.3876V22.6031H70.7876V25.0031H68.0276ZM73.8615 44.1431V22.6031H80.2215V25.0031H76.7415V32.3531H80.2215V34.7531H76.7415V41.7431H80.2215V44.1431H73.8615ZM90.0851 44.1431L88.1951 35.4431H86.4551V44.1431H83.5751V22.6031H89.2151C91.4151 22.6031 92.5151 23.8331 92.5151 26.2931V31.6031C92.5151 33.4631 91.9451 34.6531 90.8051 35.1731L92.8151 44.1431H90.0851ZM86.4551 32.9831H88.3451C89.2051 32.9831 89.6351 32.4631 89.6351 31.4231V26.7731C89.6351 25.7331 89.2051 25.2131 88.3451 25.2131H86.4551V32.9831ZM111.432 38.5031V40.4831C111.432 42.9231 110.282 44.1431 107.982 44.1431H106.122C103.822 44.1431 102.672 42.9231 102.672 40.4831V26.2631C102.672 23.8231 103.822 22.6031 106.122 22.6031H107.982C110.282 22.6031 111.432 23.8231 111.432 26.2631V29.2931H108.552V26.2631C108.552 25.4231 108.122 25.0031 107.262 25.0031H106.692C105.932 25.0031 105.552 25.4231 105.552 26.2631V40.4831C105.552 41.3231 105.932 41.7431 106.692 41.7431H107.412C108.172 41.7431 108.552 41.3231 108.552 40.4831V38.5031H111.432ZM118.568 44.1431C116.248 44.1431 115.088 42.9231 115.088 40.4831V26.2931C115.088 23.8331 116.238 22.6031 118.538 22.6031H120.998C123.298 22.6031 124.448 23.8331 124.448 26.2931V40.4831C124.448 42.9231 123.288 44.1431 120.968 44.1431H118.568ZM120.578 41.7431C121.238 41.7431 121.568 41.3731 121.568 40.6331V26.1131C121.568 25.3731 121.188 25.0031 120.428 25.0031H119.078C118.338 25.0031 117.968 25.3731 117.968 26.1131V40.6331C117.968 41.3731 118.348 41.7431 119.108 41.7431H120.578ZM134.409 35.2631L137.079 22.6031H140.259V44.1431H137.379L137.679 30.0431L135.519 40.2431H133.299L131.139 30.0431L131.439 44.1431H128.559V22.6031H131.739L134.409 35.2631ZM147.253 44.1431H144.373V22.6031H149.803C152.123 22.6031 153.283 23.8331 153.283 26.2931V31.2131C153.283 32.7131 152.813 33.8831 151.873 34.7231C150.933 35.5431 149.553 35.9531 147.733 35.9531H147.253V44.1431ZM147.253 33.5531H147.733C148.633 33.5531 149.303 33.3831 149.743 33.0431C150.183 32.7031 150.403 32.1531 150.403 31.3931V25.9631C150.423 25.3231 150.083 25.0031 149.383 25.0031H147.253V33.5531ZM156.936 44.1431V22.6031H163.296V25.0031H159.816V32.3531H163.296V34.7531H159.816V41.7431H163.296V44.1431H156.936ZM171.539 25.0031V44.1431H168.659V25.0031H165.899V22.6031H174.299V25.0031H171.539ZM177.373 44.1431V22.6031H180.253V44.1431H177.373ZM188.959 25.0031V44.1431H186.079V25.0031H183.319V22.6031H191.719V25.0031H188.959ZM194.793 44.1431V22.6031H197.673V44.1431H194.793ZM205.269 44.1431C202.949 44.1431 201.789 42.9231 201.789 40.4831V26.2931C201.789 23.8331 202.939 22.6031 205.239 22.6031H207.699C209.999 22.6031 211.149 23.8331 211.149 26.2931V40.4831C211.149 42.9231 209.989 44.1431 207.669 44.1431H205.269ZM207.279 41.7431C207.939 41.7431 208.269 41.3731 208.269 40.6331V26.1131C208.269 25.3731 207.889 25.0031 207.129 25.0031H205.779C205.039 25.0031 204.669 25.3731 204.669 26.1131V40.6331C204.669 41.3731 205.049 41.7431 205.809 41.7431H207.279ZM221.23 22.6031H224.11V44.1431H221.23V39.8531L218.14 30.0431V44.1431H215.26V22.6031H218.14L221.23 33.0131V22.6031Z" fill="white"/>
</g>
<defs>
<filter id="filter0_d_7_8225" x="34.4514" y="16.603" width="195.658" height="33.54" filterUnits="userSpaceOnUse" color-interpolation-filters="sRGB">
<feFlood flood-opacity="0" result="BackgroundImageFix"/>
<feColorMatrix in="SourceAlpha" type="matrix" values="0 0 0 0 0 0 0 0 0 0 0 0 0 0 0 0 0 0 127 0" result="hardAlpha"/>
<feOffset/>
<feGaussianBlur stdDeviation="3"/>
<feComposite in2="hardAlpha" operator="out"/>
<feColorMatrix type="matrix" values="0 0 0 0 0 0 0 0 0 0 0 0 0 0 0 0 0 0 0.33 0"/>
<feBlend mode="normal" in2="BackgroundImageFix" result="effect1_dropShadow_7_8225"/>
<feBlend mode="normal" in="SourceGraphic" in2="effect1_dropShadow_7_8225" result="shape"/>
</filter>
<linearGradient id="paint0_linear_7_8225" x1="4.41626" y1="32.4973" x2="260.583" y2="32.4973" gradientUnits="userSpaceOnUse">
<stop offset="0.03" stop-color="#7E653E"/>
<stop offset="0.04" stop-color="#87704C"/>
<stop offset="0.07" stop-color="#978263"/>
<stop offset="0.09" stop-color="#A28F74"/>
<stop offset="0.13" stop-color="#A8977E"/>
<stop offset="0.17" stop-color="#AB9A82"/>
<stop offset="0.19" stop-color="#9F8F75"/>
<stop offset="0.25" stop-color="#8A7B5E"/>
<stop offset="0.31" stop-color="#7D7050"/>
<stop offset="0.36" stop-color="#796C4C"/>
<stop offset="0.39" stop-color="#867956"/>
<stop offset="0.5" stop-color="#B4A578"/>
<stop offset="0.6" stop-color="#D6C591"/>
<stop offset="0.68" stop-color="#EAD8A0"/>
<stop offset="0.73" stop-color="#F2E0A6"/>
<stop offset="0.78" stop-color="#EDDBA2"/>
<stop offset="0.83" stop-color="#E1CF99"/>
<stop offset="0.88" stop-color="#CEBA89"/>
<stop offset="0.94" stop-color="#B29D73"/>
<stop offset="0.99" stop-color="#8E7857"/>
<stop offset="1" stop-color="#877152"/>
</linearGradient>
</defs>
</svg>
