<?xml version="1.0" encoding="UTF-8"?><svg id="Layer_2" xmlns="http://www.w3.org/2000/svg" xmlns:xlink="http://www.w3.org/1999/xlink" viewBox="0 0 1596.086 1097.477"><defs><style>.cls-1{stroke:url(#AE_Brass-13);}.cls-1,.cls-2,.cls-3,.cls-4,.cls-5,.cls-6,.cls-7,.cls-8,.cls-9,.cls-10,.cls-11,.cls-12,.cls-13,.cls-14,.cls-15,.cls-16{fill:none;stroke-miterlimit:10;stroke-width:2px;}.cls-2{stroke:url(#AE_Brass-14);}.cls-3{stroke:url(#AE_Brass-5);}.cls-4{stroke:url(#AE_Brass-15);}.cls-5{stroke:url(#AE_Brass-7);}.cls-6{stroke:url(#AE_Brass-10);}.cls-7{stroke:url(#AE_Brass);}.cls-8{stroke:url(#AE_Brass-6);}.cls-9{stroke:url(#AE_Brass-11);}.cls-10{stroke:url(#AE_Brass-9);}.cls-11{stroke:url(#AE_Brass-2);}.cls-12{stroke:url(#AE_Brass-3);}.cls-13{stroke:url(#AE_Brass-8);}.cls-14{stroke:url(#AE_Brass-16);}.cls-15{stroke:url(#AE_Brass-4);}.cls-16{stroke:url(#AE_Brass-12);}</style><linearGradient id="AE_Brass" x1="-3866.761" y1="-4120.914" x2="-2982.7" y2="-4120.914" gradientTransform="translate(-2792.833 3866.761) rotate(90)" gradientUnits="userSpaceOnUse"><stop offset="0" stop-color="#7e643e"/><stop offset=".025" stop-color="#7e643e"/><stop offset=".037" stop-color="#866e4a"/><stop offset=".065" stop-color="#968162"/><stop offset=".095" stop-color="#a18f74"/><stop offset=".127" stop-color="#a8977e"/><stop offset=".166" stop-color="#ab9a82"/><stop offset=".194" stop-color="#9e8e74"/><stop offset=".255" stop-color="#8a7b5d"/><stop offset=".312" stop-color="#7e6f4f"/><stop offset=".362" stop-color="#7a6c4b"/><stop offset=".383" stop-color="#837552"/><stop offset=".496" stop-color="#b3a376"/><stop offset=".595" stop-color="#d5c490"/><stop offset=".676" stop-color="#ead8a0"/><stop offset=".73" stop-color="#f2e0a6"/><stop offset=".781" stop-color="#eedba2"/><stop offset=".832" stop-color="#e2cf99"/><stop offset=".884" stop-color="#cebb8a"/><stop offset=".936" stop-color="#b29f74"/><stop offset=".988" stop-color="#8f7a59"/><stop offset="1" stop-color="#867152"/></linearGradient><linearGradient id="AE_Brass-2" x1="-3866.191" y1="-4370.446" x2="-3830.457" y2="-4370.446" xlink:href="#AE_Brass"/><linearGradient id="AE_Brass-3" x1="-3849.438" y1="-4102.763" x2="-3058.358" y2="-4102.763" xlink:href="#AE_Brass"/><linearGradient id="AE_Brass-4" x1="-3832.113" y1="-4102.984" x2="-3066.802" y2="-4102.984" xlink:href="#AE_Brass"/><linearGradient id="AE_Brass-5" x1="-2982.7" y1="-3591.376" x2="-2769.284" y2="-3591.376" xlink:href="#AE_Brass"/><linearGradient id="AE_Brass-6" x1="-2805.429" y1="-4370.171" x2="-2770.566" y2="-4370.171" xlink:href="#AE_Brass"/><linearGradient id="AE_Brass-7" x1="-3058.358" y1="-3591.376" x2="-2786.607" y2="-3591.376" xlink:href="#AE_Brass"/><linearGradient id="AE_Brass-8" x1="-3066.802" y1="-3591.763" x2="-2803.933" y2="-3591.763" xlink:href="#AE_Brass"/><linearGradient id="AE_Brass-9" x1="-2908.512" y1="-4382.115" x2="-2906.512" y2="-4382.115" xlink:href="#AE_Brass"/><linearGradient id="AE_Brass-10" x1="-3866.761" y1="-3061.733" x2="-2770.284" y2="-3061.733" xlink:href="#AE_Brass"/><linearGradient id="AE_Brass-11" x1="-3866.176" y1="-2811.209" x2="-3830.664" y2="-2811.209" xlink:href="#AE_Brass"/><linearGradient id="AE_Brass-12" x1="-3849.438" y1="-3079.884" x2="-2787.607" y2="-3079.884" xlink:href="#AE_Brass"/><linearGradient id="AE_Brass-13" x1="-3832.372" y1="-3078.966" x2="-2804.733" y2="-3078.966" xlink:href="#AE_Brass"/><linearGradient id="AE_Brass-14" x1="-2806.851" y1="-2811.943" x2="-2769.865" y2="-2811.943" xlink:href="#AE_Brass"/><linearGradient id="AE_Brass-15" x1="527.081" y1="20.119" x2="557.56" y2="14.744" gradientTransform="matrix(1,0,0,1,0,0)" xlink:href="#AE_Brass"/><linearGradient id="AE_Brass-16" x1="-10888.854" y1="45.199" x2="-10858.376" y2="39.825" gradientTransform="translate(-9825.86 61.831) rotate(-180)" xlink:href="#AE_Brass"/></defs><g id="Layer_1-2"><polyline class="cls-7" points="1060.076 1.102 1595.086 1 1595.086 884.061"/><line class="cls-11" x1="1594.813" y1="1.278" x2="1560.414" y2="35.596"/><polyline class="cls-12" points="1577.723 808.403 1577.723 18.323 1041.137 18.323"/><polyline class="cls-15" points="1560.346 799.959 1560.346 35.648 1058.957 35.75"/><polyline class="cls-3" points="1 1096.477 1595.086 1096.477 1595.086 884.061"/><line class="cls-8" x1="1594.1" y1="1095.487" x2="1560.575" y2="1062.041"/><polyline class="cls-5" points="1577.723 808.403 1577.723 1079.154 18.363 1079.154"/><polyline class="cls-13" points="1560.346 799.959 1560.346 1061.828 36.513 1061.828"/><line class="cls-10" x1="1589.28" y1="959.249" x2="1589.284" y2="959.249"/><polyline class="cls-6" points="537.801 1 1 1 1 1096.477"/><line class="cls-9" x1="1.287" y1="1.293" x2="35.465" y2="35.389"/><polyline class="cls-16" points="18.363 1079.154 18.363 18.323 556.74 18.323"/><polyline class="cls-1" points="537.801 35.648 35.465 35.389 36.513 1062.027"/><line class="cls-2" x1="1.283" y1="1096.189" x2="36.938" y2="1060.618"/><path class="cls-4" d="m540.094,1l8.845,17.427-8.845,17.427m8.845-17.427h8.126m-13.986,17.269l-13.079-.048,13.5.016c1.513,0,3.025-.347,4.319-1.13.592-.358,1.122-.791,1.383-1.285l7.863-14.901-7.863-14.901c-.782-1.482-2.318-2.411-3.994-2.416l-15.209-.031h13.079"/><path class="cls-14" d="m1049.982,35.75l-8.845-17.427,8.845-17.427m-8.845,17.427h-8.126m13.986-17.269l13.079.048-13.5-.016c-1.513,0-3.025.347-4.319,1.13-.592.358-1.122.791-1.383,1.285l-7.863,14.901,7.863,14.901c.782,1.482,2.318,2.411,3.994,2.416l15.209.031h-13.079"/></g></svg>