<?xml version="1.0" encoding="UTF-8"?><svg id="Layer_2" xmlns="http://www.w3.org/2000/svg" xmlns:xlink="http://www.w3.org/1999/xlink" viewBox="0 0 1155.54 1562.83" preserveAspectRatio="none"><defs><style>.cls-1{stroke:url(#AE_Brass-13);}.cls-1,.cls-2,.cls-3,.cls-4,.cls-5,.cls-6,.cls-7,.cls-8,.cls-9,.cls-10,.cls-11,.cls-12,.cls-13,.cls-14,.cls-15{fill:none;stroke-miterlimit:10;stroke-width:2px;}.cls-2{stroke:url(#AE_Brass-14);}.cls-3{stroke:url(#AE_Brass-5);}.cls-4{stroke:url(#AE_Brass-15);}.cls-5{stroke:url(#AE_Brass-7);}.cls-6{stroke:url(#AE_Brass-10);}.cls-7{stroke:url(#AE_Brass);}.cls-8{stroke:url(#AE_Brass-6);}.cls-9{stroke:url(#AE_Brass-11);}.cls-10{stroke:url(#AE_Brass-9);}.cls-11{stroke:url(#AE_Brass-2);}.cls-12{stroke:url(#AE_Brass-3);}.cls-13{stroke:url(#AE_Brass-8);}.cls-14{stroke:url(#AE_Brass-4);}.cls-15{stroke:url(#AE_Brass-12);}</style><linearGradient id="AE_Brass" x1="-2571.761" y1="-2246.477" x2="-1222.347" y2="-2246.477" gradientTransform="translate(-1464.376 2571.761) rotate(90)" gradientUnits="userSpaceOnUse"><stop offset="0" stop-color="#7e643e"/><stop offset=".025" stop-color="#7e643e"/><stop offset=".037" stop-color="#866e4a"/><stop offset=".065" stop-color="#968162"/><stop offset=".095" stop-color="#a18f74"/><stop offset=".127" stop-color="#a8977e"/><stop offset=".166" stop-color="#ab9a82"/><stop offset=".194" stop-color="#9e8e74"/><stop offset=".255" stop-color="#8a7b5d"/><stop offset=".312" stop-color="#7e6f4f"/><stop offset=".362" stop-color="#7a6c4b"/><stop offset=".383" stop-color="#837552"/><stop offset=".496" stop-color="#b3a376"/><stop offset=".595" stop-color="#d5c490"/><stop offset=".676" stop-color="#ead8a0"/><stop offset=".73" stop-color="#f2e0a6"/><stop offset=".781" stop-color="#eedba2"/><stop offset=".832" stop-color="#e2cf99"/><stop offset=".884" stop-color="#cebb8a"/><stop offset=".936" stop-color="#b29f74"/><stop offset=".988" stop-color="#8f7a59"/><stop offset="1" stop-color="#867152"/></linearGradient><linearGradient id="AE_Brass-2" x1="-2571.191" y1="-2601.443" x2="-2535.457" y2="-2601.443" xlink:href="#AE_Brass"/><linearGradient id="AE_Brass-3" x1="-2554.439" y1="-2228.326" x2="-1137.173" y2="-2228.326" xlink:href="#AE_Brass"/><linearGradient id="AE_Brass-4" x1="-2537.113" y1="-2228.548" x2="-1306.45" y2="-2228.548" xlink:href="#AE_Brass"/><linearGradient id="AE_Brass-5" x1="-1222.347" y1="-2042.646" x2="-1008.932" y2="-2042.646" xlink:href="#AE_Brass"/><linearGradient id="AE_Brass-6" x1="-1045.076" y1="-2601.167" x2="-1010.213" y2="-2601.167" xlink:href="#AE_Brass"/><linearGradient id="AE_Brass-7" x1="-1146.819" y1="-2047.011" x2="-1026.254" y2="-2047.011" xlink:href="#AE_Brass"/><linearGradient id="AE_Brass-8" x1="-1308.484" y1="-2043.032" x2="-1043.58" y2="-2043.032" xlink:href="#AE_Brass"/><linearGradient id="AE_Brass-9" x1="-2571.761" y1="-1691.447" y2="-1691.447" xlink:href="#AE_Brass"/><linearGradient id="AE_Brass-10" x1="-2571.177" y1="-1482.752" x2="-2535.664" y2="-1482.752" xlink:href="#AE_Brass"/><linearGradient id="AE_Brass-11" x1="-2554.439" y1="-1667.919" x2="-1297.367" y2="-1667.919" xlink:href="#AE_Brass"/><linearGradient id="AE_Brass-12" x1="-2537.373" y1="-1692.617" x2="-1044.381" y2="-1692.617" xlink:href="#AE_Brass"/><linearGradient id="AE_Brass-13" x1="-1222.347" y1="-1477.923" x2="-1008.932" y2="-1477.923" xlink:href="#AE_Brass"/><linearGradient id="AE_Brass-14" x1="-1046.316" y1="-1483.394" x2="-1009.512" y2="-1483.394" xlink:href="#AE_Brass"/><linearGradient id="AE_Brass-15" x1="-1298.459" y1="-1486.605" x2="-1026.254" y2="-1486.605" xlink:href="#AE_Brass"/></defs><g id="Layer_1-2"><polyline class="cls-7" points="408.663 1.102 1154.54 1 1154.54 1349.414"/><line class="cls-11" x1="1154.267" y1="1.278" x2="1119.867" y2="35.596"/><polyline class="cls-12" points="1137.177 1434.589 1137.177 18.323 389.724 18.323"/><polyline class="cls-14" points="1119.8 1265.312 1119.8 35.648 407.544 35.75"/><polyline class="cls-3" points="1 1561.83 1154.54 1561.83 1154.54 1349.414"/><line class="cls-8" x1="1153.554" y1="1560.84" x2="1120.029" y2="1527.393"/><polyline class="cls-5" points="1137.177 1424.942 1137.177 1544.507 27.095 1544.507"/><polyline class="cls-13" points="1119.8 1263.278 1119.8 1527.181 36.513 1527.181"/><polyline class="cls-10" points="454.143 1 1 1 1 1349.414"/><line class="cls-6" x1="1.287" y1="1.293" x2="35.465" y2="35.389"/><polyline class="cls-9" points="18.363 1274.394 18.363 18.323 389.724 18.323"/><polyline class="cls-15" points="422.019 35.648 35.465 35.389 36.513 1527.38"/><polyline class="cls-1" points="27.095 1561.83 1 1561.83 1 1349.414"/><line class="cls-2" x1="1.283" y1="1561.541" x2="36.755" y2="1526.154"/><polyline class="cls-4" points="18.363 1273.302 18.363 1544.507 27.095 1544.507"/></g></svg>