<svg width="188" height="48" viewBox="0 0 188 48" fill="none" xmlns="http://www.w3.org/2000/svg">
<path d="M3.53352 20.25H0.941519V0.863999H5.82852C7.91652 0.863999 8.96052 1.971 8.96052 4.185V8.613C8.96052 9.963 8.53752 11.016 7.69152 11.772C6.84552 12.51 5.60352 12.879 3.96552 12.879H3.53352V20.25ZM3.53352 10.719H3.96552C4.77552 10.719 5.37852 10.566 5.77452 10.26C6.17052 9.954 6.36852 9.459 6.36852 8.775V3.888C6.38652 3.312 6.08052 3.024 5.45052 3.024H3.53352V10.719ZM17.9718 20.25H12.2478V0.863999H14.8398V18.09H17.9718V20.25ZM23.4534 20.25H20.8614V4.185C20.8614 1.971 21.8964 0.863999 23.9664 0.863999H25.9104C27.9804 0.863999 29.0154 1.971 29.0154 4.185V20.25H26.4234V13.149H23.4534V20.25ZM26.4234 10.8V4.347C26.4234 3.591 26.0454 3.213 25.2894 3.213H24.5874C23.8314 3.213 23.4534 3.591 23.4534 4.347V10.8H26.4234ZM37.9393 0.863999H40.5313V20.25H37.9393V16.389L35.1583 7.56V20.25H32.5663V0.863999H35.1583L37.9393 10.233V0.863999ZM48.3727 3.024V20.25H45.7807V3.024H43.2967V0.863999H50.8567V3.024H48.3727ZM67.6047 0.863999L64.4727 20.25H61.3947L58.2627 0.863999H60.8277L62.9337 15.66L65.0397 0.863999H67.6047ZM70.3558 20.25V0.863999H72.9478V20.25H70.3558ZM82.2413 20.25L80.5403 12.42H78.9743V20.25H76.3823V0.863999H81.4583C83.4383 0.863999 84.4283 1.971 84.4283 4.185V8.964C84.4283 10.638 83.9153 11.709 82.8893 12.177L84.6983 20.25H82.2413ZM78.9743 10.206H80.6753C81.4493 10.206 81.8363 9.738 81.8363 8.802V4.617C81.8363 3.681 81.4493 3.213 80.6753 3.213H78.9743V10.206ZM92.1159 3.024V20.25H89.5239V3.024H87.0399V0.863999H94.5999V3.024H92.1159ZM105.52 0.863999V16.578C105.52 19.026 104.287 20.25 101.821 20.25H101.038C98.5903 20.25 97.3663 19.017 97.3663 16.551V0.863999H99.9583V16.632C99.9583 17.046 100.039 17.361 100.201 17.577C100.381 17.793 100.678 17.901 101.092 17.901H101.74C102.532 17.901 102.928 17.478 102.928 16.632V0.863999H105.52ZM111.683 20.25H109.091V4.185C109.091 1.971 110.126 0.863999 112.196 0.863999H114.14C116.21 0.863999 117.245 1.971 117.245 4.185V20.25H114.653V13.149H111.683V20.25ZM114.653 10.8V4.347C114.653 3.591 114.275 3.213 113.519 3.213H112.817C112.061 3.213 111.683 3.591 111.683 4.347V10.8H114.653ZM126.52 20.25H120.796V0.863999H123.388V18.09H126.52V20.25ZM139.26 3.024V20.25H136.668V3.024H134.184V0.863999H141.744V3.024H139.26ZM150.1 20.25L148.399 12.42H146.833V20.25H144.241V0.863999H149.317C151.297 0.863999 152.287 1.971 152.287 4.185V8.964C152.287 10.638 151.774 11.709 150.748 12.177L152.557 20.25H150.1ZM146.833 10.206H148.534C149.308 10.206 149.695 9.738 149.695 8.802V4.617C149.695 3.681 149.308 3.213 148.534 3.213H146.833V10.206ZM155.843 20.25V0.863999H161.567V3.024H158.435V9.639H161.567V11.799H158.435V18.09H161.567V20.25H155.843ZM164.856 20.25V0.863999H170.58V3.024H167.448V9.639H170.58V11.799H167.448V18.09H170.58V20.25H164.856ZM178.863 6.885V3.861C178.881 3.303 178.611 3.024 178.053 3.024H177.297C176.703 3.024 176.424 3.312 176.46 3.888V7.803C176.46 8.163 176.532 8.406 176.676 8.532C176.82 8.64 177.009 8.757 177.243 8.883L180.483 10.827C180.951 11.115 181.248 11.403 181.374 11.691C181.5 11.961 181.563 12.402 181.563 13.014V16.983C181.563 19.161 180.519 20.25 178.431 20.25H176.838C174.768 20.25 173.733 19.062 173.733 16.686V15.201H176.325V17.28C176.325 17.82 176.586 18.09 177.108 18.09H178.215C178.737 18.09 178.989 17.82 178.971 17.28V13.338C178.971 12.978 178.908 12.744 178.782 12.636C178.674 12.51 178.521 12.393 178.323 12.285L175.056 10.233C174.75 10.035 174.516 9.855 174.354 9.693C174.21 9.513 174.093 9.342 174.003 9.18C173.931 9 173.886 8.811 173.868 8.613C173.868 8.415 173.868 8.19 173.868 7.938V4.185C173.868 1.971 174.903 0.863999 176.973 0.863999H178.35C180.42 0.863999 181.455 1.971 181.455 4.185V6.885H178.863ZM187.741 16.956V20.25H184.987V16.956H187.741ZM10.7081 42.174V43.956C10.7081 46.152 9.67314 47.25 7.60314 47.25H5.92914C3.85914 47.25 2.82414 46.152 2.82414 43.956V31.158C2.82414 28.962 3.85914 27.864 5.92914 27.864H7.60314C9.67314 27.864 10.7081 28.962 10.7081 31.158V33.885H8.11614V31.158C8.11614 30.402 7.72914 30.024 6.95514 30.024H6.44214C5.75814 30.024 5.41614 30.402 5.41614 31.158V43.956C5.41614 44.712 5.75814 45.09 6.44214 45.09H7.09014C7.77414 45.09 8.11614 44.712 8.11614 43.956V42.174H10.7081ZM19.5876 47.25L17.8866 39.42H16.3206V47.25H13.7286V27.864H18.8046C20.7846 27.864 21.7746 28.971 21.7746 31.185V35.964C21.7746 37.638 21.2616 38.709 20.2356 39.177L22.0446 47.25H19.5876ZM16.3206 37.206H18.0216C18.7956 37.206 19.1826 36.738 19.1826 35.802V31.617C19.1826 30.681 18.7956 30.213 18.0216 30.213H16.3206V37.206ZM25.3312 47.25V27.864H31.0552V30.024H27.9232V36.639H31.0552V38.799H27.9232V45.09H31.0552V47.25H25.3312ZM36.8005 47.25H34.2085V31.185C34.2085 28.971 35.2435 27.864 37.3135 27.864H39.2575C41.3275 27.864 42.3625 28.971 42.3625 31.185V47.25H39.7705V40.149H36.8005V47.25ZM39.7705 37.8V31.347C39.7705 30.591 39.3925 30.213 38.6365 30.213H37.9345C37.1785 30.213 36.8005 30.591 36.8005 31.347V37.8H39.7705ZM50.0444 30.024V47.25H47.4524V30.024H44.9684V27.864H52.5284V30.024H50.0444ZM55.2948 47.25V27.864H61.0188V30.024H57.8868V36.639H61.0188V38.799H57.8868V45.09H61.0188V47.25H55.2948ZM75.4807 47.25L73.7797 39.42H72.2137V47.25H69.6217V27.864H74.6977C76.6777 27.864 77.6677 28.971 77.6677 31.185V35.964C77.6677 37.638 77.1547 38.709 76.1287 39.177L77.9377 47.25H75.4807ZM72.2137 37.206H73.9147C74.6887 37.206 75.0757 36.738 75.0757 35.802V31.617C75.0757 30.681 74.6887 30.213 73.9147 30.213H72.2137V37.206ZM81.2243 47.25V27.864H86.9483V30.024H83.8163V36.639H86.9483V38.799H83.8163V45.09H86.9483V47.25H81.2243ZM92.6936 47.25H90.1016V31.185C90.1016 28.971 91.1366 27.864 93.2066 27.864H95.1506C97.2206 27.864 98.2556 28.971 98.2556 31.185V47.25H95.6636V40.149H92.6936V47.25ZM95.6636 37.8V31.347C95.6636 30.591 95.2856 30.213 94.5296 30.213H93.8276C93.0716 30.213 92.6936 30.591 92.6936 31.347V37.8H95.6636ZM107.531 47.25H101.807V27.864H104.399V45.09H107.531V47.25ZM124.024 42.174V43.956C124.024 46.152 122.989 47.25 120.919 47.25H119.245C117.175 47.25 116.14 46.152 116.14 43.956V31.158C116.14 28.962 117.175 27.864 119.245 27.864H120.919C122.989 27.864 124.024 28.962 124.024 31.158V33.885H121.432V31.158C121.432 30.402 121.045 30.024 120.271 30.024H119.758C119.074 30.024 118.732 30.402 118.732 31.158V43.956C118.732 44.712 119.074 45.09 119.758 45.09H120.406C121.09 45.09 121.432 44.712 121.432 43.956V42.174H124.024ZM132.876 47.25V38.799H129.906V47.25H127.314V27.864H129.906V36.639H132.876V27.864H135.468V47.25H132.876ZM141.631 47.25H139.039V31.185C139.039 28.971 140.074 27.864 142.144 27.864H144.088C146.158 27.864 147.193 28.971 147.193 31.185V47.25H144.601V40.149H141.631V47.25ZM144.601 37.8V31.347C144.601 30.591 144.223 30.213 143.467 30.213H142.765C142.009 30.213 141.631 30.591 141.631 31.347V37.8H144.601ZM156.117 27.864H158.709V47.25H156.117V43.389L153.336 34.56V47.25H150.744V27.864H153.336L156.117 37.233V27.864ZM170.492 37.719L170.519 47.25H165.524C163.454 47.25 162.419 46.152 162.419 43.956V31.158C162.419 28.962 163.454 27.864 165.524 27.864H167.198C169.268 27.864 170.303 28.962 170.303 31.158V33.885H167.711V31.347C167.711 30.591 167.324 30.213 166.55 30.213H166.037C165.353 30.213 165.011 30.591 165.011 31.347V43.767C165.011 44.523 165.398 44.901 166.172 44.901H167.9V39.879H166.334V37.719H170.492ZM174.227 47.25V27.864H179.951V30.024H176.819V36.639H179.951V38.799H176.819V45.09H179.951V47.25H174.227ZM185.858 43.956V47.25H183.104V43.956H185.858Z" fill="#8A1E41"/>
</svg>
