<svg width="266" height="42" viewBox="0 0 266 42" fill="none" xmlns="http://www.w3.org/2000/svg">
<rect width="266" height="41.7458" fill="#7E213B"/>
<g filter="url(#filter0_d_7_8222)">
<path d="M114.124 24.4203V25.4763C114.124 26.7777 113.511 27.4283 112.284 27.4283H111.292C110.066 27.4283 109.452 26.7777 109.452 25.4763V17.8923C109.452 16.591 110.066 15.9403 111.292 15.9403H112.284C113.511 15.9403 114.124 16.591 114.124 17.8923V19.5083H112.588V17.8923C112.588 17.4443 112.359 17.2203 111.9 17.2203H111.596C111.191 17.2203 110.988 17.4443 110.988 17.8923V25.4763C110.988 25.9243 111.191 26.1483 111.596 26.1483H111.98C112.386 26.1483 112.588 25.9243 112.588 25.4763V24.4203H114.124ZM117.93 27.4283C116.693 27.4283 116.074 26.7777 116.074 25.4763V17.9083C116.074 16.5963 116.688 15.9403 117.914 15.9403H119.226C120.453 15.9403 121.066 16.5963 121.066 17.9083V25.4763C121.066 26.7777 120.448 27.4283 119.21 27.4283H117.93ZM119.002 26.1483C119.354 26.1483 119.53 25.951 119.53 25.5563V17.8123C119.53 17.4177 119.328 17.2203 118.922 17.2203H118.202C117.808 17.2203 117.61 17.4177 117.61 17.8123V25.5563C117.61 25.951 117.813 26.1483 118.218 26.1483H119.002ZM126.443 15.9403H127.979V27.4283H126.443V25.1403L124.795 19.9083V27.4283H123.259V15.9403H124.795L126.443 21.4923V15.9403ZM132.625 17.2203V27.4283H131.089V17.2203H129.617V15.9403H134.097V17.2203H132.625ZM135.737 27.4283V15.9403H137.273V27.4283H135.737ZM142.652 15.9403H144.188V27.4283H142.652V25.1403L141.004 19.9083V27.4283H139.468V15.9403H141.004L142.652 21.4923V15.9403ZM151.219 15.9403V25.2523C151.219 26.703 150.488 27.4283 149.027 27.4283H148.563C147.112 27.4283 146.387 26.6977 146.387 25.2363V15.9403H147.923V25.2843C147.923 25.5297 147.971 25.7163 148.067 25.8443C148.173 25.9723 148.349 26.0363 148.595 26.0363H148.979C149.448 26.0363 149.683 25.7857 149.683 25.2843V15.9403H151.219ZM153.415 27.4283V15.9403H156.807V17.2203H154.951V21.1403H156.807V22.4203H154.951V26.1483H156.807V27.4283H153.415Z" fill="white"/>
</g>
<defs>
<filter id="filter0_d_7_8222" x="103.452" y="9.94031" width="59.3545" height="23.488" filterUnits="userSpaceOnUse" color-interpolation-filters="sRGB">
<feFlood flood-opacity="0" result="BackgroundImageFix"/>
<feColorMatrix in="SourceAlpha" type="matrix" values="0 0 0 0 0 0 0 0 0 0 0 0 0 0 0 0 0 0 127 0" result="hardAlpha"/>
<feOffset/>
<feGaussianBlur stdDeviation="3"/>
<feComposite in2="hardAlpha" operator="out"/>
<feColorMatrix type="matrix" values="0 0 0 0 0 0 0 0 0 0 0 0 0 0 0 0 0 0 0.33 0"/>
<feBlend mode="normal" in2="BackgroundImageFix" result="effect1_dropShadow_7_8222"/>
<feBlend mode="normal" in="SourceGraphic" in2="effect1_dropShadow_7_8222" result="shape"/>
</filter>
</defs>
</svg>
