<?xml version="1.0" encoding="utf-8"?>
<!-- Generator: Adobe Illustrator 27.7.0, SVG Export Plug-In . SVG Version: 6.00 Build 0)  -->
<svg version="1.1" id="Layer_1" xmlns="http://www.w3.org/2000/svg" xmlns:xlink="http://www.w3.org/1999/xlink" x="0px" y="0px"
	 viewBox="0 0 172 173" style="enable-background:new 0 0 172 173;" xml:space="preserve">
<style type="text/css">
	.st0{fill:#FFFFFF;}
	.st1{fill:none;stroke:url(#SVGID_1_);stroke-width:2;}
	.st2{fill:#8F7A59;}
	.st3{fill:none;}
</style>
<g>
	<rect x="17.2" y="7" class="st0" width="147.7" height="148.6"/>
	
		<linearGradient id="SVGID_1_" gradientUnits="userSpaceOnUse" x1="17.1692" y1="92.6413" x2="164.831" y2="92.6413" gradientTransform="matrix(1 0 0 -1 0 174)">
		<stop  offset="3.000000e-02" style="stop-color:#7E653E"/>
		<stop  offset="4.000000e-02" style="stop-color:#87704C"/>
		<stop  offset="7.000000e-02" style="stop-color:#978263"/>
		<stop  offset="9.000000e-02" style="stop-color:#A28F74"/>
		<stop  offset="0.13" style="stop-color:#A8977E"/>
		<stop  offset="0.17" style="stop-color:#AB9A82"/>
		<stop  offset="0.19" style="stop-color:#9F8F75"/>
		<stop  offset="0.25" style="stop-color:#8A7B5E"/>
		<stop  offset="0.31" style="stop-color:#7D7050"/>
		<stop  offset="0.36" style="stop-color:#796C4C"/>
		<stop  offset="0.39" style="stop-color:#867956"/>
		<stop  offset="0.5" style="stop-color:#B4A578"/>
		<stop  offset="0.6" style="stop-color:#D6C591"/>
		<stop  offset="0.68" style="stop-color:#EAD8A0"/>
		<stop  offset="0.73" style="stop-color:#F2E0A6"/>
		<stop  offset="0.78" style="stop-color:#EDDBA2"/>
		<stop  offset="0.83" style="stop-color:#E1CF99"/>
		<stop  offset="0.88" style="stop-color:#CEBA89"/>
		<stop  offset="0.94" style="stop-color:#B29D73"/>
		<stop  offset="0.99" style="stop-color:#8E7857"/>
		<stop  offset="1" style="stop-color:#877152"/>
	</linearGradient>
	<rect x="16.2" y="6" class="st1" width="149.7" height="150.6"/>
</g>
<g transform="translate(70,70)">
	<g transform="translate(350,0) scale(0.07,0.07)">
		<g transform="">
			<path class="st2" d="M-4935.3-790.8c0,7.8,0,33.6,0,33.6s-22.9,0-33.6,0c-8.4,0-33.6,0-33.6,0s0-23.4,0-33.6
				c0-18.6,15.1-33.6,33.6-33.6C-4950.3-824.4-4935.3-809.3-4935.3-790.8z"/>
		</g>
	</g>
	<g transform="translate(490,0) scale(0.07,0.07)">
		<g transform="">
			<path class="st2" d="M-6666.2-790.8c0,7.8,0,33.6,0,33.6s-22.9,0-33.6,0c-8.4,0-33.6,0-33.6,0s0-23.4,0-33.6
				c0-18.6,15.1-33.6,33.6-33.6C-6681.3-824.4-6666.2-809.3-6666.2-790.8z"/>
		</g>
	</g>
	<g transform="translate(595,0) scale(0.07,0.07)">
		<g transform="">
			<path class="st2" d="M-7964.4-790.8c0,7.8,0,33.6,0,33.6s-22.9,0-33.6,0c-8.4,0-33.6,0-33.6,0s0-23.4,0-33.6
				c0-18.6,15.1-33.6,33.6-33.6C-7979.4-824.4-7964.4-809.3-7964.4-790.8z"/>
		</g>
	</g>
	<g transform="translate(280,35) scale(0.07,0.07)">
		<g transform="">
			<g>
				<path class="st2" d="M-4137.1-1189.9h67.3v-67.3C-4107-1257.1-4137.1-1227-4137.1-1189.9z"/>
			</g>
		</g>
	</g>
	<g transform="translate(315,35) scale(0.35,0.35)">
		<g transform="">
			<rect x="-914" y="-251.4" class="st2" width="13.5" height="13.5"/>
		</g>
	</g>
	<g transform="translate(350,35) scale(0.35,0.35)">
		<g transform="">
			<rect x="-1000.5" y="-251.4" class="st2" width="13.5" height="13.5"/>
		</g>
	</g>
	<g transform="translate(385,35) scale(0.35,0.35)">
		<g transform="">
			<rect x="-1087.1" y="-251.4" class="st2" width="13.5" height="13.5"/>
		</g>
	</g>
	<g transform="translate(420,35) scale(0.35,0.35)">
		<g transform="">
			<rect x="-1173.6" y="-251.4" class="st2" width="13.5" height="13.5"/>
		</g>
	</g>
	<g transform="translate(455,35) scale(0.35,0.35)">
		<g transform="">
			<rect x="-1260.1" y="-251.4" class="st2" width="13.5" height="13.5"/>
		</g>
	</g>
	<g transform="translate(490,35) scale(0.35,0.35)">
		<g transform="">
			<rect x="-1346.7" y="-251.4" class="st2" width="13.5" height="13.5"/>
		</g>
	</g>
	<g transform="translate(560,35) scale(0.07,0.07)">
		<g transform="">
			<path class="st2" d="M-7565.3-1257.1c7.8,0,33.6,0,33.6,0s0,22.9,0,33.6c0,8.4,0,33.6,0,33.6s-23.4,0-33.6,0
				c-18.6,0-33.6-15.1-33.6-33.6C-7598.9-1242.1-7583.9-1257.1-7565.3-1257.1z"/>
		</g>
	</g>
	<g transform="translate(595,35) scale(0.35,0.35)">
		<g transform="">
			<rect x="-1606.3" y="-251.4" class="st2" width="13.5" height="13.5"/>
		</g>
	</g>
	<g transform="translate(630,35) scale(0.07,0.07)">
		<g transform="">
			<g>
				<path class="st2" d="M-8464.4-1257.1v67.3h67.3C-8397.1-1227-8427.2-1257.1-8464.4-1257.1z"/>
			</g>
		</g>
	</g>
	<g transform="translate(700,35) scale(0.07,0.07)">
		<g transform="">
			<path class="st2" d="M-9296.2-1257.1c18.6,0,33.6,15.1,33.6,33.6c0,18.6-15.1,33.6-33.6,33.6c-18.6,0-33.6-15.1-33.6-33.6
				C-9329.9-1242.1-9314.8-1257.1-9296.2-1257.1z"/>
		</g>
	</g>
	<g transform="translate(280,70) scale(0.35,0.35)">
		<g transform="">
			<rect x="-827.4" y="-338" class="st2" width="13.5" height="13.5"/>
		</g>
	</g>
	<g transform="translate(350,70) scale(0.07,0.07)">
		<g transform="">
			<g>
				<path class="st2" d="M-4935.3-1622.6v-67.3h-67.3C-5002.5-1652.7-4972.4-1622.6-4935.3-1622.6z"/>
			</g>
		</g>
	</g>
	<g transform="translate(385,70) scale(0.35,0.35)">
		<g transform="">
			<rect x="-1087.1" y="-338" class="st2" width="13.5" height="13.5"/>
		</g>
	</g>
	<g transform="translate(490,70) scale(0.07,0.07)">
		<g transform="">
			<path class="st2" d="M-6733.5-1656.2c0-7.8,0-33.6,0-33.6s22.9,0,33.6,0c8.4,0,33.6,0,33.6,0s0,23.4,0,33.6
				c0,18.6-15.1,33.6-33.6,33.6C-6718.4-1622.6-6733.5-1637.7-6733.5-1656.2z"/>
		</g>
	</g>
	<g transform="translate(630,70) scale(0.35,0.35)">
		<g transform="">
			<rect x="-1692.9" y="-338" class="st2" width="13.5" height="13.5"/>
		</g>
	</g>
	<g transform="translate(280,105) scale(0.07,0.07)">
		<g transform="">
			<path class="st2" d="M-4137.1-2089c0-7.8,0-33.6,0-33.6s22.9,0,33.6,0c8.4,0,33.6,0,33.6,0s0,23.4,0,33.6
				c0,18.6-15.1,33.6-33.6,33.6C-4122-2055.3-4137.1-2070.4-4137.1-2089z"/>
		</g>
	</g>
	<g transform="translate(385,105) scale(0.07,0.07)">
		<g transform="">
			<path class="st2" d="M-5435.3-2089c0-7.8,0-33.6,0-33.6s22.9,0,33.6,0c8.4,0,33.6,0,33.6,0s0,23.4,0,33.6
				c0,18.6-15.1,33.6-33.6,33.6C-5420.2-2055.3-5435.3-2070.4-5435.3-2089z"/>
		</g>
	</g>
	<g transform="translate(455,105) scale(0.07,0.07)">
		<g transform="">
			<path class="st2" d="M-6233.5-2089c0,7.8,0,33.6,0,33.6s-22.9,0-33.6,0c-8.4,0-33.6,0-33.6,0s0-23.4,0-33.6
				c0-18.6,15.1-33.6,33.6-33.6C-6248.5-2122.6-6233.5-2107.5-6233.5-2089z"/>
		</g>
	</g>
	<g transform="translate(560,105) scale(0.07,0.07)">
		<g transform="">
			<g>
				<path class="st2" d="M-7598.9-2055.3h67.3v-67.3C-7568.8-2122.6-7598.9-2092.5-7598.9-2055.3z"/>
			</g>
		</g>
	</g>
	<g transform="translate(595,105) scale(0.35,0.35)">
		<g transform="">
			<rect x="-1606.3" y="-424.5" class="st2" width="13.5" height="13.5"/>
		</g>
	</g>
	<g transform="translate(630,105) scale(0.35,0.35)">
		<g transform="">
			<rect x="-1692.9" y="-424.5" class="st2" width="13.5" height="13.5"/>
		</g>
	</g>
	<g transform="translate(700,105) scale(0.07,0.07)">
		<g transform="">
			<path class="st2" d="M-9262.6-2089c0,7.8,0,33.6,0,33.6s-22.9,0-33.6,0c-8.4,0-33.6,0-33.6,0s0-23.4,0-33.6
				c0-18.6,15.1-33.6,33.6-33.6S-9262.6-2107.5-9262.6-2089z"/>
		</g>
	</g>
	<g transform="translate(315,140) scale(0.07,0.07)">
		<g transform="">
			<g>
				<path class="st2" d="M-4569.8-2488.1h67.3v-67.3C-4539.7-2555.3-4569.8-2525.2-4569.8-2488.1z"/>
			</g>
		</g>
	</g>
	<g transform="translate(350,140) scale(0.07,0.07)">
		<g transform="">
			<path class="st2" d="M-4968.9-2488.1c-7.8,0-33.6,0-33.6,0s0-22.9,0-33.6c0-8.4,0-33.6,0-33.6s23.4,0,33.6,0
				c18.6,0,33.6,15.1,33.6,33.6C-4935.3-2503.1-4950.3-2488.1-4968.9-2488.1z"/>
		</g>
	</g>
	<g transform="translate(420,140) scale(0.07,0.07)">
		<g transform="">
			<g>
				<path class="st2" d="M-5868-2488.1h67.3v-67.3C-5837.9-2555.3-5868-2525.2-5868-2488.1z"/>
			</g>
		</g>
	</g>
	<g transform="translate(455,140) scale(0.07,0.07)">
		<g transform="">
			<g>
				<path class="st2" d="M-6233.5-2555.3h-67.3v67.3C-6263.6-2488.1-6233.5-2518.2-6233.5-2555.3z"/>
			</g>
		</g>
	</g>
	<g transform="translate(560,140) scale(0.07,0.07)">
		<g transform="">
			<g>
				<path class="st2" d="M-7531.7-2488.1v-67.3h-67.3C-7598.9-2518.2-7568.8-2488.1-7531.7-2488.1z"/>
			</g>
		</g>
	</g>
	<g transform="translate(595,140) scale(0.35,0.35)">
		<g transform="">
			<rect x="-1606.3" y="-511.1" class="st2" width="13.5" height="13.5"/>
		</g>
	</g>
	<g transform="translate(630,140) scale(0.35,0.35)">
		<g transform="">
			<rect x="-1692.9" y="-511.1" class="st2" width="13.5" height="13.5"/>
		</g>
	</g>
	<g transform="translate(665,140) scale(0.35,0.35)">
		<g transform="">
			<rect x="-1779.4" y="-511.1" class="st2" width="13.5" height="13.5"/>
		</g>
	</g>
	<g transform="translate(700,140) scale(0.35,0.35)">
		<g transform="">
			<rect x="-1866" y="-511.1" class="st2" width="13.5" height="13.5"/>
		</g>
	</g>
	<g transform="translate(315,175) scale(0.07,0.07)">
		<g transform="">
			<path class="st2" d="M-4569.8-2954.4c0-7.8,0-33.6,0-33.6s22.9,0,33.6,0c8.4,0,33.6,0,33.6,0s0,23.4,0,33.6
				c0,18.6-15.1,33.6-33.6,33.6C-4554.7-2920.8-4569.8-2935.9-4569.8-2954.4z"/>
		</g>
	</g>
	<g transform="translate(385,175) scale(0.07,0.07)">
		<g transform="">
			<path class="st2" d="M-5401.6-2988.1c7.8,0,33.6,0,33.6,0s0,22.9,0,33.6c0,8.4,0,33.6,0,33.6s-23.4,0-33.6,0
				c-18.6,0-33.6-15.1-33.6-33.6C-5435.3-2973-5420.2-2988.1-5401.6-2988.1z"/>
		</g>
	</g>
	<g transform="translate(420,175) scale(0.35,0.35)">
		<g transform="">
			<rect x="-1173.6" y="-597.6" class="st2" width="13.5" height="13.5"/>
		</g>
	</g>
	<g transform="translate(490,175) scale(0.07,0.07)">
		<g transform="">
			<path class="st2" d="M-6666.2-2954.4c0,7.8,0,33.6,0,33.6s-22.9,0-33.6,0c-8.4,0-33.6,0-33.6,0s0-23.4,0-33.6
				c0-18.6,15.1-33.6,33.6-33.6C-6681.3-2988.1-6666.2-2973-6666.2-2954.4z"/>
		</g>
	</g>
	<g transform="translate(595,175) scale(0.07,0.07)">
		<g transform="">
			<path class="st2" d="M-8031.7-2954.4c0-7.8,0-33.6,0-33.6s22.9,0,33.6,0c8.4,0,33.6,0,33.6,0s0,23.4,0,33.6
				c0,18.6-15.1,33.6-33.6,33.6C-8016.6-2920.8-8031.7-2935.9-8031.7-2954.4z"/>
		</g>
	</g>
	<g transform="translate(700,175) scale(0.35,0.35)">
		<g transform="">
			<rect x="-1866" y="-597.6" class="st2" width="13.5" height="13.5"/>
		</g>
	</g>
	<g transform="translate(280,210) scale(0.07,0.07)">
		<g transform="">
			<path class="st2" d="M-4069.8-3387.2c0,7.8,0,33.6,0,33.6s-22.9,0-33.6,0c-8.4,0-33.6,0-33.6,0s0-23.4,0-33.6
				c0-18.6,15.1-33.6,33.6-33.6C-4084.9-3420.8-4069.8-3405.7-4069.8-3387.2z"/>
		</g>
	</g>
	<g transform="translate(350,210) scale(0.07,0.07)">
		<g transform="">
			<path class="st2" d="M-4935.3-3387.2c0,7.8,0,33.6,0,33.6s-22.9,0-33.6,0c-8.4,0-33.6,0-33.6,0s0-23.4,0-33.6
				c0-18.6,15.1-33.6,33.6-33.6C-4950.3-3420.8-4935.3-3405.7-4935.3-3387.2z"/>
		</g>
	</g>
	<g transform="translate(420,210) scale(0.07,0.07)">
		<g transform="">
			<path class="st2" d="M-5868-3387.2c0-7.8,0-33.6,0-33.6s22.9,0,33.6,0c8.4,0,33.6,0,33.6,0s0,23.4,0,33.6
				c0,18.6-15.1,33.6-33.6,33.6C-5852.9-3353.5-5868-3368.6-5868-3387.2z"/>
		</g>
	</g>
	<g transform="translate(490,210) scale(0.35,0.35)">
		<g transform="">
			<rect x="-1346.7" y="-684.2" class="st2" width="13.5" height="13.5"/>
		</g>
	</g>
	<g transform="translate(560,210) scale(0.07,0.07)">
		<g transform="">
			<path class="st2" d="M-7531.7-3387.2c0,7.8,0,33.6,0,33.6s-22.9,0-33.6,0c-8.4,0-33.6,0-33.6,0s0-23.4,0-33.6
				c0-18.6,15.1-33.6,33.6-33.6C-7546.7-3420.8-7531.7-3405.7-7531.7-3387.2z"/>
		</g>
	</g>
	<g transform="translate(630,210) scale(0.07,0.07)">
		<g transform="">
			<path class="st2" d="M-8397.1-3387.2c0,7.8,0,33.6,0,33.6s-22.9,0-33.6,0c-8.4,0-33.6,0-33.6,0s0-23.4,0-33.6
				c0-18.6,15.1-33.6,33.6-33.6C-8412.2-3420.8-8397.1-3405.7-8397.1-3387.2z"/>
		</g>
	</g>
	<g transform="translate(700,210) scale(0.07,0.07)">
		<g transform="">
			<path class="st2" d="M-9329.9-3387.2c0-7.8,0-33.6,0-33.6s22.9,0,33.6,0c8.4,0,33.6,0,33.6,0s0,23.4,0,33.6
				c0,18.6-15.1,33.6-33.6,33.6C-9314.8-3353.5-9329.9-3368.6-9329.9-3387.2z"/>
		</g>
	</g>
	<g transform="translate(280,245) scale(0.35,0.35)">
		<g transform="">
			<rect x="-827.4" y="-770.7" class="st2" width="13.5" height="13.5"/>
		</g>
	</g>
	<g transform="translate(350,245) scale(0.35,0.35)">
		<g transform="">
			<rect x="-1000.5" y="-770.7" class="st2" width="13.5" height="13.5"/>
		</g>
	</g>
	<g transform="translate(385,245) scale(0.07,0.07)">
		<g transform="">
			<g>
				<path class="st2" d="M-5435.3-3853.5v67.3h67.3C-5368-3823.4-5398.1-3853.5-5435.3-3853.5z"/>
			</g>
		</g>
	</g>
	<g transform="translate(490,245) scale(0.07,0.07)">
		<g transform="">
			<g>
				<path class="st2" d="M-6666.2-3786.3v-67.3h-67.3C-6733.5-3816.4-6703.3-3786.3-6666.2-3786.3z"/>
			</g>
		</g>
	</g>
	<g transform="translate(525,245) scale(0.35,0.35)">
		<g transform="">
			<rect x="-1433.2" y="-770.7" class="st2" width="13.5" height="13.5"/>
		</g>
	</g>
	<g transform="translate(560,245) scale(0.07,0.07)">
		<g transform="">
			<g>
				<path class="st2" d="M-7531.7-3853.5h-67.3v67.3C-7561.8-3786.3-7531.7-3816.4-7531.7-3853.5z"/>
			</g>
		</g>
	</g>
	<g transform="translate(630,245) scale(0.07,0.07)">
		<g transform="">
			<g>
				<path class="st2" d="M-8397.1-3786.3v-67.3h-67.3C-8464.4-3816.4-8434.3-3786.3-8397.1-3786.3z"/>
			</g>
		</g>
	</g>
	<g transform="translate(665,245) scale(0.07,0.07)">
		<g transform="">
			<path class="st2" d="M-8863.5-3786.3c-7.8,0-33.6,0-33.6,0s0-22.9,0-33.6c0-8.4,0-33.6,0-33.6s23.4,0,33.6,0
				c18.6,0,33.6,15.1,33.6,33.6C-8829.9-3801.3-8844.9-3786.3-8863.5-3786.3z"/>
		</g>
	</g>
	<g transform="translate(0,280) scale(0.07,0.07)">
		<g transform="">
			<path class="st2" d="M-607.9-4252.6c0,7.8,0,33.6,0,33.6s-22.9,0-33.6,0c-8.4,0-33.6,0-33.6,0s0-23.4,0-33.6
				c0-18.6,15.1-33.6,33.6-33.6C-623-4286.3-607.9-4271.2-607.9-4252.6z"/>
		</g>
	</g>
	<g transform="translate(210,280) scale(0.07,0.07)">
		<g transform="">
			<path class="st2" d="M-3238-4286.3c18.6,0,33.6,15.1,33.6,33.6c0,18.6-15.1,33.6-33.6,33.6c-18.6,0-33.6-15.1-33.6-33.6
				C-3271.6-4271.2-3256.5-4286.3-3238-4286.3z"/>
		</g>
	</g>
	<g transform="translate(280,280) scale(0.07,0.07)">
		<g transform="">
			<path class="st2" d="M-4137.1-4252.6c0-7.8,0-33.6,0-33.6s22.9,0,33.6,0c8.4,0,33.6,0,33.6,0s0,23.4,0,33.6
				c0,18.6-15.1,33.6-33.6,33.6C-4122-4219-4137.1-4234-4137.1-4252.6z"/>
		</g>
	</g>
	<g transform="translate(350,280) scale(0.35,0.35)">
		<g transform="">
			<rect x="-1000.5" y="-857.3" class="st2" width="13.5" height="13.5"/>
		</g>
	</g>
	<g transform="translate(385,280) scale(0.35,0.35)">
		<g transform="">
			<rect x="-1087.1" y="-857.3" class="st2" width="13.5" height="13.5"/>
		</g>
	</g>
	<g transform="translate(455,280) scale(0.07,0.07)">
		<g transform="">
			<path class="st2" d="M-6233.5-4252.6c0,7.8,0,33.6,0,33.6s-22.9,0-33.6,0c-8.4,0-33.6,0-33.6,0s0-23.4,0-33.6
				c0-18.6,15.1-33.6,33.6-33.6C-6248.5-4286.3-6233.5-4271.2-6233.5-4252.6z"/>
		</g>
	</g>
	<g transform="translate(595,280) scale(0.07,0.07)">
		<g transform="">
			<path class="st2" d="M-7998-4286.3c18.6,0,33.6,15.1,33.6,33.6c0,18.6-15.1,33.6-33.6,33.6c-18.6,0-33.6-15.1-33.6-33.6
				C-8031.7-4271.2-8016.6-4286.3-7998-4286.3z"/>
		</g>
	</g>
	<g transform="translate(700,280) scale(0.07,0.07)">
		<g transform="">
			<path class="st2" d="M-9296.2-4286.3c7.8,0,33.6,0,33.6,0s0,22.9,0,33.6c0,8.4,0,33.6,0,33.6s-23.4,0-33.6,0
				c-18.6,0-33.6-15.1-33.6-33.6C-9329.9-4271.2-9314.8-4286.3-9296.2-4286.3z"/>
		</g>
	</g>
	<g transform="translate(735,280) scale(0.35,0.35)">
		<g transform="">
			<rect x="-1952.5" y="-857.3" class="st2" width="13.5" height="13.5"/>
		</g>
	</g>
	<g transform="translate(770,280) scale(0.07,0.07)">
		<g transform="">
			<path class="st2" d="M-10161.7-4219c-7.8,0-33.6,0-33.6,0s0-22.9,0-33.6c0-8.4,0-33.6,0-33.6s23.4,0,33.6,0
				c18.6,0,33.6,15.1,33.6,33.6C-10128-4234-10143.1-4219-10161.7-4219z"/>
		</g>
	</g>
	<g transform="translate(875,280) scale(0.07,0.07)">
		<g transform="">
			<path class="st2" d="M-11459.9-4286.3c7.8,0,33.6,0,33.6,0s0,22.9,0,33.6c0,8.4,0,33.6,0,33.6s-23.4,0-33.6,0
				c-18.6,0-33.6-15.1-33.6-33.6C-11493.5-4271.2-11478.5-4286.3-11459.9-4286.3z"/>
		</g>
	</g>
	<g transform="translate(910,280) scale(0.35,0.35)">
		<g transform="">
			<rect x="-2385.2" y="-857.3" class="st2" width="13.5" height="13.5"/>
		</g>
	</g>
	<g transform="translate(945,280) scale(0.07,0.07)">
		<g transform="">
			<g>
				<path class="st2" d="M-12359-4286.3v67.3h67.3C-12291.7-4256.1-12321.8-4286.3-12359-4286.3z"/>
			</g>
		</g>
	</g>
	<g transform="translate(0,315) scale(0.35,0.35)">
		<g transform="">
			<rect x="-135" y="-943.8" class="st2" width="13.5" height="13.5"/>
		</g>
	</g>
	<g transform="translate(70,315) scale(0.07,0.07)">
		<g transform="">
			<g>
				<path class="st2" d="M-1540.7-4651.7h67.3v-67.3C-1510.6-4719-1540.7-4688.9-1540.7-4651.7z"/>
			</g>
		</g>
	</g>
	<g transform="translate(105,315) scale(0.35,0.35)">
		<g transform="">
			<rect x="-394.7" y="-943.8" class="st2" width="13.5" height="13.5"/>
		</g>
	</g>
	<g transform="translate(140,315) scale(0.35,0.35)">
		<g transform="">
			<rect x="-481.2" y="-943.8" class="st2" width="13.5" height="13.5"/>
		</g>
	</g>
	<g transform="translate(175,315) scale(0.07,0.07)">
		<g transform="">
			<path class="st2" d="M-2805.2-4651.7c-7.8,0-33.6,0-33.6,0s0-22.9,0-33.6c0-8.4,0-33.6,0-33.6s23.4,0,33.6,0
				c18.6,0,33.6,15.1,33.6,33.6C-2771.6-4666.8-2786.7-4651.7-2805.2-4651.7z"/>
		</g>
	</g>
	<g transform="translate(245,315) scale(0.07,0.07)">
		<g transform="">
			<path class="st2" d="M-3637.1-4685.4c0,7.8,0,33.6,0,33.6s-22.9,0-33.6,0c-8.4,0-33.6,0-33.6,0s0-23.4,0-33.6
				c0-18.6,15.1-33.6,33.6-33.6C-3652.1-4719-3637.1-4703.9-3637.1-4685.4z"/>
		</g>
	</g>
	<g transform="translate(350,315) scale(0.07,0.07)">
		<g transform="">
			<g>
				<path class="st2" d="M-4935.3-4651.7v-67.3h-67.3C-5002.5-4681.8-4972.4-4651.7-4935.3-4651.7z"/>
			</g>
		</g>
	</g>
	<g transform="translate(385,315) scale(0.35,0.35)">
		<g transform="">
			<rect x="-1087.1" y="-943.8" class="st2" width="13.5" height="13.5"/>
		</g>
	</g>
	<g transform="translate(420,315) scale(0.35,0.35)">
		<g transform="">
			<rect x="-1173.6" y="-943.8" class="st2" width="13.5" height="13.5"/>
		</g>
	</g>
	<g transform="translate(455,315) scale(0.35,0.35)">
		<g transform="">
			<rect x="-1260.1" y="-943.8" class="st2" width="13.5" height="13.5"/>
		</g>
	</g>
	<g transform="translate(490,315) scale(0.35,0.35)">
		<g transform="">
			<rect x="-1346.7" y="-943.8" class="st2" width="13.5" height="13.5"/>
		</g>
	</g>
	<g transform="translate(525,315) scale(0.35,0.35)">
		<g transform="">
			<rect x="-1433.2" y="-943.8" class="st2" width="13.5" height="13.5"/>
		</g>
	</g>
	<g transform="translate(560,315) scale(0.07,0.07)">
		<g transform="">
			<g>
				<path class="st2" d="M-7598.9-4719v67.3h67.3C-7531.7-4688.9-7561.8-4719-7598.9-4719z"/>
			</g>
		</g>
	</g>
	<g transform="translate(630,315) scale(0.07,0.07)">
		<g transform="">
			<g>
				<path class="st2" d="M-8464.4-4651.7h67.3v-67.3C-8434.3-4719-8464.4-4688.9-8464.4-4651.7z"/>
			</g>
		</g>
	</g>
	<g transform="translate(665,315) scale(0.07,0.07)">
		<g transform="">
			<path class="st2" d="M-8863.5-4651.7c-7.8,0-33.6,0-33.6,0s0-22.9,0-33.6c0-8.4,0-33.6,0-33.6s23.4,0,33.6,0
				c18.6,0,33.6,15.1,33.6,33.6C-8829.9-4666.8-8844.9-4651.7-8863.5-4651.7z"/>
		</g>
	</g>
	<g transform="translate(735,315) scale(0.07,0.07)">
		<g transform="">
			<path class="st2" d="M-9762.6-4685.4c0-7.8,0-33.6,0-33.6s22.9,0,33.6,0c8.4,0,33.6,0,33.6,0s0,23.4,0,33.6
				c0,18.6-15.1,33.6-33.6,33.6C-9747.5-4651.7-9762.6-4666.8-9762.6-4685.4z"/>
		</g>
	</g>
	<g transform="translate(805,315) scale(0.07,0.07)">
		<g transform="">
			<g>
				<path class="st2" d="M-10628-4651.7h67.3v-67.3C-10597.9-4719-10628-4688.9-10628-4651.7z"/>
			</g>
		</g>
	</g>
	<g transform="translate(840,315) scale(0.07,0.07)">
		<g transform="">
			<path class="st2" d="M-11027.1-4651.7c-7.8,0-33.6,0-33.6,0s0-22.9,0-33.6c0-8.4,0-33.6,0-33.6s23.4,0,33.6,0
				c18.6,0,33.6,15.1,33.6,33.6C-10993.5-4666.8-11008.6-4651.7-11027.1-4651.7z"/>
		</g>
	</g>
	<g transform="translate(910,315) scale(0.07,0.07)">
		<g transform="">
			<g>
				<path class="st2" d="M-11859-4651.7v-67.3h-67.3C-11926.2-4681.8-11896.1-4651.7-11859-4651.7z"/>
			</g>
		</g>
	</g>
	<g transform="translate(945,315) scale(0.07,0.07)">
		<g transform="">
			<g>
				<path class="st2" d="M-12291.7-4719h-67.3v67.3C-12321.8-4651.7-12291.7-4681.8-12291.7-4719z"/>
			</g>
		</g>
	</g>
	<g transform="translate(0,350) scale(0.35,0.35)">
		<g transform="">
			<rect x="-135" y="-1030.3" class="st2" width="13.5" height="13.5"/>
		</g>
	</g>
	<g transform="translate(70,350) scale(0.35,0.35)">
		<g transform="">
			<rect x="-308.1" y="-1030.3" class="st2" width="13.5" height="13.5"/>
		</g>
	</g>
	<g transform="translate(105,350) scale(0.35,0.35)">
		<g transform="">
			<rect x="-394.7" y="-1030.3" class="st2" width="13.5" height="13.5"/>
		</g>
	</g>
	<g transform="translate(210,350) scale(0.07,0.07)">
		<g transform="">
			<path class="st2" d="M-3238-5151.7c7.8,0,33.6,0,33.6,0s0,22.9,0,33.6c0,8.4,0,33.6,0,33.6s-23.4,0-33.6,0
				c-18.6,0-33.6-15.1-33.6-33.6C-3271.6-5136.7-3256.6-5151.7-3238-5151.7z"/>
		</g>
	</g>
	<g transform="translate(245,350) scale(0.07,0.07)">
		<g transform="">
			<g>
				<path class="st2" d="M-3637.1-5151.7h-67.3v67.3C-3667.2-5084.5-3637.1-5114.6-3637.1-5151.7z"/>
			</g>
		</g>
	</g>
	<g transform="translate(315,350) scale(0.07,0.07)">
		<g transform="">
			<path class="st2" d="M-4536.2-5151.7c18.6,0,33.6,15.1,33.6,33.6c0,18.6-15.1,33.6-33.6,33.6c-18.6,0-33.6-15.1-33.6-33.6
				C-4569.8-5136.7-4554.7-5151.7-4536.2-5151.7z"/>
		</g>
	</g>
	<g transform="translate(385,350) scale(0.35,0.35)">
		<g transform="">
			<rect x="-1087.1" y="-1030.3" class="st2" width="13.5" height="13.5"/>
		</g>
	</g>
	<g transform="translate(420,350) scale(0.35,0.35)">
		<g transform="">
			<rect x="-1173.6" y="-1030.3" class="st2" width="13.5" height="13.5"/>
		</g>
	</g>
	<g transform="translate(455,350) scale(0.35,0.35)">
		<g transform="">
			<rect x="-1260.1" y="-1030.3" class="st2" width="13.5" height="13.5"/>
		</g>
	</g>
	<g transform="translate(490,350) scale(0.35,0.35)">
		<g transform="">
			<rect x="-1346.7" y="-1030.3" class="st2" width="13.5" height="13.5"/>
		</g>
	</g>
	<g transform="translate(525,350) scale(0.35,0.35)">
		<g transform="">
			<rect x="-1433.2" y="-1030.3" class="st2" width="13.5" height="13.5"/>
		</g>
	</g>
	<g transform="translate(560,350) scale(0.07,0.07)">
		<g transform="">
			<g>
				<path class="st2" d="M-7531.7-5151.7h-67.3v67.3C-7561.8-5084.5-7531.7-5114.6-7531.7-5151.7z"/>
			</g>
		</g>
	</g>
	<g transform="translate(630,350) scale(0.07,0.07)">
		<g transform="">
			<path class="st2" d="M-8464.4-5118.1c0-7.8,0-33.6,0-33.6s22.9,0,33.6,0c8.4,0,33.6,0,33.6,0s0,23.4,0,33.6
				c0,18.6-15.1,33.6-33.6,33.6C-8449.3-5084.5-8464.4-5099.5-8464.4-5118.1z"/>
		</g>
	</g>
	<g transform="translate(700,350) scale(0.07,0.07)">
		<g transform="">
			<path class="st2" d="M-9262.6-5118.1c0,7.8,0,33.6,0,33.6s-22.9,0-33.6,0c-8.4,0-33.6,0-33.6,0s0-23.4,0-33.6
				c0-18.6,15.1-33.6,33.6-33.6S-9262.6-5136.7-9262.6-5118.1z"/>
		</g>
	</g>
	<g transform="translate(805,350) scale(0.07,0.07)">
		<g transform="">
			<path class="st2" d="M-10628-5118.1c0-7.8,0-33.6,0-33.6s22.9,0,33.6,0c8.4,0,33.6,0,33.6,0s0,23.4,0,33.6
				c0,18.6-15.1,33.6-33.6,33.6C-10613-5084.5-10628-5099.5-10628-5118.1z"/>
		</g>
	</g>
	<g transform="translate(0,385) scale(0.35,0.35)">
		<g transform="">
			<rect x="-135" y="-1116.9" class="st2" width="13.5" height="13.5"/>
		</g>
	</g>
	<g transform="translate(35,385) scale(0.35,0.35)">
		<g transform="">
			<rect x="-221.6" y="-1116.9" class="st2" width="13.5" height="13.5"/>
		</g>
	</g>
	<g transform="translate(70,385) scale(0.35,0.35)">
		<g transform="">
			<rect x="-308.1" y="-1116.9" class="st2" width="13.5" height="13.5"/>
		</g>
	</g>
	<g transform="translate(105,385) scale(0.35,0.35)">
		<g transform="">
			<rect x="-394.7" y="-1116.9" class="st2" width="13.5" height="13.5"/>
		</g>
	</g>
	<g transform="translate(140,385) scale(0.35,0.35)">
		<g transform="">
			<rect x="-481.2" y="-1116.9" class="st2" width="13.5" height="13.5"/>
		</g>
	</g>
	<g transform="translate(175,385) scale(0.07,0.07)">
		<g transform="">
			<path class="st2" d="M-2805.2-5517.2c-7.8,0-33.6,0-33.6,0s0-22.9,0-33.6c0-8.4,0-33.6,0-33.6s23.4,0,33.6,0
				c18.6,0,33.6,15.1,33.6,33.6C-2771.6-5532.2-2786.7-5517.2-2805.2-5517.2z"/>
		</g>
	</g>
	<g transform="translate(350,385) scale(0.07,0.07)">
		<g transform="">
			<g>
				<path class="st2" d="M-5002.5-5517.2h67.3v-67.3C-4972.4-5584.5-5002.5-5554.3-5002.5-5517.2z"/>
			</g>
		</g>
	</g>
	<g transform="translate(385,385) scale(0.07,0.07)">
		<g transform="">
			<g>
				<path class="st2" d="M-5368-5584.5h-67.3v67.3C-5398.1-5517.2-5368-5547.3-5368-5584.5z"/>
			</g>
		</g>
	</g>
	<g transform="translate(490,385) scale(0.35,0.35)">
		<g transform="">
			<rect x="-1346.7" y="-1116.9" class="st2" width="13.5" height="13.5"/>
		</g>
	</g>
	<g transform="translate(700,385) scale(0.35,0.35)">
		<g transform="">
			<rect x="-1866" y="-1116.9" class="st2" width="13.5" height="13.5"/>
		</g>
	</g>
	<g transform="translate(840,385) scale(0.07,0.07)">
		<g transform="">
			<path class="st2" d="M-11027.1-5584.5c7.8,0,33.6,0,33.6,0s0,22.9,0,33.6c0,8.4,0,33.6,0,33.6s-23.4,0-33.6,0
				c-18.6,0-33.6-15.1-33.6-33.6C-11060.8-5569.4-11045.7-5584.5-11027.1-5584.5z"/>
		</g>
	</g>
	<g transform="translate(875,385) scale(0.07,0.07)">
		<g transform="">
			<path class="st2" d="M-11459.9-5517.2c-7.8,0-33.6,0-33.6,0s0-22.9,0-33.6c0-8.4,0-33.6,0-33.6s23.4,0,33.6,0
				c18.6,0,33.6,15.1,33.6,33.6C-11426.2-5532.2-11441.3-5517.2-11459.9-5517.2z"/>
		</g>
	</g>
	<g transform="translate(0,420) scale(0.35,0.35)">
		<g transform="">
			<rect x="-135" y="-1203.4" class="st2" width="13.5" height="13.5"/>
		</g>
	</g>
	<g transform="translate(35,420) scale(0.35,0.35)">
		<g transform="">
			<rect x="-221.6" y="-1203.4" class="st2" width="13.5" height="13.5"/>
		</g>
	</g>
	<g transform="translate(210,420) scale(0.07,0.07)">
		<g transform="">
			<path class="st2" d="M-3238-6017.2c18.6,0,33.6,15.1,33.6,33.6c0,18.6-15.1,33.6-33.6,33.6c-18.6,0-33.6-15.1-33.6-33.6
				C-3271.6-6002.1-3256.5-6017.2-3238-6017.2z"/>
		</g>
	</g>
	<g transform="translate(280,420) scale(0.07,0.07)">
		<g transform="">
			<path class="st2" d="M-4103.4-6017.2c7.8,0,33.6,0,33.6,0s0,22.9,0,33.6c0,8.4,0,33.6,0,33.6s-23.4,0-33.6,0
				c-18.6,0-33.6-15.1-33.6-33.6C-4137.1-6002.1-4122-6017.2-4103.4-6017.2z"/>
		</g>
	</g>
	<g transform="translate(315,420) scale(0.35,0.35)">
		<g transform="">
			<rect x="-914" y="-1203.4" class="st2" width="13.5" height="13.5"/>
		</g>
	</g>
	<g transform="translate(350,420) scale(0.07,0.07)">
		<g transform="">
			<g>
				<path class="st2" d="M-4935.3-6017.2h-67.3v67.3C-4965.4-5949.9-4935.3-5980-4935.3-6017.2z"/>
			</g>
		</g>
	</g>
	<g transform="translate(455,420) scale(0.07,0.07)">
		<g transform="">
			<g>
				<path class="st2" d="M-6300.7-5949.9h67.3v-67.3C-6270.6-6017.2-6300.7-5987.1-6300.7-5949.9z"/>
			</g>
		</g>
	</g>
	<g transform="translate(490,420) scale(0.07,0.07)">
		<g transform="">
			<g>
				<path class="st2" d="M-6666.2-6017.2h-67.3v67.3C-6696.3-5949.9-6666.2-5980-6666.2-6017.2z"/>
			</g>
		</g>
	</g>
	<g transform="translate(665,420) scale(0.07,0.07)">
		<g transform="">
			<g>
				<path class="st2" d="M-8897.1-5949.9h67.3v-67.3C-8867-6017.2-8897.1-5987.1-8897.1-5949.9z"/>
			</g>
		</g>
	</g>
	<g transform="translate(700,420) scale(0.35,0.35)">
		<g transform="">
			<rect x="-1866" y="-1203.4" class="st2" width="13.5" height="13.5"/>
		</g>
	</g>
	<g transform="translate(770,420) scale(0.07,0.07)">
		<g transform="">
			<path class="st2" d="M-10128-5983.6c0,7.8,0,33.6,0,33.6s-22.9,0-33.6,0c-8.4,0-33.6,0-33.6,0s0-23.4,0-33.6
				c0-18.6,15.1-33.6,33.6-33.6S-10128-6002.1-10128-5983.6z"/>
		</g>
	</g>
	<g transform="translate(980,420) scale(0.07,0.07)">
		<g transform="">
			<path class="st2" d="M-12724.4-5983.6c0,7.8,0,33.6,0,33.6s-22.9,0-33.6,0c-8.4,0-33.6,0-33.6,0s0-23.4,0-33.6
				c0-18.6,15.1-33.6,33.6-33.6S-12724.4-6002.1-12724.4-5983.6z"/>
		</g>
	</g>
	<g transform="translate(0,455) scale(0.35,0.35)">
		<g transform="">
			<rect x="-135" y="-1290" class="st2" width="13.5" height="13.5"/>
		</g>
	</g>
	<g transform="translate(35,455) scale(0.07,0.07)">
		<g transform="">
			<g>
				<path class="st2" d="M-1040.7-6449.9h-67.3v67.3C-1070.8-6382.7-1040.7-6412.8-1040.7-6449.9z"/>
			</g>
		</g>
	</g>
	<g transform="translate(140,455) scale(0.07,0.07)">
		<g transform="">
			<path class="st2" d="M-2372.5-6449.9c18.6,0,33.6,15.1,33.6,33.6c0,18.6-15.1,33.6-33.6,33.6c-18.6,0-33.6-15.1-33.6-33.6
				C-2406.1-6434.9-2391.1-6449.9-2372.5-6449.9z"/>
		</g>
	</g>
	<g transform="translate(245,455) scale(0.07,0.07)">
		<g transform="">
			<path class="st2" d="M-3637.1-6416.3c0,7.8,0,33.6,0,33.6s-22.9,0-33.6,0c-8.4,0-33.6,0-33.6,0s0-23.4,0-33.6
				c0-18.6,15.1-33.6,33.6-33.6C-3652.1-6449.9-3637.1-6434.9-3637.1-6416.3z"/>
		</g>
	</g>
	<g transform="translate(420,455) scale(0.07,0.07)">
		<g transform="">
			<g>
				<path class="st2" d="M-5868-6382.7h67.3v-67.3C-5837.9-6449.9-5868-6419.8-5868-6382.7z"/>
			</g>
		</g>
	</g>
	<g transform="translate(455,455) scale(0.35,0.35)">
		<g transform="">
			<rect x="-1260.1" y="-1290" class="st2" width="13.5" height="13.5"/>
		</g>
	</g>
	<g transform="translate(525,455) scale(0.07,0.07)">
		<g transform="">
			<g>
				<path class="st2" d="M-7166.2-6382.7h67.3v-67.3C-7136.1-6449.9-7166.2-6419.8-7166.2-6382.7z"/>
			</g>
		</g>
	</g>
	<g transform="translate(560,455) scale(0.35,0.35)">
		<g transform="">
			<rect x="-1519.8" y="-1290" class="st2" width="13.5" height="13.5"/>
		</g>
	</g>
	<g transform="translate(595,455) scale(0.35,0.35)">
		<g transform="">
			<rect x="-1606.3" y="-1290" class="st2" width="13.5" height="13.5"/>
		</g>
	</g>
	<g transform="translate(630,455) scale(0.35,0.35)">
		<g transform="">
			<rect x="-1692.9" y="-1290" class="st2" width="13.5" height="13.5"/>
		</g>
	</g>
	<g transform="translate(665,455) scale(0.35,0.35)">
		<g transform="">
			<rect x="-1779.4" y="-1290" class="st2" width="13.5" height="13.5"/>
		</g>
	</g>
	<g transform="translate(700,455) scale(0.35,0.35)">
		<g transform="">
			<rect x="-1866" y="-1290" class="st2" width="13.5" height="13.5"/>
		</g>
	</g>
	<g transform="translate(735,455) scale(0.35,0.35)">
		<g transform="">
			<rect x="-1952.5" y="-1290" class="st2" width="13.5" height="13.5"/>
		</g>
	</g>
	<g transform="translate(770,455) scale(0.35,0.35)">
		<g transform="">
			<rect x="-2039.1" y="-1290" class="st2" width="13.5" height="13.5"/>
		</g>
	</g>
	<g transform="translate(805,455) scale(0.35,0.35)">
		<g transform="">
			<rect x="-2125.6" y="-1290" class="st2" width="13.5" height="13.5"/>
		</g>
	</g>
	<g transform="translate(840,455) scale(0.07,0.07)">
		<g transform="">
			<g>
				<path class="st2" d="M-11060.8-6449.9v67.3h67.3C-10993.5-6419.8-11023.6-6449.9-11060.8-6449.9z"/>
			</g>
		</g>
	</g>
	<g transform="translate(945,455) scale(0.07,0.07)">
		<g transform="">
			<path class="st2" d="M-12325.3-6449.9c7.8,0,33.6,0,33.6,0s0,22.9,0,33.6c0,8.4,0,33.6,0,33.6s-23.4,0-33.6,0
				c-18.6,0-33.6-15.1-33.6-33.6C-12359-6434.9-12343.9-6449.9-12325.3-6449.9z"/>
		</g>
	</g>
	<g transform="translate(980,455) scale(0.07,0.07)">
		<g transform="">
			<g>
				<path class="st2" d="M-12724.4-6449.9h-67.3v67.3C-12754.6-6382.7-12724.4-6412.8-12724.4-6449.9z"/>
			</g>
		</g>
	</g>
	<g transform="translate(0,490) scale(0.07,0.07)">
		<g transform="">
			<path class="st2" d="M-675.2-6849c0-7.8,0-33.6,0-33.6s22.9,0,33.6,0c8.4,0,33.6,0,33.6,0s0,23.4,0,33.6
				c0,18.6-15.1,33.6-33.6,33.6C-660.2-6815.4-675.2-6830.4-675.2-6849z"/>
		</g>
	</g>
	<g transform="translate(175,490) scale(0.07,0.07)">
		<g transform="">
			<g>
				<path class="st2" d="M-2838.9-6815.4h67.3v-67.3C-2808.8-6882.7-2838.9-6852.5-2838.9-6815.4z"/>
			</g>
		</g>
	</g>
	<g transform="translate(210,490) scale(0.35,0.35)">
		<g transform="">
			<rect x="-654.3" y="-1376.5" class="st2" width="13.5" height="13.5"/>
		</g>
	</g>
	<g transform="translate(245,490) scale(0.35,0.35)">
		<g transform="">
			<rect x="-740.9" y="-1376.5" class="st2" width="13.5" height="13.5"/>
		</g>
	</g>
	<g transform="translate(280,490) scale(0.35,0.35)">
		<g transform="">
			<rect x="-827.4" y="-1376.5" class="st2" width="13.5" height="13.5"/>
		</g>
	</g>
	<g transform="translate(315,490) scale(0.07,0.07)">
		<g transform="">
			<g>
				<path class="st2" d="M-4569.8-6882.7v67.3h67.3C-4502.5-6852.5-4532.6-6882.7-4569.8-6882.7z"/>
			</g>
		</g>
	</g>
	<g transform="translate(420,490) scale(0.07,0.07)">
		<g transform="">
			<g>
				<path class="st2" d="M-5800.7-6815.4v-67.3h-67.3C-5868-6845.5-5837.9-6815.4-5800.7-6815.4z"/>
			</g>
		</g>
	</g>
	<g transform="translate(455,490) scale(0.35,0.35)">
		<g transform="">
			<rect x="-1260.1" y="-1376.5" class="st2" width="13.5" height="13.5"/>
		</g>
	</g>
	<g transform="translate(490,490) scale(0.35,0.35)">
		<g transform="">
			<rect x="-1346.7" y="-1376.5" class="st2" width="13.5" height="13.5"/>
		</g>
	</g>
	<g transform="translate(525,490) scale(0.35,0.35)">
		<g transform="">
			<rect x="-1433.2" y="-1376.5" class="st2" width="13.5" height="13.5"/>
		</g>
	</g>
	<g transform="translate(595,490) scale(0.07,0.07)">
		<g transform="">
			<path class="st2" d="M-8031.7-6849c0-7.8,0-33.6,0-33.6s22.9,0,33.6,0c8.4,0,33.6,0,33.6,0s0,23.4,0,33.6
				c0,18.6-15.1,33.6-33.6,33.6C-8016.6-6815.4-8031.7-6830.4-8031.7-6849z"/>
		</g>
	</g>
	<g transform="translate(700,490) scale(0.07,0.07)">
		<g transform="">
			<path class="st2" d="M-9329.9-6849c0-7.8,0-33.6,0-33.6s22.9,0,33.6,0c8.4,0,33.6,0,33.6,0s0,23.4,0,33.6
				c0,18.6-15.1,33.6-33.6,33.6C-9314.8-6815.4-9329.9-6830.4-9329.9-6849z"/>
		</g>
	</g>
	<g transform="translate(805,490) scale(0.07,0.07)">
		<g transform="">
			<g>
				<path class="st2" d="M-10560.8-6815.4v-67.3h-67.3C-10628-6845.5-10597.9-6815.4-10560.8-6815.4z"/>
			</g>
		</g>
	</g>
	<g transform="translate(840,490) scale(0.35,0.35)">
		<g transform="">
			<rect x="-2212.2" y="-1376.5" class="st2" width="13.5" height="13.5"/>
		</g>
	</g>
	<g transform="translate(875,490) scale(0.35,0.35)">
		<g transform="">
			<rect x="-2298.7" y="-1376.5" class="st2" width="13.5" height="13.5"/>
		</g>
	</g>
	<g transform="translate(910,490) scale(0.07,0.07)">
		<g transform="">
			<g>
				<path class="st2" d="M-11926.2-6882.7v67.3h67.3C-11859-6852.5-11889.1-6882.7-11926.2-6882.7z"/>
			</g>
		</g>
	</g>
	<g transform="translate(70,525) scale(0.07,0.07)">
		<g transform="">
			<path class="st2" d="M-1507-7315.4c7.8,0,33.6,0,33.6,0s0,22.9,0,33.6c0,8.4,0,33.6,0,33.6s-23.4,0-33.6,0
				c-18.6,0-33.6-15.1-33.6-33.6C-1540.7-7300.3-1525.6-7315.4-1507-7315.4z"/>
		</g>
	</g>
	<g transform="translate(105,525) scale(0.35,0.35)">
		<g transform="">
			<rect x="-394.7" y="-1463.1" class="st2" width="13.5" height="13.5"/>
		</g>
	</g>
	<g transform="translate(140,525) scale(0.35,0.35)">
		<g transform="">
			<rect x="-481.2" y="-1463.1" class="st2" width="13.5" height="13.5"/>
		</g>
	</g>
	<g transform="translate(175,525) scale(0.07,0.07)">
		<g transform="">
			<g>
				<path class="st2" d="M-2771.6-7315.4h-67.3v67.3C-2801.7-7248.1-2771.6-7278.2-2771.6-7315.4z"/>
			</g>
		</g>
	</g>
	<g transform="translate(315,525) scale(0.35,0.35)">
		<g transform="">
			<rect x="-914" y="-1463.1" class="st2" width="13.5" height="13.5"/>
		</g>
	</g>
	<g transform="translate(350,525) scale(0.35,0.35)">
		<g transform="">
			<rect x="-1000.5" y="-1463.1" class="st2" width="13.5" height="13.5"/>
		</g>
	</g>
	<g transform="translate(385,525) scale(0.07,0.07)">
		<g transform="">
			<g>
				<path class="st2" d="M-5435.3-7315.4v67.3h67.3C-5368-7285.3-5398.1-7315.4-5435.3-7315.4z"/>
			</g>
		</g>
	</g>
	<g transform="translate(455,525) scale(0.07,0.07)">
		<g transform="">
			<g>
				<path class="st2" d="M-6233.5-7248.1v-67.3h-67.3C-6300.7-7278.2-6270.6-7248.1-6233.5-7248.1z"/>
			</g>
		</g>
	</g>
	<g transform="translate(490,525) scale(0.35,0.35)">
		<g transform="">
			<rect x="-1346.7" y="-1463.1" class="st2" width="13.5" height="13.5"/>
		</g>
	</g>
	<g transform="translate(525,525) scale(0.35,0.35)">
		<g transform="">
			<rect x="-1433.2" y="-1463.1" class="st2" width="13.5" height="13.5"/>
		</g>
	</g>
	<g transform="translate(630,525) scale(0.07,0.07)">
		<g transform="">
			<path class="st2" d="M-8430.8-7315.4c18.6,0,33.6,15.1,33.6,33.6c0,18.6-15.1,33.6-33.6,33.6c-18.6,0-33.6-15.1-33.6-33.6
				C-8464.4-7300.3-8449.3-7315.4-8430.8-7315.4z"/>
		</g>
	</g>
	<g transform="translate(770,525) scale(0.07,0.07)">
		<g transform="">
			<path class="st2" d="M-10161.7-7315.4c18.6,0,33.6,15.1,33.6,33.6c0,18.6-15.1,33.6-33.6,33.6c-18.6,0-33.6-15.1-33.6-33.6
				C-10195.3-7300.3-10180.3-7315.4-10161.7-7315.4z"/>
		</g>
	</g>
	<g transform="translate(840,525) scale(0.07,0.07)">
		<g transform="">
			<path class="st2" d="M-11060.8-7281.7c0-7.8,0-33.6,0-33.6s22.9,0,33.6,0c8.4,0,33.6,0,33.6,0s0,23.4,0,33.6
				c0,18.6-15.1,33.6-33.6,33.6C-11045.7-7248.1-11060.8-7263.2-11060.8-7281.7z"/>
		</g>
	</g>
	<g transform="translate(910,525) scale(0.35,0.35)">
		<g transform="">
			<rect x="-2385.2" y="-1463.1" class="st2" width="13.5" height="13.5"/>
		</g>
	</g>
	<g transform="translate(980,525) scale(0.07,0.07)">
		<g transform="">
			<path class="st2" d="M-12758.1-7315.4c18.6,0,33.6,15.1,33.6,33.6c0,18.6-15.1,33.6-33.6,33.6c-18.6,0-33.6-15.1-33.6-33.6
				C-12791.7-7300.3-12776.7-7315.4-12758.1-7315.4z"/>
		</g>
	</g>
	<g transform="translate(0,560) scale(0.07,0.07)">
		<g transform="">
			<path class="st2" d="M-607.9-7714.5c0,7.8,0,33.6,0,33.6s-22.9,0-33.6,0c-8.4,0-33.6,0-33.6,0s0-23.4,0-33.6
				c0-18.6,15.1-33.6,33.6-33.6C-623-7748.1-607.9-7733.1-607.9-7714.5z"/>
		</g>
	</g>
	<g transform="translate(140,560) scale(0.35,0.35)">
		<g transform="">
			<rect x="-481.2" y="-1549.6" class="st2" width="13.5" height="13.5"/>
		</g>
	</g>
	<g transform="translate(210,560) scale(0.07,0.07)">
		<g transform="">
			<path class="st2" d="M-3238-7748.1c7.8,0,33.6,0,33.6,0s0,22.9,0,33.6c0,8.4,0,33.6,0,33.6s-23.4,0-33.6,0
				c-18.6,0-33.6-15.1-33.6-33.6C-3271.6-7733.1-3256.6-7748.1-3238-7748.1z"/>
		</g>
	</g>
	<g transform="translate(245,560) scale(0.07,0.07)">
		<g transform="">
			<path class="st2" d="M-3670.7-7680.8c-7.8,0-33.6,0-33.6,0s0-22.9,0-33.6c0-8.4,0-33.6,0-33.6s23.4,0,33.6,0
				c18.6,0,33.6,15.1,33.6,33.6C-3637.1-7695.9-3652.1-7680.8-3670.7-7680.8z"/>
		</g>
	</g>
	<g transform="translate(315,560) scale(0.07,0.07)">
		<g transform="">
			<path class="st2" d="M-4569.8-7714.5c0-7.8,0-33.6,0-33.6s22.9,0,33.6,0c8.4,0,33.6,0,33.6,0s0,23.4,0,33.6
				c0,18.6-15.1,33.6-33.6,33.6C-4554.7-7680.8-4569.8-7695.9-4569.8-7714.5z"/>
		</g>
	</g>
	<g transform="translate(385,560) scale(0.35,0.35)">
		<g transform="">
			<rect x="-1087.1" y="-1549.6" class="st2" width="13.5" height="13.5"/>
		</g>
	</g>
	<g transform="translate(490,560) scale(0.07,0.07)">
		<g transform="">
			<g>
				<path class="st2" d="M-6666.2-7680.8v-67.3h-67.3C-6733.5-7711-6703.3-7680.8-6666.2-7680.8z"/>
			</g>
		</g>
	</g>
	<g transform="translate(525,560) scale(0.35,0.35)">
		<g transform="">
			<rect x="-1433.2" y="-1549.6" class="st2" width="13.5" height="13.5"/>
		</g>
	</g>
	<g transform="translate(560,560) scale(0.35,0.35)">
		<g transform="">
			<rect x="-1519.8" y="-1549.6" class="st2" width="13.5" height="13.5"/>
		</g>
	</g>
	<g transform="translate(595,560) scale(0.07,0.07)">
		<g transform="">
			<path class="st2" d="M-7998-7680.8c-7.8,0-33.6,0-33.6,0s0-22.9,0-33.6c0-8.4,0-33.6,0-33.6s23.4,0,33.6,0
				c18.6,0,33.6,15.1,33.6,33.6C-7964.4-7695.9-7979.4-7680.8-7998-7680.8z"/>
		</g>
	</g>
	<g transform="translate(875,560) scale(0.07,0.07)">
		<g transform="">
			<path class="st2" d="M-11459.9-7748.1c7.8,0,33.6,0,33.6,0s0,22.9,0,33.6c0,8.4,0,33.6,0,33.6s-23.4,0-33.6,0
				c-18.6,0-33.6-15.1-33.6-33.6C-11493.5-7733.1-11478.5-7748.1-11459.9-7748.1z"/>
		</g>
	</g>
	<g transform="translate(910,560) scale(0.35,0.35)">
		<g transform="">
			<rect x="-2385.2" y="-1549.6" class="st2" width="13.5" height="13.5"/>
		</g>
	</g>
	<g transform="translate(0,595) scale(0.35,0.35)">
		<g transform="">
			<rect x="-135" y="-1636.2" class="st2" width="13.5" height="13.5"/>
		</g>
	</g>
	<g transform="translate(35,595) scale(0.07,0.07)">
		<g transform="">
			<g>
				<path class="st2" d="M-1107.9-8180.8v67.3h67.3C-1040.7-8150.7-1070.8-8180.8-1107.9-8180.8z"/>
			</g>
		</g>
	</g>
	<g transform="translate(105,595) scale(0.07,0.07)">
		<g transform="">
			<path class="st2" d="M-1939.8-8180.8c7.8,0,33.6,0,33.6,0s0,22.9,0,33.6c0,8.4,0,33.6,0,33.6s-23.4,0-33.6,0
				c-18.6,0-33.6-15.1-33.6-33.6C-1973.4-8165.8-1958.4-8180.8-1939.8-8180.8z"/>
		</g>
	</g>
	<g transform="translate(140,595) scale(0.35,0.35)">
		<g transform="">
			<rect x="-481.2" y="-1636.2" class="st2" width="13.5" height="13.5"/>
		</g>
	</g>
	<g transform="translate(280,595) scale(0.07,0.07)">
		<g transform="">
			<path class="st2" d="M-4069.8-8147.2c0,7.8,0,33.6,0,33.6s-22.9,0-33.6,0c-8.4,0-33.6,0-33.6,0s0-23.4,0-33.6
				c0-18.6,15.1-33.6,33.6-33.6C-4084.9-8180.8-4069.8-8165.8-4069.8-8147.2z"/>
		</g>
	</g>
	<g transform="translate(350,595) scale(0.07,0.07)">
		<g transform="">
			<path class="st2" d="M-4968.9-8180.8c7.8,0,33.6,0,33.6,0s0,22.9,0,33.6c0,8.4,0,33.6,0,33.6s-23.4,0-33.6,0
				c-18.6,0-33.6-15.1-33.6-33.6C-5002.5-8165.8-4987.5-8180.8-4968.9-8180.8z"/>
		</g>
	</g>
	<g transform="translate(385,595) scale(0.07,0.07)">
		<g transform="">
			<g>
				<path class="st2" d="M-5368-8180.8h-67.3v67.3C-5398.1-8113.6-5368-8143.7-5368-8180.8z"/>
			</g>
		</g>
	</g>
	<g transform="translate(525,595) scale(0.35,0.35)">
		<g transform="">
			<rect x="-1433.2" y="-1636.2" class="st2" width="13.5" height="13.5"/>
		</g>
	</g>
	<g transform="translate(560,595) scale(0.35,0.35)">
		<g transform="">
			<rect x="-1519.8" y="-1636.2" class="st2" width="13.5" height="13.5"/>
		</g>
	</g>
	<g transform="translate(630,595) scale(0.07,0.07)">
		<g transform="">
			<path class="st2" d="M-8430.8-8180.8c7.8,0,33.6,0,33.6,0s0,22.9,0,33.6c0,8.4,0,33.6,0,33.6s-23.4,0-33.6,0
				c-18.6,0-33.6-15.1-33.6-33.6C-8464.4-8165.8-8449.3-8180.8-8430.8-8180.8z"/>
		</g>
	</g>
	<g transform="translate(665,595) scale(0.35,0.35)">
		<g transform="">
			<rect x="-1779.4" y="-1636.2" class="st2" width="13.5" height="13.5"/>
		</g>
	</g>
	<g transform="translate(700,595) scale(0.07,0.07)">
		<g transform="">
			<g>
				<path class="st2" d="M-9329.9-8180.8v67.3h67.3C-9262.6-8150.7-9292.7-8180.8-9329.9-8180.8z"/>
			</g>
		</g>
	</g>
	<g transform="translate(770,595) scale(0.07,0.07)">
		<g transform="">
			<path class="st2" d="M-10161.7-8180.8c7.8,0,33.6,0,33.6,0s0,22.9,0,33.6c0,8.4,0,33.6,0,33.6s-23.4,0-33.6,0
				c-18.6,0-33.6-15.1-33.6-33.6C-10195.3-8165.8-10180.3-8180.8-10161.7-8180.8z"/>
		</g>
	</g>
	<g transform="translate(805,595) scale(0.35,0.35)">
		<g transform="">
			<rect x="-2125.6" y="-1636.2" class="st2" width="13.5" height="13.5"/>
		</g>
	</g>
	<g transform="translate(840,595) scale(0.07,0.07)">
		<g transform="">
			<path class="st2" d="M-11027.1-8113.6c-7.8,0-33.6,0-33.6,0s0-22.9,0-33.6c0-8.4,0-33.6,0-33.6s23.4,0,33.6,0
				c18.6,0,33.6,15.1,33.6,33.6C-10993.5-8128.6-11008.6-8113.6-11027.1-8113.6z"/>
		</g>
	</g>
	<g transform="translate(910,595) scale(0.07,0.07)">
		<g transform="">
			<g>
				<path class="st2" d="M-11859-8113.6v-67.3h-67.3C-11926.2-8143.7-11896.1-8113.6-11859-8113.6z"/>
			</g>
		</g>
	</g>
	<g transform="translate(945,595) scale(0.35,0.35)">
		<g transform="">
			<rect x="-2471.8" y="-1636.2" class="st2" width="13.5" height="13.5"/>
		</g>
	</g>
	<g transform="translate(980,595) scale(0.07,0.07)">
		<g transform="">
			<g>
				<path class="st2" d="M-12791.7-8180.8v67.3h67.3C-12724.4-8150.7-12754.6-8180.8-12791.7-8180.8z"/>
			</g>
		</g>
	</g>
	<g transform="translate(0,630) scale(0.35,0.35)">
		<g transform="">
			<rect x="-135" y="-1722.7" class="st2" width="13.5" height="13.5"/>
		</g>
	</g>
	<g transform="translate(35,630) scale(0.35,0.35)">
		<g transform="">
			<rect x="-221.6" y="-1722.7" class="st2" width="13.5" height="13.5"/>
		</g>
	</g>
	<g transform="translate(70,630) scale(0.07,0.07)">
		<g transform="">
			<g>
				<path class="st2" d="M-1540.7-8613.6v67.3h67.3C-1473.4-8583.5-1503.5-8613.6-1540.7-8613.6z"/>
			</g>
		</g>
	</g>
	<g transform="translate(140,630) scale(0.35,0.35)">
		<g transform="">
			<rect x="-481.2" y="-1722.7" class="st2" width="13.5" height="13.5"/>
		</g>
	</g>
	<g transform="translate(175,630) scale(0.35,0.35)">
		<g transform="">
			<rect x="-567.8" y="-1722.7" class="st2" width="13.5" height="13.5"/>
		</g>
	</g>
	<g transform="translate(210,630) scale(0.07,0.07)">
		<g transform="">
			<path class="st2" d="M-3238-8546.3c-7.8,0-33.6,0-33.6,0s0-22.9,0-33.6c0-8.4,0-33.6,0-33.6s23.4,0,33.6,0
				c18.6,0,33.6,15.1,33.6,33.6S-3219.4-8546.3-3238-8546.3z"/>
		</g>
	</g>
	<g transform="translate(280,630) scale(0.35,0.35)">
		<g transform="">
			<rect x="-827.4" y="-1722.7" class="st2" width="13.5" height="13.5"/>
		</g>
	</g>
	<g transform="translate(420,630) scale(0.07,0.07)">
		<g transform="">
			<g>
				<path class="st2" d="M-5868-8546.3h67.3v-67.3C-5837.9-8613.6-5868-8583.5-5868-8546.3z"/>
			</g>
		</g>
	</g>
	<g transform="translate(455,630) scale(0.35,0.35)">
		<g transform="">
			<rect x="-1260.1" y="-1722.7" class="st2" width="13.5" height="13.5"/>
		</g>
	</g>
	<g transform="translate(490,630) scale(0.35,0.35)">
		<g transform="">
			<rect x="-1346.7" y="-1722.7" class="st2" width="13.5" height="13.5"/>
		</g>
	</g>
	<g transform="translate(525,630) scale(0.35,0.35)">
		<g transform="">
			<rect x="-1433.2" y="-1722.7" class="st2" width="13.5" height="13.5"/>
		</g>
	</g>
	<g transform="translate(560,630) scale(0.35,0.35)">
		<g transform="">
			<rect x="-1519.8" y="-1722.7" class="st2" width="13.5" height="13.5"/>
		</g>
	</g>
	<g transform="translate(665,630) scale(0.35,0.35)">
		<g transform="">
			<rect x="-1779.4" y="-1722.7" class="st2" width="13.5" height="13.5"/>
		</g>
	</g>
	<g transform="translate(700,630) scale(0.35,0.35)">
		<g transform="">
			<rect x="-1866" y="-1722.7" class="st2" width="13.5" height="13.5"/>
		</g>
	</g>
	<g transform="translate(735,630) scale(0.07,0.07)">
		<g transform="">
			<path class="st2" d="M-9729-8546.3c-7.8,0-33.6,0-33.6,0s0-22.9,0-33.6c0-8.4,0-33.6,0-33.6s23.4,0,33.6,0
				c18.6,0,33.6,15.1,33.6,33.6S-9710.4-8546.3-9729-8546.3z"/>
		</g>
	</g>
	<g transform="translate(875,630) scale(0.07,0.07)">
		<g transform="">
			<path class="st2" d="M-11459.9-8613.6c18.6,0,33.6,15.1,33.6,33.6c0,18.6-15.1,33.6-33.6,33.6c-18.6,0-33.6-15.1-33.6-33.6
				C-11493.5-8598.5-11478.5-8613.6-11459.9-8613.6z"/>
		</g>
	</g>
	<g transform="translate(980,630) scale(0.07,0.07)">
		<g transform="">
			<path class="st2" d="M-12791.7-8579.9c0-7.8,0-33.6,0-33.6s22.9,0,33.6,0c8.4,0,33.6,0,33.6,0s0,23.4,0,33.6
				c0,18.6-15.1,33.6-33.6,33.6S-12791.7-8561.4-12791.7-8579.9z"/>
		</g>
	</g>
	<g transform="translate(0,665) scale(0.35,0.35)">
		<g transform="">
			<rect x="-135" y="-1809.3" class="st2" width="13.5" height="13.5"/>
		</g>
	</g>
	<g transform="translate(70,665) scale(0.07,0.07)">
		<g transform="">
			<path class="st2" d="M-1540.7-9012.7c0-7.8,0-33.6,0-33.6s22.9,0,33.6,0c8.4,0,33.6,0,33.6,0s0,23.4,0,33.6
				c0,18.6-15.1,33.6-33.6,33.6C-1525.6-8979-1540.7-8994.1-1540.7-9012.7z"/>
		</g>
	</g>
	<g transform="translate(140,665) scale(0.35,0.35)">
		<g transform="">
			<rect x="-481.2" y="-1809.3" class="st2" width="13.5" height="13.5"/>
		</g>
	</g>
	<g transform="translate(280,665) scale(0.35,0.35)">
		<g transform="">
			<rect x="-827.4" y="-1809.3" class="st2" width="13.5" height="13.5"/>
		</g>
	</g>
	<g transform="translate(315,665) scale(0.35,0.35)">
		<g transform="">
			<rect x="-914" y="-1809.3" class="st2" width="13.5" height="13.5"/>
		</g>
	</g>
	<g transform="translate(350,665) scale(0.07,0.07)">
		<g transform="">
			<g>
				<path class="st2" d="M-5002.5-9046.3v67.3h67.3C-4935.3-9016.2-4965.4-9046.3-5002.5-9046.3z"/>
			</g>
		</g>
	</g>
	<g transform="translate(420,665) scale(0.35,0.35)">
		<g transform="">
			<rect x="-1173.6" y="-1809.3" class="st2" width="13.5" height="13.5"/>
		</g>
	</g>
	<g transform="translate(490,665) scale(0.07,0.07)">
		<g transform="">
			<g>
				<path class="st2" d="M-6666.2-8979v-67.3h-67.3C-6733.5-9009.2-6703.3-8979-6666.2-8979z"/>
			</g>
		</g>
	</g>
	<g transform="translate(525,665) scale(0.35,0.35)">
		<g transform="">
			<rect x="-1433.2" y="-1809.3" class="st2" width="13.5" height="13.5"/>
		</g>
	</g>
	<g transform="translate(560,665) scale(0.07,0.07)">
		<g transform="">
			<g>
				<path class="st2" d="M-7531.7-9046.3h-67.3v67.3C-7561.8-8979-7531.7-9009.2-7531.7-9046.3z"/>
			</g>
		</g>
	</g>
	<g transform="translate(665,665) scale(0.07,0.07)">
		<g transform="">
			<path class="st2" d="M-8897.1-9012.7c0-7.8,0-33.6,0-33.6s22.9,0,33.6,0c8.4,0,33.6,0,33.6,0s0,23.4,0,33.6
				c0,18.6-15.1,33.6-33.6,33.6S-8897.1-8994.1-8897.1-9012.7z"/>
		</g>
	</g>
	<g transform="translate(805,665) scale(0.07,0.07)">
		<g transform="">
			<path class="st2" d="M-10560.8-9012.7c0,7.8,0,33.6,0,33.6s-22.9,0-33.6,0c-8.4,0-33.6,0-33.6,0s0-23.4,0-33.6
				c0-18.6,15.1-33.6,33.6-33.6S-10560.8-9031.3-10560.8-9012.7z"/>
		</g>
	</g>
	<g transform="translate(0,700) scale(0.07,0.07)">
		<g transform="">
			<path class="st2" d="M-675.2-9445.4c0-7.8,0-33.6,0-33.6s22.9,0,33.6,0c8.4,0,33.6,0,33.6,0s0,23.4,0,33.6
				c0,18.6-15.1,33.6-33.6,33.6C-660.2-9411.8-675.2-9426.8-675.2-9445.4z"/>
		</g>
	</g>
	<g transform="translate(105,700) scale(0.07,0.07)">
		<g transform="">
			<path class="st2" d="M-1939.8-9479c7.8,0,33.6,0,33.6,0s0,22.9,0,33.6c0,8.4,0,33.6,0,33.6s-23.4,0-33.6,0
				c-18.6,0-33.6-15.1-33.6-33.6C-1973.4-9464-1958.4-9479-1939.8-9479z"/>
		</g>
	</g>
	<g transform="translate(140,700) scale(0.07,0.07)">
		<g transform="">
			<g>
				<path class="st2" d="M-2338.9-9479h-67.3v67.3C-2369-9411.8-2338.9-9441.9-2338.9-9479z"/>
			</g>
		</g>
	</g>
	<g transform="translate(210,700) scale(0.07,0.07)">
		<g transform="">
			<path class="st2" d="M-3238-9479c18.6,0,33.6,15.1,33.6,33.6c0,18.6-15.1,33.6-33.6,33.6c-18.6,0-33.6-15.1-33.6-33.6
				C-3271.6-9464-3256.5-9479-3238-9479z"/>
		</g>
	</g>
	<g transform="translate(280,700) scale(0.35,0.35)">
		<g transform="">
			<rect x="-827.4" y="-1895.8" class="st2" width="13.5" height="13.5"/>
		</g>
	</g>
	<g transform="translate(350,700) scale(0.07,0.07)">
		<g transform="">
			<g>
				<path class="st2" d="M-4935.3-9411.8v-67.3h-67.3C-5002.5-9441.9-4972.4-9411.8-4935.3-9411.8z"/>
			</g>
		</g>
	</g>
	<g transform="translate(385,700) scale(0.35,0.35)">
		<g transform="">
			<rect x="-1087.1" y="-1895.8" class="st2" width="13.5" height="13.5"/>
		</g>
	</g>
	<g transform="translate(420,700) scale(0.07,0.07)">
		<g transform="">
			<g>
				<path class="st2" d="M-5800.7-9479h-67.3v67.3C-5830.8-9411.8-5800.7-9441.9-5800.7-9479z"/>
			</g>
		</g>
	</g>
	<g transform="translate(595,700) scale(0.07,0.07)">
		<g transform="">
			<path class="st2" d="M-7998-9479c18.6,0,33.6,15.1,33.6,33.6c0,18.6-15.1,33.6-33.6,33.6c-18.6,0-33.6-15.1-33.6-33.6
				C-8031.7-9464-8016.6-9479-7998-9479z"/>
		</g>
	</g>
	<g transform="translate(700,700) scale(0.07,0.07)">
		<g transform="">
			<g>
				<path class="st2" d="M-9329.9-9411.8h67.3v-67.3C-9299.7-9479-9329.9-9448.9-9329.9-9411.8z"/>
			</g>
		</g>
	</g>
	<g transform="translate(735,700) scale(0.35,0.35)">
		<g transform="">
			<rect x="-1952.5" y="-1895.8" class="st2" width="13.5" height="13.5"/>
		</g>
	</g>
	<g transform="translate(770,700) scale(0.35,0.35)">
		<g transform="">
			<rect x="-2039.1" y="-1895.8" class="st2" width="13.5" height="13.5"/>
		</g>
	</g>
	<g transform="translate(805,700) scale(0.35,0.35)">
		<g transform="">
			<rect x="-2125.6" y="-1895.8" class="st2" width="13.5" height="13.5"/>
		</g>
	</g>
	<g transform="translate(840,700) scale(0.07,0.07)">
		<g transform="">
			<g>
				<path class="st2" d="M-11060.8-9479v67.3h67.3C-10993.5-9448.9-11023.6-9479-11060.8-9479z"/>
			</g>
		</g>
	</g>
	<g transform="translate(910,700) scale(0.07,0.07)">
		<g transform="">
			<path class="st2" d="M-11892.6-9479c7.8,0,33.6,0,33.6,0s0,22.9,0,33.6c0,8.4,0,33.6,0,33.6s-23.4,0-33.6,0
				c-18.6,0-33.6-15.1-33.6-33.6C-11926.2-9464-11911.2-9479-11892.6-9479z"/>
		</g>
	</g>
	<g transform="translate(945,700) scale(0.35,0.35)">
		<g transform="">
			<rect x="-2471.8" y="-1895.8" class="st2" width="13.5" height="13.5"/>
		</g>
	</g>
	<g transform="translate(980,700) scale(0.07,0.07)">
		<g transform="">
			<path class="st2" d="M-12758.1-9411.8c-7.8,0-33.6,0-33.6,0s0-22.9,0-33.6c0-8.4,0-33.6,0-33.6s23.4,0,33.6,0
				c18.6,0,33.6,15.1,33.6,33.6C-12724.4-9426.8-12739.5-9411.8-12758.1-9411.8z"/>
		</g>
	</g>
	<g transform="translate(280,735) scale(0.07,0.07)">
		<g transform="">
			<path class="st2" d="M-4137.1-9878.1c0-7.8,0-33.6,0-33.6s22.9,0,33.6,0c8.4,0,33.6,0,33.6,0s0,23.4,0,33.6
				c0,18.6-15.1,33.6-33.6,33.6C-4122-9844.5-4137.1-9859.6-4137.1-9878.1z"/>
		</g>
	</g>
	<g transform="translate(455,735) scale(0.07,0.07)">
		<g transform="">
			<path class="st2" d="M-6233.5-9878.1c0,7.8,0,33.6,0,33.6s-22.9,0-33.6,0c-8.4,0-33.6,0-33.6,0s0-23.4,0-33.6
				c0-18.6,15.1-33.6,33.6-33.6C-6248.5-9911.8-6233.5-9896.7-6233.5-9878.1z"/>
		</g>
	</g>
	<g transform="translate(525,735) scale(0.07,0.07)">
		<g transform="">
			<path class="st2" d="M-7098.9-9878.1c0,7.8,0,33.6,0,33.6s-22.9,0-33.6,0c-8.4,0-33.6,0-33.6,0s0-23.4,0-33.6
				c0-18.6,15.1-33.6,33.6-33.6C-7114-9911.8-7098.9-9896.7-7098.9-9878.1z"/>
		</g>
	</g>
	<g transform="translate(630,735) scale(0.07,0.07)">
		<g transform="">
			<path class="st2" d="M-8430.8-9911.8c7.8,0,33.6,0,33.6,0s0,22.9,0,33.6c0,8.4,0,33.6,0,33.6s-23.4,0-33.6,0
				c-18.6,0-33.6-15.1-33.6-33.6C-8464.4-9896.7-8449.3-9911.8-8430.8-9911.8z"/>
		</g>
	</g>
	<g transform="translate(665,735) scale(0.35,0.35)">
		<g transform="">
			<rect x="-1779.4" y="-1982.4" class="st2" width="13.5" height="13.5"/>
		</g>
	</g>
	<g transform="translate(700,735) scale(0.35,0.35)">
		<g transform="">
			<rect x="-1866" y="-1982.4" class="st2" width="13.5" height="13.5"/>
		</g>
	</g>
	<g transform="translate(840,735) scale(0.35,0.35)">
		<g transform="">
			<rect x="-2212.2" y="-1982.4" class="st2" width="13.5" height="13.5"/>
		</g>
	</g>
	<g transform="translate(875,735) scale(0.07,0.07)">
		<g transform="">
			<g>
				<path class="st2" d="M-11493.5-9911.8v67.3h67.3C-11426.2-9881.7-11456.4-9911.8-11493.5-9911.8z"/>
			</g>
		</g>
	</g>
	<g transform="translate(420,770) scale(0.07,0.07)">
		<g transform="">
			<path class="st2" d="M-5834.4-10344.5c7.8,0,33.6,0,33.6,0s0,22.9,0,33.6c0,8.4,0,33.6,0,33.6s-23.4,0-33.6,0
				c-18.6,0-33.6-15.1-33.6-33.6C-5868-10329.4-5852.9-10344.5-5834.4-10344.5z"/>
		</g>
	</g>
	<g transform="translate(455,770) scale(0.35,0.35)">
		<g transform="">
			<rect x="-1260.1" y="-2068.9" class="st2" width="13.5" height="13.5"/>
		</g>
	</g>
	<g transform="translate(490,770) scale(0.35,0.35)">
		<g transform="">
			<rect x="-1346.7" y="-2068.9" class="st2" width="13.5" height="13.5"/>
		</g>
	</g>
	<g transform="translate(525,770) scale(0.35,0.35)">
		<g transform="">
			<rect x="-1433.2" y="-2068.9" class="st2" width="13.5" height="13.5"/>
		</g>
	</g>
	<g transform="translate(560,770) scale(0.07,0.07)">
		<g transform="">
			<g>
				<path class="st2" d="M-7598.9-10344.5v67.3h67.3C-7531.7-10314.4-7561.8-10344.5-7598.9-10344.5z"/>
			</g>
		</g>
	</g>
	<g transform="translate(665,770) scale(0.35,0.35)">
		<g transform="">
			<rect x="-1779.4" y="-2068.9" class="st2" width="13.5" height="13.5"/>
		</g>
	</g>
	<g transform="translate(700,770) scale(0.35,0.35)">
		<g transform="">
			<rect x="-1866" y="-2068.9" class="st2" width="13.5" height="13.5"/>
		</g>
	</g>
	<g transform="translate(770,770) scale(0.07,0.07)">
		<g transform="">
			<path class="st2" d="M-10161.7-10344.5c18.6,0,33.6,15.1,33.6,33.6c0,18.6-15.1,33.6-33.6,33.6c-18.6,0-33.6-15.1-33.6-33.6
				C-10195.3-10329.4-10180.3-10344.5-10161.7-10344.5z"/>
		</g>
	</g>
	<g transform="translate(840,770) scale(0.35,0.35)">
		<g transform="">
			<rect x="-2212.2" y="-2068.9" class="st2" width="13.5" height="13.5"/>
		</g>
	</g>
	<g transform="translate(875,770) scale(0.35,0.35)">
		<g transform="">
			<rect x="-2298.7" y="-2068.9" class="st2" width="13.5" height="13.5"/>
		</g>
	</g>
	<g transform="translate(910,770) scale(0.07,0.07)">
		<g transform="">
			<path class="st2" d="M-11892.6-10277.2c-7.8,0-33.6,0-33.6,0s0-22.9,0-33.6c0-8.4,0-33.6,0-33.6s23.4,0,33.6,0
				c18.6,0,33.6,15.1,33.6,33.6C-11859-10292.3-11874-10277.2-11892.6-10277.2z"/>
		</g>
	</g>
	<g transform="translate(350,805) scale(0.07,0.07)">
		<g transform="">
			<g>
				<path class="st2" d="M-5002.5-10710h67.3v-67.3C-4972.4-10777.2-5002.5-10747.1-5002.5-10710z"/>
			</g>
		</g>
	</g>
	<g transform="translate(385,805) scale(0.07,0.07)">
		<g transform="">
			<path class="st2" d="M-5401.6-10710c-7.8,0-33.6,0-33.6,0s0-22.9,0-33.6c0-8.4,0-33.6,0-33.6s23.4,0,33.6,0
				c18.6,0,33.6,15.1,33.6,33.6C-5368-10725-5383.1-10710-5401.6-10710z"/>
		</g>
	</g>
	<g transform="translate(455,805) scale(0.35,0.35)">
		<g transform="">
			<rect x="-1260.1" y="-2155.4" class="st2" width="13.5" height="13.5"/>
		</g>
	</g>
	<g transform="translate(560,805) scale(0.35,0.35)">
		<g transform="">
			<rect x="-1519.8" y="-2155.4" class="st2" width="13.5" height="13.5"/>
		</g>
	</g>
	<g transform="translate(665,805) scale(0.35,0.35)">
		<g transform="">
			<rect x="-1779.4" y="-2155.4" class="st2" width="13.5" height="13.5"/>
		</g>
	</g>
	<g transform="translate(700,805) scale(0.35,0.35)">
		<g transform="">
			<rect x="-1866" y="-2155.4" class="st2" width="13.5" height="13.5"/>
		</g>
	</g>
	<g transform="translate(840,805) scale(0.35,0.35)">
		<g transform="">
			<rect x="-2212.2" y="-2155.4" class="st2" width="13.5" height="13.5"/>
		</g>
	</g>
	<g transform="translate(945,805) scale(0.07,0.07)">
		<g transform="">
			<path class="st2" d="M-12325.3-10777.2c7.8,0,33.6,0,33.6,0s0,22.9,0,33.6c0,8.4,0,33.6,0,33.6s-23.4,0-33.6,0
				c-18.6,0-33.6-15.1-33.6-33.6C-12359-10762.2-12343.9-10777.2-12325.3-10777.2z"/>
		</g>
	</g>
	<g transform="translate(980,805) scale(0.07,0.07)">
		<g transform="">
			<g>
				<path class="st2" d="M-12791.7-10777.2v67.3h67.3C-12724.4-10747.1-12754.6-10777.2-12791.7-10777.2z"/>
			</g>
		</g>
	</g>
	<g transform="translate(315,840) scale(0.07,0.07)">
		<g transform="">
			<g>
				<path class="st2" d="M-4569.8-11142.7h67.3v-67.3C-4539.7-11210-4569.8-11179.9-4569.8-11142.7z"/>
			</g>
		</g>
	</g>
	<g transform="translate(350,840) scale(0.35,0.35)">
		<g transform="">
			<rect x="-1000.5" y="-2242" class="st2" width="13.5" height="13.5"/>
		</g>
	</g>
	<g transform="translate(420,840) scale(0.07,0.07)">
		<g transform="">
			<path class="st2" d="M-5834.4-11210c7.8,0,33.6,0,33.6,0s0,22.9,0,33.6c0,8.4,0,33.6,0,33.6s-23.4,0-33.6,0
				c-18.6,0-33.6-15.1-33.6-33.6C-5868-11194.9-5852.9-11210-5834.4-11210z"/>
		</g>
	</g>
	<g transform="translate(455,840) scale(0.07,0.07)">
		<g transform="">
			<g>
				<path class="st2" d="M-6233.5-11210h-67.3v67.3C-6263.6-11142.7-6233.5-11172.8-6233.5-11210z"/>
			</g>
		</g>
	</g>
	<g transform="translate(525,840) scale(0.07,0.07)">
		<g transform="">
			<g>
				<path class="st2" d="M-7166.2-11142.7h67.3v-67.3C-7136.1-11210-7166.2-11179.9-7166.2-11142.7z"/>
			</g>
		</g>
	</g>
	<g transform="translate(560,840) scale(0.35,0.35)">
		<g transform="">
			<rect x="-1519.8" y="-2242" class="st2" width="13.5" height="13.5"/>
		</g>
	</g>
	<g transform="translate(665,840) scale(0.07,0.07)">
		<g transform="">
			<g>
				<path class="st2" d="M-8829.9-11142.7v-67.3h-67.3C-8897.1-11172.8-8867-11142.7-8829.9-11142.7z"/>
			</g>
		</g>
	</g>
	<g transform="translate(700,840) scale(0.35,0.35)">
		<g transform="">
			<rect x="-1866" y="-2242" class="st2" width="13.5" height="13.5"/>
		</g>
	</g>
	<g transform="translate(735,840) scale(0.35,0.35)">
		<g transform="">
			<rect x="-1952.5" y="-2242" class="st2" width="13.5" height="13.5"/>
		</g>
	</g>
	<g transform="translate(770,840) scale(0.35,0.35)">
		<g transform="">
			<rect x="-2039.1" y="-2242" class="st2" width="13.5" height="13.5"/>
		</g>
	</g>
	<g transform="translate(805,840) scale(0.35,0.35)">
		<g transform="">
			<rect x="-2125.6" y="-2242" class="st2" width="13.5" height="13.5"/>
		</g>
	</g>
	<g transform="translate(840,840) scale(0.35,0.35)">
		<g transform="">
			<rect x="-2212.2" y="-2242" class="st2" width="13.5" height="13.5"/>
		</g>
	</g>
	<g transform="translate(875,840) scale(0.07,0.07)">
		<g transform="">
			<g>
				<path class="st2" d="M-11493.5-11210v67.3h67.3C-11426.2-11179.9-11456.4-11210-11493.5-11210z"/>
			</g>
		</g>
	</g>
	<g transform="translate(980,840) scale(0.35,0.35)">
		<g transform="">
			<rect x="-2558.3" y="-2242" class="st2" width="13.5" height="13.5"/>
		</g>
	</g>
	<g transform="translate(315,875) scale(0.35,0.35)">
		<g transform="">
			<rect x="-914" y="-2328.5" class="st2" width="13.5" height="13.5"/>
		</g>
	</g>
	<g transform="translate(350,875) scale(0.35,0.35)">
		<g transform="">
			<rect x="-1000.5" y="-2328.5" class="st2" width="13.5" height="13.5"/>
		</g>
	</g>
	<g transform="translate(385,875) scale(0.07,0.07)">
		<g transform="">
			<path class="st2" d="M-5401.6-11575.4c-7.8,0-33.6,0-33.6,0s0-22.9,0-33.6c0-8.4,0-33.6,0-33.6s23.4,0,33.6,0
				c18.6,0,33.6,15.1,33.6,33.6C-5368-11590.5-5383.1-11575.4-5401.6-11575.4z"/>
		</g>
	</g>
	<g transform="translate(525,875) scale(0.35,0.35)">
		<g transform="">
			<rect x="-1433.2" y="-2328.5" class="st2" width="13.5" height="13.5"/>
		</g>
	</g>
	<g transform="translate(560,875) scale(0.35,0.35)">
		<g transform="">
			<rect x="-1519.8" y="-2328.5" class="st2" width="13.5" height="13.5"/>
		</g>
	</g>
	<g transform="translate(595,875) scale(0.35,0.35)">
		<g transform="">
			<rect x="-1606.3" y="-2328.5" class="st2" width="13.5" height="13.5"/>
		</g>
	</g>
	<g transform="translate(630,875) scale(0.07,0.07)">
		<g transform="">
			<path class="st2" d="M-8430.8-11575.4c-7.8,0-33.6,0-33.6,0s0-22.9,0-33.6c0-8.4,0-33.6,0-33.6s23.4,0,33.6,0
				c18.6,0,33.6,15.1,33.6,33.6C-8397.1-11590.5-8412.2-11575.4-8430.8-11575.4z"/>
		</g>
	</g>
	<g transform="translate(735,875) scale(0.35,0.35)">
		<g transform="">
			<rect x="-1952.5" y="-2328.5" class="st2" width="13.5" height="13.5"/>
		</g>
	</g>
	<g transform="translate(875,875) scale(0.35,0.35)">
		<g transform="">
			<rect x="-2298.7" y="-2328.5" class="st2" width="13.5" height="13.5"/>
		</g>
	</g>
	<g transform="translate(910,875) scale(0.07,0.07)">
		<g transform="">
			<g>
				<path class="st2" d="M-11926.2-11642.7v67.3h67.3C-11859-11612.6-11889.1-11642.7-11926.2-11642.7z"/>
			</g>
		</g>
	</g>
	<g transform="translate(980,875) scale(0.07,0.07)">
		<g transform="">
			<path class="st2" d="M-12791.7-11609.1c0-7.8,0-33.6,0-33.6s22.9,0,33.6,0c8.4,0,33.6,0,33.6,0s0,23.4,0,33.6
				c0,18.6-15.1,33.6-33.6,33.6S-12791.7-11590.5-12791.7-11609.1z"/>
		</g>
	</g>
	<g transform="translate(315,910) scale(0.07,0.07)">
		<g transform="">
			<g>
				<path class="st2" d="M-4502.5-12008.2v-67.3h-67.3C-4569.8-12038.3-4539.7-12008.2-4502.5-12008.2z"/>
			</g>
		</g>
	</g>
	<g transform="translate(350,910) scale(0.35,0.35)">
		<g transform="">
			<rect x="-1000.5" y="-2415.1" class="st2" width="13.5" height="13.5"/>
		</g>
	</g>
	<g transform="translate(455,910) scale(0.07,0.07)">
		<g transform="">
			<path class="st2" d="M-6267.1-12075.4c7.8,0,33.6,0,33.6,0s0,22.9,0,33.6c0,8.4,0,33.6,0,33.6s-23.4,0-33.6,0
				c-18.6,0-33.6-15.1-33.6-33.6C-6300.7-12060.4-6285.7-12075.4-6267.1-12075.4z"/>
		</g>
	</g>
	<g transform="translate(490,910) scale(0.35,0.35)">
		<g transform="">
			<rect x="-1346.7" y="-2415.1" class="st2" width="13.5" height="13.5"/>
		</g>
	</g>
	<g transform="translate(525,910) scale(0.35,0.35)">
		<g transform="">
			<rect x="-1433.2" y="-2415.1" class="st2" width="13.5" height="13.5"/>
		</g>
	</g>
	<g transform="translate(560,910) scale(0.35,0.35)">
		<g transform="">
			<rect x="-1519.8" y="-2415.1" class="st2" width="13.5" height="13.5"/>
		</g>
	</g>
	<g transform="translate(665,910) scale(0.07,0.07)">
		<g transform="">
			<path class="st2" d="M-8829.9-12041.8c0,7.8,0,33.6,0,33.6s-22.9,0-33.6,0c-8.4,0-33.6,0-33.6,0s0-23.4,0-33.6
				c0-18.6,15.1-33.6,33.6-33.6S-8829.9-12060.4-8829.9-12041.8z"/>
		</g>
	</g>
	<g transform="translate(735,910) scale(0.35,0.35)">
		<g transform="">
			<rect x="-1952.5" y="-2415.1" class="st2" width="13.5" height="13.5"/>
		</g>
	</g>
	<g transform="translate(770,910) scale(0.35,0.35)">
		<g transform="">
			<rect x="-2039.1" y="-2415.1" class="st2" width="13.5" height="13.5"/>
		</g>
	</g>
	<g transform="translate(805,910) scale(0.35,0.35)">
		<g transform="">
			<rect x="-2125.6" y="-2415.1" class="st2" width="13.5" height="13.5"/>
		</g>
	</g>
	<g transform="translate(840,910) scale(0.35,0.35)">
		<g transform="">
			<rect x="-2212.2" y="-2415.1" class="st2" width="13.5" height="13.5"/>
		</g>
	</g>
	<g transform="translate(875,910) scale(0.35,0.35)">
		<g transform="">
			<rect x="-2298.7" y="-2415.1" class="st2" width="13.5" height="13.5"/>
		</g>
	</g>
	<g transform="translate(910,910) scale(0.35,0.35)">
		<g transform="">
			<rect x="-2385.2" y="-2415.1" class="st2" width="13.5" height="13.5"/>
		</g>
	</g>
	<g transform="translate(945,910) scale(0.07,0.07)">
		<g transform="">
			<path class="st2" d="M-12325.3-12008.2c-7.8,0-33.6,0-33.6,0s0-22.9,0-33.6c0-8.4,0-33.6,0-33.6s23.4,0,33.6,0
				c18.6,0,33.6,15.1,33.6,33.6C-12291.7-12023.2-12306.8-12008.2-12325.3-12008.2z"/>
		</g>
	</g>
	<g transform="translate(350,945) scale(0.35,0.35)">
		<g transform="">
			<rect x="-1000.5" y="-2501.6" class="st2" width="13.5" height="13.5"/>
		</g>
	</g>
	<g transform="translate(420,945) scale(0.07,0.07)">
		<g transform="">
			<path class="st2" d="M-5834.4-12508.2c18.6,0,33.6,15.1,33.6,33.6c0,18.6-15.1,33.6-33.6,33.6c-18.6,0-33.6-15.1-33.6-33.6
				C-5868-12493.1-5852.9-12508.2-5834.4-12508.2z"/>
		</g>
	</g>
	<g transform="translate(525,945) scale(0.35,0.35)">
		<g transform="">
			<rect x="-1433.2" y="-2501.6" class="st2" width="13.5" height="13.5"/>
		</g>
	</g>
	<g transform="translate(560,945) scale(0.35,0.35)">
		<g transform="">
			<rect x="-1519.8" y="-2501.6" class="st2" width="13.5" height="13.5"/>
		</g>
	</g>
	<g transform="translate(630,945) scale(0.07,0.07)">
		<g transform="">
			<path class="st2" d="M-8430.8-12508.2c7.8,0,33.6,0,33.6,0s0,22.9,0,33.6c0,8.4,0,33.6,0,33.6s-23.4,0-33.6,0
				c-18.6,0-33.6-15.1-33.6-33.6C-8464.4-12493.1-8449.3-12508.2-8430.8-12508.2z"/>
		</g>
	</g>
	<g transform="translate(665,945) scale(0.35,0.35)">
		<g transform="">
			<rect x="-1779.4" y="-2501.6" class="st2" width="13.5" height="13.5"/>
		</g>
	</g>
	<g transform="translate(735,945) scale(0.07,0.07)">
		<g transform="">
			<g>
				<path class="st2" d="M-9695.3-12440.9v-67.3h-67.3C-9762.6-12471-9732.5-12440.9-9695.3-12440.9z"/>
			</g>
		</g>
	</g>
	<g transform="translate(770,945) scale(0.07,0.07)">
		<g transform="">
			<g>
				<path class="st2" d="M-10128-12508.2h-67.3v67.3C-10158.2-12440.9-10128-12471-10128-12508.2z"/>
			</g>
		</g>
	</g>
	<g transform="translate(840,945) scale(0.35,0.35)">
		<g transform="">
			<rect x="-2212.2" y="-2501.6" class="st2" width="13.5" height="13.5"/>
		</g>
	</g>
	<g transform="translate(875,945) scale(0.35,0.35)">
		<g transform="">
			<rect x="-2298.7" y="-2501.6" class="st2" width="13.5" height="13.5"/>
		</g>
	</g>
	<g transform="translate(910,945) scale(0.35,0.35)">
		<g transform="">
			<rect x="-2385.2" y="-2501.6" class="st2" width="13.5" height="13.5"/>
		</g>
	</g>
	<g transform="translate(980,945) scale(0.07,0.07)">
		<g transform="">
			<path class="st2" d="M-12758.1-12508.2c18.6,0,33.6,15.1,33.6,33.6c0,18.6-15.1,33.6-33.6,33.6c-18.6,0-33.6-15.1-33.6-33.6
				C-12791.7-12493.1-12776.7-12508.2-12758.1-12508.2z"/>
		</g>
	</g>
	<g transform="translate(280,980) scale(0.07,0.07)">
		<g transform="">
			<path class="st2" d="M-4103.4-12940.9c7.8,0,33.6,0,33.6,0s0,22.9,0,33.6c0,8.4,0,33.6,0,33.6s-23.4,0-33.6,0
				c-18.6,0-33.6-15.1-33.6-33.6C-4137.1-12925.8-4122-12940.9-4103.4-12940.9z"/>
		</g>
	</g>
	<g transform="translate(315,980) scale(0.35,0.35)">
		<g transform="">
			<rect x="-914" y="-2588.2" class="st2" width="13.5" height="13.5"/>
		</g>
	</g>
	<g transform="translate(350,980) scale(0.07,0.07)">
		<g transform="">
			<g>
				<path class="st2" d="M-4935.3-12940.9h-67.3v67.3C-4965.4-12873.6-4935.3-12903.7-4935.3-12940.9z"/>
			</g>
		</g>
	</g>
	<g transform="translate(455,980) scale(0.07,0.07)">
		<g transform="">
			<path class="st2" d="M-6267.1-12940.9c18.6,0,33.6,15.1,33.6,33.6s-15.1,33.6-33.6,33.6c-18.6,0-33.6-15.1-33.6-33.6
				S-6285.7-12940.9-6267.1-12940.9z"/>
		</g>
	</g>
	<g transform="translate(525,980) scale(0.07,0.07)">
		<g transform="">
			<g>
				<path class="st2" d="M-7098.9-12873.6v-67.3h-67.3C-7166.2-12903.7-7136.1-12873.6-7098.9-12873.6z"/>
			</g>
		</g>
	</g>
	<g transform="translate(560,980) scale(0.35,0.35)">
		<g transform="">
			<rect x="-1519.8" y="-2588.2" class="st2" width="13.5" height="13.5"/>
		</g>
	</g>
	<g transform="translate(595,980) scale(0.07,0.07)">
		<g transform="">
			<path class="st2" d="M-7998-12873.6c-7.8,0-33.6,0-33.6,0s0-22.9,0-33.6c0-8.4,0-33.6,0-33.6s23.4,0,33.6,0
				c18.6,0,33.6,15.1,33.6,33.6C-7964.4-12888.7-7979.4-12873.6-7998-12873.6z"/>
		</g>
	</g>
	<g transform="translate(665,980) scale(0.07,0.07)">
		<g transform="">
			<path class="st2" d="M-8897.1-12907.3c0-7.8,0-33.6,0-33.6s22.9,0,33.6,0c8.4,0,33.6,0,33.6,0s0,23.4,0,33.6
				c0,18.6-15.1,33.6-33.6,33.6S-8897.1-12888.7-8897.1-12907.3z"/>
		</g>
	</g>
	<g transform="translate(805,980) scale(0.07,0.07)">
		<g transform="">
			<path class="st2" d="M-10594.4-12940.9c7.8,0,33.6,0,33.6,0s0,22.9,0,33.6c0,8.4,0,33.6,0,33.6s-23.4,0-33.6,0
				c-18.6,0-33.6-15.1-33.6-33.6C-10628-12925.8-10613-12940.9-10594.4-12940.9z"/>
		</g>
	</g>
	<g transform="translate(840,980) scale(0.35,0.35)">
		<g transform="">
			<rect x="-2212.2" y="-2588.2" class="st2" width="13.5" height="13.5"/>
		</g>
	</g>
	<g transform="translate(875,980) scale(0.35,0.35)">
		<g transform="">
			<rect x="-2298.7" y="-2588.2" class="st2" width="13.5" height="13.5"/>
		</g>
	</g>
	<g transform="translate(910,980) scale(0.07,0.07)">
		<g transform="">
			<g>
				<path class="st2" d="M-11859-12940.9h-67.3v67.3C-11889.1-12873.6-11859-12903.7-11859-12940.9z"/>
			</g>
		</g>
	</g>
	<g transform="translate(0,0) scale(2.45, 2.45)">
		<g transform="">
			<g>
				<path class="st3" d="M-10.4-21.5h-4.3c-0.5,0-1.1,0.2-1.5,0.5c-0.3,0.2-0.6,0.5-0.8,0.9c-0.2,0.4-0.3,0.8-0.3,1.2v4.4
					c0,1.4,1.2,2.5,2.6,2.5l2.1,0l2.1,0c1.4,0,2.6-1.1,2.6-2.5V-19C-7.9-20.4-9-21.5-10.4-21.5z"/>
				<path class="st2" d="M-10.4-23.6h-4.3l0,0c-2.1,0-3.8,1.4-4.4,3.3c-0.1,0.2-0.1,0.4-0.1,0.6c0,0.2-0.1,0.5-0.1,0.7v4.4
					c0,2.5,2.1,4.5,4.6,4.5l2.1,0l2.1,0c2.5,0,4.6-2,4.6-4.5V-19C-5.8-21.5-7.9-23.6-10.4-23.6z M-7.9-14.6c0,1.4-1.2,2.5-2.6,2.5
					l-2.1,0l-2.1,0c-1.4,0-2.6-1.1-2.6-2.5V-19c0-0.4,0.1-0.8,0.3-1.2c0.2-0.3,0.5-0.6,0.8-0.9c0.4-0.3,0.9-0.5,1.5-0.5h4.3
					c1.4,0,2.6,1.1,2.6,2.5V-14.6z"/>
			</g>
		</g>
	</g>
	<g transform="translate(770,0) scale(2.45, 2.45)">
		<g transform="">
			<g>
				<path class="st3" d="M-282.4-21.5h-4.3c-0.5,0-1.1,0.2-1.5,0.5c-0.3,0.2-0.6,0.5-0.8,0.9c-0.2,0.4-0.3,0.8-0.3,1.2v4.4
					c0,1.4,1.2,2.5,2.6,2.5l2.1,0l2.1,0c1.4,0,2.6-1.1,2.6-2.5V-19C-279.9-20.4-281-21.5-282.4-21.5z"/>
				<path class="st2" d="M-282.4-23.6h-4.3l0,0c-2.1,0-3.8,1.4-4.4,3.3c-0.1,0.2-0.1,0.4-0.1,0.6c0,0.2-0.1,0.5-0.1,0.7v4.4
					c0,2.5,2.1,4.5,4.6,4.5l2.1,0l2.1,0c2.5,0,4.6-2,4.6-4.5V-19C-277.8-21.5-279.9-23.6-282.4-23.6z M-279.9-14.6
					c0,1.4-1.2,2.5-2.6,2.5l-2.1,0l-2.1,0c-1.4,0-2.6-1.1-2.6-2.5V-19c0-0.4,0.1-0.8,0.3-1.2c0.2-0.3,0.5-0.6,0.8-0.9
					c0.4-0.3,0.9-0.5,1.5-0.5h4.3c1.4,0,2.6,1.1,2.6,2.5V-14.6z"/>
			</g>
		</g>
	</g>
	<g transform="translate(0,770) scale(2.45, 2.45)">
		<g transform="">
			<g>
				<path class="st3" d="M-10.4-293.5h-4.3c-0.5,0-1.1,0.2-1.5,0.5c-0.3,0.2-0.6,0.5-0.8,0.9c-0.2,0.4-0.3,0.8-0.3,1.2v4.4
					c0,1.4,1.2,2.5,2.6,2.5l2.1,0l2.1,0c1.4,0,2.6-1.1,2.6-2.5v-4.4C-7.9-292.4-9-293.5-10.4-293.5z"/>
				<path class="st2" d="M-10.4-295.6h-4.3l0,0c-2.1,0-3.8,1.4-4.4,3.3c-0.1,0.2-0.1,0.4-0.1,0.6c0,0.2-0.1,0.5-0.1,0.7v4.4
					c0,2.5,2.1,4.5,4.6,4.5l2.1,0l2.1,0c2.5,0,4.6-2,4.6-4.5v-4.4C-5.8-293.5-7.9-295.6-10.4-295.6z M-7.9-286.6
					c0,1.4-1.2,2.5-2.6,2.5l-2.1,0l-2.1,0c-1.4,0-2.6-1.1-2.6-2.5v-4.4c0-0.4,0.1-0.8,0.3-1.2c0.2-0.3,0.5-0.6,0.8-0.9
					c0.4-0.3,0.9-0.5,1.5-0.5h4.3c1.4,0,2.6,1.1,2.6,2.5V-286.6z"/>
			</g>
		</g>
	</g>
	<g transform="translate(70,70) scale(1.05, 1.05)">
		<g transform="">
			<g>
				<g id="XMLID_1_">
					<g>
						<path class="st2" d="M-99-99.2c-2,0-3.7-1.6-3.7-3.6v-6.2c0-0.6,0.2-1.2,0.4-1.7c0.3-0.5,0.7-0.9,1.1-1.2
							c0.6-0.4,1.3-0.7,2.1-0.7h6.1c2,0,3.7,1.6,3.7,3.6v6.2c0,2-1.7,3.6-3.7,3.6h-3L-99-99.2L-99-99.2z"/>
					</g>
				</g>
			</g>
		</g>
	</g>
	<g transform="translate(840,70) scale(1.05, 1.05)">
		<g transform="">
			<g>
				<g id="XMLID_00000038405238530696073450000012165431624594458557_">
					<g>
						<path class="st2" d="M-733.7-99.2c-2,0-3.7-1.6-3.7-3.6v-6.2c0-0.6,0.2-1.2,0.4-1.7c0.3-0.5,0.7-0.9,1.1-1.2
							c0.6-0.4,1.3-0.7,2.1-0.7h6.1c2,0,3.7,1.6,3.7,3.6v6.2c0,2-1.7,3.6-3.7,3.6h-3L-733.7-99.2L-733.7-99.2z"/>
					</g>
				</g>
			</g>
		</g>
	</g>
	<g transform="translate(70,840) scale(1.05, 1.05)">
		<g transform="">
			<g>
				<g id="XMLID_00000040570384945474465220000013424937055144589726_">
					<g>
						<path class="st2" d="M-99-733.9c-2,0-3.7-1.6-3.7-3.6v-6.2c0-0.6,0.2-1.2,0.4-1.7c0.3-0.5,0.7-0.9,1.1-1.2
							c0.6-0.4,1.3-0.7,2.1-0.7h6.1c2,0,3.7,1.6,3.7,3.6v6.2c0,2-1.7,3.6-3.7,3.6h-3L-99-733.9L-99-733.9z"/>
					</g>
				</g>
			</g>
		</g>
	</g>
</g>
</svg>
