<svg width="593" height="83" viewBox="0 0 593 83" fill="none" xmlns="http://www.w3.org/2000/svg">
<g filter="url(#filter0_d_195_6839)">
<path d="M11.3084 11.25V5.65C11.3417 4.61667 10.8417 4.1 9.8084 4.1H8.4084C7.3084 4.1 6.79173 4.63333 6.8584 5.7V12.95C6.8584 13.6167 6.99173 14.0667 7.2584 14.3C7.52507 14.5 7.87507 14.7167 8.3084 14.95L14.3084 18.55C15.1751 19.0833 15.7251 19.6167 15.9584 20.15C16.1917 20.65 16.3084 21.4667 16.3084 22.6V29.95C16.3084 33.9833 14.3751 36 10.5084 36H7.5584C3.72507 36 1.8084 33.8 1.8084 29.4V26.65H6.6084V30.5C6.6084 31.5 7.09173 32 8.0584 32H10.1084C11.0751 32 11.5417 31.5 11.5084 30.5V23.2C11.5084 22.5333 11.3917 22.1 11.1584 21.9C10.9584 21.6667 10.6751 21.45 10.3084 21.25L4.2584 17.45C3.69173 17.0833 3.2584 16.75 2.9584 16.45C2.69173 16.1167 2.47507 15.8 2.3084 15.5C2.17507 15.1667 2.09173 14.8167 2.0584 14.45C2.0584 14.0833 2.0584 13.6667 2.0584 13.2V6.25C2.0584 2.15 3.97507 0.0999973 7.8084 0.0999973H10.3584C14.1917 0.0999973 16.1084 2.15 16.1084 6.25V11.25H11.3084ZM37.4982 26.6V29.9C37.4982 33.9667 35.5816 36 31.7482 36H28.6482C24.8149 36 22.8982 33.9667 22.8982 29.9V6.2C22.8982 2.13333 24.8149 0.0999973 28.6482 0.0999973H31.7482C35.5816 0.0999973 37.4982 2.13333 37.4982 6.2V11.25H32.6982V6.2C32.6982 4.8 31.9816 4.1 30.5482 4.1H29.5982C28.3316 4.1 27.6982 4.8 27.6982 6.2V29.9C27.6982 31.3 28.3316 32 29.5982 32H30.7982C32.0649 32 32.6982 31.3 32.6982 29.9V26.6H37.4982ZM48.1416 36H43.3416V6.25C43.3416 2.15 45.2583 0.0999973 49.0916 0.0999973H52.6916C56.5249 0.0999973 58.4416 2.15 58.4416 6.25V36H53.6416V22.85H48.1416V36ZM53.6416 18.5V6.55C53.6416 5.15 52.9416 4.45 51.5416 4.45H50.2416C48.8416 4.45 48.1416 5.15 48.1416 6.55V18.5H53.6416ZM74.9674 0.0999973H79.7674V36H74.9674V28.85L69.8174 12.5V36H65.0174V0.0999973H69.8174L74.9674 17.45V0.0999973ZM104.63 4.1V36H99.8303V4.1H95.2303V0.0999973H109.23V4.1H104.63ZM124.653 36V20.35H119.153V36H114.353V0.0999973H119.153V16.35H124.653V0.0999973H129.453V36H124.653ZM136.316 36V0.0999973H146.916V4.1H141.116V16.35H146.916V20.35H141.116V32H146.916V36H136.316ZM181.197 32V36H169.147C165.281 36 163.347 33.9667 163.347 29.9V6.25C163.347 2.15 165.264 0.0999973 169.097 0.0999973H173.197C177.031 0.0999973 178.947 2.15 178.947 6.25V32H181.197ZM174.147 5.95C174.147 4.71667 173.514 4.1 172.247 4.1H169.997C168.764 4.1 168.147 4.71667 168.147 5.95V30.15C168.147 31.3833 168.781 32 170.047 32H174.147V5.95ZM196.149 36L192.999 21.5H190.099V36H185.299V0.0999973H194.699C198.365 0.0999973 200.199 2.15 200.199 6.25V15.1C200.199 18.2 199.249 20.1833 197.349 21.05L200.699 36H196.149ZM190.099 17.4H193.249C194.682 17.4 195.399 16.5333 195.399 14.8V7.05C195.399 5.31666 194.682 4.45 193.249 4.45H190.099V17.4ZM231.727 26.6V29.9C231.727 33.9667 229.81 36 225.977 36H222.877C219.043 36 217.127 33.9667 217.127 29.9V6.2C217.127 2.13333 219.043 0.0999973 222.877 0.0999973H225.977C229.81 0.0999973 231.727 2.13333 231.727 6.2V11.25H226.927V6.2C226.927 4.8 226.21 4.1 224.777 4.1H223.827C222.56 4.1 221.927 4.8 221.927 6.2V29.9C221.927 31.3 222.56 32 223.827 32H225.027C226.293 32 226.927 31.3 226.927 29.9V26.6H231.727ZM243.62 36C239.753 36 237.82 33.9667 237.82 29.9V6.25C237.82 2.15 239.737 0.0999973 243.57 0.0999973H247.67C251.503 0.0999973 253.42 2.15 253.42 6.25V29.9C253.42 33.9667 251.487 36 247.62 36H243.62ZM246.97 32C248.07 32 248.62 31.3833 248.62 30.15V5.95C248.62 4.71667 247.987 4.1 246.72 4.1H244.47C243.237 4.1 242.62 4.71667 242.62 5.95V30.15C242.62 31.3833 243.253 32 244.52 32H246.97ZM260.271 0.0999973H268.621C273.121 0.0999973 275.371 2.4 275.371 7V30.8C275.371 34.2667 273.455 36 269.621 36H260.271V0.0999973ZM265.071 31.65H268.671C269.938 31.65 270.571 31.1167 270.571 30.05V7.05C270.571 5.31666 269.855 4.45 268.421 4.45H265.071V31.65ZM281.99 36V0.0999973H292.59V4.1H286.79V16.35H292.59V20.35H286.79V32H292.59V36H281.99ZM316.671 4.1V36H311.871V4.1H307.271V0.0999973H321.271V4.1H316.671ZM332.194 36C328.328 36 326.394 33.9667 326.394 29.9V6.25C326.394 2.15 328.311 0.0999973 332.144 0.0999973H336.244C340.078 0.0999973 341.994 2.15 341.994 6.25V29.9C341.994 33.9667 340.061 36 336.194 36H332.194ZM335.544 32C336.644 32 337.194 31.3833 337.194 30.15V5.95C337.194 4.71667 336.561 4.1 335.294 4.1H333.044C331.811 4.1 331.194 4.71667 331.194 5.95V30.15C331.194 31.3833 331.828 32 333.094 32H335.544ZM363.987 36H359.187V0.0999973H368.237C372.104 0.0999973 374.037 2.15 374.037 6.25V14.45C374.037 16.95 373.254 18.9 371.687 20.3C370.121 21.6667 367.821 22.35 364.787 22.35H363.987V36ZM363.987 18.35H364.787C366.287 18.35 367.404 18.0667 368.137 17.5C368.871 16.9333 369.237 16.0167 369.237 14.75V5.7C369.271 4.63333 368.704 4.1 367.537 4.1H363.987V18.35ZM390.725 36H380.125V0.0999973H384.925V32H390.725V36ZM400.876 36H396.076V6.25C396.076 2.15 397.993 0.0999973 401.826 0.0999973H405.426C409.259 0.0999973 411.176 2.15 411.176 6.25V36H406.376V22.85H400.876V36ZM406.376 18.5V6.55C406.376 5.15 405.676 4.45 404.276 4.45H402.976C401.576 4.45 400.876 5.15 400.876 6.55V18.5H406.376ZM427.702 0.0999973H432.502V36H427.702V28.85L422.552 12.5V36H417.752V0.0999973H422.552L427.702 17.45V0.0999973ZM447.023 4.1V36H442.223V4.1H437.623V0.0999973H451.623V4.1H447.023ZM482.638 0.0999973L476.838 36H471.138L465.338 0.0999973H470.088L473.988 27.5L477.888 0.0999973H482.638ZM487.732 36V0.0999973H492.532V36H487.732ZM509.742 36L506.592 21.5H503.692V36H498.892V0.0999973H508.292C511.959 0.0999973 513.792 2.15 513.792 6.25V15.1C513.792 18.2 512.842 20.1833 510.942 21.05L514.292 36H509.742ZM503.692 17.4H506.842C508.276 17.4 508.992 16.5333 508.992 14.8V7.05C508.992 5.31666 508.276 4.45 506.842 4.45H503.692V17.4ZM528.029 4.1V36H523.229V4.1H518.629V0.0999973H532.629V4.1H528.029ZM552.852 0.0999973V29.2C552.852 33.7333 550.568 36 546.002 36H544.552C540.018 36 537.752 33.7167 537.752 29.15V0.0999973H542.552V29.3C542.552 30.0667 542.702 30.65 543.002 31.05C543.335 31.45 543.885 31.65 544.652 31.65H545.852C547.318 31.65 548.052 30.8667 548.052 29.3V0.0999973H552.852ZM564.265 36H559.465V6.25C559.465 2.15 561.381 0.0999973 565.215 0.0999973H568.815C572.648 0.0999973 574.565 2.15 574.565 6.25V36H569.765V22.85H564.265V36ZM569.765 18.5V6.55C569.765 5.15 569.065 4.45 567.665 4.45H566.365C564.965 4.45 564.265 5.15 564.265 6.55V18.5H569.765ZM591.74 36H581.14V0.0999973H585.94V32H591.74V36ZM72.7064 49.1V81H67.9064V49.1H63.3064V45.1H77.3064V49.1H72.7064ZM92.7795 81L89.6295 66.5H86.7295V81H81.9295V45.1H91.3295C94.9962 45.1 96.8295 47.15 96.8295 51.25V60.1C96.8295 63.2 95.8795 65.1833 93.9795 66.05L97.3295 81H92.7795ZM86.7295 62.4H89.8795C91.3128 62.4 92.0295 61.5333 92.0295 59.8V52.05C92.0295 50.3167 91.3128 49.45 89.8795 49.45H86.7295V62.4ZM103.416 81V45.1H114.016V49.1H108.216V61.35H114.016V65.35H108.216V77H114.016V81H103.416ZM120.105 81V45.1H130.705V49.1H124.905V61.35H130.705V65.35H124.905V77H130.705V81H120.105ZM146.045 56.25V50.65C146.078 49.6167 145.578 49.1 144.545 49.1H143.145C142.045 49.1 141.528 49.6333 141.595 50.7V57.95C141.595 58.6167 141.728 59.0667 141.995 59.3C142.261 59.5 142.611 59.7167 143.045 59.95L149.045 63.55C149.911 64.0833 150.461 64.6167 150.695 65.15C150.928 65.65 151.045 66.4667 151.045 67.6V74.95C151.045 78.9833 149.111 81 145.245 81H142.295C138.461 81 136.545 78.8 136.545 74.4V71.65H141.345V75.5C141.345 76.5 141.828 77 142.795 77H144.845C145.811 77 146.278 76.5 146.245 75.5V68.2C146.245 67.5333 146.128 67.1 145.895 66.9C145.695 66.6667 145.411 66.45 145.045 66.25L138.995 62.45C138.428 62.0833 137.995 61.75 137.695 61.45C137.428 61.1167 137.211 60.8 137.045 60.5C136.911 60.1667 136.828 59.8167 136.795 59.45C136.795 59.0833 136.795 58.6667 136.795 58.2V51.25C136.795 47.15 138.711 45.1 142.545 45.1H145.095C148.928 45.1 150.845 47.15 150.845 51.25V56.25H146.045ZM167.976 81V45.1H172.776V81H167.976ZM189.587 45.1H194.387V81H189.587V73.85L184.437 57.5V81H179.637V45.1H184.437L189.587 62.45V45.1ZM216.149 81H211.349V51.25C211.349 47.15 213.266 45.1 217.099 45.1H220.699C224.533 45.1 226.449 47.15 226.449 51.25V81H221.649V67.85H216.149V81ZM221.649 63.5V51.55C221.649 50.15 220.949 49.45 219.549 49.45H218.249C216.849 49.45 216.149 50.15 216.149 51.55V63.5H221.649ZM248.125 45.1V74.2C248.125 78.7333 245.842 81 241.275 81H239.825C235.292 81 233.025 78.7167 233.025 74.15V45.1H237.825V74.3C237.825 75.0667 237.975 75.65 238.275 76.05C238.609 76.45 239.159 76.65 239.925 76.65H241.125C242.592 76.65 243.325 75.8667 243.325 74.3V45.1H248.125ZM269.938 63.35L269.988 81H260.738C256.905 81 254.988 78.9667 254.988 74.9V51.2C254.988 47.1333 256.905 45.1 260.738 45.1H263.838C267.671 45.1 269.588 47.1333 269.588 51.2V56.25H264.788V51.55C264.788 50.15 264.071 49.45 262.638 49.45H261.688C260.421 49.45 259.788 50.15 259.788 51.55V74.55C259.788 75.95 260.505 76.65 261.938 76.65H265.138V67.35H262.238V63.35H269.938ZM286.603 66.2L291.053 45.1H296.353V81H291.553L292.053 57.5L288.453 74.5H284.753L281.153 57.5L281.653 81H276.853V45.1H282.153L286.603 66.2ZM303.211 81V45.1H313.811V49.1H308.011V61.35H313.811V65.35H308.011V77H313.811V81H303.211ZM329.85 45.1H334.65V81H329.85V73.85L324.7 57.5V81H319.9V45.1H324.7L329.85 62.45V45.1ZM349.171 49.1V81H344.371V49.1H339.771V45.1H353.771V49.1H349.171ZM358.894 81V45.1H369.494V49.1H363.694V61.35H369.494V65.35H363.694V77H369.494V81H358.894ZM375.584 45.1H383.934C388.434 45.1 390.684 47.4 390.684 52V75.8C390.684 79.2667 388.767 81 384.934 81H375.584V45.1ZM380.384 76.65H383.984C385.25 76.65 385.884 76.1167 385.884 75.05V52.05C385.884 50.3167 385.167 49.45 383.734 49.45H380.384V76.65ZM417.994 81L414.844 66.5H411.944V81H407.144V45.1H416.544C420.211 45.1 422.044 47.15 422.044 51.25V60.1C422.044 63.2 421.094 65.1833 419.194 66.05L422.544 81H417.994ZM411.944 62.4H415.094C416.528 62.4 417.244 61.5333 417.244 59.8V52.05C417.244 50.3167 416.528 49.45 415.094 49.45H411.944V62.4ZM428.631 81V45.1H439.231V49.1H433.431V61.35H439.231V65.35H433.431V77H439.231V81H428.631ZM449.87 81H445.07V51.25C445.07 47.15 446.987 45.1 450.82 45.1H454.42C458.253 45.1 460.17 47.15 460.17 51.25V81H455.37V67.85H449.87V81ZM455.37 63.5V51.55C455.37 50.15 454.67 49.45 453.27 49.45H451.97C450.57 49.45 449.87 50.15 449.87 51.55V63.5H455.37ZM477.346 81H466.746V45.1H471.546V77H477.346V81ZM482.947 81V45.1H487.747V81H482.947ZM502.257 49.1V81H497.457V49.1H492.857V45.1H506.857V49.1H502.257ZM518.73 60.7L521.98 45.1H526.73L520.93 67.8V81H516.13V67.8L510.23 45.1H514.98L518.58 60.7H518.73Z" fill="#8A1E41"/>
</g>
<defs>
<filter id="filter0_d_195_6839" x="0.80835" y="0.0996094" width="591.932" height="82.9004" filterUnits="userSpaceOnUse" color-interpolation-filters="sRGB">
<feFlood flood-opacity="0" result="BackgroundImageFix"/>
<feColorMatrix in="SourceAlpha" type="matrix" values="0 0 0 0 0 0 0 0 0 0 0 0 0 0 0 0 0 0 127 0" result="hardAlpha"/>
<feOffset dy="1"/>
<feGaussianBlur stdDeviation="0.5"/>
<feComposite in2="hardAlpha" operator="out"/>
<feColorMatrix type="matrix" values="0 0 0 0 0 0 0 0 0 0 0 0 0 0 0 0 0 0 0.5 0"/>
<feBlend mode="normal" in2="BackgroundImageFix" result="effect1_dropShadow_195_6839"/>
<feBlend mode="normal" in="SourceGraphic" in2="effect1_dropShadow_195_6839" result="shape"/>
</filter>
</defs>
</svg>
