<svg width="393" height="213" viewBox="0 0 393 213" fill="none" xmlns="http://www.w3.org/2000/svg">
<path d="M45.5799 79.0506C45.5799 79.0506 45.5799 79.0438 45.5799 79.037L35.8466 63.9975C35.7992 63.9227 35.718 63.8818 35.6367 63.8818H21.7203V59.3564C21.7203 59.3428 21.7135 59.336 21.7068 59.3223C21.7 59.2815 21.6932 59.2407 21.6662 59.2067L13.4016 48.4408L9.90218 43.8813C9.90218 43.8813 9.89541 43.8813 9.89541 43.8745C9.84803 43.8201 9.78034 43.7793 9.70589 43.7793C9.63143 43.7793 9.56374 43.8133 9.51637 43.8745C9.51637 43.8745 9.5096 43.8745 9.5096 43.8813L-2.25438 59.1999C-2.25438 59.1999 -2.28823 59.2747 -2.295 59.3155C-2.295 59.3292 -2.30853 59.336 -2.30853 59.3496V63.875H-16.2453C-16.3333 63.875 -16.4145 63.9159 -16.4551 63.9907L-26.1952 79.037C-26.1952 79.037 -26.1952 79.0438 -26.1952 79.0506C-26.2155 79.0914 -26.2358 79.1323 -26.2358 79.1731V212.446C-26.2358 212.589 -26.1208 212.705 -25.9786 212.705H45.3633C45.5055 212.705 45.6205 212.589 45.6205 212.446V79.1731C45.6205 79.1255 45.607 79.0846 45.5799 79.0506ZM44.8963 78.9213H38.175L29.2403 64.3922H35.4878L44.8895 78.9213H44.8963ZM-2.52513 64.3922L-11.4598 78.9213H-18.1946L-9.25997 64.3922H-2.52513ZM-14.7155 164.245V155.786H-2.32207V164.245H-14.7155ZM-2.32207 164.755V173.214H-14.7155V164.755H-2.32207ZM-14.7155 155.269V146.81H-2.32207V155.269H-14.7155ZM-14.7155 146.3V137.841H-2.32207V146.3H-14.7155ZM-14.7155 137.33V128.872H-2.32207V137.33H-14.7155ZM-14.7155 128.361V119.902H-2.32207V128.361H-14.7155ZM-14.7155 119.392V110.933H-2.32207V119.392H-14.7155ZM-14.7155 110.423V101.964H-2.32207V110.423H-14.7155ZM-14.7155 173.738H-2.32207V182.197H-14.7155V173.738ZM-2.32207 78.9349H-10.8574L-2.32207 65.0523V78.9349ZM-2.32207 79.4453V92.4773H-11.0604V79.4453H-2.32207ZM-2.32207 92.9877V101.447H-14.7155V92.9877H-2.32207ZM-14.7155 182.707H-2.32207V191.166H-14.7155V182.707ZM-11.5749 79.4385V92.4705H-14.9727C-15.1149 92.4705 -15.23 92.5862 -15.23 92.7291V212.201H-18.3977V79.4385H-11.5749ZM-14.7155 191.677H-2.32207V200.136H-14.7155V191.677ZM-1.81442 92.7291V59.9893L9.44191 71.7691V212.208H-1.81442V92.7359V92.7291ZM0.446321 56.4982L6.78858 67.2232L6.35539 67.7948L-1.72643 59.336L0.453093 56.4982H0.446321ZM3.07934 53.0684L7.57375 66.2024L7.12702 66.7877L0.784756 56.0627L3.08611 53.0684H3.07934ZM18.6135 56.0695L12.2712 66.7945L11.8245 66.2092L16.3189 53.0752L18.6202 56.0695H18.6135ZM21.1179 59.336L13.0361 67.7948L12.6029 67.2368L18.9451 56.5118L21.1179 59.3428V59.336ZM28.6447 64.399L37.5793 78.9281H30.8513L21.9166 64.399H28.6514H28.6447ZM21.7135 173.221V164.762H34.107V173.221H21.7135ZM34.107 173.731V182.19H21.7135V173.731H34.107ZM21.7135 164.245V155.786H34.107V164.245H21.7135ZM21.7135 155.276V146.817H34.107V155.276H21.7135ZM21.7135 146.306V137.848H34.107V146.306H21.7135ZM21.7135 137.337V128.878H34.107V137.337H21.7135ZM21.7135 128.368V119.909H34.107V128.368H21.7135ZM21.7135 119.399V110.94H34.107V119.399H21.7135ZM21.7135 182.714H34.107V191.173H21.7135V182.714ZM34.107 110.423H21.7135V101.964H34.107V110.423ZM21.7135 65.0455L30.2488 78.9281H21.7135V65.0455ZM21.7135 191.684H34.107V200.142H21.7135V191.684ZM34.107 101.453H21.7135V92.9945H34.107V101.453ZM21.7135 92.4841V79.4521H30.4519V92.4841H21.7135ZM9.69235 71.3063L6.70736 68.1827L7.26916 67.4478C7.26916 67.4478 7.30977 67.4069 7.31654 67.3797L8.88688 65.3381C8.88688 65.3381 8.92749 65.2973 8.94102 65.2701L9.69912 64.2833L12.102 67.4137L12.6909 68.1759L9.69912 71.2995L9.69235 71.3063ZM11.4522 65.7465L10.9513 65.0932L13.3542 49.237L15.9466 52.6124L11.4522 65.7465ZM10.5181 64.5351L9.94956 63.7934V44.8069L12.921 48.679L10.5181 64.5351ZM9.43514 63.7934L8.87334 64.5283L6.47046 48.6722L9.43514 44.8137V63.8002V63.7934ZM8.44014 65.0864L7.93249 65.7465L3.43808 52.6124L6.03049 49.237L8.43338 65.0932L8.44014 65.0864ZM9.94279 71.7895L21.1991 60.0097V212.222H9.94279V71.7827V71.7895ZM21.7068 200.673H34.1002V212.228H21.7068V200.673ZM34.6079 92.7495C34.6079 92.6066 34.4928 92.4909 34.3507 92.4909H30.9528V79.4589H37.7756V212.222H34.6079V92.7495ZM-16.1099 64.3854H-9.86239L-18.7971 78.9145H-25.5116L-16.1099 64.3854ZM-25.7282 79.4317H-18.9054V212.194H-25.7282V79.4317ZM-14.7223 200.639H-2.32884V212.194H-14.7223V200.639ZM38.2833 212.194V79.4317H45.1061V212.194H38.2833Z" fill="#AA9767" fill-opacity="0.4"/>
<path d="M113.248 89.2891H104.116V39.8995C104.116 39.7635 104.006 39.6534 103.87 39.6534H100.444V32.2962C100.444 32.1601 100.334 32.05 100.198 32.05H95.5283V26.8689C95.5283 26.7329 95.4182 26.6228 95.2822 26.6228H91.6489V21.4416C91.6489 21.3056 91.5388 21.1955 91.4028 21.1955H81.2541V11.5261C81.2541 11.3901 81.144 11.28 81.008 11.28H79.8034V0.393048C79.8034 0.257042 79.6933 0.146942 79.5573 0.146942C79.4213 0.146942 79.3112 0.257042 79.3112 0.393048V11.28H78.1001C77.9641 11.28 77.854 11.3901 77.854 11.5261V21.1955H67.7054C67.5694 21.1955 67.4593 21.3056 67.4593 21.4416V26.6228H63.826C63.69 26.6228 63.5799 26.7329 63.5799 26.8689V32.05H58.9103C58.7743 32.05 58.6642 32.1601 58.6642 32.2962V39.6534H55.29C55.154 39.6534 55.0439 39.7635 55.0439 39.8995V89.2891H45.8667C45.7307 89.2891 45.6206 89.3992 45.6206 89.5352V212.459C45.6206 212.595 45.7307 212.705 45.8667 212.705H113.228C113.364 212.705 113.475 212.595 113.475 212.459V89.5352C113.475 89.3992 113.364 89.2891 113.228 89.2891H113.248ZM113.002 212.213H110.994V92.061C110.994 91.925 110.884 91.8149 110.748 91.8149H102.439C102.303 91.8149 102.193 91.925 102.193 92.061V212.213H100.185V89.7748H112.995V212.213H113.002ZM110.508 212.213H102.685V92.3072H110.508V212.213ZM103.63 89.2891H99.9517C99.8157 89.2891 99.7056 89.3992 99.7056 89.5352V212.213H96.5192V47.2957C96.5192 47.1597 96.4091 47.0496 96.2731 47.0496H94.5439V40.1456H103.63V89.2891ZM64.8816 39.6599H64.085V32.5423H95.0426V39.6599H94.2978C94.1618 39.6599 94.0517 39.77 94.0517 39.906V47.056H86.8887V39.0382C86.8887 38.9022 86.7786 38.7921 86.6426 38.7921H72.4656C72.3295 38.7921 72.2195 38.9022 72.2195 39.0382V47.056H65.1083V39.906C65.1083 39.77 64.9982 39.6599 64.8622 39.6599H64.8816ZM67.9644 27.1215H91.1632V32.063H67.9644V27.1215ZM72.7181 71.6731V70.2224H86.4029V71.6731H72.7181ZM86.4029 39.2843V61.9908H79.8034V54.8861C82.3746 54.7566 84.4276 52.6323 84.4276 50.0287C84.4276 47.4252 82.3746 45.3009 79.8034 45.1714V39.2778H86.4029V39.2843ZM79.5573 45.6506C81.973 45.6506 83.9354 47.613 83.9354 50.0287C83.9354 52.4445 81.973 54.4068 79.5573 54.4068C77.1416 54.4068 75.1792 52.4445 75.1792 50.0287C75.1792 47.613 77.1416 45.6506 79.5573 45.6506ZM86.4029 62.4765V63.9272H72.7181V62.4765H86.4029ZM72.7181 65.8637V64.413H86.4029V65.8637H72.7181ZM86.4029 66.3494V67.8002H72.7181V66.3494H86.4029ZM72.7181 68.2859H86.4029V69.7366H72.7181V68.2859ZM79.3177 45.1779C76.7465 45.3074 74.6935 47.4317 74.6935 50.0352C74.6935 52.6388 76.7465 54.763 79.3177 54.8926V61.9973H72.7181V39.2907H79.3177V45.1843V45.1779ZM72.2324 47.5482V212.219H63.1459V47.5418H72.2324V47.5482ZM72.7181 72.1653H79.3177V212.219H72.7181V72.1653ZM79.8034 72.1653H86.4029V212.219H79.8034V72.1653ZM86.8887 47.5482H96.027V212.219H86.8887V47.5418V47.5482ZM99.9517 32.5552V39.6729H95.5283V32.5552H99.9517ZM95.0361 27.1279V32.0695H91.6424V27.1279H95.0361ZM78.3462 11.7916H80.7619V21.2149H78.3462V11.7916ZM67.9515 21.7006H91.1502V26.6422H67.9515V21.7006ZM64.0721 27.1279H67.4657V32.0695H64.0721V27.1279ZM59.1564 32.5552H63.5799V39.6729H59.1564V32.5552ZM56.4298 212.226H48.6063V92.3201H56.4298V212.226ZM58.9233 212.226H56.9156V92.074C56.9156 91.938 56.8055 91.8279 56.6695 91.8279H48.3601C48.2241 91.8279 48.114 91.938 48.114 92.074V212.226H46.1063V89.7878H58.9168V212.226H58.9233ZM59.1694 89.3021H55.5426V40.1586H64.629V47.0625H62.8998C62.7638 47.0625 62.6537 47.1726 62.6537 47.3086V212.226H59.4155V89.5482C59.4155 89.4122 59.3054 89.3021 59.1694 89.3021Z" fill="#AA9767" fill-opacity="0.4"/>
<path d="M79.5704 53.0014C81.2089 53.0014 82.5431 51.6672 82.5431 50.0287C82.5431 48.3901 81.2089 47.056 79.5704 47.056C77.9318 47.056 76.5977 48.3901 76.5977 50.0287C76.5977 51.6672 77.9318 53.0014 79.5704 53.0014ZM79.5704 47.5417C80.9434 47.5417 82.0573 48.6557 82.0573 50.0287C82.0573 51.4017 80.9434 52.5156 79.5704 52.5156C78.1974 52.5156 77.0834 51.4017 77.0834 50.0287C77.0834 48.6557 78.1974 47.5417 79.5704 47.5417Z" fill="#AA9767" fill-opacity="0.4"/>
<path d="M182.768 90.8908C182.768 90.843 182.754 90.802 182.727 90.7611C182.727 90.7611 182.727 90.7611 182.727 90.7542L174.347 79.257V69.9103C174.347 69.9103 174.347 69.9034 174.347 69.8966C174.347 69.8557 174.334 69.8079 174.314 69.7737C174.314 69.7737 174.307 69.7737 174.307 69.7601C174.307 69.7601 174.307 69.7601 174.307 69.7533L148.459 35.7529C148.459 35.7529 148.452 35.7529 148.445 35.7461C148.425 35.7256 148.405 35.712 148.384 35.6983C148.378 35.6983 148.371 35.6847 148.357 35.6847C148.324 35.671 148.29 35.6642 148.256 35.6573C148.216 35.6573 148.182 35.6642 148.148 35.6847C148.141 35.6847 148.128 35.6983 148.121 35.7051C148.101 35.7188 148.081 35.7324 148.067 35.7529C148.067 35.7529 148.06 35.7529 148.054 35.7598L121.942 69.7601V69.7669C121.942 69.7669 121.936 69.7737 121.929 69.7806C121.902 69.8215 121.895 69.8625 121.895 69.9035C121.895 69.9035 121.895 69.9103 121.895 69.9171V79.2638L113.515 90.7611C113.515 90.7611 113.515 90.7611 113.515 90.7679C113.488 90.8089 113.475 90.8498 113.475 90.8976C113.475 90.8976 113.475 90.9045 113.475 90.9113V212.445C113.475 212.589 113.589 212.705 113.731 212.705H182.538C182.68 212.705 182.795 212.589 182.795 212.445V90.9113C182.795 90.9113 182.795 90.9045 182.795 90.8976L182.768 90.8908ZM173.841 212.179H172.148V71.4669L173.841 70.3745V212.179ZM138.432 49.1004L141.259 52.8555L132.137 75.8979L122.516 69.8352L138.439 49.1004H138.432ZM173.727 69.8352L164.362 75.8979L155.239 52.8623L158.019 49.1687L173.733 69.8352H173.727ZM182.268 104.15H174.347V85.3879L182.268 91.0342V104.156V104.15ZM174.347 154.29H182.268V170.32H174.347V154.29ZM174.347 153.778V137.747H182.268V153.778H174.347ZM174.347 137.235V121.204H182.268V137.235H174.347ZM174.347 120.692V104.662H182.268V120.692H174.347ZM144.734 45.4546L147.993 37.2276V52.5619H141.921L144.734 45.4615V45.4546ZM151.758 45.4546L154.571 52.5551H148.499V37.2208L151.758 45.4478V45.4546ZM132.508 76.4441L139.998 73.4605V92.5567H132.508V76.4441ZM171.642 153.887L164.49 158.516V142.581L171.642 137.952V153.887ZM155.988 125.642H148.499V109.611H155.988V125.642ZM156.494 109.611H163.984V125.642H156.494V109.611ZM147.993 125.642H140.504V109.611H147.993V125.642ZM139.998 125.642H132.508V109.611H139.998V125.642ZM132.508 126.154H139.998V142.185H132.508V126.154ZM140.504 126.154H147.993V142.185H140.504V126.154ZM148.499 126.154H155.988V142.185H148.499V126.154ZM156.494 126.154H163.984V142.185H156.494V126.154ZM156.494 109.099V93.0687H163.984V109.099H156.494ZM155.988 109.099H148.499V93.0687H155.988V109.099ZM147.993 109.099H140.504V93.0687H147.993V109.099ZM139.998 109.099H132.508V93.0687H139.998V109.099ZM132.002 141.973L124.85 137.344V121.409L132.002 126.038V141.973ZM124.85 137.952L132.002 142.581V158.516L124.85 153.887V137.952ZM132.515 142.697H140.004V158.728H132.515V142.697ZM140.51 142.697H148V158.728H140.51V142.697ZM148.506 142.697H155.995V158.728H148.506V142.697ZM156.501 142.697H163.99V158.728H156.501V142.697ZM171.648 137.344L164.497 141.973V126.038L171.648 121.409V137.344ZM171.648 120.802L164.497 125.43V109.495L171.648 104.866V120.802ZM163.99 92.5567H156.501V73.4605L163.99 76.4441V92.5567ZM155.995 92.5567H148.506V70.2721L155.995 73.2557V92.5567ZM148 92.5567H140.51V73.2557L148 70.2721V92.5567ZM132.009 125.43L124.857 120.802V104.866L132.009 109.495V125.43ZM124.857 154.495L132.009 159.124V175.059L124.857 170.43V154.495ZM132.522 159.24H140.011V175.27H132.522V159.24ZM140.517 159.24H148.007V175.27H140.517V159.24ZM148.513 159.24H156.002V175.27H148.513V159.24ZM156.508 159.24H163.997V175.27H156.508V159.24ZM164.503 159.124L171.655 154.495V170.43L164.503 175.059V159.124ZM171.655 104.259L164.503 108.888V92.9527L171.655 88.3237V104.259ZM148.513 69.7191V53.0672H154.787L163.795 75.816L148.513 69.7191ZM141.732 53.0672H148.007V69.7191L132.724 75.816L141.732 53.0672ZM132.016 108.888L124.864 104.259V88.3237L132.016 92.9527V108.888ZM124.864 171.044L132.016 175.673V191.608L124.864 186.979V171.044ZM132.529 175.789H140.018V191.82H132.529V175.789ZM140.524 175.789H148.013V191.82H140.524V175.789ZM148.519 175.789H156.009V191.82H148.519V175.789ZM156.515 175.789H164.004V191.82H156.515V175.789ZM164.51 175.673L171.662 171.044V186.979L164.51 191.608V175.673ZM171.662 87.7229L164.51 92.3518V76.4168L171.662 71.7878V87.7229ZM155.03 52.3025L152.244 45.2703L149.181 37.528L157.709 48.7454L155.03 52.3025ZM144.275 45.2703L141.489 52.3025L138.763 48.6771L147.352 37.4939L144.275 45.2635V45.2703ZM132.016 76.4168V92.3518L124.864 87.7229V71.9107L132.016 76.4168ZM124.864 187.587L132.016 192.216V212.172H124.864V187.587ZM132.529 192.332H140.018V212.172H132.529V192.332ZM140.524 192.332H148.013V212.172H140.524V192.332ZM148.519 192.332H156.009V212.172H148.519V192.332ZM156.515 192.332H164.004V212.172H156.515V192.332ZM164.51 192.216L171.662 187.587V212.172H164.51V192.216ZM174.368 170.833H182.289V186.863H174.368V170.833ZM181.412 89.7779L174.368 84.7598V80.1104L181.412 89.7779ZM121.902 121.204V137.235H113.981V121.204H121.902ZM113.981 120.692V104.662H121.902V120.692H113.981ZM121.902 137.747V153.778H113.981V137.747H121.902ZM121.902 154.29V170.32H113.981V154.29H121.902ZM121.902 104.15H113.981V91.0273L121.902 85.3811V104.143V104.15ZM113.981 170.833H121.902V186.863H113.981V170.833ZM121.902 84.7598L114.858 89.7779L121.902 80.1104V84.7598ZM113.981 187.375H121.902V212.172H113.981V187.375ZM122.408 79.3252V70.3541L124.358 71.583V212.172H122.408V79.3252ZM174.368 212.172V187.375H182.289V212.172H174.368Z" fill="#AA9767" fill-opacity="0.4"/>
<path d="M243.775 83.806C243.775 83.806 243.775 83.7789 243.768 83.768C243.768 83.7572 243.755 83.7409 243.748 83.7301C243.741 83.7193 243.735 83.7084 243.721 83.6976C243.708 83.6868 243.694 83.6759 243.681 83.6705C243.674 83.6705 243.667 83.6597 243.661 83.6542H243.647C243.634 83.6488 243.614 83.6434 243.6 83.638C243.587 83.638 243.573 83.6326 243.553 83.6326C243.553 83.6326 243.54 83.6326 243.533 83.6326H230.379L230.104 79.4819L229.627 72.2372C229.627 72.2372 229.634 72.2155 229.634 72.1992C229.634 72.1776 229.627 72.1559 229.62 72.1396L229.164 65.2742C229.157 65.1658 229.043 65.0791 228.909 65.0791H224.526V59.9043C224.526 59.7905 224.412 59.6984 224.271 59.6984H219.627L215.493 37.0485C215.473 36.9509 215.372 36.8751 215.245 36.8751H213.513V24.9107C213.513 24.7969 213.399 24.7048 213.258 24.7048C213.117 24.7048 213.003 24.7969 213.003 24.9107V36.8696H211.278C211.151 36.8696 211.05 36.9455 211.03 37.043L206.896 59.693H202.258C202.117 59.693 202.003 59.7851 202.003 59.8989V65.0737H197.62C197.486 65.0737 197.379 65.1604 197.365 65.2688L196.151 83.6326H183.037C183.037 83.6326 183.023 83.6326 183.016 83.6326C183.003 83.6326 182.99 83.6326 182.976 83.638C182.956 83.638 182.943 83.6434 182.922 83.6542H182.909C182.902 83.6542 182.896 83.6651 182.889 83.6705C182.875 83.6813 182.862 83.6868 182.849 83.6976C182.835 83.7084 182.828 83.7193 182.822 83.7301C182.815 83.7409 182.808 83.7518 182.802 83.768C182.802 83.7789 182.795 83.7951 182.795 83.806C182.795 83.8168 182.795 83.8222 182.795 83.8331V212.499C182.795 212.613 182.909 212.705 183.05 212.705H239.735C239.735 212.705 239.748 212.705 239.755 212.705C239.761 212.705 239.768 212.705 239.775 212.705H243.54C243.681 212.705 243.795 212.613 243.795 212.499V83.8331C243.795 83.8331 243.795 83.8168 243.795 83.806H243.775ZM243.09 84.0336L231.453 99.9265L231.07 94.1339C231.09 94.1068 231.104 94.0743 231.104 94.0418C231.104 93.9984 231.084 93.9659 231.057 93.9334L230.58 86.7591L230.399 84.039H243.084L243.09 84.0336ZM202.345 100.766L199.788 212.293H193.681L197.513 100.766H202.345ZM202.849 100.766H207.681L206.406 212.293H200.298L202.855 100.766H202.849ZM208.184 100.766H213.016V212.293H206.909L208.184 100.766ZM213.52 100.766H218.318L219.594 212.293H213.52V100.766ZM218.822 100.766H223.654L226.211 212.293H220.104L218.828 100.766H218.822ZM224.157 100.766H228.99L232.822 212.293H226.714L224.157 100.766ZM218.567 100.36H195.56L195.963 94.2423H230.573L230.976 100.36H218.567ZM197.406 72.3943H229.131L229.587 79.2706H196.956L197.412 72.3943H197.406ZM229.607 79.677L230.063 86.5532H196.473L196.929 79.677H229.614H229.607ZM196.439 86.9596H230.084L230.54 93.8359H195.983L196.439 86.9596ZM224.016 65.0683H222.117V60.094H224.016V65.0683ZM219.661 65.0683V60.094H221.614V65.0683H219.661ZM217.204 65.0683V60.094H219.157V65.0683H217.204ZM214.748 65.0683V60.094H216.701V65.0683H214.748ZM212.292 65.0683V60.094H214.245V65.0683H212.292ZM209.835 65.0683V60.094H211.788V65.0683H209.835ZM207.379 65.0683V60.094H209.332V65.0683H207.379ZM204.922 65.0683V60.094H206.875V65.0683H204.922ZM219.13 59.6876H213.52V37.276H215.037L219.13 59.693V59.6876ZM211.506 37.2706H213.016V59.6876H207.412L211.506 37.2706ZM202.52 60.094H204.419V65.0683H202.52V60.094ZM197.869 65.4747H228.681L229.11 71.9825H197.439L197.869 65.4747ZM195.479 94.0364L195.097 99.8777L183.493 84.0336H196.137L195.479 94.0364ZM183.305 84.57L194.862 100.355H191.943C191.808 100.355 191.694 100.441 191.688 100.55L186.573 212.288H183.305V84.5754V84.57ZM192.184 100.761H197.016L193.184 212.288H187.077L192.184 100.761ZM233.339 212.288L229.506 100.761H234.372L239.479 212.288H233.339ZM239.983 212.288L234.869 100.55C234.869 100.441 234.755 100.355 234.614 100.355H231.735L243.292 84.57V212.288H239.983Z" fill="#AA9767" fill-opacity="0.4"/>
<path d="M321.286 94.0781H316.967V73.1395C316.967 72.9957 316.851 72.8793 316.708 72.8793H312.436V56.2956C312.436 56.1518 312.32 56.0354 312.177 56.0354H308.376V53.5567C308.376 40.5882 297.86 30.0368 284.936 30.0368H280.405C267.48 30.0368 256.965 40.5882 256.965 53.5567V56.0354H253.171C253.027 56.0354 252.911 56.1518 252.911 56.2956V72.8793H248.633C248.489 72.8793 248.373 72.9957 248.373 73.1395V94.0781H244.054C243.911 94.0781 243.795 94.1945 243.795 94.3383V212.445C243.795 212.588 243.911 212.705 244.054 212.705H321.286C321.43 212.705 321.546 212.588 321.546 212.445V94.3383C321.546 94.1945 321.43 94.0781 321.286 94.0781ZM261.332 94.0781H254.024V85.2864C254.024 83.2665 255.661 81.6231 257.674 81.6231C259.687 81.6231 261.325 83.2665 261.325 85.2864V94.0781H261.332ZM261.591 94.5916H269.923V109.347H257.941V94.5916H261.591ZM311.317 94.0781H304.015V85.2864C304.015 83.2665 305.653 81.6231 307.666 81.6231C309.679 81.6231 311.317 83.2665 311.317 85.2864V94.0781ZM303.756 94.5916H307.407V109.347H295.424V94.5916H303.756ZM282.418 143.323V146.719H270.435V143.323H282.418ZM270.435 142.809V130.498H282.418V142.809H270.435ZM282.418 147.232V159.544H270.435V147.232H282.418ZM282.418 160.057V163.453H270.435V160.057H282.418ZM282.418 163.967V176.278H270.435V163.967H282.418ZM282.929 163.967H294.912V176.278H282.929V163.967ZM282.929 163.453V160.057H294.912V163.453H282.929ZM282.929 159.544V147.232H294.912V159.544H282.929ZM282.929 146.719V143.323H294.912V146.719H282.929ZM282.929 142.809V130.498H294.912V142.809H282.929ZM282.929 129.984V126.588H294.912V129.984H282.929ZM282.418 129.984H270.435V126.588H282.418V129.984ZM269.923 129.984H257.941V126.588H269.923V129.984ZM269.923 130.498V142.809H257.941V130.498H269.923ZM269.923 143.323V146.719H257.941V143.323H269.923ZM269.923 147.232V159.544H257.941V147.232H269.923ZM269.923 160.057V163.453H257.941V160.057H269.923ZM269.923 163.967V176.278H257.941V163.967H269.923ZM269.923 176.792V180.188H257.941V176.792H269.923ZM270.435 176.792H282.418V180.188H270.435V176.792ZM282.929 176.792H294.912V180.188H282.929V176.792ZM295.424 176.792H307.407V180.188H295.424V176.792ZM295.424 176.278V163.967H307.407V176.278H295.424ZM295.424 163.453V160.057H307.407V163.453H295.424ZM295.424 159.544V147.232H307.407V159.544H295.424ZM295.424 146.719V143.323H307.407V146.719H295.424ZM295.424 142.809V130.498H307.407V142.809H295.424ZM295.424 129.984V126.588H307.407V129.984H295.424ZM295.424 126.075V113.764H307.407V126.075H295.424ZM294.912 126.075H282.929V113.764H294.912V126.075ZM282.929 113.25V109.854H294.912V113.25H282.929ZM282.418 113.25H270.435V109.854H282.418V113.25ZM282.418 113.764V126.075H270.435V113.764H282.418ZM269.923 126.075H257.941V113.764H269.923V126.075ZM257.429 126.075H244.32V113.764H257.429V126.075ZM257.429 126.588V129.984H244.32V126.588H257.429ZM257.429 130.498V142.809H244.32V130.498H257.429ZM257.429 143.323V146.719H244.32V143.323H257.429ZM257.429 147.232V159.544H244.32V147.232H257.429ZM257.429 160.057V163.453H244.32V160.057H257.429ZM257.429 163.967V176.278H244.32V163.967H257.429ZM257.429 176.792V180.188H244.32V176.792H257.429ZM257.429 180.701V193.012H244.32V180.701H257.429ZM257.941 180.701H269.923V193.012H257.941V180.701ZM270.435 180.701H282.418V193.012H270.435V180.701ZM282.418 193.526V196.922H270.435V193.526H282.418ZM282.929 193.526H294.912V196.922H282.929V193.526ZM282.929 193.012V180.701H294.912V193.012H282.929ZM295.424 180.701H307.407V193.012H295.424V180.701ZM307.918 180.701H321.027V193.012H307.918V180.701ZM307.918 180.188V176.792H321.027V180.188H307.918ZM307.918 176.278V163.967H321.027V176.278H307.918ZM307.918 163.453V160.057H321.027V163.453H307.918ZM307.918 159.544V147.232H321.027V159.544H307.918ZM307.918 146.719V143.323H321.027V146.719H307.918ZM307.918 142.809V130.498H321.027V142.809H307.918ZM307.918 129.984V126.588H321.027V129.984H307.918ZM307.918 126.075V113.764H321.027V126.075H307.918ZM307.918 113.25V109.854H321.027V113.25H307.918ZM307.407 113.25H295.424V109.854H307.407V113.25ZM298.822 94.0712H291.521V85.2795C291.521 83.2596 293.158 81.6163 295.171 81.6163C297.184 81.6163 298.822 83.2596 298.822 85.2795V94.0712ZM291.261 94.5848H294.912V109.34H282.929V94.5848H291.261ZM286.328 94.0712H279.019V85.2795C279.019 83.2596 280.657 81.6163 282.67 81.6163C284.683 81.6163 286.321 83.2596 286.321 85.2795V94.0712H286.328ZM278.767 94.5848H282.418V109.34H270.435V94.5848H278.767ZM273.833 94.0712H266.525V85.2795C266.525 83.2596 268.163 81.6163 270.176 81.6163C272.189 81.6163 273.826 83.2596 273.826 85.2795V94.0712H273.833ZM269.923 109.854V113.25H257.941V109.854H269.923ZM257.429 113.25H244.32V109.854H257.429V113.25ZM244.32 193.519H257.429V196.915H244.32V193.519ZM257.947 193.519H269.93V196.915H257.947V193.519ZM269.93 197.429V212.184H257.947V197.429H269.93ZM270.442 197.429H282.424V212.184H270.442V197.429ZM282.936 197.429H294.919V212.184H282.936V197.429ZM295.431 197.429H307.413V212.184H295.431V197.429ZM295.431 196.915V193.519H307.413V196.915H295.431ZM307.925 193.519H321.034V196.915H307.925V193.519ZM321.034 109.347H307.925V94.5916H321.034V109.347ZM311.924 56.5489V72.8793H308.382V56.5489H311.924ZM306.376 72.8793V65.4981H307.871V72.8793H306.376ZM304.186 72.8793V65.4981H305.864V72.8793H304.186ZM301.531 72.8793V65.4981H303.674V72.8793H301.531ZM298.877 72.8793V65.4981H301.02V72.8793H298.877ZM296.222 72.8793V65.4981H298.365V72.8793H296.222ZM293.568 72.8793V65.4981H295.711V72.8793H293.568ZM290.913 72.8793V65.4981H293.056V72.8793H290.913ZM288.259 72.8793V65.4981H290.402V72.8793H288.259ZM285.604 72.8793V65.4981H287.747V72.8793H285.604ZM282.95 72.8793V65.4981H285.093V72.8793H282.95ZM280.295 72.8793V65.4981H282.438V72.8793H280.295ZM277.641 72.8793V65.4981H279.784V72.8793H277.641ZM274.987 72.8793V65.4981H277.129V72.8793H274.987ZM272.332 72.8793V65.4981H274.475V72.8793H272.332ZM269.678 72.8793V65.4981H271.82V72.8793H269.678ZM267.023 72.8793V65.4981H269.166V72.8793H267.023ZM264.369 72.8793V65.4981H266.511V72.8793H264.369ZM261.714 72.8793V65.4981H263.857V72.8793H261.714ZM259.524 72.8793V65.4981H261.202V72.8793H259.524ZM257.517 72.8793V65.4981H259.012V72.8793H257.517ZM258.841 45.8537H261.994C261.489 47.7572 261.196 49.8524 261.196 52.1736V53.3582H257.517C257.538 50.7289 258.002 48.2023 258.841 45.8537ZM263.727 37.8289H266.218C264.457 39.8488 263.017 42.3274 262.137 45.3333H259.032C260.104 42.526 261.714 39.9857 263.727 37.8289ZM306.383 45.3333H303.285C302.405 42.3274 300.965 39.8488 299.204 37.8289H301.695C303.708 39.9857 305.319 42.526 306.39 45.3333H306.383ZM304.22 64.9846V61.8965H307.905V64.9846H304.22ZM298.904 64.9846V61.8965H303.708V64.9846H298.904ZM293.588 64.9846V61.8965H298.386V64.9846H293.588ZM288.273 64.9846V61.8965H293.07V64.9846H288.273ZM282.957 64.9846V61.8965H287.761V64.9846H282.957ZM277.641 64.9846V61.8965H282.438V64.9846H277.641ZM272.325 64.9846V61.8965H277.129V64.9846H272.325ZM267.009 64.9846V61.8965H271.807V64.9846H267.009ZM261.694 64.9846V61.8965H266.491V64.9846H261.694ZM257.497 64.9846V61.8965H261.182V64.9846H257.497ZM303.688 53.3582H298.884V52.1736C298.884 49.8524 298.665 47.7572 298.283 45.8537H302.869C303.387 47.7503 303.688 49.8456 303.688 52.1736V53.3582ZM303.688 61.383H298.884V53.8785H303.688V61.383ZM267.009 53.8785H271.807V61.383H267.009V53.8785ZM272.325 53.8785H277.129V61.383H272.325V53.8785ZM272.823 45.8537H277.307C277.191 47.7161 277.129 49.8045 277.129 52.1736V53.3582H272.325V52.1736C272.325 50.3317 272.468 48.1338 272.823 45.8537ZM293.063 52.1736V53.3582H288.266V52.1736C288.266 49.8045 288.204 47.7161 288.088 45.8537H292.572C292.926 48.1338 293.07 50.3317 293.07 52.1736H293.063ZM277.818 45.8537H282.438V53.3582H277.641V52.1736C277.641 49.8045 277.702 47.7093 277.818 45.8537ZM282.95 37.3153V31.0433C284.206 32.3648 285.42 34.0835 286.314 37.3153H282.95ZM286.451 37.8289C286.935 39.7529 287.317 42.1905 287.536 45.3333H282.95V37.8289H286.451ZM282.438 37.3153H279.074C279.968 34.0835 281.176 32.3648 282.438 31.0433V37.3153ZM282.438 37.8289V45.3333H277.853C278.071 42.1905 278.453 39.7529 278.938 37.8289H282.431H282.438ZM282.95 45.8537H287.57C287.686 47.7093 287.747 49.8045 287.747 52.1736V53.3582H282.943V45.8537H282.95ZM288.047 45.3402C287.829 42.2179 287.454 39.7803 286.976 37.8357H290.299C291.35 40.1569 292.046 42.7862 292.476 45.3402H288.041H288.047ZM286.84 37.3153C285.966 34.0698 284.779 32.269 283.53 30.9132C286.485 31.8718 288.586 34.2957 290.054 37.3153H286.84ZM278.542 37.3153H275.328C276.795 34.2957 278.903 31.865 281.851 30.9132C280.603 32.269 279.415 34.0698 278.542 37.3153ZM278.405 37.8289C277.921 39.7734 277.552 42.2179 277.334 45.3333H272.898C273.328 42.7793 274.024 40.15 275.075 37.8289H278.398H278.405ZM277.627 53.8717H282.424V61.3762H277.627V53.8717ZM282.943 53.8717H287.747V61.3762H282.943V53.8717ZM288.259 53.8717H293.056V61.3762H288.259V53.8717ZM293.575 53.8717H298.372V61.3762H293.575V53.8717ZM298.372 52.1668V53.3513H293.575V52.1668C293.575 49.8182 293.425 47.723 293.172 45.8468H297.765C298.153 47.7435 298.372 49.8387 298.372 52.1668ZM293.09 45.3333C292.619 42.2521 291.848 39.7871 290.927 37.8289H294.482C295.847 39.8282 296.973 42.3 297.655 45.3333H293.083H293.09ZM290.675 37.3085C288.791 33.5836 286.396 31.7691 284.704 30.8995C287.611 31.5226 291.309 33.4604 294.121 37.3085H290.668H290.675ZM274.7 37.3085H271.247C274.065 33.4604 277.757 31.5226 280.664 30.8995C278.978 31.7623 276.576 33.5836 274.693 37.3085H274.7ZM274.447 37.822C273.526 39.7871 272.755 42.2521 272.284 45.3265H267.712C268.395 42.2932 269.521 39.8214 270.885 37.822H274.441H274.447ZM272.209 45.8468C271.95 47.723 271.807 49.8182 271.807 52.1668V53.3513H267.009V52.1668C267.009 49.8387 267.235 47.7435 267.617 45.8468H272.209ZM266.491 52.1668V53.3513H261.694V52.1668C261.694 49.8387 261.994 47.7435 262.513 45.8468H267.098C266.716 47.7504 266.498 49.8456 266.498 52.1668H266.491ZM266.491 53.8717V61.3762H261.694V53.8717H266.491ZM307.884 61.3762H304.199V53.8717H307.884V61.3762ZM304.199 53.3513V52.1668C304.199 49.8456 303.906 47.7504 303.401 45.8468H306.554C307.386 48.1954 307.85 50.722 307.877 53.3513H304.199ZM302.732 45.3265H298.181C297.519 42.3206 296.434 39.8419 295.103 37.822H298.481C300.303 39.8214 301.818 42.2932 302.732 45.3265ZM294.755 37.3016C292.735 34.4258 290.238 32.5429 287.863 31.4336C291.241 32.3717 294.994 34.2273 298.003 37.3016H294.755ZM270.626 37.3016H267.378C270.387 34.2341 274.14 32.3785 277.518 31.4405C275.143 32.5497 272.646 34.4327 270.626 37.3016ZM270.271 37.8152C268.947 39.8351 267.862 42.3137 267.194 45.3196H262.642C263.557 42.2863 265.065 39.8145 266.893 37.8152H270.271ZM261.182 53.858V61.3625H257.497V53.858H261.182ZM301.183 37.3016H298.713C295.165 33.5015 290.504 31.4336 286.601 30.5983C292.278 31.0023 297.396 33.4878 301.183 37.3016ZM278.781 30.5983C274.877 31.4336 270.21 33.5015 266.668 37.3016H264.198C267.992 33.4878 273.103 31.0023 278.781 30.5983ZM253.437 56.5352H256.978V72.8657H253.437V56.5352ZM316.462 73.3792V77.33H248.899V73.3792H316.462ZM248.899 77.8435H316.462V94.0644H311.835V85.2727C311.835 82.9652 309.966 81.0959 307.673 81.0959C305.38 81.0959 303.51 82.972 303.51 85.2727V94.0644H299.348V85.2727C299.348 82.9652 297.478 81.0959 295.185 81.0959C292.892 81.0959 291.023 82.972 291.023 85.2727V94.0644H286.86V85.2727C286.86 82.9652 284.99 81.0959 282.697 81.0959C280.405 81.0959 278.535 82.972 278.535 85.2727V94.0644H274.372V85.2727C274.372 82.9652 272.503 81.0959 270.21 81.0959C267.917 81.0959 266.047 82.972 266.047 85.2727V94.0644H261.885V85.2727C261.885 82.9652 260.015 81.0959 257.722 81.0959C255.429 81.0959 253.56 82.972 253.56 85.2727V94.0644H248.933V77.8435H248.899ZM248.64 94.5779H257.429V109.334H244.32V94.5779H248.64ZM244.32 197.415H257.429V212.171H244.32V197.415ZM307.925 212.171V197.415H321.034V212.171H307.925Z" fill="#AA9767" fill-opacity="0.4"/>
<path d="M372.131 87.234C372.131 87.234 372.131 87.1997 372.117 87.1792C372.117 87.1586 372.096 87.1449 372.089 87.1312C372.089 87.1175 372.082 87.1106 372.068 87.0969L358.799 72.28C358.751 72.2252 358.682 72.1909 358.605 72.1909H335.078C335.002 72.1909 334.932 72.2252 334.884 72.28L321.615 87.0969C321.615 87.0969 321.601 87.1175 321.594 87.1312C321.58 87.1449 321.573 87.1586 321.566 87.1792C321.566 87.1929 321.56 87.2134 321.553 87.234C321.553 87.2477 321.546 87.2614 321.546 87.2751V212.444C321.546 212.588 321.664 212.705 321.809 212.705H371.867C372.013 212.705 372.131 212.588 372.131 212.444V87.2751C372.131 87.2751 372.131 87.2477 372.124 87.234H372.131ZM346.585 198.039V212.184H333.053V198.039H346.585ZM347.105 198.039H360.638V212.184H347.105V198.039ZM322.073 197.525V196.161H371.61V197.525H322.073ZM332.526 87.5356V88.8994H322.073V87.5356H332.526ZM340.453 72.7187L332.588 87.0147H327.365L338.04 72.7187H340.453ZM343.422 72.7187L339.462 87.0147H333.178L341.043 72.7187H343.415H343.422ZM346.585 72.7187V87.0147H340.01L343.97 72.7187H346.592H346.585ZM349.727 72.7187L353.688 87.0147H347.105V72.7187H349.727ZM352.439 72.7187L360.457 87.0147H354.222L350.261 72.7187H352.432H352.439ZM355.65 72.7187L366.325 87.0147H361.061L353.042 72.7187H355.657H355.65ZM371.61 87.5356V88.8994H361.158V87.5356H371.61ZM322.073 195.647V182.255H332.526V195.647H322.073ZM333.046 182.255H346.578V195.647H333.046V182.255ZM347.098 182.255H360.631V195.647H347.098V182.255ZM361.158 182.255H371.61V195.647H361.158V182.255ZM322.073 181.741V180.378H371.61V181.741H322.073ZM346.578 166.472V179.864H333.046V166.472H346.578ZM360.638 166.472V179.864H347.105V166.472H360.638ZM332.526 179.864H322.073V166.472H332.526V179.864ZM361.158 179.864V166.472H371.61V179.864H361.158ZM322.073 165.958V164.594H371.61V165.958H322.073ZM346.578 150.689V164.08H333.046V150.689H346.578ZM360.638 150.689V164.08H347.105V150.689H360.638ZM332.526 164.08H322.073V150.689H332.526V164.08ZM361.158 164.08V150.689H371.61V164.08H361.158ZM322.073 150.175V148.811H371.61V150.175H322.073ZM346.578 134.906V148.297H333.046V134.906H346.578ZM360.638 134.906V148.297H347.105V134.906H360.638ZM332.526 148.297H322.073V134.906H332.526V148.297ZM361.158 148.297V134.906H371.61V148.297H361.158ZM322.073 134.392V133.028H371.61V134.392H322.073ZM346.578 119.123V132.514H333.046V119.123H346.578ZM360.638 119.123V132.514H347.105V119.123H360.638ZM332.526 132.514H322.073V119.123H332.526V132.514ZM361.158 132.514V119.123H371.61V132.514H361.158ZM322.073 118.609V117.245H371.61V118.609H322.073ZM346.578 103.339V116.731H333.046V103.339H346.578ZM360.638 103.339V116.731H347.105V103.339H360.638ZM332.526 116.731H322.073V103.339H332.526V116.731ZM361.158 116.731V103.339H371.61V116.731H361.158ZM322.073 102.825V101.462H371.61V102.825H322.073ZM333.046 87.5561H346.578V88.9199H333.046V87.5561ZM360.638 87.5561V88.9199H347.105V87.5561H360.638ZM347.105 100.948V89.4339H360.638V100.948H347.105ZM346.585 89.4339V100.948H333.053V89.4339H346.585ZM332.532 100.948H322.08V89.4339H332.532V100.948ZM361.165 100.948V89.4339H371.617V100.948H361.165ZM371.298 87.0421H366.97L356.296 72.7461H358.487L371.291 87.0421H371.298ZM335.203 72.7461H337.395L326.72 87.0421H322.392L335.196 72.7461H335.203ZM322.08 198.066H332.532V212.211H322.08V198.066ZM361.165 212.211V198.066H371.617V212.211H361.165Z" fill="#AA9767" fill-opacity="0.4"/>
<path d="M414.013 38.7894H403.49L381.276 15.1344C381.224 15.0772 381.151 15.0486 381.07 15.0486H372.409C372.255 15.0486 372.131 15.1701 372.131 15.3201V212.433C372.131 212.583 372.255 212.705 372.409 212.705H414.006C414.16 212.705 414.285 212.583 414.285 212.433V39.0609C414.285 38.9108 414.16 38.7894 414.006 38.7894H414.013ZM380.953 15.5845L403.167 39.2395C403.218 39.2966 403.292 39.3252 403.372 39.3252H413.742V41.3614H402.331L380.117 17.7064C380.095 17.6849 380.073 17.6706 380.051 17.6635C380.044 17.6635 380.036 17.6492 380.029 17.6492C379.992 17.6349 379.956 17.6278 379.919 17.6278H372.695V15.5916H380.96L380.953 15.5845ZM372.688 18.1564H379.633V212.162H372.688V18.1564ZM408.425 79.1336L401.333 71.5535L408.425 63.9733V79.1265V79.1336ZM408.344 79.8409L400.959 87.7283L393.574 79.8409L400.959 71.9535L408.344 79.8409ZM408.425 80.5482V95.7014L401.333 88.1213L408.425 80.5411V80.5482ZM408.344 96.4159L400.959 104.303L393.574 96.4159L400.959 88.5285L408.344 96.4159ZM408.425 97.1232V112.276L401.333 104.696L408.425 97.116V97.1232ZM408.344 112.991L400.959 120.878L393.574 112.991L400.959 105.103L408.344 112.991ZM408.425 113.698V128.851L401.333 121.271L408.425 113.691V113.698ZM408.344 129.566L400.959 137.453L393.574 129.566L400.959 121.678L408.344 129.566ZM408.425 130.273V145.426L401.333 137.846L408.425 130.266V130.273ZM408.344 146.141L400.959 154.028L393.574 146.141L400.959 138.253L408.344 146.141ZM408.425 146.848V162.001L401.333 154.421L408.425 146.841V146.848ZM408.344 162.716L400.959 170.603L393.574 162.716L400.959 154.828L408.344 162.716ZM408.425 163.423V178.576L401.333 170.996L408.425 163.416V163.423ZM408.344 179.291L400.959 187.178L393.574 179.291L400.959 171.403L408.344 179.291ZM408.425 179.998V195.151L401.333 187.571L408.425 179.991V179.998ZM408.344 195.865L400.959 203.753L393.574 195.865L400.959 187.978L408.344 195.865ZM408.425 196.573V211.726L401.333 204.146L408.425 196.566V196.573ZM400.959 71.1462L393.574 63.2589L400.959 55.3715L408.344 63.2589L400.959 71.1462ZM393.494 63.9661L400.585 71.5463L393.494 79.1265V63.9733V63.9661ZM393.494 80.5411L400.585 88.1213L393.494 95.7014V80.5482V80.5411ZM393.494 97.116L400.585 104.696L393.494 112.276V97.1232V97.116ZM393.494 113.691L400.585 121.271L393.494 128.851V113.698V113.691ZM393.494 130.266L400.585 137.846L393.494 145.426V130.273V130.266ZM393.494 146.841L400.585 154.421L393.494 162.001V146.848V146.841ZM393.494 163.416L400.585 170.996L393.494 178.576V163.423V163.416ZM393.494 179.991L400.585 187.571L393.494 195.151V179.998V179.991ZM400.585 204.146L393.494 211.726V196.573L400.585 204.153V204.146ZM400.959 204.546L408.08 212.148H393.846L400.967 204.546H400.959ZM408.425 62.5444L401.333 54.9642L408.425 47.3841V62.5373V62.5444ZM400.959 54.5713L393.838 46.9697H408.073L400.952 54.5713H400.959ZM400.585 54.9714L393.494 62.5516V47.3983L400.585 54.9785V54.9714ZM413.742 212.155H408.983V46.7053C408.983 46.7053 408.983 46.7053 408.983 46.6982C408.983 46.6982 408.983 46.6982 408.983 46.6911C408.983 46.6196 408.946 46.5625 408.894 46.5124C408.894 46.5124 408.895 46.5124 408.887 46.5124C408.836 46.4696 408.777 46.441 408.711 46.441H393.222C393.156 46.441 393.09 46.4696 393.046 46.5124C393.046 46.5124 393.046 46.5124 393.039 46.5124C392.988 46.5553 392.958 46.6196 392.951 46.6911C392.951 46.6911 392.951 46.6911 392.951 46.6982C392.951 46.6982 392.951 46.6982 392.951 46.7053V212.155H380.198V18.578L402.015 41.8115C402.067 41.8686 402.14 41.8972 402.221 41.8972H413.749V212.162L413.742 212.155Z" fill="#AA9767" fill-opacity="0.4"/>
</svg>
