<svg width="61" height="60" viewBox="0 0 61 60" fill="none" xmlns="http://www.w3.org/2000/svg">
<rect x="0.9375" width="60" height="60" fill="#7E213B"/>
<g filter="url(#filter0_d_7_8219)">
<path d="M25.0187 27.6786L26.0587 22.6866H27.5787L25.7227 29.9506V34.1746H24.1867V29.9506L22.2987 22.6866H23.8187L24.9707 27.6786H25.0187ZM29.2149 34.1746V22.6866H32.6069V23.9666H30.7509V27.8866H32.6069V29.1666H30.7509V32.8946H32.6069V34.1746H29.2149ZM37.5156 26.2546V24.4626C37.5262 24.1319 37.3662 23.9666 37.0356 23.9666H36.5876C36.2356 23.9666 36.0702 24.1372 36.0916 24.4786V26.7986C36.0916 27.0119 36.1342 27.1559 36.2196 27.2306C36.3049 27.2946 36.4169 27.3639 36.5556 27.4386L38.4756 28.5906C38.7529 28.7612 38.9289 28.9319 39.0036 29.1026C39.0782 29.2626 39.1156 29.5239 39.1156 29.8866V32.2386C39.1156 33.5292 38.4969 34.1746 37.2596 34.1746H36.3156C35.0889 34.1746 34.4756 33.4706 34.4756 32.0626V31.1826H36.0116V32.4146C36.0116 32.7346 36.1662 32.8946 36.4756 32.8946H37.1316C37.4409 32.8946 37.5902 32.7346 37.5796 32.4146V30.0786C37.5796 29.8652 37.5422 29.7266 37.4676 29.6626C37.4036 29.5879 37.3129 29.5186 37.1956 29.4546L35.2596 28.2386C35.0782 28.1212 34.9396 28.0146 34.8436 27.9186C34.7582 27.8119 34.6889 27.7106 34.6356 27.6146C34.5929 27.5079 34.5662 27.3959 34.5556 27.2786C34.5556 27.1612 34.5556 27.0279 34.5556 26.8786V24.6546C34.5556 23.3426 35.1689 22.6866 36.3956 22.6866H37.2116C38.4382 22.6866 39.0516 23.3426 39.0516 24.6546V26.2546H37.5156Z" fill="white"/>
</g>
<defs>
<filter id="filter0_d_7_8219" x="16.2986" y="16.6865" width="28.8169" height="23.488" filterUnits="userSpaceOnUse" color-interpolation-filters="sRGB">
<feFlood flood-opacity="0" result="BackgroundImageFix"/>
<feColorMatrix in="SourceAlpha" type="matrix" values="0 0 0 0 0 0 0 0 0 0 0 0 0 0 0 0 0 0 127 0" result="hardAlpha"/>
<feOffset/>
<feGaussianBlur stdDeviation="3"/>
<feComposite in2="hardAlpha" operator="out"/>
<feColorMatrix type="matrix" values="0 0 0 0 0 0 0 0 0 0 0 0 0 0 0 0 0 0 0.33 0"/>
<feBlend mode="normal" in2="BackgroundImageFix" result="effect1_dropShadow_7_8219"/>
<feBlend mode="normal" in="SourceGraphic" in2="effect1_dropShadow_7_8219" result="shape"/>
</filter>
</defs>
</svg>
