<svg width="266" height="29" viewBox="0 0 266 29" fill="none" xmlns="http://www.w3.org/2000/svg">
<path d="M7.97766 3.48V29H4.13766V3.48H0.457656V0.279998H11.6577V3.48H7.97766ZM15.7561 29V0.279998H24.2361V3.48H19.5961V13.28H24.2361V16.48H19.5961V25.8H24.2361V29H15.7561ZM37.3877 29L34.8677 17.4H32.5477V29H28.7077V0.279998H36.2277C39.161 0.279998 40.6277 1.92 40.6277 5.2V12.28C40.6277 14.76 39.8677 16.3467 38.3477 17.04L41.0277 29H37.3877ZM32.5477 14.12H35.0677C36.2143 14.12 36.7877 13.4267 36.7877 12.04V5.84C36.7877 4.45333 36.2143 3.76 35.0677 3.76H32.5477V14.12ZM53.6967 17.16L57.2567 0.279998H61.4967V29H57.6567L58.0567 10.2L55.1767 23.8H52.2167L49.3367 10.2L49.7367 29H45.8967V0.279998H50.1367L53.6967 17.16ZM74.3827 9.2V4.72C74.4093 3.89333 74.0093 3.48 73.1827 3.48H72.0627C71.1827 3.48 70.7693 3.90667 70.8227 4.76V10.56C70.8227 11.0933 70.9293 11.4533 71.1427 11.64C71.356 11.8 71.636 11.9733 71.9827 12.16L76.7827 15.04C77.476 15.4667 77.916 15.8933 78.1027 16.32C78.2893 16.72 78.3827 17.3733 78.3827 18.28V24.16C78.3827 27.3867 76.836 29 73.7427 29H71.3827C68.316 29 66.7827 27.24 66.7827 23.72V21.52H70.6227V24.6C70.6227 25.4 71.0093 25.8 71.7827 25.8H73.4227C74.196 25.8 74.5693 25.4 74.5427 24.6V18.76C74.5427 18.2267 74.4493 17.88 74.2627 17.72C74.1027 17.5333 73.876 17.36 73.5827 17.2L68.7427 14.16C68.2893 13.8667 67.9427 13.6 67.7027 13.36C67.4893 13.0933 67.316 12.84 67.1827 12.6C67.076 12.3333 67.0093 12.0533 66.9827 11.76C66.9827 11.4667 66.9827 11.1333 66.9827 10.76V5.2C66.9827 1.92 68.516 0.279998 71.5827 0.279998H73.6227C76.6893 0.279998 78.2227 1.92 78.2227 5.2V9.2H74.3827ZM94.368 14.16C92.928 13.76 92.208 12.6667 92.208 10.88V4.48C92.208 1.68 93.608 0.279998 96.408 0.279998H98.728C101.528 0.279998 102.928 1.68 102.928 4.48V7.72H99.328V4.56C99.328 3.84 98.9413 3.48 98.168 3.48H96.968C96.1946 3.64 95.808 4 95.808 4.56V11.56C95.808 12.4667 96.208 12.92 97.008 12.92H104.648V15.76H102.928V24.52C102.928 27.5067 101.515 29 98.688 29H95.968C93.1413 29 91.728 27.5067 91.728 24.52V17.6C91.728 15.6267 92.608 14.48 94.368 14.16ZM96.808 15.76C95.8213 15.76 95.328 16.28 95.328 17.32V24.76C95.328 25.4533 95.648 25.8 96.288 25.8H98.328C98.9946 25.8 99.328 25.4533 99.328 24.76V15.76H96.808ZM128.67 21.48V24.12C128.67 27.3733 127.137 29 124.07 29H121.59C118.524 29 116.99 27.3733 116.99 24.12V5.16C116.99 1.90667 118.524 0.279998 121.59 0.279998H124.07C127.137 0.279998 128.67 1.90667 128.67 5.16V9.2H124.83V5.16C124.83 4.04 124.257 3.48 123.11 3.48H122.35C121.337 3.48 120.83 4.04 120.83 5.16V24.12C120.83 25.24 121.337 25.8 122.35 25.8H123.31C124.324 25.8 124.83 25.24 124.83 24.12V21.48H128.67ZM138.185 29C135.092 29 133.545 27.3733 133.545 24.12V5.2C133.545 1.92 135.078 0.279998 138.145 0.279998H141.425C144.492 0.279998 146.025 1.92 146.025 5.2V24.12C146.025 27.3733 144.478 29 141.385 29H138.185ZM140.865 25.8C141.745 25.8 142.185 25.3067 142.185 24.32V4.96C142.185 3.97333 141.678 3.48 140.665 3.48H138.865C137.878 3.48 137.385 3.97333 137.385 4.96V24.32C137.385 25.3067 137.892 25.8 138.905 25.8H140.865ZM159.466 0.279998H163.306V29H159.466V23.28L155.346 10.2V29H151.506V0.279998H155.346L159.466 14.16V0.279998ZM168.803 0.279998H175.483C179.083 0.279998 180.883 2.12 180.883 5.8V24.84C180.883 27.6133 179.35 29 176.283 29H168.803V0.279998ZM172.643 25.52H175.523C176.536 25.52 177.043 25.0933 177.043 24.24V5.84C177.043 4.45333 176.47 3.76 175.323 3.76H172.643V25.52ZM186.178 29V0.279998H190.018V29H186.178ZM201.626 3.48V29H197.786V3.48H194.106V0.279998H205.306V3.48H201.626ZM209.405 29V0.279998H213.245V29H209.405ZM223.373 29C220.279 29 218.733 27.3733 218.733 24.12V5.2C218.733 1.92 220.266 0.279998 223.333 0.279998H226.613C229.679 0.279998 231.213 1.92 231.213 5.2V24.12C231.213 27.3733 229.666 29 226.573 29H223.373ZM226.053 25.8C226.933 25.8 227.373 25.3067 227.373 24.32V4.96C227.373 3.97333 226.866 3.48 225.853 3.48H224.053C223.066 3.48 222.573 3.97333 222.573 4.96V24.32C222.573 25.3067 223.079 25.8 224.093 25.8H226.053ZM244.654 0.279998H248.494V29H244.654V23.28L240.534 10.2V29H236.694V0.279998H240.534L244.654 14.16V0.279998ZM261.39 9.2V4.72C261.417 3.89333 261.017 3.48 260.19 3.48H259.07C258.19 3.48 257.777 3.90667 257.83 4.76V10.56C257.83 11.0933 257.937 11.4533 258.15 11.64C258.364 11.8 258.644 11.9733 258.99 12.16L263.79 15.04C264.484 15.4667 264.924 15.8933 265.11 16.32C265.297 16.72 265.39 17.3733 265.39 18.28V24.16C265.39 27.3867 263.844 29 260.75 29H258.39C255.324 29 253.79 27.24 253.79 23.72V21.52H257.63V24.6C257.63 25.4 258.017 25.8 258.79 25.8H260.43C261.204 25.8 261.577 25.4 261.55 24.6V18.76C261.55 18.2267 261.457 17.88 261.27 17.72C261.11 17.5333 260.884 17.36 260.59 17.2L255.75 14.16C255.297 13.8667 254.95 13.6 254.71 13.36C254.497 13.0933 254.324 12.84 254.19 12.6C254.084 12.3333 254.017 12.0533 253.99 11.76C253.99 11.4667 253.99 11.1333 253.99 10.76V5.2C253.99 1.92 255.524 0.279998 258.59 0.279998H260.63C263.697 0.279998 265.23 1.92 265.23 5.2V9.2H261.39Z" fill="#8A1E41"/>
</svg>
