<svg width="102" height="19" viewBox="0 0 102 19" fill="none" xmlns="http://www.w3.org/2000/svg">
<g filter="url(#filter0_d_131_7566)">
<path d="M7.32193 6.03138V14.9634H5.97793V6.03138H4.68993V4.91138H8.60993V6.03138H7.32193ZM10.0444 14.9634V4.91138H13.0124V6.03138H11.3884V9.46138H13.0124V10.5814H11.3884V13.8434H13.0124V14.9634H10.0444ZM17.6154 14.9634L16.7334 10.9034H15.9214V14.9634H14.5774V4.91138H17.2094C18.2361 4.91138 18.7494 5.48538 18.7494 6.63338V9.11138C18.7494 9.97938 18.4834 10.5347 17.9514 10.7774L18.8894 14.9634H17.6154ZM15.9214 9.75538H16.8034C17.2048 9.75538 17.4054 9.51271 17.4054 9.02738V6.85738C17.4054 6.37204 17.2048 6.12938 16.8034 6.12938H15.9214V9.75538ZM23.3236 10.8194L24.5696 4.91138H26.0536V14.9634H24.7096L24.8496 8.38338L23.8416 13.1434H22.8056L21.7976 8.38338L21.9376 14.9634H20.5936V4.91138H22.0776L23.3236 10.8194ZM30.5637 8.03338V6.46538C30.573 6.17605 30.433 6.03138 30.1437 6.03138H29.7517C29.4437 6.03138 29.299 6.18071 29.3177 6.47938V8.50938C29.3177 8.69605 29.355 8.82205 29.4297 8.88738C29.5044 8.94338 29.6024 9.00405 29.7237 9.06938L31.4037 10.0774C31.6464 10.2267 31.8004 10.376 31.8657 10.5254C31.931 10.6654 31.9637 10.894 31.9637 11.2114V13.2694C31.9637 14.3987 31.4224 14.9634 30.3397 14.9634H29.5137C28.4404 14.9634 27.9037 14.3474 27.9037 13.1154V12.3454H29.2477V13.4234C29.2477 13.7034 29.383 13.8434 29.6537 13.8434H30.2277C30.4984 13.8434 30.629 13.7034 30.6197 13.4234V11.3794C30.6197 11.1927 30.587 11.0714 30.5217 11.0154C30.4657 10.95 30.3864 10.8894 30.2837 10.8334L28.5897 9.76938C28.431 9.66671 28.3097 9.57338 28.2257 9.48938C28.151 9.39605 28.0904 9.30738 28.0437 9.22338C28.0064 9.13005 27.983 9.03205 27.9737 8.92938C27.9737 8.82671 27.9737 8.71005 27.9737 8.57938V6.63338C27.9737 5.48538 28.5104 4.91138 29.5837 4.91138H30.2977C31.371 4.91138 31.9077 5.48538 31.9077 6.63338V8.03338H30.5637ZM37.5585 9.76938C37.0545 9.62938 36.8025 9.24671 36.8025 8.62138V6.38138C36.8025 5.40138 37.2925 4.91138 38.2725 4.91138H39.0845C40.0645 4.91138 40.5545 5.40138 40.5545 6.38138V7.51538H39.2945V6.40938C39.2945 6.15738 39.1592 6.03138 38.8885 6.03138H38.4685C38.1979 6.08738 38.0625 6.21338 38.0625 6.40938V8.85938C38.0625 9.17671 38.2025 9.33538 38.4825 9.33538H41.1565V10.3294H40.5545V13.3954C40.5545 14.4407 40.0599 14.9634 39.0705 14.9634H38.1185C37.1292 14.9634 36.6345 14.4407 36.6345 13.3954V10.9734C36.6345 10.2827 36.9425 9.88138 37.5585 9.76938ZM38.4125 10.3294C38.0672 10.3294 37.8945 10.5114 37.8945 10.8754V13.4794C37.8945 13.722 38.0065 13.8434 38.2305 13.8434H38.9445C39.1779 13.8434 39.2945 13.722 39.2945 13.4794V10.3294H38.4125ZM49.5644 12.3314V13.2554C49.5644 14.394 49.0278 14.9634 47.9544 14.9634H47.0864C46.0131 14.9634 45.4764 14.394 45.4764 13.2554V6.61938C45.4764 5.48071 46.0131 4.91138 47.0864 4.91138H47.9544C49.0278 4.91138 49.5644 5.48071 49.5644 6.61938V8.03338H48.2204V6.61938C48.2204 6.22738 48.0198 6.03138 47.6184 6.03138H47.3524C46.9978 6.03138 46.8204 6.22738 46.8204 6.61938V13.2554C46.8204 13.6474 46.9978 13.8434 47.3524 13.8434H47.6884C48.0431 13.8434 48.2204 13.6474 48.2204 13.2554V12.3314H49.5644ZM52.8946 14.9634C51.8119 14.9634 51.2706 14.394 51.2706 13.2554V6.63338C51.2706 5.48538 51.8072 4.91138 52.8806 4.91138H54.0286C55.1019 4.91138 55.6386 5.48538 55.6386 6.63338V13.2554C55.6386 14.394 55.0972 14.9634 54.0146 14.9634H52.8946ZM53.8326 13.8434C54.1406 13.8434 54.2946 13.6707 54.2946 13.3254V6.54938C54.2946 6.20405 54.1172 6.03138 53.7626 6.03138H53.1326C52.7872 6.03138 52.6146 6.20405 52.6146 6.54938V13.3254C52.6146 13.6707 52.7919 13.8434 53.1466 13.8434H53.8326ZM60.3429 4.91138H61.6869V14.9634H60.3429V12.9614L58.9009 8.38338V14.9634H57.5569V4.91138H58.9009L60.3429 9.76938V4.91138ZM63.6108 4.91138H65.9488C67.2088 4.91138 67.8388 5.55538 67.8388 6.84338V13.5074C67.8388 14.478 67.3021 14.9634 66.2288 14.9634H63.6108V4.91138ZM64.9548 13.7454H65.9628C66.3175 13.7454 66.4948 13.596 66.4948 13.2974V6.85738C66.4948 6.37204 66.2941 6.12938 65.8928 6.12938H64.9548V13.7454ZM69.692 14.9634V4.91138H71.036V14.9634H69.692ZM75.0989 6.03138V14.9634H73.7549V6.03138H72.4669V4.91138H76.3869V6.03138H75.0989ZM77.8213 14.9634V4.91138H79.1653V14.9634H77.8213ZM82.7102 14.9634C81.6275 14.9634 81.0862 14.394 81.0862 13.2554V6.63338C81.0862 5.48538 81.6229 4.91138 82.6962 4.91138H83.8442C84.9175 4.91138 85.4542 5.48538 85.4542 6.63338V13.2554C85.4542 14.394 84.9129 14.9634 83.8302 14.9634H82.7102ZM83.6482 13.8434C83.9562 13.8434 84.1102 13.6707 84.1102 13.3254V6.54938C84.1102 6.20405 83.9329 6.03138 83.5782 6.03138H82.9482C82.6029 6.03138 82.4302 6.20405 82.4302 6.54938V13.3254C82.4302 13.6707 82.6075 13.8434 82.9622 13.8434H83.6482ZM90.1585 4.91138H91.5025V14.9634H90.1585V12.9614L88.7165 8.38338V14.9634H87.3725V4.91138H88.7165L90.1585 9.76938V4.91138ZM96.0164 8.03338V6.46538C96.0257 6.17605 95.8857 6.03138 95.5964 6.03138H95.2044C94.8964 6.03138 94.7517 6.18071 94.7704 6.47938V8.50938C94.7704 8.69605 94.8077 8.82205 94.8824 8.88738C94.9571 8.94338 95.0551 9.00405 95.1764 9.06938L96.8564 10.0774C97.0991 10.2267 97.2531 10.376 97.3184 10.5254C97.3837 10.6654 97.4164 10.894 97.4164 11.2114V13.2694C97.4164 14.3987 96.8751 14.9634 95.7924 14.9634H94.9664C93.8931 14.9634 93.3564 14.3474 93.3564 13.1154V12.3454H94.7004V13.4234C94.7004 13.7034 94.8357 13.8434 95.1064 13.8434H95.6804C95.9511 13.8434 96.0817 13.7034 96.0724 13.4234V11.3794C96.0724 11.1927 96.0397 11.0714 95.9744 11.0154C95.9184 10.95 95.8391 10.8894 95.7364 10.8334L94.0424 9.76938C93.8837 9.66671 93.7624 9.57338 93.6784 9.48938C93.6037 9.39605 93.5431 9.30738 93.4964 9.22338C93.4591 9.13005 93.4357 9.03205 93.4264 8.92938C93.4264 8.82671 93.4264 8.71005 93.4264 8.57938V6.63338C93.4264 5.48538 93.9631 4.91138 95.0364 4.91138H95.7504C96.8237 4.91138 97.3604 5.48538 97.3604 6.63338V8.03338H96.0164Z" fill="#402020"/>
<path d="M3.86393 15.8734H98.6484V16.4334H3.86393V15.8734Z" fill="#402020"/>
</g>
<defs>
<filter id="filter0_d_131_7566" x="0.689941" y="0.911621" width="100.727" height="18.0518" filterUnits="userSpaceOnUse" color-interpolation-filters="sRGB">
<feFlood flood-opacity="0" result="BackgroundImageFix"/>
<feColorMatrix in="SourceAlpha" type="matrix" values="0 0 0 0 0 0 0 0 0 0 0 0 0 0 0 0 0 0 127 0" result="hardAlpha"/>
<feOffset/>
<feGaussianBlur stdDeviation="2"/>
<feComposite in2="hardAlpha" operator="out"/>
<feColorMatrix type="matrix" values="0 0 0 0 0.666667 0 0 0 0 0.592157 0 0 0 0 0.403922 0 0 0 1 0"/>
<feBlend mode="normal" in2="BackgroundImageFix" result="effect1_dropShadow_131_7566"/>
<feBlend mode="normal" in="SourceGraphic" in2="effect1_dropShadow_131_7566" result="shape"/>
</filter>
</defs>
</svg>
