<svg width="305" height="123" viewBox="0 0 305 123" fill="none" xmlns="http://www.w3.org/2000/svg">
<path d="M304.198 86.4145H0.769308C0.344467 86.4145 0 86.2693 0 86.0894C0 85.9096 0.344467 85.7643 0.769308 85.7643H304.198C304.623 85.7643 304.967 85.9096 304.967 86.0894C304.967 86.2693 304.623 86.4145 304.198 86.4145Z" fill="#8B1D41"/>
<path d="M207.529 101.041C207.327 100.995 207.153 100.96 207.001 100.93C206.544 100.842 206.392 100.806 206.262 100.646C206.186 100.557 206.183 100.485 206.19 100.439C206.206 100.312 206.324 100.162 206.51 100.028C206.7 99.8924 206.955 99.7264 207.226 99.5488C207.697 99.2421 208.227 98.894 208.567 98.6103C209.727 97.6418 209.966 96.399 209.176 95.4466C209.173 95.4443 209.169 95.442 209.167 95.4397C209.164 95.4374 209.164 95.4328 209.162 95.4305C208.742 94.9209 208.184 94.681 207.559 94.7295C207.026 94.7733 206.471 95.0246 205.952 95.4581C205.612 95.7418 205.175 96.2029 204.792 96.6111C204.569 96.8463 204.36 97.07 204.19 97.2337C204.027 97.3928 203.853 97.4827 203.731 97.4735C203.685 97.4712 203.616 97.4574 203.54 97.3651C203.409 97.206 203.4 97.0492 203.396 96.5811C203.393 96.4266 203.393 96.2491 203.384 96.0392C203.345 95.0569 202.888 94.3513 202.167 94.153C201.191 93.8855 200.286 94.6718 200.013 95.555C199.822 96.1707 199.763 96.8763 199.698 97.6211C199.65 98.1814 199.602 98.7602 199.492 99.3044C199.372 99.9016 199.218 100.282 199.032 100.439C198.998 100.467 198.963 100.483 198.934 100.483C198.922 100.483 198.899 100.487 198.862 100.444C198.727 100.28 198.754 99.8901 198.789 99.3482C198.807 99.0738 198.828 98.7579 198.835 98.3936C198.856 97.2268 198.35 96.3759 197.48 96.1176C197.069 95.9954 196.614 96.0577 196.205 96.2952C195.67 96.6042 195.257 97.1783 195.099 97.8309C194.991 98.276 194.931 99.1269 194.862 100.111C194.793 101.101 194.72 102.122 194.593 102.777C194.412 103.716 194.233 104.032 194.113 104.131C194.088 104.151 194.035 104.168 194.015 104.142C193.893 103.995 193.916 103.586 193.939 103.155C193.962 102.754 193.987 102.297 193.932 101.792C193.849 101.036 193.406 100.197 192.598 100.024C192.198 99.9385 191.799 100.026 191.445 100.28C190.935 100.642 190.563 101.311 190.471 102.025C190.32 103.22 190.315 104.424 190.31 105.588C190.301 107.686 190.292 109.674 189.449 111.383C189.413 111.39 189.378 111.399 189.344 111.415C186.347 112.895 183.086 113.885 179.607 114.376C180.091 113.938 180.622 113.331 181.198 112.344C182.023 111.514 183.192 111.168 184.429 110.802C185.095 110.606 185.784 110.403 186.448 110.115C186.868 109.932 187.215 109.58 187.348 109.197C187.445 108.918 187.426 108.641 187.295 108.397C187.017 107.876 186.395 107.783 185.943 107.862C185.637 107.915 185.364 108.012 185.146 108.088C185.045 108.122 184.914 108.168 184.811 108.196C184.898 108.122 185.056 108.016 185.343 107.866C185.688 107.689 186.283 107.47 186.804 107.278C187.36 107.073 187.84 106.895 188.083 106.755C188.457 106.54 188.735 106.181 188.832 105.791C188.907 105.484 188.861 105.182 188.705 104.938C188.384 104.433 187.766 104.264 187.05 104.486C186.841 104.55 186.661 104.615 186.508 104.673C186.324 104.739 186.136 104.809 186.028 104.82C186.083 104.749 186.214 104.636 186.512 104.479C186.799 104.329 187.118 104.207 187.426 104.087C187.846 103.923 188.246 103.771 188.577 103.552C189.08 103.218 189.406 102.5 189.054 101.922C188.795 101.495 188.271 101.329 187.649 101.481C187.527 101.511 187.424 101.539 187.337 101.564C187.082 101.636 187.017 101.65 186.916 101.594C186.907 101.569 186.909 101.497 186.969 101.384C187.033 101.262 187.125 101.108 187.219 100.944C187.389 100.651 187.585 100.319 187.693 100.07C188.083 99.1776 187.856 98.3913 187.116 98.0638C187.114 98.0638 187.112 98.0638 187.109 98.0615C187.107 98.0615 187.107 98.0592 187.105 98.0592C186.707 97.884 186.312 97.907 185.956 98.1215C185.662 98.299 185.417 98.6011 185.247 98.9931C185.139 99.2421 185.026 99.6088 184.928 99.9339C184.873 100.116 184.82 100.287 184.774 100.418C184.732 100.54 184.68 100.589 184.622 100.593C184.549 100.561 184.517 100.508 184.395 100.268C184.354 100.185 184.303 100.091 184.243 99.98C183.936 99.4197 183.458 99.1453 182.969 99.2421C182.307 99.3759 182.002 100.102 182.098 100.702C182.163 101.094 182.319 101.49 182.487 101.91C182.608 102.219 182.735 102.537 182.819 102.851C182.907 103.174 182.911 103.347 182.898 103.439C182.833 103.351 182.755 103.165 182.679 102.985C182.615 102.832 182.542 102.657 182.447 102.459C182.124 101.781 181.582 101.435 180.994 101.543C180.709 101.594 180.456 101.767 180.284 102.03C180.064 102.364 179.99 102.814 180.084 103.236C180.146 103.51 180.344 103.985 180.569 104.534C180.783 105.051 181.024 105.636 181.129 106.012C181.217 106.326 181.244 106.515 181.251 106.63C181.201 106.536 181.145 106.409 181.102 106.31C181.01 106.095 180.895 105.83 180.727 105.567C180.479 105.18 179.986 104.783 179.418 104.931C179.15 105 178.936 105.175 178.798 105.436C178.608 105.793 178.585 106.287 178.736 106.723C178.975 107.407 179.294 108.053 179.602 108.678C180.174 109.836 180.711 110.931 180.663 112.098C179.882 113.414 179.205 113.991 178.61 114.427C178.578 114.45 178.55 114.48 178.532 114.512C177.161 114.664 175.756 114.743 174.32 114.743C164.322 114.743 156.224 111.952 148.795 108.431C149.843 108.653 150.844 108.743 151.772 108.743C153.489 108.743 154.966 108.44 156.071 108.108C158.289 107.44 160.248 106.264 161.311 104.961C161.408 104.841 161.398 104.668 161.286 104.562C161.176 104.456 161.001 104.454 160.889 104.557C160.861 104.583 157.995 107.149 153.804 107.543C150.258 107.878 148.015 107.449 146.054 106.826C146.508 106.875 146.945 106.898 147.351 106.898C147.985 106.898 148.559 106.849 149.05 106.783C150.956 106.52 152.715 105.805 153.758 104.869C153.873 104.767 153.889 104.592 153.795 104.47C153.701 104.347 153.531 104.32 153.402 104.403C153.377 104.421 150.722 106.144 147.268 105.927C143.913 105.722 142.074 104.917 140.397 104.02C140.643 103.889 140.891 103.757 141.139 103.626C155.437 96.0162 173.248 86.4189 201.437 86.4189C201.653 86.4189 201.806 86.3728 201.806 86.1584C201.806 85.9416 201.632 85.7664 201.416 85.7664C173.034 85.7664 155.145 95.2852 140.772 102.934C140.331 103.169 139.894 103.402 139.458 103.633C136.452 102.032 133.494 100.471 130.491 99.1107C131.361 99.3067 132.238 99.4658 133.122 99.5788C137.024 100.114 144.666 99.0092 146.644 95.163C146.697 95.0569 146.529 94.9716 146.471 95.0707C145.268 96.5327 143.378 97.2175 141.637 97.8286C136.22 99.5581 131.239 98.7579 125.978 97.2568C121.587 95.6518 117.01 94.6142 111.97 94.6142C100.407 94.6142 95.1392 99.6526 95.1392 104.331C95.1392 108.978 100.198 113.979 111.308 113.979C121.089 113.979 129.666 109.711 139.366 104.567C140.701 105.583 141.819 107.276 142.625 108.775C142.625 108.779 142.623 108.786 142.623 108.791C142.682 109.974 142.136 111.081 141.555 112.252C141.247 112.877 140.928 113.523 140.687 114.205C140.533 114.641 140.558 115.132 140.746 115.492C140.884 115.753 141.1 115.928 141.366 115.997C141.938 116.147 142.427 115.748 142.678 115.363C142.845 115.1 142.96 114.835 143.052 114.62C143.096 114.521 143.151 114.394 143.201 114.3C143.194 114.413 143.167 114.604 143.08 114.918C142.976 115.294 142.733 115.879 142.519 116.396C142.292 116.945 142.097 117.42 142.032 117.694C141.936 118.116 142.009 118.566 142.23 118.9C142.402 119.163 142.655 119.336 142.94 119.389C143.525 119.493 144.069 119.154 144.393 118.476C144.487 118.278 144.561 118.102 144.625 117.95C144.701 117.768 144.779 117.581 144.843 117.496C144.857 117.586 144.855 117.759 144.765 118.084C144.68 118.397 144.554 118.716 144.432 119.022C144.265 119.444 144.106 119.841 144.042 120.233C143.943 120.83 144.249 121.559 144.91 121.693C145.401 121.794 145.877 121.515 146.187 120.955C146.249 120.844 146.297 120.749 146.338 120.666C146.46 120.429 146.492 120.376 146.6 120.337C146.623 120.346 146.674 120.397 146.717 120.519C146.763 120.65 146.816 120.826 146.871 121.01C146.967 121.333 147.08 121.697 147.186 121.946C147.356 122.338 147.601 122.64 147.895 122.82C148.093 122.94 148.302 123 148.518 123C148.69 123 148.867 122.961 149.043 122.885C149.046 122.885 149.046 122.882 149.048 122.88C149.05 122.88 149.053 122.88 149.053 122.878C149.792 122.553 150.019 121.766 149.631 120.872C149.523 120.623 149.331 120.291 149.158 119.998C149.062 119.834 148.972 119.677 148.908 119.555C148.848 119.442 148.846 119.371 148.883 119.322C148.954 119.29 149.016 119.301 149.273 119.375C149.363 119.4 149.464 119.428 149.588 119.46C150.208 119.613 150.734 119.449 150.993 119.022C151.345 118.444 151.021 117.724 150.518 117.39C150.187 117.171 149.79 117.016 149.37 116.855C149.062 116.735 148.743 116.613 148.456 116.463C148.159 116.308 148.031 116.195 147.973 116.121C148.081 116.133 148.27 116.202 148.453 116.269C148.607 116.327 148.786 116.391 148.995 116.456C149.712 116.68 150.329 116.511 150.651 116.006C150.807 115.762 150.851 115.457 150.777 115.153C150.683 114.763 150.403 114.404 150.031 114.187C149.788 114.046 149.308 113.869 148.752 113.663C148.228 113.47 147.636 113.251 147.291 113.073C147.002 112.923 146.843 112.815 146.759 112.743C146.862 112.769 146.993 112.817 147.094 112.852C147.312 112.93 147.583 113.025 147.891 113.08C148.338 113.158 148.965 113.068 149.246 112.547C149.376 112.303 149.395 112.026 149.298 111.747C149.165 111.364 148.821 111.012 148.4 110.827C147.739 110.539 147.05 110.336 146.384 110.138C145.174 109.78 144.033 109.437 143.213 108.646C142.641 107.567 141.902 106.37 141.029 105.364C150.649 110.479 160.721 115.533 174.311 115.533C179.928 115.533 185.1 114.387 189.679 112.125C189.686 112.121 189.693 112.116 189.7 112.111C191.603 111.47 193.643 111.837 195.801 112.227C196.943 112.432 198.121 112.646 199.319 112.713C199.37 112.716 199.42 112.718 199.473 112.718C200.137 112.718 200.789 112.476 201.207 112.07C201.519 111.766 201.68 111.387 201.669 110.977C201.646 110.149 200.904 109.557 200.178 109.34C199.694 109.194 199.241 109.137 198.844 109.086C198.417 109.031 198.013 108.98 197.891 108.832C197.877 108.816 197.873 108.775 197.919 108.736C198.038 108.636 198.378 108.517 199.331 108.507C200.011 108.505 201.007 108.616 201.988 108.726C202.966 108.837 203.809 108.929 204.266 108.906C204.934 108.867 205.57 108.563 205.97 108.092C206.275 107.73 206.42 107.297 206.374 106.866C206.28 105.962 205.538 105.307 204.392 105.115C204.034 105.055 203.722 105.018 203.448 104.986C202.911 104.924 202.523 104.878 202.387 104.714C202.344 104.661 202.355 104.603 202.424 104.548C202.61 104.391 203.012 104.308 203.618 104.299C204.17 104.288 204.748 104.347 205.306 104.4C206.05 104.472 206.751 104.541 207.387 104.465C208.301 104.354 209.235 103.607 209.148 102.59C209.093 101.836 208.484 101.26 207.529 101.041ZM111.313 113.193C103.666 113.193 95.9246 110.149 95.9246 104.329C95.9246 100.886 99.1442 97.236 106.077 95.9124C107.942 95.7717 109.931 95.7902 113.026 96.9224C116.278 98.1099 118.03 100.75 118.046 100.776C118.101 100.861 118.195 100.909 118.292 100.909C118.34 100.909 118.388 100.898 118.434 100.872C118.567 100.799 118.623 100.633 118.558 100.492C117.975 99.2191 116.645 97.8586 115.001 96.8532C114.305 96.4289 113.387 95.9631 112.277 95.6126C114.321 95.8294 116.549 96.3344 119.663 98.0592C123.349 100.1 124.958 103.598 124.975 103.635C125.023 103.743 125.128 103.808 125.241 103.808C125.275 103.808 125.307 103.803 125.342 103.789C125.487 103.736 125.565 103.582 125.523 103.434C125.066 101.813 123.737 99.9501 121.966 98.4489C120.937 97.5773 119.424 96.5373 117.449 95.8156C125.027 96.9777 131.708 100.393 138.629 104.073C129.172 109.079 120.779 113.193 111.313 113.193Z" fill="#8B1D41"/>
<path d="M148.208 122.313C148.022 122.198 147.849 121.983 147.73 121.706C147.634 121.492 147.53 121.144 147.438 120.837C147.379 120.643 147.324 120.461 147.278 120.323C147.186 120.065 147.036 119.882 146.841 119.797C146.68 119.728 146.506 119.728 146.338 119.804C146.067 119.924 145.964 120.122 145.826 120.397C145.785 120.475 145.739 120.565 145.682 120.669C145.615 120.791 145.369 121.183 145.032 121.116C144.722 121.054 144.57 120.657 144.625 120.327C144.678 119.998 144.825 119.629 144.981 119.237C145.11 118.914 145.241 118.58 145.335 118.236C145.466 117.761 145.477 117.44 145.369 117.198C145.245 116.91 144.942 116.783 144.664 116.905C144.379 117.032 144.258 117.321 144.09 117.717C144.03 117.862 143.959 118.028 143.872 118.215C143.773 118.42 143.493 118.886 143.05 118.806C142.889 118.776 142.786 118.663 142.726 118.573C142.591 118.372 142.549 118.091 142.609 117.821C142.662 117.595 142.866 117.097 143.066 116.617C143.298 116.059 143.539 115.483 143.651 115.072C143.81 114.496 143.835 114.148 143.734 113.91C143.677 113.779 143.576 113.679 143.447 113.629C143.321 113.58 143.19 113.583 143.068 113.636C142.795 113.756 142.669 114.048 142.524 114.385C142.437 114.588 142.338 114.821 142.193 115.042C142.044 115.273 141.771 115.49 141.523 115.427C141.412 115.4 141.332 115.328 141.272 115.215C141.16 115.005 141.148 114.678 141.247 114.404C141.474 113.753 141.784 113.124 142.085 112.515C142.54 111.597 142.972 110.716 143.142 109.78C143.279 110.061 143.401 110.327 143.507 110.566C145.073 114.097 147.023 118.939 147.041 118.988C147.089 119.103 147.197 119.17 147.312 119.17C147.349 119.17 147.388 119.163 147.422 119.149C147.574 119.089 147.645 118.918 147.583 118.766C147.565 118.718 145.61 113.864 144.042 110.329C143.966 110.161 143.883 109.974 143.792 109.782C144.529 110.193 145.362 110.444 146.23 110.7C146.878 110.892 147.549 111.092 148.18 111.367C148.446 111.482 148.678 111.713 148.756 111.938C148.8 112.061 148.796 112.167 148.74 112.266C148.619 112.494 148.272 112.547 148.003 112.499C147.744 112.453 147.51 112.37 147.298 112.296C146.954 112.174 146.655 112.07 146.382 112.188C146.26 112.241 146.168 112.34 146.12 112.462C146.07 112.591 146.074 112.734 146.129 112.865C146.235 113.101 146.504 113.322 147.036 113.596C147.413 113.79 147.996 114.007 148.561 114.214C149.046 114.394 149.551 114.581 149.751 114.696C149.987 114.835 150.164 115.056 150.222 115.291C150.247 115.397 150.261 115.55 150.171 115.69C149.925 116.075 149.395 115.962 149.181 115.893C148.984 115.831 148.812 115.769 148.667 115.718C148.26 115.568 147.969 115.464 147.684 115.589C147.553 115.644 147.454 115.746 147.404 115.875C147.351 116.011 147.356 116.161 147.418 116.304C147.553 116.617 147.904 116.832 148.201 116.986C148.515 117.15 148.851 117.279 149.174 117.406C149.565 117.558 149.935 117.699 150.21 117.883C150.488 118.065 150.676 118.446 150.509 118.716C150.332 119.011 149.877 118.925 149.742 118.891C149.627 118.861 149.53 118.835 149.448 118.81C149.149 118.727 148.936 118.667 148.662 118.785C148.495 118.861 148.373 118.985 148.316 119.151C148.244 119.352 148.274 119.59 148.405 119.832C148.472 119.961 148.566 120.122 148.667 120.295C148.828 120.574 149.014 120.89 149.108 121.107C149.204 121.324 149.464 122.059 148.832 122.338C148.83 122.338 148.828 122.34 148.825 122.34C148.825 122.343 148.823 122.34 148.821 122.343C148.598 122.435 148.396 122.428 148.208 122.313Z" fill="white"/>
<path d="M186.88 98.6009C187.513 98.8799 187.252 99.6155 187.155 99.8323C187.061 100.049 186.877 100.365 186.714 100.644C186.611 100.815 186.519 100.978 186.45 101.107C186.322 101.35 186.292 101.585 186.361 101.785C186.418 101.949 186.537 102.078 186.707 102.154C186.978 102.272 187.192 102.212 187.493 102.129C187.578 102.104 187.672 102.076 187.787 102.048C187.922 102.016 188.375 101.931 188.554 102.224C188.719 102.496 188.533 102.874 188.255 103.058C187.977 103.24 187.608 103.383 187.217 103.536C186.893 103.66 186.56 103.789 186.244 103.955C185.952 104.107 185.596 104.322 185.458 104.636C185.334 104.921 185.449 105.23 185.725 105.353C186.009 105.477 186.301 105.371 186.707 105.224C186.857 105.168 187.024 105.106 187.222 105.048C187.438 104.979 187.968 104.868 188.214 105.253C188.301 105.392 188.29 105.544 188.264 105.65C188.205 105.888 188.03 106.111 187.791 106.245C187.589 106.363 187.086 106.547 186.602 106.725C186.037 106.932 185.451 107.149 185.075 107.343C184.544 107.617 184.273 107.834 184.168 108.074C184.112 108.203 184.108 108.341 184.154 108.468C184.202 108.595 184.298 108.696 184.418 108.749C184.691 108.869 184.99 108.763 185.336 108.641C185.543 108.567 185.782 108.484 186.041 108.44C186.31 108.394 186.657 108.447 186.779 108.673C186.831 108.772 186.836 108.878 186.795 109.003C186.714 109.229 186.482 109.459 186.216 109.575C185.584 109.847 184.914 110.045 184.264 110.237C183.396 110.493 182.56 110.742 181.825 111.152C181.908 110.979 181.991 110.797 182.076 110.606C183.651 107.071 185.61 102.219 185.628 102.173C185.69 102.021 185.617 101.85 185.467 101.79C185.316 101.728 185.146 101.802 185.086 101.951C185.065 102 183.111 106.84 181.54 110.368C181.414 110.647 181.295 110.903 181.173 111.147C181.005 110.214 180.574 109.335 180.121 108.417C179.82 107.808 179.51 107.179 179.283 106.529C179.187 106.252 179.198 105.925 179.311 105.715C179.373 105.599 179.455 105.533 179.561 105.505C179.811 105.438 180.082 105.659 180.234 105.89C180.376 106.111 180.473 106.344 180.562 106.547C180.709 106.886 180.833 107.177 181.104 107.297C181.228 107.352 181.366 107.354 181.49 107.301C181.616 107.25 181.715 107.151 181.77 107.024C181.876 106.787 181.85 106.439 181.69 105.862C181.575 105.452 181.336 104.875 181.106 104.317C180.909 103.838 180.702 103.34 180.652 103.111C180.59 102.846 180.633 102.565 180.769 102.36C180.829 102.27 180.932 102.157 181.093 102.129C181.54 102.051 181.818 102.514 181.915 102.719C182.004 102.906 182.073 103.074 182.133 103.217C182.298 103.616 182.42 103.905 182.707 104.029C182.983 104.151 183.286 104.027 183.412 103.739C183.548 103.427 183.465 103.019 183.378 102.701C183.283 102.355 183.153 102.021 183.024 101.698C182.868 101.306 182.723 100.937 182.67 100.609C182.615 100.277 182.769 99.883 183.077 99.8184C183.419 99.7493 183.66 100.146 183.727 100.268C183.784 100.372 183.83 100.459 183.869 100.538C184.011 100.815 184.112 101.015 184.381 101.133C184.551 101.209 184.726 101.211 184.884 101.14C185.079 101.054 185.231 100.875 185.323 100.614C185.371 100.476 185.426 100.298 185.483 100.107C185.578 99.7977 185.683 99.4495 185.777 99.2327C185.899 98.956 186.067 98.7416 186.255 98.6286C186.443 98.511 186.645 98.5041 186.866 98.6009C186.868 98.6009 186.87 98.6009 186.87 98.6032C186.877 98.5986 186.88 98.6009 186.88 98.6009Z" fill="white"/>
<path d="M207.401 101.615C207.205 101.569 207.035 101.536 206.891 101.509C206.406 101.412 206.085 101.35 205.811 101.024C205.692 100.879 205.623 100.718 205.607 100.547C205.602 100.487 205.602 100.425 205.612 100.365C205.648 100.068 205.841 99.7862 206.17 99.551C206.365 99.4103 206.629 99.2397 206.907 99.0598C207.364 98.7601 207.88 98.4234 208.195 98.1628C208.537 97.8769 209.587 96.8623 208.726 95.8246C208.723 95.8223 208.723 95.8177 208.721 95.8154C208.719 95.8131 208.714 95.8108 208.712 95.8085C208.413 95.4464 208.039 95.2827 207.605 95.3173C207.198 95.3496 206.746 95.5594 206.326 95.9099C206.013 96.1705 205.589 96.6202 205.217 97.0168C204.987 97.2589 204.771 97.4895 204.597 97.6578C204.31 97.9391 203.997 98.0775 203.699 98.0637C203.609 98.0591 203.526 98.0406 203.446 98.0083C203.311 97.9553 203.191 97.8654 203.09 97.7454C202.819 97.4157 202.817 97.0883 202.812 96.5925C202.81 96.4426 202.808 96.272 202.801 96.0713C202.789 95.8039 202.7 94.9161 202.013 94.727C201.393 94.5564 200.766 95.1098 200.573 95.7347C200.401 96.2881 200.344 96.9637 200.282 97.6786C200.233 98.2527 200.181 98.85 200.068 99.4288C199.914 100.192 199.712 100.644 199.409 100.898C199.257 101.024 199.078 101.08 198.899 101.075C198.713 101.066 198.539 100.976 198.415 100.826C198.132 100.483 198.162 100.019 198.208 99.3158C198.226 99.0506 198.247 98.7439 198.254 98.3911C198.261 97.9645 198.185 96.9476 197.319 96.6893C196.986 96.5902 196.692 96.7009 196.504 96.8116C196.104 97.0421 195.794 97.478 195.673 97.976C195.576 98.3727 195.514 99.2397 195.452 100.16C195.381 101.167 195.307 102.21 195.174 102.895C194.995 103.822 194.784 104.343 194.495 104.587C194.352 104.705 194.18 104.758 194.01 104.746C193.989 104.744 193.966 104.742 193.946 104.739C193.799 104.714 193.666 104.636 193.571 104.523C193.3 104.197 193.328 103.725 193.36 103.125C193.383 102.745 193.406 102.316 193.358 101.859C193.298 101.313 193.004 100.713 192.483 100.6C192.246 100.549 192.012 100.605 191.789 100.762C191.415 101.029 191.128 101.557 191.059 102.104C190.912 103.261 190.908 104.449 190.905 105.595C190.896 107.433 190.887 109.192 190.336 110.799L191.16 110.107C192.019 108.915 191.962 106.054 191.923 103.958C191.909 103.323 191.897 102.726 191.913 102.254C191.918 102.092 192.047 101.961 192.214 101.97C192.375 101.975 192.504 102.111 192.497 102.272C192.483 102.729 192.494 103.321 192.508 103.946C192.543 105.699 192.582 107.779 192.166 109.266L192.988 108.579C193.647 107.416 193.599 105.692 193.597 105.673C193.592 105.512 193.721 105.376 193.881 105.369C194.049 105.362 194.178 105.493 194.182 105.652C194.185 105.712 194.212 106.739 193.925 107.795L194.57 107.255C196.584 104.695 196.559 98.5848 196.559 98.5225C196.557 98.3611 196.688 98.2274 196.848 98.2274H196.851C197.011 98.2274 197.142 98.3588 197.142 98.5179C197.145 98.737 197.163 103.169 195.863 106.174L197.067 105.168C197.909 104.08 198.1 102.016 198.102 101.995C198.116 101.834 198.254 101.716 198.419 101.728C198.578 101.744 198.697 101.887 198.683 102.046C198.679 102.111 198.582 103.162 198.212 104.211L199.356 103.254C201.136 100.882 201.356 96.2443 201.359 96.1982C201.365 96.0368 201.517 95.9007 201.664 95.9169C201.823 95.9238 201.949 96.0621 201.942 96.2235C201.935 96.3873 201.781 99.6363 200.647 102.175L202.337 100.762C202.893 99.966 203.001 98.7739 203.001 98.7624C203.014 98.6079 203.143 98.4926 203.29 98.4926C203.299 98.4926 203.308 98.4949 203.317 98.4949C203.478 98.5064 203.598 98.6494 203.584 98.8108C203.582 98.8454 203.538 99.3204 203.368 99.9015L207.221 96.6801C207.345 96.5763 207.529 96.5925 207.632 96.7193C207.738 96.8438 207.72 97.0283 207.596 97.1321L203.742 100.353C204.339 100.289 204.817 100.333 204.849 100.337C204.982 100.351 205.083 100.45 205.109 100.573C205.113 100.6 205.113 100.628 205.111 100.658C205.095 100.819 204.95 100.944 204.792 100.921C204.778 100.921 203.595 100.808 202.714 101.214L201.023 102.627C203.717 101.968 206.925 102.406 207.088 102.429C207.247 102.45 207.359 102.597 207.336 102.761C207.316 102.922 207.166 103.031 207.008 103.01C206.96 103.003 202.378 102.378 199.735 103.706L198.589 104.663C199.685 104.488 200.729 104.582 200.794 104.589C200.954 104.603 201.074 104.746 201.058 104.91C201.042 105.069 200.897 105.191 200.739 105.173C200.718 105.173 198.665 104.986 197.443 105.62L196.242 106.626C199.418 105.888 203.754 106.711 203.972 106.752C204.13 106.782 204.234 106.937 204.202 107.096C204.172 107.255 204.018 107.361 203.859 107.329C203.8 107.317 197.818 106.185 194.947 107.707L194.302 108.247C195.392 108.154 196.389 108.369 196.444 108.383C196.605 108.417 196.701 108.572 196.667 108.731C196.633 108.888 196.479 108.991 196.32 108.955C196.302 108.952 194.619 108.592 193.362 109.031L192.54 109.718C194.074 109.577 196.104 109.994 197.815 110.347C198.426 110.474 199 110.592 199.45 110.661C199.609 110.684 199.719 110.834 199.696 110.995C199.673 111.143 199.547 111.244 199.407 111.244C199.393 111.244 199.377 111.242 199.361 111.24C198.897 111.171 198.314 111.051 197.698 110.924C195.652 110.502 192.857 109.928 191.532 110.557L190.682 111.27C192.368 111.007 194.102 111.318 195.918 111.648C197.041 111.851 198.206 112.061 199.365 112.125C199.914 112.157 200.481 111.966 200.81 111.648C201.005 111.459 201.101 111.237 201.095 110.993C201.078 110.46 200.543 110.059 200.02 109.902C199.579 109.769 199.156 109.715 198.78 109.667C198.187 109.591 197.719 109.531 197.45 109.206C197.333 109.065 197.289 108.897 197.308 108.729C197.326 108.565 197.409 108.401 197.551 108.279C197.843 108.037 198.392 107.924 199.331 107.915C200.038 107.915 201.062 108.025 202.059 108.136C202.971 108.24 203.83 108.334 204.241 108.311C204.75 108.281 205.235 108.055 205.531 107.702C205.676 107.536 205.837 107.262 205.8 106.918C205.706 106.017 204.721 105.759 204.303 105.687C203.956 105.629 203.653 105.592 203.389 105.563C202.691 105.48 202.231 105.424 201.949 105.083C201.696 104.781 201.744 104.352 202.059 104.089C202.364 103.835 202.847 103.715 203.618 103.704C204.206 103.695 204.799 103.752 205.371 103.81C206.08 103.879 206.753 103.946 207.325 103.875C207.972 103.796 208.629 103.28 208.574 102.634C208.514 101.924 207.66 101.675 207.401 101.615Z" fill="white"/>
<path d="M136.406 96.7912C136.425 96.8465 136.487 96.8742 136.542 96.8511C137.286 96.5929 137.913 96.2124 138.586 95.9749C140.68 95.0133 143.199 96.6736 145.167 95.2047C145.252 95.1471 145.192 95.0041 145.094 95.0249C144.331 95.1425 143.64 95.1886 142.933 95.0871C142.225 95.0087 141.491 94.7896 140.671 94.7458C139.07 94.6813 137.24 95.4238 136.406 96.7912Z" fill="#8B1D41"/>
<path d="M130.766 97.7547C131.524 97.8424 132.314 97.704 133.028 97.3858C134.399 96.8001 135.38 95.6056 136.679 95.013C137.295 94.7386 137.956 94.5933 138.684 94.3812C138.781 94.3604 138.785 94.2128 138.689 94.1852C136.238 93.3988 134.516 95.5733 132.681 96.6917C132.084 97.0376 131.439 97.2866 130.743 97.5587C130.644 97.591 130.663 97.7455 130.766 97.7547Z" fill="#8B1D41"/>
<path d="M304.198 27.3989H0.769308C0.344467 27.3989 0 27.2537 0 27.0738C0 26.8939 0.344467 26.7487 0.769308 26.7487H304.198C304.623 26.7487 304.967 26.8939 304.967 27.0738C304.967 27.2537 304.623 27.3989 304.198 27.3989Z" fill="#8B1D41"/>
<path d="M177.246 42.4911H183.575V78.5718H192.529V42.4911H198.858V33.5004H177.246V42.4911Z" fill="#8B1D41"/>
<path d="M228.383 45.2859C228.383 36.2767 223.198 33.5834 216.848 33.5834C212.538 33.5834 206.393 33.5834 206.393 33.5834V33.5949H203.221V78.611H212.175V60.2121C212.772 60.2121 213.525 60.2121 214.444 60.2121C216.936 60.2582 218.428 61.7202 218.428 64.3213V78.5442H227.382C227.382 78.5442 227.382 68.269 227.382 63.9408C227.382 59.525 225.375 57.1637 222.275 56.2805C226.268 55.1183 228.383 50.7717 228.383 45.2859ZM219.468 47.91C219.468 51.0092 217.928 52.3628 215.376 52.3628H212.175V41.2736H215.376C217.96 41.2736 219.459 42.807 219.471 45.3597C219.471 45.4266 219.468 46.3743 219.468 47.91Z" fill="#8B1D41"/>
<path d="M293.462 46.2889C293.462 44.2712 295.147 42.491 298.521 42.491H300.953V33.5002H296.783C289.461 33.5002 284.689 38.8315 284.689 45.7493C284.689 56.1259 296.1 59.6401 296.1 64.9368C296.1 68.6125 292.924 69.4772 288.35 69.4956H286.233V78.4864H290.881C301.591 78.4864 304.875 71.4764 304.875 65.0982C304.875 54.6663 293.462 51.9637 293.462 46.2889Z" fill="#8B1D41"/>
<path d="M260.217 78.4887V78.5717L281.828 78.4887V69.4956H269.17V58.8677H274.494L279.013 63.6432V50.3819L274.578 54.6017H269.17V42.491H281.828V33.5002H260.217V78.4887Z" fill="#8B1D41"/>
<path d="M233.208 78.4887V78.5717L254.82 78.4887V69.4956H242.164V58.8677H247.487L252.007 63.6432V50.3819L247.572 54.6017H242.164V42.491H254.82V33.5002H233.208V78.4887Z" fill="#8B1D41"/>
<path d="M216.299 56.7693C221.48 55.7409 224.383 52.2128 224.383 46.7432C224.383 40.4711 220.598 37.6625 216.846 37.6625H207.589C207.41 37.6625 207.265 37.8077 207.265 37.9876V51.9338L206.023 56.5779C206.009 56.6287 206.009 56.684 206.02 56.737L207.263 62.0614C207.263 62.0637 207.265 62.066 207.265 62.0683V78.6156H207.913V61.9784L209.07 57.0875H212.193C221.606 57.0875 222.814 61.6117 222.814 65.5549V78.5464H223.462V65.5549C223.462 60.4888 221.218 57.6802 216.299 56.7693ZM208.404 57.0829L207.913 59.1629L207.58 60.5672L207.265 59.2182L206.668 56.6632L207.265 54.4357L207.586 53.2367L207.913 54.4565L208.443 56.435L208.505 56.6656L208.404 57.0829ZM207.913 51.9499V38.3104H216.846C221.604 38.3104 223.735 42.5441 223.735 46.7409C223.735 52.9899 219.886 56.4327 212.898 56.4327H212.191H209.111L207.913 51.9499Z" fill="white"/>
<path d="M254.82 38.3107V37.6604H237.507C237.328 37.6604 237.183 37.8057 237.183 37.9855V51.9686L235.95 56.5758C235.936 56.6266 235.936 56.6819 235.948 56.735L237.183 62.027V74.0178C237.183 74.1977 237.328 74.343 237.507 74.343H254.82V73.6927H237.831V62.0155L239.022 56.9748H252.004V56.3245H239.011L237.831 51.9133V38.3107H254.82ZM238.432 56.6658L237.831 59.2046L237.507 60.5697L237.183 59.1792L236.595 56.6658L237.183 54.4752L237.514 53.2392L237.831 54.4221L238.432 56.6658Z" fill="white"/>
<path d="M281.828 38.3107V37.6604H264.869C264.69 37.6604 264.545 37.8057 264.545 37.9855V51.9755L263.314 56.5758C263.301 56.6266 263.301 56.6819 263.312 56.735L264.545 62.0201V74.0178C264.545 74.1977 264.69 74.343 264.869 74.343H281.828V73.6927H265.193V62.0224L266.387 56.9748H279.013V56.3245H266.375L265.193 51.9064V38.3107H281.828ZM265.795 56.6658L265.193 59.2115L264.871 60.5697L264.545 59.1723L263.96 56.6658L264.545 54.4798L264.878 53.2369L265.193 54.4129L265.795 56.6658Z" fill="white"/>
<path d="M298.686 58.9048L296.633 55.0078C296.606 54.9571 296.567 54.9133 296.516 54.8833L292.651 52.4898C292.644 52.4851 292.637 52.4852 292.631 52.4805C290.954 50.562 289.716 48.4544 289.716 45.5881C289.716 41.1677 292.435 38.3107 296.642 38.3107H300.955V37.6604H296.642C292.043 37.6604 289.069 40.7734 289.069 45.5881C289.069 48.7011 290.463 50.9978 292.245 53.0178L294.176 56.9609C294.201 57.014 294.243 57.0601 294.291 57.0901L298.466 59.7857C298.486 59.7995 298.507 59.8064 298.53 59.8157C299.648 61.4759 300.409 63.3829 300.409 65.7672C300.409 70.7757 296.766 73.7665 290.667 73.7665H286.233V74.4167H290.667C295.689 74.4167 301.056 72.1454 301.056 65.7672C301.054 62.9425 300.071 60.7749 298.686 58.9048ZM297.375 58.3099L294.716 56.592L293.733 54.5858L293.267 53.6358L294.406 54.3414L296.103 55.3906L296.796 56.7096L297.775 58.5682L297.375 58.3099Z" fill="white"/>
<path d="M198.858 38.329V37.6603H177.246V38.329H187.727V51.7564L186.443 56.5527C186.43 56.6057 186.427 56.661 186.441 56.7164L187.72 62.1929C187.722 62.1999 187.725 62.2045 187.727 62.2114V78.5742H188.393V62.0869L189.663 56.7187C189.677 56.6633 189.674 56.608 189.661 56.555L188.393 51.8163V38.3336H198.858V38.329ZM188.997 56.6426L188.393 59.1906L188.046 60.6572L187.727 59.2921L187.109 56.6426L187.727 54.3321L188.053 53.1168L188.393 54.3897L188.997 56.6426Z" fill="white"/>
<path d="M0.0942383 42.4634H6.42093V78.5441H15.377V42.4634H21.706V33.4727H0.0942383V42.4634Z" fill="#8B1D41"/>
<path d="M106.139 42.4634H112.468V78.5441H121.422V42.4634H127.751V33.4727H106.139V42.4634Z" fill="#8B1D41"/>
<path d="M94.3102 46.2638C94.3102 44.2462 95.9958 42.466 99.3693 42.466H101.801V33.4752H97.6309C90.3098 33.4752 85.5378 38.8065 85.5378 45.7243C85.5378 56.1009 96.9488 59.6151 96.9488 64.9118C96.9488 68.5874 93.7729 69.4522 89.1984 69.4706H87.0811V78.4614H91.729C102.44 78.4614 105.724 71.4514 105.724 65.0732C105.721 54.6412 94.3102 51.9387 94.3102 46.2638Z" fill="#8B1D41"/>
<path d="M39.685 33.4727H37.1887C30.4694 33.4727 24.9717 38.3912 24.9717 44.4004V67.6141C24.9717 73.6256 30.4694 78.5418 37.1887 78.5418H39.685C46.4043 78.5418 51.902 73.6233 51.902 67.6141V44.4027C51.8997 38.3912 46.4021 33.4727 39.685 33.4727ZM43.0171 65.7348C43.0171 67.8977 40.9549 69.6687 38.4357 69.6687C35.9165 69.6687 33.8543 67.8977 33.8543 65.7348V46.2843C33.8543 44.1214 35.9165 42.3504 38.4357 42.3504C40.9549 42.3504 43.0171 44.1214 43.0171 46.2843V65.7348Z" fill="#8B1D41"/>
<path d="M71.222 33.4727H67.5845C61.2279 33.4727 56.0747 38.6471 56.0747 45.0299V78.5441H64.8218V67.7202H73.9869V78.5441H82.7341V45.0299C82.7318 38.6471 77.5786 33.4727 71.222 33.4727ZM64.8195 63.5418V46.3535C64.8195 44.179 66.8817 42.3989 69.4009 42.3989C71.9201 42.3989 73.9823 44.179 73.9823 46.3535V63.5418H64.8195Z" fill="#8B1D41"/>
<path d="M21.706 38.3036V37.6349H0.0942383V38.3036H10.5752V51.731L9.29148 56.5273C9.2777 56.5803 9.2754 56.6356 9.28918 56.691L10.5683 62.1675C10.5706 62.1745 10.5729 62.1791 10.5752 62.186V78.5488H11.2411V62.0615L12.5111 56.6933C12.5249 56.638 12.5226 56.5826 12.5088 56.5296L11.2411 51.7909V38.3082H21.706V38.3036ZM11.8428 56.6172L11.2389 59.1652L10.8921 60.6318L10.5729 59.2667L9.95515 56.6172L10.5729 54.3067L10.899 53.0915L11.2389 54.3643L11.8428 56.6172Z" fill="white"/>
<path d="M127.751 38.3036V37.6349H106.139V38.3036H116.62V51.731L115.336 56.5273C115.323 56.5803 115.32 56.6356 115.334 56.691L116.613 62.1675C116.616 62.1745 116.618 62.1791 116.62 62.186V78.5488H117.286V62.0615L118.556 56.6933C118.57 56.638 118.567 56.5826 118.554 56.5296L117.286 51.7909V38.3082H127.751V38.3036ZM117.888 56.6172L117.284 59.1652L116.937 60.6318L116.618 59.2667L116 56.6172L116.618 54.3067L116.944 53.0915L117.284 54.3643L117.888 56.6172Z" fill="white"/>
<path d="M99.5324 58.8357L97.4794 54.9387C97.4519 54.888 97.4128 54.8442 97.3623 54.8142L93.4974 52.4207C93.4905 52.4161 93.4836 52.4161 93.4767 52.4114C91.8003 50.4929 90.5626 48.3853 90.5626 45.5191C90.5626 41.0986 93.2815 38.2416 97.4886 38.2416H101.801V37.5913H97.4886C92.8889 37.5913 89.915 40.7043 89.915 45.5191C89.915 48.632 91.3089 50.9287 93.0909 52.9487L95.0222 56.8918C95.0475 56.9449 95.0888 56.991 95.1371 57.021L99.312 59.7166C99.3327 59.7304 99.3533 59.7373 99.3763 59.7466C100.495 61.4068 101.255 63.3138 101.255 65.6981C101.255 70.7066 97.6126 73.6974 91.5133 73.6974H87.0789V74.3476H91.5133C96.5356 74.3476 101.902 72.0763 101.902 65.6981C101.902 62.8734 100.919 60.7035 99.5324 58.8357ZM98.2235 58.2385L95.5642 56.5206L94.5813 54.5144L94.1151 53.5644L95.2542 54.27L96.9512 55.3192L97.6448 56.6382L98.6231 58.4968L98.2235 58.2385Z" fill="white"/>
<path d="M49.4356 56.5159L48.168 51.775V46.4575C48.168 41.403 43.7749 37.2915 38.3783 37.2915C32.9793 37.2915 28.5885 41.403 28.5885 46.4575V51.8372L27.337 56.5159C27.3232 56.569 27.3209 56.6243 27.3347 56.6797L28.5885 62.0548V65.7904C28.5885 70.8449 32.9816 74.9564 38.3783 74.9564C43.7772 74.9564 48.168 70.8449 48.168 65.7904V62.0525L49.4379 56.682C49.4517 56.6243 49.4517 56.569 49.4356 56.5159ZM28.5863 59.1216L27.9984 56.6059L28.5863 54.4129L28.9422 53.0801L29.2683 54.3023L29.886 56.6059L29.2683 59.2116L28.9353 60.6205L28.5863 59.1216ZM47.4836 65.788C47.4836 70.4644 43.3983 74.2692 38.3783 74.2692C33.3583 74.2692 29.2706 70.4644 29.2706 65.788V62.1055L30.5543 56.6797C30.5681 56.6243 30.5658 56.569 30.552 56.5159L29.2706 51.7266V46.4575C29.2706 41.7811 33.356 37.9764 38.3783 37.9764C43.4006 37.9764 47.4836 41.7811 47.4836 46.4575V51.7888L46.2183 56.5159C46.2045 56.569 46.2022 56.6243 46.216 56.6797L47.4836 62.1101V65.788ZM48.168 59.1585L47.8212 60.6228L47.4836 59.177L46.8843 56.6059L47.4836 54.3645L47.8281 53.0801L48.168 54.3507L48.772 56.6059L48.168 59.1585Z" fill="white"/>
<path d="M80.5408 65.5275L79.2732 60.7865V46.4806C79.2732 41.426 74.8801 37.3146 69.4835 37.3146C64.0846 37.3146 59.6938 41.426 59.6938 46.4806V60.8488L58.4422 65.5275C58.4284 65.5805 58.4261 65.6359 58.4399 65.6912L59.6938 71.0663V78.6389H60.3781V71.1193L61.6136 65.7097C61.6274 65.6497 61.6274 65.5851 61.6113 65.5252L60.3781 60.7381V46.4806C60.3781 41.8042 64.4635 37.9994 69.4858 37.9994C74.5081 37.9994 78.5912 41.8042 78.5912 46.4806V60.8004L77.3281 65.5529C77.3166 65.6013 77.3189 65.652 77.3281 65.7004L78.5912 71.1193V78.6343H79.2755V71.0594L80.5454 65.6889C80.5569 65.6382 80.5546 65.5828 80.5408 65.5275ZM60.9913 65.6197L60.3735 68.2254L60.0405 69.6343L59.6892 68.1332L59.1013 65.6174L59.6892 63.4245L60.0451 62.0917L60.3712 63.3138L60.9913 65.6197ZM79.2732 68.1724L78.9265 69.6366L78.5889 68.1908L77.9895 65.6197L78.5889 63.3784L78.9333 62.094L79.2732 63.3645L79.8772 65.6197L79.2732 68.1724Z" fill="white"/>
<path d="M145.243 17.608L145.247 17.8709V18.9731V19.0008V20.2782L145.243 20.5411V20.5503V20.555V20.5734V20.5803C145.243 20.5872 145.243 20.5965 145.241 20.6057C145.241 20.6057 145.241 20.6103 145.238 20.6126C145.238 20.6218 145.236 20.6334 145.234 20.6449C145.234 20.6449 145.234 20.6472 145.231 20.6495C145.229 20.6633 145.222 20.6749 145.22 20.6864C145.218 20.6887 145.215 20.6933 145.215 20.6956C145.211 20.7048 145.206 20.7095 145.199 20.7187C145.195 20.721 145.192 20.7256 145.19 20.7279C145.183 20.7348 145.174 20.7371 145.169 20.7417C145.167 20.744 145.162 20.7487 145.158 20.7487C145.146 20.7533 145.133 20.7579 145.114 20.7579C144.979 20.7579 144.965 20.6287 144.933 20.5457C144.903 20.4719 144.836 20.3866 144.708 20.3336C144.604 20.2921 144.393 20.2806 144.246 20.2782H138.98L138.978 1.48962C138.976 1.34204 138.964 1.13221 138.921 1.02613C138.87 0.894696 138.783 0.830131 138.709 0.800154C138.624 0.767871 138.5 0.751729 138.5 0.613374C138.5 0.599539 138.503 0.585703 138.51 0.574173C138.512 0.569561 138.512 0.567256 138.514 0.562644C138.519 0.55342 138.523 0.548808 138.53 0.54189C138.533 0.537279 138.537 0.534972 138.54 0.532667C138.546 0.525749 138.553 0.521137 138.562 0.516525C138.565 0.514219 138.569 0.511914 138.572 0.511914C138.581 0.504996 138.597 0.500384 138.606 0.498078C138.608 0.498078 138.611 0.498078 138.611 0.495772C138.622 0.493466 138.631 0.49116 138.641 0.488854C138.645 0.486549 138.647 0.486549 138.652 0.486549C138.659 0.486549 138.668 0.484242 138.675 0.484242H138.684H138.7H138.705H138.712L138.976 0.481937H140.074H140.347H141.619C141.621 0.481937 141.881 0.484242 141.881 0.484242H141.89H141.892H141.911H141.92C141.927 0.484242 141.934 0.486549 141.941 0.486549C141.945 0.486549 141.95 0.486549 141.952 0.488854C141.964 0.49116 141.975 0.493466 141.984 0.495772C141.986 0.498078 141.989 0.498078 141.989 0.498078C142.003 0.500384 142.014 0.504996 142.026 0.511914C142.03 0.511914 142.032 0.514219 142.037 0.516525C142.044 0.521137 142.051 0.525749 142.058 0.532667C142.062 0.534972 142.065 0.537279 142.067 0.54189C142.071 0.548808 142.076 0.55342 142.083 0.562644C142.085 0.567256 142.088 0.569561 142.088 0.574173C142.092 0.585703 142.099 0.599539 142.099 0.613374C142.099 0.751729 141.968 0.765565 141.885 0.800154C141.814 0.830131 141.729 0.894696 141.676 1.02613C141.635 1.13221 141.624 1.34204 141.619 1.48962V3.28824V3.57187V17.8801L144.26 17.8778C144.405 17.8755 144.616 17.8616 144.722 17.8224C144.85 17.7694 144.914 17.6841 144.947 17.6103C144.979 17.525 144.995 17.3958 145.128 17.3958C145.146 17.3958 145.158 17.4028 145.172 17.4051C145.176 17.4074 145.181 17.4097 145.183 17.412C145.19 17.4166 145.197 17.4212 145.204 17.4258C145.206 17.4281 145.208 17.4327 145.213 17.435C145.218 17.442 145.224 17.4489 145.229 17.4558C145.231 17.4604 145.234 17.4627 145.234 17.465C145.238 17.4766 145.243 17.4881 145.245 17.5019C145.247 17.5042 145.247 17.5065 145.247 17.5065C145.25 17.5181 145.252 17.5273 145.252 17.5388C145.254 17.5411 145.254 17.548 145.254 17.548C145.257 17.5573 145.257 17.5619 145.257 17.5688V17.578V17.5942V17.5988V17.608H145.243ZM133.96 0.207532V0.202921V0.184473V0.177556C133.96 0.168332 133.958 0.161414 133.958 0.154496C133.958 0.154496 133.958 0.147579 133.956 0.142967C133.956 0.131437 133.954 0.124519 133.951 0.110684C133.951 0.110684 133.951 0.108378 133.949 0.106072C133.947 0.0945424 133.942 0.0830125 133.937 0.0714829C133.935 0.0668711 133.935 0.0645658 133.933 0.0622599C133.928 0.0553421 133.924 0.0461184 133.919 0.0415066C133.914 0.0368948 133.91 0.0345886 133.91 0.0322827C133.903 0.025365 133.896 0.0207532 133.889 0.0161414C133.887 0.0138354 133.882 0.0115298 133.878 0.00922388C133.866 0.00230613 133.852 0 133.836 0C133.703 0 133.685 0.129131 133.653 0.21445C133.623 0.28824 133.559 0.373558 133.428 0.426595C133.322 0.468101 133.113 0.479631 132.968 0.481937H127.797V0.479631H127.418V20.2529L132.966 20.2575C133.111 20.2598 133.322 20.2736 133.428 20.3128C133.559 20.3659 133.623 20.4512 133.653 20.525C133.685 20.6103 133.703 20.7371 133.836 20.7371C133.852 20.7371 133.864 20.7348 133.878 20.7279C133.882 20.7279 133.887 20.7233 133.889 20.721C133.896 20.7187 133.903 20.7141 133.908 20.7071C133.912 20.7025 133.915 20.7002 133.917 20.6979C133.924 20.6887 133.928 20.6841 133.933 20.6749C133.935 20.6703 133.937 20.6679 133.94 20.6656C133.944 20.6541 133.947 20.6426 133.951 20.6311C133.951 20.6287 133.951 20.6264 133.951 20.6264C133.954 20.6126 133.956 20.6034 133.956 20.5942C133.958 20.5895 133.958 20.5872 133.958 20.5849C133.96 20.5757 133.96 20.5688 133.96 20.5619V20.555V20.5388V20.5342V20.525L133.963 20.2621V18.9846V18.957V17.8547L133.96 17.5919V17.5826V17.578V17.5596V17.5503C133.96 17.5457 133.96 17.5365 133.958 17.5296C133.958 17.5296 133.958 17.5227 133.956 17.5204C133.956 17.5088 133.954 17.4973 133.951 17.4904C133.951 17.4904 133.951 17.4858 133.951 17.4835C133.947 17.4719 133.944 17.4604 133.94 17.4489C133.937 17.4443 133.935 17.442 133.933 17.4397C133.928 17.4304 133.924 17.4235 133.917 17.4189C133.915 17.4143 133.912 17.412 133.908 17.4074C133.903 17.4005 133.896 17.3982 133.889 17.3912C133.885 17.3889 133.88 17.3866 133.878 17.3866C133.866 17.382 133.852 17.3751 133.836 17.3751C133.703 17.3751 133.685 17.5042 133.653 17.5895C133.623 17.6633 133.556 17.7487 133.428 17.8017C133.322 17.8432 133.113 17.8547 132.966 17.857H130.047V17.2782H130.052V11.2736L132.527 11.2759C132.672 11.2806 132.883 11.2898 132.987 11.3313C133.118 11.382 133.182 11.4696 133.212 11.5434C133.246 11.6287 133.262 11.7579 133.396 11.7579C133.412 11.7579 133.425 11.751 133.439 11.7463C133.441 11.744 133.446 11.7417 133.448 11.7394C133.455 11.7348 133.462 11.7302 133.467 11.7233C133.471 11.721 133.474 11.7187 133.478 11.7164C133.483 11.7071 133.487 11.7002 133.49 11.6933C133.492 11.691 133.497 11.6864 133.497 11.6841C133.501 11.6726 133.506 11.6633 133.508 11.6495C133.508 11.6495 133.508 11.6449 133.51 11.6449C133.513 11.6334 133.513 11.6241 133.517 11.6126V11.6011C133.517 11.5965 133.52 11.5872 133.52 11.578V11.5734V11.555V11.5527V11.5434L133.522 11.2806V10.0054V9.9754V8.87087L133.52 8.60799V8.60108V8.59646V8.57802V8.5711C133.52 8.56187 133.517 8.55496 133.517 8.55035V8.53882C133.515 8.52959 133.515 8.52037 133.51 8.50884C133.508 8.50884 133.508 8.50653 133.508 8.50653C133.506 8.4927 133.499 8.47886 133.497 8.46964C133.494 8.46733 133.492 8.46272 133.49 8.46272C133.487 8.4535 133.483 8.44658 133.478 8.43966C133.474 8.43736 133.471 8.43505 133.467 8.43044C133.462 8.42352 133.455 8.41891 133.448 8.4143C133.444 8.41199 133.439 8.40968 133.439 8.40968C133.425 8.40507 133.412 8.40046 133.396 8.40046C133.262 8.40046 133.246 8.52959 133.212 8.61261C133.184 8.68639 133.118 8.77402 132.987 8.82475C132.883 8.86395 132.672 8.87779 132.527 8.88009L130.052 8.8824V2.88009L132.968 2.8824C133.113 2.88701 133.322 2.89623 133.428 2.94005C133.559 2.99308 133.623 3.08071 133.653 3.15219C133.685 3.2352 133.703 3.36433 133.836 3.36433C133.85 3.36433 133.864 3.35972 133.878 3.35511C133.885 3.35281 133.887 3.3505 133.889 3.34819C133.896 3.34358 133.903 3.33897 133.91 3.33205C133.912 3.32744 133.914 3.32513 133.919 3.32283C133.924 3.31591 133.928 3.30899 133.933 3.29977C133.935 3.29746 133.935 3.29516 133.937 3.29285C133.942 3.28132 133.947 3.26979 133.949 3.25596C133.951 3.25365 133.951 3.25365 133.951 3.25365C133.954 3.24212 133.956 3.23059 133.956 3.22137C133.958 3.21445 133.958 3.21445 133.958 3.20753C133.958 3.20061 133.96 3.1937 133.96 3.18678V3.17756V3.16602V3.1568L133.958 3.14988L133.963 2.8847V1.60723V1.58186V0.477325L133.958 0.21445L133.96 0.207532ZM95.5594 20.1491C95.5594 20.163 95.5571 20.1768 95.5502 20.1883C95.5479 20.1952 95.5456 20.1975 95.5456 20.1998C95.541 20.2068 95.5364 20.216 95.5318 20.2206C95.5272 20.2229 95.5249 20.2252 95.5203 20.2275C95.5134 20.2344 95.5066 20.239 95.4997 20.2437C95.4974 20.246 95.4928 20.2483 95.4905 20.2483C95.479 20.2529 95.4675 20.2575 95.456 20.2598C95.4537 20.2598 95.4514 20.2598 95.4492 20.2598C95.44 20.2621 95.4285 20.2644 95.417 20.2644C95.4147 20.2644 95.4124 20.2667 95.4078 20.2667C95.3986 20.2667 95.3917 20.269 95.3848 20.269H95.378H95.3596H95.355C95.3527 20.269 95.3481 20.2667 95.3481 20.2667L95.0863 20.2713H93.9863H93.7153H92.4431L92.1813 20.2667C92.1813 20.2667 92.1767 20.269 92.1721 20.269H92.1698H92.1515H92.1446C92.1377 20.269 92.1308 20.2667 92.1239 20.2667C92.1216 20.2644 92.117 20.2644 92.1124 20.2644C92.1009 20.2644 92.0894 20.2621 92.0803 20.2598C92.078 20.2598 92.0757 20.2598 92.0757 20.2598C92.0642 20.2575 92.0527 20.2529 92.0412 20.2483C92.0389 20.2483 92.0343 20.246 92.032 20.2437C92.0252 20.239 92.0183 20.2344 92.0091 20.2275C92.0068 20.2252 92.0045 20.2229 91.9999 20.2206C91.9953 20.2137 91.9907 20.2045 91.9861 20.1998C91.9861 20.1975 91.9815 20.1952 91.9815 20.1883C91.9769 20.1745 91.9723 20.163 91.9723 20.1491C91.9723 20.0108 92.1009 19.9969 92.1836 19.9623C92.2571 19.9324 92.3421 19.8655 92.3949 19.7364C92.4362 19.6326 92.4477 19.4204 92.4523 19.2752V17.4789V17.1906V13.0146H89.4348V14.0822H89.4325V19.2752C89.4371 19.4204 89.4463 19.6326 89.4876 19.7364C89.5381 19.8678 89.6254 19.9324 89.6989 19.9623C89.7815 19.9946 89.9078 20.0108 89.9078 20.1491C89.9078 20.163 89.9055 20.1768 89.9009 20.1883C89.8986 20.1952 89.8964 20.1975 89.8941 20.1998C89.8895 20.2068 89.8872 20.216 89.8803 20.2206C89.8757 20.2229 89.8734 20.2252 89.8688 20.2275C89.8596 20.2344 89.855 20.239 89.8458 20.2437C89.8412 20.246 89.8389 20.2483 89.8367 20.2483C89.8252 20.2529 89.8137 20.2575 89.8022 20.2598C89.7976 20.2598 89.7976 20.2598 89.7953 20.2598C89.7861 20.2621 89.7746 20.2644 89.7655 20.2644C89.7609 20.2644 89.7563 20.2667 89.754 20.2667C89.7471 20.2667 89.7379 20.269 89.731 20.269H89.7218H89.7058H89.7012C89.6966 20.269 89.692 20.2667 89.692 20.2667L89.4302 20.2713H88.3302H88.0569H86.7847L86.5252 20.2667C86.5252 20.2667 86.5206 20.269 86.516 20.269H86.5114H86.493H86.4838C86.4793 20.269 86.4724 20.2667 86.4609 20.2667C86.4563 20.2644 86.4563 20.2644 86.4517 20.2644C86.4402 20.2644 86.431 20.2621 86.4218 20.2598C86.4196 20.2598 86.4172 20.2598 86.415 20.2598C86.4035 20.2575 86.392 20.2529 86.3805 20.2483C86.3782 20.2483 86.3736 20.246 86.3713 20.2437C86.3644 20.239 86.3553 20.2344 86.3507 20.2275C86.3484 20.2252 86.3438 20.2229 86.3438 20.2206C86.3369 20.2137 86.3323 20.2045 86.3277 20.1998C86.3231 20.1975 86.3208 20.1952 86.3185 20.1883C86.3139 20.1745 86.3093 20.163 86.3093 20.1491C86.3093 20.0108 86.4379 19.9969 86.5229 19.9623C86.5941 19.9324 86.679 19.8655 86.7319 19.7364C86.7732 19.6326 86.7847 19.4204 86.7893 19.2752L86.7916 3.87164C86.7916 1.61184 87.841 0.484242 89.9469 0.484242H91.9195C94.0231 0.484242 95.0725 1.61184 95.0725 3.87164V19.2752C95.0771 19.4204 95.0886 19.6326 95.1299 19.7364C95.1805 19.8678 95.2677 19.9324 95.3412 19.9623C95.4331 19.9969 95.5594 20.0131 95.5594 20.1491ZM92.45 4.03536C92.45 3.26518 92.0665 2.87779 91.2972 2.87779H90.5853C89.8183 2.87779 89.4325 3.26518 89.4325 4.03536V10.6188H92.45V4.03536ZM157.933 17.7556V17.751V17.7348V17.7279C157.931 17.7187 157.931 17.7095 157.931 17.7025V17.691C157.928 17.6818 157.926 17.6726 157.926 17.661C157.924 17.6587 157.924 17.6564 157.924 17.6564C157.921 17.6426 157.919 17.6311 157.912 17.6195C157.91 17.6172 157.908 17.6126 157.905 17.6103C157.901 17.6034 157.896 17.5965 157.889 17.5872C157.887 17.5849 157.885 17.5826 157.882 17.578C157.876 17.5734 157.869 17.5665 157.862 17.5619C157.859 17.5596 157.855 17.555 157.85 17.555C157.839 17.5503 157.823 17.548 157.809 17.548C157.676 17.548 157.66 17.6772 157.625 17.7602C157.593 17.8363 157.531 17.9193 157.4 17.9723C157.297 18.0161 157.086 18.0254 156.941 18.03H155.728H151.772H150.561C150.417 18.0254 150.208 18.0161 150.102 17.9723C149.969 17.9216 149.905 17.8363 149.877 17.7602C149.845 17.6772 149.827 17.548 149.696 17.548C149.68 17.548 149.663 17.5503 149.652 17.555C149.65 17.555 149.645 17.5596 149.641 17.5619C149.636 17.5665 149.629 17.5734 149.622 17.578C149.618 17.5826 149.615 17.5849 149.613 17.5872C149.606 17.5965 149.601 17.6034 149.599 17.6103C149.595 17.6126 149.595 17.6172 149.592 17.6195C149.588 17.6311 149.585 17.6403 149.578 17.6541V17.6564C149.576 17.6702 149.574 17.6795 149.574 17.6887V17.6979C149.574 17.7071 149.572 17.7164 149.572 17.7233V17.7302V17.7417V17.7487V17.7579L149.569 18.0208V18.9938V19.1253V20.2736L149.572 20.5342V20.5434V20.555V20.5711V20.578C149.572 20.5849 149.574 20.5919 149.574 20.6011V20.6103C149.574 20.6195 149.576 20.6311 149.578 20.6403V20.6472C149.585 20.6587 149.588 20.6703 149.592 20.6818C149.595 20.6864 149.595 20.6887 149.599 20.691C149.604 20.7002 149.606 20.7048 149.613 20.7118C149.615 20.7164 149.618 20.7187 149.622 20.721C149.627 20.7279 149.636 20.7325 149.641 20.7371C149.647 20.7394 149.65 20.7417 149.652 20.744C149.666 20.7487 149.68 20.751 149.696 20.751C149.829 20.751 149.845 20.6218 149.877 20.5388C149.905 20.465 149.971 20.3797 150.102 20.3267C150.208 20.2852 150.417 20.2736 150.561 20.2713H151.772H152.35H152.635H154.867H155.154H155.731H156.943C157.088 20.2736 157.299 20.2852 157.402 20.3267C157.533 20.3797 157.595 20.465 157.628 20.5388C157.66 20.6218 157.678 20.751 157.811 20.751C157.825 20.751 157.841 20.7487 157.853 20.744C157.857 20.7417 157.862 20.7394 157.864 20.7371C157.871 20.7325 157.878 20.7256 157.885 20.721C157.887 20.7187 157.889 20.7164 157.892 20.7118C157.898 20.7025 157.903 20.6979 157.908 20.691C157.91 20.6864 157.912 20.6841 157.915 20.6818C157.919 20.6703 157.924 20.6587 157.926 20.6472C157.926 20.6472 157.926 20.6426 157.928 20.6403C157.931 20.6287 157.931 20.6195 157.933 20.6103V20.6034C157.935 20.5919 157.935 20.5849 157.935 20.578V20.5711V20.5573V20.5503C157.933 20.5457 157.933 20.5411 157.933 20.5411L157.935 20.2806V19.1322V19.0008V18.0277L157.933 17.7648C157.931 17.7648 157.931 17.7602 157.933 17.7556ZM108.702 1.01922C108.755 0.887778 108.84 0.825518 108.913 0.793236C108.996 0.758647 109.124 0.744811 109.124 0.608762C109.124 0.590315 109.12 0.578786 109.115 0.56495C109.113 0.560338 109.111 0.558032 109.111 0.555726C109.104 0.546503 109.099 0.539585 109.095 0.534973C109.09 0.530361 109.088 0.528055 109.083 0.525749C109.076 0.518831 109.069 0.51422 109.062 0.511914C109.06 0.509608 109.056 0.507302 109.053 0.504996C109.042 0.500384 109.03 0.495772 109.019 0.493466C109.017 0.493466 109.017 0.493467 109.014 0.491161C109.003 0.486549 108.994 0.484242 108.982 0.484242C108.98 0.484242 108.975 0.481937 108.973 0.481937C108.964 0.481937 108.957 0.481937 108.952 0.481937H108.943H108.925H108.92C108.915 0.481937 108.911 0.481937 108.911 0.481937L108.649 0.479631H107.377H107.106H106.004L105.742 0.481937C105.742 0.481937 105.737 0.481937 105.735 0.481937H105.73H105.712H105.703C105.698 0.481937 105.689 0.481937 105.682 0.481937C105.677 0.481937 105.675 0.484242 105.673 0.484242C105.661 0.484242 105.65 0.486549 105.641 0.491161C105.638 0.493467 105.638 0.493466 105.634 0.493466C105.622 0.495772 105.611 0.500384 105.599 0.504996C105.595 0.504996 105.593 0.509608 105.59 0.511914C105.581 0.51422 105.574 0.521137 105.567 0.525749C105.563 0.528055 105.56 0.530361 105.558 0.534973C105.551 0.541891 105.547 0.548809 105.542 0.555726C105.54 0.560338 105.537 0.562644 105.537 0.56495C105.531 0.57648 105.528 0.590315 105.528 0.608762C105.528 0.742506 105.657 0.758647 105.737 0.793236C105.811 0.823213 105.896 0.887778 105.951 1.01922C105.99 1.12529 106.001 1.33513 106.004 1.48271L106.001 10.04L103.353 1.07456C103.326 0.956956 103.344 0.857801 103.42 0.809377C103.422 0.807071 103.425 0.804765 103.427 0.804765C103.432 0.802459 103.436 0.795542 103.443 0.793236C103.445 0.793236 103.452 0.793236 103.455 0.79093C103.537 0.758647 103.652 0.7402 103.652 0.608762C103.652 0.592621 103.647 0.581091 103.643 0.567256C103.641 0.562644 103.638 0.560338 103.636 0.558032C103.631 0.548808 103.627 0.544196 103.62 0.537279C103.615 0.532667 103.615 0.530361 103.611 0.528055C103.606 0.521138 103.597 0.516526 103.588 0.51422C103.585 0.511914 103.583 0.509608 103.579 0.507302C103.569 0.500384 103.556 0.498078 103.544 0.495772C103.542 0.493466 103.539 0.491161 103.537 0.491161C103.528 0.488855 103.517 0.486549 103.507 0.486549H103.496C103.487 0.486549 103.48 0.486549 103.473 0.486549H103.466H103.45H103.443H103.434L103.172 0.481937H101.9H101.627H100.529L100.267 0.486549H100.26H100.256H100.24H100.23C100.223 0.486549 100.217 0.486549 100.207 0.486549H100.196C100.187 0.488855 100.178 0.488855 100.168 0.491161C100.164 0.491161 100.161 0.493466 100.161 0.495772C100.15 0.495772 100.136 0.500384 100.127 0.507302C100.125 0.507302 100.12 0.511914 100.116 0.51422C100.109 0.516526 100.102 0.521138 100.093 0.528055C100.09 0.530361 100.086 0.532667 100.083 0.537279C100.076 0.544196 100.072 0.548808 100.07 0.558032C100.067 0.560338 100.063 0.56495 100.06 0.567256C100.056 0.581091 100.054 0.592621 100.054 0.608762C100.054 0.744811 100.182 0.760953 100.265 0.795542C100.338 0.823213 100.423 0.890085 100.476 1.02152C100.52 1.12759 100.531 1.33743 100.533 1.48501L100.536 17.1929V17.4812V19.2775C100.533 19.4228 100.522 19.6349 100.481 19.7387C100.43 19.8701 100.343 19.9347 100.267 19.9646C100.187 19.9969 100.056 20.0131 100.056 20.1514C100.056 20.1653 100.06 20.1791 100.065 20.1906C100.067 20.1975 100.072 20.1998 100.072 20.2022C100.076 20.2091 100.081 20.2183 100.086 20.2229C100.09 20.2252 100.093 20.2275 100.097 20.2298C100.104 20.2367 100.111 20.2414 100.118 20.246C100.122 20.2483 100.127 20.2506 100.127 20.2506C100.138 20.2552 100.15 20.2598 100.161 20.2621C100.164 20.2644 100.166 20.2644 100.168 20.2644C100.178 20.2667 100.187 20.269 100.196 20.269C100.2 20.269 100.203 20.2713 100.207 20.2713C100.217 20.2713 100.223 20.2736 100.23 20.2736H100.24H100.258H100.26C100.265 20.2736 100.267 20.2713 100.267 20.2713L100.531 20.2759H101.803H102.074H103.174L103.436 20.2713C103.436 20.2713 103.441 20.2736 103.445 20.2736H103.45H103.468H103.477C103.484 20.2736 103.491 20.2713 103.498 20.2713C103.503 20.269 103.505 20.269 103.507 20.269C103.519 20.269 103.528 20.2667 103.539 20.2644C103.542 20.2644 103.544 20.2644 103.544 20.2621C103.556 20.2598 103.569 20.2552 103.581 20.2506C103.583 20.2506 103.585 20.2483 103.59 20.246C103.599 20.2414 103.606 20.2367 103.613 20.2298C103.618 20.2275 103.618 20.2252 103.622 20.2229C103.629 20.216 103.634 20.2068 103.638 20.2022C103.641 20.1998 103.643 20.1975 103.643 20.1906C103.65 20.1768 103.652 20.1653 103.652 20.1514C103.652 20.0131 103.523 19.9992 103.441 19.9646C103.367 19.9347 103.28 19.8678 103.229 19.7387C103.186 19.6349 103.174 19.4228 103.172 19.2775L103.174 7.31668L105.997 16.3236V19.2775C105.992 19.4228 105.983 19.6349 105.939 19.7387C105.889 19.8701 105.801 19.9347 105.728 19.9646C105.648 19.9969 105.519 20.0131 105.519 20.1514C105.519 20.1653 105.524 20.1791 105.528 20.1906C105.531 20.1975 105.533 20.1998 105.535 20.2022C105.54 20.2091 105.547 20.2183 105.549 20.2229C105.553 20.2252 105.556 20.2275 105.558 20.2298C105.565 20.2367 105.572 20.2414 105.579 20.246C105.583 20.2483 105.586 20.2506 105.588 20.2506C105.599 20.2552 105.613 20.2598 105.625 20.2621C105.627 20.2644 105.629 20.2644 105.632 20.2644C105.641 20.2667 105.652 20.269 105.661 20.269C105.666 20.269 105.668 20.2713 105.671 20.2713C105.68 20.2713 105.687 20.2736 105.694 20.2736H105.7H105.719H105.723C105.728 20.2736 105.73 20.2713 105.73 20.2713L105.992 20.2759H107.264H107.538H108.638L108.897 20.2713C108.897 20.2713 108.902 20.2736 108.909 20.2736H108.911H108.929H108.938C108.945 20.2736 108.952 20.2713 108.959 20.2713C108.961 20.269 108.966 20.269 108.971 20.269C108.98 20.269 108.991 20.2667 109 20.2644C109 20.2644 109.005 20.2644 109.007 20.2621C109.021 20.2598 109.03 20.2552 109.042 20.2506C109.044 20.2506 109.046 20.2483 109.051 20.246C109.058 20.2414 109.067 20.2367 109.074 20.2298C109.076 20.2275 109.079 20.2252 109.083 20.2229C109.09 20.216 109.095 20.2068 109.099 20.2022C109.099 20.2022 109.104 20.1975 109.106 20.1906C109.111 20.1768 109.113 20.1653 109.113 20.1514C109.113 20.0131 108.984 19.9992 108.902 19.9646C108.828 19.9347 108.743 19.8678 108.69 19.7387C108.649 19.6349 108.638 19.4228 108.635 19.2775L108.64 1.48501C108.649 1.33513 108.661 1.12529 108.702 1.01922ZM122.409 19.9669C122.336 19.937 122.251 19.8701 122.2 19.7387C122.159 19.6349 122.148 19.4204 122.143 19.2775V10.6372H121.206H120.921H119.132C118.985 10.6326 118.776 10.6211 118.671 10.5796C118.54 10.5288 118.476 10.4412 118.446 10.3674C118.411 10.2844 118.395 10.1553 118.26 10.1553C118.246 10.1553 118.232 10.1599 118.221 10.1622C118.216 10.1645 118.211 10.1668 118.209 10.1691C118.202 10.1737 118.195 10.1806 118.188 10.1852C118.186 10.1899 118.184 10.1899 118.179 10.1945C118.172 10.2014 118.168 10.2083 118.163 10.2152C118.161 10.2198 118.161 10.2221 118.159 10.2221C118.154 10.236 118.149 10.2475 118.147 10.259V10.2659C118.145 10.2752 118.143 10.2867 118.14 10.2959L118.138 10.3075V10.3305V10.3351V10.349V10.3582V10.3651L118.136 10.628V11.9055V11.917V13.0192L118.138 13.2821V13.289V13.2959V13.3144V13.3213V13.3443L118.14 13.3536C118.143 13.3651 118.145 13.3743 118.147 13.3859V13.3905C118.152 13.4043 118.154 13.4158 118.159 13.4251C118.161 13.4297 118.161 13.4343 118.163 13.4366C118.168 13.4435 118.172 13.4527 118.179 13.4573C118.182 13.462 118.184 13.4643 118.188 13.4666C118.195 13.4712 118.202 13.4781 118.209 13.4827C118.211 13.485 118.218 13.4873 118.221 13.4873C118.232 13.4919 118.246 13.4965 118.26 13.4965C118.395 13.4965 118.411 13.3674 118.446 13.2844C118.476 13.2106 118.54 13.1253 118.671 13.0723C118.774 13.0331 118.985 13.0192 119.132 13.0169H119.514V13.5957H119.509V17.8755H117.727C116.958 17.8755 116.574 17.4005 116.574 16.4435V4.32821C116.574 3.37356 116.958 2.89623 117.727 2.89623H118.386C119.135 2.89623 119.511 3.37586 119.511 4.32821V5.10991C119.507 5.25749 119.497 5.46503 119.454 5.5711C119.403 5.70023 119.316 5.7671 119.245 5.79708C119.162 5.83167 119.034 5.84781 119.034 5.98155C119.034 5.99769 119.036 6.01153 119.043 6.02075C119.043 6.02767 119.047 6.02998 119.05 6.03228C119.054 6.0392 119.061 6.04842 119.066 6.05304C119.068 6.05765 119.07 6.05765 119.075 6.06226C119.082 6.06687 119.089 6.07148 119.096 6.07609C119.1 6.0784 119.102 6.08071 119.105 6.08301C119.116 6.08762 119.128 6.09224 119.139 6.09224C119.142 6.09224 119.144 6.09454 119.144 6.09454C119.155 6.09915 119.167 6.09915 119.176 6.10146C119.178 6.10146 119.183 6.10146 119.185 6.10377C119.194 6.10377 119.201 6.10607 119.208 6.10607H119.215H119.231H119.236H119.245L119.507 6.11068H120.779H121.052H122.152L122.412 6.10607H122.423H122.428H122.444H122.448C122.458 6.10607 122.464 6.10377 122.474 6.10377C122.478 6.10146 122.481 6.10146 122.485 6.10146C122.494 6.09915 122.506 6.09915 122.515 6.09454C122.517 6.09454 122.517 6.09224 122.52 6.09224C122.531 6.08993 122.543 6.08532 122.556 6.08301C122.559 6.08071 122.561 6.0784 122.565 6.07609C122.575 6.07148 122.582 6.06457 122.588 6.06226C122.593 6.05995 122.595 6.05765 122.598 6.05304C122.605 6.04612 122.609 6.03689 122.614 6.03228C122.616 6.02767 122.618 6.02536 122.621 6.02075C122.628 6.01153 122.627 5.99769 122.627 5.98155C122.627 5.8455 122.501 5.83167 122.416 5.79708C122.343 5.7671 122.258 5.70023 122.207 5.5711C122.166 5.46503 122.152 5.25749 122.15 5.10991V3.94312C122.15 1.64873 121.034 0.50269 118.804 0.50269H116.994C114.964 0.50269 113.949 1.63259 113.949 3.89008V16.9439C113.949 19.1691 114.964 20.2806 116.994 20.2806H122.159L122.419 20.2782H122.428H122.432H122.451H122.458C122.464 20.2782 122.471 20.2782 122.481 20.2736H122.492C122.501 20.2713 122.513 20.269 122.524 20.269C122.526 20.2667 122.526 20.2667 122.529 20.2667C122.543 20.2644 122.552 20.2598 122.565 20.2552C122.568 20.2529 122.572 20.2506 122.575 20.2506C122.584 20.246 122.591 20.2414 122.598 20.2367C122.6 20.2344 122.605 20.2298 122.607 20.2252C122.614 20.2206 122.618 20.2137 122.623 20.2068C122.625 20.2022 122.627 20.1998 122.63 20.1952C122.634 20.1837 122.639 20.1699 122.639 20.1537C122.621 20.0154 122.492 19.9992 122.409 19.9669ZM157.795 5.5319C157.719 5.50192 157.634 5.43736 157.582 5.30592C157.543 5.20215 157.529 5.00615 157.526 4.85857L157.524 3.89239C157.524 1.6349 156.47 0.504996 154.369 0.504996H152.725C150.621 0.504996 149.569 1.6349 149.569 3.89239V5.54112C149.569 6.05534 149.624 6.47041 149.735 6.79324C149.843 7.11376 150.022 7.37663 150.27 7.57725C150.515 7.78017 150.913 8.0269 151.464 8.31975L153.958 9.72636C154.286 9.92467 154.523 10.093 154.67 10.2198C154.817 10.349 154.89 10.598 154.89 10.9646V11.5619C154.89 12.3321 154.543 12.7194 153.845 12.7194H153.379C152.594 12.7194 152.201 12.3344 152.201 11.5619V11.5434L152.199 11.5411V11.4742C152.203 11.3267 152.215 11.1168 152.254 11.0108C152.307 10.8793 152.392 10.8171 152.465 10.7848C152.55 10.7502 152.679 10.734 152.679 10.598C152.679 10.5819 152.674 10.5703 152.67 10.5565C152.667 10.5519 152.665 10.5473 152.663 10.545C152.658 10.538 152.653 10.5311 152.649 10.5242C152.647 10.5219 152.642 10.5196 152.64 10.515C152.633 10.5081 152.626 10.5058 152.617 10.5012C152.612 10.4988 152.61 10.4965 152.605 10.4965C152.596 10.4896 152.585 10.485 152.571 10.4827H152.566C152.557 10.4804 152.546 10.4781 152.536 10.4781C152.534 10.4758 152.529 10.4758 152.527 10.4758C152.518 10.4735 152.511 10.4735 152.504 10.4735H152.497H152.479H152.477C152.47 10.4735 152.465 10.4758 152.465 10.4758L152.206 10.4712H150.931H150.66H149.56L149.298 10.4758C149.298 10.4758 149.294 10.4735 149.291 10.4735H149.287H149.268H149.259C149.252 10.4735 149.248 10.4758 149.239 10.4758C149.232 10.4758 149.229 10.4758 149.227 10.4781C149.218 10.4781 149.206 10.4804 149.197 10.4827H149.19C149.179 10.485 149.167 10.4896 149.156 10.4965C149.151 10.4988 149.149 10.5012 149.147 10.5012C149.14 10.5058 149.133 10.5081 149.126 10.515C149.124 10.5196 149.119 10.5219 149.115 10.5242C149.108 10.5311 149.105 10.538 149.101 10.545C149.099 10.5496 149.096 10.5519 149.094 10.5565C149.089 10.568 149.087 10.5819 149.087 10.598C149.087 10.734 149.213 10.7479 149.298 10.7848C149.372 10.8148 149.459 10.8793 149.51 11.0108C149.535 11.0776 149.551 11.186 149.558 11.2967H149.56C149.565 11.3428 149.567 11.3866 149.567 11.4304V11.4766C149.567 11.5065 149.569 11.5319 149.569 11.5619V11.6334H149.572C149.618 13.9508 150.665 15.113 152.722 15.113H154.341C156.461 15.113 157.522 14.0015 157.522 11.7809V10.3305C157.522 9.63413 157.455 9.16141 157.329 8.91237C157.2 8.66334 157.021 8.4535 156.792 8.27825C156.564 8.103 156.174 7.86088 155.627 7.54958L153.131 6.20061C152.803 6 152.564 5.83397 152.419 5.70484C152.272 5.57571 152.199 5.51576 152.199 5.14912V4.08147C152.199 3.29285 152.573 2.89854 153.324 2.89854H153.733C154.502 2.89854 154.886 3.29285 154.886 4.08147L154.888 4.84012C154.886 4.98539 154.874 5.19754 154.833 5.30361C154.78 5.43505 154.695 5.49731 154.619 5.52959C154.537 5.56187 154.408 5.57802 154.408 5.71407C154.408 5.73251 154.41 5.74404 154.417 5.75788C154.419 5.76018 154.422 5.76249 154.422 5.7648C154.426 5.77402 154.433 5.78094 154.438 5.78785C154.442 5.79247 154.445 5.79477 154.447 5.79708C154.456 5.804 154.463 5.80861 154.472 5.81091C154.475 5.81322 154.479 5.81553 154.479 5.81553C154.493 5.82244 154.502 5.82475 154.516 5.82705C154.518 5.82936 154.518 5.83167 154.52 5.83167C154.53 5.83397 154.541 5.83628 154.553 5.83628H154.564C154.571 5.83858 154.578 5.83859 154.585 5.83859C154.587 5.83859 154.592 5.84089 154.594 5.84089C154.601 5.84089 154.608 5.84089 154.612 5.83859H154.617H154.624L154.886 5.84089H156.158H156.429H157.529L157.793 5.83859H157.797H157.804C157.809 5.84089 157.816 5.84089 157.82 5.84089C157.823 5.84089 157.827 5.83859 157.83 5.83859C157.837 5.83859 157.843 5.83858 157.853 5.83628H157.862C157.871 5.83397 157.882 5.83167 157.894 5.83167L157.899 5.82936C157.912 5.82475 157.924 5.82244 157.933 5.81553C157.938 5.81322 157.942 5.81091 157.942 5.81091C157.951 5.8063 157.958 5.80169 157.963 5.79477C157.967 5.79247 157.97 5.79016 157.974 5.78555C157.981 5.77863 157.986 5.77171 157.99 5.76249C157.993 5.76018 157.995 5.75788 157.995 5.75788C158.002 5.74174 158.004 5.73021 158.004 5.71176C158.004 5.58032 157.876 5.56649 157.795 5.5319ZM214.267 0.588009C214.262 0.581091 214.26 0.574173 214.253 0.567256C214.251 0.56495 214.246 0.562644 214.244 0.558032C214.237 0.55342 214.232 0.548809 214.223 0.544197C214.219 0.541891 214.216 0.539584 214.214 0.537279C214.203 0.532667 214.193 0.528055 214.18 0.525749H214.175C214.166 0.523443 214.154 0.521138 214.145 0.518832C214.141 0.518832 214.138 0.516525 214.134 0.516525C214.127 0.514219 214.118 0.51422 214.111 0.51422H214.102H214.085H214.081H214.072L213.808 0.511914H212.538H212.264H211.167L210.903 0.51422H210.896H210.891H210.873H210.866C210.859 0.51422 210.852 0.514219 210.843 0.516525C210.838 0.516525 210.836 0.518832 210.831 0.518832C210.822 0.521138 210.813 0.523443 210.802 0.525749H210.795C210.783 0.528055 210.772 0.532667 210.763 0.537279C210.76 0.539584 210.756 0.541891 210.753 0.544197C210.746 0.548809 210.74 0.55342 210.73 0.558032C210.728 0.562644 210.726 0.56495 210.721 0.567256C210.714 0.574173 210.71 0.581091 210.705 0.588009C210.701 0.592621 210.701 0.594927 210.696 0.599538C210.694 0.611068 210.689 0.624904 210.689 0.641045C210.689 0.774788 210.815 0.79093 210.9 0.825518C210.965 0.850883 211.05 0.871637 211.073 0.961568C211.096 1.06533 211.063 1.16449 211.061 1.17832C211.001 1.43659 209.419 9.09685 209.419 9.09685H209.336C209.336 9.09685 207.538 1.30976 207.508 1.17832C207.504 1.16449 207.474 1.06533 207.495 0.961568C207.518 0.871637 207.603 0.853189 207.667 0.825518C207.752 0.793235 207.878 0.774788 207.878 0.641045C207.878 0.624904 207.876 0.611068 207.869 0.599538C207.867 0.594927 207.864 0.592621 207.862 0.588009C207.858 0.581091 207.855 0.574173 207.848 0.567256C207.844 0.56495 207.841 0.562644 207.839 0.558032C207.832 0.55342 207.823 0.548809 207.816 0.544197C207.812 0.541891 207.809 0.539584 207.807 0.537279C207.796 0.532667 207.784 0.528055 207.773 0.525749H207.766C207.756 0.523443 207.745 0.521138 207.734 0.518832C207.731 0.518832 207.729 0.516525 207.724 0.516525C207.715 0.514219 207.708 0.51422 207.701 0.51422H207.694H207.678H207.674H207.665L207.403 0.511914H206.303H206.03H204.757L204.496 0.51422H204.486H204.479H204.463H204.454C204.45 0.51422 204.44 0.514219 204.434 0.516525C204.429 0.516525 204.427 0.518832 204.424 0.518832C204.413 0.521138 204.404 0.523443 204.392 0.525749H204.388C204.376 0.528055 204.365 0.532667 204.351 0.537279C204.349 0.539584 204.346 0.541891 204.344 0.544197C204.335 0.548809 204.328 0.55342 204.321 0.558032C204.319 0.562644 204.316 0.56495 204.312 0.567256C204.307 0.574173 204.303 0.581091 204.296 0.588009C204.293 0.592621 204.291 0.594927 204.289 0.599538C204.287 0.611068 204.284 0.624904 204.284 0.641045C204.284 0.721752 204.328 0.758647 204.381 0.784012C204.727 0.89239 204.861 0.917755 204.902 1.06533C204.943 1.21291 207.993 12.9962 207.993 12.9962L207.986 19.2752C207.982 19.4227 207.975 19.6326 207.929 19.7387C207.876 19.8678 207.791 19.9347 207.72 19.9646C207.635 19.9969 207.508 20.0131 207.508 20.1491C207.508 20.1653 207.513 20.1791 207.518 20.1929C207.518 20.1929 207.52 20.1998 207.522 20.2022C207.527 20.2114 207.534 20.216 207.538 20.2229C207.541 20.2275 207.545 20.2298 207.548 20.2321C207.554 20.239 207.561 20.2437 207.57 20.246C207.575 20.2483 207.577 20.2506 207.58 20.2506C207.591 20.2575 207.603 20.2598 207.614 20.2644C207.616 20.2644 207.619 20.2644 207.621 20.2644C207.632 20.2667 207.642 20.269 207.651 20.269C207.655 20.2713 207.66 20.2713 207.66 20.2713C207.667 20.2736 207.676 20.2759 207.683 20.2759H207.69H207.708H207.713C207.717 20.2759 207.722 20.2736 207.722 20.2736L207.984 20.2759H209.256H209.527H210.627L210.889 20.2736C210.889 20.2736 210.891 20.2759 210.896 20.2759H210.9H210.916H210.926C210.935 20.2759 210.939 20.2736 210.946 20.2713C210.953 20.2713 210.955 20.2713 210.958 20.269C210.969 20.2667 210.976 20.2667 210.988 20.2644C210.992 20.2644 210.994 20.2644 210.994 20.2644C211.006 20.2598 211.017 20.2575 211.029 20.2506C211.031 20.2483 211.036 20.246 211.038 20.246C211.045 20.2414 211.054 20.2367 211.059 20.2321C211.063 20.2298 211.066 20.2275 211.07 20.2229C211.077 20.216 211.079 20.2114 211.084 20.2022C211.086 20.1975 211.091 20.1952 211.091 20.1952C211.095 20.1791 211.1 20.1653 211.1 20.1491C211.1 20.0131 210.971 19.9992 210.889 19.9646C210.813 19.9347 210.728 19.8678 210.678 19.7387C210.636 19.6326 210.627 19.4227 210.622 19.2752V12.9962C210.622 12.9962 213.615 1.21291 213.658 1.06533C213.7 0.917755 213.831 0.89239 214.177 0.784012C214.23 0.758647 214.276 0.721752 214.276 0.641045C214.276 0.624904 214.271 0.611068 214.267 0.599538C214.274 0.594927 214.269 0.592621 214.267 0.588009ZM217.238 2.86856L217.737 3.68716H217.172L216.749 2.94696L216.483 2.9608L216.511 3.65719L216.028 3.68486L216.001 1.45965L216.83 1.43198C217.098 1.43198 217.319 1.51268 217.47 1.66257C217.597 1.78939 217.661 1.96234 217.661 2.17448C217.659 2.51115 217.509 2.75096 217.238 2.86856ZM217.149 2.20676C217.149 1.99923 217.034 1.89777 216.807 1.89777H216.511V2.53882L216.818 2.51114C217.025 2.51114 217.149 2.39815 217.149 2.20676ZM174.77 0.207532V0.202921V0.184473V0.177556C174.77 0.168332 174.768 0.161414 174.768 0.154496L174.766 0.142967C174.764 0.131437 174.761 0.124519 174.759 0.110684V0.108378C174.757 0.0945429 174.752 0.0830125 174.747 0.0714829C174.745 0.0668711 174.741 0.0645654 174.741 0.0645654C174.736 0.0553418 174.731 0.0461184 174.727 0.0415066C174.725 0.0368948 174.722 0.0345886 174.718 0.0322827C174.711 0.025365 174.706 0.0207532 174.697 0.0161414C174.692 0.0138354 174.69 0.0115298 174.685 0.00922388C174.674 0.00230613 174.66 0 174.644 0C174.509 0 174.493 0.129131 174.458 0.21445C174.431 0.28824 174.364 0.373558 174.233 0.426595C174.127 0.468101 173.918 0.479631 173.771 0.481937H168.6V0.479631H168.221V20.2529L173.769 20.2575C173.916 20.2598 174.125 20.2736 174.231 20.3128C174.362 20.3659 174.426 20.4512 174.454 20.525C174.488 20.6103 174.504 20.7371 174.64 20.7371C174.656 20.7371 174.669 20.7348 174.681 20.7279C174.685 20.7279 174.688 20.7233 174.692 20.721C174.702 20.7187 174.706 20.7141 174.713 20.7071C174.718 20.7025 174.72 20.7002 174.722 20.6979C174.727 20.6887 174.731 20.6841 174.736 20.6749C174.738 20.6703 174.738 20.6679 174.741 20.6656C174.747 20.6541 174.75 20.6426 174.752 20.6311C174.752 20.6287 174.752 20.6264 174.752 20.6264C174.754 20.6126 174.757 20.6034 174.759 20.5942C174.759 20.5895 174.759 20.5872 174.761 20.5849C174.761 20.5757 174.761 20.5688 174.764 20.5619V20.555V20.5388V20.5342C174.761 20.5319 174.761 20.525 174.761 20.525L174.766 20.2621V18.9846V18.957V17.8547L174.761 17.5919C174.761 17.5919 174.761 17.5872 174.764 17.5826V17.578V17.5596V17.5503C174.761 17.5457 174.761 17.5365 174.761 17.5296C174.759 17.525 174.759 17.5227 174.759 17.5227C174.757 17.5088 174.754 17.4973 174.752 17.4881C174.752 17.4881 174.752 17.4835 174.752 17.4812C174.75 17.4696 174.745 17.4581 174.741 17.4466C174.738 17.442 174.736 17.4397 174.736 17.4374C174.731 17.4281 174.727 17.4212 174.722 17.4166C174.718 17.412 174.715 17.4097 174.713 17.4051C174.706 17.3982 174.702 17.3958 174.692 17.3889C174.688 17.3866 174.683 17.3843 174.681 17.3843C174.669 17.3797 174.656 17.3728 174.64 17.3728C174.504 17.3728 174.488 17.5019 174.454 17.5872C174.426 17.661 174.362 17.7463 174.231 17.7994C174.125 17.8409 173.916 17.8524 173.769 17.8547H170.853V17.2759H170.855V11.2713L173.331 11.2736C173.478 11.2782 173.687 11.2875 173.792 11.329C173.925 11.3797 173.987 11.4673 174.02 11.5411C174.052 11.6264 174.068 11.7556 174.203 11.7556C174.219 11.7556 174.231 11.7487 174.245 11.744C174.247 11.7417 174.249 11.7394 174.254 11.7371C174.263 11.7325 174.268 11.7279 174.274 11.721C174.279 11.7187 174.281 11.7164 174.284 11.7141C174.29 11.7048 174.293 11.6979 174.297 11.691C174.3 11.6887 174.304 11.6841 174.304 11.6818C174.309 11.6703 174.311 11.661 174.313 11.6472L174.316 11.6426C174.318 11.6311 174.318 11.6218 174.32 11.6103C174.323 11.6057 174.323 11.6034 174.323 11.5988C174.325 11.5942 174.325 11.5849 174.325 11.5757V11.5711V11.5527V11.5503V11.5411L174.327 11.2782V10.0031V9.9731V8.86856L174.325 8.60569V8.59877V8.59416V8.57802V8.5711C174.325 8.56187 174.325 8.55496 174.323 8.55035C174.323 8.54343 174.323 8.54343 174.32 8.53882C174.318 8.52959 174.318 8.52037 174.316 8.50884L174.313 8.50423C174.311 8.4927 174.309 8.47886 174.304 8.46964C174.302 8.46733 174.3 8.46272 174.297 8.46272C174.293 8.4535 174.29 8.44658 174.284 8.43966C174.279 8.43736 174.277 8.43505 174.274 8.43044C174.268 8.42352 174.263 8.41891 174.254 8.4143C174.249 8.41199 174.247 8.40968 174.245 8.40968C174.231 8.40277 174.219 8.40046 174.203 8.40046C174.068 8.40046 174.052 8.52959 174.02 8.61261C173.99 8.68639 173.925 8.77402 173.792 8.82475C173.687 8.86395 173.478 8.87779 173.331 8.88009L170.855 8.8824V2.88009L173.771 2.8824C173.916 2.88701 174.127 2.89623 174.233 2.94005C174.364 2.99308 174.428 3.08071 174.458 3.15219C174.493 3.2352 174.509 3.36664 174.644 3.36664C174.658 3.36664 174.672 3.36203 174.685 3.35742C174.69 3.35511 174.695 3.3528 174.697 3.3505C174.706 3.34589 174.711 3.33897 174.718 3.33436C174.722 3.32975 174.725 3.32744 174.727 3.32513C174.731 3.31822 174.736 3.3113 174.741 3.30207C174.741 3.30207 174.745 3.29746 174.747 3.29516C174.752 3.28363 174.757 3.2721 174.759 3.25826V3.25134C174.764 3.24212 174.766 3.23059 174.766 3.22137C174.766 3.21676 174.768 3.21445 174.768 3.20984C174.768 3.20292 174.77 3.196 174.77 3.18909V3.17986V3.16833V3.15911V3.14988L174.775 2.88701V1.60953V1.58417V0.479631L174.77 0.216756V0.207532ZM218.648 2.57802V2.64028C218.648 3.79785 217.824 4.70638 216.772 4.70638C215.707 4.70638 214.901 3.82091 214.901 2.64489V2.58263C214.901 1.42506 215.725 0.516525 216.777 0.516525C217.845 0.518831 218.648 1.4043 218.648 2.57802ZM218.21 2.57802C218.21 1.65334 217.608 0.982321 216.779 0.982321C215.959 0.982321 215.344 1.6741 215.344 2.58955V2.65181C215.344 3.57648 215.946 4.2475 216.775 4.2475C217.594 4.2475 218.21 3.55573 218.21 2.64028V2.57802ZM187.911 1.01922C187.961 0.887778 188.048 0.823213 188.122 0.793236C188.207 0.758647 188.336 0.744811 188.336 0.608762C188.336 0.590315 188.331 0.578786 188.326 0.56495C188.324 0.560338 188.322 0.558032 188.319 0.555726C188.315 0.546503 188.313 0.539585 188.306 0.534973C188.301 0.530361 188.296 0.528055 188.294 0.525749C188.287 0.518831 188.28 0.51422 188.271 0.511914C188.269 0.509608 188.264 0.507302 188.262 0.504996C188.251 0.500384 188.239 0.495772 188.228 0.493466C188.228 0.493466 188.225 0.493467 188.221 0.491161C188.211 0.486549 188.2 0.484242 188.191 0.484242C188.189 0.484242 188.184 0.481937 188.182 0.481937C188.172 0.481937 188.166 0.481937 188.159 0.481937H188.149H188.131H188.127C188.124 0.481937 188.117 0.481937 188.117 0.481937L187.856 0.479631H186.583H186.312H185.212L184.951 0.481937C184.951 0.481937 184.946 0.481937 184.941 0.481937H184.937H184.921H184.912C184.907 0.481937 184.895 0.481937 184.891 0.481937C184.886 0.481937 184.884 0.484242 184.879 0.484242C184.868 0.484242 184.859 0.486549 184.847 0.491161L184.843 0.493466C184.831 0.495772 184.822 0.500384 184.808 0.504996C184.804 0.504996 184.804 0.509608 184.799 0.511914C184.79 0.51422 184.785 0.521137 184.778 0.525749C184.774 0.528055 184.769 0.530361 184.767 0.534973C184.762 0.541891 184.758 0.548809 184.751 0.555726C184.748 0.560338 184.746 0.562644 184.746 0.562644C184.742 0.578785 184.737 0.590315 184.737 0.608762C184.737 0.742506 184.863 0.758647 184.948 0.793236C185.022 0.823213 185.107 0.887778 185.16 1.01922C185.201 1.12529 185.212 1.33513 185.217 1.48271L185.215 10.04L182.567 1.07456C182.542 0.956956 182.558 0.857801 182.633 0.809377C182.638 0.807071 182.64 0.804765 182.643 0.804765C182.65 0.802459 182.652 0.795542 182.659 0.793236C182.663 0.793236 182.668 0.793236 182.67 0.79093C182.753 0.758647 182.87 0.7402 182.87 0.608762C182.87 0.592621 182.865 0.581091 182.861 0.567256C182.859 0.562644 182.856 0.560338 182.854 0.558032C182.849 0.548808 182.847 0.544196 182.84 0.537279C182.838 0.532667 182.836 0.530361 182.831 0.528055C182.824 0.521138 182.817 0.516526 182.808 0.51422C182.803 0.509608 182.801 0.509608 182.796 0.507302C182.787 0.500384 182.776 0.498078 182.764 0.495772C182.762 0.493466 182.76 0.491161 182.757 0.491161C182.746 0.488855 182.737 0.486549 182.728 0.486549H182.716C182.709 0.486549 182.702 0.486549 182.693 0.486549H182.686H182.668H182.663H182.654L182.395 0.481937H181.122H180.849H179.749L179.487 0.486549H179.478H179.476H179.457H179.451C179.444 0.486549 179.435 0.486549 179.425 0.486549H179.416C179.405 0.488855 179.395 0.488855 179.386 0.491161C179.384 0.491161 179.382 0.493466 179.382 0.495772C179.37 0.495772 179.359 0.500384 179.347 0.507302C179.343 0.507302 179.34 0.509608 179.336 0.51422C179.329 0.516526 179.32 0.521138 179.313 0.528055C179.308 0.530361 179.308 0.532667 179.304 0.537279C179.297 0.544196 179.292 0.548808 179.288 0.558032C179.285 0.560338 179.283 0.56495 179.283 0.56495C179.278 0.581092 179.274 0.594926 179.274 0.611068C179.274 0.747117 179.405 0.763259 179.485 0.797848C179.559 0.825519 179.646 0.89239 179.696 1.02383C179.74 1.1299 179.749 1.33974 179.754 1.48732L179.756 17.1952V17.4835V19.2798C179.751 19.4251 179.74 19.6372 179.699 19.741C179.648 19.8724 179.561 19.937 179.49 19.9669C179.407 19.9992 179.278 20.0154 179.278 20.1537C179.278 20.1676 179.281 20.1814 179.285 20.1929C179.288 20.1998 179.29 20.2022 179.292 20.2045C179.297 20.2114 179.301 20.2206 179.308 20.2252C179.313 20.2275 179.315 20.2298 179.315 20.2321C179.324 20.239 179.331 20.2437 179.338 20.2483C179.345 20.2506 179.347 20.2529 179.35 20.2529C179.361 20.2575 179.375 20.2621 179.384 20.2644C179.389 20.2667 179.389 20.2667 179.391 20.2667C179.402 20.269 179.412 20.2713 179.421 20.2713C179.425 20.2713 179.428 20.2736 179.43 20.2736C179.439 20.2736 179.446 20.2759 179.455 20.2759H179.462H179.48H179.483C179.487 20.2759 179.492 20.2736 179.492 20.2736L179.751 20.2782H181.026H181.297H182.395L182.656 20.2736C182.656 20.2736 182.663 20.2759 182.666 20.2759H182.67H182.686H182.695C182.702 20.2759 182.709 20.2736 182.716 20.2736C182.718 20.2713 182.723 20.2713 182.728 20.2713C182.737 20.2713 182.748 20.269 182.757 20.2667C182.76 20.2667 182.762 20.2667 182.762 20.2644C182.774 20.2621 182.787 20.2575 182.794 20.2529C182.799 20.2529 182.801 20.2506 182.806 20.2483C182.815 20.2437 182.822 20.239 182.829 20.2321C182.831 20.2298 182.836 20.2275 182.838 20.2252C182.845 20.2183 182.849 20.2091 182.852 20.2045C182.856 20.2022 182.856 20.1998 182.859 20.1929C182.865 20.1791 182.868 20.1676 182.868 20.1537C182.868 20.0154 182.739 20.0015 182.656 19.9669C182.583 19.937 182.498 19.8701 182.445 19.741C182.404 19.6372 182.392 19.4251 182.388 19.2798L182.392 7.31668L185.217 16.3259L185.215 19.2798C185.21 19.4251 185.201 19.6372 185.16 19.741C185.107 19.8724 185.022 19.937 184.946 19.9669C184.863 19.9992 184.735 20.0154 184.735 20.1537C184.735 20.1676 184.739 20.1814 184.744 20.1929C184.746 20.1998 184.748 20.2022 184.748 20.2045C184.753 20.2114 184.76 20.2206 184.765 20.2252C184.769 20.2275 184.769 20.2298 184.776 20.2321C184.783 20.239 184.79 20.2437 184.797 20.2483C184.799 20.2506 184.804 20.2529 184.806 20.2529C184.815 20.2575 184.829 20.2621 184.838 20.2644C184.84 20.2667 184.843 20.2667 184.845 20.2667C184.856 20.269 184.866 20.2713 184.875 20.2713C184.882 20.2713 184.884 20.2736 184.884 20.2736C184.893 20.2736 184.9 20.2759 184.907 20.2759H184.914H184.93H184.934C184.939 20.2759 184.941 20.2736 184.941 20.2736L185.203 20.2782H186.475H186.749H187.846L188.11 20.2736C188.11 20.2736 188.113 20.2759 188.117 20.2759H188.122H188.138H188.147C188.154 20.2759 188.161 20.2736 188.168 20.2736C188.172 20.2713 188.177 20.2713 188.179 20.2713C188.189 20.2713 188.198 20.269 188.209 20.2667C188.211 20.2667 188.216 20.2667 188.216 20.2644C188.225 20.2621 188.239 20.2575 188.248 20.2529C188.251 20.2529 188.253 20.2506 188.257 20.2483C188.267 20.2437 188.273 20.239 188.28 20.2321C188.283 20.2298 188.285 20.2275 188.287 20.2252C188.296 20.2183 188.301 20.2091 188.303 20.2045C188.306 20.2022 188.308 20.1998 188.308 20.1929C188.313 20.1791 188.317 20.1676 188.317 20.1537C188.317 20.0154 188.191 20.0015 188.106 19.9669C188.03 19.937 187.945 19.8701 187.895 19.741C187.853 19.6372 187.842 19.4251 187.837 19.2798L187.839 1.48732C187.856 1.33513 187.867 1.12529 187.911 1.01922ZM201.921 0.590315C201.917 0.583397 201.91 0.57648 201.905 0.569562C201.903 0.567256 201.898 0.56495 201.896 0.562644C201.889 0.555726 201.882 0.551115 201.873 0.548809C201.871 0.546503 201.866 0.544197 201.864 0.544197C201.852 0.539585 201.841 0.534973 201.829 0.530361H201.822C201.811 0.528055 201.802 0.52575 201.793 0.523444C201.788 0.523444 201.786 0.521137 201.783 0.521137C201.774 0.518831 201.767 0.518832 201.76 0.518832H201.751H201.735H201.731H201.721L201.46 0.516525H200.187H199.914H198.816L198.555 0.518832H198.545H198.541H198.525H198.516C198.509 0.518832 198.504 0.518831 198.495 0.521137C198.49 0.521137 198.488 0.523444 198.483 0.523444C198.472 0.52575 198.465 0.528055 198.454 0.530361H198.447C198.435 0.534973 198.424 0.539585 198.412 0.544197C198.41 0.546503 198.408 0.546503 198.405 0.548809C198.396 0.553421 198.387 0.558032 198.382 0.562644C198.378 0.567256 198.373 0.569562 198.371 0.569562C198.364 0.57648 198.362 0.583397 198.357 0.590315C198.355 0.594926 198.35 0.597233 198.35 0.601845C198.343 0.613374 198.343 0.62721 198.343 0.643351C198.343 0.777095 198.472 0.795542 198.555 0.827825C198.619 0.85319 198.729 0.880861 198.752 0.970791C198.775 1.07456 198.741 1.17371 198.741 1.18755C198.704 1.45734 196.704 15.5857 196.704 15.5857C196.704 15.5857 194.694 1.33513 194.676 1.18755C194.674 1.17371 194.639 1.07456 194.662 0.970791C194.683 0.880861 194.795 0.855496 194.86 0.827825C194.942 0.795542 195.071 0.777095 195.071 0.643351C195.071 0.62721 195.066 0.613374 195.062 0.601845C195.059 0.597233 195.057 0.594926 195.055 0.590315C195.05 0.583397 195.043 0.57648 195.039 0.569562C195.037 0.567256 195.032 0.56495 195.03 0.562644C195.02 0.555726 195.014 0.551115 195.007 0.548809C195.004 0.546503 195 0.544197 194.995 0.544197C194.986 0.539585 194.972 0.534973 194.961 0.530361H194.956C194.945 0.528055 194.935 0.52575 194.924 0.523444C194.919 0.523444 194.915 0.521137 194.915 0.521137C194.906 0.518831 194.899 0.518832 194.892 0.518832H194.885H194.869H194.864H194.857L194.593 0.516525H193.496H193.222H191.95L191.688 0.518832H191.681H191.677H191.656H191.649C191.64 0.518832 191.633 0.518831 191.626 0.521137C191.622 0.521137 191.619 0.523444 191.615 0.523444C191.606 0.52575 191.596 0.528055 191.585 0.530361H191.58C191.567 0.534973 191.555 0.539585 191.544 0.544197C191.541 0.546503 191.539 0.546503 191.534 0.548809C191.528 0.553421 191.518 0.558032 191.514 0.562644C191.511 0.567256 191.507 0.569562 191.505 0.569562C191.498 0.57648 191.493 0.583397 191.489 0.590315C191.486 0.594926 191.484 0.597233 191.484 0.601845C191.479 0.613374 191.475 0.62721 191.475 0.643351C191.475 0.724059 191.518 0.760953 191.573 0.786318C191.923 0.89239 192.01 0.920062 192.051 1.06764C192.086 1.18524 193.845 12.1753 194.607 16.9462C194.607 16.9462 194.912 18.8094 195.02 19.5588C195.048 19.741 195.059 19.8563 195.057 19.8632C195.011 19.9139 194.963 19.9462 194.917 19.9646C194.834 19.9969 194.706 20.0131 194.706 20.1514C194.706 20.1653 194.71 20.1791 194.715 20.1906C194.717 20.1975 194.72 20.1998 194.72 20.2022C194.724 20.2068 194.731 20.216 194.736 20.2229C194.738 20.2252 194.743 20.2298 194.745 20.2298C194.752 20.2367 194.759 20.2414 194.766 20.246C194.77 20.2483 194.772 20.2506 194.775 20.2506C194.789 20.2552 194.798 20.2598 194.809 20.2621C194.814 20.2644 194.814 20.2644 194.814 20.2644C194.825 20.2667 194.837 20.269 194.846 20.269C194.85 20.269 194.851 20.2713 194.855 20.2713C194.864 20.2713 194.871 20.2736 194.878 20.2736H194.885H194.903H194.908C194.91 20.2736 194.915 20.2713 194.915 20.2713L195.177 20.2759H196.451H197.131H198.233L198.493 20.2713C198.493 20.2713 198.497 20.2736 198.502 20.2736H198.504H198.522H198.529C198.536 20.2736 198.545 20.2713 198.552 20.2713C198.555 20.269 198.562 20.269 198.564 20.269C198.573 20.269 198.585 20.2667 198.594 20.2644C198.596 20.2644 198.598 20.2644 198.598 20.2621C198.61 20.2598 198.624 20.2552 198.633 20.2506C198.637 20.2506 198.64 20.2483 198.642 20.246C198.649 20.2414 198.658 20.2367 198.665 20.2298C198.669 20.2275 198.672 20.2252 198.672 20.2229C198.681 20.216 198.686 20.2068 198.69 20.2022C198.69 20.2022 198.695 20.1952 198.695 20.1906C198.699 20.1791 198.704 20.1653 198.704 20.1514C198.704 20.0131 198.575 19.9992 198.493 19.9646C198.442 19.9462 198.38 19.9116 198.339 19.8447C198.316 19.8009 198.38 19.5265 198.442 19.1115C198.578 18.2283 198.803 16.8609 198.803 16.8609C199.579 12.0323 201.329 1.14374 201.347 1.06995C201.388 0.922367 201.48 0.897002 201.825 0.788624C201.878 0.763259 201.924 0.726364 201.924 0.645657C201.924 0.629516 201.921 0.61568 201.917 0.60415C201.926 0.594927 201.924 0.59262 201.921 0.590315Z" fill="#8B1D41"/>
<path d="M134.941 56.9498L138.142 55.7922V70.1235L140.551 69.3187V54.9206L143.75 53.763V51.5701L134.941 54.7914V56.9498Z" fill="#8B1D41"/>
<path d="M153.216 55.1188L149.351 56.4815V49.5223L146.945 50.4032V67.1787L149.351 66.3716V58.6975L153.216 57.3509V65.078L155.623 64.2732V47.2279L153.216 48.1088V55.1188Z" fill="#8B1D41"/>
<path d="M162.48 59.7097V54.1178L166.501 52.7158V50.4306L162.48 51.8488V46.9902L167.929 45.0186V42.7266L160.071 45.602V62.7834L168.189 60.0671V57.775L162.48 59.7097Z" fill="#8B1D41"/>
</svg>
