<svg width="200" height="200" viewBox="0 0 200 200" fill="none" xmlns="http://www.w3.org/2000/svg">
<rect width="200" height="200" rx="20" fill="white"/>
<path d="M80.4335 18.092H82.3481C82.9225 18.092 83.4272 17.8831 83.8276 17.4828C84.2279 17.0824 84.4368 16.5777 84.4368 16.0033V14.0887C84.4368 13.5143 84.2279 13.0095 83.8276 12.6092C83.4272 12.2089 82.9225 12 82.3481 12H80.4335C79.8591 12 79.3543 12.2089 78.954 12.6092C78.5537 13.0095 78.3448 13.5143 78.3448 14.0887V16.0033C78.3448 16.5777 78.5537 17.0824 78.954 17.4828C79.3717 17.8831 79.8591 18.092 80.4335 18.092Z" fill="black"/>
<path d="M104.801 18.092H108.805V22.0952C108.805 22.6696 109.013 23.1744 109.414 23.5747C109.814 23.975 110.319 24.1839 110.893 24.1839H114.897H120.989V30.2759H114.897H110.893C110.319 30.2759 109.814 30.4847 109.414 30.8851C109.013 31.2854 108.805 31.7901 108.805 32.3645V36.3678H104.801C104.227 36.3678 103.722 36.5767 103.322 36.977C102.922 37.3773 102.713 37.8821 102.713 38.4565V42.4598V44.4092H102.73C102.73 44.4788 102.713 44.5136 102.713 44.5484V46.4631C102.713 47.0374 102.922 47.5422 103.322 47.9425C103.722 48.3429 104.227 48.5517 104.801 48.5517H106.716C107.29 48.5517 107.795 48.3429 108.195 47.9425C108.596 47.5422 108.805 47.0374 108.805 46.4631V44.5484C108.805 44.5136 108.805 44.4614 108.787 44.4092H108.805V42.4598H114.897V44.4092H114.914C114.914 44.4788 114.897 44.5136 114.897 44.5484V46.4631C114.897 47.0374 115.105 47.5422 115.506 47.9425C115.906 48.3429 116.411 48.5517 116.985 48.5517H118.9C119.474 48.5517 119.979 48.3429 120.379 47.9425C120.78 47.5422 120.989 47.0374 120.989 46.4631V44.5484C120.989 44.5136 120.989 44.4614 120.971 44.4092H120.989V42.4598H127.08H133.172V48.5517V50.5012H133.19C133.19 50.5708 133.172 50.6056 133.172 50.6404V52.555C133.172 53.1294 133.381 53.6342 133.782 54.0345C134.182 54.4348 134.687 54.6437 135.261 54.6437H137.176C137.75 54.6437 138.255 54.4348 138.655 54.0345C139.056 53.6342 139.264 53.1294 139.264 52.555V50.6404C139.264 50.6056 139.264 50.5534 139.247 50.5012H139.264V48.5517V42.4598V36.3678V34.4184H139.247C139.247 34.3488 139.264 34.314 139.264 34.2791V32.3645C139.264 31.7901 139.056 31.2854 138.655 30.8851C138.255 30.4847 137.75 30.2759 137.176 30.2759H135.261C134.687 30.2759 134.182 30.4847 133.782 30.8851C133.381 31.2854 133.172 31.7901 133.172 32.3645V34.2791C133.172 34.314 133.172 34.3662 133.19 34.4184H133.172V36.3678H127.08V30.2759V24.1839V20.1806C127.08 19.6062 126.872 19.1015 126.471 18.7011C126.071 18.3008 125.566 18.092 124.992 18.092H120.989V14.0887C120.989 13.5143 120.78 13.0095 120.379 12.6092C119.979 12.2089 119.474 12 118.9 12H114.897H108.805H104.801C104.227 12 103.722 12.2089 103.322 12.6092C102.922 13.0095 102.713 13.5143 102.713 14.0887V16.0033C102.713 16.5777 102.922 17.0824 103.322 17.4828C103.722 17.8831 104.227 18.092 104.801 18.092Z" fill="black"/>
<path d="M135.261 24.1839H137.176C137.75 24.1839 138.255 23.975 138.655 23.5747C139.056 23.1744 139.264 22.6696 139.264 22.0952V20.1806C139.264 19.6062 139.056 19.1015 138.655 18.7012C138.255 18.3008 137.75 18.092 137.176 18.092H135.261C134.687 18.092 134.182 18.3008 133.782 18.7012C133.381 19.1015 133.172 19.6062 133.172 20.1806V22.0952C133.172 22.6696 133.381 23.1744 133.782 23.5747C134.199 23.975 134.687 24.1839 135.261 24.1839Z" fill="black"/>
<path d="M84.4368 28.1872C84.4368 28.7616 84.6456 29.2663 85.046 29.6667C85.4463 30.067 85.9511 30.2759 86.5254 30.2759H90.5287H94.532C95.1064 30.2759 95.6112 30.067 96.0115 29.6667C96.4118 29.2663 96.6207 28.7616 96.6207 28.1872V24.1839H100.624C101.198 24.1839 101.703 23.975 102.103 23.5747C102.504 23.1744 102.713 22.6696 102.713 22.0952V20.1806C102.713 19.6062 102.504 19.1015 102.103 18.7012C101.703 18.3008 101.198 18.092 100.624 18.092H96.6207H92.6174C92.043 18.092 91.5382 18.3008 91.1379 18.7012C90.7376 19.1015 90.5287 19.6062 90.5287 20.1806V24.1839H86.5254C85.9511 24.1839 85.4463 24.3928 85.046 24.7931C84.6456 25.1934 84.4368 25.6982 84.4368 26.2726V28.1872Z" fill="black"/>
<path d="M104.801 30.2759H106.716C107.29 30.2759 107.795 30.067 108.195 29.6667C108.596 29.2663 108.805 28.7616 108.805 28.1872V26.2726C108.805 25.6982 108.596 25.1934 108.195 24.7931C107.795 24.3928 107.29 24.1839 106.716 24.1839H104.801C104.227 24.1839 103.722 24.3928 103.322 24.7931C102.922 25.1934 102.713 25.6982 102.713 26.2726V28.1872C102.713 28.7616 102.922 29.2663 103.322 29.6667C103.74 30.067 104.227 30.2759 104.801 30.2759Z" fill="black"/>
<path d="M88.4401 48.5517H86.5254C85.9511 48.5517 85.4463 48.7606 85.046 49.1609C84.6456 49.5613 84.4368 50.066 84.4368 50.6404V52.555C84.4368 53.1294 84.6456 53.6342 85.046 54.0345C85.4463 54.4348 85.9511 54.6437 86.5254 54.6437H88.4401C89.0144 54.6437 89.5192 54.4348 89.9195 54.0345C90.3199 53.6342 90.5287 53.1294 90.5287 52.555V50.6404C90.5287 50.066 90.3199 49.5613 89.9195 49.1609C89.5018 48.7606 89.0144 48.5517 88.4401 48.5517Z" fill="black"/>
<path d="M96.6207 54.6437V58.647C96.6207 59.2214 96.8295 59.7261 97.2299 60.1264C97.6302 60.5268 98.135 60.7356 98.7094 60.7356H102.713H108.805H112.808C113.382 60.7356 113.887 60.5268 114.287 60.1264C114.688 59.7261 114.897 59.2214 114.897 58.647V54.6437V52.6943H114.879C114.879 52.6246 114.897 52.5898 114.897 52.555V50.6404C114.897 50.066 114.688 49.5613 114.287 49.1609C113.887 48.7606 113.382 48.5517 112.808 48.5517H110.893C110.319 48.5517 109.814 48.7606 109.414 49.1609C109.013 49.5613 108.805 50.066 108.805 50.6404V52.555C108.805 52.5898 108.805 52.642 108.822 52.6943H108.805V54.6437H102.713V52.6943H102.695C102.695 52.6246 102.713 52.5898 102.713 52.555V50.6404C102.713 50.066 102.504 49.5613 102.103 49.1609C101.703 48.7606 101.198 48.5517 100.624 48.5517H98.7094C98.135 48.5517 97.6302 48.7606 97.2299 49.1609C96.8295 49.5613 96.6207 50.066 96.6207 50.6404V52.555C96.6207 52.5898 96.6207 52.642 96.6381 52.6943H96.6207V54.6437Z" fill="black"/>
<path d="M120.988 54.6437V58.647C120.988 59.2214 121.197 59.7261 121.598 60.1264C121.998 60.5268 122.503 60.7356 123.077 60.7356H127.08H131.084C131.658 60.7356 132.163 60.5268 132.563 60.1264C132.964 59.7261 133.172 59.2214 133.172 58.647V56.7324C133.172 56.158 132.964 55.6532 132.563 55.2529C132.163 54.8525 131.658 54.6437 131.084 54.6437H127.08V52.6943H127.063C127.063 52.6246 127.08 52.5898 127.08 52.555V50.6404C127.08 50.066 126.872 49.5613 126.471 49.1609C126.071 48.7606 125.566 48.5517 124.992 48.5517H123.077C122.503 48.5517 121.998 48.7606 121.598 49.1609C121.197 49.5613 120.988 50.066 120.988 50.6404V52.555C120.988 52.5898 120.988 52.642 121.006 52.6943H120.988V54.6437Z" fill="black"/>
<path d="M49.9737 66.8276H51.8883C52.4627 66.8276 52.9675 66.6187 53.3678 66.2184C53.7681 65.8181 53.977 65.3133 53.977 64.7389V62.8243C53.977 62.2499 53.7681 61.7452 53.3678 61.3448C52.9675 60.9445 52.4627 60.7356 51.8883 60.7356H49.9737C49.3993 60.7356 48.8946 60.9445 48.4942 61.3448C48.0939 61.7452 47.885 62.2499 47.885 62.8243V64.7389C47.885 65.3133 48.0939 65.8181 48.4942 66.2184C48.912 66.6187 49.3993 66.8276 49.9737 66.8276Z" fill="black"/>
<path d="M116.985 66.8276H118.9C119.474 66.8276 119.979 66.6187 120.379 66.2184C120.78 65.8181 120.988 65.3133 120.988 64.7389V62.8243C120.988 62.2499 120.78 61.7452 120.379 61.3448C119.979 60.9445 119.474 60.7356 118.9 60.7356H116.985C116.411 60.7356 115.906 60.9445 115.506 61.3448C115.105 61.7452 114.897 62.2499 114.897 62.8243V64.7389C114.897 65.3133 115.105 65.8181 115.506 66.2184C115.923 66.6187 116.411 66.8276 116.985 66.8276Z" fill="black"/>
<path d="M149.36 60.7356H145.356H139.264H135.261C134.687 60.7356 134.182 60.9445 133.782 61.3448C133.381 61.7452 133.172 62.2499 133.172 62.8243V64.7389C133.172 65.3133 133.381 65.8181 133.782 66.2184C134.182 66.6187 134.687 66.8276 135.261 66.8276H139.264H145.356H149.36C149.934 66.8276 150.439 66.6187 150.839 66.2184C151.239 65.8181 151.448 65.3133 151.448 64.7389V62.8243C151.448 62.2499 151.239 61.7452 150.839 61.3448C150.439 60.9445 149.934 60.7356 149.36 60.7356Z" fill="black"/>
<path d="M163.632 68.9163C163.632 68.3419 163.423 67.8371 163.023 67.4368C162.623 67.0365 162.118 66.8276 161.544 66.8276H157.54H153.537C152.963 66.8276 152.458 67.0365 152.057 67.4368C151.657 67.8371 151.448 68.3419 151.448 68.9163V70.8309C151.448 71.4053 151.657 71.91 152.057 72.3104C152.458 72.7107 152.963 72.9196 153.537 72.9196H157.54V79.0115V83.0148C157.54 83.5892 157.749 84.0939 158.149 84.4943C158.55 84.8946 159.055 85.1035 159.629 85.1035H163.632H167.635C168.21 85.1035 168.715 84.8946 169.115 84.4943C169.515 84.0939 169.724 83.5892 169.724 83.0148V81.1002C169.724 80.5258 169.515 80.021 169.115 79.6207C168.715 79.2204 168.21 79.0115 167.635 79.0115H163.632V72.9196V68.9163Z" fill="black"/>
<path d="M170.333 72.3103C170.734 72.7107 171.238 72.9195 171.813 72.9195H175.816H179.819C180.394 72.9195 180.899 72.7107 181.299 72.3103C181.699 71.91 181.908 71.4052 181.908 70.8309V66.8276V62.8243C181.908 62.2499 181.699 61.7452 181.299 61.3448C180.899 60.9445 180.394 60.7356 179.819 60.7356H175.816H169.724H165.721C165.146 60.7356 164.642 60.9445 164.241 61.3448C163.841 61.7452 163.632 62.2499 163.632 62.8243V64.7389C163.632 65.3133 163.841 65.8181 164.241 66.2184C164.642 66.6187 165.146 66.8276 165.721 66.8276H169.724V70.8309C169.724 71.4052 169.933 71.8926 170.333 72.3103Z" fill="black"/>
<path d="M47.885 76.9228C47.885 77.4972 48.0939 78.002 48.4942 78.4023C48.8946 78.8026 49.3993 79.0115 49.9737 79.0115H51.8883C52.4627 79.0115 52.9675 78.8026 53.3678 78.4023C53.7681 78.002 53.977 77.4972 53.977 76.9228V75.0082C53.977 74.4338 53.7681 73.929 53.3678 73.5287C52.9675 73.1284 52.4627 72.9195 51.8883 72.9195H49.9737C49.3993 72.9195 48.8946 73.1284 48.4942 73.5287C48.0939 73.929 47.885 74.4338 47.885 75.0082V76.9228Z" fill="black"/>
<path d="M53.977 83.0148C53.977 83.5892 54.1859 84.0939 54.5862 84.4943C54.9865 84.8946 55.4913 85.1035 56.0657 85.1035H60.069H66.1609H72.2529H78.3448V89.1067C78.3448 89.6811 78.5537 90.1859 78.954 90.5862C79.3543 90.9865 79.8591 91.1954 80.4335 91.1954H84.4368V97.2874V99.2368H84.4542C84.4542 99.3064 84.4368 99.3412 84.4368 99.376V101.291C84.4368 101.865 84.6456 102.37 85.046 102.77C85.4463 103.17 85.9511 103.379 86.5254 103.379H88.4401C89.0144 103.379 89.5192 103.17 89.9195 102.77C90.3199 102.37 90.5287 101.865 90.5287 101.291V99.376C90.5287 99.3412 90.5287 99.289 90.5113 99.2368H90.5287V97.2874V91.1954H94.532C95.1064 91.1954 95.6112 90.9865 96.0115 90.5862C96.4118 90.1859 96.6207 89.6811 96.6207 89.1067V85.1035V79.0115H102.713V85.1035V87.0529H102.73C102.73 87.1225 102.713 87.1573 102.713 87.1921V89.1067C102.713 89.6811 102.921 90.1859 103.322 90.5862C103.722 90.9865 104.227 91.1954 104.801 91.1954H106.716C107.29 91.1954 107.795 90.9865 108.195 90.5862C108.596 90.1859 108.805 89.6811 108.805 89.1067V87.1921C108.805 87.1573 108.805 87.1051 108.787 87.0529H108.805V85.1035V79.0115H114.897H120.988H124.992C125.566 79.0115 126.071 78.8026 126.471 78.4023C126.872 78.002 127.08 77.4972 127.08 76.9228V72.9195H131.084C131.658 72.9195 132.163 72.7107 132.563 72.3104C132.964 71.91 133.172 71.4053 133.172 70.8309V68.9163C133.172 68.3419 132.964 67.8371 132.563 67.4368C132.163 67.0365 131.658 66.8276 131.084 66.8276H127.08H123.077C122.503 66.8276 121.998 67.0365 121.598 67.4368C121.197 67.8371 120.988 68.3419 120.988 68.9163V72.9195H114.897V70.9701H114.879C114.879 70.9005 114.897 70.8657 114.897 70.8309V68.9163C114.897 68.3419 114.688 67.8371 114.287 67.4368C113.887 67.0365 113.382 66.8276 112.808 66.8276H110.893C110.319 66.8276 109.814 67.0365 109.414 67.4368C109.013 67.8371 108.805 68.3419 108.805 68.9163V70.8309C108.805 70.8657 108.805 70.9179 108.822 70.9701H108.805V72.9195H102.713H96.6207V68.9163C96.6207 68.3419 96.4118 67.8371 96.0115 67.4368C95.6112 67.0365 95.1064 66.8276 94.532 66.8276H90.5287H84.4368H80.4335C79.8591 66.8276 79.3543 67.0365 78.954 67.4368C78.5537 67.8371 78.3448 68.3419 78.3448 68.9163V70.8309C78.3448 71.4053 78.5537 71.91 78.954 72.3104C79.3543 72.7107 79.8591 72.9195 80.4335 72.9195H84.4368V76.9228C84.4368 77.4972 84.6456 78.002 85.046 78.4023C85.4463 78.8026 85.9511 79.0115 86.5254 79.0115H90.5287V85.1035H84.4368V81.1002C84.4368 80.5258 84.2279 80.021 83.8276 79.6207C83.4272 79.2204 82.9225 79.0115 82.3481 79.0115H78.3448V75.0082C78.3448 74.4338 78.1359 73.9291 77.7356 73.5287C77.3353 73.1284 76.8305 72.9195 76.2561 72.9195H72.2529V68.9163C72.2529 68.3419 72.044 67.8371 71.6437 67.4368C71.2433 67.0365 70.7386 66.8276 70.1642 66.8276H66.1609V60.7356H72.2529V62.6851H72.2703C72.2703 62.7547 72.2529 62.7895 72.2529 62.8243V64.7389C72.2529 65.3133 72.4617 65.8181 72.8621 66.2184C73.2624 66.6187 73.7671 66.8276 74.3415 66.8276H76.2561C76.8305 66.8276 77.3353 66.6187 77.7356 66.2184C78.1359 65.8181 78.3448 65.3133 78.3448 64.7389V62.8243C78.3448 62.7895 78.3448 62.7373 78.3274 62.6851H78.3448V60.7356V54.6437V48.5517H82.3481C82.9225 48.5517 83.4272 48.3429 83.8276 47.9425C84.2279 47.5422 84.4368 47.0374 84.4368 46.4631V42.4598H88.4401C89.0144 42.4598 89.5192 42.2509 89.9195 41.8506C90.3199 41.4503 90.5287 40.9455 90.5287 40.3711V38.4565C90.5287 37.8821 90.3199 37.3773 89.9195 36.977C89.5192 36.5767 89.0144 36.3678 88.4401 36.3678H84.4368H80.4335C79.8591 36.3678 79.3543 36.5767 78.954 36.977C78.5537 37.3773 78.3448 37.8821 78.3448 38.4565V42.4598H72.2529V36.3678V30.2759H76.2561C76.8305 30.2759 77.3353 30.067 77.7356 29.6667C78.1359 29.2663 78.3448 28.7616 78.3448 28.1872V24.1839V20.1806C78.3448 19.6062 78.1359 19.1015 77.7356 18.7012C77.3353 18.3008 76.8305 18.092 76.2561 18.092H72.2529H66.1609H62.1576C61.5832 18.092 61.0785 18.3008 60.6782 18.7012C60.2778 19.1015 60.069 19.6062 60.069 20.1806V24.1839V30.2759V34.2792C60.069 34.8535 60.2778 35.3583 60.6782 35.7586C61.0785 36.159 61.5832 36.3678 62.1576 36.3678H66.1609V42.4598V46.4631C66.1609 47.0374 66.3698 47.5422 66.7701 47.9425C67.1704 48.3429 67.6752 48.5517 68.2496 48.5517H72.2529V54.6437H66.1609V52.6943H66.1435C66.1435 52.6246 66.1609 52.5898 66.1609 52.555V50.6404C66.1609 50.066 65.952 49.5613 65.5517 49.1609C65.1514 48.7606 64.6466 48.5517 64.0722 48.5517H62.1576C61.5832 48.5517 61.0785 48.7606 60.6782 49.1609C60.2778 49.5613 60.069 50.066 60.069 50.6404V52.555C60.069 52.5898 60.069 52.642 60.0864 52.6943H60.069V54.6437V60.7356V66.8276V70.8309C60.069 71.4053 60.2778 71.91 60.6782 72.3104C61.0785 72.7107 61.5832 72.9195 62.1576 72.9195H66.1609V79.0115H60.069H56.0657C55.4913 79.0115 54.9865 79.2204 54.5862 79.6207C54.1859 80.021 53.977 80.5258 53.977 81.1002V83.0148Z" fill="black"/>
<path d="M31.6979 85.1035C31.1235 85.1035 30.6187 85.3123 30.2184 85.7127C29.8181 86.113 29.6092 86.6178 29.6092 87.1921V89.1068C29.6092 89.6811 29.8181 90.1859 30.2184 90.5862C30.6187 90.9866 31.1235 91.1954 31.6979 91.1954H35.7012H39.7044C40.2788 91.1954 40.7836 90.9866 41.1839 90.5862C41.5842 90.1859 41.7931 89.6811 41.7931 89.1068V85.1035H45.7964C46.3708 85.1035 46.8755 84.8946 47.2759 84.4943C47.6762 84.0939 47.8851 83.5892 47.8851 83.0148V81.1002C47.8851 80.5258 47.6762 80.021 47.2759 79.6207C46.8755 79.2204 46.3708 79.0115 45.7964 79.0115H41.7931V72.9196H45.7964C46.3708 72.9196 46.8755 72.7107 47.2759 72.3104C47.6762 71.91 47.8851 71.4053 47.8851 70.8309V68.9163C47.8851 68.3419 47.6762 67.8371 47.2759 67.4368C46.8755 67.0365 46.3708 66.8276 45.7964 66.8276H41.7931H35.7012H31.6979C31.1235 66.8276 30.6187 67.0365 30.2184 67.4368C29.8181 67.8371 29.6092 68.3419 29.6092 68.9163V72.9196V76.9228C29.6092 77.4972 29.8181 78.002 30.2184 78.4023C30.6187 78.8026 31.1235 79.0115 31.6979 79.0115H35.7012V85.1035H31.6979Z" fill="black"/>
<path d="M51.8883 85.1034H49.9737C49.3993 85.1034 48.8946 85.3123 48.4942 85.7126C48.0939 86.1129 47.885 86.6177 47.885 87.1921V89.1067C47.885 89.6811 48.0939 90.1859 48.4942 90.5862C48.8946 90.9865 49.3993 91.1954 49.9737 91.1954H51.8883C52.4627 91.1954 52.9675 90.9865 53.3678 90.5862C53.7681 90.1859 53.977 89.6811 53.977 89.1067V87.1921C53.977 86.6177 53.7681 86.1129 53.3678 85.7126C52.9501 85.3123 52.4627 85.1034 51.8883 85.1034Z" fill="black"/>
<path d="M185.911 85.1034H183.997C183.422 85.1034 182.918 85.3123 182.517 85.7126C182.117 86.1129 181.908 86.6177 181.908 87.1921V89.1067C181.908 89.1415 181.908 89.1937 181.925 89.246H181.908V91.1954H177.905C177.33 91.1954 176.826 91.4042 176.425 91.8046C176.025 92.2049 175.816 92.7097 175.816 93.284V95.1987C175.816 95.773 176.025 96.2778 176.425 96.6781C176.826 97.0785 177.33 97.2873 177.905 97.2873H181.908H185.911C186.486 97.2873 186.99 97.0785 187.391 96.6781C187.791 96.2778 188 95.773 188 95.1987V91.1954V89.246H187.983C187.983 89.1763 188 89.1415 188 89.1067V87.1921C188 86.6177 187.791 86.1129 187.391 85.7126C186.99 85.3123 186.486 85.1034 185.911 85.1034Z" fill="black"/>
<path d="M47.8851 93.2841C47.8851 92.7097 47.6762 92.2049 47.2759 91.8046C46.8755 91.4043 46.3708 91.1954 45.7964 91.1954H43.8818C43.3074 91.1954 42.8026 91.4043 42.4023 91.8046C42.002 92.2049 41.7931 92.7097 41.7931 93.2841V95.1987C41.7931 95.7731 42.002 96.2778 42.4023 96.6782C42.8026 97.0785 43.3074 97.2874 43.8818 97.2874H45.7964C46.3708 97.2874 46.8755 97.0785 47.2759 96.6782C47.6762 96.2778 47.8851 95.7731 47.8851 95.1987V93.2841Z" fill="black"/>
<path d="M53.977 95.1987C53.977 95.7731 54.1859 96.2778 54.5862 96.6782C54.9865 97.0785 55.4913 97.2874 56.0657 97.2874H57.9803C58.5547 97.2874 59.0594 97.0785 59.4598 96.6782C59.8601 96.2778 60.069 95.7731 60.069 95.1987V93.2841C60.069 92.7097 59.8601 92.2049 59.4598 91.8046C59.0594 91.4043 58.5547 91.1954 57.9803 91.1954H56.0657C55.4913 91.1954 54.9865 91.4043 54.5862 91.8046C54.1859 92.2049 53.977 92.7097 53.977 93.2841V95.1987Z" fill="black"/>
<path d="M51.8883 97.2874H49.9737C49.3993 97.2874 48.8946 97.4962 48.4942 97.8965C48.0939 98.2969 47.885 98.8016 47.885 99.376V101.291C47.885 101.865 48.0939 102.37 48.4942 102.77C48.8946 103.17 49.3993 103.379 49.9737 103.379H51.8883C52.4627 103.379 52.9675 103.17 53.3678 102.77C53.7681 102.37 53.977 101.865 53.977 101.291V99.376C53.977 98.8016 53.7681 98.2969 53.3678 97.8965C52.9501 97.4962 52.4627 97.2874 51.8883 97.2874Z" fill="black"/>
<path d="M76.2562 97.2874H74.3415C73.7672 97.2874 73.2624 97.4962 72.8621 97.8965C72.4617 98.2969 72.2529 98.8016 72.2529 99.376V101.291C72.2529 101.865 72.4617 102.37 72.8621 102.77C73.2624 103.17 73.7672 103.379 74.3415 103.379H76.2562C76.8305 103.379 77.3353 103.17 77.7356 102.77C78.136 102.37 78.3448 101.865 78.3448 101.291V99.376C78.3448 98.8016 78.136 98.2969 77.7356 97.8965C77.3179 97.4962 76.8305 97.2874 76.2562 97.2874Z" fill="black"/>
<path d="M13.422 109.471H15.3366C15.911 109.471 16.4158 109.262 16.8161 108.862C17.2164 108.462 17.4253 107.957 17.4253 107.383V105.468C17.4253 105.433 17.4253 105.381 17.4079 105.329H17.4253V103.379H23.5172V107.383C23.5172 107.957 23.7261 108.462 24.1264 108.862C24.5268 109.262 25.0315 109.471 25.6059 109.471H29.6092V115.563H25.6059C25.0315 115.563 24.5268 115.772 24.1264 116.172C23.7261 116.573 23.5172 117.078 23.5172 117.652V119.567C23.5172 120.141 23.7261 120.646 24.1264 121.046C24.5268 121.446 25.0315 121.655 25.6059 121.655H29.6092H33.6125C34.1869 121.655 34.6916 121.446 35.092 121.046C35.4923 120.646 35.7012 120.141 35.7012 119.567V115.563H39.7044C40.2788 115.563 40.7836 115.354 41.1839 114.954C41.5842 114.554 41.7931 114.049 41.7931 113.475V109.471V103.379V99.376C41.7931 98.8016 41.5842 98.2969 41.1839 97.8965C40.7836 97.4962 40.2788 97.2874 39.7044 97.2874H35.7012H29.6092H23.5172V93.2841C23.5172 92.7097 23.3084 92.2049 22.908 91.8046C22.5077 91.4043 22.003 91.1954 21.4286 91.1954H17.4253V85.1034H21.4286C22.003 85.1034 22.5077 84.8946 22.908 84.4942C23.3084 84.0939 23.5172 83.5892 23.5172 83.0148V79.0115V72.9195V68.9163C23.5172 68.3419 23.3084 67.8371 22.908 67.4368C22.5077 67.0364 22.003 66.8276 21.4286 66.8276H17.4253V64.8782H17.4079C17.4079 64.8085 17.4253 64.7737 17.4253 64.7389V62.8243C17.4253 62.2499 17.2164 61.7452 16.8161 61.3448C16.4158 60.9445 15.911 60.7356 15.3366 60.7356H13.422C12.8476 60.7356 12.3429 60.9445 11.9425 61.3448C11.5422 61.7452 11.3333 62.2499 11.3333 62.8243V64.7389C11.3333 64.7737 11.3333 64.8259 11.3507 64.8782H11.3333V66.8276V72.9195V79.0115V85.1034V91.1954V97.2874V103.379V105.329H11.3507C11.3507 105.398 11.3333 105.433 11.3333 105.468V107.383C11.3333 107.957 11.5422 108.462 11.9425 108.862C12.3429 109.262 12.8476 109.471 13.422 109.471Z" fill="black"/>
<path d="M78.3448 107.383C78.3448 107.957 78.5537 108.462 78.954 108.862C79.3543 109.262 79.8591 109.471 80.4335 109.471H82.3481C82.9225 109.471 83.4272 109.262 83.8276 108.862C84.2279 108.462 84.4368 107.957 84.4368 107.383V105.468C84.4368 104.894 84.2279 104.389 83.8276 103.988C83.4272 103.588 82.9225 103.379 82.3481 103.379H80.4335C79.8591 103.379 79.3543 103.588 78.954 103.988C78.5537 104.389 78.3448 104.894 78.3448 105.468V107.383Z" fill="black"/>
<path d="M185.911 103.379H183.997C183.422 103.379 182.918 103.588 182.517 103.988C182.117 104.389 181.908 104.894 181.908 105.468V107.383C181.908 107.957 182.117 108.462 182.517 108.862C182.918 109.262 183.422 109.471 183.997 109.471H185.894C186.468 109.471 186.973 109.262 187.373 108.862C187.774 108.462 187.983 107.957 187.983 107.383V105.468C187.983 104.894 187.774 104.389 187.373 103.988C186.973 103.588 186.486 103.379 185.911 103.379Z" fill="black"/>
<path d="M114.897 115.563H110.893C110.319 115.563 109.814 115.772 109.414 116.172C109.013 116.573 108.805 117.077 108.805 117.652V121.655H104.801C104.227 121.655 103.722 121.864 103.322 122.264C102.922 122.665 102.713 123.169 102.713 123.744V125.658C102.713 126.233 102.922 126.738 103.322 127.138C103.722 127.538 104.227 127.747 104.801 127.747H108.805H114.897H118.9C119.474 127.747 119.979 127.538 120.379 127.138C120.78 126.738 120.989 126.233 120.989 125.658V121.655H127.08V123.605H127.098C127.098 123.674 127.08 123.709 127.08 123.744V125.658C127.08 126.233 127.289 126.738 127.69 127.138C128.09 127.538 128.595 127.747 129.169 127.747H131.084C131.658 127.747 132.163 127.538 132.563 127.138C132.964 126.738 133.172 126.233 133.172 125.658V123.744C133.172 123.709 133.172 123.657 133.155 123.605H133.172V121.655H137.176C137.75 121.655 138.255 121.446 138.655 121.046C139.056 120.646 139.264 120.141 139.264 119.566V117.652C139.264 117.077 139.056 116.573 138.655 116.172C138.255 115.772 137.75 115.563 137.176 115.563H133.172V113.614H133.155C133.155 113.544 133.172 113.509 133.172 113.475V111.56C133.172 110.986 132.964 110.481 132.563 110.08C132.163 109.68 131.658 109.471 131.084 109.471H129.169C128.595 109.471 128.09 109.68 127.69 110.08C127.289 110.481 127.08 110.986 127.08 111.56V113.475C127.08 113.509 127.08 113.562 127.098 113.614H127.08V115.563H120.989V113.614H120.971C120.971 113.544 120.989 113.509 120.989 113.475V111.56C120.989 110.986 120.78 110.481 120.379 110.08C119.979 109.68 119.474 109.471 118.9 109.471H116.985C116.411 109.471 115.906 109.68 115.506 110.08C115.105 110.481 114.897 110.986 114.897 111.56V113.475C114.897 113.509 114.897 113.562 114.914 113.614H114.897V115.563Z" fill="black"/>
<path d="M45.7964 115.563H43.8818C43.3074 115.563 42.8026 115.772 42.4023 116.172C42.002 116.573 41.7931 117.077 41.7931 117.652V119.566C41.7931 120.141 42.002 120.646 42.4023 121.046C42.8026 121.446 43.3074 121.655 43.8818 121.655H45.7964C46.3708 121.655 46.8755 121.446 47.2759 121.046C47.6762 120.646 47.8851 120.141 47.8851 119.566V117.652C47.8851 117.077 47.6762 116.573 47.2759 116.172C46.8581 115.772 46.3708 115.563 45.7964 115.563Z" fill="black"/>
<path d="M72.8621 121.046C73.2624 121.446 73.7671 121.655 74.3415 121.655H78.3448V123.605H78.3622C78.3622 123.674 78.3448 123.709 78.3448 123.744V125.658C78.3448 126.233 78.5537 126.738 78.954 127.138C79.3543 127.538 79.8591 127.747 80.4335 127.747H82.3481C82.9225 127.747 83.4272 127.538 83.8276 127.138C84.2279 126.738 84.4368 126.233 84.4368 125.658V123.744C84.4368 123.709 84.4368 123.657 84.4194 123.605H84.4368V121.655V117.652C84.4368 117.077 84.2279 116.573 83.8276 116.172C83.4272 115.772 82.9225 115.563 82.3481 115.563H78.3448V111.56C78.3448 110.986 78.1359 110.481 77.7356 110.08C77.3353 109.68 76.8305 109.471 76.2561 109.471H72.2529V105.468C72.2529 104.894 72.044 104.389 71.6437 103.988C71.2433 103.588 70.7386 103.379 70.1642 103.379H66.1609H60.069H56.0657C55.4913 103.379 54.9865 103.588 54.5862 103.988C54.1859 104.389 53.977 104.894 53.977 105.468V109.471H49.9737C49.3993 109.471 48.8946 109.68 48.4942 110.08C48.0939 110.481 47.885 110.986 47.885 111.56V113.475C47.885 114.049 48.0939 114.554 48.4942 114.954C48.8946 115.354 49.3993 115.563 49.9737 115.563H53.977H57.9803C58.5547 115.563 59.0594 115.354 59.4598 114.954C59.8601 114.554 60.069 114.049 60.069 113.475V109.471H66.1609V113.475C66.1609 114.049 66.3698 114.554 66.7701 114.954C67.1704 115.354 67.6752 115.563 68.2496 115.563H72.2529V119.566C72.2529 120.141 72.4617 120.628 72.8621 121.046Z" fill="black"/>
<path d="M100.624 115.563H96.6207H92.6174C92.043 115.563 91.5383 115.772 91.1379 116.172C90.7376 116.573 90.5287 117.077 90.5287 117.652V119.566C90.5287 120.141 90.7376 120.646 91.1379 121.046C91.5383 121.446 92.043 121.655 92.6174 121.655H96.6207H100.624C101.198 121.655 101.703 121.446 102.103 121.046C102.504 120.646 102.713 120.141 102.713 119.566V117.652C102.713 117.077 102.504 116.573 102.103 116.172C101.703 115.772 101.198 115.563 100.624 115.563Z" fill="black"/>
<path d="M185.911 115.563H181.908H175.816V109.471V103.379V99.376C175.816 98.8016 175.607 98.2969 175.207 97.8965C174.807 97.4962 174.302 97.2873 173.727 97.2873H169.724H163.632V93.2841C163.632 92.7097 163.423 92.2049 163.023 91.8046C162.623 91.4043 162.118 91.1954 161.544 91.1954H157.54H151.448V85.1034V81.1002C151.448 80.5258 151.239 80.021 150.839 79.6207C150.439 79.2203 149.934 79.0115 149.36 79.0115H145.356V77.0621H145.339C145.339 76.9924 145.356 76.9576 145.356 76.9228V75.0082C145.356 74.4338 145.147 73.929 144.747 73.5287C144.347 73.1284 143.842 72.9195 143.268 72.9195H141.353C140.779 72.9195 140.274 73.1284 139.874 73.5287C139.473 73.929 139.264 74.4338 139.264 75.0082V76.9228C139.264 76.9576 139.264 77.0098 139.282 77.0621H139.264V79.0115H135.261C134.687 79.0115 134.182 79.2203 133.782 79.6207C133.381 80.021 133.172 80.5258 133.172 81.1002V85.1034V91.1954H127.08H120.989H114.897H110.893C110.319 91.1954 109.814 91.4043 109.414 91.8046C109.013 92.2049 108.805 92.7097 108.805 93.2841V97.2873H104.801C104.227 97.2873 103.722 97.4962 103.322 97.8965C102.922 98.2969 102.713 98.8016 102.713 99.376V103.379V105.329H102.73C102.73 105.398 102.713 105.433 102.713 105.468V107.383C102.713 107.957 102.922 108.462 103.322 108.862C103.722 109.262 104.227 109.471 104.801 109.471H106.716C107.29 109.471 107.795 109.262 108.195 108.862C108.596 108.462 108.805 107.957 108.805 107.383V105.468C108.805 105.433 108.805 105.381 108.787 105.329H108.805V103.379H114.897H118.9C119.474 103.379 119.979 103.17 120.379 102.77C120.78 102.37 120.989 101.865 120.989 101.291V97.2873H127.08H133.172V103.379V107.383C133.172 107.957 133.381 108.462 133.782 108.862C134.182 109.262 134.687 109.471 135.261 109.471H139.264H143.268C143.842 109.471 144.347 109.262 144.747 108.862C145.147 108.462 145.356 107.957 145.356 107.383V105.468C145.356 104.894 145.147 104.389 144.747 103.988C144.347 103.588 143.842 103.379 143.268 103.379H139.264V97.2873V91.1954V85.1034H145.356V91.1954V97.2873V101.291C145.356 101.865 145.565 102.37 145.966 102.77C146.366 103.17 146.871 103.379 147.445 103.379H151.448V105.329H151.466C151.466 105.398 151.448 105.433 151.448 105.468V107.383C151.448 107.957 151.657 108.462 152.057 108.862C152.458 109.262 152.963 109.471 153.537 109.471H155.452C156.026 109.471 156.531 109.262 156.931 108.862C157.331 108.462 157.54 107.957 157.54 107.383V105.468C157.54 105.433 157.54 105.381 157.523 105.329H157.54V103.379H163.632H169.724V109.471H165.721C165.146 109.471 164.642 109.68 164.241 110.08C163.841 110.481 163.632 110.986 163.632 111.56V113.475C163.632 114.049 163.841 114.554 164.241 114.954C164.642 115.354 165.146 115.563 165.721 115.563H169.724V119.566C169.724 120.141 169.933 120.646 170.333 121.046C170.734 121.446 171.238 121.655 171.813 121.655H175.816H181.908V123.605H181.925C181.925 123.674 181.908 123.709 181.908 123.744V125.658C181.908 126.233 182.117 126.738 182.517 127.138C182.918 127.538 183.422 127.747 183.997 127.747H185.894C186.468 127.747 186.973 127.538 187.373 127.138C187.774 126.738 187.983 126.233 187.983 125.658V123.744C187.983 123.709 187.983 123.657 187.965 123.605H187.983V121.655V117.652C187.983 117.077 187.774 116.573 187.373 116.172C186.973 115.772 186.486 115.563 185.911 115.563Z" fill="black"/>
<path d="M60.069 129.836C60.069 129.801 60.069 129.749 60.0515 129.697H60.069V127.747H64.0722C64.6466 127.747 65.1514 127.538 65.5517 127.138C65.952 126.738 66.1609 126.233 66.1609 125.658V121.655V119.706H66.1435C66.1435 119.636 66.1609 119.601 66.1609 119.566V117.652C66.1609 117.077 65.952 116.573 65.5517 116.172C65.1514 115.772 64.6466 115.563 64.0722 115.563H62.1576C61.5832 115.563 61.0785 115.772 60.6782 116.172C60.2778 116.573 60.069 117.077 60.069 117.652V119.566C60.069 119.601 60.069 119.654 60.0864 119.706H60.069V121.655H53.977H49.9737C49.3993 121.655 48.8946 121.864 48.4942 122.264C48.0939 122.665 47.885 123.169 47.885 123.744V125.658C47.885 126.233 48.0939 126.738 48.4942 127.138C48.8946 127.538 49.3993 127.747 49.9737 127.747H53.977V129.697H53.9944C53.9944 129.766 53.977 129.801 53.977 129.836V131.75C53.977 132.325 54.1859 132.83 54.5862 133.23C54.9865 133.63 55.4913 133.839 56.0657 133.839H57.9803C58.5547 133.839 59.0594 133.63 59.4598 133.23C59.8601 132.83 60.069 132.325 60.069 131.75V129.836Z" fill="black"/>
<path d="M72.2529 129.836C72.2529 129.261 72.044 128.757 71.6437 128.356C71.2433 127.956 70.7386 127.747 70.1642 127.747H68.2496C67.6752 127.747 67.1704 127.956 66.7701 128.356C66.3698 128.757 66.1609 129.261 66.1609 129.836V131.75C66.1609 132.325 66.3698 132.83 66.7701 133.23C67.1704 133.63 67.6752 133.839 68.2496 133.839H70.1642C70.7386 133.839 71.2433 133.63 71.6437 133.23C72.044 132.83 72.2529 132.325 72.2529 131.75V129.836Z" fill="black"/>
<path d="M96.6207 129.836C96.6207 129.261 96.4118 128.757 96.0115 128.356C95.6112 127.956 95.1064 127.747 94.532 127.747H92.6174C92.043 127.747 91.5383 127.956 91.1379 128.356C90.7376 128.757 90.5287 129.261 90.5287 129.836V131.75C90.5287 132.325 90.7376 132.83 91.1379 133.23C91.5383 133.63 92.043 133.839 92.6174 133.839H94.532C95.1064 133.839 95.6112 133.63 96.0115 133.23C96.4118 132.83 96.6207 132.325 96.6207 131.75V129.836Z" fill="black"/>
<path d="M13.422 139.931H15.3366C15.911 139.931 16.4158 139.722 16.8161 139.322C17.2164 138.921 17.4253 138.417 17.4253 137.842V135.928C17.4253 135.893 17.4253 135.841 17.4079 135.788H17.4253V133.839V127.747H21.4286C22.003 127.747 22.5077 127.538 22.908 127.138C23.3084 126.738 23.5172 126.233 23.5172 125.658V123.744C23.5172 123.169 23.3084 122.665 22.908 122.264C22.5077 121.864 22.003 121.655 21.4286 121.655H17.4253V119.706H17.4079C17.4079 119.636 17.4253 119.601 17.4253 119.566V117.652C17.4253 117.077 17.2164 116.573 16.8161 116.172C16.4158 115.772 15.911 115.563 15.3366 115.563H13.422C12.8476 115.563 12.3429 115.772 11.9425 116.172C11.5422 116.573 11.3333 117.077 11.3333 117.652V119.566C11.3333 119.601 11.3333 119.654 11.3507 119.706H11.3333V121.655V127.747V133.839V135.788H11.3507C11.3507 135.858 11.3333 135.893 11.3333 135.928V137.842C11.3333 138.417 11.5422 138.921 11.9425 139.322C12.3429 139.722 12.8476 139.931 13.422 139.931Z" fill="black"/>
<path d="M51.8883 133.839H47.8851H41.7931V129.836C41.7931 129.261 41.5842 128.757 41.1839 128.356C40.7836 127.956 40.2788 127.747 39.7044 127.747H35.7012H31.6979C31.1235 127.747 30.6187 127.956 30.2184 128.356C29.8181 128.757 29.6092 129.261 29.6092 129.836V133.839V137.842C29.6092 138.417 29.8181 138.922 30.2184 139.322C30.6187 139.722 31.1235 139.931 31.6979 139.931H35.7012H41.7931H47.8851H51.8883C52.4627 139.931 52.9675 139.722 53.3678 139.322C53.7681 138.922 53.977 138.417 53.977 137.842V135.928C53.977 135.353 53.7681 134.849 53.3678 134.448C52.9675 134.048 52.4627 133.839 51.8883 133.839Z" fill="black"/>
<path d="M185.911 133.839H181.908H175.816H171.813C171.238 133.839 170.734 134.048 170.333 134.448C169.933 134.849 169.724 135.353 169.724 135.928V137.842C169.724 138.417 169.933 138.922 170.333 139.322C170.734 139.722 171.238 139.931 171.813 139.931H175.816H181.908H185.911C186.486 139.931 186.99 139.722 187.391 139.322C187.791 138.922 188 138.417 188 137.842V135.928C188 135.353 187.791 134.849 187.391 134.448C186.99 134.048 186.486 133.839 185.911 133.839Z" fill="black"/>
<path d="M72.2529 142.02C72.2529 141.445 72.044 140.941 71.6437 140.54C71.2433 140.14 70.7386 139.931 70.1642 139.931H66.1609H62.1576C61.5832 139.931 61.0785 140.14 60.6782 140.54C60.2778 140.941 60.069 141.445 60.069 142.02V143.934C60.069 144.509 60.2778 145.013 60.6782 145.414C61.0785 145.814 61.5832 146.023 62.1576 146.023H66.1609H70.1642C70.7386 146.023 71.2433 145.814 71.6437 145.414C72.044 145.013 72.2529 144.509 72.2529 143.934V142.02Z" fill="black"/>
<path d="M84.4368 139.931H88.4401C89.0144 139.931 89.5192 139.722 89.9195 139.322C90.3199 138.922 90.5287 138.417 90.5287 137.842V135.928C90.5287 135.353 90.3199 134.849 89.9195 134.448C89.5192 134.048 89.0144 133.839 88.4401 133.839H84.4368H80.4335C79.8591 133.839 79.3543 134.048 78.954 134.448C78.5537 134.849 78.3448 135.353 78.3448 135.928V139.931V141.88H78.3622C78.3622 141.95 78.3448 141.985 78.3448 142.02V143.934C78.3448 144.509 78.5537 145.013 78.954 145.414C79.3543 145.814 79.8591 146.023 80.4335 146.023H82.3481C82.9225 146.023 83.4272 145.814 83.8276 145.414C84.2279 145.013 84.4368 144.509 84.4368 143.934V142.02C84.4368 141.985 84.4368 141.933 84.4194 141.88H84.4368V139.931Z" fill="black"/>
<path d="M147.445 152.115H149.36C149.934 152.115 150.439 151.906 150.839 151.506C151.239 151.105 151.448 150.601 151.448 150.026V148.112C151.448 147.537 151.239 147.033 150.839 146.632C150.439 146.232 149.934 146.023 149.36 146.023H147.445C146.871 146.023 146.366 146.232 145.965 146.632C145.565 147.033 145.356 147.537 145.356 148.112V150.026C145.356 150.601 145.565 151.105 145.965 151.506C146.383 151.906 146.871 152.115 147.445 152.115Z" fill="black"/>
<path d="M72.2529 154.204C72.2529 153.629 72.044 153.124 71.6437 152.724C71.2433 152.324 70.7386 152.115 70.1642 152.115H68.2496C67.6752 152.115 67.1704 152.324 66.7701 152.724C66.3698 153.124 66.1609 153.629 66.1609 154.204V156.118C66.1609 156.153 66.1609 156.205 66.1783 156.257H66.1609V158.207V160.156H66.1783C66.1783 160.226 66.1609 160.261 66.1609 160.296V162.21C66.1609 162.785 66.3698 163.289 66.7701 163.69C67.1704 164.09 67.6752 164.299 68.2496 164.299H70.1642C70.7386 164.299 71.2433 164.09 71.6437 163.69C72.044 163.289 72.2529 162.785 72.2529 162.21V160.296C72.2529 160.261 72.2529 160.209 72.2355 160.156H72.2529V158.207V156.257H72.2355C72.2355 156.188 72.2529 156.153 72.2529 156.118V154.204Z" fill="black"/>
<path d="M80.4335 158.207H82.3481C82.9225 158.207 83.4272 157.998 83.8276 157.598C84.2279 157.197 84.4368 156.693 84.4368 156.118V154.204C84.4368 153.629 84.2279 153.124 83.8276 152.724C83.4272 152.324 82.9225 152.115 82.3481 152.115H80.4335C79.8591 152.115 79.3543 152.324 78.954 152.724C78.5537 153.124 78.3448 153.629 78.3448 154.204V156.118C78.3448 156.693 78.5537 157.197 78.954 157.598C79.3717 157.998 79.8591 158.207 80.4335 158.207Z" fill="black"/>
<path d="M114.897 152.115H118.9C119.474 152.115 119.979 151.906 120.379 151.506C120.78 151.105 120.988 150.601 120.988 150.026V146.023H124.992C125.566 146.023 126.071 145.814 126.471 145.414C126.872 145.013 127.08 144.509 127.08 143.934V139.931V135.928C127.08 135.353 126.872 134.849 126.471 134.448C126.071 134.048 125.566 133.839 124.992 133.839H120.988H114.897H108.805H102.713H98.7094C98.135 133.839 97.6302 134.048 97.2299 134.448C96.8295 134.849 96.6207 135.353 96.6207 135.928V139.931V141.88H96.6381C96.6381 141.95 96.6207 141.985 96.6207 142.02V143.934C96.6207 144.509 96.8295 145.013 97.2299 145.414C97.6302 145.814 98.135 146.023 98.7094 146.023H100.624C101.198 146.023 101.703 145.814 102.103 145.414C102.504 145.013 102.713 144.509 102.713 143.934V142.02C102.713 141.985 102.713 141.933 102.695 141.88H102.713V139.931H108.805H114.897V146.023H108.805H104.801C104.227 146.023 103.722 146.232 103.322 146.632C102.922 147.033 102.713 147.537 102.713 148.112V150.026C102.713 150.601 102.922 151.105 103.322 151.506C103.722 151.906 104.227 152.115 104.801 152.115H108.805V154.064H108.822C108.822 154.134 108.805 154.169 108.805 154.204V156.118C108.805 156.693 109.013 157.197 109.414 157.598C109.814 157.998 110.319 158.207 110.893 158.207H112.808C113.382 158.207 113.887 157.998 114.287 157.598C114.688 157.197 114.897 156.693 114.897 156.118V154.204C114.897 154.169 114.897 154.117 114.879 154.064H114.897V152.115Z" fill="black"/>
<path d="M185.911 152.115H183.997C183.422 152.115 182.918 152.324 182.517 152.724C182.117 153.124 181.908 153.629 181.908 154.204V156.118C181.908 156.153 181.908 156.205 181.925 156.257H181.908V158.207H177.905C177.33 158.207 176.826 158.416 176.425 158.816C176.025 159.216 175.816 159.721 175.816 160.296V162.21C175.816 162.785 176.025 163.289 176.425 163.69C176.826 164.09 177.33 164.299 177.905 164.299H181.908V166.248H181.925C181.925 166.318 181.908 166.353 181.908 166.388V168.302C181.908 168.877 182.117 169.381 182.517 169.782C182.918 170.182 183.422 170.391 183.997 170.391H185.894C186.468 170.391 186.973 170.182 187.373 169.782C187.774 169.381 187.983 168.877 187.983 168.302V166.388C187.983 166.353 187.983 166.3 187.965 166.248H187.983V164.299V158.207V156.257H187.965C187.965 156.188 187.983 156.153 187.983 156.118V154.204C187.983 153.629 187.774 153.124 187.373 152.724C186.973 152.324 186.486 152.115 185.911 152.115Z" fill="black"/>
<path d="M118.9 164.299H116.985C116.411 164.299 115.906 164.508 115.506 164.908C115.105 165.308 114.897 165.813 114.897 166.388V168.302C114.897 168.337 114.897 168.389 114.914 168.441H114.897V170.391V172.34H114.914C114.914 172.41 114.897 172.445 114.897 172.479V174.377C114.897 174.951 115.105 175.456 115.506 175.856C115.906 176.256 116.411 176.465 116.985 176.465H118.9C119.474 176.465 119.979 176.256 120.379 175.856C120.78 175.456 120.988 174.951 120.988 174.377V172.479C120.988 172.445 120.989 172.392 120.971 172.34H120.988V170.391V168.441H120.971C120.971 168.372 120.988 168.337 120.988 168.302V166.388C120.988 165.813 120.78 165.308 120.379 164.908C119.979 164.508 119.474 164.299 118.9 164.299Z" fill="black"/>
<path d="M131.084 170.391H129.169C128.595 170.391 128.09 170.6 127.69 171C127.289 171.4 127.08 171.905 127.08 172.479V174.377C127.08 174.412 127.08 174.464 127.098 174.516H127.08V176.465V182.557V184.507H127.098C127.098 184.576 127.08 184.611 127.08 184.646V186.543C127.08 187.118 127.289 187.622 127.69 188.023C128.09 188.423 128.595 188.632 129.169 188.632H131.084C131.658 188.632 132.163 188.423 132.563 188.023C132.964 187.622 133.172 187.118 133.172 186.543V184.663C133.172 184.629 133.172 184.576 133.155 184.524H133.172V182.575V176.483V174.533H133.155C133.155 174.464 133.172 174.429 133.172 174.394V172.479C133.172 171.905 132.964 171.4 132.563 171C132.163 170.6 131.658 170.391 131.084 170.391Z" fill="black"/>
<path d="M181.908 172.479C181.908 171.905 181.699 171.4 181.299 171C180.899 170.6 180.394 170.391 179.819 170.391H175.816V166.388C175.816 165.813 175.607 165.308 175.207 164.908C174.807 164.508 174.302 164.299 173.727 164.299H169.724V160.296C169.724 159.721 169.515 159.216 169.115 158.816C168.715 158.416 168.21 158.207 167.635 158.207H163.632V152.115H169.724H173.727C174.302 152.115 174.807 151.906 175.207 151.506C175.607 151.105 175.816 150.601 175.816 150.026V148.112C175.816 147.537 175.607 147.032 175.207 146.632C174.807 146.232 174.302 146.023 173.727 146.023H169.724V142.02C169.724 141.445 169.515 140.941 169.115 140.54C168.715 140.14 168.21 139.931 167.635 139.931H163.632V133.839V127.747H167.635C168.21 127.747 168.715 127.538 169.115 127.138C169.515 126.738 169.724 126.233 169.724 125.658V123.744C169.724 123.169 169.515 122.665 169.115 122.264C168.715 121.864 168.21 121.655 167.635 121.655H163.632V117.652C163.632 117.077 163.423 116.573 163.023 116.172C162.623 115.772 162.118 115.563 161.543 115.563H157.54H151.448H147.445C146.871 115.563 146.366 115.772 145.965 116.172C145.565 116.573 145.356 117.077 145.356 117.652V121.655H141.353C140.779 121.655 140.274 121.864 139.874 122.264C139.473 122.665 139.264 123.169 139.264 123.744V127.747V133.839H135.261C134.687 133.839 134.182 134.048 133.782 134.448C133.381 134.849 133.172 135.353 133.172 135.928V139.931V146.023H129.169C128.595 146.023 128.09 146.232 127.69 146.632C127.289 147.032 127.08 147.537 127.08 148.112V152.115V158.207H123.077C122.503 158.207 121.998 158.416 121.598 158.816C121.197 159.216 120.988 159.721 120.988 160.296V162.21C120.988 162.785 121.197 163.289 121.598 163.69C121.998 164.09 122.503 164.299 123.077 164.299H127.08H133.172H139.264V170.391V174.394C139.264 174.968 139.473 175.473 139.874 175.874C140.274 176.274 140.779 176.483 141.353 176.483H145.356H151.448V178.432H151.466C151.466 178.502 151.448 178.537 151.448 178.571V180.469C151.448 181.043 151.657 181.548 152.057 181.948C152.458 182.348 152.963 182.557 153.537 182.557H155.452C156.026 182.557 156.531 182.348 156.931 181.948C157.331 181.548 157.54 181.043 157.54 180.469V178.571C157.54 178.537 157.54 178.484 157.523 178.432H157.54V176.483H163.632V180.486C163.632 181.06 163.841 181.565 164.241 181.965C164.642 182.366 165.146 182.575 165.721 182.575H169.724V184.524H169.742C169.742 184.594 169.724 184.629 169.724 184.663V186.561C169.724 187.135 169.933 187.64 170.333 188.04C170.734 188.44 171.238 188.649 171.813 188.649H173.71C174.284 188.649 174.789 188.44 175.189 188.04C175.59 187.64 175.799 187.135 175.799 186.561V184.663C175.799 184.629 175.799 184.576 175.781 184.524H175.799V182.575V176.483H179.802C180.376 176.483 180.881 176.274 181.281 175.874C181.682 175.473 181.891 174.968 181.891 174.394V172.479H181.908ZM157.54 121.655V127.747V133.839H151.448V127.747V121.655H157.54ZM139.264 152.115V146.023V139.931H145.356H151.448H157.54V146.023V152.115V158.207H151.448H145.356H139.264V152.115ZM157.54 170.391H151.448H145.356V164.299H151.448H157.54H163.632V170.391H157.54Z" fill="black"/>
<path d="M90.5287 178.571C90.5287 177.997 90.3199 177.492 89.9195 177.092C89.5192 176.692 89.0144 176.483 88.4401 176.483H86.5254C85.9511 176.483 85.4463 176.692 85.046 177.092C84.6456 177.492 84.4368 177.997 84.4368 178.571V180.469C84.4368 181.043 84.6456 181.548 85.046 181.948C85.4463 182.348 85.9511 182.557 86.5254 182.557H88.4401C89.0144 182.557 89.5192 182.348 89.9195 181.948C90.3199 181.548 90.5287 181.043 90.5287 180.469V178.571Z" fill="black"/>
<path d="M185.911 176.483H183.997C183.422 176.483 182.918 176.692 182.517 177.092C182.117 177.492 181.908 177.997 181.908 178.571V180.469C181.908 181.043 182.117 181.548 182.517 181.948C182.918 182.348 183.422 182.557 183.997 182.557H185.894C186.468 182.557 186.973 182.348 187.373 181.948C187.774 181.548 187.983 181.043 187.983 180.469V178.571C187.983 177.997 187.774 177.492 187.373 177.092C186.973 176.692 186.486 176.483 185.911 176.483Z" fill="black"/>
<path d="M82.3481 182.575H78.3448H72.2529H66.1609H62.1576C61.5832 182.575 61.0785 182.784 60.6782 183.184C60.2778 183.584 60.069 184.089 60.069 184.663V186.561C60.069 187.135 60.2778 187.64 60.6782 188.04C61.0785 188.44 61.5832 188.649 62.1576 188.649H66.1609H72.2529H78.3448H82.3481C82.9225 188.649 83.4272 188.44 83.8276 188.04C84.2279 187.64 84.4368 187.135 84.4368 186.561V184.663C84.4368 184.089 84.2279 183.584 83.8276 183.184C83.4272 182.784 82.9225 182.575 82.3481 182.575Z" fill="black"/>
<path d="M94.532 182.575H92.6174C92.043 182.575 91.5383 182.784 91.1379 183.184C90.7376 183.584 90.5287 184.089 90.5287 184.663V186.561C90.5287 187.135 90.7376 187.64 91.1379 188.04C91.5383 188.44 92.043 188.649 92.6174 188.649H94.532C95.1064 188.649 95.6112 188.44 96.0115 188.04C96.4118 187.64 96.6207 187.135 96.6207 186.561V184.663C96.6207 184.089 96.4118 183.584 96.0115 183.184C95.5938 182.784 95.1064 182.575 94.532 182.575Z" fill="black"/>
<path d="M118.9 182.575H114.897H108.805V176.483V170.391V166.388C108.805 165.813 108.596 165.308 108.195 164.908C107.795 164.508 107.29 164.299 106.716 164.299H102.713V158.207V156.257H102.695C102.695 156.188 102.713 156.153 102.713 156.118V154.204C102.713 153.629 102.504 153.124 102.103 152.724C101.703 152.324 101.198 152.115 100.624 152.115H98.7094C98.135 152.115 97.6302 152.324 97.2299 152.724C96.8295 153.124 96.6207 153.629 96.6207 154.204V156.118C96.6207 156.153 96.6207 156.205 96.6381 156.257H96.6207V158.207H92.6174C92.043 158.207 91.5383 158.416 91.1379 158.816C90.7376 159.216 90.5287 159.721 90.5287 160.296V164.299H84.4368H78.3448H74.3415C73.7672 164.299 73.2624 164.508 72.8621 164.908C72.4617 165.308 72.2529 165.813 72.2529 166.388V168.302C72.2529 168.877 72.4617 169.381 72.8621 169.782C73.2624 170.182 73.7672 170.391 74.3415 170.391H78.3448H84.4368H90.5287V174.394C90.5287 174.968 90.7376 175.473 91.1379 175.874C91.5383 176.274 92.043 176.483 92.6174 176.483H96.6207H102.713V182.575V186.578C102.713 187.152 102.922 187.657 103.322 188.057C103.722 188.458 104.227 188.667 104.801 188.667H108.805H114.897H118.9C119.474 188.667 119.979 188.458 120.379 188.057C120.78 187.657 120.988 187.152 120.988 186.578V184.663C120.988 184.089 120.78 183.584 120.379 183.184C119.979 182.784 119.474 182.575 118.9 182.575Z" fill="black"/>
<path d="M149.36 182.575H147.445C146.871 182.575 146.366 182.784 145.965 183.184C145.565 183.584 145.356 184.089 145.356 184.663V186.561C145.356 187.135 145.565 187.64 145.965 188.04C146.366 188.44 146.871 188.649 147.445 188.649H149.36C149.934 188.649 150.439 188.44 150.839 188.04C151.239 187.64 151.448 187.135 151.448 186.561V184.663C151.448 184.089 151.239 183.584 150.839 183.184C150.421 182.784 149.934 182.575 149.36 182.575Z" fill="black"/>
<path d="M161.543 182.575H159.629C159.054 182.575 158.55 182.784 158.149 183.184C157.749 183.584 157.54 184.089 157.54 184.663V186.561C157.54 187.135 157.749 187.64 158.149 188.04C158.55 188.44 159.054 188.649 159.629 188.649H161.543C162.118 188.649 162.623 188.44 163.023 188.04C163.423 187.64 163.632 187.135 163.632 186.561V184.663C163.632 184.089 163.423 183.584 163.023 183.184C162.605 182.784 162.118 182.575 161.543 182.575Z" fill="black"/>
<path d="M25.8844 54.6437H32.6552H39.4259C47.4499 54.6437 53.977 48.1862 53.977 40.2493V26.3944C53.977 18.4575 47.4499 12 39.4259 12H25.9018C19.3051 12 13.7179 16.3514 11.9425 22.3041C11.7511 22.9133 11.6118 23.5573 11.5074 24.2013C11.403 24.9149 11.3333 25.646 11.3333 26.3944V40.2493C11.3333 48.1862 17.8604 54.6437 25.8844 54.6437ZM17.7386 26.3944C17.7386 25.0194 18.1041 23.714 18.7307 22.5826C19.3399 21.486 20.1928 20.5461 21.2197 19.8499C22.5425 18.9448 24.1613 18.4053 25.9018 18.4053H39.4259C43.934 18.4053 47.5892 21.9908 47.5892 26.3944V40.2493C47.5892 44.6529 43.934 48.2558 39.4259 48.2558H32.6726H25.9192C21.4112 48.2558 17.756 44.6703 17.756 40.2493V26.3944H17.7386Z" fill="black"/>
<path d="M173.449 12H159.925C153.328 12 147.741 16.3514 145.965 22.3041C145.774 22.9133 145.635 23.5573 145.53 24.2013C145.426 24.9149 145.356 25.646 145.356 26.3944V40.2493C145.356 48.1862 151.883 54.6437 159.907 54.6437H166.678H173.449C181.473 54.6437 188 48.1862 188 40.2493V26.3944C188 18.4575 181.473 12 173.449 12ZM181.595 40.2493C181.595 44.6529 177.94 48.2558 173.432 48.2558H166.678H159.925C155.417 48.2558 151.762 44.6703 151.762 40.2493V26.3944C151.762 25.0194 152.127 23.714 152.754 22.5826C153.363 21.486 154.216 20.5461 155.243 19.8499C156.565 18.9448 158.184 18.4053 159.925 18.4053H173.449C177.957 18.4053 181.612 21.9908 181.612 26.3944V40.2493H181.595Z" fill="black"/>
<path d="M39.4259 146.023H25.9018C19.3051 146.023 13.7179 150.374 11.9425 156.327C11.7511 156.936 11.6118 157.58 11.5074 158.224C11.403 158.938 11.3333 159.669 11.3333 160.417V174.272C11.3333 182.209 17.8604 188.667 25.8844 188.667H32.6552H39.4259C47.4499 188.667 53.977 182.209 53.977 174.272V160.417C53.977 152.48 47.4499 146.023 39.4259 146.023ZM47.5718 174.272C47.5718 178.676 43.9166 182.279 39.4085 182.279H32.6552H25.9018C21.3938 182.279 17.7386 178.693 17.7386 174.272V160.417C17.7386 159.042 18.1041 157.737 18.7307 156.606C19.3399 155.509 20.1928 154.569 21.2197 153.873C22.5425 152.968 24.1613 152.428 25.9018 152.428H39.4259C43.934 152.428 47.5892 156.014 47.5892 160.417V174.272H47.5718Z" fill="black"/>
<path d="M28.5126 42.4598H32.6552H36.7977C39.5478 42.4598 41.7931 40.2667 41.7931 37.5688V29.0923C41.7931 26.3944 39.5478 24.2013 36.7977 24.2013H28.5126C27.4509 24.2013 26.4588 24.532 25.6407 25.089C25.0141 25.5241 24.492 26.0985 24.109 26.7599C23.7261 27.4562 23.4998 28.2568 23.4998 29.0923V37.5688C23.5172 40.2667 25.7626 42.4598 28.5126 42.4598Z" fill="black"/>
<path d="M170.821 24.1839H162.536C161.474 24.1839 160.482 24.5146 159.664 25.0716C159.037 25.5067 158.515 26.0811 158.132 26.7425C157.749 27.4388 157.523 28.2394 157.523 29.0749V37.5514C157.523 40.2493 159.768 42.4424 162.518 42.4424H166.661H170.803C173.553 42.4424 175.799 40.2493 175.799 37.5514V29.0749C175.816 26.377 173.571 24.1839 170.821 24.1839Z" fill="black"/>
<path d="M36.7977 158.207H28.5126C27.4509 158.207 26.4588 158.538 25.6407 159.095C25.0141 159.53 24.492 160.104 24.109 160.766C23.7261 161.462 23.4998 162.262 23.4998 163.098V171.574C23.4998 174.272 25.7452 176.465 28.4952 176.465H32.6378H36.7803C39.5304 176.465 41.7757 174.272 41.7757 171.574V163.098C41.7931 160.4 39.5478 158.207 36.7977 158.207Z" fill="black"/>
</svg>
