<svg width="310" height="16" viewBox="0 0 310 16" fill="none" xmlns="http://www.w3.org/2000/svg">
<g filter="url(#filter0_d_140_682)">
<path d="M6.54606 12.024L7.35006 12L7.69806 11.88L7.81806 11.544L7.85406 10.92L7.81806 10.464L7.84206 10.212L7.83006 9.732L7.85406 9.516L7.81806 9.252L7.84206 7.32L7.80606 7.068L7.84206 6.024L7.93806 5.664L8.16606 5.52L8.63406 5.496L9.07806 5.556L9.33006 5.52L9.54606 5.532L9.75006 5.4L9.89406 5.136L9.90606 3.996L9.77406 3.756L9.54606 3.6H8.80206L8.57406 3.576L8.32206 3.612L8.09406 3.588L7.12206 3.636L6.88206 3.588L6.65406 3.576L6.40206 3.612L6.13806 3.588L5.92206 3.636L5.21406 3.6L4.84206 3.636L4.00206 3.588L3.77406 3.708L3.63006 3.984L3.64206 4.224L3.61806 4.824L3.64206 5.196L3.75006 5.412L3.96606 5.532L4.20606 5.508L5.34606 5.532L5.57406 5.652L5.70606 5.892L5.68206 6.276L5.70606 6.612L5.69406 6.876L5.70606 7.116L5.68206 7.452L5.71806 9.24L5.69406 9.48L5.68206 10.452L5.70606 10.704L5.69406 11.4L5.67006 11.628L5.82606 11.892L6.17406 12.012L6.54606 12.024ZM13.6572 12.096L14.2332 12.144L14.8332 12.12L15.3132 12.012L15.5652 11.916L15.8052 11.856L15.9972 11.736L16.2132 11.64L16.4052 11.508L16.9452 11.028L17.0772 10.812L17.2332 10.632L17.3052 10.392L17.4252 10.188L17.5092 9.96L17.5932 8.748L17.5572 7.776L17.6052 7.524V7.308L17.5572 7.068L17.5452 6.84L17.5692 6.588L17.5572 6.252L17.5812 5.88L17.5692 5.616L17.6052 5.388L17.5692 5.148L17.5812 4.176L17.5452 3.972L17.4492 3.708L17.0652 3.6L15.9372 3.588L15.6732 3.696L15.5532 3.96L15.5652 5.136L15.5412 5.376L15.5532 5.844L15.5292 6.096L15.5652 6.348L15.5292 7.296L15.5772 7.512L15.5532 7.776L15.5652 8.208L15.5412 8.448L15.5532 9.06L15.5052 9.444L15.3972 9.672L15.2892 9.84L15.0972 10.02L14.6172 10.176L14.2932 10.2L13.8972 10.176L13.6812 10.116L13.4172 9.984L13.2372 9.828L13.0932 9.66L13.0212 9.408L12.9972 7.296L12.9612 7.056L12.9492 6.312L12.9732 6.096V5.136L12.9372 4.788V4.56L12.9972 4.2V3.948L12.8652 3.72L12.5772 3.612L11.3172 3.6L11.0772 3.732L10.9692 3.972V4.692L10.9092 4.896L10.9572 5.4L10.9212 5.856L10.9812 6.576L10.9332 6.804L10.9692 7.068L10.9452 7.296L10.9572 7.536L10.9332 7.764L10.9692 8.244L10.9572 9.108L10.9932 9.456V9.708L11.0652 9.948L11.1012 10.176L11.1732 10.404L11.4132 10.812L11.7372 11.208L11.8932 11.364L12.3012 11.604L12.4812 11.748L12.7092 11.844L12.9852 11.928L13.1652 12.024L13.4292 12.036L13.6572 12.096ZM19.3263 11.616L19.4103 11.88L19.6503 12L19.8783 12.012L20.3703 11.976L20.6223 12H20.9823L21.3543 11.88L21.4383 11.652L21.4623 11.4L21.4143 11.148L21.4503 10.632L21.4263 9.888L21.5343 9.648L21.7743 9.528H21.9903L22.2063 9.516L22.5063 9.612L22.6983 9.816L23.0103 10.236L23.0943 10.464L23.4303 11.064L23.5863 11.292L23.6943 11.496L23.8383 11.688L24.0783 11.904L24.3783 11.976L24.8103 12L25.0743 11.976L25.3143 12H25.7943L26.0583 11.976L26.3103 11.916L26.3583 11.664L26.2023 11.364L25.8183 10.776L25.7103 10.572L25.5663 10.356L25.4463 10.14L25.2903 9.948L24.9303 9.324L24.8943 9.036L25.0263 8.784L25.3623 8.46L25.5063 8.256L25.5903 8.028L25.7223 7.812L25.8063 7.608L25.9383 7.152L25.9503 6.204L25.8903 5.976L25.8543 5.748L25.7943 5.508L25.4703 4.848L25.3023 4.668L25.1943 4.488L24.5943 4.032L24.1743 3.816L23.1783 3.612L22.8783 3.588L22.5303 3.6L22.2663 3.588L22.0263 3.612L21.7623 3.588L21.5583 3.612L20.8383 3.588L20.6103 3.624L20.1183 3.576L19.8903 3.612L19.6263 3.6L19.3983 3.708L19.3023 3.96L19.2663 7.32L19.3023 7.668V8.268L19.2783 8.52L19.2663 8.976L19.3023 9.24L19.2663 9.732L19.3143 10.428L19.2903 10.68L19.3263 11.616ZM21.7743 7.584L21.5703 7.476L21.4503 7.224L21.4143 5.88L21.5583 5.64L21.7983 5.52L21.9903 5.508L22.6503 5.52L23.2023 5.592L23.5743 5.82L23.6943 6L23.7783 6.192L23.8023 6.54L23.7663 6.864L23.6703 7.104L23.5383 7.308L23.3943 7.452L23.2143 7.536L22.2783 7.62L22.0383 7.584H21.7743ZM33.8027 11.808L34.1507 11.964L34.4627 12.06L34.7387 11.928L34.8467 11.676L34.9067 8.412L34.8587 8.076L34.8827 7.812L34.8347 6.372L34.8707 5.892L34.8467 5.664V5.184L34.8947 4.944L34.8707 4.584L34.8947 3.96L34.7507 3.744L34.4867 3.624L34.2467 3.6H34.0187L33.7547 3.624L33.5027 3.588L33.2867 3.612L33.0467 3.6L32.7587 3.72L32.6387 3.972L32.6267 6.156L32.6747 6.408V6.636L32.6267 6.888L32.6387 7.368L32.5787 7.56L32.4107 7.512L31.8827 6.972L31.7027 6.828L31.2827 6.396L31.0907 6.252L30.9587 6.084L30.7067 5.82L30.3347 5.508L30.2027 5.328L29.9747 5.172L29.8547 4.992L29.6507 4.848L29.4947 4.644L28.8467 3.984L28.3667 3.66L28.0427 3.564L27.7547 3.708L27.5987 3.936L27.6227 5.616L27.5987 5.856L27.6347 6.348L27.6107 6.564L27.6227 6.816L27.5867 7.068L27.6347 8.784L27.6107 9V9.228L27.5867 9.492V9.72L27.6227 9.972L27.6107 10.464L27.6347 10.704L27.5987 11.16L27.6347 11.4V11.628L27.7427 11.892L27.9707 12.024L28.3787 12L28.9787 12.036L29.2307 12L29.5067 12.024L29.7467 11.904L29.8547 11.664L29.8187 11.424L29.8547 8.484L29.8067 8.232L29.9267 8.088L30.0827 8.124L31.7987 9.804L31.9907 9.96L33.1547 11.124L33.3107 11.316L33.5027 11.472L33.6467 11.652L33.8027 11.808ZM41.7873 11.664L41.9193 11.868L42.1473 11.988L42.5793 12.012L42.8193 11.988L43.0713 12L43.4073 11.988L43.7673 11.868L43.8873 11.628V11.424L43.8633 11.172L43.8753 10.944L43.8633 10.728L43.9233 9.996L43.8873 9.744L43.9233 9.048L43.8753 8.832L43.9353 8.484L44.3553 7.752L44.4513 7.524L44.5833 7.32L44.8833 6.924L46.2633 4.644L46.4073 4.464L46.4913 4.248L46.6593 3.96L46.6233 3.672L46.3953 3.576L46.1553 3.612L45.6873 3.576L45.4353 3.612H44.9793L44.7513 3.588L44.4513 3.708L44.1993 3.936L43.9953 4.344L43.8393 4.572L43.7673 4.8L43.4913 5.196L43.3113 5.628L42.9153 6.276L42.7473 6.3L42.4713 5.868L42.3633 5.652L42.2913 5.412L41.6913 4.356L41.5593 4.152L41.4633 3.912L41.1993 3.72L40.8993 3.588L39.3153 3.612L39.0513 3.684L39.0273 3.948L39.1473 4.236L40.4433 6.288L40.5393 6.492L41.6073 8.172L41.7033 8.484L41.7633 8.832L41.7513 9.78L41.7753 10.02L41.7873 10.248L41.7633 10.464L41.7513 10.92L41.8113 11.412L41.7873 11.664ZM50.781 12.144L51.453 12.132L52.173 12.036L53.073 11.736L53.469 11.52L53.649 11.376L53.877 11.268L54.213 10.98L54.369 10.764L54.537 10.596L55.065 9.792L55.245 9.336L55.341 8.88L55.353 8.664L55.413 8.424L55.425 8.172L55.473 7.824L55.437 7.224L55.353 6.732L55.053 5.832L54.825 5.388L54.561 5.028L54.225 4.656L53.877 4.356L53.601 4.164L53.241 4.008L53.061 3.876L52.137 3.588L51.441 3.468L51.117 3.456L49.845 3.636L48.945 3.972L48.765 4.104L48.549 4.212L48.141 4.512L47.553 5.196L47.181 5.832L47.001 6.288L46.797 7.212L46.761 8.184L46.797 8.436L46.857 8.652L46.881 8.88L46.989 9.336L47.541 10.428L47.685 10.572L47.841 10.764L48.021 10.932L48.153 11.088L48.549 11.4L49.485 11.88L49.833 12L50.097 12.024L50.529 12.12L50.781 12.144ZM51.453 10.02H50.793L50.529 9.984L50.097 9.804L49.905 9.696L49.581 9.432L49.425 9.264L49.257 9.036L49.197 8.844L49.089 8.628L48.993 8.184V7.452L49.053 7.236L49.089 7.008L49.185 6.792L49.257 6.576L49.545 6.192L50.145 5.784L50.301 5.724L50.769 5.604L51.105 5.58L51.681 5.652L51.897 5.7L52.113 5.796L52.485 6.06L52.953 6.552L53.097 7.008L53.205 7.236L53.241 7.452L53.217 8.184L53.121 8.628L53.037 8.844L52.905 9.06L52.833 9.24L52.665 9.432L52.089 9.828L51.873 9.888L51.693 9.972L51.453 10.02ZM59.4541 12.096L60.0301 12.144L60.6301 12.12L61.1101 12.012L61.3621 11.916L61.6021 11.856L61.7941 11.736L62.0101 11.64L62.2021 11.508L62.7421 11.028L62.8741 10.812L63.0301 10.632L63.1021 10.392L63.2221 10.188L63.3061 9.96L63.3901 8.748L63.3541 7.776L63.4021 7.524V7.308L63.3541 7.068L63.3421 6.84L63.3661 6.588L63.3541 6.252L63.3781 5.88L63.3661 5.616L63.4021 5.388L63.3661 5.148L63.3781 4.176L63.3421 3.972L63.2461 3.708L62.8621 3.6L61.7341 3.588L61.4701 3.696L61.3501 3.96L61.3621 5.136L61.3381 5.376L61.3501 5.844L61.3261 6.096L61.3621 6.348L61.3261 7.296L61.3741 7.512L61.3501 7.776L61.3621 8.208L61.3381 8.448L61.3501 9.06L61.3021 9.444L61.1941 9.672L61.0861 9.84L60.8941 10.02L60.4141 10.176L60.0901 10.2L59.6941 10.176L59.4781 10.116L59.2141 9.984L59.0341 9.828L58.8901 9.66L58.8181 9.408L58.7941 7.296L58.7581 7.056L58.7461 6.312L58.7701 6.096V5.136L58.7341 4.788V4.56L58.7941 4.2V3.948L58.6621 3.72L58.3741 3.612L57.1141 3.6L56.8741 3.732L56.7661 3.972V4.692L56.7061 4.896L56.7541 5.4L56.7181 5.856L56.7781 6.576L56.7301 6.804L56.7661 7.068L56.7421 7.296L56.7541 7.536L56.7301 7.764L56.7661 8.244L56.7541 9.108L56.7901 9.456V9.708L56.8621 9.948L56.8981 10.176L56.9701 10.404L57.2101 10.812L57.5341 11.208L57.6901 11.364L58.0981 11.604L58.2781 11.748L58.5061 11.844L58.7821 11.928L58.9621 12.024L59.2261 12.036L59.4541 12.096ZM65.1232 11.616L65.2072 11.88L65.4472 12L65.6752 12.012L66.1672 11.976L66.4192 12H66.7792L67.1512 11.88L67.2352 11.652L67.2592 11.4L67.2112 11.148L67.2472 10.632L67.2232 9.888L67.3312 9.648L67.5712 9.528H67.7872L68.0032 9.516L68.3032 9.612L68.4952 9.816L68.8072 10.236L68.8912 10.464L69.2272 11.064L69.3832 11.292L69.4912 11.496L69.6352 11.688L69.8752 11.904L70.1752 11.976L70.6072 12L70.8712 11.976L71.1112 12H71.5912L71.8552 11.976L72.1072 11.916L72.1552 11.664L71.9992 11.364L71.6152 10.776L71.5072 10.572L71.3632 10.356L71.2432 10.14L71.0872 9.948L70.7272 9.324L70.6912 9.036L70.8232 8.784L71.1592 8.46L71.3032 8.256L71.3872 8.028L71.5192 7.812L71.6032 7.608L71.7352 7.152L71.7472 6.204L71.6872 5.976L71.6512 5.748L71.5912 5.508L71.2672 4.848L71.0992 4.668L70.9912 4.488L70.3912 4.032L69.9712 3.816L68.9752 3.612L68.6752 3.588L68.3272 3.6L68.0632 3.588L67.8232 3.612L67.5592 3.588L67.3552 3.612L66.6352 3.588L66.4072 3.624L65.9152 3.576L65.6872 3.612L65.4232 3.6L65.1952 3.708L65.0992 3.96L65.0632 7.32L65.0992 7.668V8.268L65.0752 8.52L65.0632 8.976L65.0992 9.24L65.0632 9.732L65.1112 10.428L65.0872 10.68L65.1232 11.616ZM67.5712 7.584L67.3672 7.476L67.2472 7.224L67.2112 5.88L67.3552 5.64L67.5952 5.52L67.7872 5.508L68.4472 5.52L68.9992 5.592L69.3712 5.82L69.4912 6L69.5752 6.192L69.5992 6.54L69.5632 6.864L69.4672 7.104L69.3352 7.308L69.1912 7.452L69.0112 7.536L68.0752 7.62L67.8352 7.584H67.5712ZM79.1613 11.784L79.3533 12L79.6413 12.108L79.8813 12.132L80.2053 11.988L80.4093 11.796L80.4813 11.568L80.6853 11.1L80.7933 10.872L80.9133 10.668L81.1053 10.236L81.1773 10.02L81.8973 8.484L82.0413 8.016L82.2933 7.584L82.4253 7.128L82.5573 6.888L82.6173 6.684L82.6773 6.456L82.8453 6.24L82.9053 6.012L83.0613 5.832L83.2413 5.364L83.3013 5.148L83.4333 4.944L83.5173 4.704L83.6373 4.476L83.6853 4.272L83.8053 3.984L83.7333 3.684L83.5293 3.612H82.1133L81.8373 3.708L81.6213 3.936L81.5613 4.152L80.1333 7.668L80.0133 7.896L79.9533 8.112L79.8093 8.328L79.6653 8.352L79.5693 8.136L79.4133 7.68L79.3173 7.464L79.2453 7.224L79.1613 7.032L79.0293 6.816L78.8853 6.336L78.7773 6.144L78.6933 5.928L78.6453 5.688L78.2253 4.824L78.1893 4.596L78.0693 4.368L77.9853 4.152L77.8773 3.96L77.6733 3.72L77.3973 3.624L76.7253 3.588L76.5213 3.612L76.3053 3.588L76.0533 3.6L75.8013 3.708L75.7773 3.972L75.8253 4.26L75.9333 4.476L76.1133 4.932L76.2213 5.148L76.2933 5.364L76.4253 5.592L76.6173 6.06L76.7373 6.276L77.0973 7.152L77.2173 7.344L78.0093 9.132L78.0693 9.336L78.2733 9.768L78.3453 9.996L78.6573 10.692L78.7773 10.872L78.8373 11.124L79.1613 11.784ZM88.1169 12.144L88.7889 12.132L89.5089 12.036L90.4089 11.736L90.8049 11.52L90.9849 11.376L91.2129 11.268L91.5489 10.98L91.7049 10.764L91.8729 10.596L92.4009 9.792L92.5809 9.336L92.6769 8.88L92.6889 8.664L92.7489 8.424L92.7609 8.172L92.8089 7.824L92.7729 7.224L92.6889 6.732L92.3889 5.832L92.1609 5.388L91.8969 5.028L91.5609 4.656L91.2129 4.356L90.9369 4.164L90.5769 4.008L90.3969 3.876L89.4729 3.588L88.7769 3.468L88.4529 3.456L87.1809 3.636L86.2809 3.972L86.1009 4.104L85.8849 4.212L85.4769 4.512L84.8889 5.196L84.5169 5.832L84.3369 6.288L84.1329 7.212L84.0969 8.184L84.1329 8.436L84.1929 8.652L84.2169 8.88L84.3249 9.336L84.8769 10.428L85.0209 10.572L85.1769 10.764L85.3569 10.932L85.4889 11.088L85.8849 11.4L86.8209 11.88L87.1689 12L87.4329 12.024L87.8649 12.12L88.1169 12.144ZM88.7889 10.02H88.1289L87.8649 9.984L87.4329 9.804L87.2409 9.696L86.9169 9.432L86.7609 9.264L86.5929 9.036L86.5329 8.844L86.4249 8.628L86.3289 8.184V7.452L86.3889 7.236L86.4249 7.008L86.5209 6.792L86.5929 6.576L86.8809 6.192L87.4809 5.784L87.6369 5.724L88.1049 5.604L88.4409 5.58L89.0169 5.652L89.2329 5.7L89.4489 5.796L89.8209 6.06L90.2889 6.552L90.4329 7.008L90.5409 7.236L90.5769 7.452L90.5529 8.184L90.4569 8.628L90.3729 8.844L90.2409 9.06L90.1689 9.24L90.0009 9.432L89.4249 9.828L89.2089 9.888L89.0289 9.972L88.7889 10.02ZM94.15 11.652L94.258 11.868L94.642 12.012L98.89 11.988L99.226 11.868L99.358 11.652L99.334 11.388L99.346 11.148L99.37 10.932L99.334 10.668L99.37 10.44L99.214 10.176L99.022 10.056L98.758 10.092L96.646 10.068L96.394 9.96L96.322 9.696L96.334 9.252L96.298 9.024L96.31 8.76L96.286 8.52L96.31 8.268L96.298 7.668L96.334 7.332L96.298 7.068L96.334 6.816L96.298 4.944L96.322 4.68L96.298 4.092L96.178 3.732L95.866 3.588L94.618 3.612L94.27 3.744L94.114 4.068L94.186 4.692L94.162 4.92L94.126 5.172L94.162 5.412L94.186 5.64L94.15 5.904L94.162 6.132L94.138 6.372L94.174 6.624L94.138 6.84L94.162 7.08L94.126 7.308L94.162 7.824L94.126 8.052L94.162 8.532L94.126 8.772L94.138 9.252L94.162 9.468L94.15 10.932L94.174 11.172L94.126 11.4L94.15 11.652ZM103.177 12.096L103.753 12.144L104.353 12.12L104.833 12.012L105.085 11.916L105.325 11.856L105.517 11.736L105.733 11.64L105.925 11.508L106.465 11.028L106.597 10.812L106.753 10.632L106.825 10.392L106.945 10.188L107.029 9.96L107.113 8.748L107.077 7.776L107.125 7.524V7.308L107.077 7.068L107.065 6.84L107.089 6.588L107.077 6.252L107.101 5.88L107.089 5.616L107.125 5.388L107.089 5.148L107.101 4.176L107.065 3.972L106.969 3.708L106.585 3.6L105.457 3.588L105.193 3.696L105.073 3.96L105.085 5.136L105.061 5.376L105.073 5.844L105.049 6.096L105.085 6.348L105.049 7.296L105.097 7.512L105.073 7.776L105.085 8.208L105.061 8.448L105.073 9.06L105.025 9.444L104.917 9.672L104.809 9.84L104.617 10.02L104.137 10.176L103.813 10.2L103.417 10.176L103.201 10.116L102.937 9.984L102.757 9.828L102.613 9.66L102.541 9.408L102.517 7.296L102.481 7.056L102.469 6.312L102.493 6.096V5.136L102.457 4.788V4.56L102.517 4.2V3.948L102.385 3.72L102.097 3.612L100.837 3.6L100.597 3.732L100.489 3.972V4.692L100.429 4.896L100.477 5.4L100.441 5.856L100.501 6.576L100.453 6.804L100.489 7.068L100.465 7.296L100.477 7.536L100.453 7.764L100.489 8.244L100.477 9.108L100.513 9.456V9.708L100.585 9.948L100.621 10.176L100.693 10.404L100.933 10.812L101.257 11.208L101.413 11.364L101.821 11.604L102.001 11.748L102.229 11.844L102.505 11.928L102.685 12.024L102.949 12.036L103.177 12.096ZM108.81 11.652L108.918 11.868L109.206 12L110.526 11.976L110.886 11.868L111.018 11.676L111.042 11.448L111.03 11.196L110.994 10.944L111.03 9.324L110.982 8.628L111.09 8.46L111.27 8.508L111.57 8.88L112.242 9.516L112.398 9.72L112.794 10.044H113.07L113.274 9.9L114.282 8.88L114.438 8.676L114.606 8.508L114.75 8.484L114.846 8.628L114.882 8.868L114.846 9.096L114.858 9.312L114.846 9.552L114.882 9.996L114.846 11.652L114.966 11.904L115.23 12L116.67 12.012L116.898 11.868L117.03 11.616L117.066 11.376L117.018 9.936L117.042 9.708L117.018 9.24L117.054 9L117.042 8.76L117.066 8.508L117.042 8.268L117.078 8.052L117.042 4.656L117.066 4.404L117.042 4.2L117.054 3.948L116.922 3.72L116.682 3.576L116.322 3.684L116.022 3.852L115.746 4.188L115.062 4.896L114.954 5.076L113.178 6.96L112.914 7.044L112.698 6.972L112.542 6.816L112.398 6.612L112.206 6.456L112.062 6.264L111.234 5.412L110.946 5.052L110.742 4.872L110.586 4.704L110.454 4.524L110.286 4.368L110.154 4.2L109.89 3.924L109.542 3.672L109.194 3.576L108.954 3.708L108.822 3.948L108.798 4.2L108.834 9.492L108.786 9.72L108.834 11.424L108.81 11.652ZM118.817 11.652L118.973 11.88L119.201 12.012L121.913 11.988L122.129 12.024L122.861 11.988L123.593 12.036L123.821 12.012L124.073 11.892L124.181 11.664L124.205 11.436L124.193 10.692L124.217 10.464L124.061 10.224L123.701 10.104L122.117 10.08L121.889 10.116L121.625 10.092L121.361 10.116L121.109 9.972L121.001 9.6L121.013 9.012L121.121 8.76L121.337 8.628H121.805L122.045 8.604L122.681 8.64L123.005 8.616L123.257 8.64L123.473 8.628L123.713 8.496L123.833 8.268L123.857 7.32L123.833 7.08L123.725 6.852L123.521 6.72L123.041 6.708L122.801 6.732H122.549L122.273 6.708L121.325 6.72L121.121 6.588L120.977 6.372L120.953 6L121.073 5.652L121.445 5.544L123.749 5.532L124.001 5.4L124.133 5.184L124.109 4.692L124.073 4.464L124.085 4.2L124.121 3.972L124.001 3.732L123.749 3.624L122.789 3.612L122.573 3.636L122.333 3.6L121.805 3.624L121.565 3.6L121.097 3.612L120.881 3.588L119.309 3.624L118.961 3.708L118.841 3.972L118.865 4.452L118.817 4.8L118.865 5.412L118.841 5.664L118.865 5.88V8.028L118.829 8.28L118.865 8.748L118.841 9.228L118.877 9.48L118.853 9.744L118.865 9.972L118.829 10.188L118.853 10.464V10.704L118.877 11.172L118.865 11.412L118.817 11.652ZM131.63 12.096L132.206 12.144L132.806 12.12L133.286 12.012L133.538 11.916L133.778 11.856L133.97 11.736L134.186 11.64L134.378 11.508L134.918 11.028L135.05 10.812L135.206 10.632L135.278 10.392L135.398 10.188L135.482 9.96L135.566 8.748L135.53 7.776L135.578 7.524V7.308L135.53 7.068L135.518 6.84L135.542 6.588L135.53 6.252L135.554 5.88L135.542 5.616L135.578 5.388L135.542 5.148L135.554 4.176L135.518 3.972L135.422 3.708L135.038 3.6L133.91 3.588L133.646 3.696L133.526 3.96L133.538 5.136L133.514 5.376L133.526 5.844L133.502 6.096L133.538 6.348L133.502 7.296L133.55 7.512L133.526 7.776L133.538 8.208L133.514 8.448L133.526 9.06L133.478 9.444L133.37 9.672L133.262 9.84L133.07 10.02L132.59 10.176L132.266 10.2L131.87 10.176L131.654 10.116L131.39 9.984L131.21 9.828L131.066 9.66L130.994 9.408L130.97 7.296L130.934 7.056L130.922 6.312L130.946 6.096V5.136L130.91 4.788V4.56L130.97 4.2V3.948L130.838 3.72L130.55 3.612L129.29 3.6L129.05 3.732L128.942 3.972V4.692L128.882 4.896L128.93 5.4L128.894 5.856L128.954 6.576L128.906 6.804L128.942 7.068L128.918 7.296L128.93 7.536L128.906 7.764L128.942 8.244L128.93 9.108L128.966 9.456V9.708L129.038 9.948L129.074 10.176L129.146 10.404L129.386 10.812L129.71 11.208L129.866 11.364L130.274 11.604L130.454 11.748L130.682 11.844L130.958 11.928L131.138 12.024L131.402 12.036L131.63 12.096ZM137.263 11.628L137.359 11.88L137.611 11.976L137.851 12L138.559 11.988L138.823 12.012H139.075L139.315 11.88L139.423 11.628L139.435 11.148L139.411 10.92L139.447 10.704L139.423 10.44V10.188L139.507 9.984L139.831 9.864L140.095 9.828L140.455 9.864L141.079 9.852L141.571 9.756L142.267 9.552L142.675 9.3L142.867 9.156L143.227 8.808L143.611 8.232L143.719 8.016L143.803 7.8L143.911 7.308L143.935 7.092L143.947 6.384L143.731 5.448L143.491 5.016L143.335 4.812L143.179 4.644L143.047 4.464L142.843 4.284L142.483 4.044L142.051 3.816L141.799 3.768L141.559 3.672L141.343 3.624L137.755 3.612L137.431 3.72L137.311 3.948L137.287 4.2V4.692L137.251 4.908V5.136L137.287 5.388V6.612L137.263 6.852L137.287 7.068L137.263 7.332L137.299 7.824L137.251 8.148L137.287 8.508L137.263 8.736V9.24L137.299 9.468L137.263 9.948L137.299 10.704L137.239 10.944L137.287 11.172L137.251 11.4L137.263 11.628ZM139.807 7.908L139.579 7.8L139.435 7.56L139.411 5.892L139.555 5.628L139.795 5.532L140.095 5.508L141.055 5.556L141.259 5.664L141.439 5.796L141.631 5.976L141.751 6.18L141.859 6.744L141.727 7.296L141.451 7.632L141.259 7.764L141.067 7.872L140.083 7.932L139.807 7.908ZM148.103 11.664L148.223 11.892L148.595 12.024L149.915 12.012L150.155 11.892L150.311 11.52L150.299 11.148L150.323 10.896L150.287 10.38L150.299 10.152L150.287 9.924L150.311 9.672L150.419 9.42L150.779 9.3L152.651 9.288L152.879 9.18L153.011 8.94L152.999 8.676L153.023 7.956L152.987 7.728L152.867 7.476L152.507 7.356H150.683L150.407 7.26L150.275 7.044V6.336L150.311 6.084L150.299 5.88L150.419 5.64L150.767 5.52L151.115 5.532L151.463 5.508L152.051 5.544L152.291 5.52L152.783 5.544L153.023 5.508L153.251 5.4L153.335 5.16V4.932L153.359 4.692L153.335 4.464L153.359 4.212L153.335 3.96L153.215 3.732L152.999 3.624L152.711 3.588L152.279 3.624L152.027 3.612L151.775 3.624L151.547 3.6L151.319 3.624H148.451L148.223 3.744L148.091 3.972L148.139 5.412L148.115 5.64L148.103 7.344L148.139 7.56L148.115 7.788V8.028L148.091 8.292L148.139 8.664L148.103 11.148L148.127 11.424L148.103 11.664ZM158.254 12.144L158.926 12.132L159.646 12.036L160.546 11.736L160.942 11.52L161.122 11.376L161.35 11.268L161.686 10.98L161.842 10.764L162.01 10.596L162.538 9.792L162.718 9.336L162.814 8.88L162.826 8.664L162.886 8.424L162.898 8.172L162.946 7.824L162.91 7.224L162.826 6.732L162.526 5.832L162.298 5.388L162.034 5.028L161.698 4.656L161.35 4.356L161.074 4.164L160.714 4.008L160.534 3.876L159.61 3.588L158.914 3.468L158.59 3.456L157.318 3.636L156.418 3.972L156.238 4.104L156.022 4.212L155.614 4.512L155.026 5.196L154.654 5.832L154.474 6.288L154.27 7.212L154.234 8.184L154.27 8.436L154.33 8.652L154.354 8.88L154.462 9.336L155.014 10.428L155.158 10.572L155.314 10.764L155.494 10.932L155.626 11.088L156.022 11.4L156.958 11.88L157.306 12L157.57 12.024L158.002 12.12L158.254 12.144ZM158.926 10.02H158.266L158.002 9.984L157.57 9.804L157.378 9.696L157.054 9.432L156.898 9.264L156.73 9.036L156.67 8.844L156.562 8.628L156.466 8.184V7.452L156.526 7.236L156.562 7.008L156.658 6.792L156.73 6.576L157.018 6.192L157.618 5.784L157.774 5.724L158.242 5.604L158.578 5.58L159.154 5.652L159.37 5.7L159.586 5.796L159.958 6.06L160.426 6.552L160.57 7.008L160.678 7.236L160.714 7.452L160.69 8.184L160.594 8.628L160.51 8.844L160.378 9.06L160.306 9.24L160.138 9.432L159.562 9.828L159.346 9.888L159.166 9.972L158.926 10.02ZM164.311 11.616L164.395 11.88L164.635 12L164.863 12.012L165.355 11.976L165.607 12H165.967L166.339 11.88L166.423 11.652L166.447 11.4L166.399 11.148L166.435 10.632L166.411 9.888L166.519 9.648L166.759 9.528H166.975L167.191 9.516L167.491 9.612L167.683 9.816L167.995 10.236L168.079 10.464L168.415 11.064L168.571 11.292L168.679 11.496L168.823 11.688L169.063 11.904L169.363 11.976L169.795 12L170.059 11.976L170.299 12H170.779L171.043 11.976L171.295 11.916L171.343 11.664L171.187 11.364L170.803 10.776L170.695 10.572L170.551 10.356L170.431 10.14L170.275 9.948L169.915 9.324L169.879 9.036L170.011 8.784L170.347 8.46L170.491 8.256L170.575 8.028L170.707 7.812L170.791 7.608L170.923 7.152L170.935 6.204L170.875 5.976L170.839 5.748L170.779 5.508L170.455 4.848L170.287 4.668L170.179 4.488L169.579 4.032L169.159 3.816L168.163 3.612L167.863 3.588L167.515 3.6L167.251 3.588L167.011 3.612L166.747 3.588L166.543 3.612L165.823 3.588L165.595 3.624L165.103 3.576L164.875 3.612L164.611 3.6L164.383 3.708L164.287 3.96L164.251 7.32L164.287 7.668V8.268L164.263 8.52L164.251 8.976L164.287 9.24L164.251 9.732L164.299 10.428L164.275 10.68L164.311 11.616ZM166.759 7.584L166.555 7.476L166.435 7.224L166.399 5.88L166.543 5.64L166.783 5.52L166.975 5.508L167.635 5.52L168.187 5.592L168.559 5.82L168.679 6L168.763 6.192L168.787 6.54L168.751 6.864L168.655 7.104L168.523 7.308L168.379 7.452L168.199 7.536L167.263 7.62L167.023 7.584H166.759ZM177.269 11.628L177.365 11.88L177.617 12L177.845 11.976L178.085 12L178.313 11.976H179.057L179.297 11.88L179.393 11.64L179.381 11.412L179.405 11.136L179.393 10.656L179.357 10.452L179.393 10.2L179.417 9.468L179.393 9.252L179.429 8.748L179.381 6.36L179.417 6.12L179.393 5.856L179.489 5.64L179.753 5.532L179.957 5.52L180.197 5.532L180.413 5.508L181.073 5.52L181.349 5.412L181.469 5.172L181.445 4.92L181.469 3.936L181.349 3.696L181.109 3.576L180.821 3.6L180.629 3.576H180.401L180.137 3.612H179.897L179.657 3.588H179.417L179.141 3.624L175.565 3.6L175.301 3.72L175.181 3.96L175.169 5.16L175.301 5.424L175.541 5.544L175.853 5.508L176.921 5.52L177.137 5.652L177.257 5.88L177.293 7.2L177.257 7.572L177.281 7.8L177.257 8.04V8.52L177.293 8.868L177.245 9.228L177.257 9.468L177.245 9.72L177.281 10.452L177.257 10.692L177.269 11.628ZM182.463 11.664L182.559 11.916L182.835 12.024H183.063L183.435 11.988L183.783 12L184.035 12.036L184.287 12.012L184.551 11.904L184.647 11.664L184.659 11.424L184.623 11.16L184.647 10.944L184.623 10.704L184.647 10.476L184.635 10.212L184.659 9.96L184.623 9.012L184.743 8.76L184.983 8.616H185.235L185.451 8.64H186.159L186.399 8.616L186.639 8.64H186.867L187.083 8.76L187.203 9L187.239 9.732L187.203 9.96L187.251 10.812L187.203 11.172L187.239 11.64L187.359 11.892L187.599 12.012L187.839 11.988L188.199 12.024H189.027L189.267 11.892L189.399 11.664L189.447 11.172V9.24L189.399 8.784L189.411 8.544L189.387 8.292V8.052L189.423 7.8L189.411 7.344L189.435 7.08L189.399 5.904L189.459 4.908L189.411 4.68L189.387 4.452L189.435 4.212L189.411 3.972L189.291 3.732L188.919 3.612L188.307 3.6L187.923 3.636H187.683L187.323 3.744L187.227 4.092L187.251 5.4L187.203 5.604V6.3L187.071 6.54L186.867 6.66H186.387L186.171 6.636L185.007 6.648L184.755 6.54L184.659 6.312V5.592L184.683 5.376L184.647 4.188L184.659 3.984L184.515 3.732L184.143 3.612L183.435 3.636L183.195 3.612L182.967 3.636L182.595 3.744L182.463 3.948L182.427 4.212V4.44L182.451 4.704L182.415 4.932L182.475 5.652L182.439 5.916L182.463 6.12L182.415 6.36L182.463 7.092L182.439 7.344V8.04L182.475 8.268L182.451 8.64L182.475 8.916L182.439 9.48L182.463 9.744L182.427 9.984L182.463 10.2L182.439 10.44L182.463 11.664ZM191.204 11.652L191.36 11.88L191.588 12.012L194.3 11.988L194.516 12.024L195.248 11.988L195.98 12.036L196.208 12.012L196.46 11.892L196.568 11.664L196.592 11.436L196.58 10.692L196.604 10.464L196.448 10.224L196.088 10.104L194.504 10.08L194.276 10.116L194.012 10.092L193.748 10.116L193.496 9.972L193.388 9.6L193.4 9.012L193.508 8.76L193.724 8.628H194.192L194.432 8.604L195.068 8.64L195.392 8.616L195.644 8.64L195.86 8.628L196.1 8.496L196.22 8.268L196.244 7.32L196.22 7.08L196.112 6.852L195.908 6.72L195.428 6.708L195.188 6.732H194.936L194.66 6.708L193.712 6.72L193.508 6.588L193.364 6.372L193.34 6L193.46 5.652L193.832 5.544L196.136 5.532L196.388 5.4L196.52 5.184L196.496 4.692L196.46 4.464L196.472 4.2L196.508 3.972L196.388 3.732L196.136 3.624L195.176 3.612L194.96 3.636L194.72 3.6L194.192 3.624L193.952 3.6L193.484 3.612L193.268 3.588L191.696 3.624L191.348 3.708L191.228 3.972L191.252 4.452L191.204 4.8L191.252 5.412L191.228 5.664L191.252 5.88V8.028L191.216 8.28L191.252 8.748L191.228 9.228L191.264 9.48L191.24 9.744L191.252 9.972L191.216 10.188L191.24 10.464V10.704L191.264 11.172L191.252 11.412L191.204 11.652ZM201.353 11.64L201.485 11.916L201.713 12.024L205.685 11.976L206.141 11.916L206.537 11.76L206.993 11.496L207.149 11.376L207.341 11.196L207.617 10.8L207.725 10.572L207.773 10.368L207.869 10.128L207.881 9.168L207.833 8.94L207.749 8.688L207.533 8.268L207.365 8.064L207.185 7.884L207.077 7.62L207.125 7.38L207.257 7.14L207.401 6.936L207.569 6.072L207.557 5.724L207.425 5.28L207.305 5.052L207.233 4.824L206.945 4.44L206.777 4.272L206.417 4.02L205.973 3.78L205.301 3.624L201.689 3.6L201.449 3.708L201.341 3.96L201.365 4.476L201.341 4.824L201.389 5.628L201.353 5.88L201.377 6.132L201.353 6.36L201.365 6.612L201.341 6.84V7.8L201.377 8.052L201.353 8.28V8.76L201.377 8.988L201.353 9.972L201.389 10.464L201.341 11.184L201.353 11.64ZM203.813 6.852L203.525 6.756L203.405 6.516L203.453 6.312V6.084L203.429 5.856L203.561 5.652L203.813 5.52L204.677 5.556L205.049 5.628L205.193 5.724L205.349 5.892L205.385 6.216L205.325 6.576L205.121 6.768L204.713 6.852H203.813ZM203.777 10.092L203.573 9.996L203.441 9.744L203.453 9.54L203.429 9.312L203.441 9.072L203.525 8.856L203.765 8.736H205.037L205.373 8.796L205.553 8.928L205.733 9.096L205.757 9.432L205.733 9.744L205.577 9.912L205.361 10.044L204.713 10.104L203.777 10.092ZM209.262 11.652L209.418 11.88L209.646 12.012L212.358 11.988L212.574 12.024L213.306 11.988L214.038 12.036L214.266 12.012L214.518 11.892L214.626 11.664L214.65 11.436L214.638 10.692L214.662 10.464L214.506 10.224L214.146 10.104L212.562 10.08L212.334 10.116L212.07 10.092L211.806 10.116L211.554 9.972L211.446 9.6L211.458 9.012L211.566 8.76L211.782 8.628H212.25L212.49 8.604L213.126 8.64L213.45 8.616L213.702 8.64L213.918 8.628L214.158 8.496L214.278 8.268L214.302 7.32L214.278 7.08L214.17 6.852L213.966 6.72L213.486 6.708L213.246 6.732H212.994L212.718 6.708L211.77 6.72L211.566 6.588L211.422 6.372L211.398 6L211.518 5.652L211.89 5.544L214.194 5.532L214.446 5.4L214.578 5.184L214.554 4.692L214.518 4.464L214.53 4.2L214.566 3.972L214.446 3.732L214.194 3.624L213.234 3.612L213.018 3.636L212.778 3.6L212.25 3.624L212.01 3.6L211.542 3.612L211.326 3.588L209.754 3.624L209.406 3.708L209.286 3.972L209.31 4.452L209.262 4.8L209.31 5.412L209.286 5.664L209.31 5.88V8.028L209.274 8.28L209.31 8.748L209.286 9.228L209.322 9.48L209.298 9.744L209.31 9.972L209.274 10.188L209.298 10.464V10.704L209.322 11.172L209.31 11.412L209.262 11.652ZM218.757 12.096L219.105 12.132L219.489 12.12L220.665 11.892L221.289 11.556L221.673 11.292L222.009 10.908L222.249 10.524L222.345 10.308L222.417 10.068L222.453 9.852L222.465 9.108L222.429 8.868L222.369 8.64L222.129 8.196L221.841 7.824L221.637 7.656L221.001 7.368L220.017 7.128L218.805 6.972L218.301 6.792L218.121 6.696L217.929 6.504L217.917 6.18L217.953 5.868L218.085 5.7L218.289 5.544L218.457 5.472L218.673 5.424L219.441 5.4L219.705 5.496L219.885 5.64L220.281 6.06L220.653 6.18L221.445 6.204L221.661 6.18L221.889 6.204L222.117 6.06L222.225 5.832L222.129 5.364L221.937 4.932L221.781 4.74L221.661 4.548L221.505 4.368L220.737 3.84L220.077 3.612L219.825 3.564L219.609 3.54L219.345 3.48L218.673 3.492L217.725 3.684L217.509 3.768L217.317 3.888L217.125 3.96L216.885 4.104L216.717 4.26L216.501 4.404L216.369 4.608L216.213 4.764L216.129 4.98L216.009 5.172L215.841 5.868L215.853 6.672L215.937 7.008L216.093 7.428L216.393 7.824L216.729 8.136L217.149 8.388L217.833 8.616L218.265 8.712L219.249 8.784L219.465 8.82L219.705 8.832L220.137 9.012L220.305 9.156L220.365 9.468L220.293 9.78L220.101 9.948L219.909 10.056L219.465 10.188L219.129 10.2L218.769 10.176L218.493 10.104L218.313 10.02L218.097 9.888L217.917 9.72L217.737 9.48L217.497 9.384L216.585 9.36L216.345 9.384L216.105 9.372L215.865 9.48L215.781 9.732L215.805 9.996L215.853 10.212L216.045 10.692L216.345 11.064L216.693 11.412L216.897 11.544L217.761 11.94L218.025 11.976L218.253 12.06L218.757 12.096ZM224.917 11.628L225.013 11.88L225.265 12L225.493 11.976L225.733 12L225.961 11.976H226.705L226.945 11.88L227.041 11.64L227.029 11.412L227.053 11.136L227.041 10.656L227.005 10.452L227.041 10.2L227.065 9.468L227.041 9.252L227.077 8.748L227.029 6.36L227.065 6.12L227.041 5.856L227.137 5.64L227.401 5.532L227.605 5.52L227.845 5.532L228.061 5.508L228.721 5.52L228.997 5.412L229.117 5.172L229.093 4.92L229.117 3.936L228.997 3.696L228.757 3.576L228.469 3.6L228.277 3.576H228.049L227.785 3.612H227.545L227.305 3.588H227.065L226.789 3.624L223.213 3.6L222.949 3.72L222.829 3.96L222.817 5.16L222.949 5.424L223.189 5.544L223.501 5.508L224.569 5.52L224.785 5.652L224.905 5.88L224.941 7.2L224.905 7.572L224.929 7.8L224.905 8.04V8.52L224.941 8.868L224.893 9.228L224.905 9.468L224.893 9.72L224.929 10.452L224.905 10.692L224.917 11.628ZM233.11 11.652L233.266 11.88L233.494 12.012L236.206 11.988L236.422 12.024L237.154 11.988L237.886 12.036L238.114 12.012L238.366 11.892L238.474 11.664L238.498 11.436L238.486 10.692L238.51 10.464L238.354 10.224L237.994 10.104L236.41 10.08L236.182 10.116L235.918 10.092L235.654 10.116L235.402 9.972L235.294 9.6L235.306 9.012L235.414 8.76L235.63 8.628H236.098L236.338 8.604L236.974 8.64L237.298 8.616L237.55 8.64L237.766 8.628L238.006 8.496L238.126 8.268L238.15 7.32L238.126 7.08L238.018 6.852L237.814 6.72L237.334 6.708L237.094 6.732H236.842L236.566 6.708L235.618 6.72L235.414 6.588L235.27 6.372L235.246 6L235.366 5.652L235.738 5.544L238.042 5.532L238.294 5.4L238.426 5.184L238.402 4.692L238.366 4.464L238.378 4.2L238.414 3.972L238.294 3.732L238.042 3.624L237.082 3.612L236.866 3.636L236.626 3.6L236.098 3.624L235.858 3.6L235.39 3.612L235.174 3.588L233.602 3.624L233.254 3.708L233.134 3.972L233.158 4.452L233.11 4.8L233.158 5.412L233.134 5.664L233.158 5.88V8.028L233.122 8.28L233.158 8.748L233.134 9.228L233.17 9.48L233.146 9.744L233.158 9.972L233.122 10.188L233.146 10.464V10.704L233.17 11.172L233.158 11.412L233.11 11.652ZM239.281 11.664L239.353 11.928L239.593 12.024L239.833 12.012L240.037 12.024L240.277 12H241.177L241.477 11.904L241.729 11.712L241.993 11.304L242.533 10.284L243.061 9.468L243.217 9.444L243.349 9.66L243.433 9.888L243.601 10.092L243.673 10.284L244.537 11.724L244.777 11.928L245.041 12.012L245.509 12L245.713 12.024L246.685 12L246.877 11.928L246.925 11.676L246.817 11.376L246.313 10.596L246.157 10.404L246.049 10.212L245.893 10.044L245.797 9.828L245.653 9.624L245.485 9.444L245.365 9.216L245.245 9.036L245.005 8.616L244.849 8.448L244.609 8.04L244.441 7.836L244.405 7.548L244.501 7.26L244.633 7.056L244.729 6.852L244.873 6.648L245.053 6.456L246.649 3.96L246.565 3.72L246.325 3.636L245.869 3.6L245.617 3.624L245.221 3.6L244.993 3.612L244.561 3.708L244.333 3.924L243.973 4.488L243.817 4.68L243.457 5.316L243.313 5.52L243.205 5.712L243.049 5.724L242.881 5.496L242.305 4.5L242.149 4.32L242.053 4.116L241.909 3.912L241.705 3.708L241.393 3.612L239.905 3.6L239.605 3.684L239.569 3.984L239.869 4.452L240.013 4.656L240.133 4.86L240.301 5.028L240.805 5.844L240.949 6.036L241.213 6.468L241.369 6.636L241.489 6.84L241.585 7.08L241.729 7.284L241.813 7.572L241.753 7.86L241.633 8.028L241.465 8.244L241.369 8.448L240.961 9.036L240.889 9.216L240.577 9.636L240.481 9.804L240.289 10.032L240.193 10.236L239.473 11.292L239.281 11.664ZM247.97 11.628L248.066 11.88L248.318 11.976L248.558 12L249.266 11.988L249.53 12.012H249.782L250.022 11.88L250.13 11.628L250.142 11.148L250.118 10.92L250.154 10.704L250.13 10.44V10.188L250.214 9.984L250.538 9.864L250.802 9.828L251.162 9.864L251.786 9.852L252.278 9.756L252.974 9.552L253.382 9.3L253.574 9.156L253.934 8.808L254.318 8.232L254.426 8.016L254.51 7.8L254.618 7.308L254.642 7.092L254.654 6.384L254.438 5.448L254.198 5.016L254.042 4.812L253.886 4.644L253.754 4.464L253.55 4.284L253.19 4.044L252.758 3.816L252.506 3.768L252.266 3.672L252.05 3.624L248.462 3.612L248.138 3.72L248.018 3.948L247.994 4.2V4.692L247.958 4.908V5.136L247.994 5.388V6.612L247.97 6.852L247.994 7.068L247.97 7.332L248.006 7.824L247.958 8.148L247.994 8.508L247.97 8.736V9.24L248.006 9.468L247.97 9.948L248.006 10.704L247.946 10.944L247.994 11.172L247.958 11.4L247.97 11.628ZM250.514 7.908L250.286 7.8L250.142 7.56L250.118 5.892L250.262 5.628L250.502 5.532L250.802 5.508L251.762 5.556L251.966 5.664L252.146 5.796L252.338 5.976L252.458 6.18L252.566 6.744L252.434 7.296L252.158 7.632L251.966 7.764L251.774 7.872L250.79 7.932L250.514 7.908ZM255.844 11.652L256 11.88L256.228 12.012L258.94 11.988L259.156 12.024L259.888 11.988L260.62 12.036L260.848 12.012L261.1 11.892L261.208 11.664L261.232 11.436L261.22 10.692L261.244 10.464L261.088 10.224L260.728 10.104L259.144 10.08L258.916 10.116L258.652 10.092L258.388 10.116L258.136 9.972L258.028 9.6L258.04 9.012L258.148 8.76L258.364 8.628H258.832L259.072 8.604L259.708 8.64L260.032 8.616L260.284 8.64L260.5 8.628L260.74 8.496L260.86 8.268L260.884 7.32L260.86 7.08L260.752 6.852L260.548 6.72L260.068 6.708L259.828 6.732H259.576L259.3 6.708L258.352 6.72L258.148 6.588L258.004 6.372L257.98 6L258.1 5.652L258.472 5.544L260.776 5.532L261.028 5.4L261.16 5.184L261.136 4.692L261.1 4.464L261.112 4.2L261.148 3.972L261.028 3.732L260.776 3.624L259.816 3.612L259.6 3.636L259.36 3.6L258.832 3.624L258.592 3.6L258.124 3.612L257.908 3.588L256.336 3.624L255.988 3.708L255.868 3.972L255.892 4.452L255.844 4.8L255.892 5.412L255.868 5.664L255.892 5.88V8.028L255.856 8.28L255.892 8.748L255.868 9.228L255.904 9.48L255.88 9.744L255.892 9.972L255.856 10.188L255.88 10.464V10.704L255.904 11.172L255.892 11.412L255.844 11.652ZM262.783 11.616L262.867 11.88L263.107 12L263.335 12.012L263.827 11.976L264.079 12H264.439L264.811 11.88L264.895 11.652L264.919 11.4L264.871 11.148L264.907 10.632L264.883 9.888L264.991 9.648L265.231 9.528H265.447L265.663 9.516L265.963 9.612L266.155 9.816L266.467 10.236L266.551 10.464L266.887 11.064L267.043 11.292L267.151 11.496L267.295 11.688L267.535 11.904L267.835 11.976L268.267 12L268.531 11.976L268.771 12H269.251L269.515 11.976L269.767 11.916L269.815 11.664L269.659 11.364L269.275 10.776L269.167 10.572L269.023 10.356L268.903 10.14L268.747 9.948L268.387 9.324L268.351 9.036L268.483 8.784L268.819 8.46L268.963 8.256L269.047 8.028L269.179 7.812L269.263 7.608L269.395 7.152L269.407 6.204L269.347 5.976L269.311 5.748L269.251 5.508L268.927 4.848L268.759 4.668L268.651 4.488L268.051 4.032L267.631 3.816L266.635 3.612L266.335 3.588L265.987 3.6L265.723 3.588L265.483 3.612L265.219 3.588L265.015 3.612L264.295 3.588L264.067 3.624L263.575 3.576L263.347 3.612L263.083 3.6L262.855 3.708L262.759 3.96L262.723 7.32L262.759 7.668V8.268L262.735 8.52L262.723 8.976L262.759 9.24L262.723 9.732L262.771 10.428L262.747 10.68L262.783 11.616ZM265.231 7.584L265.027 7.476L264.907 7.224L264.871 5.88L265.015 5.64L265.255 5.52L265.447 5.508L266.107 5.52L266.659 5.592L267.031 5.82L267.151 6L267.235 6.192L267.259 6.54L267.223 6.864L267.127 7.104L266.995 7.308L266.851 7.452L266.671 7.536L265.735 7.62L265.495 7.584H265.231ZM270.756 11.652L270.876 11.904L271.116 11.988L274.68 12.012L274.908 11.892L275.04 11.676V11.412L275.016 11.196L275.052 10.464L274.884 10.26L274.08 10.008L273.948 9.768L273.972 8.784L273.924 8.304L273.972 7.8L273.948 7.44L273.972 7.068L273.948 6.84L273.972 6.6L273.948 6.348V5.844L274.08 5.628L274.308 5.496L274.572 5.484L274.8 5.352L274.932 5.124V4.416L274.956 4.2L274.932 3.96L274.836 3.72L274.452 3.612L272.928 3.6L272.664 3.624L271.932 3.612L271.704 3.624L271.236 3.6L270.972 3.72L270.84 3.972V4.2L270.816 4.404V4.668L270.84 4.908V5.136L270.96 5.364L271.692 5.616L271.848 5.832L271.812 6.852L271.824 7.056L271.86 7.332L271.848 7.824L271.824 8.064L271.872 8.532L271.812 8.772L271.86 9.288L271.836 9.756L271.716 10.02L270.924 10.272L270.78 10.5L270.756 10.728V11.652ZM276.493 11.652L276.649 11.88L276.877 12.012L279.589 11.988L279.805 12.024L280.537 11.988L281.269 12.036L281.497 12.012L281.749 11.892L281.857 11.664L281.881 11.436L281.869 10.692L281.893 10.464L281.737 10.224L281.377 10.104L279.793 10.08L279.565 10.116L279.301 10.092L279.037 10.116L278.785 9.972L278.677 9.6L278.689 9.012L278.797 8.76L279.013 8.628H279.481L279.721 8.604L280.357 8.64L280.681 8.616L280.933 8.64L281.149 8.628L281.389 8.496L281.509 8.268L281.533 7.32L281.509 7.08L281.401 6.852L281.197 6.72L280.717 6.708L280.477 6.732H280.225L279.949 6.708L279.001 6.72L278.797 6.588L278.653 6.372L278.629 6L278.749 5.652L279.121 5.544L281.425 5.532L281.677 5.4L281.809 5.184L281.785 4.692L281.749 4.464L281.761 4.2L281.797 3.972L281.677 3.732L281.425 3.624L280.465 3.612L280.249 3.636L280.009 3.6L279.481 3.624L279.241 3.6L278.773 3.612L278.557 3.588L276.985 3.624L276.637 3.708L276.517 3.972L276.541 4.452L276.493 4.8L276.541 5.412L276.517 5.664L276.541 5.88V8.028L276.505 8.28L276.541 8.748L276.517 9.228L276.553 9.48L276.529 9.744L276.541 9.972L276.505 10.188L276.529 10.464V10.704L276.553 11.172L276.541 11.412L276.493 11.652ZM289.588 11.808L289.936 11.964L290.248 12.06L290.524 11.928L290.632 11.676L290.692 8.412L290.644 8.076L290.668 7.812L290.62 6.372L290.656 5.892L290.632 5.664V5.184L290.68 4.944L290.656 4.584L290.68 3.96L290.536 3.744L290.272 3.624L290.032 3.6H289.804L289.54 3.624L289.288 3.588L289.072 3.612L288.832 3.6L288.544 3.72L288.424 3.972L288.412 6.156L288.46 6.408V6.636L288.412 6.888L288.424 7.368L288.364 7.56L288.196 7.512L287.668 6.972L287.488 6.828L287.068 6.396L286.876 6.252L286.744 6.084L286.492 5.82L286.12 5.508L285.988 5.328L285.76 5.172L285.64 4.992L285.436 4.848L285.28 4.644L284.632 3.984L284.152 3.66L283.828 3.564L283.54 3.708L283.384 3.936L283.408 5.616L283.384 5.856L283.42 6.348L283.396 6.564L283.408 6.816L283.372 7.068L283.42 8.784L283.396 9V9.228L283.372 9.492V9.72L283.408 9.972L283.396 10.464L283.42 10.704L283.384 11.16L283.42 11.4V11.628L283.528 11.892L283.756 12.024L284.164 12L284.764 12.036L285.016 12L285.292 12.024L285.532 11.904L285.64 11.664L285.604 11.424L285.64 8.484L285.592 8.232L285.712 8.088L285.868 8.124L287.584 9.804L287.776 9.96L288.94 11.124L289.096 11.316L289.288 11.472L289.432 11.652L289.588 11.808ZM295.971 12.12L296.691 12.156L297.855 11.916L298.515 11.628L298.695 11.508L298.911 11.376L299.115 11.232L299.271 11.076L299.403 10.872L299.607 10.716L299.967 10.092L300.075 9.876L300.135 9.648L300.219 9.408L300.255 9.18L300.183 8.964L299.883 8.832L298.599 8.82L298.335 8.94L298.095 9.168L297.999 9.372L297.543 9.864L297.135 10.068L296.895 10.14L296.643 10.164L295.971 10.152L295.323 9.912L295.095 9.804L294.939 9.636L294.495 9.06L294.399 8.856L294.255 8.388L294.219 7.824L294.231 7.44L294.315 7.224L294.327 6.984L294.399 6.768L294.603 6.336L294.903 5.964L295.299 5.676L295.527 5.58L295.947 5.46L296.691 5.484L297.147 5.568L297.399 5.652L297.747 5.94L297.927 6.132L298.035 6.336L298.251 6.564L298.515 6.672L299.727 6.696L299.967 6.672L300.159 6.564L300.231 6.312L300.135 6.072L300.099 5.856L299.907 5.4L299.463 4.788L298.839 4.224L298.575 4.044L297.891 3.732L297.423 3.6L296.823 3.516H295.731L295.527 3.54L295.299 3.612L294.831 3.708L294.603 3.792L294.423 3.9L294.207 3.984L293.367 4.524L293.223 4.716L292.899 5.016L292.755 5.22L292.203 6.3L291.987 7.8L292.035 8.184V8.664L292.155 9.132L292.251 9.36L292.287 9.576L292.407 9.792L292.491 9.996L292.971 10.692L293.403 11.112L293.607 11.244L293.787 11.388L294.603 11.832L294.843 11.916L295.023 11.964L295.275 12.048L295.527 12.072L295.743 12.12H295.971ZM301.571 11.652L301.727 11.88L301.955 12.012L304.667 11.988L304.883 12.024L305.615 11.988L306.347 12.036L306.575 12.012L306.827 11.892L306.935 11.664L306.959 11.436L306.947 10.692L306.971 10.464L306.815 10.224L306.455 10.104L304.871 10.08L304.643 10.116L304.379 10.092L304.115 10.116L303.863 9.972L303.755 9.6L303.767 9.012L303.875 8.76L304.091 8.628H304.559L304.799 8.604L305.435 8.64L305.759 8.616L306.011 8.64L306.227 8.628L306.467 8.496L306.587 8.268L306.611 7.32L306.587 7.08L306.479 6.852L306.275 6.72L305.795 6.708L305.555 6.732H305.303L305.027 6.708L304.079 6.72L303.875 6.588L303.731 6.372L303.707 6L303.827 5.652L304.199 5.544L306.503 5.532L306.755 5.4L306.887 5.184L306.863 4.692L306.827 4.464L306.839 4.2L306.875 3.972L306.755 3.732L306.503 3.624L305.543 3.612L305.327 3.636L305.087 3.6L304.559 3.624L304.319 3.6L303.851 3.612L303.635 3.588L302.063 3.624L301.715 3.708L301.595 3.972L301.619 4.452L301.571 4.8L301.619 5.412L301.595 5.664L301.619 5.88V8.028L301.583 8.28L301.619 8.748L301.595 9.228L301.631 9.48L301.607 9.744L301.619 9.972L301.583 10.188L301.607 10.464V10.704L301.631 11.172L301.619 11.412L301.571 11.652Z" fill="white"/>
</g>
<defs>
<filter id="filter0_d_140_682" x="0.618042" y="0.455994" width="309.353" height="14.7" filterUnits="userSpaceOnUse" color-interpolation-filters="sRGB">
<feFlood flood-opacity="0" result="BackgroundImageFix"/>
<feColorMatrix in="SourceAlpha" type="matrix" values="0 0 0 0 0 0 0 0 0 0 0 0 0 0 0 0 0 0 127 0" result="hardAlpha"/>
<feOffset/>
<feGaussianBlur stdDeviation="1.5"/>
<feComposite in2="hardAlpha" operator="out"/>
<feColorMatrix type="matrix" values="0 0 0 0 0 0 0 0 0 0 0 0 0 0 0 0 0 0 0.33 0"/>
<feBlend mode="normal" in2="BackgroundImageFix" result="effect1_dropShadow_140_682"/>
<feBlend mode="normal" in="SourceGraphic" in2="effect1_dropShadow_140_682" result="shape"/>
</filter>
</defs>
</svg>
