<svg width="320" height="100" viewBox="0 0 320 100" fill="none" xmlns="http://www.w3.org/2000/svg">
<g filter="url(#filter0_dii_67_251)">
<rect x="20" y="20" width="280" height="60" rx="4" fill="#003366"/>
</g>
<g filter="url(#filter1_d_67_251)">
<path d="M69.3155 57.18L70.8955 57.22L71.2955 57.18L71.6955 57.08L72.0955 57.02L72.4955 56.86L72.8555 56.82L73.2355 56.64L74.5955 55.82L75.1755 55.22L75.3755 54.94L75.5955 54.5L75.7155 54.14L75.8355 53.8L75.9555 52.8L75.9155 52.16L75.6155 51L75.3955 50.68L74.8755 50.08L74.5155 49.76L74.1955 49.6L73.8355 49.38L72.2755 48.9L71.8755 48.84L71.4755 48.82L71.0555 48.74H70.4755L69.4155 48.52L68.6755 48.16L68.3755 47.88L68.2955 47.28L68.3955 46.74L68.6355 46.48L68.9355 46.26L69.2555 46.08L69.6155 46L70.2555 45.98L70.8955 46.06L71.2555 46.16L71.6155 46.4L71.9555 46.68L72.2555 47.08L72.6955 47.34L73.6355 47.26L74.1755 47.3H74.5755L74.9355 47.34L75.3155 47.06L75.4755 46.72L75.3955 46.34L75.3555 45.96L74.7955 44.92L74.3555 44.32L73.0355 43.4L71.9155 43.02L71.1355 42.86L69.5955 42.82L69.1555 42.94L68.7555 42.96L68.3955 43.02L67.6355 43.26L66.9555 43.66L65.9955 44.32L65.2955 45.26L64.9355 46.36L64.8755 47.34L64.8955 47.96L65.0355 48.76L65.3555 49.46L66.0955 50.38L67.4555 51.12L68.1755 51.36L71.3155 51.72L72.0355 52.06L72.2955 52.3L72.4155 52.8L72.2555 53.3L71.9955 53.6L71.3155 53.9L70.6955 53.94L70.3355 54L69.3155 53.9L68.9755 53.72L68.6355 53.5L67.9755 52.78L67.5755 52.62L67.2155 52.66L66.8355 52.6L65.2955 52.68L64.9355 52.84L64.7755 53.26L64.8355 53.66L64.9155 54.06L65.0355 54.42L65.4155 55.16L65.6955 55.42L65.9555 55.72L66.6555 56.16L66.9355 56.46L67.3155 56.64L67.7155 56.76L68.4955 57.04L69.3155 57.18ZM81.3821 57.04L82.7221 57L83.3021 56.8L83.5021 56.24L83.5621 55.2L83.5021 54.44L83.5421 54.02L83.5221 53.22L83.5621 52.86L83.5021 52.42L83.5421 49.2L83.4821 48.78L83.5421 47.04L83.7021 46.44L84.0821 46.2L84.8621 46.16L85.6021 46.26L86.0221 46.2L86.3821 46.22L86.7221 46L86.9621 45.56L86.9821 43.66L86.7621 43.26L86.3821 43H85.1421L84.7621 42.96L84.3421 43.02L83.9621 42.98L82.3421 43.06L81.9421 42.98L81.5621 42.96L81.1421 43.02L80.7021 42.98L80.3421 43.06L79.1621 43L78.5421 43.06L77.1421 42.98L76.7621 43.18L76.5221 43.64L76.5421 44.04L76.5021 45.04L76.5421 45.66L76.7221 46.02L77.0821 46.22L77.4821 46.18L79.3821 46.22L79.7621 46.42L79.9821 46.82L79.9421 47.46L79.9821 48.02L79.9621 48.46L79.9821 48.86L79.9421 49.42L80.0021 52.4L79.9621 52.8L79.9421 54.42L79.9821 54.84L79.9621 56L79.9221 56.38L80.1821 56.82L80.7621 57.02L81.3821 57.04ZM98.0207 57.04L98.7807 56.98L99.1607 57.02L99.7807 57L100.341 56.9L100.401 56.42L100.261 55.96L99.9607 55.22L99.4207 54.18L99.1407 53.44L98.7407 52.72L97.9807 50.9L97.7807 50.6L97.5807 50.22L97.4607 49.78L97.2807 49.48L97.1607 49.16L96.7407 48.42L96.6007 48L95.2807 45.22L95.1607 44.82L94.9407 44.46L94.8207 44.1L94.4407 43.4L94.1007 43.04L93.4407 42.84L92.8007 43.06L92.4407 43.4L92.2607 43.74L92.1207 44.14L91.9407 44.42L91.1407 46.26L90.9207 46.56L90.8207 46.96L90.6007 47.34L90.4807 47.7L88.4407 51.98L88.3207 52.42L88.1207 52.72L87.9807 53.12L87.6207 53.76L87.3207 54.56L87.1007 54.84L87.0007 55.2L86.6007 56L86.4807 56.4L86.5807 56.9L86.9807 57.02L87.7607 56.98L88.1607 57.02L89.2807 56.98L89.7407 56.84L90.1207 56.48L90.4807 55.82L90.8607 55.44L91.2807 55.22L91.6607 55.28L92.5007 55.2L92.8607 55.26L94.8207 55.24L95.1807 55.28L95.6207 55.22L96.0607 55.44L96.4407 55.76L96.6207 56.14L96.7407 56.5L97.1407 56.8L97.6007 57L98.0207 57.04ZM93.4807 52.06L93.0807 51.98L92.6207 52.02L92.3007 51.88L92.2807 51.5L93.2207 49.34L93.4407 49.16L93.7207 49.32L94.6607 51.52L94.5807 51.88L94.2807 52.04L93.4807 52.06ZM102.232 56.18L102.432 56.8L103.012 57.06L103.412 57L104.052 57.06L104.372 57.02H104.972L105.612 56.82L105.792 56.24V55.56L105.832 55.2L105.772 54.78L105.812 53.5L105.992 53.1L106.372 52.88L107.532 53.04L107.932 53.38L108.172 53.78L108.332 54.14L108.752 54.74L109.132 55.46L109.352 55.76L109.512 56.16L109.732 56.5L110.172 56.86L110.852 57.04L112.432 57.02L112.812 57.06L113.472 57.04L113.852 56.86L113.972 56.42L113.752 55.98L113.512 55.7L113.352 55.32L112.672 54.3L112.492 53.94L111.852 52.9L111.612 52.6L111.592 52.12L111.772 51.68L112.052 51.38L112.332 51.14L113.112 49.74L113.372 48.58L113.332 47.32L113.272 46.92L112.912 45.78L112.752 45.44L112.532 45.12L111.392 43.92L110.692 43.54L109.932 43.28L108.792 43.02L108.152 43L107.572 43.04H106.372L105.972 42.96H105.572L105.212 43.06H104.812L104.412 42.98L103.972 42.96L102.792 43.06L102.432 43.26L102.192 43.82L102.212 48.4L102.252 48.8L102.192 49.6L102.212 50.04V50.44L102.252 50.82L102.212 51.2L102.192 52.82L102.232 53.22V56.18ZM106.372 49.68L105.972 49.46L105.812 49.14V47.94L105.772 47.6L105.812 46.76L105.992 46.38L106.412 46.22L106.812 46.24L107.612 46.16L108.172 46.28L108.692 46.32L109.072 46.42L109.572 47.04L109.692 47.36L109.772 47.88L109.712 48.48L109.532 48.88L109.312 49.18L109.092 49.36L108.732 49.52L108.152 49.66L107.772 49.68L106.812 49.64L106.372 49.68ZM119.644 57.04L120.984 57L121.564 56.8L121.764 56.24L121.824 55.2L121.764 54.44L121.804 54.02L121.784 53.22L121.824 52.86L121.764 52.42L121.804 49.2L121.744 48.78L121.804 47.04L121.964 46.44L122.344 46.2L123.124 46.16L123.864 46.26L124.284 46.2L124.644 46.22L124.984 46L125.224 45.56L125.244 43.66L125.024 43.26L124.644 43H123.404L123.024 42.96L122.604 43.02L122.224 42.98L120.604 43.06L120.204 42.98L119.824 42.96L119.404 43.02L118.964 42.98L118.604 43.06L117.424 43L116.804 43.06L115.404 42.98L115.024 43.18L114.784 43.64L114.804 44.04L114.764 45.04L114.804 45.66L114.984 46.02L115.344 46.22L115.744 46.18L117.644 46.22L118.024 46.42L118.244 46.82L118.204 47.46L118.244 48.02L118.224 48.46L118.244 48.86L118.204 49.42L118.264 52.4L118.224 52.8L118.204 54.42L118.244 54.84L118.224 56L118.184 56.38L118.444 56.82L119.024 57.02L119.644 57.04ZM137.439 57.06L140.299 57.02L140.719 56.84L140.939 56.42V54.4L140.719 54L140.299 53.82L139.839 53.86L139.459 53.8L138.439 53.78L137.779 53.86L137.379 53.82L136.939 53.84L136.559 53.78L136.119 53.82L135.699 53.62L135.539 53.26V52L135.719 51.58L136.079 51.36L136.679 51.34L137.319 51.4L138.079 51.36L138.899 51.38L139.299 51.34L139.759 51.36L140.159 51.2L140.299 50.8L140.359 49L140.159 48.44L139.699 48.18H138.519L138.099 48.22L137.259 48.16L136.099 48.2L135.679 48.02L135.519 47.4V46.78L135.699 46.4L136.139 46.24L136.519 46.26L136.899 46.18L139.759 46.22L140.139 46.2L140.559 45.96L140.759 45.6L140.739 45.2L140.759 44.8L140.719 43.6L140.539 43.22L140.139 43.06H139.719L139.359 42.98L137.739 43L137.299 43.04L136.899 43L136.559 43.02L136.159 42.98L134.519 43.02L134.119 42.96L133.739 43.04L133.379 43L132.979 43.04L132.579 43.02L132.159 43.18L131.939 43.6L131.979 44.36L131.919 45.18L131.979 45.62L131.939 47.58L131.999 48L131.959 48.38L131.939 50.02L131.999 50.38L131.979 53.62L131.939 54L131.999 54.4L131.939 55.78L131.979 56.22L132.139 56.76L132.739 57.02L134.179 57.04L134.619 57L134.979 57.02L135.799 56.96L136.179 57.04L136.639 57.06L137.039 57.02L137.439 57.06ZM142.203 56.5L142.263 56.9L142.623 57.04L144.723 57.02L145.323 56.96L145.783 56.82L146.223 56.5L146.383 56.18L146.603 55.88L146.783 55.48L147.363 54.5L147.543 54.12L147.803 53.86L148.183 53.1L148.403 52.8L148.643 52.82L148.883 53.12L150.883 56.48L151.263 56.86L151.743 57.08L154.043 56.96L154.443 57.02L154.843 56.92L154.903 56.46L154.663 55.96L154.223 55.32L154.043 54.98L153.343 54.02L153.203 53.76L152.943 53.4L152.563 52.7L151.963 51.92L151.043 50.38L150.803 50.08L150.683 49.58L150.783 49.1L151.063 48.74L151.463 48.12L151.663 47.74L153.083 45.72L153.263 45.36L154.423 43.56L154.323 43.14L153.883 43L153.243 43.04L151.803 42.98L151.423 43.02L150.943 43.2L150.483 43.5L150.323 43.88L149.663 44.8L149.523 45.2L148.623 46.46L148.343 46.52L148.143 46.2L147.943 45.8L147.723 45.54L147.583 45.18L146.563 43.54L146.143 43.2L145.663 42.98L145.223 43.04H144.823L144.363 42.98L143.743 43.06L143.143 43.04L142.683 43.16L142.643 43.6L142.843 44.04L143.343 44.7L143.663 45.28L144.223 46.06L144.643 46.78L144.883 47.08L145.103 47.46L145.343 47.76L145.743 48.44L146.023 48.8L146.203 49.1L146.323 49.64L146.243 50.08L145.783 50.74L145.383 51.46L145.183 51.7L144.983 52.06L144.723 52.32L144.323 53.04L144.083 53.34L143.443 54.4L143.003 55L142.803 55.38L142.583 55.66L142.383 56.04L142.203 56.5ZM157.885 57.06L158.865 57.02L159.225 57.04L159.685 57L160.105 56.84L160.285 56.42L160.265 56.02L160.285 55.58L160.245 54.84L160.285 54.46L160.265 54L160.445 53.64L160.905 53.42L161.345 53.38L161.765 53.46L163.825 53.3L165.725 52.54L166.025 52.3L166.305 51.98L166.565 51.72L166.825 51.42L167.245 50.78L167.585 50L167.645 49.56L167.765 49.24L167.805 47.6L167.725 47.26L167.665 46.82L167.425 46.08L167.045 45.4L166.565 44.74L165.665 43.96L165.005 43.52L164.205 43.28L163.865 43.14H163.465L163.065 43L162.465 42.98L161.825 43L161.385 43.06L160.165 43.04L159.765 42.98L158.525 43.06L158.085 43.04L157.725 42.98L157.305 43.06L156.885 43.28L156.705 43.6L156.725 46.02L156.645 46.82L156.685 47.2L156.665 52.38L156.705 52.76L156.685 56.46L156.905 56.84L157.525 57.04L157.885 57.06ZM160.885 50.22L160.485 49.98L160.305 49.64L160.245 48.02L160.285 47.6V46.78L160.485 46.4L160.905 46.2L162.985 46.26L163.385 46.44L163.705 46.66L163.965 46.92L164.165 47.32L164.225 47.68L164.265 48.24L164.225 48.78L164.085 49.14L163.905 49.46L163.645 49.78L163.325 50.02L163.005 50.12L162.385 50.2L161.365 50.18L160.885 50.22ZM175.329 57.06L178.189 57.02L178.609 56.84L178.829 56.42V54.4L178.609 54L178.189 53.82L177.729 53.86L177.349 53.8L176.329 53.78L175.669 53.86L175.269 53.82L174.829 53.84L174.449 53.78L174.009 53.82L173.589 53.62L173.429 53.26V52L173.609 51.58L173.969 51.36L174.569 51.34L175.209 51.4L175.969 51.36L176.789 51.38L177.189 51.34L177.649 51.36L178.049 51.2L178.189 50.8L178.249 49L178.049 48.44L177.589 48.18H176.409L175.989 48.22L175.149 48.16L173.989 48.2L173.569 48.02L173.409 47.4V46.78L173.589 46.4L174.029 46.24L174.409 46.26L174.789 46.18L177.649 46.22L178.029 46.2L178.449 45.96L178.649 45.6L178.629 45.2L178.649 44.8L178.609 43.6L178.429 43.22L178.029 43.06H177.609L177.249 42.98L175.629 43L175.189 43.04L174.789 43L174.449 43.02L174.049 42.98L172.409 43.02L172.009 42.96L171.629 43.04L171.269 43L170.869 43.04L170.469 43.02L170.049 43.18L169.829 43.6L169.869 44.36L169.809 45.18L169.869 45.62L169.829 47.58L169.889 48L169.849 48.38L169.829 50.02L169.889 50.38L169.869 53.62L169.829 54L169.889 54.4L169.829 55.78L169.869 56.22L170.029 56.76L170.629 57.02L172.069 57.04L172.509 57L172.869 57.02L173.689 56.96L174.069 57.04L174.529 57.06L174.929 57.02L175.329 57.06ZM181.334 56.18L181.534 56.8L182.114 57.06L182.514 57L183.154 57.06L183.474 57.02H184.074L184.714 56.82L184.894 56.24V55.56L184.934 55.2L184.874 54.78L184.914 53.5L185.094 53.1L185.474 52.88L186.634 53.04L187.034 53.38L187.274 53.78L187.434 54.14L187.854 54.74L188.234 55.46L188.454 55.76L188.614 56.16L188.834 56.5L189.274 56.86L189.954 57.04L191.534 57.02L191.914 57.06L192.574 57.04L192.954 56.86L193.074 56.42L192.854 55.98L192.614 55.7L192.454 55.32L191.774 54.3L191.594 53.94L190.954 52.9L190.714 52.6L190.694 52.12L190.874 51.68L191.154 51.38L191.434 51.14L192.214 49.74L192.474 48.58L192.434 47.32L192.374 46.92L192.014 45.78L191.854 45.44L191.634 45.12L190.494 43.92L189.794 43.54L189.034 43.28L187.894 43.02L187.254 43L186.674 43.04H185.474L185.074 42.96H184.674L184.314 43.06H183.914L183.514 42.98L183.074 42.96L181.894 43.06L181.534 43.26L181.294 43.82L181.314 48.4L181.354 48.8L181.294 49.6L181.314 50.04V50.44L181.354 50.82L181.314 51.2L181.294 52.82L181.334 53.22V56.18ZM185.474 49.68L185.074 49.46L184.914 49.14V47.94L184.874 47.6L184.914 46.76L185.094 46.38L185.514 46.22L185.914 46.24L186.714 46.16L187.274 46.28L187.794 46.32L188.174 46.42L188.674 47.04L188.794 47.36L188.874 47.88L188.814 48.48L188.634 48.88L188.414 49.18L188.194 49.36L187.834 49.52L187.254 49.66L186.874 49.68L185.914 49.64L185.474 49.68ZM200.421 57.08L201.221 57.04L201.581 56.84L201.781 56.46V54.48L201.541 54.1L201.101 53.88H200.681L200.201 53.72L199.961 53.26L200.021 52.88L200.001 50.68L200.041 50.24L199.961 48.8L200.041 46.78L200.181 46.32L200.621 46.14L201.021 46.08L201.441 45.92L201.641 45.6L201.661 43.62L201.421 43.24L201.061 43.02H198.641L198.281 42.98L197.881 43.06H196.241L195.861 43H195.401L195.001 43.2L194.801 43.68L194.861 45.16L194.821 45.54L195.041 45.94L195.481 46.16H195.881L196.261 46.4L196.441 46.94L196.501 53.08L196.281 53.68L194.961 54.08L194.741 54.44L194.681 56.28L194.881 56.82L195.281 57H195.661L196.041 56.96L196.621 57.04L197.241 57.02L197.641 56.98L198.441 57.06L199.041 56.98H200.021L200.421 57.08ZM209.763 57.06L212.623 57.02L213.043 56.84L213.263 56.42V54.4L213.043 54L212.623 53.82L212.163 53.86L211.783 53.8L210.763 53.78L210.103 53.86L209.703 53.82L209.263 53.84L208.883 53.78L208.443 53.82L208.023 53.62L207.863 53.26V52L208.043 51.58L208.403 51.36L209.003 51.34L209.643 51.4L210.403 51.36L211.223 51.38L211.623 51.34L212.083 51.36L212.483 51.2L212.623 50.8L212.683 49L212.483 48.44L212.023 48.18H210.843L210.423 48.22L209.583 48.16L208.423 48.2L208.003 48.02L207.843 47.4V46.78L208.023 46.4L208.463 46.24L208.843 46.26L209.223 46.18L212.083 46.22L212.463 46.2L212.883 45.96L213.083 45.6L213.063 45.2L213.083 44.8L213.043 43.6L212.863 43.22L212.463 43.06H212.043L211.683 42.98L210.063 43L209.623 43.04L209.223 43L208.883 43.02L208.483 42.98L206.843 43.02L206.443 42.96L206.063 43.04L205.703 43L205.303 43.04L204.903 43.02L204.483 43.18L204.263 43.6L204.303 44.36L204.243 45.18L204.303 45.62L204.263 47.58L204.323 48L204.283 48.38L204.263 50.02L204.323 50.38L204.303 53.62L204.263 54L204.323 54.4L204.263 55.78L204.303 56.22L204.463 56.76L205.063 57.02L206.503 57.04L206.943 57L207.303 57.02L208.123 56.96L208.503 57.04L208.963 57.06L209.363 57.02L209.763 57.06ZM226.068 56.66L226.608 56.98L227.168 57.04L227.608 56.9L227.808 56.5L227.848 49.2L227.788 48.86V46.88L227.848 46.4L227.788 43.62L227.588 43.22L227.188 43L224.708 43.02L224.328 43.24L224.108 43.66L224.088 44.08L224.148 44.4L224.088 45.24L224.128 45.68L224.088 49.26L223.968 49.6L223.668 49.46L222.248 48.04L221.688 47.6L217.748 43.62L217.448 43.38L216.988 43.14L216.388 43L215.928 43.2L215.748 43.58V49.64L215.728 49.98L215.768 50.8L215.708 51.14L215.748 54.42L215.708 54.8L215.748 56.48L215.928 56.86L216.348 57L217.168 57.04L217.608 57L218.388 57.06L218.808 57.04L219.208 56.84L219.408 56.22L219.428 51.16L219.468 50.76L219.608 50.42L219.868 50.52L220.128 50.86L221.548 52.22L221.808 52.52L222.148 52.74L225.248 55.82L225.768 56.4L226.068 56.66ZM236.306 57.16L237.306 57.24L238.706 57.14L239.886 56.9L240.246 56.7L240.666 56.56L241.006 56.4L241.986 55.7L242.546 55.14L243.006 54.54L243.426 53.82L243.946 52.3L243.826 51.94L243.426 51.68L242.306 51.76L241.906 51.7L241.506 51.72L241.106 51.7L240.646 51.94L240.326 52.26L240.126 52.64L239.666 53.16L239.346 53.44L239.046 53.56L238.346 53.94L237.286 54L236.706 53.94L235.986 53.68L235.286 53.32L234.706 52.8L234.266 52.1L234.126 51.7L233.986 51.42L233.886 51.06L233.826 50.62V49.4L233.966 48.6L234.266 47.88L234.466 47.5L234.946 46.94L235.426 46.56L235.966 46.26L237.306 46.08L238.166 46.12L238.786 46.3L239.146 46.44L239.426 46.66L240.006 47.24L240.226 47.54L240.606 47.92L241.066 48.14L241.426 48.1L241.846 48.12L242.246 48.1L242.806 48.16L243.406 48.1L243.746 47.94L243.886 47.54L243.766 47.1L243.626 46.74L243.506 46.32L243.286 46L243.106 45.68L242.826 45.34L242.606 44.96L242.046 44.38L240.686 43.52L238.766 42.88L238.386 42.86L237.986 42.8L236.746 42.78L234.806 43.16L233.326 43.86L232.746 44.3L231.886 45.08L231.346 45.76L230.966 46.34L230.466 47.46L230.266 48.28L230.066 50L230.186 51.46L230.466 52.6L231.326 54.34L232.146 55.22L233.046 56L233.906 56.46L234.806 56.84L235.166 56.92L235.566 57.06L235.926 57.14L236.306 57.16ZM251.56 57.06L254.42 57.02L254.84 56.84L255.06 56.42V54.4L254.84 54L254.42 53.82L253.96 53.86L253.58 53.8L252.56 53.78L251.9 53.86L251.5 53.82L251.06 53.84L250.68 53.78L250.24 53.82L249.82 53.62L249.66 53.26V52L249.84 51.58L250.2 51.36L250.8 51.34L251.44 51.4L252.2 51.36L253.02 51.38L253.42 51.34L253.88 51.36L254.28 51.2L254.42 50.8L254.48 49L254.28 48.44L253.82 48.18H252.64L252.22 48.22L251.38 48.16L250.22 48.2L249.8 48.02L249.64 47.4V46.78L249.82 46.4L250.26 46.24L250.64 46.26L251.02 46.18L253.88 46.22L254.26 46.2L254.68 45.96L254.88 45.6L254.86 45.2L254.88 44.8L254.84 43.6L254.66 43.22L254.26 43.06H253.84L253.48 42.98L251.86 43L251.42 43.04L251.02 43L250.68 43.02L250.28 42.98L248.64 43.02L248.24 42.96L247.86 43.04L247.5 43L247.1 43.04L246.7 43.02L246.28 43.18L246.06 43.6L246.1 44.36L246.04 45.18L246.1 45.62L246.06 47.58L246.12 48L246.08 48.38L246.06 50.02L246.12 50.38L246.1 53.62L246.06 54L246.12 54.4L246.06 55.78L246.1 56.22L246.26 56.76L246.86 57.02L248.3 57.04L248.74 57L249.1 57.02L249.92 56.96L250.3 57.04L250.76 57.06L251.16 57.02L251.56 57.06Z" fill="white"/>
</g>
<defs>
<filter id="filter0_dii_67_251" x="10" y="17" width="293" height="73" filterUnits="userSpaceOnUse" color-interpolation-filters="sRGB">
<feFlood flood-opacity="0" result="BackgroundImageFix"/>
<feColorMatrix in="SourceAlpha" type="matrix" values="0 0 0 0 0 0 0 0 0 0 0 0 0 0 0 0 0 0 127 0" result="hardAlpha"/>
<feOffset dx="-4" dy="4"/>
<feGaussianBlur stdDeviation="3"/>
<feComposite in2="hardAlpha" operator="out"/>
<feColorMatrix type="matrix" values="0 0 0 0 0 0 0 0 0 0 0 0 0 0 0 0 0 0 0.25 0"/>
<feBlend mode="normal" in2="BackgroundImageFix" result="effect1_dropShadow_67_251"/>
<feBlend mode="normal" in="SourceGraphic" in2="effect1_dropShadow_67_251" result="shape"/>
<feColorMatrix in="SourceAlpha" type="matrix" values="0 0 0 0 0 0 0 0 0 0 0 0 0 0 0 0 0 0 127 0" result="hardAlpha"/>
<feOffset dx="-3" dy="3"/>
<feGaussianBlur stdDeviation="3"/>
<feComposite in2="hardAlpha" operator="arithmetic" k2="-1" k3="1"/>
<feColorMatrix type="matrix" values="0 0 0 0 1 0 0 0 0 1 0 0 0 0 1 0 0 0 0.2 0"/>
<feBlend mode="normal" in2="shape" result="effect2_innerShadow_67_251"/>
<feColorMatrix in="SourceAlpha" type="matrix" values="0 0 0 0 0 0 0 0 0 0 0 0 0 0 0 0 0 0 127 0" result="hardAlpha"/>
<feOffset dx="3" dy="-3"/>
<feGaussianBlur stdDeviation="3"/>
<feComposite in2="hardAlpha" operator="arithmetic" k2="-1" k3="1"/>
<feColorMatrix type="matrix" values="0 0 0 0 0 0 0 0 0 0 0 0 0 0 0 0 0 0 0.2 0"/>
<feBlend mode="normal" in2="effect2_innerShadow_67_251" result="effect3_innerShadow_67_251"/>
</filter>
<filter id="filter1_d_67_251" x="58.7756" y="36.78" width="202.284" height="26.46" filterUnits="userSpaceOnUse" color-interpolation-filters="sRGB">
<feFlood flood-opacity="0" result="BackgroundImageFix"/>
<feColorMatrix in="SourceAlpha" type="matrix" values="0 0 0 0 0 0 0 0 0 0 0 0 0 0 0 0 0 0 127 0" result="hardAlpha"/>
<feOffset/>
<feGaussianBlur stdDeviation="3"/>
<feComposite in2="hardAlpha" operator="out"/>
<feColorMatrix type="matrix" values="0 0 0 0 0 0 0 0 0 0 0 0 0 0 0 0 0 0 0.33 0"/>
<feBlend mode="normal" in2="BackgroundImageFix" result="effect1_dropShadow_67_251"/>
<feBlend mode="normal" in="SourceGraphic" in2="effect1_dropShadow_67_251" result="shape"/>
</filter>
</defs>
</svg>
