<svg width="262" height="262" viewBox="0 0 262 262" fill="none" xmlns="http://www.w3.org/2000/svg">
<g clip-path="url(#clip0_20_112)">
<path d="M90.01 111.86L82.69 110.93C82.13 114.71 80.92 116.71 79.1 116.71C76.58 116.71 75.42 114.57 75.42 105.89C75.42 98.24 76.68 95.63 79.15 95.63C80.97 95.63 82.04 97.4 82.51 100.76L89.69 100.06C89.04 93.25 86.38 88.96 79.06 88.96C70.34 88.96 67.45 96.75 67.45 105.89C67.45 116.66 70.39 123.28 78.87 123.28C85.35 123.28 88.8 119.5 90.02 111.86H90.01Z" fill="#003366"/>
<path d="M114.4 89.38H104.23L97.05 122.86H104.98L106.15 115.63H112.49L113.75 122.86H121.77L114.4 89.38ZM107.22 109.01L109.18 96.98H109.32L111.37 109.01H107.22Z" fill="#003366"/>
<path d="M152.18 102.06H152.27V122.86H159.17V89.38H149.52L145 108.73H144.9L140.66 89.38H130.73V122.86H137.63V102.06H137.72L142.29 122.86H147.7L152.18 102.06Z" fill="#003366"/>
<path d="M178.16 110.88H180.54C187.81 110.88 192.06 107.1 192.06 100.01C192.06 92.92 188.14 89.38 180.36 89.38H170.38V122.86H178.17V110.88H178.16ZM178.16 96.15H180.73C182.64 96.15 184.04 97.22 184.04 100.02C184.04 103.24 182.5 104.31 180.78 104.31H178.17V96.15H178.16Z" fill="#003366"/>
<path d="M30.56 154C28.04 154 26.88 151.86 26.88 143.18C26.88 135.53 28.14 132.92 30.61 132.92C32.43 132.92 33.5 134.69 33.97 138.05L41.15 137.35C40.5 130.54 37.84 126.25 30.52 126.25C21.8 126.25 18.91 134.04 18.91 143.18C18.91 153.95 21.85 160.57 30.33 160.57C36.81 160.57 40.26 156.79 41.48 149.15L34.16 148.22C33.6 152 32.39 154 30.57 154H30.56Z" fill="#003366"/>
<path d="M62.05 126.25C52.91 126.25 50.21 133.15 50.21 143.46C50.21 153.77 53.52 160.57 62.05 160.57C70.58 160.57 73.89 154.14 73.89 143.46C73.89 132.78 71.18 126.25 62.05 126.25ZM62.05 154.18C59.35 154.18 58.18 151.71 58.18 143.46C58.18 135.21 59.21 132.69 62.05 132.69C64.89 132.69 65.92 135.58 65.92 143.46C65.92 151.34 64.8 154.18 62.05 154.18Z" fill="#003366"/>
<path d="M94.69 154C92.17 154 91.01 151.86 91.01 143.18C91.01 135.53 92.27 132.92 94.74 132.92C96.56 132.92 97.63 134.69 98.1 138.05L105.28 137.35C104.63 130.54 101.97 126.25 94.65 126.25C85.93 126.25 83.04 134.04 83.04 143.18C83.04 153.95 85.98 160.57 94.46 160.57C100.94 160.57 104.39 156.79 105.61 149.15L98.29 148.22C97.73 152 96.52 154 94.7 154H94.69Z" fill="#003366"/>
<path d="M115.36 126.67V160.15H123.1V150.41L125.62 146.12L130.42 160.15H138.72L130.84 138.7L137.79 126.67H129.68L123.19 139.31H123.1V126.67H115.36Z" fill="#003366"/>
<path d="M144.93 133.43H151.22V160.15H159.01V133.43H165.31V126.67H144.93V133.43Z" fill="#003366"/>
<path d="M177.25 126.67L170.07 160.15H178L179.17 152.92H185.51L186.77 160.15H194.79L187.42 126.67H177.25ZM180.23 146.3L182.19 134.27H182.33L184.38 146.3H180.23Z" fill="#003366"/>
<path d="M211.58 126.67H203.74V160.15H211.58V126.67Z" fill="#003366"/>
<path d="M230.56 126.67H222.77V160.15H241.19V153.39H230.56V126.67Z" fill="#003366"/>
<path d="M80.03 41.56C80.5 42.38 80.13 43.12 79.35 43.56C78.28 44.17 77.38 43.73 76.57 42.63L73.67 45.08C75.76 47.63 77.92 48.1 80.81 46.46C83.78 44.77 84.81 42.13 83.26 39.39C80.39 34.33 74.57 38.11 73.05 35.44C72.69 34.81 72.91 34.16 73.6 33.76C74.51 33.25 75.39 33.72 76.17 34.5L78.82 32.16C76.9 30.1 74.81 29.37 71.95 30.99C69.19 32.56 68.39 35.13 69.73 37.49C72.61 42.57 78.44 38.75 80.03 41.56Z" fill="#003366"/>
<path d="M98.07 38.66C101.95 37.34 102.98 34.82 101.7 31.05L97.98 20.11L94.17 21.41L98.07 32.88C98.54 34.26 98.11 35.09 97.05 35.45C95.99 35.81 95.23 35.38 94.77 34L90.87 22.53L87.02 23.84L90.74 34.78C92.02 38.54 94.24 39.96 98.07 38.66Z" fill="#003366"/>
<path d="M115.14 34.2L113.9 23.46H113.95L117.55 33.92L120.34 33.6L121.41 22.6L121.46 22.59L122.7 33.32L126.26 32.91L124.26 15.63L119.28 16.21L118.1 26.47H118.05L114.71 16.74L109.58 17.33L111.58 34.61L115.14 34.2Z" fill="#003366"/>
<path d="M139.32 22.53L139.37 22.54L140.55 33.54L143.34 33.85L146.84 23.36L146.89 23.37L145.7 34.11L149.27 34.5L151.18 17.21L146.19 16.66L142.75 26.4L142.7 26.39L141.61 16.15L136.48 15.59L134.57 32.88L138.14 33.28L139.32 22.53Z" fill="#003366"/>
<path d="M167.96 36.25L162.31 34.42L163.45 30.9L167.53 32.22L168.58 28.97L164.5 27.65L165.5 24.56L170.94 26.32L172.02 22.97L162.73 19.97L157.38 36.52L166.88 39.6L167.96 36.25Z" fill="#003366"/>
<path d="M180.75 38.87L182.01 39.55L180.57 46.18L184.45 48.28L185.92 39.82C187.4 39.74 188.76 38.96 189.76 37.1C191.48 33.93 190.41 31.72 187.07 29.91L182.38 27.37L174.09 42.67L177.65 44.6L180.76 38.87H180.75ZM184.32 32.28L185.3 32.81C185.92 33.14 186.93 33.61 185.92 35.49C185.09 37.02 184.13 36.97 183.21 36.48L182.32 35.99L184.33 32.28H184.32Z" fill="#003366"/>
<path d="M130.78 0C58.67 0 0 58.67 0 130.78C0 202.89 58.67 261.56 130.78 261.56C202.89 261.56 261.56 202.89 261.56 130.78C261.56 58.67 202.89 0 130.78 0ZM248.34 180.26C248.05 179.85 247.59 179.56 247.04 179.56H207.41C208.63 177.46 209.77 175.31 210.82 173.11H230.91C231.8 173.11 232.52 172.39 232.52 171.5C232.52 170.61 231.8 169.89 230.91 169.89H140.6C139.71 169.89 138.99 170.61 138.99 171.5C138.99 172.39 139.71 173.11 140.6 173.11H207.19C206.09 175.31 204.9 177.47 203.62 179.56H156.73C155.84 179.56 155.12 180.28 155.12 181.17C155.12 182.06 155.84 182.78 156.73 182.78H201.53C195.39 191.85 187.58 199.74 178.41 205.92C177.67 206.42 177.48 207.42 177.97 208.16C178.28 208.62 178.79 208.87 179.31 208.87C179.62 208.87 179.93 208.78 180.21 208.59C190.34 201.76 198.92 192.96 205.45 182.77H225.62C215.84 200.54 201.39 215.16 183.66 225.14C182.88 225.58 182.61 226.56 183.05 227.34C183.35 227.87 183.89 228.16 184.46 228.16C184.73 228.16 185 228.09 185.25 227.95C204.02 217.39 219.23 201.77 229.3 182.77H247.05C247.11 182.77 247.17 182.74 247.23 182.73C227.29 227.22 182.62 258.31 130.79 258.31C78.96 258.31 34.3 227.26 14.35 182.78H32.26C41.34 199.92 54.78 214.47 71.19 224.89C71.46 225.06 71.76 225.14 72.05 225.14C72.58 225.14 73.11 224.88 73.41 224.39C73.89 223.64 73.67 222.64 72.91 222.16C57.46 212.34 44.72 198.76 35.92 182.77H56.13C61.93 191.81 69.35 199.8 78.01 206.24C78.3 206.45 78.64 206.56 78.97 206.56C79.46 206.56 79.95 206.33 80.27 205.91C80.8 205.2 80.65 204.18 79.94 203.65C72.15 197.86 65.43 190.76 60.01 182.77H103.5C104.39 182.77 105.11 182.05 105.11 181.16C105.11 180.27 104.39 179.55 103.5 179.55H57.92C56.64 177.46 55.46 175.3 54.36 173.1H113.19C114.08 173.1 114.8 172.38 114.8 171.49C114.8 170.6 114.08 169.88 113.19 169.88H29.33C28.44 169.88 27.72 170.6 27.72 171.49C27.72 172.38 28.44 173.1 29.33 173.1H50.75C51.8 175.3 52.96 177.45 54.18 179.55H13.2C13.11 179.55 13.04 179.59 12.96 179.6C6.7 164.55 3.23 148.06 3.23 130.77C3.23 125.53 3.58 120.38 4.2 115.3C4.47 115.5 4.78 115.64 5.14 115.64H47.35C48.24 115.64 48.96 114.92 48.96 114.03C48.96 113.14 48.24 112.42 47.35 112.42H5.14C4.93 112.42 4.73 112.47 4.55 112.54C13.43 50.82 66.64 3.23 130.78 3.23C194.92 3.23 248.07 50.76 256.99 112.43H216.4C215.51 112.43 214.79 113.15 214.79 114.04C214.79 114.93 215.51 115.65 216.4 115.65H257.4C257.99 120.61 258.33 125.66 258.33 130.78C258.33 148.32 254.77 165.04 248.34 180.26Z" fill="#003366"/>
<path d="M226.89 85.23C227.18 85.78 227.74 86.1 228.32 86.1C228.57 86.1 228.82 86.04 229.06 85.92C229.85 85.51 230.16 84.54 229.75 83.75C223.06 70.85 214.03 59.51 202.93 50.06C202.25 49.48 201.23 49.56 200.66 50.24C200.08 50.92 200.16 51.94 200.84 52.51C211.62 61.7 220.39 72.71 226.89 85.23Z" fill="#003366"/>
<path d="M31.18 85.92C31.42 86.04 31.67 86.1 31.92 86.1C32.5 86.1 33.07 85.78 33.35 85.23C39.85 72.7 48.61 61.69 59.4 52.51C60.08 51.93 60.16 50.91 59.58 50.24C59 49.56 57.98 49.48 57.31 50.06C46.21 59.52 37.18 70.85 30.49 83.75C30.08 84.54 30.39 85.51 31.18 85.92Z" fill="#003366"/>
<path d="M216 107.59H233.82C234.71 107.59 235.43 106.87 235.43 105.98C235.43 105.09 234.71 104.37 233.82 104.37H216C215.8 104.37 215.6 104.42 215.42 104.49C214.9 102.81 214.33 101.16 213.71 99.54H222.52C223.41 99.54 224.13 98.82 224.13 97.93C224.13 97.04 223.41 96.32 222.52 96.32H212.41C198.67 64 166.39 42.15 130.77 42.15C95.15 42.15 62.87 63.98 49.13 96.3H38.6C37.71 96.3 36.99 97.02 36.99 97.91C36.99 98.8 37.71 99.52 38.6 99.52H47.83C47.23 101.11 46.67 102.72 46.16 104.36H29.53C28.64 104.36 27.92 105.08 27.92 105.97C27.92 106.86 28.64 107.58 29.53 107.58H47.35C47.35 107.58 47.41 107.56 47.44 107.56C47.55 107.56 47.65 107.52 47.76 107.5C47.86 107.47 47.96 107.45 48.05 107.41C48.14 107.37 48.22 107.3 48.3 107.24C48.38 107.18 48.47 107.12 48.54 107.04C48.61 106.97 48.65 106.88 48.7 106.8C48.76 106.7 48.82 106.61 48.86 106.51C48.87 106.48 48.89 106.46 48.9 106.43C49.6 104.08 50.4 101.77 51.3 99.52H56.43C57.32 99.52 58.04 98.8 58.04 97.91C58.04 97.02 57.32 96.3 56.43 96.3H52.65C54.84 91.38 57.48 86.72 60.5 82.36C60.79 82.63 61.16 82.8 61.59 82.8H200.27C200.6 82.8 200.89 82.68 201.15 82.5C204.14 86.82 206.75 91.43 208.91 96.3H204.71C203.82 96.3 203.1 97.02 203.1 97.91C203.1 98.8 203.82 99.52 204.71 99.52H210.27C211.16 101.78 211.97 104.08 212.67 106.43C212.88 107.13 213.52 107.58 214.21 107.58C214.36 107.58 214.52 107.56 214.67 107.51C214.84 107.46 214.98 107.37 215.11 107.27C215.37 107.45 215.66 107.57 216 107.57V107.59ZM148.65 62.93C147.82 62.6 146.88 63.01 146.56 63.84L140.33 79.58H137.7L144.02 46.43C146.96 46.9 149.86 47.53 152.71 48.3L151.13 52.29C150.8 53.12 151.21 54.06 152.04 54.38C152.87 54.71 153.81 54.3 154.13 53.47L155.8 49.25C155.8 49.25 155.8 49.21 155.8 49.2C158.92 50.17 161.98 51.32 164.96 52.63C164.49 52.69 164.05 52.92 163.78 53.35L147.13 79.59H143.79L149.55 65.03C149.88 64.2 149.47 63.26 148.64 62.94L148.65 62.93ZM130.47 59.46C129.58 59.46 128.86 60.18 128.86 61.07V79.57H126.53L120.13 46.04C123.01 45.67 125.92 45.47 128.86 45.4V48.64C128.86 49.53 129.58 50.25 130.47 50.25C131.36 50.25 132.08 49.53 132.08 48.64V45.38C135.02 45.43 137.94 45.62 140.82 45.96L134.41 79.56H132.08V61.06C132.08 60.17 131.36 59.45 130.47 59.45V59.46ZM111.39 65.02L117.15 79.58H113.81L97.16 53.34C96.97 53.04 96.68 52.85 96.37 52.72C99.24 51.44 102.18 50.32 105.19 49.37L106.81 53.47C107.14 54.3 108.07 54.7 108.9 54.38C109.73 54.05 110.13 53.12 109.81 52.29L108.29 48.45C111.13 47.66 114.01 47.01 116.94 46.52L123.25 79.59H120.62L114.39 63.85C114.06 63.02 113.13 62.62 112.3 62.94C111.47 63.27 111.07 64.21 111.39 65.03V65.02ZM94.3 53.66C94.14 54.11 94.16 54.63 94.43 55.07L109.99 79.58H105.2L98.95 72.92C98.34 72.27 97.32 72.24 96.67 72.85C96.02 73.46 95.99 74.48 96.6 75.13L100.78 79.58H92.94L79.07 69.5C78.35 68.98 77.34 69.13 76.82 69.85C76.82 69.85 76.81 69.87 76.8 69.88C76.29 70.6 76.46 71.6 77.17 72.12L87.45 79.59H62.52C70.88 68.53 81.83 59.62 94.3 53.67V53.66ZM173.5 79.58L183.78 72.11C184.49 71.59 184.67 70.59 184.15 69.87C184.15 69.87 184.14 69.85 184.13 69.84C183.61 69.12 182.6 68.97 181.88 69.49L168.01 79.57H160.17L164.35 75.12C164.96 74.47 164.93 73.45 164.28 72.84C163.63 72.23 162.61 72.26 162 72.91L155.75 79.57H150.96L166.52 55.06C166.87 54.51 166.84 53.82 166.51 53.31C179.3 59.26 190.52 68.29 199.06 79.58H173.51H173.5Z" fill="#003366"/>
<path d="M175.86 60.46C175.21 59.87 174.2 59.91 173.6 60.55L170.51 63.85C169.9 64.5 169.93 65.52 170.58 66.13C171.23 66.74 172.25 66.71 172.86 66.06L175.95 62.76C176.56 62.11 176.54 61.08 175.88 60.48C175.88 60.48 175.86 60.47 175.86 60.46Z" fill="#003366"/>
<path d="M88.08 66.06C88.69 66.71 89.71 66.74 90.36 66.13C91.01 65.52 91.04 64.5 90.43 63.85L87.33 60.55C86.73 59.91 85.72 59.86 85.07 60.46C85.07 60.46 85.05 60.47 85.05 60.48C84.39 61.08 84.37 62.11 84.98 62.76L88.08 66.06Z" fill="#003366"/>
<path d="M129.15 213.91C128.67 212.95 127.87 212.18 126.85 211.79L91.79 198.34C90.61 197.89 89.3 197.97 88.19 198.57C87.08 199.17 86.29 200.22 86.01 201.45L79.15 232.57C78.44 235.79 80.16 238.98 83.23 240.16L105.24 248.6C106.03 248.9 106.83 249.05 107.63 249.05C109.94 249.05 112.14 247.83 113.35 245.7L129.06 217.98C129.1 217.92 129.11 217.85 129.15 217.78C129.18 217.85 129.2 217.92 129.24 217.98L144.95 245.7C146.16 247.83 148.36 249.06 150.67 249.05C151.46 249.05 152.27 248.91 153.06 248.6L175.07 240.16C178.14 238.98 179.86 235.79 179.15 232.57L172.29 201.45C172.02 200.22 171.23 199.17 170.11 198.57C169 197.97 167.68 197.89 166.51 198.34L131.45 211.79C130.43 212.18 129.63 212.95 129.15 213.91ZM110.6 244.12C109.75 245.61 107.98 246.25 106.38 245.63L84.37 237.19C82.77 236.58 81.88 234.91 82.24 233.24L85.98 216.26L119.17 228.99L110.59 244.12H110.6ZM126.31 216.4L120.75 226.21L86.67 213.14L89.1 202.13C89.2 201.68 89.51 201.45 89.68 201.36C89.8 201.3 89.99 201.22 90.23 201.22C90.36 201.22 90.5 201.24 90.65 201.3L125.71 214.75C126.14 214.92 126.32 215.26 126.39 215.44C126.46 215.63 126.54 216 126.31 216.41V216.4ZM173.93 237.19L151.92 245.63C150.32 246.24 148.54 245.61 147.7 244.12L139.12 228.99L172.31 216.26L176.05 233.24C176.42 234.91 175.53 236.58 173.93 237.19ZM131.9 215.43C131.97 215.24 132.14 214.9 132.58 214.74L167.64 201.29C167.79 201.23 167.93 201.21 168.06 201.21C168.3 201.21 168.5 201.29 168.61 201.35C168.79 201.44 169.09 201.67 169.19 202.12L171.62 213.13L137.54 226.2L131.98 216.39C131.75 215.99 131.83 215.61 131.9 215.42V215.43Z" fill="#003366"/>
<path d="M122.89 206.57C123.13 206.69 123.38 206.76 123.64 206.76C124.02 206.76 124.4 206.62 124.7 206.36C125.2 205.92 125.38 205.22 125.16 204.59C123.77 200.76 125.97 197.3 128.53 193.3C132.93 186.42 138.4 177.86 124.19 165.31C123.61 164.8 122.75 164.77 122.14 165.24C121.53 165.71 121.34 166.55 121.69 167.24C123.6 171.02 120.69 175.46 117.62 180.16C114.35 185.17 110.96 190.34 112.4 195.89C113.44 199.89 116.87 203.38 122.9 206.55L122.89 206.57ZM120.31 181.94C122.64 178.39 125.01 174.75 125.47 171.09C133.31 179.85 129.66 185.56 125.82 191.57C123.71 194.87 121.55 198.25 121.5 202.03C118.12 199.83 116.15 197.55 115.52 195.1C114.44 190.93 117.43 186.36 120.32 181.94H120.31Z" fill="#003366"/>
<path d="M137.5 179.91C136.89 180.38 136.7 181.22 137.05 181.91C138.01 183.8 136.75 185.97 134.56 189.32C132.55 192.39 130.28 195.87 131.24 199.57C131.93 202.23 134.16 204.52 138.06 206.57C138.3 206.69 138.55 206.76 138.81 206.76C139.19 206.76 139.57 206.62 139.87 206.36C140.37 205.92 140.55 205.22 140.33 204.59C139.6 202.6 140.63 200.84 142.36 198.13C145.06 193.9 148.77 188.11 139.56 179.97C138.98 179.46 138.12 179.43 137.51 179.9L137.5 179.91ZM140.27 185.37C143.78 189.92 141.83 192.97 139.64 196.4C138.53 198.14 137.32 200.02 136.97 202.11C135.53 201.02 134.65 199.9 134.36 198.76C133.76 196.44 135.46 193.84 137.26 191.09C138.44 189.29 139.7 187.36 140.28 185.37H140.27Z" fill="#003366"/>
</g>
<defs>
<clipPath id="clip0_20_112">
<rect width="261.56" height="261.55" fill="white"/>
</clipPath>
</defs>
</svg>
