<svg width="535" height="27" viewBox="0 0 535 27" fill="none" xmlns="http://www.w3.org/2000/svg">
<path d="M8.4047 26.324L11.2487 26.396L11.9687 26.324L12.6887 26.144L13.4087 26.036L14.1287 25.748L14.7767 25.676L15.4607 25.352L17.9087 23.876L18.9527 22.796L19.3127 22.292L19.7087 21.5L19.9247 20.852L20.1407 20.24L20.3567 18.44L20.2847 17.288L19.7447 15.2L19.3487 14.624L18.4127 13.544L17.7647 12.968L17.1887 12.68L16.5407 12.284L13.7327 11.42L13.0127 11.312L12.2927 11.276L11.5367 11.132H10.4927L8.5847 10.736L7.2527 10.088L6.7127 9.584L6.5687 8.504L6.7487 7.532L7.1807 7.064L7.7207 6.668L8.2967 6.344L8.9447 6.2L10.0967 6.164L11.2487 6.308L11.8967 6.488L12.5447 6.92L13.1567 7.424L13.6967 8.144L14.4887 8.612L16.1807 8.468L17.1527 8.54H17.8727L18.5207 8.612L19.2047 8.108L19.4927 7.496L19.3487 6.812L19.2767 6.128L18.2687 4.256L17.4767 3.176L15.1007 1.52L13.0847 0.835998L11.6807 0.547999L8.9087 0.475998L8.1167 0.692L7.3967 0.727999L6.7487 0.835998L5.3807 1.268L4.1567 1.988L2.4287 3.176L1.1687 4.868L0.520703 6.848L0.412703 8.612L0.448703 9.728L0.700703 11.168L1.2767 12.428L2.6087 14.084L5.0567 15.416L6.3527 15.848L12.0047 16.496L13.3007 17.108L13.7687 17.54L13.9847 18.44L13.6967 19.34L13.2287 19.88L12.0047 20.42L10.8887 20.492L10.2407 20.6L8.4047 20.42L7.7927 20.096L7.1807 19.7L5.9927 18.404L5.2727 18.116L4.6247 18.188L3.9407 18.08L1.1687 18.224L0.520703 18.512L0.232703 19.268L0.340703 19.988L0.484703 20.708L0.700703 21.356L1.3847 22.688L1.8887 23.156L2.3567 23.696L3.6167 24.488L4.1207 25.028L4.8047 25.352L5.5247 25.568L6.9287 26.072L8.4047 26.324ZM34.9257 26.36L37.0857 26.468L40.5777 25.748L42.5577 24.884L43.0977 24.524L43.7457 24.128L44.3577 23.696L44.8257 23.228L45.2217 22.616L45.8337 22.148L46.9137 20.276L47.2377 19.628L47.4177 18.944L47.6697 18.224L47.7777 17.54L47.5617 16.892L46.6617 16.496L42.8097 16.46L42.0177 16.82L41.2977 17.504L41.0097 18.116L39.6417 19.592L38.4177 20.204L37.6977 20.42L36.9417 20.492L34.9257 20.456L32.9817 19.736L32.2977 19.412L31.8297 18.908L30.4977 17.18L30.2097 16.568L29.7777 15.164L29.6697 13.472L29.7057 12.32L29.9577 11.672L29.9937 10.952L30.2097 10.304L30.8217 9.008L31.7217 7.892L32.9097 7.028L33.5937 6.74L34.8537 6.38L37.0857 6.452L38.4537 6.704L39.2097 6.956L40.2537 7.82L40.7937 8.396L41.1177 9.008L41.7657 9.692L42.5577 10.016L46.1937 10.088L46.9137 10.016L47.4897 9.692L47.7057 8.936L47.4177 8.216L47.3097 7.568L46.7337 6.2L45.4017 4.364L43.5297 2.672L42.7377 2.132L40.6857 1.196L39.2817 0.799998L37.4817 0.547999H34.2057L33.5937 0.619998L32.9097 0.835998L31.5057 1.124L30.8217 1.376L30.2817 1.7L29.6337 1.952L27.1137 3.572L26.6817 4.148L25.7097 5.048L25.2777 5.66L23.6217 8.9L22.9737 13.4L23.1177 14.552V15.992L23.4777 17.396L23.7657 18.08L23.8737 18.728L24.2337 19.376L24.4857 19.988L25.9257 22.076L27.2217 23.336L27.8337 23.732L28.3737 24.164L30.8217 25.496L31.5417 25.748L32.0817 25.892L32.8377 26.144L33.5937 26.216L34.2417 26.36H34.9257ZM49.2512 25.028L49.4312 25.784L50.1512 25.964H53.3192L54.2552 26.072L55.0832 25.712L55.7312 25.064L56.3432 23.84L56.9552 23.156L57.8192 22.796L58.5392 22.868L60.5552 22.832L61.3112 22.94L62.1392 22.832H62.7872L63.5432 22.904L65.2352 22.832L66.4232 23.228L67.1792 23.804L67.3592 24.452L67.7552 25.1L68.3672 25.676L69.3032 26.036L69.9512 25.964L71.2112 26.072L73.4432 26L74.0912 25.784L74.2352 25.028L74.0192 24.128L73.7672 23.48L73.2992 22.868L73.0832 22.148L72.7232 21.608L72.5072 20.924L71.8952 19.628L71.6432 18.944L71.2832 18.332L70.7792 17L70.3832 16.424L70.0952 15.704L69.7712 15.092L69.5192 14.372L69.1952 13.832L68.9792 13.112L68.5832 12.464L68.2952 11.852L67.9352 11.24L67.7552 10.556L67.0352 9.296L66.8192 8.612L66.1712 7.244L65.9912 6.668L65.4512 5.408L64.7312 4.076L64.1552 2.708L63.8312 2.168L63.6152 1.484L62.9672 0.799998L61.7432 0.475998L60.5912 0.835998L59.9072 1.484L59.6912 2.132L58.1432 5.372L57.7472 6.02L55.7312 10.556L55.5512 11.168L55.1552 11.816L54.5792 13.112L54.0392 14.048L53.7872 14.732L53.2832 15.668L53.0672 16.424L52.7432 17L52.4912 17.72L51.4832 19.592L50.4392 22.22L50.0072 22.796L49.6832 23.516L49.2512 25.028ZM60.3752 17.108L59.6912 16.82L59.5832 16.1L61.0232 12.824L61.3472 12.248L61.8152 11.888L62.2472 12.176L62.7152 13.58L63.1112 14.192L63.2552 14.768L63.6152 15.488L63.8672 16.136L63.7952 16.784L63.1832 17.072L60.3752 17.108ZM96.1443 25.424L97.1883 25.892L98.1243 26.18L98.9523 25.784L99.2763 25.028L99.4563 15.236L99.3123 14.228L99.3843 13.436L99.2403 9.116L99.3483 7.676L99.2763 6.992V5.552L99.4203 4.832L99.3483 3.752L99.4203 1.88L98.9883 1.232L98.1963 0.872L97.4763 0.799998H96.7923L96.0003 0.872L95.2443 0.763999L94.5963 0.835998L93.8763 0.799998L93.0123 1.16L92.6523 1.916L92.6163 8.468L92.7603 9.224V9.908L92.6163 10.664L92.6523 12.104L92.4723 12.68L91.9683 12.536L90.3843 10.916L89.8443 10.484L88.5843 9.188L88.0083 8.756L87.6123 8.252L86.8563 7.46L85.7403 6.524L85.3443 5.984L84.6603 5.516L84.3003 4.976L83.6883 4.544L83.2203 3.932L81.2763 1.952L79.8363 0.979998L78.8643 0.692L78.0003 1.124L77.5323 1.808L77.6043 6.848L77.5323 7.568L77.6403 9.044L77.5683 9.692L77.6043 10.448L77.4963 11.204L77.6403 16.352L77.5683 17V17.684L77.4963 18.476V19.16L77.6043 19.916L77.5683 21.392L77.6403 22.112L77.5323 23.48L77.6403 24.2V24.884L77.9643 25.676L78.6483 26.072L79.8723 26L81.6723 26.108L82.4283 26L83.2563 26.072L83.9763 25.712L84.3003 24.992L84.1923 24.272L84.3003 15.452L84.1563 14.696L84.5163 14.264L84.9843 14.372L90.1323 19.412L90.7083 19.88L94.2003 23.372L94.6683 23.948L95.2443 24.416L95.6763 24.956L96.1443 25.424ZM118.73 24.884L119.018 25.64L119.774 26L120.458 25.928L121.178 26L121.862 25.928H124.094L124.814 25.64L125.102 24.92L125.066 24.236L125.138 23.408L125.102 21.968L124.994 21.356L125.102 20.6L125.174 18.404L125.102 17.756L125.21 16.244L125.066 9.08L125.174 8.36L125.102 7.568L125.39 6.92L126.182 6.596L126.794 6.56L127.514 6.596L128.162 6.524L130.142 6.56L130.97 6.236L131.33 5.516L131.258 4.76L131.33 1.808L130.97 1.088L130.25 0.727999L129.386 0.799998L128.81 0.727999H128.126L127.334 0.835998H126.614L125.894 0.763999H125.174L124.346 0.872L113.618 0.799998L112.826 1.16L112.466 1.88L112.43 5.48L112.826 6.272L113.546 6.632L114.482 6.524L117.686 6.56L118.334 6.956L118.694 7.64L118.802 11.6L118.694 12.716L118.766 13.4L118.694 14.12V15.56L118.802 16.604L118.658 17.684L118.694 18.404L118.658 19.16L118.766 21.356L118.694 22.076L118.73 24.884ZM134.312 24.992L134.6 25.748L135.428 26.072H136.112L137.228 25.964L138.272 26L139.028 26.108L139.784 26.036L140.576 25.712L140.864 24.992L140.9 24.272L140.792 23.48L140.864 22.832L140.792 22.112L140.864 21.428L140.828 20.636L140.9 19.88L140.792 17.036L141.152 16.28L141.872 15.848H142.628L143.276 15.92H145.4L146.12 15.848L146.84 15.92H147.524L148.172 16.28L148.532 17L148.64 19.196L148.532 19.88L148.676 22.436L148.532 23.516L148.64 24.92L149 25.676L149.72 26.036L150.44 25.964L151.52 26.072H154.004L154.724 25.676L155.12 24.992L155.264 23.516V17.72L155.12 16.352L155.156 15.632L155.084 14.876V14.156L155.192 13.4L155.156 12.032L155.228 11.24L155.12 7.712L155.3 4.724L155.156 4.04L155.084 3.356L155.228 2.636L155.156 1.916L154.796 1.196L153.68 0.835998L151.844 0.799998L150.692 0.907999H149.972L148.892 1.232L148.604 2.276L148.676 6.2L148.532 6.812V8.9L148.136 9.62L147.524 9.98H146.084L145.436 9.908L141.944 9.944L141.188 9.62L140.9 8.936V6.776L140.972 6.128L140.864 2.564L140.9 1.952L140.468 1.196L139.352 0.835998L137.228 0.907999L136.508 0.835998L135.824 0.907999L134.708 1.232L134.312 1.844L134.204 2.636V3.32L134.276 4.112L134.168 4.796L134.348 6.956L134.24 7.748L134.312 8.36L134.168 9.08L134.312 11.276L134.24 12.032V14.12L134.348 14.804L134.276 15.92L134.348 16.748L134.24 18.44L134.312 19.232L134.204 19.952L134.312 20.6L134.24 21.32L134.312 24.992ZM160.535 24.956L161.003 25.64L161.687 26.036L169.823 25.964L170.471 26.072L172.667 25.964L174.863 26.108L175.547 26.036L176.303 25.676L176.627 24.992L176.699 24.308L176.663 22.076L176.735 21.392L176.267 20.672L175.187 20.312L170.435 20.24L169.751 20.348L168.959 20.276L168.167 20.348L167.411 19.916L167.087 18.8L167.123 17.036L167.447 16.28L168.095 15.884H169.499L170.219 15.812L172.127 15.92L173.099 15.848L173.855 15.92L174.503 15.884L175.223 15.488L175.583 14.804L175.655 11.96L175.583 11.24L175.259 10.556L174.647 10.16L173.207 10.124L172.487 10.196H171.731L170.903 10.124L168.059 10.16L167.447 9.764L167.015 9.116L166.943 8L167.303 6.956L168.419 6.632L175.331 6.596L176.087 6.2L176.483 5.552L176.411 4.076L176.303 3.392L176.339 2.6L176.447 1.916L176.087 1.196L175.331 0.872L172.451 0.835998L171.803 0.907999L171.083 0.799998L169.499 0.872L168.779 0.799998L167.375 0.835998L166.727 0.763999L162.011 0.872L160.967 1.124L160.607 1.916L160.679 3.356L160.535 4.4L160.679 6.236L160.607 6.992L160.679 7.64V14.084L160.571 14.84L160.679 16.244L160.607 17.684L160.715 18.44L160.643 19.232L160.679 19.916L160.571 20.564L160.643 21.392V22.112L160.715 23.516L160.679 24.236L160.535 24.956ZM212.906 26.468L215.642 26.396L216.362 26.468H217.01L217.694 26.288L217.874 25.532L217.406 24.848L215.462 22.616L215.03 21.932L214.562 21.428L214.346 20.492V19.592L214.958 18.224L215.138 17.468L215.39 16.856L215.678 14.624L215.75 13.4L215.678 12.392L215.534 11.6V10.988L215.39 10.232L214.742 8.144L213.806 6.272L212.51 4.508L212.042 4.04L210.926 3.068L207.938 1.34L205.166 0.547999L203.762 0.403999L202.718 0.475998L200.954 0.512L200.198 0.655998L199.514 0.872L198.83 0.943999L197.462 1.376L194.366 3.104L192.89 4.58L191.162 6.92L190.874 7.496L190.694 8.252L190.406 8.828L189.974 10.268L189.938 10.988L189.758 11.708L189.686 14.516L189.83 15.92L190.37 18.08L190.946 19.304L191.162 19.988L191.594 20.6L191.918 21.284L192.35 21.716L192.818 22.364L194.438 23.804L196.202 24.956L196.922 25.172L197.498 25.568L198.83 25.856L199.55 26.072L200.198 26.216L202.718 26.396L203.834 26.36L204.554 26.396L205.346 26.18L205.958 25.964L208.154 25.352H209.09L210.638 26.18L211.538 26.396H212.186L212.906 26.468ZM202.646 20.096L200.126 19.772L199.442 19.412L198.866 19.052L197.75 17.936L197.318 17.252L196.706 16.028L196.526 15.344L196.346 13.472L196.382 12.356L196.706 10.88L197.39 9.476L197.786 8.864L198.254 8.36L199.514 7.532L200.45 7.1L201.566 6.704L203.87 6.812L204.842 7.1L205.814 7.46L206.462 7.928L207.578 8.936L208.046 9.62L208.37 10.232L208.874 11.564L208.982 13.436L208.91 14.624L208.658 15.956L208.37 16.712L208.01 17.36L207.542 17.972L207.038 18.44L205.85 19.376L204.446 19.952L202.646 20.096ZM219.776 24.524L220.136 25.64L221.18 26.108L221.9 26L223.052 26.108L223.628 26.036H224.708L225.86 25.676L226.184 24.632V23.408L226.256 22.76L226.148 22.004L226.22 19.7L226.544 18.98L227.228 18.584L229.316 18.872L230.036 19.484L230.468 20.204L230.756 20.852L231.512 21.932L232.196 23.228L232.592 23.768L232.88 24.488L233.276 25.1L234.068 25.748L235.292 26.072L238.136 26.036L238.82 26.108L240.008 26.072L240.692 25.748L240.908 24.956L240.512 24.164L240.08 23.66L239.792 22.976L238.568 21.14L238.244 20.492L237.092 18.62L236.66 18.08L236.624 17.216L236.948 16.424L237.452 15.884L237.956 15.452L239.36 12.932L239.828 10.844L239.756 8.576L239.648 7.856L239 5.804L238.712 5.192L238.316 4.616L236.264 2.456L235.004 1.772L233.636 1.304L231.584 0.835998L230.432 0.799998L229.388 0.872H227.228L226.508 0.727999H225.788L225.14 0.907999H224.42L223.7 0.763999L222.908 0.727999L220.784 0.907999L220.136 1.268L219.704 2.276L219.74 10.52L219.812 11.24L219.704 12.68L219.74 13.472V14.192L219.812 14.876L219.74 15.56L219.704 18.476L219.776 19.196V24.524ZM227.228 12.824L226.508 12.428L226.22 11.852V9.692L226.148 9.08L226.22 7.568L226.544 6.884L227.3 6.596L228.02 6.632L229.46 6.488L230.468 6.704L231.404 6.776L232.088 6.956L232.988 8.072L233.204 8.648L233.348 9.584L233.24 10.664L232.916 11.384L232.52 11.924L232.124 12.248L231.476 12.536L230.432 12.788L229.748 12.824L228.02 12.752L227.228 12.824ZM265.094 26.36L267.254 26.468L270.746 25.748L272.726 24.884L273.266 24.524L273.914 24.128L274.526 23.696L274.994 23.228L275.39 22.616L276.002 22.148L277.082 20.276L277.406 19.628L277.586 18.944L277.838 18.224L277.946 17.54L277.73 16.892L276.83 16.496L272.978 16.46L272.186 16.82L271.466 17.504L271.178 18.116L269.81 19.592L268.586 20.204L267.866 20.42L267.11 20.492L265.094 20.456L263.15 19.736L262.466 19.412L261.998 18.908L260.666 17.18L260.378 16.568L259.946 15.164L259.838 13.472L259.874 12.32L260.126 11.672L260.162 10.952L260.378 10.304L260.99 9.008L261.89 7.892L263.078 7.028L263.762 6.74L265.022 6.38L267.254 6.452L268.622 6.704L269.378 6.956L270.422 7.82L270.962 8.396L271.286 9.008L271.934 9.692L272.726 10.016L276.362 10.088L277.082 10.016L277.658 9.692L277.874 8.936L277.586 8.216L277.478 7.568L276.902 6.2L275.57 4.364L273.698 2.672L272.906 2.132L270.854 1.196L269.45 0.799998L267.65 0.547999H264.374L263.762 0.619998L263.078 0.835998L261.674 1.124L260.99 1.376L260.45 1.7L259.802 1.952L257.282 3.572L256.85 4.148L255.878 5.048L255.446 5.66L253.79 8.9L253.142 13.4L253.286 14.552V15.992L253.646 17.396L253.934 18.08L254.042 18.728L254.402 19.376L254.654 19.988L256.094 22.076L257.39 23.336L258.002 23.732L258.542 24.164L260.99 25.496L261.71 25.748L262.25 25.892L263.006 26.144L263.762 26.216L264.41 26.36H265.094ZM292.767 26.432L294.783 26.396L296.943 26.108L299.643 25.208L300.831 24.56L301.371 24.128L302.055 23.804L303.063 22.94L303.531 22.292L304.035 21.788L305.619 19.376L306.159 18.008L306.447 16.64L306.483 15.992L306.663 15.272L306.699 14.516L306.843 13.472L306.735 11.672L306.483 10.196L305.583 7.496L304.899 6.164L304.107 5.084L303.099 3.968L302.055 3.068L301.227 2.492L300.147 2.024L299.607 1.628L296.835 0.763999L294.747 0.403999L293.775 0.368L289.959 0.907999L287.259 1.916L286.719 2.312L286.071 2.636L284.847 3.536L283.083 5.588L281.967 7.496L281.427 8.864L280.815 11.636L280.707 14.552L280.815 15.308L280.995 15.956L281.067 16.64L281.391 18.008L283.047 21.284L283.479 21.716L283.947 22.292L284.487 22.796L284.883 23.264L286.071 24.2L288.879 25.64L289.923 26L290.715 26.072L292.011 26.36L292.767 26.432ZM294.783 20.06H292.803L292.011 19.952L290.715 19.412L290.139 19.088L289.167 18.296L288.699 17.792L288.195 17.108L288.015 16.532L287.691 15.884L287.403 14.552V12.356L287.583 11.708L287.691 11.024L287.979 10.376L288.195 9.728L289.059 8.576L290.859 7.352L291.327 7.172L292.731 6.812L293.739 6.74L295.467 6.956L296.115 7.1L296.763 7.388L297.879 8.18L299.283 9.656L299.715 11.024L300.039 11.708L300.147 12.356L300.075 14.552L299.787 15.884L299.535 16.532L299.139 17.18L298.923 17.72L298.419 18.296L296.691 19.484L296.043 19.664L295.503 19.916L294.783 20.06ZM310.866 24.884L311.298 25.676L311.874 26H312.702L313.458 26.108H314.178L314.934 26L321.414 25.964L323.718 25.64L325.806 24.992L328.866 22.94L330.306 21.284L331.422 19.484L331.602 18.8L331.962 18.116L332.106 17.396L332.358 16.748L332.466 15.992L332.646 15.236L332.61 14.624L332.754 12.32L332.214 10.268L332.142 9.512L331.962 8.864L331.422 7.424L330.594 6.2L330.306 5.588L329.37 4.472L328.758 4.004L327.75 3.032L326.418 2.204L325.698 1.844L323.718 1.196L322.242 0.907999L317.13 0.872L316.41 0.799998L314.106 0.872L313.386 0.799998L312.738 0.835998L311.982 0.799998L311.334 1.196L310.794 1.88V3.356L310.866 4.076L310.83 4.796L310.902 6.164L310.794 6.956L310.902 7.676L310.794 8.396L310.938 11.276L310.83 12.644L310.938 14.192L310.83 14.876L310.938 15.632L310.83 17.036L310.902 19.916L310.83 20.636L310.938 23.516L310.866 24.884ZM318.498 20.204L317.634 19.88L317.31 19.088L317.382 18.368L317.238 17.72L317.346 17V7.748L317.778 7.1L318.822 6.704L319.578 6.74L320.334 6.704L321.414 6.776L322.854 7.208L324.078 8L324.978 9.008L325.374 9.692L325.842 10.268L326.274 12.392L326.382 13.508L326.202 15.272L325.986 15.956L325.446 17.252L324.978 17.9L324.51 18.404L324.078 18.98L323.502 19.34L322.782 19.7L321.486 20.06L318.498 20.204ZM336.914 24.956L337.382 25.64L338.066 26.036L346.202 25.964L346.85 26.072L349.046 25.964L351.242 26.108L351.926 26.036L352.682 25.676L353.006 24.992L353.078 24.308L353.042 22.076L353.114 21.392L352.646 20.672L351.566 20.312L346.814 20.24L346.13 20.348L345.338 20.276L344.546 20.348L343.79 19.916L343.466 18.8L343.502 17.036L343.826 16.28L344.474 15.884H345.878L346.598 15.812L348.506 15.92L349.478 15.848L350.234 15.92L350.882 15.884L351.602 15.488L351.962 14.804L352.034 11.96L351.962 11.24L351.638 10.556L351.026 10.16L349.586 10.124L348.866 10.196H348.11L347.282 10.124L344.438 10.16L343.826 9.764L343.394 9.116L343.322 8L343.682 6.956L344.798 6.632L351.71 6.596L352.466 6.2L352.862 5.552L352.79 4.076L352.682 3.392L352.718 2.6L352.826 1.916L352.466 1.196L351.71 0.872L348.83 0.835998L348.182 0.907999L347.462 0.799998L345.878 0.872L345.158 0.799998L343.754 0.835998L343.106 0.763999L338.39 0.872L337.346 1.124L336.986 1.916L337.058 3.356L336.914 4.4L337.058 6.236L336.986 6.992L337.058 7.64V14.084L336.95 14.84L337.058 16.244L336.986 17.684L337.094 18.44L337.022 19.232L337.058 19.916L336.95 20.564L337.022 21.392V22.112L337.094 23.516L337.058 24.236L336.914 24.956ZM371.644 24.884L371.932 25.64L372.688 26L373.372 25.928L374.092 26L374.776 25.928H377.008L377.728 25.64L378.016 24.92L377.98 24.236L378.052 23.408L378.016 21.968L377.908 21.356L378.016 20.6L378.088 18.404L378.016 17.756L378.124 16.244L377.98 9.08L378.088 8.36L378.016 7.568L378.304 6.92L379.096 6.596L379.708 6.56L380.428 6.596L381.076 6.524L383.056 6.56L383.884 6.236L384.244 5.516L384.172 4.76L384.244 1.808L383.884 1.088L383.164 0.727999L382.3 0.799998L381.724 0.727999H381.04L380.248 0.835998H379.528L378.808 0.763999H378.088L377.26 0.872L366.532 0.799998L365.74 1.16L365.38 1.88L365.344 5.48L365.74 6.272L366.46 6.632L367.396 6.524L370.6 6.56L371.248 6.956L371.608 7.64L371.716 11.6L371.608 12.716L371.68 13.4L371.608 14.12V15.56L371.716 16.604L371.572 17.684L371.608 18.404L371.572 19.16L371.68 21.356L371.608 22.076L371.644 24.884ZM397.146 26.432L399.162 26.396L401.322 26.108L404.022 25.208L405.21 24.56L405.75 24.128L406.434 23.804L407.442 22.94L407.91 22.292L408.414 21.788L409.998 19.376L410.538 18.008L410.826 16.64L410.862 15.992L411.042 15.272L411.078 14.516L411.222 13.472L411.114 11.672L410.862 10.196L409.962 7.496L409.278 6.164L408.486 5.084L407.478 3.968L406.434 3.068L405.606 2.492L404.526 2.024L403.986 1.628L401.214 0.763999L399.126 0.403999L398.154 0.368L394.338 0.907999L391.638 1.916L391.098 2.312L390.45 2.636L389.226 3.536L387.462 5.588L386.346 7.496L385.806 8.864L385.194 11.636L385.086 14.552L385.194 15.308L385.374 15.956L385.446 16.64L385.77 18.008L387.426 21.284L387.858 21.716L388.326 22.292L388.866 22.796L389.262 23.264L390.45 24.2L393.258 25.64L394.302 26L395.094 26.072L396.39 26.36L397.146 26.432ZM399.162 20.06H397.182L396.39 19.952L395.094 19.412L394.518 19.088L393.546 18.296L393.078 17.792L392.574 17.108L392.394 16.532L392.07 15.884L391.782 14.552V12.356L391.962 11.708L392.07 11.024L392.358 10.376L392.574 9.728L393.438 8.576L395.238 7.352L395.706 7.172L397.11 6.812L398.118 6.74L399.846 6.956L400.494 7.1L401.142 7.388L402.258 8.18L403.662 9.656L404.094 11.024L404.418 11.708L404.526 12.356L404.454 14.552L404.166 15.884L403.914 16.532L403.518 17.18L403.302 17.72L402.798 18.296L401.07 19.484L400.422 19.664L399.882 19.916L399.162 20.06ZM424.946 24.92L425.342 25.748L426.026 26.072L437.942 25.928L439.31 25.748L440.498 25.28L441.866 24.488L442.334 24.128L442.91 23.588L443.738 22.4L444.062 21.716L444.206 21.104L444.494 20.384L444.53 17.504L444.386 16.82L444.134 16.064L443.486 14.804L442.982 14.192L442.442 13.652L442.118 12.86L442.262 12.14L442.658 11.42L443.09 10.808L443.594 8.216L443.558 7.172L443.162 5.84L442.802 5.156L442.586 4.472L441.722 3.32L441.218 2.816L440.138 2.06L438.806 1.34L436.79 0.872L425.954 0.799998L425.234 1.124L424.91 1.88L424.982 3.428L424.91 4.472L425.054 6.884L424.946 7.64L425.018 8.396L424.946 9.08L424.982 9.836L424.91 10.52V13.4L425.018 14.156L424.946 14.84V16.28L425.018 16.964L424.946 19.916L425.054 21.392L424.91 23.552L424.946 24.92ZM432.326 10.556L431.462 10.268L431.102 9.548L431.246 8.936V8.252L431.174 7.568L431.57 6.956L432.326 6.56L434.918 6.668L436.034 6.884L436.466 7.172L436.934 7.676L437.042 8.648L436.862 9.728L436.25 10.304L435.026 10.556H432.326ZM432.218 20.276L431.606 19.988L431.21 19.232L431.246 18.62L431.174 17.936L431.21 17.216L431.462 16.568L432.182 16.208H435.998L437.006 16.388L437.546 16.784L438.086 17.288L438.158 18.296L438.086 19.232L437.618 19.736L436.97 20.132L435.026 20.312L432.218 20.276ZM448.676 24.956L449.144 25.64L449.828 26.036L457.964 25.964L458.612 26.072L460.808 25.964L463.004 26.108L463.688 26.036L464.444 25.676L464.768 24.992L464.84 24.308L464.804 22.076L464.876 21.392L464.408 20.672L463.328 20.312L458.576 20.24L457.892 20.348L457.1 20.276L456.308 20.348L455.552 19.916L455.228 18.8L455.264 17.036L455.588 16.28L456.236 15.884H457.64L458.36 15.812L460.268 15.92L461.24 15.848L461.996 15.92L462.644 15.884L463.364 15.488L463.724 14.804L463.796 11.96L463.724 11.24L463.4 10.556L462.788 10.16L461.348 10.124L460.628 10.196H459.872L459.044 10.124L456.2 10.16L455.588 9.764L455.156 9.116L455.084 8L455.444 6.956L456.56 6.632L463.472 6.596L464.228 6.2L464.624 5.552L464.552 4.076L464.444 3.392L464.48 2.6L464.588 1.916L464.228 1.196L463.472 0.872L460.592 0.835998L459.944 0.907999L459.224 0.799998L457.64 0.872L456.92 0.799998L455.516 0.835998L454.868 0.763999L450.152 0.872L449.108 1.124L448.748 1.916L448.82 3.356L448.676 4.4L448.82 6.236L448.748 6.992L448.82 7.64V14.084L448.712 14.84L448.82 16.244L448.748 17.684L448.856 18.44L448.784 19.232L448.82 19.916L448.712 20.564L448.784 21.392V22.112L448.856 23.516L448.82 24.236L448.676 24.956ZM479.615 26.432L480.551 26.468L482.495 26.288L483.215 26.144L483.899 26.108L484.511 25.928L487.175 24.776L487.679 24.344L488.867 23.588L489.911 22.472L491.063 20.78L491.891 19.124L492.359 17.576L492.395 16.892L492.611 16.172L492.755 13.436L492.647 12.716L492.215 11.996L491.171 11.672H482.135L481.019 12.068L480.695 12.752L480.623 15.452L480.767 16.136L480.983 16.748L481.667 17.072H482.351L482.999 17.144L485.159 17.036L485.663 17.432L485.807 18.044L485.519 18.62L484.475 19.628L483.899 19.916L482.531 20.348L481.811 20.456L480.767 20.492L479.651 20.42L479.003 20.276L478.355 20.024L477.059 19.34L475.979 18.476L475.583 17.864L475.295 17.252L474.899 16.604L474.647 15.92L474.431 12.32L474.827 11.024L474.971 10.304L475.511 8.972L476.447 7.964L477.635 7.136L478.247 6.848L479.651 6.38L480.659 6.344L482.531 6.56L483.215 6.74L485.015 7.856L485.375 8.432L486.167 9.008L486.959 9.368H490.487L491.171 9.296L491.783 9.08L492.035 8.288L490.883 5.624L490.379 5.12L489.479 3.968L488.435 2.924L485.987 1.412L485.195 1.196L484.619 0.943999L483.899 0.835998L483.107 0.619998L479.543 0.439999L477.347 0.799998L474.611 1.772L473.963 2.096L472.163 3.32L471.083 4.328L470.615 4.94L470.255 5.516L469.715 6.02L469.319 6.704L468.203 9.44L468.167 10.088L467.771 11.672L467.843 13.472L467.771 14.48L467.807 15.236L468.419 18.008L469.175 19.988L469.571 20.672L470.867 22.292L471.875 23.336L474.179 24.884L474.827 25.208L476.843 25.928L478.859 26.36L479.615 26.432ZM495.519 24.956L495.879 25.712L496.599 25.964L507.291 26.036L507.975 25.676L508.371 25.028V24.236L508.299 23.588L508.407 21.392L507.903 20.78L505.491 20.024L505.095 19.304L505.167 16.352L505.023 14.912L505.167 13.4L505.095 12.32L505.167 11.204L505.095 10.52L505.167 9.8L505.095 9.044V7.532L505.491 6.884L506.175 6.488L506.967 6.452L507.651 6.056L508.047 5.372V3.248L508.119 2.6L508.047 1.88L507.759 1.16L506.607 0.835998L502.035 0.799998L501.243 0.872L499.047 0.835998L498.363 0.872L496.959 0.799998L496.167 1.16L495.771 1.916V2.6L495.699 3.212V4.004L495.771 4.724V5.408L496.131 6.092L498.327 6.848L498.795 7.496L498.687 10.556L498.723 11.168L498.831 11.996L498.795 13.472L498.723 14.192L498.867 15.596L498.687 16.316L498.831 17.864L498.759 19.268L498.399 20.06L496.023 20.816L495.591 21.5L495.519 22.184V24.956ZM531.379 25.424L532.423 25.892L533.359 26.18L534.187 25.784L534.511 25.028L534.691 15.236L534.547 14.228L534.619 13.436L534.475 9.116L534.583 7.676L534.511 6.992V5.552L534.655 4.832L534.583 3.752L534.655 1.88L534.223 1.232L533.431 0.872L532.711 0.799998H532.027L531.235 0.872L530.479 0.763999L529.831 0.835998L529.111 0.799998L528.247 1.16L527.887 1.916L527.851 8.468L527.995 9.224V9.908L527.851 10.664L527.887 12.104L527.707 12.68L527.203 12.536L525.619 10.916L525.079 10.484L523.819 9.188L523.243 8.756L522.847 8.252L522.091 7.46L520.975 6.524L520.579 5.984L519.895 5.516L519.535 4.976L518.923 4.544L518.455 3.932L516.511 1.952L515.071 0.979998L514.099 0.692L513.235 1.124L512.767 1.808L512.839 6.848L512.767 7.568L512.875 9.044L512.803 9.692L512.839 10.448L512.731 11.204L512.875 16.352L512.803 17V17.684L512.731 18.476V19.16L512.839 19.916L512.803 21.392L512.875 22.112L512.767 23.48L512.875 24.2V24.884L513.199 25.676L513.883 26.072L515.107 26L516.907 26.108L517.663 26L518.491 26.072L519.211 25.712L519.535 24.992L519.427 24.272L519.535 15.452L519.391 14.696L519.751 14.264L520.219 14.372L525.367 19.412L525.943 19.88L529.435 23.372L529.903 23.948L530.479 24.416L530.911 24.956L531.379 25.424Z" fill="#003366"/>
</svg>
