<svg width="178" height="78" viewBox="0 0 178 78" fill="none" xmlns="http://www.w3.org/2000/svg">
<g filter="url(#filter0_dii_132_1147)">
<rect x="20" y="20" width="138" height="38" rx="4" fill="#003366"/>
</g>
<g filter="url(#filter1_d_132_1147)">
<path d="M70.4039 44.14H71.8039L72.8539 43.888L73.8479 43.384L74.2819 43.048L74.4919 42.824L74.7019 42.656L74.8699 42.46L75.0099 42.222L75.1359 41.97L75.3039 41.774L75.5839 40.948L75.6959 40.416L75.7099 40.178L75.7659 39.926V39.646L75.7939 39.38L75.7659 38.848L75.6259 38.61L75.3599 38.47L75.0659 38.456L74.7719 38.414L72.8819 38.456L72.0419 38.4L71.5099 38.442L71.2299 38.582L71.1039 38.848V40.178L71.2299 40.402L71.4819 40.556L71.8879 40.584L72.5879 40.528L72.8399 40.57L73.0499 40.668L73.0919 40.906L72.9519 41.144L72.7419 41.382L72.5459 41.536L72.0839 41.718L71.5379 41.844L71.1739 41.858L70.4599 41.774L69.7039 41.466L69.2839 41.074L69.1299 40.878L68.8639 40.374L68.7519 39.968L68.6819 39.52L68.6679 38.708L68.7659 38.162L68.9899 37.658L69.4239 37L69.9139 36.65L70.1519 36.524L70.4179 36.496L70.6559 36.384L71.5099 36.356L72.0279 36.496L72.2939 36.608L72.5599 36.79L72.7279 36.972L72.9099 37.21L73.2039 37.448L73.5399 37.546L73.9739 37.56L74.3939 37.504L75.0659 37.546L75.4159 37.392L75.4999 37.154L75.3039 36.58L75.1779 36.328L74.6179 35.516L74.3099 35.264L74.0859 35.054L73.8759 34.886L72.8959 34.368L72.6019 34.312L71.9439 34.13L70.6419 34.074L70.3619 34.088L70.1239 34.172L69.8579 34.186L68.7799 34.578L68.0099 35.054L67.3939 35.6L67.2119 35.824L67.0019 36.034L66.8479 36.244L66.3299 37.294L66.0779 38.68L66.0639 39.128L66.1339 40.108L66.5259 41.424L66.7779 41.9L67.0999 42.376L67.6599 42.964L68.1219 43.286L69.0879 43.846L69.3259 43.916L70.1239 44.056L70.4039 44.14ZM81.5006 44.168L82.2846 44.154L83.1246 44.042L84.1746 43.692L84.6366 43.44L84.8466 43.272L85.1126 43.146L85.5046 42.81L85.6866 42.558L85.8826 42.362L86.4986 41.424L86.7086 40.892L86.8206 40.36L86.8346 40.108L86.9046 39.828L86.9186 39.534L86.9746 39.128L86.9326 38.428L86.8346 37.854L86.4846 36.804L86.2186 36.286L85.9106 35.866L85.5186 35.432L85.1126 35.082L84.7906 34.858L84.3706 34.676L84.1606 34.522L83.0826 34.186L82.2706 34.046L81.8926 34.032L80.4086 34.242L79.3586 34.634L79.1486 34.788L78.8966 34.914L78.4206 35.264L77.7346 36.062L77.3006 36.804L77.0906 37.336L76.8526 38.414L76.8106 39.548L76.8526 39.842L76.9226 40.094L76.9506 40.36L77.0766 40.892L77.7206 42.166L77.8886 42.334L78.0706 42.558L78.2806 42.754L78.4346 42.936L78.8966 43.3L79.9886 43.86L80.3946 44L80.7026 44.028L81.2066 44.14L81.5006 44.168ZM82.2846 41.69H81.5146L81.2066 41.648L80.7026 41.438L80.4786 41.312L80.1006 41.004L79.9186 40.808L79.7226 40.542L79.6526 40.318L79.5266 40.066L79.4146 39.548V38.694L79.4846 38.442L79.5266 38.176L79.6386 37.924L79.7226 37.672L80.0586 37.224L80.7586 36.748L80.9406 36.678L81.4866 36.538L81.8786 36.51L82.5506 36.594L82.8026 36.65L83.0546 36.762L83.4886 37.07L84.0346 37.644L84.2026 38.176L84.3286 38.442L84.3706 38.694L84.3426 39.548L84.2306 40.066L84.1326 40.318L83.9786 40.57L83.8946 40.78L83.6986 41.004L83.0266 41.466L82.7746 41.536L82.5646 41.634L82.2846 41.69ZM89.7261 43.566L89.8381 43.86L90.1321 44L90.3981 43.972L90.6781 44L90.9441 43.972H91.8121L92.0921 43.86L92.2041 43.58L92.1901 43.314L92.2181 42.992L92.2041 42.432L92.1621 42.194L92.2041 41.9L92.2321 41.046L92.2041 40.794L92.2461 40.206L92.1901 37.42L92.2321 37.14L92.2041 36.832L92.3161 36.58L92.6241 36.454L92.8621 36.44L93.1421 36.454L93.3941 36.426L94.1641 36.44L94.4861 36.314L94.6261 36.034L94.5981 35.74L94.6261 34.592L94.4861 34.312L94.2061 34.172L93.8701 34.2L93.6461 34.172H93.3801L93.0721 34.214H92.7921L92.5121 34.186H92.2321L91.9101 34.228L87.7381 34.2L87.4301 34.34L87.2901 34.62L87.2761 36.02L87.4301 36.328L87.7101 36.468L88.0741 36.426L89.3201 36.44L89.5721 36.594L89.7121 36.86L89.7541 38.4L89.7121 38.834L89.7401 39.1L89.7121 39.38V39.94L89.7541 40.346L89.6981 40.766L89.7121 41.046L89.6981 41.34L89.7401 42.194L89.7121 42.474L89.7261 43.566ZM98.9484 43.594L99.0884 43.888L99.3684 43.986L103.526 44.014L103.792 43.874L103.946 43.622V43.314L103.918 43.062L103.96 42.208L103.764 41.97L102.826 41.676L102.672 41.396L102.7 40.248L102.644 39.688L102.7 39.1L102.672 38.68L102.7 38.246L102.672 37.98L102.7 37.7L102.672 37.406V36.818L102.826 36.566L103.092 36.412L103.4 36.398L103.666 36.244L103.82 35.978V35.152L103.848 34.9L103.82 34.62L103.708 34.34L103.26 34.214L101.482 34.2L101.174 34.228L100.32 34.214L100.054 34.228L99.5084 34.2L99.2004 34.34L99.0464 34.634V34.9L99.0184 35.138V35.446L99.0464 35.726V35.992L99.1864 36.258L100.04 36.552L100.222 36.804L100.18 37.994L100.194 38.232L100.236 38.554L100.222 39.128L100.194 39.408L100.25 39.954L100.18 40.234L100.236 40.836L100.208 41.382L100.068 41.69L99.1444 41.984L98.9764 42.25L98.9484 42.516V43.594ZM107.322 43.566L107.434 43.86L107.728 44L107.994 43.972L108.274 44L108.54 43.972H109.408L109.688 43.86L109.8 43.58L109.786 43.314L109.814 42.992L109.8 42.432L109.758 42.194L109.8 41.9L109.828 41.046L109.8 40.794L109.842 40.206L109.786 37.42L109.828 37.14L109.8 36.832L109.912 36.58L110.22 36.454L110.458 36.44L110.738 36.454L110.99 36.426L111.76 36.44L112.082 36.314L112.222 36.034L112.194 35.74L112.222 34.592L112.082 34.312L111.802 34.172L111.466 34.2L111.242 34.172H110.976L110.668 34.214H110.388L110.108 34.186H109.828L109.506 34.228L105.334 34.2L105.026 34.34L104.886 34.62L104.872 36.02L105.026 36.328L105.306 36.468L105.67 36.426L106.916 36.44L107.168 36.594L107.308 36.86L107.35 38.4L107.308 38.834L107.336 39.1L107.308 39.38V39.94L107.35 40.346L107.294 40.766L107.308 41.046L107.294 41.34L107.336 42.194L107.308 42.474L107.322 43.566Z" fill="white"/>
</g>
<defs>
<filter id="filter0_dii_132_1147" x="10" y="17" width="151" height="51" filterUnits="userSpaceOnUse" color-interpolation-filters="sRGB">
<feFlood flood-opacity="0" result="BackgroundImageFix"/>
<feColorMatrix in="SourceAlpha" type="matrix" values="0 0 0 0 0 0 0 0 0 0 0 0 0 0 0 0 0 0 127 0" result="hardAlpha"/>
<feOffset dx="-4" dy="4"/>
<feGaussianBlur stdDeviation="3"/>
<feComposite in2="hardAlpha" operator="out"/>
<feColorMatrix type="matrix" values="0 0 0 0 0 0 0 0 0 0 0 0 0 0 0 0 0 0 0.25 0"/>
<feBlend mode="normal" in2="BackgroundImageFix" result="effect1_dropShadow_132_1147"/>
<feBlend mode="normal" in="SourceGraphic" in2="effect1_dropShadow_132_1147" result="shape"/>
<feColorMatrix in="SourceAlpha" type="matrix" values="0 0 0 0 0 0 0 0 0 0 0 0 0 0 0 0 0 0 127 0" result="hardAlpha"/>
<feOffset dx="-3" dy="3"/>
<feGaussianBlur stdDeviation="3"/>
<feComposite in2="hardAlpha" operator="arithmetic" k2="-1" k3="1"/>
<feColorMatrix type="matrix" values="0 0 0 0 1 0 0 0 0 1 0 0 0 0 1 0 0 0 0.2 0"/>
<feBlend mode="normal" in2="shape" result="effect2_innerShadow_132_1147"/>
<feColorMatrix in="SourceAlpha" type="matrix" values="0 0 0 0 0 0 0 0 0 0 0 0 0 0 0 0 0 0 127 0" result="hardAlpha"/>
<feOffset dx="3" dy="-3"/>
<feGaussianBlur stdDeviation="3"/>
<feComposite in2="hardAlpha" operator="arithmetic" k2="-1" k3="1"/>
<feColorMatrix type="matrix" values="0 0 0 0 0 0 0 0 0 0 0 0 0 0 0 0 0 0 0.2 0"/>
<feBlend mode="normal" in2="effect2_innerShadow_132_1147" result="effect3_innerShadow_132_1147"/>
</filter>
<filter id="filter1_d_132_1147" x="60.064" y="28.032" width="58.1577" height="22.136" filterUnits="userSpaceOnUse" color-interpolation-filters="sRGB">
<feFlood flood-opacity="0" result="BackgroundImageFix"/>
<feColorMatrix in="SourceAlpha" type="matrix" values="0 0 0 0 0 0 0 0 0 0 0 0 0 0 0 0 0 0 127 0" result="hardAlpha"/>
<feOffset/>
<feGaussianBlur stdDeviation="3"/>
<feComposite in2="hardAlpha" operator="out"/>
<feColorMatrix type="matrix" values="0 0 0 0 0 0 0 0 0 0 0 0 0 0 0 0 0 0 0.33 0"/>
<feBlend mode="normal" in2="BackgroundImageFix" result="effect1_dropShadow_132_1147"/>
<feBlend mode="normal" in="SourceGraphic" in2="effect1_dropShadow_132_1147" result="shape"/>
</filter>
</defs>
</svg>
