<svg width="178" height="78" viewBox="0 0 178 78" fill="none" xmlns="http://www.w3.org/2000/svg">
<g filter="url(#filter0_dii_67_271)">
<rect x="20" y="20" width="138" height="38" rx="4" fill="#003366"/>
</g>
<g filter="url(#filter1_d_67_271)">
<path d="M57.7292 44.028L58.6672 44L59.0732 43.86L59.2132 43.468L59.2552 42.74L59.2132 42.208L59.2412 41.914L59.2272 41.354L59.2552 41.102L59.2132 40.794L59.2412 38.54L59.1992 38.246L59.2412 37.028L59.3532 36.608L59.6192 36.44L60.1652 36.412L60.6832 36.482L60.9772 36.44L61.2292 36.454L61.4672 36.3L61.6352 35.992L61.6492 34.662L61.4952 34.382L61.2292 34.2H60.3612L60.0952 34.172L59.8012 34.214L59.5352 34.186L58.4012 34.242L58.1212 34.186L57.8552 34.172L57.5612 34.214L57.2532 34.186L57.0012 34.242L56.1752 34.2L55.7412 34.242L54.7612 34.186L54.4952 34.326L54.3272 34.648L54.3412 34.928L54.3132 35.628L54.3412 36.062L54.4672 36.314L54.7192 36.454L54.9992 36.426L56.3292 36.454L56.5952 36.594L56.7492 36.874L56.7212 37.322L56.7492 37.714L56.7352 38.022L56.7492 38.302L56.7212 38.694L56.7632 40.78L56.7352 41.06L56.7212 42.194L56.7492 42.488L56.7352 43.3L56.7072 43.566L56.8892 43.874L57.2952 44.014L57.7292 44.028ZM66.7115 44.182L67.1315 44.14L67.3975 44.154L68.4895 43.874L68.9935 43.608L69.4555 43.3L69.8475 42.908L70.1695 42.418L70.2535 42.138L70.3935 41.9L70.5195 41.312L70.5895 40.64V36.86L70.5615 36.594L70.5895 36.286L70.5615 36.062V34.9L70.6035 34.62L70.4215 34.326L70.1135 34.228L69.2315 34.256L68.6435 34.214L68.3495 34.354L68.1955 34.662L68.2235 40.178L68.1255 41.046L68.0415 41.256L67.8875 41.536L67.6495 41.704L67.1595 41.886H66.3195L65.9975 41.816L65.7595 41.676L65.5355 41.508L65.3675 41.284L65.2835 41.018L65.1995 40.206L65.2415 35.698L65.2135 35.488L65.2415 35.04L65.2135 34.634L65.0455 34.326L64.7515 34.2H64.4855L64.2055 34.242L63.6035 34.186L63.3095 34.228L63.0155 34.34L62.8335 34.606L62.8615 34.886V35.222L62.8335 35.446L62.8755 37.406L62.8335 37.686L62.8615 37.952L62.8195 40.206L62.9035 41.326L63.0435 41.9L63.2675 42.376L63.5895 42.88L63.7575 43.076L63.9675 43.258L64.4155 43.552L64.6955 43.678L64.9055 43.804L65.4375 44.042L65.9835 44.154H66.2635L66.7115 44.182ZM75.2155 44.028L76.1535 44L76.5595 43.86L76.6995 43.468L76.7415 42.74L76.6995 42.208L76.7275 41.914L76.7135 41.354L76.7415 41.102L76.6995 40.794L76.7275 38.54L76.6855 38.246L76.7275 37.028L76.8395 36.608L77.1055 36.44L77.6515 36.412L78.1695 36.482L78.4635 36.44L78.7155 36.454L78.9535 36.3L79.1215 35.992L79.1355 34.662L78.9815 34.382L78.7155 34.2H77.8475L77.5815 34.172L77.2875 34.214L77.0215 34.186L75.8875 34.242L75.6075 34.186L75.3415 34.172L75.0475 34.214L74.7395 34.186L74.4875 34.242L73.6615 34.2L73.2275 34.242L72.2475 34.186L71.9815 34.326L71.8135 34.648L71.8275 34.928L71.7995 35.628L71.8275 36.062L71.9535 36.314L72.2055 36.454L72.4855 36.426L73.8155 36.454L74.0815 36.594L74.2355 36.874L74.2075 37.322L74.2355 37.714L74.2215 38.022L74.2355 38.302L74.2075 38.694L74.2495 40.78L74.2215 41.06L74.2075 42.194L74.2355 42.488L74.2215 43.3L74.1935 43.566L74.3755 43.874L74.7815 44.014L75.2155 44.028ZM84.5447 44.182L85.7907 44.056L86.3227 43.888L87.5687 43.328L88.5487 42.39L88.7307 42.138L89.2767 41.172L89.3747 40.906L89.4167 40.626L89.5007 40.402L89.5567 40.094L89.6267 39.114L89.5567 38.148L89.4447 37.63L89.3327 37.336L89.2627 37.014L89.0107 36.552L88.9127 36.3L88.7307 36.062L88.5627 35.894L88.3807 35.642L87.7787 35.096L87.0647 34.648L85.2307 34.074L84.5727 34.06L83.5927 34.116L83.3127 34.172L83.0327 34.256L82.7807 34.368L82.2487 34.508L81.5347 34.956L81.3387 35.124L80.8907 35.432L80.5127 35.852L80.0367 36.552L79.9107 36.79L79.6447 37.56L79.5327 38.162L79.4767 39.786L79.6307 40.668L79.8407 41.144L79.9247 41.438L80.0647 41.69L80.7227 42.586L81.1147 42.964L81.2967 43.174L82.2487 43.678L82.5147 43.79L83.7047 44.14L84.5447 44.182ZM84.1527 41.718L83.8727 41.62L83.6207 41.592L83.1447 41.34L82.7107 40.962L82.5707 40.766L82.3887 40.57L82.1227 39.786L82.0527 39.086L82.0667 38.666L82.1647 38.148L82.2487 37.896L82.4167 37.7L82.5427 37.462L82.7247 37.238L82.9347 37.056L83.3407 36.776L83.5927 36.65L83.8867 36.58L84.5307 36.524L85.2027 36.566L85.9447 36.888L86.3787 37.21L86.7007 37.686L86.8127 37.938L86.8967 38.218L86.9947 38.47L87.0507 39.072L86.9667 39.772L86.8407 40.346L86.6867 40.556L86.5607 40.766L86.3927 41.018L85.9587 41.354L85.7067 41.466L85.4827 41.592L85.2307 41.62L84.9647 41.69L84.1527 41.718ZM91.2053 43.426L91.3453 43.86L91.7513 44.042L92.0313 44L92.4793 44.042L92.7033 44.014H93.1233L93.5713 43.874L93.6973 43.468V42.992L93.7253 42.74L93.6833 42.446L93.7113 41.55L93.8373 41.27L94.1033 41.116L94.9153 41.228L95.1953 41.466L95.3633 41.746L95.4753 41.998L95.7693 42.418L96.0353 42.922L96.1893 43.132L96.3013 43.412L96.4553 43.65L96.7633 43.902L97.2393 44.028L98.3453 44.014L98.6113 44.042L99.0733 44.028L99.3393 43.902L99.4233 43.594L99.2693 43.286L99.1013 43.09L98.9893 42.824L98.5133 42.11L98.3873 41.858L97.9393 41.13L97.7713 40.92L97.7573 40.584L97.8833 40.276L98.0793 40.066L98.2753 39.898L98.8213 38.918L99.0033 38.106L98.9753 37.224L98.9333 36.944L98.6813 36.146L98.5693 35.908L98.4153 35.684L97.6173 34.844L97.1273 34.578L96.5953 34.396L95.7973 34.214L95.3493 34.2L94.9433 34.228H94.1033L93.8233 34.172H93.5433L93.2913 34.242H93.0113L92.7313 34.186L92.4233 34.172L91.5973 34.242L91.3453 34.382L91.1773 34.774L91.1913 37.98L91.2193 38.26L91.1773 38.82L91.1913 39.128V39.408L91.2193 39.674L91.1913 39.94L91.1773 41.074L91.2053 41.354V43.426ZM94.1033 38.876L93.8233 38.722L93.7113 38.498V37.658L93.6833 37.42L93.7113 36.832L93.8373 36.566L94.1313 36.454L94.4113 36.468L94.9713 36.412L95.3633 36.496L95.7273 36.524L95.9933 36.594L96.3433 37.028L96.4273 37.252L96.4833 37.616L96.4413 38.036L96.3153 38.316L96.1613 38.526L96.0073 38.652L95.7553 38.764L95.3493 38.862L95.0833 38.876L94.4113 38.848L94.1033 38.876ZM104.566 44.056L105.126 44.028L105.378 43.888L105.518 43.622V42.236L105.35 41.97L105.042 41.816H104.748L104.412 41.704L104.244 41.382L104.286 41.116L104.272 39.576L104.3 39.268L104.244 38.26L104.3 36.846L104.398 36.524L104.706 36.398L104.986 36.356L105.28 36.244L105.42 36.02L105.434 34.634L105.266 34.368L105.014 34.214H103.32L103.068 34.186L102.788 34.242H101.64L101.374 34.2H101.052L100.772 34.34L100.632 34.676L100.674 35.712L100.646 35.978L100.8 36.258L101.108 36.412H101.388L101.654 36.58L101.78 36.958L101.822 41.256L101.668 41.676L100.744 41.956L100.59 42.208L100.548 43.496L100.688 43.874L100.968 44H101.234L101.5 43.972L101.906 44.028L102.34 44.014L102.62 43.986L103.18 44.042L103.6 43.986H104.286L104.566 44.056ZM114.493 44.028L115.025 43.986L115.291 44.014L115.725 44L116.117 43.93L116.159 43.594L116.061 43.272L115.851 42.754L115.473 42.026L115.277 41.508L114.997 41.004L114.465 39.73L114.325 39.52L114.185 39.254L114.101 38.946L113.975 38.736L113.891 38.512L113.597 37.994L113.499 37.7L112.575 35.754L112.491 35.474L112.337 35.222L112.253 34.97L111.987 34.48L111.749 34.228L111.287 34.088L110.839 34.242L110.587 34.48L110.461 34.718L110.363 34.998L110.237 35.194L109.677 36.482L109.523 36.692L109.453 36.972L109.299 37.238L109.215 37.49L107.787 40.486L107.703 40.794L107.563 41.004L107.465 41.284L107.213 41.732L107.003 42.292L106.849 42.488L106.779 42.74L106.499 43.3L106.415 43.58L106.485 43.93L106.765 44.014L107.311 43.986L107.591 44.014L108.375 43.986L108.697 43.888L108.963 43.636L109.215 43.174L109.481 42.908L109.775 42.754L110.041 42.796L110.629 42.74L110.881 42.782L112.253 42.768L112.505 42.796L112.813 42.754L113.121 42.908L113.387 43.132L113.513 43.398L113.597 43.65L113.877 43.86L114.199 44L114.493 44.028ZM111.315 40.542L111.035 40.486L110.713 40.514L110.489 40.416L110.475 40.15L111.133 38.638L111.287 38.512L111.483 38.624L112.141 40.164L112.085 40.416L111.875 40.528L111.315 40.542ZM117.456 43.496L117.554 43.86L117.82 44L118.1 44.028L118.688 43.986L119.234 44.014L119.766 43.986L120.032 44.028L120.34 44L123.112 44.014L123.378 43.874L123.532 43.44L123.518 42.306L123.392 41.886L123.14 41.718L122.846 41.746L122.58 41.802L122.286 41.76L121.712 41.774L121.432 41.718L121.18 41.76L120.634 41.732L120.34 41.76L120.06 41.648L119.948 41.368L119.962 36.622L119.934 36.286L119.962 35.726L119.92 34.928L119.934 34.662L119.794 34.354L119.514 34.186H118.968L118.688 34.242L118.128 34.186L117.862 34.228L117.568 34.34L117.442 34.648V36.608L117.414 36.874L117.442 37.154L117.4 37.672L117.414 37.98L117.442 38.246L117.456 43.496Z" fill="white"/>
</g>
<defs>
<filter id="filter0_dii_67_271" x="10" y="17" width="151" height="51" filterUnits="userSpaceOnUse" color-interpolation-filters="sRGB">
<feFlood flood-opacity="0" result="BackgroundImageFix"/>
<feColorMatrix in="SourceAlpha" type="matrix" values="0 0 0 0 0 0 0 0 0 0 0 0 0 0 0 0 0 0 127 0" result="hardAlpha"/>
<feOffset dx="-4" dy="4"/>
<feGaussianBlur stdDeviation="3"/>
<feComposite in2="hardAlpha" operator="out"/>
<feColorMatrix type="matrix" values="0 0 0 0 0 0 0 0 0 0 0 0 0 0 0 0 0 0 0.25 0"/>
<feBlend mode="normal" in2="BackgroundImageFix" result="effect1_dropShadow_67_271"/>
<feBlend mode="normal" in="SourceGraphic" in2="effect1_dropShadow_67_271" result="shape"/>
<feColorMatrix in="SourceAlpha" type="matrix" values="0 0 0 0 0 0 0 0 0 0 0 0 0 0 0 0 0 0 127 0" result="hardAlpha"/>
<feOffset dx="-3" dy="3"/>
<feGaussianBlur stdDeviation="3"/>
<feComposite in2="hardAlpha" operator="arithmetic" k2="-1" k3="1"/>
<feColorMatrix type="matrix" values="0 0 0 0 1 0 0 0 0 1 0 0 0 0 1 0 0 0 0.2 0"/>
<feBlend mode="normal" in2="shape" result="effect2_innerShadow_67_271"/>
<feColorMatrix in="SourceAlpha" type="matrix" values="0 0 0 0 0 0 0 0 0 0 0 0 0 0 0 0 0 0 127 0" result="hardAlpha"/>
<feOffset dx="3" dy="-3"/>
<feGaussianBlur stdDeviation="3"/>
<feComposite in2="hardAlpha" operator="arithmetic" k2="-1" k3="1"/>
<feColorMatrix type="matrix" values="0 0 0 0 0 0 0 0 0 0 0 0 0 0 0 0 0 0 0.2 0"/>
<feBlend mode="normal" in2="effect2_innerShadow_67_271" result="effect3_innerShadow_67_271"/>
</filter>
<filter id="filter1_d_67_271" x="48.3132" y="28.06" width="81.2184" height="22.122" filterUnits="userSpaceOnUse" color-interpolation-filters="sRGB">
<feFlood flood-opacity="0" result="BackgroundImageFix"/>
<feColorMatrix in="SourceAlpha" type="matrix" values="0 0 0 0 0 0 0 0 0 0 0 0 0 0 0 0 0 0 127 0" result="hardAlpha"/>
<feOffset/>
<feGaussianBlur stdDeviation="3"/>
<feComposite in2="hardAlpha" operator="out"/>
<feColorMatrix type="matrix" values="0 0 0 0 0 0 0 0 0 0 0 0 0 0 0 0 0 0 0.33 0"/>
<feBlend mode="normal" in2="BackgroundImageFix" result="effect1_dropShadow_67_271"/>
<feBlend mode="normal" in="SourceGraphic" in2="effect1_dropShadow_67_271" result="shape"/>
</filter>
</defs>
</svg>
