<svg xmlns="http://www.w3.org/2000/svg" viewBox="0 0 612.27 846.14"><defs><style>.a{fill:#ed7269;}.b{fill:#f8c8c9;}.c{fill:#ed729c;}.d{fill:#f7cce1;}.e{fill:#f6a400;}.f{fill:#ffdb75;}.g{fill:none;}</style></defs><path class="a" d="M361.39,694.65c-13.28-.58-25.77-.35-33.16,12.52-4.11,7.15-5.58,15.46-7.51,23.49-2.29,9.5-5.38,19.85-14.77,24.33-8.93,4.25-20.86,2.67-27-5.08-5.18-6.53-5.39-16-2.24-23.74s9.16-13.91,15.61-19.18c11.9-9.71,28.29-16.73,28.7-34.15a92.15,92.15,0,0,0-1.16-15.11,107.4,107.4,0,0,0-5.69-22.53A82.74,82.74,0,0,0,302,612.76a46.28,46.28,0,0,0-3.36-3.78,21.46,21.46,0,0,0-15.87-6.68,64.91,64.91,0,0,0-12,1.25c-6.91,1.23-13.8,2.63-20.74,3.69a39.67,39.67,0,0,1-15.9-.67,25,25,0,0,1-13.71-8.39c-.63-.78-1.14-1.65-1.7-2.47-.81-2.4-1.68-4.88-2.42-7.38-2.32-7.87-3.24-15.92,4.07-22.38,4.64-4.11,11.25-5.32,17.43-4.94s12.2,2.17,18.28,3.36c11,2.14,22.73,2.59,33.71.09,16.56-3.79,25.74-15.7,28.78-31.93,1.08-5.73,1.76-11.68.43-17.36-2.48-10.59-17.35-15.2-13.82-27.56a16,16,0,0,1,10.15-10.31A21,21,0,0,1,330,478c5.48,2.24,9.95,6.36,15.07,9.34,16.43,9.59,36.8,7.5,54.17,1.81,8.64-2.83,16.12-7.15,24.15-11.08a47.42,47.42,0,0,0,20-18.68c.71-1.22,1.36-2.46,1.95-3.74a44.72,44.72,0,0,0,2.72-7.52c1.84-7.12,1.94-14.5,3-21.73.9-6.12,4.17-11.63,8.17-16.38a19.77,19.77,0,0,1,12.17-7.26,33.11,33.11,0,0,1,4.82-.69A16.93,16.93,0,0,1,488.44,407c5.19,4.88,10.18,17,8.8,25.18a49.26,49.26,0,0,1-3.61,12.26c-2.7,6-7.15,10.15-10.54,15.47a40.6,40.6,0,0,0-6,22.52c.41,9.26,5.57,18.68,14.13,22.24,8.27,3.44,18,.89,25.57-3.88s13.64-11.57,20.3-17.57c7.59-6.84,16.32-12.84,26.28-15.19s21.3-.54,28.67,6.55,9.31,19.87,2.8,27.76c-5.17,6.26-14,8.2-22.08,8.27s-16.3-1.29-24.31,0c-7.18,1.19-13.55,3.44-17.43,10.1-3.09,5.31-3.82,11.73-3.17,17.84,2,18.48,17.35,34.69,35.7,37.63,8.7,1.4,17.79.1,26.27,2.51a31.74,31.74,0,0,1,22.27,25.67c.76,5.62-.58,12.23-5.52,15-3.84,2.16-8.63,1.34-12.85.05-11.3-3.47-21.72-9.91-33.4-11.74a44.19,44.19,0,0,0-23,2.54c-8.13,3.23-16.66,11.32-18.86,20.06-.91,3.59-.48,7.37-1.27,11-1.16,5.4-2.71,10.44-2.54,16,.22,7.82,3.71,16,10.59,19.77,6.68,3.63,15.88,2.88,20.71,8.75,3.4,4.15,3.12,10.6,0,15s-8.51,6.78-13.88,7c-3.86.2-8-.74-10.66-3.54-3.77-3.94-3.51-10.09-5.14-15.29-2.8-8.94-12.34-15.08-21.59-14.46a18.83,18.83,0,0,0-3.17.49c-13.93,3.42-20.25,22.44-13.66,34.56,1.51,2.79,3.78,5.08,5.63,7.66,4,5.61,5.94,13.31,2.82,19.47s-12.39,8.9-17.28,4c-2-2-2.95-4.77-3.61-7.49-1.24-5.1-1.69-10.42-3.57-15.32a27.87,27.87,0,0,0-14.54-15.29c-8.17-3.63-14.23-1.58-22.22.19-8.54,1.88-19.1.66-27.69-.35-12.32-1.46-23.75-7.46-36-8"/><path class="a" d="M196,649.15c9.66-4.91,20.82-8,32.87-7.22a144.25,144.25,0,0,1,26.41,3.82,55.08,55.08,0,0,1,10.1,3.57c5.56,2.69,8.29,7.42,8.59,13.58a23.93,23.93,0,0,1-4.61,15,96,96,0,0,1-19.91,21.32c-2.21,1.75-4.41,3.52-6.66,5.22-8,6.08-17.21,9.66-26.87,12-13.82,3.37-25.23-1.24-33.54-12.82-4.31-6-6.45-12.76-7.94-19.78-1.06-5,0-9.94,2.13-14.6,3.92-8.62,10.31-14.91,19.43-20.08"/><path class="a" d="M262.44,477.77c-1.88-5.29-2.05-10.51.83-15.52a11.67,11.67,0,0,1,8.48-5.93c7.77-1.39,14,1.55,19.43,6.74a11.53,11.53,0,0,1,3.36,8.09,20.2,20.2,0,0,1-6.38,16.1,12.22,12.22,0,0,1-12.7,2.91,19.88,19.88,0,0,1-12.44-11c-.22-.44-.39-.91-.58-1.37"/><path class="b" d="M226.15,578.88c-.5.24-1.12.49-1.56.15a1.28,1.28,0,0,1-.39-.71c-1.39-5,4.52-8.68,8.75-8.91,5.86-.33,12.74.56,17.94,3.38,2.06,1.12,1.7,3.2-.37,3.89-2.35.79-5.47.55-7.92.51-5.49-.07-11.32-.74-16.45,1.69"/><path class="b" d="M299.42,716c3.52,2.37,3.11,9.17-.93,15.18s-10.17,9-13.69,6.6-3.12-9.16.92-15.17,10.17-9,13.7-6.61"/><path class="b" d="M541.88,691.1c-.76,2.28-4.52,3.08-8.41,1.78s-6.42-4.2-5.66-6.47,4.53-3.07,8.41-1.78,6.42,4.2,5.66,6.47"/><path class="b" d="M592.44,589c-1.61,2.28-9.63,3.07-17.89,1.78s-13.65-4.2-12-6.48,9.63-3.07,17.89-1.77,13.65,4.19,12,6.47"/><path class="b" d="M584.34,477.55a6.55,6.55,0,0,1,.23,5.65c-7.42-1.89-15.08-3.8-22.63-2.6-5.74.91-11.14,3.58-16.94,3.91a31.15,31.15,0,0,1,19.32-11.58c5.69-1,15.63-1.48,19.57,3.9a4.83,4.83,0,0,1,.45.72"/><path class="b" d="M476.25,409.46a6.53,6.53,0,0,1,4.64,3.25c-6,4.75-12.14,9.7-15.75,16.44-2.74,5.11-3.88,11-7.12,15.86a31.18,31.18,0,0,1,2.45-22.39c2.64-5.13,8.28-13.35,14.94-13.23a5.83,5.83,0,0,1,.84.07"/><path class="b" d="M214.52,661.29c-1.7.87-3.52,1.55-5.27,2.31a50.48,50.48,0,0,0-10.75,6.32,25.74,25.74,0,0,0-6.09,6.23c-1.2,1.84-2.14,4-4.08,5.07a1.46,1.46,0,0,1-1.14.19c-.54-.19-.72-.85-.79-1.41-.3-2.54.63-4.56,1.09-6.92a24.2,24.2,0,0,1,1.72-6.24c4.68-9.77,16.35-13.62,26.54-13.76a4.29,4.29,0,0,1,3,.77,2.84,2.84,0,0,1,.63,2.85,5.6,5.6,0,0,1-1.74,2.48,15.08,15.08,0,0,1-3.13,2.11"/><path class="b" d="M329.7,487.69a3.31,3.31,0,0,1,.12.45,2.63,2.63,0,0,1-.68,2.68,2.83,2.83,0,0,1-3,.09,15.8,15.8,0,0,1-2.51-1.88,11.14,11.14,0,0,0-2.81-1.63,3.34,3.34,0,0,0-1.38-.31c-1.52.09-2.46,1.85-4,2.11a.87.87,0,0,1-.55-.06.85.85,0,0,1-.3-.35c-2.25-3.94,4-7.1,7.05-7.1a8.56,8.56,0,0,1,8,6"/><path class="b" d="M279.67,464a8.8,8.8,0,0,1,.38,1.09,1,1,0,0,1-.13.91.8.8,0,0,1-.55.17c-.79,0-1.41-.67-2.14-1a4.79,4.79,0,0,0-3.68.28,9.83,9.83,0,0,1-3.63,1c-1.26,0-2.63-.93-2.61-2.19,0-2.53,4.11-4.61,6.25-4.61a7.09,7.09,0,0,1,6.11,4.32"/><path class="c" d="M267.32,444.48a48.88,48.88,0,0,0-6.53,6.5,51.13,51.13,0,0,0-11.63,26.63c-1,9.25.43,18.49-4.5,26.95a24.59,24.59,0,0,1-19.38,11.95c-16.53,1-27.05-14.49-26.24-29.8.41-7.68,3.35-15,5.57-22.33s3.73-15.38,1.28-22.67c-2-5.93-6.47-10.8-11.71-14.2s-11.25-5.47-17.29-7.09c-18.68-5-38.72-6-57.33-.74a79.06,79.06,0,0,0-32.07,17.84C77.93,446.39,72.22,458,65.22,468.8c-7.52,11.6-18.16,16.48-31.76,13.37-1.07-.24-2.15-.42-3.23-.64l-7.39-2.94-3.06-2.1c-8.14-5.5-11.85-14.29-9.57-23.82a51.38,51.38,0,0,1,20.17-30.09A68.33,68.33,0,0,1,51.51,412.2c8.67-2.61,17.46-4.85,26.23-7.13,8.24-2.14,16.49-4.21,24.41-7.4,8.22-3.32,15.83-7.63,22.16-13.93a55.25,55.25,0,0,0,15-25.9,26.08,26.08,0,0,0-5.57-24.29,41,41,0,0,0-16.1-11.3,77.2,77.2,0,0,0-28.13-5.67c-8.48-.18-17,.12-25.48.23a80.55,80.55,0,0,1-15.82-.92,39,39,0,0,1-16.52-7.22,18.15,18.15,0,0,1-2.2-1.91A13.24,13.24,0,0,1,34,284.9c4-1.68,8.29-1.73,12.56-1.35a106.14,106.14,0,0,1,18.42,3.67C74.48,289.8,84,292.54,93.59,295a85.84,85.84,0,0,0,24,2.94,39.24,39.24,0,0,0,13.86-2.79,30.36,30.36,0,0,0,15.06-13.91,28.65,28.65,0,0,0,3.67-9.73c1.85-12.9-7.17-23.25-19.57-25.6-3.64-.68-7.37-.62-11-1.07a33.14,33.14,0,0,1-17.81-7.53,24.59,24.59,0,0,1-8.63-17,19,19,0,0,1,5.58-14.29c6.07-5.59,15.25-6,23.43-4.92A42.78,42.78,0,0,1,133,203.68c10.17,4.23,16.85,13.59,26.32,18.91s19.59,8.89,30.76,8.11c15.31-1,25.76-10.4,30.25-24.64a22.89,22.89,0,0,0-.29-13.8,61,61,0,0,0-5.1-11.44c-2.46-4.54-5-9-7.41-13.6a51.72,51.72,0,0,1-4.87-13.09A34.27,34.27,0,0,1,205,132.07a20.41,20.41,0,0,1,2.81-4.38c4.81-5.84,11.58-6.92,18.41-3.16a22.42,22.42,0,0,1,11.16,14.22c3.29,11.84.31,24.07.06,36.11-.21,10.37,1.9,18.16,8.71,26.08a30.47,30.47,0,0,0,6.78,6.25c5.48,3.38,12.31,3.53,18.74,3.14a72.48,72.48,0,0,0,16.52-2.59c18.38-5.48,33.66-17.6,37-37.17,1.66-9.73,1.17-19.71,2.31-29.51.71-6.09,3.89-12.89,6.43-18.44a30,30,0,0,1,10-12.08,23.87,23.87,0,0,1,18.85-4.22c.6.11,1.23.15,1.84.22l6.23,2.48a9.53,9.53,0,0,0,1.08.92,25.3,25.3,0,0,1,9.88,12.11,31.94,31.94,0,0,1,.42,22.7,104.48,104.48,0,0,1-4.55,10.55,66.87,66.87,0,0,1-11.2,17.06c-4.05,4.4-8.34,8.6-12.63,12.77a72.48,72.48,0,0,0-17.4,26c-1.66,4.29-3.26,8.61-4.69,13-2.41,7.35-1.42,16.83-.85,24.52.62,8.42,2.25,16.86,5.95,24.5a61.93,61.93,0,0,0,13.77,18.07,64.08,64.08,0,0,0,10.2,7.85A52.44,52.44,0,0,0,379.55,306c7.82,1.29,16.11.73,23.24-2.73,11.85-5.75,19.2-19.33,31.78-23.31a29.43,29.43,0,0,1,11.94-1.61c6.83.7,12.65,3.78,17.73,8.21,6.5,5.67,9.2,12.94,8.31,21.52a29.24,29.24,0,0,1-2.31,8.65,14.29,14.29,0,0,1-6.5,7.11,20,20,0,0,1-7.55,2.32,67,67,0,0,1-9.38.43c-7.37-.35-14.72-1-22.08-1.49-8.63-.59-17.26-.8-25.85.5-14.38,2.19-26.24,8.71-34.87,20.56a78.08,78.08,0,0,0-13.84,33.07c-2.67,15.44,1.42,29,11.76,40.67a92.08,92.08,0,0,0,14.62,13.06c9.22,6.78,19.18,12.37,28.95,18.28a160.53,160.53,0,0,1,18.2,12.21c4.42,3.56,8.5,7.45,11.33,12.45,3.26,5.76,4.37,11.83,2.42,18.31a6.2,6.2,0,0,0-.09,1.23l-2.79,7c-.81,1.29-1.56,2.62-2.45,3.84-5.18,7.06-12.87,10.34-21.66,7.91a45.16,45.16,0,0,1-12.07-5.66A46.07,46.07,0,0,1,384,493.87q-4.82-7.59-9.19-15.46a111.06,111.06,0,0,0-27.27-32.53c-5.84-4.7-10.29-7.45-17.63-9.7a84.48,84.48,0,0,0-24.06-4c-14.13-.12-27.83,3.54-38.52,12.34"/><path class="c" d="M306.31,509c-.72-.53-1.44-1.08-2.18-1.59a23.9,23.9,0,1,1,8.18,3.65,4.39,4.39,0,0,0-.89,0l-5.11-2"/><path class="c" d="M37.33,206.4C29.1,204.35,21.18,201.59,14,197a37.13,37.13,0,0,1-9.26-8.33C1,183.78-.73,178.27.28,172.3c1.09-6.4,4.5-11.4,10.83-13.91,4.45-1.76,9.1-1.94,13.79-1.62C43.36,158,57.5,167,68.54,181.4a45.2,45.2,0,0,1,4.69,8.28A17.75,17.75,0,0,1,74.59,195c.62,4.73-1.34,8.25-5.43,10.6a22.21,22.21,0,0,1-8.25,2.58,50.32,50.32,0,0,1-13.54-.11c-3.36-.44-6.7-1.1-10-1.66"/><path class="d" d="M45.31,169.75c.64.41,1.35,1,1.34,1.72a1.58,1.58,0,0,1-1.36,1.39,4.74,4.74,0,0,1-2.07-.24c-5.62-1.51-11.54-2.89-17.2-1.56-4.4,1-8.47,3.65-13,3.64-1.52,0-3.27-.5-3.87-1.9-2.54-6,5.95-8.42,9.67-8.6,9.28-.44,18.57.56,26.48,5.55"/><path class="d" d="M135.2,214.22a2.28,2.28,0,0,1,1.17,1.72,1.49,1.49,0,0,1-1.19,1.39,3.55,3.55,0,0,1-1.81-.24c-4.93-1.51-10.12-2.89-15.09-1.56-3.85,1-7.42,3.65-11.38,3.64a3.45,3.45,0,0,1-3.4-1.9c-2.23-6,5.22-8.42,8.48-8.6,8.14-.44,16.28.56,23.22,5.55"/><path class="d" d="M228.33,133.24A2.78,2.78,0,0,1,229,135a1.54,1.54,0,0,1-.64,1.39,1.19,1.19,0,0,1-1-.24c-2.67-1.52-5.48-2.89-8.18-1.56-2.09,1-4,3.65-6.17,3.64-.72,0-1.55-.5-1.84-1.91-1.21-6,2.83-8.41,4.6-8.59,4.41-.44,8.82.55,12.58,5.55"/><path class="d" d="M361.29,113.56a2.42,2.42,0,0,1,1.83.8,1.56,1.56,0,0,1,.23,1.73,2.1,2.1,0,0,1-1.21.75c-3.87,1.32-7.81,2.87-9.81,6.51-1.56,2.83-1.87,6.8-4.19,8.83a2.5,2.5,0,0,1-3.24.21c-5.3-3.7-2.6-9.53-.82-11.35,4.44-4.56,9.83-8,17.21-7.48"/><path class="d" d="M430.69,289.92a2.48,2.48,0,0,0-.78,1.84,1.62,1.62,0,0,0,1,1.43,2.11,2.11,0,0,0,1.37-.3c3.69-1.72,7.58-3.31,11.5-2.05,3,1,6,3.64,9,3.51a2.48,2.48,0,0,0,2.47-2.08c1.27-6.34-4.64-8.69-7.17-8.79-6.3-.24-12.49,1-17.46,6.44"/><path class="d" d="M408.86,467.26a3.14,3.14,0,0,0-2.5.53,2,2,0,0,0-.74,2.11,2.64,2.64,0,0,0,1.31,1.24c4.49,2.61,9,5.55,10.54,10.59,1.19,3.92.53,8.95,2.89,12.07a3.19,3.19,0,0,0,4,1.08c7.6-3.28,5.76-11.22,4-13.95-4.33-6.8-10.18-12.4-19.51-13.67"/><path class="d" d="M304.46,477.66a1.84,1.84,0,0,0-.45,1.43,1.19,1.19,0,0,0,.87,1,1.54,1.54,0,0,0,1-.32c2.62-1.55,5.41-3,8.43-2.36,2.34.51,4.74,2.28,7,2a1.89,1.89,0,0,0,1.7-1.74c.49-4.82-4.1-6.15-6-6-4.72.27-9.25,1.66-12.57,6.08"/><path class="d" d="M60,294a2,2,0,0,1,1,1.48,1.3,1.3,0,0,1-1,1.19,3.11,3.11,0,0,1-1.56-.2c-4.24-1.3-8.7-2.49-13-1.35-3.31.89-6.39,3.14-9.79,3.13a2.92,2.92,0,0,1-2.92-1.64c-1.92-5.14,4.48-7.23,7.29-7.39,7-.37,14,.48,20,4.78"/><path class="d" d="M43.79,423.42a3.37,3.37,0,0,1,3-.42,2.22,2.22,0,0,1,1,2.49,5.41,5.41,0,0,1-1.5,2.24c-5.24,5.49-10.48,11.42-12,18.84-1.18,5.76-.07,12.19-2.7,17.39-.89,1.77-2.55,3.46-4.74,3.23-9.36-1-7.66-12.42-5.74-16.84,4.78-11,11.45-21.08,22.61-26.93"/><path class="c" d="M251.4,241.46s17.93-49.66-44.15-44.14-40,75.86,44.15,44.14"/><path class="e" d="M263.59,525.15c-7.24,4.58-10.42,14.86-13.4,22.42-1.8,4.56-1,10.32-1.37,15.15-.43,5.36-1.4,10.68-3.86,15.51A26,26,0,0,1,222,592.11c-3.8,0-7.74-1-10.55-3.59-4.2-3.84-4.92-10.19-4.49-15.86.65-8.57,3.38-17.12,8.78-23.8a67.87,67.87,0,0,1,9.31-8.94c4.31-3.66,8.54-7.52,13.13-10.78,4.25-3,8.49-6.18,11.52-10.49,3.66-5.19,5.15-12.47,1.87-17.91-3.82-6.33-14.56-12.25-21.16-15.16A110.49,110.49,0,0,0,200.79,477c-13.44-1.82-31.29-1.3-43.55,5-4.9,2.51-9.21,5.91-13.7,9.05a103.27,103.27,0,0,1-10.45,6.68c-7.41,3.94-15.16,3.76-22.88.93-6.12-2.25-9.66-6.82-10.87-13.17a26.68,26.68,0,0,1,0-10.9c1.78-8,6.9-12.78,14.57-15.11a26.2,26.2,0,0,1,12.32-.34c5,.9,10.07,1.87,15.1,2.82,15,2.84,29.06-6.26,34-20.09a69.37,69.37,0,0,0,3.8-18.3,143.39,143.39,0,0,0,.45-15.78c-.32-8.63-4.13-15.63-10.88-21a99.25,99.25,0,0,0-12.52-8.17c-2.86-1.65-5.72-3.31-8.45-5.17a20,20,0,0,1-7.22-8.07,9.74,9.74,0,0,1,1.27-10.87,19.83,19.83,0,0,1,11.43-7c5.51-1.29,11-.88,16.57-.29a71.56,71.56,0,0,0,17.85.1,49.07,49.07,0,0,0,25-10.69c6.07-5,11.41-10.65,15-17.77a33.2,33.2,0,0,0,3.78-14.35,10.94,10.94,0,0,0-4-9.12,44.2,44.2,0,0,0-6.48-4.31c-3-1.66-6.22-2.95-9.23-4.62a66.56,66.56,0,0,1-8.71-5.5c-6.16-4.81-8.58-11.37-7.58-19,1.11-8.6,7.34-14.94,17.7-14.83,6.26.06,11,2.84,14.67,7.77,2.69,3.65,4.5,7.77,6.35,11.87s3.6,8.09,5.64,12a52.61,52.61,0,0,0,4.68,7.24c4.49,6,10.63,9,18,9.79a68.39,68.39,0,0,0,17.84-.86,82.13,82.13,0,0,0,16.52-4.09A43.46,43.46,0,0,0,308.81,284a27,27,0,0,0,9.34-13.88c2.09-7.73-.37-12.37-3.4-19.52-2-4.63-4-9.63-2.85-14.53a14,14,0,0,1,9.18-9.8,19.25,19.25,0,0,1,13.68.83,11.59,11.59,0,0,1,4.51,3.12,12.9,12.9,0,0,1,2.31,6.54c2,15.53-.57,32,8.08,46,10,16.31,22.75,29.82,41,37.08a74.36,74.36,0,0,0,29.38,5.54c5.19-.11,10.38-.43,15.56-.82a16.18,16.18,0,0,0,11.58-6.2,69.94,69.94,0,0,0,5.56-8.17c2.75-4.58,5.24-9.32,8-13.89a54.61,54.61,0,0,1,10.42-12.93c3.73-3.33,7.87-6,12.93-6.63,6.32-.82,12.57-.39,18.19,2.9,7.93,4.63,11.41,11.92,11.67,20.89a32.24,32.24,0,0,1-.4,5.88A21.79,21.79,0,0,1,505,320.74a61.13,61.13,0,0,1-13.75,7.71c-4.65,2-9.37,3.79-14,5.78a65.42,65.42,0,0,0-6.21,3.11,32.84,32.84,0,0,0-16,20.8,114.62,114.62,0,0,0-3.1,18.69,133.62,133.62,0,0,0,.17,29,103.8,103.8,0,0,0,8.06,30.86,58.31,58.31,0,0,0,2.94,5.59,26.82,26.82,0,0,0,17.28,12.84,80.76,80.76,0,0,0,15,2.09c8.76.57,17.54.92,26.27,1.71a49.85,49.85,0,0,1,19.1,5.56c6.18,3.3,11.12,7.85,14.13,14.28.53,1.13.89,2.33,1.33,3.5.27,3.22.53,6.45.8,9.67a51.31,51.31,0,0,1-1.24,5.28,29.6,29.6,0,0,1-2.32,5.17,17.31,17.31,0,0,1-13.22,8.71c-10.16,1.49-19.41-.89-27.89-6.46-16.6-10.91-34.78-21.27-55.1-22.3-6.91-.36-16.15-2-22.91-1-9.23,1.39-16.76,10.47-23.07,16.54-19.32,18.57-44.88,30.14-71.37,33.62a127.52,127.52,0,0,1-40.47-1.07c-10.94-2.08-25.26-12-35.78-5.34"/><path class="e" d="M89.72,308.47a42.83,42.83,0,0,1,20.19,10.78,97.62,97.62,0,0,1,12,13.64,36.72,36.72,0,0,1,3.65,6.3c1.69,3.85,1,7.5-1.55,10.82a16.23,16.23,0,0,1-9,5.71A65.5,65.5,0,0,1,95.27,358c-1.92-.07-3.83-.13-5.75-.24a48.82,48.82,0,0,1-19.21-5.66c-8.64-4.35-12.51-11.78-11.69-21.44a34.79,34.79,0,0,1,4.63-13.74,15.81,15.81,0,0,1,7.55-6.61c5.83-2.73,11.92-3.17,18.92-1.8"/><path class="e" d="M429.89,595.31A42,42,0,0,1,420,575.19a95.53,95.53,0,0,1-1.71-17.69,36.59,36.59,0,0,1,.71-7.09c.85-4,3.48-6.54,7.42-7.71a15.9,15.9,0,0,1,10.41.61,64.26,64.26,0,0,1,17,9.5c1.48,1.16,3,2.3,4.43,3.48a47.92,47.92,0,0,1,12,15.48c4.37,8.4,3.19,16.51-3,23.73a34.11,34.11,0,0,1-11.54,8.26,15.48,15.48,0,0,1-9.78.94c-6.2-1.17-11.29-4.3-16.07-9.39"/><path class="f" d="M86.68,317.19a2.31,2.31,0,0,1,1.71.73,1.49,1.49,0,0,1,.21,1.62,1.93,1.93,0,0,1-1.13.69c-3.6,1.23-7.26,2.68-9.12,6.06-1.44,2.62-1.74,6.32-3.89,8.21a2.34,2.34,0,0,1-3,.19c-4.93-3.44-2.42-8.85-.76-10.55,4.12-4.24,9.13-7.4,16-6.95"/><path class="f" d="M167,354.11a1.88,1.88,0,0,1,1,1.18,1.24,1.24,0,0,1-.41,1.3,1.69,1.69,0,0,1-1.11.11c-3.17-.37-6.47-.59-9.1,1.3-2,1.47-3.59,4.16-5.9,4.82a2,2,0,0,1-2.35-.94c-2.49-4.39,1.36-7.58,3.22-8.27,4.65-1.72,9.59-2.3,14.62.5"/><path class="f" d="M220.74,560.13a1.79,1.79,0,0,1,1.51-.45,1.29,1.29,0,0,1,1,1.05,2,2,0,0,1-.37,1.15c-1.72,3-3.36,6.13-2.8,9.65.42,2.74,2.17,5.58,1.75,8.19a2,2,0,0,1-1.88,1.88c-5,.36-6.22-5-6-7.19.48-5.45,2.11-10.63,6.83-14.28"/><path class="f" d="M542.86,479.87a2.42,2.42,0,0,1,.45,2.13,1.81,1.81,0,0,1-1.57,1.24,2.67,2.67,0,0,1-1.54-.66c-3.88-2.74-8.05-5.39-13-5.06-3.82.26-8,2.31-11.51,1.41a2.84,2.84,0,0,1-2.37-2.81c.12-7,7.67-8,10.67-7.44,7.46,1.34,14.42,4.23,18.86,11.19"/><path class="f" d="M494.5,286.11a1.76,1.76,0,0,1,1.18,1,1.31,1.31,0,0,1-.36,1.39,2,2,0,0,1-1.18.29c-3.43.11-7,.39-9.68,2.71-2.1,1.82-3.59,4.8-6,5.82a2.05,2.05,0,0,1-2.59-.59c-3-4.09,1-7.93,2.93-8.92,4.88-2.47,10.14-3.82,15.73-1.74"/><path class="f" d="M441.45,553.24a1.69,1.69,0,0,1,.77,1.18,1.5,1.5,0,0,1-.4,1.33,1.15,1.15,0,0,1-.9.14c-2.54-.35-5.19-.54-7.42,1.42-1.72,1.52-3.11,4.29-5,5a1.37,1.37,0,0,1-1.85-.93,6.75,6.75,0,0,1,3-8.46c3.84-1.81,7.86-2.46,11.79.34"/><path class="f" d="M125.4,467.1a1.9,1.9,0,0,1,1,1.18,1.23,1.23,0,0,1-.41,1.3,1.76,1.76,0,0,1-1.11.12c-3.17-.38-6.47-.6-9.09,1.29-2,1.47-3.6,4.16-5.91,4.82a2,2,0,0,1-2.35-.94c-2.49-4.38,1.36-7.58,3.23-8.27,4.64-1.72,9.58-2.3,14.62.5"/><path class="f" d="M332.67,233.37a1.62,1.62,0,0,1,.86,1,1,1,0,0,1-.35,1.09,1.39,1.39,0,0,1-.93.1c-2.65-.32-5.41-.5-7.62,1.08-1.7,1.23-3,3.49-4.94,4a1.66,1.66,0,0,1-2-.79c-2.08-3.67,1.15-6.35,2.71-6.93,3.89-1.44,8-1.93,12.25.42"/><path class="f" d="M215.65,253.33a1.81,1.81,0,0,1,1.35.58,1.17,1.17,0,0,1,.17,1.28,1.58,1.58,0,0,1-.89.54c-2.84,1-5.72,2.11-7.19,4.77-1.14,2.07-1.37,5-3.06,6.47a1.85,1.85,0,0,1-2.38.15c-3.88-2.71-1.9-7-.6-8.32,3.25-3.33,7.2-5.82,12.6-5.47"/><rect class="g" x="124.9" width="390.79" height="846.14"/></svg>