<svg xmlns="http://www.w3.org/2000/svg" viewBox="0 0 300 100"><defs><style>.a{fill:#fd0;stroke:#2c1e41;stroke-miterlimit:10;stroke-width:5px;}.b,.c{fill:#573c81;stroke:#231f20;stroke-linejoin:round;}.b{stroke-width:1.5px;}.c{stroke-width:0.5px;}</style></defs><rect class="a" x="2.5" y="2.5" width="295" height="95" rx="19.01"/><path class="b" d="M22.15,62.69c-.3-1.86-.23-3.72-.54-6.18,0-.06,0-.06.06-.06h.06c2.4.18,4.86-.72,7.8-.54h.06l.06.06c1,2.88,5.64,5.58,8,2.28a4,4,0,0,0-1-5.22c-1.74-1.26-4.62-1.2-6.6-.78-1-2.1,0-6-.3-8.28v-.06c2.7-1,8.64,1,8.34-4-.18-5.4-7.38-3-8.64.36-1.26.18-7.68.12-7.92.12v-.12c0-1.62-.42-3.84.24-5.58C24.73,25,42.25,25,46.33,32.21a7.58,7.58,0,0,1,.84,4.32c.18,6.78.12,13.38-.12,19.86-.18,2.34,0,4.8-1,7a9.57,9.57,0,0,1-6,5.58,24.37,24.37,0,0,1-9.78.42,33.26,33.26,0,0,1-3.3-.84A6.72,6.72,0,0,1,24.13,67,7.11,7.11,0,0,1,22.15,62.69Z"/><path class="c" d="M78.68,25a8.73,8.73,0,0,1-3.6,0c.38-1.75-2.74-2.4-3-.6a1.58,1.58,0,0,0,0,.65c.26.77.89.93,1.56,1a5.84,5.84,0,0,1,4.15,2.52,5.05,5.05,0,0,1,.39,5.16,4.55,4.55,0,0,1-4.64,2.76c-2.8-.07-5.85-1.87-5.66-4.92v-.14a32.19,32.19,0,0,1,3.67,0c.12,2,3.63,2.09,3.24-.14-.19-1.54-2.09-1.75-3.43-2a3.49,3.49,0,0,1-1.63-.81,5.13,5.13,0,0,1,1.58-8.45,7.34,7.34,0,0,1,5.33.26A4.05,4.05,0,0,1,78.7,25Z"/><path class="c" d="M90.34,33.12a9.39,9.39,0,0,1-.19,3.14c-3.26,0-6.74.22-9.84,0,0-5.57-.29-10.92,0-16.42,3.73-.19,9.94-.28,9.94-.14a22.83,22.83,0,0,1,0,3.41v0c-2,.46-4.17.1-6.29.29h-.07l0,0a13.84,13.84,0,0,0,0,2.81l0,0c1,.07,2,.05,3,.07v0a26.3,26.3,0,0,1,0,3.34c-1,.26-2.57,0-2.91.26a12.52,12.52,0,0,0,0,3l0,0c2.11,0,4.1.19,6.28.12Z"/><path class="c" d="M101.89,33.12a10,10,0,0,1-.19,3.14c-3.27,0-6.75.22-9.85,0,0-5.57-.28-10.92,0-16.42,3.72-.19,9.94-.28,9.94-.14a24.26,24.26,0,0,1,0,3.41v0c-2,.46-4.18.1-6.29.29h-.07l0,0a13.82,13.82,0,0,0,0,2.81l0,0c1,.07,2,.05,3,.07v0a24.57,24.57,0,0,1,0,3.34c-1,.26-2.57,0-2.9.26a12,12,0,0,0,0,3l0,0c2.11,0,4.1.19,6.29.12Z"/><path class="c" d="M118.38,36.19c-1.11.19-2.57.07-3.36.14h0c-.31-2.13-.09-4.56-.36-6.62l0,0a7.09,7.09,0,0,0-2.79.05c-.19,2.21.17,4.42-.14,6.43-.79.46-2.69-.16-3.27.15-.19-2.71-.43-11.83-.33-16.73v0h.07c1,.2,2.14-.19,3,.08.29,2.2.12,4.27.5,6.31h0a8.33,8.33,0,0,0,2.59,0h0a43.38,43.38,0,0,0,.1-6.26,10.43,10.43,0,0,1,3.29-.26Z"/><path class="c" d="M130,23.61A21,21,0,0,1,130,26c-.1,1.7,0,3.26-.12,4.92l-.08.79a7.06,7.06,0,0,1-.91,3.24,4.29,4.29,0,0,1-2.47,1.46,7.21,7.21,0,0,1-2.74.24c-1.32-.12-2.59-.4-3.17-1.68A5.54,5.54,0,0,1,120,32.3a70.18,70.18,0,0,1-.12-7.54,6.28,6.28,0,0,1,1.27-4.1,2.55,2.55,0,0,1,.55-.43,7,7,0,0,1,6.94.43,3.47,3.47,0,0,1,1,1.46A5.29,5.29,0,0,1,130,23.61Zm-3,2.74s-.07-.82-.1-1.37a2.39,2.39,0,0,0-1.25-2,1.93,1.93,0,0,0-1.87.33,3.23,3.23,0,0,0-1.13,1.66,15.06,15.06,0,0,0-.21,3.94,24.36,24.36,0,0,0,.45,3.38,2.29,2.29,0,0,0,3.63.31c.6-.79.36-.79.48-2.18,0-.65,0-1.18,0-1.25V28Z"/><path class="c" d="M141.39,19.63c-.48,5.54-1.13,11-1.58,16.58a3,3,0,0,1-.82,0h-1.15c-.55-.74-.84-3.19-1.42-4.08h0c-.58.58-.79,3.17-1.3,4a5.52,5.52,0,0,1-1.17.12,6.56,6.56,0,0,1-.92-.07h0a135.14,135.14,0,0,1-1.75-16.56v0a9.59,9.59,0,0,1,1.56-.12c.65,0,1.29,0,1.87.07.26,2.83-.19,7.25.5,10,.41-1.44.72-2.81,1.08-4.25,0-.07,0-.1.05-.12.29.21.94,3.72,1.32,4.68.27-2.76.17-7.39.43-10.2v0a8.12,8.12,0,0,1,1.71-.14c.55,0,1.08,0,1.61.07Z"/><path class="c" d="M157,36.33c-.67-.07-1.75.15-9.48,0v-.44c.29-7.2.17-9.72.07-16.46a7.72,7.72,0,0,1,3.84.07c-.12,4.15.1,8.86,0,13v0c.62-.19,5.45.24,6.21.14a4.7,4.7,0,0,1,0,.53,6.06,6.06,0,0,0,0,.94C157.73,36.45,157.66,36.33,157,36.33Z"/><path class="c" d="M168.58,23.61a21,21,0,0,1,0,2.38c-.1,1.7,0,3.26-.12,4.92l-.07.79a7.19,7.19,0,0,1-.91,3.24,4.32,4.32,0,0,1-2.48,1.46,7.16,7.16,0,0,1-2.73.24c-1.32-.12-2.59-.4-3.17-1.68a5.55,5.55,0,0,1-.58-2.66c-.09-2.5-.28-5-.12-7.54a6.29,6.29,0,0,1,1.28-4.1,2.14,2.14,0,0,1,.55-.43,7,7,0,0,1,6.93.43,3.49,3.49,0,0,1,1,1.46A5.27,5.27,0,0,1,168.58,23.61Zm-3,2.74s-.07-.82-.09-1.37a2.43,2.43,0,0,0-1.25-2,1.93,1.93,0,0,0-1.87.33,3.17,3.17,0,0,0-1.13,1.66,15.05,15.05,0,0,0-.22,3.94,26,26,0,0,0,.46,3.38,2.28,2.28,0,0,0,3.62.31c.6-.79.36-.79.48-2.18,0-.65,0-1.18,0-1.25V28Z"/><path class="c" d="M177.27,36.33c-1.06-2.37-2.16-4.61-2.9-6.65l-.24-.72c-.12-.36-.24-.72-.32-.72s-.16,3.41-.16,6.1c0,.74,0,1.44,0,2a3.84,3.84,0,0,1-1.06.12c-.76,0-1.56-.14-2.3-.14V34.63c0-3.05-.07-5.67-.07-8.67,0-2.21,0-4.39.21-6.43a5.22,5.22,0,0,1,1.08-.1,7.08,7.08,0,0,1,2,.24c.45,1.18.67,1.35,1.24,2.69.2.46,1.95,4,2,4a3.46,3.46,0,0,0,.17-1.32c0-1.27-.07-2.33-.07-3.48,0-.67,0-1.34,0-2.14a10.82,10.82,0,0,1,1.73-.14,8.32,8.32,0,0,1,1.59.14v7.73c0,1.35,0,2.74,0,4.11,0,.93,0,1.77,0,2.66,0,.65,0,1.27,0,1.92v.48a1.71,1.71,0,0,1-.79.12C178.83,36.45,177.92,36.33,177.27,36.33Z"/><path class="c" d="M192,27.88h0l0,0a19.68,19.68,0,0,1,0,5.42,3.16,3.16,0,0,1-2.28,2.86c-1.59.45-3.55.81-5.09.17a3.9,3.9,0,0,1-2.26-2.84,14.14,14.14,0,0,1-.28-1.68,34.21,34.21,0,0,1-.24-5.49,22.16,22.16,0,0,1,.24-3.15,3.85,3.85,0,0,1,1.41-2.76,4.44,4.44,0,0,1,2.33-.89c3.58-.45,6.6,1.32,6.14,5.24l0,.14c-.07.1-.26.07-.77.1A14.21,14.21,0,0,1,189,25c-.2-.65-.7-2-1.64-2-.55,0-1.08-.12-1.46.27a2.16,2.16,0,0,0-.26.64,22.69,22.69,0,0,0-.36,6.92,3.13,3.13,0,0,0,.79,2.13,1.54,1.54,0,0,0,.55.22,3.19,3.19,0,0,0,1.49-.22,1.2,1.2,0,0,0,.74-.86c.07-.26.22-1.37,0-1.44-.39-.07-1.47.07-1.78-.05-.12-1,0-1.41-.1-2.52v0s0,0,0,0l.05,0C187.9,27.48,191.36,27.88,192,27.88Z"/><path class="c" d="M208.4,19.72c-1.78,5.74-5.14,11-7.06,16.61a5.72,5.72,0,0,0-.6,0c-.67,0-1.51.07-2.25.07a5.52,5.52,0,0,1-.58,0h0c.84-2.6,2-5.5,3.15-8.31V28c-.7-2.8-2.38-5.57-3-8.28.65,0,1.37-.14,2.07-.14a2.55,2.55,0,0,1,1.12.19A33.61,33.61,0,0,0,203,25c.65-1.16,1.37-3.92,1.95-5.21a15.35,15.35,0,0,1,2.52-.17,6.7,6.7,0,0,1,.91.05Z"/><path class="c" d="M218.41,23.61a18.91,18.91,0,0,1,0,2.38c-.09,1.7,0,3.26-.12,4.92l-.07.79a7.06,7.06,0,0,1-.91,3.24,4.29,4.29,0,0,1-2.47,1.46,7.21,7.21,0,0,1-2.74.24c-1.32-.12-2.59-.4-3.17-1.68a5.54,5.54,0,0,1-.57-2.66,70.18,70.18,0,0,1-.12-7.54,6.28,6.28,0,0,1,1.27-4.1,2.55,2.55,0,0,1,.55-.43,7,7,0,0,1,6.94.43,3.56,3.56,0,0,1,1,1.46A5.65,5.65,0,0,1,218.41,23.61Zm-3,2.74s-.08-.82-.1-1.37a2.39,2.39,0,0,0-1.25-2,1.93,1.93,0,0,0-1.87.33,3.23,3.23,0,0,0-1.13,1.66,15.06,15.06,0,0,0-.21,3.94,24.36,24.36,0,0,0,.45,3.38,2.29,2.29,0,0,0,3.63.31c.6-.79.36-.79.48-2.18,0-.65,0-1.18,0-1.25V28Z"/><path class="c" d="M230.09,32.71a4.25,4.25,0,0,1-3.93,4c-2.71.26-6-.91-6.15-3.87,0-4.22.17-8.54.1-12.77l0,0h0a14.68,14.68,0,0,1,3.38.12v0a99.15,99.15,0,0,0,.22,11.79,1.53,1.53,0,0,0,2.95-.12c.17-3.84.12-7.9.22-11.62.89-.07,2.73-.38,3.5.07A79.6,79.6,0,0,1,230.09,32.71Z"/><path class="c" d="M240.53,23.63a47.08,47.08,0,0,0-.09,6.85,2.28,2.28,0,0,0,1.37,2.2,1.61,1.61,0,0,0,1.7-.84c.36-.74.14-1.58.31-2.37a24.78,24.78,0,0,1,3.22.14,5.26,5.26,0,0,1-4.68,7c-2.28.31-5.19-.51-5.45-3.2-.12-2.3-.15-4.77-.07-10a3.24,3.24,0,0,1,.26-1.61,4.93,4.93,0,0,1,1.32-2.08,3.49,3.49,0,0,1,1.22-.56c4.4-1.44,9,2.6,7.42,7a8.63,8.63,0,0,1-3.5-.1c-.19-1.27.19-3.26-1.68-3.19a2.37,2.37,0,0,0-1.2.38A.88.88,0,0,0,240.53,23.63Z"/><path class="c" d="M258.05,36.31v0a8.71,8.71,0,0,1-3.21-.09h0c-.38-1-.69-3-1.12-3.92a6.24,6.24,0,0,0-1.49,0c-.44,1-.51,3-1.06,4l-.07,0c-.27.07-1.18,0-3.36,0,0,0,0,0-.05,0a158.76,158.76,0,0,1,3.67-16.75c.46-.07.84.07,3-.12l2,8.5Zm-6-6.84c.55,0,1.18,0,1.78,0C252.84,21.19,252.7,24.55,252,29.47Z"/><path class="c" d="M266,36.33c-1.06-2.37-2.16-4.61-2.91-6.65L262.8,29c-.11-.36-.24-.72-.31-.72s-.17,3.41-.17,6.1c0,.74,0,1.44,0,2a3.84,3.84,0,0,1-1.06.12c-.77,0-1.56-.14-2.3-.14V34.63c0-3.05-.07-5.67-.07-8.67,0-2.21,0-4.39.21-6.43a5.15,5.15,0,0,1,1.08-.1,7,7,0,0,1,2,.24c.46,1.18.68,1.35,1.25,2.69.2.46,1.95,4,2,4a3.68,3.68,0,0,0,.17-1.32c0-1.27-.08-2.33-.08-3.48,0-.67,0-1.34.05-2.14a10.82,10.82,0,0,1,1.73-.14,8.32,8.32,0,0,1,1.59.14v7.73c0,1.35,0,2.74,0,4.11,0,.93,0,1.77,0,2.66,0,.65,0,1.27,0,1.92v.48a1.71,1.71,0,0,1-.79.12C267.51,36.45,266.6,36.33,266,36.33Z"/><path class="c" d="M77.94,60.33c-.68-.07-1.76.15-9.48,0v-.44c.28-7.2.16-9.72.07-16.46a7.72,7.72,0,0,1,3.84.07c-.12,4.15.09,8.86,0,13v0c.63-.19,5.45.24,6.22.14a3.14,3.14,0,0,1,0,.53,7.53,7.53,0,0,0,0,.94C78.68,60.45,78.61,60.33,77.94,60.33Z"/><path class="c" d="M89.14,60.31v0a8.71,8.71,0,0,1-3.21-.09h0c-.38-1-.69-3-1.12-3.92a6.24,6.24,0,0,0-1.49,0c-.43,1-.51,3-1.06,4l-.07,0c-.26.07-1.18,0-3.36,0,0,0,0,0,0,0a158.76,158.76,0,0,1,3.67-16.75c.46-.07.84.07,3-.12l2,8.5Zm-6-6.84c.55,0,1.18,0,1.78,0C83.94,45.19,83.79,48.55,83.12,53.47Z"/><path class="c" d="M100,49a8.73,8.73,0,0,1-3.6,0c.38-1.75-2.74-2.4-3-.6a1.43,1.43,0,0,0,0,.65c.26.77.89.93,1.56,1a5.86,5.86,0,0,1,4.15,2.52,5,5,0,0,1,.38,5.16,4.53,4.53,0,0,1-4.63,2.76C92,60.38,89,58.58,89.17,55.53v-.14a32.17,32.17,0,0,1,3.67,0c.12,2,3.62,2.09,3.24-.14-.19-1.54-2.09-1.75-3.43-2A3.49,3.49,0,0,1,91,52.39a5.13,5.13,0,0,1,1.58-8.45,7.34,7.34,0,0,1,5.33.26A4.07,4.07,0,0,1,100,49Z"/><path class="c" d="M110.79,47.37a14.27,14.27,0,0,0-2.93,0h-.07s0,.05,0,.07c-.1.46-.07,2.21.12,12.7v0c-1.18.19-2.79,0-3.94.17-.07-.29.22-3.84-.17-12.8l0,0c-.75-.39-2.5-.17-2.88-.29a16.29,16.29,0,0,1-.1-3.77s0,0,0,0a90.3,90.3,0,0,1,10.13.22A19.47,19.47,0,0,1,110.79,47.37Z"/><path class="c" d="M126.22,43.63c-.48,5.54-1.12,11-1.58,16.58a3,3,0,0,1-.82,0h-1.15c-.55-.74-.84-3.19-1.42-4.08h0c-.58.58-.79,3.17-1.29,4a5.62,5.62,0,0,1-1.18.12,6.43,6.43,0,0,1-.91-.07h0a137.12,137.12,0,0,1-1.75-16.56v0a9.59,9.59,0,0,1,1.56-.12c.65,0,1.3,0,1.87.07.27,2.83-.19,7.25.51,10,.41-1.44.72-2.81,1.08-4.25,0-.07,0-.1,0-.12.28.21.93,3.72,1.32,4.68.26-2.76.16-7.39.43-10.2v0a8,8,0,0,1,1.7-.14c.55,0,1.08,0,1.61.07Z"/><path class="c" d="M132,43.46v.09c0,5.5-.34,11.21,0,16.66-.52.53-3.69,0-4.37.22.46-5.79-.38-11.67.2-17v0c.16,0,.76,0,1,0,.58,0,1.2.09,2.64.07Z"/><path class="c" d="M143.19,47.37a14.27,14.27,0,0,0-2.93,0h-.07s0,.05,0,.07c-.1.46-.07,2.21.12,12.7v0c-1.18.19-2.79,0-3.94.17-.07-.29.22-3.84-.17-12.8l0,0c-.75-.39-2.5-.17-2.88-.29a16.29,16.29,0,0,1-.1-3.77s0,0,0,0a90.3,90.3,0,0,1,10.13.22A19.47,19.47,0,0,1,143.19,47.37Z"/><path class="c" d="M154.81,60.19c-1.11.19-2.57.07-3.36.14h0c-.31-2.13-.09-4.56-.36-6.62l0,0a7.09,7.09,0,0,0-2.79,0c-.19,2.21.17,4.42-.14,6.43-.79.46-2.69-.16-3.26.15-.2-2.71-.44-11.83-.34-16.73v0h.07c1,.2,2.14-.19,3,.08.29,2.2.12,4.27.5,6.31h0a8.33,8.33,0,0,0,2.59,0h0a43.38,43.38,0,0,0,.1-6.26,10.43,10.43,0,0,1,3.29-.26Z"/><path class="c" d="M166.4,47.61a21,21,0,0,1,0,2.38c-.1,1.7,0,3.26-.12,4.92l-.07.79a7.2,7.2,0,0,1-.92,3.24,4.29,4.29,0,0,1-2.47,1.46,7.21,7.21,0,0,1-2.74.24c-1.32-.12-2.59-.4-3.16-1.68a5.43,5.43,0,0,1-.58-2.66,70.18,70.18,0,0,1-.12-7.54,6.28,6.28,0,0,1,1.27-4.1,2.55,2.55,0,0,1,.55-.43,7,7,0,0,1,6.94.43,3.59,3.59,0,0,1,1,1.46A5.63,5.63,0,0,1,166.4,47.61Zm-3,2.74s-.07-.82-.1-1.37a2.4,2.4,0,0,0-1.24-2,2,2,0,0,0-1.88.33,3.29,3.29,0,0,0-1.13,1.66,15.51,15.51,0,0,0-.21,3.94,26,26,0,0,0,.45,3.38,2.29,2.29,0,0,0,3.63.31c.6-.79.36-.79.48-2.18,0-.65,0-1.18,0-1.25V52Z"/><path class="c" d="M178.09,56.71a4.26,4.26,0,0,1-3.94,4c-2.71.26-6-.91-6.14-3.87,0-4.22.16-8.54.09-12.77l0,0h0a14.75,14.75,0,0,1,3.39.12v0a97.06,97.06,0,0,0,.21,11.79,1.53,1.53,0,0,0,3-.12c.17-3.84.12-7.9.22-11.62.89-.07,2.74-.38,3.51.07A80.84,80.84,0,0,1,178.09,56.71Z"/><path class="c" d="M189.51,47.37a14.28,14.28,0,0,0-2.93,0h-.07s0,.05,0,.07c-.1.46-.08,2.21.12,12.7v0c-1.18.19-2.79,0-3.94.17-.07-.29.22-3.84-.17-12.8l0,0c-.75-.39-2.5-.17-2.88-.29a16.29,16.29,0,0,1-.1-3.77s0,0,0,0a90.3,90.3,0,0,1,10.13.22A19.47,19.47,0,0,1,189.51,47.37Z"/><path class="c" d="M205,51.88h0l0,0a19.68,19.68,0,0,1,0,5.42,3.15,3.15,0,0,1-2.28,2.86c-1.58.45-3.55.81-5.09.17a3.87,3.87,0,0,1-2.25-2.84,12.11,12.11,0,0,1-.29-1.68,36.7,36.7,0,0,1-.24-5.49,22.16,22.16,0,0,1,.24-3.15,3.86,3.86,0,0,1,1.42-2.76,4.37,4.37,0,0,1,2.32-.89c3.58-.45,6.6,1.32,6.15,5.24l0,.14c-.07.1-.26.07-.76.1A14.3,14.3,0,0,1,202,49c-.19-.65-.7-2-1.63-2-.55,0-1.08-.12-1.47.27a2.16,2.16,0,0,0-.26.64,23,23,0,0,0-.36,6.92,3.13,3.13,0,0,0,.79,2.13,1.71,1.71,0,0,0,.55.22,3.17,3.17,0,0,0,1.49-.22,1.22,1.22,0,0,0,.75-.86c.07-.26.21-1.37,0-1.44-.38-.07-1.46.07-1.78,0-.12-1,0-1.41-.09-2.52v0s0,0,0,0a.08.08,0,0,0,0,0C200.89,51.48,204.34,51.88,205,51.88Z"/><path class="c" d="M216.89,57.12a9.39,9.39,0,0,1-.19,3.14c-3.26,0-6.74.22-9.84,0,0-5.57-.29-10.92,0-16.42,3.72-.19,9.94-.28,9.94-.14a22.83,22.83,0,0,1,0,3.41v0c-2,.46-4.17.1-6.29.29h-.07l0,0a13.84,13.84,0,0,0,0,2.81l0,0c1,.07,2,.05,2.95.07v0a26.3,26.3,0,0,1,.05,3.34c-1,.26-2.57,0-2.91.26a12.52,12.52,0,0,0,0,3l0,0c2.12,0,4.11.19,6.29.12Z"/><path class="c" d="M227.6,47.37a14.28,14.28,0,0,0-2.93,0h-.07s0,.05,0,.07c-.09.46-.07,2.21.12,12.7v0c-1.17.19-2.78,0-3.93.17-.07-.29.21-3.84-.17-12.8l0,0c-.74-.39-2.49-.17-2.88-.29a16.49,16.49,0,0,1-.09-3.77s0,0,0,0a90.2,90.2,0,0,1,10.13.22A18.67,18.67,0,0,1,227.6,47.37Z"/><path class="c" d="M238.23,47.37a14.28,14.28,0,0,0-2.93,0h-.07s0,.05,0,.07c-.1.46-.08,2.21.12,12.7v0c-1.18.19-2.79,0-3.94.17-.07-.29.21-3.84-.17-12.8l0,0c-.75-.39-2.5-.17-2.88-.29a16.29,16.29,0,0,1-.1-3.77s0,0,0,0a90.3,90.3,0,0,1,10.13.22A19.47,19.47,0,0,1,238.23,47.37Z"/><path class="c" d="M243.92,43.46v.09c0,5.5-.34,11.21,0,16.66-.53.53-3.69,0-4.37.22.46-5.79-.38-11.67.2-17v0c.16,0,.76,0,1,0,.58,0,1.2.09,2.64.07Z"/><path class="c" d="M252.8,60.33c-1.06-2.37-2.16-4.61-2.91-6.65l-.24-.72c-.12-.36-.24-.72-.31-.72s-.17,3.41-.17,6.1c0,.74,0,1.44,0,2a3.84,3.84,0,0,1-1.06.12c-.77,0-1.56-.14-2.3-.14V58.63c0-3.05-.08-5.67-.08-8.67,0-2.21.05-4.39.22-6.43a5.15,5.15,0,0,1,1.08-.1,7,7,0,0,1,2,.24c.46,1.18.68,1.35,1.25,2.69.19.46,1.95,4,2,4a3.68,3.68,0,0,0,.17-1.32c0-1.27-.08-2.33-.08-3.48,0-.67,0-1.34.05-2.14a10.73,10.73,0,0,1,1.73-.14,8.13,8.13,0,0,1,1.58.14v7.73c0,1.35,0,2.74,0,4.11,0,.93,0,1.77,0,2.66,0,.65,0,1.27,0,1.92v.48a1.71,1.71,0,0,1-.79.12C254.36,60.45,253.45,60.33,252.8,60.33Z"/><path class="c" d="M267.53,51.88h.05l0,0a18.93,18.93,0,0,1,0,5.42,3.14,3.14,0,0,1-2.28,2.86c-1.58.45-3.55.81-5.08.17A3.86,3.86,0,0,1,258,57.52a12.11,12.11,0,0,1-.29-1.68,36.7,36.7,0,0,1-.24-5.49,23.73,23.73,0,0,1,.24-3.15,3.86,3.86,0,0,1,1.42-2.76,4.41,4.41,0,0,1,2.33-.89c3.57-.45,6.6,1.32,6.14,5.24l0,.14c-.08.1-.27.07-.77.1a14.3,14.3,0,0,1-2.26-.07c-.19-.65-.69-2-1.63-2-.55,0-1.08-.12-1.46.27a1.89,1.89,0,0,0-.27.64,23.35,23.35,0,0,0-.36,6.92,3.13,3.13,0,0,0,.79,2.13,1.68,1.68,0,0,0,.56.22,3.13,3.13,0,0,0,1.48-.22,1.22,1.22,0,0,0,.75-.86c.07-.26.21-1.37,0-1.44-.38-.07-1.46.07-1.77,0-.12-1,0-1.41-.1-2.52v0s0,0,0,0a.08.08,0,0,0,.05,0C263.43,51.48,266.88,51.88,267.53,51.88Z"/><path class="c" d="M78.68,73a8.73,8.73,0,0,1-3.6,0c.38-1.75-2.74-2.4-3-.6a1.58,1.58,0,0,0,0,.65c.26.77.89.93,1.56,1a5.84,5.84,0,0,1,4.15,2.52,5.05,5.05,0,0,1,.39,5.16,4.55,4.55,0,0,1-4.64,2.76c-2.8-.07-5.85-1.87-5.66-4.92v-.14a32.19,32.19,0,0,1,3.67,0c.12,2,3.63,2.09,3.24-.14-.19-1.54-2.09-1.75-3.43-2a3.49,3.49,0,0,1-1.63-.81,5.13,5.13,0,0,1,1.58-8.45,7.34,7.34,0,0,1,5.33.26A4.05,4.05,0,0,1,78.7,73Z"/><path class="c" d="M90.85,72.57a4.29,4.29,0,0,1,0,.63A5.8,5.8,0,0,1,84.27,78c.07.89,0,1.37.1,6v0l-.07,0a14.76,14.76,0,0,1-4,.1c-.19-4.66,0-11.21-.17-16.54,4-1.06,10.44-.55,10.73,4.9ZM83.7,71a.12.12,0,0,0-.08,0,18,18,0,0,0,.22,3.6h.07c1-.07,2.4.07,3.17-.7a1.66,1.66,0,0,0-.43-2.37A3.34,3.34,0,0,0,83.7,71Z"/><path class="c" d="M101.5,84.33c-.67-.07-1.75.15-9.48,0v-.44c.29-7.2.17-9.72.07-16.46a7.76,7.76,0,0,1,3.85.07c-.13,4.15.09,8.86,0,13v0c.62-.19,5.45.24,6.22.14a3.14,3.14,0,0,1,0,.53,6,6,0,0,0,0,.94C102.25,84.45,102.18,84.33,101.5,84.33Z"/><path class="c" d="M112.71,84.31v0a8.71,8.71,0,0,1-3.21-.09h0c-.38-1-.69-3-1.13-3.92a6.24,6.24,0,0,0-1.49,0c-.43,1-.5,3-1,4l-.07,0c-.27.07-1.18,0-3.36,0,0,0,0,0-.05,0A158.76,158.76,0,0,1,106,67.53c.46-.07.84.07,3-.12l2,8.5Zm-6-6.84c.55,0,1.17,0,1.77,0C107.5,69.19,107.36,72.55,106.69,77.47Z"/><path class="c" d="M121.81,71.37a14.28,14.28,0,0,0-2.93,0h-.07s0,0,0,.07c-.09.46-.07,2.21.12,12.7v0c-1.17.19-2.78,0-3.93.17-.07-.29.21-3.84-.17-12.8l0,0c-.74-.39-2.49-.17-2.88-.29a16.49,16.49,0,0,1-.09-3.77s0,0,0,0a90.2,90.2,0,0,1,10.13.22A18.67,18.67,0,0,1,121.81,71.37Z"/><path class="c" d="M132.44,71.37a14.28,14.28,0,0,0-2.93,0h-.07s0,0,0,.07c-.1.46-.08,2.21.12,12.7v0c-1.18.19-2.79,0-3.94.17-.07-.29.21-3.84-.17-12.8l0,0c-.75-.39-2.5-.17-2.88-.29a16.29,16.29,0,0,1-.1-3.77s0,0,0,0a90.3,90.3,0,0,1,10.13.22A19.47,19.47,0,0,1,132.44,71.37Z"/><path class="c" d="M143.91,81.12a10,10,0,0,1-.19,3.14c-3.26,0-6.75.22-9.84-.05,0-5.57-.29-10.92,0-16.42,3.72-.19,9.94-.28,9.94-.14a22.83,22.83,0,0,1,0,3.41v0c-2,.46-4.18.1-6.29.29h-.07l0,0a13.82,13.82,0,0,0,0,2.81l0,0c1,.07,2,0,3,.07v0a26.35,26.35,0,0,1,0,3.34c-1,.26-2.57,0-2.9.26a12.52,12.52,0,0,0,0,3l0,0c2.11,0,4.11.19,6.29.12Z"/><path class="c" d="M155.22,73.05a5.67,5.67,0,0,1,.21,1.51,32.17,32.17,0,0,1-.33,4.52s0,0,0,0a17,17,0,0,1-3,5.09c-2.11.07-4.29.07-6.31.07l0,0c-.7-5.07-.27-10.9-.39-16.47l.07-.09c1.83-.46,3.94-.17,5.79-.24a4.61,4.61,0,0,1,2.61,2A10.84,10.84,0,0,1,155.22,73.05Zm-3.08,2.19c-.19-1-.48-2.19-1.56-2.57a5.73,5.73,0,0,0-1.8,0h-.07v.1c.12,1.73-.07,4,0,6.21.36.32,1.05.22,1.63.15.17,0,.26-.07.43-.15a2.58,2.58,0,0,0,.75-.76A3.74,3.74,0,0,0,152.14,75.24Z"/><path class="c" d="M157.13,67.48a8.89,8.89,0,0,1,3,0c-.08,4.11-.17,8.6,0,12.7-.84.1-2.16.1-3.1.12h0c.07-4.22-.19-8.4.07-12.77Zm0,16.83c-.21,0,.08-1.92.08-2.81v0a8.85,8.85,0,0,1,2.92,0c0,.89-.07,1.94-.07,2.88h-.17c-.38,0-.55,0-.91,0h0Z"/></svg>