<svg xmlns="http://www.w3.org/2000/svg" viewBox="0 0 300 100"><defs><style>.a{fill:#fd0;stroke:#2c1e41;stroke-miterlimit:10;stroke-width:5px;}.b,.c{fill:#573c81;stroke:#231f20;stroke-linejoin:round;}.b{stroke-width:1.5px;}.c{stroke-width:0.5px;}</style></defs><rect class="a" x="2.5" y="2.5" width="295" height="95" rx="19.01"/><path class="b" d="M24.31,69.65H21.62a.2.2,0,0,1-.07-.18c.49-5.4-.47-10.68,2.11-14.88,3.84-4.32,8.63-5.82,12.77-9.18,3.24-2.1,2.7-8.1-1-8.58-3.9,0-4.26,4.38-4.44,7.26v.12h0a38.09,38.09,0,0,1-8.88.3H22v-.12c-1-5.52.07-10.56,3-13.86,3.18-4.14,12.84-4.26,17.16-2.52,3.6,1.86,5.46,5.7,5.88,10,.06,1.68.18,3.78.12,5.4-.72,8.88-11.16,8.82-15.48,14.1-.3.78-1.32,3.18-.66,3.48,5.34.18,9.6-.12,14.82-.12.66,1.62.48,3.78.42,5.76a9.75,9.75,0,0,0,.12,2.64c0,.06-.06.06-.24.06Z"/><path class="c" d="M72.08,34.26A46.55,46.55,0,0,0,72,41.1c.1.94.44,1.95,1.37,2.21a1.64,1.64,0,0,0,1.71-.84,9.82,9.82,0,0,0,.31-2.38,24.64,24.64,0,0,1,3.21.15,5.24,5.24,0,0,1-4.68,7c-2.28.32-5.18-.5-5.44-3.19-.13-2.3-.15-4.78-.08-10a3.36,3.36,0,0,1,.27-1.61A5,5,0,0,1,70,30.37a3.66,3.66,0,0,1,1.22-.55c4.39-1.44,9,2.59,7.42,7a8.68,8.68,0,0,1-3.51-.09c-.19-1.27.2-3.27-1.68-3.19a2.43,2.43,0,0,0-1.2.38A.85.85,0,0,0,72.08,34.26Z"/><path class="c" d="M90.18,34.24a18.75,18.75,0,0,1,0,2.37c-.09,1.71,0,3.27-.12,4.93l-.07.79a7.06,7.06,0,0,1-.91,3.24A4.29,4.29,0,0,1,86.65,47a7.41,7.41,0,0,1-2.74.24c-1.32-.12-2.59-.41-3.17-1.68a5.57,5.57,0,0,1-.57-2.66,70.18,70.18,0,0,1-.12-7.54,6.2,6.2,0,0,1,1.27-4.1,2.59,2.59,0,0,1,.55-.44,7,7,0,0,1,6.94.44,3.5,3.5,0,0,1,1,1.46A5.56,5.56,0,0,1,90.18,34.24Zm-3,2.73s-.08-.81-.1-1.36a2.39,2.39,0,0,0-1.25-2A1.93,1.93,0,0,0,84,33.9a3.19,3.19,0,0,0-1.13,1.66,15,15,0,0,0-.21,3.93,24.71,24.71,0,0,0,.45,3.39,2.29,2.29,0,0,0,3.63.31c.6-.79.36-.79.48-2.18,0-.65,0-1.18,0-1.25V38.61Z"/><path class="c" d="M101.24,47c-.67-.07-1.75.14-9.48,0v-.43c.29-7.2.17-9.72.07-16.46a7.61,7.61,0,0,1,3.84.07c-.12,4.15.1,8.85,0,13v0c.62-.19,5.44.24,6.21.14a4.7,4.7,0,0,1,0,.53,6.06,6.06,0,0,0,0,.94C102,47.08,101.91,47,101.24,47Z"/><path class="c" d="M112.3,47c-.67-.07-1.75.14-9.48,0v-.43c.29-7.2.17-9.72.07-16.46a7.65,7.65,0,0,1,3.85.07c-.12,4.15.09,8.85,0,13v0c.62-.19,5.45.24,6.22.14a3.14,3.14,0,0,1,0,.53,6,6,0,0,0,0,.94C113.05,47.08,113,47,112.3,47Z"/><path class="c" d="M124.14,43.74a9.71,9.71,0,0,1-.2,3.15c-3.26,0-6.74.21-9.84,0,0-5.57-.29-10.92,0-16.42,3.72-.19,9.93-.29,9.93-.14a22.83,22.83,0,0,1,0,3.41v0c-2,.46-4.17.1-6.28.29h-.08l0,0a13.84,13.84,0,0,0,0,2.81l0,0c1,.08,2,0,3,.08v0a26.3,26.3,0,0,1,0,3.34c-1,.26-2.57,0-2.91.26a13.06,13.06,0,0,0,0,3l0,0c2.11,0,4.1.19,6.29.12Z"/><path class="c" d="M129.05,34.26A48.5,48.5,0,0,0,129,41.1a2.29,2.29,0,0,0,1.37,2.21,1.63,1.63,0,0,0,1.7-.84,9.36,9.36,0,0,0,.31-2.38,24.71,24.71,0,0,1,3.22.15,5.25,5.25,0,0,1-4.68,7c-2.28.32-5.19-.5-5.45-3.19-.12-2.3-.14-4.78-.07-10a3.36,3.36,0,0,1,.26-1.61,5,5,0,0,1,1.32-2.09,3.62,3.62,0,0,1,1.23-.55c4.39-1.44,9,2.59,7.41,7a8.63,8.63,0,0,1-3.5-.09c-.19-1.27.19-3.27-1.68-3.19a2.37,2.37,0,0,0-1.2.38A1.1,1.1,0,0,0,129.05,34.26Z"/><path class="c" d="M146.55,34a14.27,14.27,0,0,0-2.93,0h-.07s0,0,0,.07c-.1.46-.07,2.21.12,12.7v0c-1.18.19-2.79,0-3.94.16-.07-.28.22-3.84-.17-12.79l0,0c-.75-.39-2.5-.17-2.88-.29a16.29,16.29,0,0,1-.1-3.77s0,0,0-.05a90.3,90.3,0,0,1,10.13.22A19.49,19.49,0,0,1,146.55,34Z"/><path class="c" d="M161.1,34a14.28,14.28,0,0,0-2.93,0h-.08s0,0,0,.07c-.09.46-.07,2.21.12,12.7v0c-1.18.19-2.78,0-3.94.16-.07-.28.22-3.84-.16-12.79l0,0c-.74-.39-2.49-.17-2.88-.29a16.49,16.49,0,0,1-.09-3.77s0,0,0-.05a90.25,90.25,0,0,1,10.13.22A20.32,20.32,0,0,1,161.1,34Z"/><path class="c" d="M172.71,46.82c-1.1.19-2.57.07-3.36.14h0c-.32-2.14-.1-4.56-.36-6.63l0,0a6.68,6.68,0,0,0-2.78,0c-.19,2.21.17,4.42-.15,6.43-.79.46-2.68-.17-3.26.15-.19-2.72-.43-11.84-.34-16.73v0h.08c1,.19,2.13-.19,3,.07.28,2.21.11,4.28.5,6.32h0a8.72,8.72,0,0,0,2.6,0h0a46.48,46.48,0,0,0,.1-6.26,10.34,10.34,0,0,1,3.28-.27Z"/><path class="c" d="M184.54,43.74a9.44,9.44,0,0,1-.19,3.15c-3.26,0-6.74.21-9.84,0,0-5.57-.29-10.92,0-16.42,3.72-.19,9.94-.29,9.94-.14a22.83,22.83,0,0,1,0,3.41v0c-2,.46-4.18.1-6.29.29h-.07l0,0a13.16,13.16,0,0,0,0,2.81l0,0c1,.08,2,0,3,.08v0a26.35,26.35,0,0,1,0,3.34c-1,.26-2.56,0-2.9.26a12.52,12.52,0,0,0,0,3l0,0c2.12,0,4.11.19,6.29.12Z"/><path class="c" d="M195.17,41.06h0c-.17,2-.17,4-.19,5.88a21.76,21.76,0,0,1-4.18,0l0,0c0-5.81.05-8.78.05-16.25v0c1.65-.29,8-.72,10.73-.05,0,.84.07,2.74,0,3.55-1.73.12-4.42.19-6.41.39a2.5,2.5,0,0,0,0,2.16l.05,0a16.11,16.11,0,0,0,3,0c.19.48-.05,2.78.07,3.94,0,0,0,0-.07,0C197.26,40.86,196.13,40.89,195.17,41.06Z"/><path class="c" d="M214,46.89c-1.13,0-2.55.14-4,0h0a28.58,28.58,0,0,0-3.34-6l0-.07a40.31,40.31,0,0,0,.12,5.86c-1.08.45-3.87.19-4.18.26.19,0,.07-15.17-.17-16.78a23.94,23.94,0,0,1,6.31-.33A5.13,5.13,0,0,1,213,37.53a3.6,3.6,0,0,1-3.12,2.08h-.12v0c1.35,2.38,3.31,4.61,4.27,7.25Zm-8-10.4h0a9.8,9.8,0,0,0,2.42,0c1.23-.26,1.32-2.18.44-2.88-.7-.64-1.88-.52-3-.07C206,34.36,205.93,35.77,206.05,36.49Z"/><path class="c" d="M225,43.33a4.26,4.26,0,0,1-3.94,4c-2.71.26-6-.92-6.14-3.87,0-4.22.17-8.54.09-12.77l0,0h0a14.21,14.21,0,0,1,3.39.12v0a95.13,95.13,0,0,0,.22,11.79,1.53,1.53,0,0,0,2.95-.12c.17-3.84.12-7.9.21-11.62.89-.07,2.74-.38,3.51.07A79.45,79.45,0,0,1,225,43.33Z"/><path class="c" d="M231.51,30.09v.09c0,5.5-.34,11.21,0,16.66-.53.53-3.7,0-4.37.22.45-5.79-.39-11.67.19-17v0c.17,0,.77,0,1,0,.58,0,1.2.1,2.64.08Z"/><path class="c" d="M242.69,34a14.27,14.27,0,0,0-2.93,0h-.07s0,0,0,.07c-.1.46-.07,2.21.12,12.7v0c-1.18.19-2.79,0-3.94.16-.07-.28.22-3.84-.17-12.79l0,0c-.74-.39-2.5-.17-2.88-.29a16.29,16.29,0,0,1-.1-3.77s0,0,0-.05a90.3,90.3,0,0,1,10.13.22A19.49,19.49,0,0,1,242.69,34Z"/><path class="c" d="M254.14,35.58a8.73,8.73,0,0,1-3.6,0c.38-1.75-2.74-2.4-3-.6a1.58,1.58,0,0,0,0,.65c.26.76.89.93,1.56,1a5.84,5.84,0,0,1,4.15,2.52,5,5,0,0,1,.39,5.16A4.55,4.55,0,0,1,249,47.08c-2.8-.07-5.85-1.87-5.66-4.92V42A32.19,32.19,0,0,1,247,42c.12,2,3.63,2.09,3.24-.14-.19-1.54-2.09-1.76-3.43-2a3.41,3.41,0,0,1-1.63-.82,5.12,5.12,0,0,1,1.58-8.44,7.29,7.29,0,0,1,5.33.26,4.06,4.06,0,0,1,2.07,4.75Z"/><path class="c" d="M269.31,34a14.28,14.28,0,0,0-2.93,0h-.07s0,0,0,.07c-.09.46-.07,2.21.12,12.7v0c-1.17.19-2.78,0-3.93.16-.07-.28.21-3.84-.17-12.79l0,0c-.75-.39-2.5-.17-2.88-.29a16.29,16.29,0,0,1-.1-3.77s0,0,0-.05a90.07,90.07,0,0,1,10.12.22A18.69,18.69,0,0,1,269.31,34Z"/><path class="c" d="M280.54,34.24a20.83,20.83,0,0,1,0,2.37c-.1,1.71,0,3.27-.12,4.93l-.07.79a7.2,7.2,0,0,1-.92,3.24A4.26,4.26,0,0,1,277,47a7.38,7.38,0,0,1-2.73.24c-1.32-.12-2.6-.41-3.17-1.68a5.57,5.57,0,0,1-.58-2.66,72.87,72.87,0,0,1-.12-7.54,6.32,6.32,0,0,1,1.27-4.1,2.42,2.42,0,0,1,.56-.44,7,7,0,0,1,6.93.44,3.52,3.52,0,0,1,1,1.46A5.54,5.54,0,0,1,280.54,34.24Zm-3,2.73s-.07-.81-.1-1.36a2.4,2.4,0,0,0-1.24-2,2,2,0,0,0-1.88.33,3.17,3.17,0,0,0-1.12,1.66,15,15,0,0,0-.22,3.93,24.71,24.71,0,0,0,.46,3.39,2.28,2.28,0,0,0,3.62.31c.6-.79.36-.79.48-2.18,0-.65,0-1.18,0-1.25V38.61Z"/><path class="c" d="M78.34,62.51h0l0,0a19.75,19.75,0,0,1,0,5.43,3.16,3.16,0,0,1-2.28,2.86c-1.59.45-3.56.81-5.09.16a3.85,3.85,0,0,1-2.26-2.83,16.13,16.13,0,0,1-.29-1.68,36.77,36.77,0,0,1-.24-5.5,23.71,23.71,0,0,1,.24-3.14,3.85,3.85,0,0,1,1.42-2.76,4.41,4.41,0,0,1,2.33-.89c3.57-.45,6.6,1.32,6.14,5.23l0,.15c-.07.09-.27.07-.77.09a14.3,14.3,0,0,1-2.26-.07c-.19-.65-.69-2-1.63-2-.55,0-1.08-.12-1.46.26a2.68,2.68,0,0,0-.27.65,23.28,23.28,0,0,0-.36,6.91,3.19,3.19,0,0,0,.8,2.14,1.54,1.54,0,0,0,.55.22,3.19,3.19,0,0,0,1.49-.22,1.24,1.24,0,0,0,.74-.86c.07-.27.22-1.37,0-1.44-.38-.08-1.46.07-1.77,0-.12-1,0-1.42-.1-2.52v0s0,0,0,0a.06.06,0,0,0,0,0C74.24,62.1,77.7,62.51,78.34,62.51Z"/><path class="c" d="M90.25,67.74a10,10,0,0,1-.19,3.15c-3.27,0-6.75.21-9.85,0,0-5.57-.28-10.92,0-16.42,3.72-.19,9.94-.29,9.94-.14a24.26,24.26,0,0,1,0,3.41v0c-2,.46-4.18.1-6.29.29h-.07l0,0a13.82,13.82,0,0,0,0,2.81l0,0c1,.08,2,0,3,.08v0a24.57,24.57,0,0,1,0,3.34c-1,.26-2.57,0-2.9.26a12,12,0,0,0,0,3l0,0c2.11,0,4.1.19,6.29.12Z"/><path class="c" d="M101,58A14.27,14.27,0,0,0,98,58H98s0,0,0,.07c-.1.46-.07,2.21.12,12.7v0c-1.18.19-2.79,0-3.94.16-.07-.28.22-3.84-.17-12.79l0,0c-.75-.39-2.5-.17-2.88-.29a16.29,16.29,0,0,1-.1-3.77s0,0,0,0a90.3,90.3,0,0,1,10.13.22A19.49,19.49,0,0,1,101,58Z"/><path class="c" d="M115.78,70.94v0a8.51,8.51,0,0,1-3.21-.1h0c-.38-1-.69-3-1.12-3.91a6.24,6.24,0,0,0-1.49,0c-.43,1-.51,2.95-1.06,4l-.07,0c-.26.07-1.18,0-3.36,0,0,0,0,0,0,0a158.2,158.2,0,0,1,3.67-16.75c.46-.07.84.07,3-.12l2,8.49Zm-6-6.85c.55,0,1.18,0,1.78,0C110.58,55.81,110.43,59.17,109.76,64.09Z"/><path class="c" d="M131.19,59.58a8.73,8.73,0,0,1-3.6,0c.39-1.75-2.73-2.4-3-.6a1.58,1.58,0,0,0,0,.65,1.65,1.65,0,0,0,1.56,1,5.82,5.82,0,0,1,4.15,2.52,5,5,0,0,1,.39,5.16,4.54,4.54,0,0,1-4.63,2.76c-2.81-.07-5.86-1.87-5.67-4.92V66a32.19,32.19,0,0,1,3.67,0c.12,2,3.63,2.09,3.24-.14-.19-1.54-2.09-1.76-3.43-2a3.46,3.46,0,0,1-1.63-.82,5.12,5.12,0,0,1,1.58-8.44,7.28,7.28,0,0,1,5.33.26,4.06,4.06,0,0,1,2.07,4.75Z"/><path class="c" d="M143.36,59.2a4.16,4.16,0,0,1,0,.62,5.8,5.8,0,0,1-6.55,4.83c.07.89,0,1.37.1,6v0l-.07,0a14.76,14.76,0,0,1-4,.1c-.19-4.66,0-11.21-.17-16.54,4-1.06,10.44-.55,10.73,4.89Zm-7.15-1.59a.09.09,0,0,0-.08,0,18,18,0,0,0,.22,3.6h.07c1-.07,2.4.07,3.17-.7a1.65,1.65,0,0,0-.43-2.37A3.38,3.38,0,0,0,136.21,57.61Z"/><path class="c" d="M154.78,67.74a9.44,9.44,0,0,1-.19,3.15c-3.26,0-6.74.21-9.84,0,0-5.57-.29-10.92,0-16.42,3.72-.19,9.94-.29,9.94-.14a22.83,22.83,0,0,1,0,3.41v0c-2,.46-4.17.1-6.29.29h-.07l0,0a13.16,13.16,0,0,0,0,2.81l0,0c1,.08,2,0,3,.08v0a26.3,26.3,0,0,1,0,3.34c-1,.26-2.57,0-2.91.26a12.52,12.52,0,0,0,0,3l0,0c2.12,0,4.11.19,6.29.12Z"/><path class="c" d="M159.7,58.26a47,47,0,0,0-.09,6.84c.09.94.43,2,1.36,2.21a1.63,1.63,0,0,0,1.71-.84,9.82,9.82,0,0,0,.31-2.38,24.88,24.88,0,0,1,3.22.15,5.25,5.25,0,0,1-4.68,7c-2.28.32-5.19-.5-5.45-3.19-.12-2.3-.15-4.78-.07-10a3.24,3.24,0,0,1,.26-1.61,5,5,0,0,1,1.32-2.09,3.66,3.66,0,0,1,1.22-.55c4.4-1.44,9,2.59,7.42,7a8.62,8.62,0,0,1-3.5-.09c-.19-1.27.19-3.27-1.68-3.19a2.37,2.37,0,0,0-1.2.38A.88.88,0,0,0,159.7,58.26Z"/><path class="c" d="M172.25,54.09v.09c0,5.5-.33,11.21,0,16.66-.53.53-3.7,0-4.37.22.46-5.79-.38-11.67.19-17.05v0c.17,0,.77,0,1,0,.57,0,1.2.1,2.64.08Z"/><path class="c" d="M183.65,70.94v0a8.51,8.51,0,0,1-3.21-.1h0c-.38-1-.69-3-1.12-3.91a6.24,6.24,0,0,0-1.49,0c-.43,1-.51,2.95-1.06,4l-.07,0c-.26.07-1.18,0-3.36,0,0,0,0,0-.05,0a158.2,158.2,0,0,1,3.67-16.75c.46-.07.84.07,3-.12l2,8.49Zm-6-6.85c.55,0,1.18,0,1.78,0C178.45,55.81,178.3,59.17,177.63,64.09Z"/><path class="c" d="M193.93,71c-.68-.07-1.76.14-9.48,0v-.43c.28-7.2.16-9.72.07-16.46a7.61,7.61,0,0,1,3.84.07c-.12,4.15.09,8.85,0,13v0c.63-.19,5.45.24,6.22.14a3.14,3.14,0,0,1,0,.53,7.53,7.53,0,0,0,0,.94C194.67,71.08,194.6,71,193.93,71Z"/><path class="c" d="M210.15,67.48c-.77,4.54-6.05,3.53-9.53,3.43a1.17,1.17,0,0,1-.53,0c-.19-5.54,0-10.94-.07-16.51l0,0c3.84-1.06,9.52-.94,9.52,4.44a7.46,7.46,0,0,1-1.17,3.74c-.12.22-.05.31.12.5C209.53,64.26,210.53,65.41,210.15,67.48Zm-3.82-2.26a1.64,1.64,0,0,0-1-.81,13.19,13.19,0,0,0-1.87-.2c-.24.94-.46,2.6.07,3.37l.05,0c.89,0,2.06.17,2.71-.6A1.93,1.93,0,0,0,206.33,65.22Zm.12-6.5a1.67,1.67,0,0,0-1.17-.89,3.25,3.25,0,0,0-1.92.07,14.83,14.83,0,0,0,.09,3c1,.12,2.28.24,2.79-.72A1.53,1.53,0,0,0,206.45,58.72Z"/><path class="c" d="M221.36,58.24a20.83,20.83,0,0,1,0,2.37c-.1,1.71,0,3.27-.12,4.93l-.08.79a7.06,7.06,0,0,1-.91,3.24A4.29,4.29,0,0,1,217.83,71a7.41,7.41,0,0,1-2.74.24c-1.32-.12-2.59-.41-3.17-1.68a5.57,5.57,0,0,1-.57-2.66,70.18,70.18,0,0,1-.12-7.54,6.26,6.26,0,0,1,1.27-4.1,2.59,2.59,0,0,1,.55-.44,7,7,0,0,1,6.94.44,3.41,3.41,0,0,1,1,1.46A5.21,5.21,0,0,1,221.36,58.24Zm-3,2.73s-.07-.81-.1-1.36a2.39,2.39,0,0,0-1.25-2,1.94,1.94,0,0,0-1.87.33A3.25,3.25,0,0,0,214,59.56a15.43,15.43,0,0,0-.21,3.93,26.36,26.36,0,0,0,.45,3.39,2.29,2.29,0,0,0,3.63.31c.6-.79.36-.79.48-2.18,0-.65,0-1.18,0-1.25V62.61Z"/><path class="c" d="M233,58.24a20.83,20.83,0,0,1,.05,2.37c-.1,1.71,0,3.27-.12,4.93l-.07.79a7.2,7.2,0,0,1-.92,3.24A4.26,4.26,0,0,1,229.42,71a7.38,7.38,0,0,1-2.73.24c-1.32-.12-2.6-.41-3.17-1.68a5.46,5.46,0,0,1-.58-2.66,70.18,70.18,0,0,1-.12-7.54,6.26,6.26,0,0,1,1.27-4.1,2.42,2.42,0,0,1,.56-.44,7,7,0,0,1,6.93.44,3.52,3.52,0,0,1,1,1.46A5.54,5.54,0,0,1,233,58.24ZM230,61s-.07-.81-.1-1.36a2.4,2.4,0,0,0-1.24-2,2,2,0,0,0-1.88.33,3.17,3.17,0,0,0-1.12,1.66,15,15,0,0,0-.22,3.93,24.71,24.71,0,0,0,.46,3.39,2.28,2.28,0,0,0,3.62.31c.6-.79.36-.79.48-2.18,0-.65.05-1.18.05-1.25V62.61Z"/><path class="c" d="M244.76,59.58a8.73,8.73,0,0,1-3.6,0c.38-1.75-2.74-2.4-3-.6a1.3,1.3,0,0,0,0,.65c.26.76.88.93,1.56,1a5.86,5.86,0,0,1,4.15,2.52,5,5,0,0,1,.38,5.16,4.53,4.53,0,0,1-4.63,2.76c-2.81-.07-5.86-1.87-5.66-4.92V66a32.17,32.17,0,0,1,3.67,0c.12,2,3.62,2.09,3.24-.14-.19-1.54-2.09-1.76-3.43-2A3.49,3.49,0,0,1,235.8,63a5.13,5.13,0,0,1,1.59-8.44,7.29,7.29,0,0,1,5.33.26,4.06,4.06,0,0,1,2.06,4.75Z"/><path class="c" d="M255.58,58a14.27,14.27,0,0,0-2.93,0h-.07s0,0,0,.07c-.1.46-.07,2.21.12,12.7v0c-1.18.19-2.79,0-3.94.16-.07-.28.22-3.84-.17-12.79l0,0c-.75-.39-2.5-.17-2.88-.29a16.29,16.29,0,0,1-.1-3.77s0,0,0,0a90.3,90.3,0,0,1,10.13.22A19.49,19.49,0,0,1,255.58,58Z"/><path class="c" d="M255.92,70.94h-.08a21.88,21.88,0,0,1,0-2.79,6.79,6.79,0,0,1,3-.05c0,.05-.14,2.36-.14,2.81v0h-.05Z"/></svg>