<svg xmlns="http://www.w3.org/2000/svg" viewBox="0 0 47.08 12.77"><defs><style>.a{fill:#fff;}</style></defs><path class="a" d="M2.8,5a29.73,29.73,0,0,0,0,4.27c0,.59.26,1.22.85,1.38a1,1,0,0,0,1.07-.52c.22-.46.08-1,.19-1.49a16.9,16.9,0,0,1,2,.09,3.29,3.29,0,0,1-2.93,4.37c-1.42.2-3.23-.32-3.4-2C.46,9.65.45,8.1.5,4.86a2,2,0,0,1,.16-1,3.15,3.15,0,0,1,.82-1.31,2.24,2.24,0,0,1,.77-.34C5,1.31,7.84,3.83,6.88,6.6a5.24,5.24,0,0,1-2.19-.06c-.12-.79.12-2-1.05-2a1.52,1.52,0,0,0-.75.25A.82.82,0,0,0,2.8,5Z" transform="translate(0 -2.02)"/><path class="a" d="M14.11,5a10.45,10.45,0,0,1,0,1.48c-.06,1.07,0,2-.07,3.08L14,10a4.34,4.34,0,0,1-.57,2,2.67,2.67,0,0,1-1.54.92,4.7,4.7,0,0,1-1.71.15,2.1,2.1,0,0,1-2-1,3.45,3.45,0,0,1-.36-1.66,46.27,46.27,0,0,1-.08-4.71,4,4,0,0,1,.8-2.57,1.84,1.84,0,0,1,.34-.27,4.41,4.41,0,0,1,4.34.27,2.25,2.25,0,0,1,.61.92A3,3,0,0,1,14.11,5ZM12.24,6.68s-.05-.51-.06-.86a1.55,1.55,0,0,0-.78-1.28,1.22,1.22,0,0,0-1.17.22,2,2,0,0,0-.71,1,9.52,9.52,0,0,0-.13,2.46,15.93,15.93,0,0,0,.28,2.12,1.44,1.44,0,0,0,2.27.19c.37-.49.22-.49.3-1.36,0-.41,0-.74,0-.78V7.7Z" transform="translate(0 -2.02)"/><path class="a" d="M21.36,5a14.62,14.62,0,0,1,0,1.48c-.06,1.07,0,2-.08,3.08l0,.49a4.46,4.46,0,0,1-.57,2,2.7,2.7,0,0,1-1.55.92,4.66,4.66,0,0,1-1.71.15,2.11,2.11,0,0,1-2-1,3.57,3.57,0,0,1-.36-1.66A43.54,43.54,0,0,1,15,5.69a4,4,0,0,1,.79-2.57,1.91,1.91,0,0,1,.35-.27,4.39,4.39,0,0,1,4.33.27,2.18,2.18,0,0,1,.62.92A3.64,3.64,0,0,1,21.36,5ZM19.48,6.68s0-.51-.06-.86a1.5,1.5,0,0,0-.78-1.28,1.23,1.23,0,0,0-1.17.22,2,2,0,0,0-.7,1,9.51,9.51,0,0,0-.14,2.46,15.92,15.92,0,0,0,.29,2.12,1.43,1.43,0,0,0,2.26.19c.38-.49.23-.49.3-1.36,0-.41,0-.74,0-.78V7.7Z" transform="translate(0 -2.02)"/><path class="a" d="M28.75,12.86a9.64,9.64,0,0,1-2.08,0c-.84-1-1.44-2.8-2.07-3.91-.05,1.15,0,2.74,0,3.87a6,6,0,0,1-2.19,0c-.16-3.43.05-6.91,0-10.41.66,0,1.37,0,2,0,.05,1.14,0,2.46,0,3.6,0,0,0,0,.08-.09.84-1.09,1.26-2.34,2.1-3.52.64,0,1.39-.06,2,0-.48,1.68-1.83,3.36-2.55,5Z" transform="translate(0 -2.02)"/><path class="a" d="M32,2.37v.06c0,3.44-.21,7,0,10.41-.33.33-2.31,0-2.73.13.28-3.61-.24-7.28.12-10.64v0c.1,0,.48,0,.61,0,.36,0,.75.06,1.65,0Z" transform="translate(0 -2.02)"/><path class="a" d="M39.54,10.91a6.4,6.4,0,0,1-.12,2c-2,0-4.22.13-6.15,0,0-3.48-.18-6.82,0-10.26,2.33-.12,6.21-.18,6.21-.09a13.77,13.77,0,0,1,0,2.13v0a31.85,31.85,0,0,1-3.93.18H35.5a8.49,8.49,0,0,0,0,1.75v0c.6.05,1.23,0,1.85.05h0a18,18,0,0,1,0,2.09c-.62.16-1.61,0-1.82.16a8.43,8.43,0,0,0,0,1.88h0c1.32,0,2.56.12,3.93.08Z" transform="translate(0 -2.02)"/><path class="a" d="M46.74,5.81a5.33,5.33,0,0,1-2.25,0c.24-1.09-1.71-1.5-1.88-.37a1.08,1.08,0,0,0,0,.4,1,1,0,0,0,1,.64A3.68,3.68,0,0,1,46.18,8a3.13,3.13,0,0,1,.24,3.22A2.81,2.81,0,0,1,43.53,13c-1.76,0-3.66-1.17-3.54-3.07V9.83a19.5,19.5,0,0,1,2.29,0c.08,1.27,2.27,1.31,2-.09-.12-1-1.31-1.1-2.15-1.26a2.29,2.29,0,0,1-1-.51,3.21,3.21,0,0,1,1-5.28,4.57,4.57,0,0,1,3.33.17,2.53,2.53,0,0,1,1.29,3Z" transform="translate(0 -2.02)"/><path class="a" d="M0,14.79V14H47.08v.75Z" transform="translate(0 -2.02)"/></svg>