<svg xmlns="http://www.w3.org/2000/svg" viewBox="0 0 2841.64 1911.43"><defs><style>.a{fill:#ed7269;}.b{fill:#f8c8c9;}.c{fill:#ed729c;}.d{fill:#f7cce1;}.e{fill:#f6a400;}.f{fill:#ffdb75;}</style></defs><path class="a" d="M1927.05,1683c-48.39-2.1-93.94-1.26-120.87,45.64-15,26.08-20.35,56.39-27.38,85.64-8.33,34.63-19.62,72.38-53.83,88.7-32.56,15.51-76,9.73-98.46-18.51-18.9-23.8-19.66-58.41-8.2-86.54s33.41-50.71,56.94-69.92c43.37-35.4,103.13-61,104.6-124.5.44-18.5-1.63-36.83-4.21-55.09a392.62,392.62,0,0,0-20.76-82.14c-10.9-29.35-25-57-44.33-81.79a166.63,166.63,0,0,0-12.23-13.79c-15.8-16.33-35.19-24.15-57.87-24.34-14.83-.12-29.4,1.93-43.93,4.53-25.19,4.5-50.29,9.6-75.6,13.46a144.68,144.68,0,0,1-58-2.45c-19.79-5-37-14.48-50-30.59-2.28-2.82-4.14-6-6.21-9-2.93-8.75-6.13-17.8-8.82-26.89-8.46-28.68-11.8-58,14.83-81.6,16.94-15,41-19.4,63.57-18s44.46,7.91,66.63,12.25c40.11,7.81,82.86,9.44,122.89.31,60.38-13.79,93.82-57.22,104.93-116.4,3.91-20.88,6.41-42.58,1.56-63.29-9.06-38.61-63.24-55.41-50.4-100.45,5-17.57,19.75-31.59,37-37.58s36.67-4.4,53.58,2.57c20,8.19,36.28,23.18,54.92,34.07,59.9,34.95,134.18,27.33,197.51,6.6,31.49-10.32,58.76-26.08,88-40.41a173,173,0,0,0,73.08-68.11q3.87-6.64,7.1-13.61a161.65,161.65,0,0,0,9.9-27.44c6.71-25.92,7.09-52.83,11-79.19,3.31-22.32,15.21-42.41,29.82-59.71,11.74-13.9,26.05-23.58,44.36-26.49,5.83-.93,11.68-2.42,17.54-2.49,17.21-.24,31.88,6.16,44.43,18,18.92,17.8,37.09,62,32.08,91.79a180.7,180.7,0,0,1-13.17,44.7c-9.84,21.82-26.05,37-38.41,56.42-14.88,23.34-23.18,54.52-21.95,82.09,1.5,33.75,20.28,68.08,51.48,81.06,30.18,12.55,65.58,3.26,93.22-14.15s49.74-42.17,74-64c27.68-25,59.49-46.82,95.79-55.39s77.66-2,104.53,23.89S2801.76,953.25,2778,982c-18.83,22.82-50.89,29.88-80.48,30.16s-59.45-4.71-88.63.1c-26.19,4.33-49.41,12.56-63.54,36.83-11.26,19.36-13.95,42.77-11.57,65,7.2,67.36,63.27,126.44,130.14,137.17,31.72,5.11,64.85.37,95.77,9.14,42.06,11.9,75.33,50.28,81.19,93.58,2.76,20.49-2.1,44.62-20.11,54.78-14,7.88-31.49,4.89-46.85.16-41.21-12.66-79.18-36.11-121.76-42.8a161.26,161.26,0,0,0-83.88,9.28c-29.65,11.76-60.74,41.27-68.78,73.11-3.29,13.09-1.72,26.9-4.6,40.26-4.24,19.69-9.88,38-9.28,58.5.82,28.53,13.54,58.45,38.61,72.08,24.35,13.23,57.88,10.48,75.49,31.9,12.4,15.13,11.39,38.66.09,54.65s-31,24.7-50.59,25.68c-14.07.71-29.17-2.71-38.89-12.91-13.71-14.37-12.8-36.8-18.74-55.76-10.18-32.57-45-55-78.7-52.7a67.78,67.78,0,0,0-11.55,1.78c-50.79,12.45-73.82,81.81-49.8,126,5.53,10.16,13.79,18.52,20.52,27.93,14.65,20.42,21.65,48.52,10.3,70.94s-45.18,32.47-63,14.74c-7.24-7.22-10.75-17.37-13.16-27.31-4.54-18.6-6.15-38-13-55.84a101.55,101.55,0,0,0-53-55.75c-29.79-13.23-51.87-5.74-81,.69-31.11,6.87-69.62,2.43-100.93-1.28-44.92-5.31-86.59-27.18-131.22-29.12"/><path class="a" d="M1324.07,1517.19c35.21-17.92,75.9-29.28,119.84-26.34,32.41,2.19,64.72,5.79,96.25,13.94a199,199,0,0,1,36.82,13c20.26,9.79,30.24,27,31.31,49.5,1,20.24-5.5,38.11-16.8,54.58a350.39,350.39,0,0,1-72.57,77.71c-8.07,6.38-16.09,12.82-24.28,19-29.25,22.16-62.74,35.23-98,43.81-50.39,12.3-92-4.52-122.27-46.72-15.71-21.88-23.52-46.51-28.93-72.1-3.89-18.39.06-36.25,7.75-53.22,14.28-31.44,37.57-54.39,70.84-73.2"/><path class="a" d="M1566.36,892.42c-6.86-19.31-7.49-38.33,3-56.61,6.85-12,17.1-19.1,30.9-21.59,28.34-5.09,51.13,5.64,70.86,24.55,8.14,7.79,11.77,18.35,12.24,29.49.93,22.9-6.59,42.83-23.26,58.7-13.14,12.51-28.95,15.89-46.28,10.61-21.17-6.45-35.89-20.43-45.38-40.16-.78-1.6-1.4-3.34-2.09-5"/><path class="b" d="M1434.07,1261c-1.83.87-4.12,1.8-5.71.55a4.69,4.69,0,0,1-1.43-2.6c-5.06-18.06,16.48-31.61,31.91-32.45,21.35-1.21,46.46,2,65.4,12.33,7.5,4.08,6.19,11.66-1.34,14.17-8.59,2.86-20,2-28.89,1.86-20-.27-41.25-2.71-59.94,6.14"/><path class="b" d="M1701.14,1761c12.85,8.63,11.35,33.41-3.37,55.33s-37.07,32.7-49.93,24.06-11.36-33.39,3.38-55.31,37.08-32.7,49.92-24.08"/><path class="b" d="M2585.05,1670.12c-2.77,8.3-16.5,11.2-30.65,6.48s-23.4-15.31-20.63-23.61,16.5-11.19,30.65-6.46,23.4,15.3,20.63,23.59"/><path class="b" d="M2769.38,1297.74c-5.9,8.31-35.12,11.21-65.23,6.48s-49.77-15.3-43.88-23.61,35.12-11.2,65.25-6.46,49.75,15.29,43.86,23.59"/><path class="b" d="M2739.83,891.58a23.89,23.89,0,0,1,.83,20.63c-27-6.91-54.95-13.86-82.5-9.5-20.89,3.31-40.59,13-61.73,14.26a113.58,113.58,0,0,1,70.42-42.2c20.74-3.64,57-5.41,71.34,14.22a18.51,18.51,0,0,1,1.64,2.59"/><path class="b" d="M2345.8,643.39a23.81,23.81,0,0,1,16.91,11.82c-21.83,17.34-44.26,35.38-57.43,60-10,18.62-14.15,40.21-26,57.78a113.52,113.52,0,0,1,9-81.6c9.62-18.72,30.16-48.68,54.46-48.25a24.34,24.34,0,0,1,3.06.28"/><path class="b" d="M1391.63,1561.43c-6.16,3.19-12.79,5.65-19.18,8.4a185.2,185.2,0,0,0-39.2,23c-8.44,6.48-16.41,13.79-22.19,22.71-4.37,6.72-7.82,14.67-14.88,18.49a5.23,5.23,0,0,1-4.18.71c-1.93-.71-2.6-3.09-2.85-5.14-1.09-9.27,2.27-16.63,4-25.25,1.59-8,2.66-15.25,6.27-22.74,17.07-35.6,59.6-49.64,96.76-50.16,3.88,0,8.13.19,10.95,2.82s3.38,6.81,2.32,10.39-3.58,6.55-6.34,9a54.46,54.46,0,0,1-11.44,7.69"/><path class="b" d="M1811.54,928.57a16.4,16.4,0,0,1,.45,1.64c.88,3.42.24,7.5-2.5,9.75-3,2.43-7.44,2.07-10.85.33s-6.16-4.5-9.17-6.85a41.19,41.19,0,0,0-10.23-5.93,12.13,12.13,0,0,0-5-1.12c-5.52.3-9,6.73-14.42,7.68a3.12,3.12,0,0,1-2-.21,3.27,3.27,0,0,1-1.12-1.27c-8.19-14.38,14.52-25.9,25.74-25.9,13.27,0,25.18,9.25,29.14,21.88"/><path class="b" d="M1629.15,842.08a25.56,25.56,0,0,1,1.38,4c.27,1.12.38,2.49-.45,3.29a2.81,2.81,0,0,1-2,.63c-2.9-.08-5.17-2.43-7.81-3.62-4.2-1.88-9.14-.67-13.42,1s-8.61,3.81-13.22,3.74-9.59-3.39-9.52-8c.12-9.22,15-16.8,22.77-16.8,9.55,0,18.39,7,22.27,15.78"/><path class="c" d="M974.52,1234.36a179,179,0,0,0-23.83,23.71c-22.48,27-38.7,61.92-42.38,97.08-3.54,33.7,1.58,67.41-16.39,98.25-14.51,24.89-41.91,41.78-70.66,43.53-60.27,3.71-98.59-52.8-95.66-108.6,1.49-28,12.21-54.56,20.29-81.42s13.61-56.05,4.68-82.64c-7.27-21.62-23.58-39.37-42.7-51.78s-41-19.93-63-25.83c-68.1-18.27-141.15-22-209-2.7-43.21,12.31-83.94,34.39-116.92,65-34.85,32.34-55.66,74.67-81.18,114-27.4,42.29-66.21,60.07-115.78,48.73-3.9-.88-7.85-1.54-11.78-2.33q-13.47-5.36-26.92-10.73c-3.74-2.55-7.44-5.11-11.18-7.64-29.65-20-43.19-52.09-34.88-86.83,10.85-45.49,36-81.94,73.54-109.69,23.35-17.25,49.37-29.58,77-37.87,31.62-9.51,63.66-17.67,95.62-26,30.05-7.8,60.13-15.33,89-27,30-12.08,57.72-27.79,80.8-50.78,26.69-26.56,45.57-57.87,54.78-94.43,8.22-32.65,1.59-62.53-20.29-88.52-15.9-18.9-36.12-31.88-58.7-41.21-32.78-13.57-67.25-19.95-102.52-20.67-30.95-.63-61.95.45-92.91.83-19.3.26-38.6.18-57.69-3.33a142.44,142.44,0,0,1-60.22-26.32,70,70,0,0,1-8-7C82.49,707,90.69,666.44,123.77,652.62c14.73-6.14,30.22-6.3,45.77-4.94,22.87,2,45.07,7.45,67.16,13.41,34.82,9.39,69.51,19.37,104.5,28.17,28.61,7.18,57.73,11.76,87.45,10.7,17.38-.61,34.34-3.43,50.53-10.17,24.47-10.23,42.19-27.76,54.87-50.72,6.19-11.16,11.56-22.66,13.4-35.46,6.75-47-26.13-84.73-71.35-93.31-13.25-2.49-26.88-2.25-40.25-3.9-23.67-2.85-46.93-11.81-64.93-27.46s-30.34-38.29-31.46-62.1c-.85-18.47,6.65-39.49,20.34-52.11,22.12-20.37,55.6-21.9,85.41-18,13.55,1.78,27.07,4.5,39.67,9.74,37.07,15.44,61.42,49.57,96,68.93C615.7,445,652.26,457.86,693,455c55.8-3.86,93.9-37.92,110.26-89.83,5.29-16.81,4-33.62-1-50.3-4.47-14.67-11.27-28.31-18.58-41.73-9-16.53-18.27-32.89-27-49.55a189.55,189.55,0,0,1-17.77-47.75,124.69,124.69,0,0,1,8.63-80.39,74.51,74.51,0,0,1,10.21-16C775.2,58.21,799.88,54.28,824.78,68c21,11.56,34.3,28.92,40.69,51.84,12,43.17,1.16,87.78.22,131.66-.77,37.78,6.94,66.21,31.74,95.07,7.34,8.54,15.18,16.85,24.75,22.77,20,12.33,44.87,12.87,68.32,11.46,20.32-1.21,40.71-3.63,60.23-9.44,67-20,122.7-64.17,134.88-135.5,6.05-35.48,4.24-71.84,8.41-107.59,2.59-22.2,14.17-47,23.42-67.22a109.55,109.55,0,0,1,36.62-44q31.05-22.17,68.7-15.36c2.21.39,4.49.53,6.73.77q11.34,4.55,22.69,9a39.26,39.26,0,0,0,3.93,3.35,92.1,92.1,0,0,1,36,44.16c10.85,27.35,11,55.16,1.53,82.76-4.5,13.17-10.63,25.83-16.56,38.46-10.65,22.66-23.89,43.77-40.84,62.19-14.76,16-30.39,31.32-46,46.53-27.93,27.14-49.38,58.57-63.43,94.89-6.07,15.63-11.88,31.37-17.1,47.3-8.8,26.8-5.17,61.35-3.1,89.38,2.28,30.71,8.2,61.45,21.68,89.32,12.1,25,29.89,47,50.22,65.86a233,233,0,0,0,37.18,28.62,191.39,191.39,0,0,0,68,25.21c28.51,4.71,58.73,2.66,84.7-9.94,43.21-21,70-70.49,115.87-85,14.17-4.49,28.62-7.41,43.52-5.88,24.92,2.58,46.13,13.8,64.65,29.94,23.68,20.69,33.54,47.17,30.29,78.45a107.85,107.85,0,0,1-8.42,31.55,52.18,52.18,0,0,1-23.69,25.91A72.59,72.59,0,0,1,1663,803c-11.35,1-22.84,2.13-34.2,1.58-26.86-1.3-53.67-3.6-80.5-5.44-31.45-2.16-62.9-2.93-94.23,1.84-52.41,8-95.66,31.73-127.12,74.92-26.3,36.1-42.79,76.58-50.43,120.58-9.76,56.29,5.18,105.59,42.87,148.25,15.89,18,34,33.43,53.28,47.61,33.6,24.71,69.93,45.11,105.56,66.65,22.83,13.79,45.53,27.75,66.35,44.51,16.09,13,31,27.16,41.29,45.37,11.89,21,15.92,43.16,8.83,66.76a22.07,22.07,0,0,0-.35,4.5q-5.1,12.75-10.17,25.5c-3,4.69-5.67,9.54-8.94,14-18.87,25.74-46.91,37.68-79,28.82-15.89-4.39-30.24-11.92-44-20.62-21.63-13.65-38.89-31.87-52.48-53.36q-17.53-27.69-33.5-56.37a404.46,404.46,0,0,0-99.43-118.6c-21.28-17.14-37.48-27.15-64.25-35.36-28.42-8.73-57.92-14.46-87.71-14.73-51.51-.43-101.46,12.9-140.43,45"/><path class="c" d="M1116.67,1469.53c-2.64-1.93-5.25-3.92-8-5.78-35.3-24.6-47-70.11-28.85-109,14.88-31.82,52.68-57.89,97.68-47.4,53.31,12.42,76.21,63.06,65.66,105.13-11.91,47.4-56.92,75.24-104.69,64.55a15.71,15.71,0,0,0-3.22-.08c-6.22-2.48-12.41-5-18.63-7.42"/><path class="c" d="M136.07,366.44C106.07,359,77.22,348.9,51.12,332a134.77,134.77,0,0,1-33.76-30.36C3.72,284-2.66,263.9,1,242.12c4-23.34,16.38-41.56,39.46-50.69,16.24-6.41,33.18-7.09,50.28-5.92,67.32,4.58,118.85,37.44,159.1,89.79,7,9.08,12.13,19.75,17.07,30.19,2.81,5.94,4.13,12.77,5,19.36,2.26,17.22-4.91,30.06-19.8,38.65-9.3,5.37-19.55,7.94-30.09,9.41-16.47,2.29-33,1.72-49.35-.41-12.25-1.61-24.43-4-36.62-6.06"/><path class="d" d="M165.17,232.84c2.34,1.5,4.93,3.5,4.9,6.27,0,2.57-2.45,4.58-5,5.07s-5.09-.21-7.55-.87c-20.48-5.53-42.07-10.55-62.7-5.7-16,3.74-30.87,13.32-47.34,13.28-5.56,0-11.94-1.84-14.12-6.95-9.28-21.82,21.68-30.68,35.26-31.33,33.81-1.61,67.68,2,96.51,20.23"/><path class="d" d="M492.87,395c2.05,1.5,4.31,3.51,4.28,6.29a5.48,5.48,0,0,1-4.34,5.05c-2.22.49-4.46-.19-6.62-.87-18-5.51-36.89-10.55-55-5.7-14.07,3.74-27.08,13.33-41.52,13.28-4.88,0-10.46-1.83-12.38-6.95-8.14-21.82,19-30.68,30.92-31.33,29.66-1.61,59.34,2,84.64,20.23"/><path class="d" d="M832.39,99.73A10.14,10.14,0,0,1,834.7,106c0,2.57-1.15,4.58-2.34,5.07s-2.41-.21-3.58-.87c-9.76-5.53-20-10.55-29.82-5.7-7.62,3.74-14.66,13.33-22.5,13.28-2.63,0-5.67-1.83-6.71-7C765.35,89,780.06,80.15,786.51,79.5c16.07-1.61,32.18,2,45.88,20.23"/><path class="d" d="M1317.07,28c2.18.14,4.84.62,6.68,2.89a5.75,5.75,0,0,1,.85,6.33c-1,1.53-2.72,2.15-4.42,2.72-14.12,4.8-28.47,10.47-35.77,23.75-5.66,10.29-6.82,24.79-15.25,32.18-2.86,2.49-7.3,3.93-11.83.77-19.31-13.52-9.47-34.74-3-41.39,16.17-16.61,35.84-29,62.72-27.25"/><path class="d" d="M1570.1,670.93c-1.49,1.62-3.06,3.79-2.84,6.71.22,2.67,2,4.74,3.72,5.18s3.41-.33,5-1.08c13.43-6.28,27.61-12.06,41.91-7.46,11.09,3.55,21.82,13.26,32.94,12.79a9.1,9.1,0,0,0,9-7.6c4.64-23.1-16.93-31.68-26.15-32-22.94-.89-45.52,3.69-63.62,23.48"/><path class="d" d="M1490.52,1317.42c-2.77-.36-6.23-.45-9.12,1.91-2.65,2.18-3.53,5.56-2.73,7.69s2.84,3.35,4.8,4.52c16.38,9.54,32.8,20.23,38.41,38.62,4.35,14.28,1.95,32.63,10.53,44,2.9,3.82,8.08,6.74,14.56,3.93,27.69-12,21-40.9,14.65-50.85-15.79-24.77-37.09-45.19-71.1-49.82"/><path class="d" d="M1109.91,1355.31a6.75,6.75,0,0,0-1.64,5.21,4.34,4.34,0,0,0,3.17,3.6,5.68,5.68,0,0,0,3.68-1.18c9.57-5.64,19.72-11,30.73-8.61,8.54,1.87,17.28,8.32,25.53,7.19a6.87,6.87,0,0,0,6.18-6.35c1.78-17.57-14.94-22.42-21.84-22-17.2,1-33.71,6.06-45.81,22.15"/><path class="d" d="M218.56,685.85c1.77,1.28,3.71,3,3.69,5.4a4.74,4.74,0,0,1-3.74,4.35c-1.88.42-3.82-.18-5.68-.74-15.46-4.74-31.73-9.08-47.31-4.92-12.1,3.24-23.29,11.47-35.7,11.42-4.2,0-9-1.55-10.66-6-7-18.76,16.36-26.38,26.6-26.95,25.5-1.36,51,1.73,72.8,17.41"/><path class="d" d="M159.62,1157.59c3.32-1.72,7.47-3.38,11.1-1.51a8.1,8.1,0,0,1,3.79,9.06c-.81,3.22-3.19,5.75-5.48,8.15-19.11,20-38.2,41.64-43.77,68.69-4.3,21-.24,44.45-9.84,63.41-3.23,6.43-9.3,12.6-17.29,11.75-34.12-3.63-27.92-45.26-20.92-61.36,17.43-40.13,41.75-76.85,82.41-98.19"/><path class="c" d="M916.46,494.24s65.38-181-160.92-160.92S609.7,609.91,916.46,494.24"/><path class="e" d="M1295.19,1519.81c-27.91,17.64-40.19,57.3-51.68,86.43-6.91,17.56-3.71,39.79-5.24,58.4-1.69,20.64-5.42,41.16-14.9,59.79-16.45,32.3-52.07,53.89-88.34,53.5-14.66-.17-29.85-4-40.68-13.85-16.21-14.77-19-39.26-17.32-61.12,2.52-33,13-66,33.87-91.76,10.44-12.93,23.19-23.74,35.86-34.47,16.63-14.1,33-29,50.64-41.54,16.36-11.63,32.73-23.83,44.41-40.43,14.1-20,19.85-48.08,7.2-69-14.73-24.4-56.12-47.24-81.6-58.44-36.42-16-74.8-28-114.3-33.29-51.83-7-120.62-5-167.87,19.24-18.92,9.69-35.52,22.8-52.84,34.89-13.06,9.11-26.26,18.32-40.29,25.76-28.55,15.17-58.43,14.49-88.16,3.58-23.62-8.65-37.26-26.29-41.94-50.78-2.68-13.94-3.24-28.06-.12-42,6.84-30.77,26.58-49.28,56.15-58.24,15.72-4.75,31.61-4.12,47.49-1.31,19.43,3.44,38.81,7.19,58.2,10.86,57.73,11,112-24.12,131-77.44A268.89,268.89,0,0,0,969.39,1128c1.49-20.21,2.47-40.59,1.71-60.82-1.22-33.25-15.9-60.24-41.92-81.08-15.1-12.09-31.62-21.88-48.29-31.5-11-6.37-22-12.79-32.57-19.93-11.8-8-21.66-17.94-27.82-31.14-7-15-5.2-29.07,4.9-41.89,11.31-14.39,26.36-23,44.07-27.14,21.21-5,42.57-3.4,63.85-1.11,23,2.49,45.79,3.61,68.83.38,35.94-5.06,68.29-18,96.42-41.21,23.43-19.34,44-41,57.69-68.48,8.69-17.4,14.2-35.69,14.56-55.32.27-14.17-4.6-26.28-15.5-35.17a169.61,169.61,0,0,0-25-16.6c-11.58-6.42-24-11.37-35.58-17.82S1071.57,586.1,1061.2,578c-23.76-18.57-33.09-43.83-29.24-73.42,4.29-33.15,28.32-57.57,68.23-57.16,24.13.22,42.48,10.93,56.55,30,10.38,14.06,17.37,29.93,24.5,45.73,7,15.55,13.86,31.2,21.73,46.3A200.91,200.91,0,0,0,1221,597.3c17.29,23,41,34.72,69.25,37.73,23.09,2.47,45.94.24,68.78-3.3,21.72-3.36,43.08-8,63.68-15.75,16.82-6.32,32.71-14.36,46.77-25.66,17.22-13.81,30.18-32.1,36-53.48,8.07-29.8-1.41-47.7-13.09-75.25-7.54-17.84-15.26-37.15-11-56,3.93-17.58,18.37-31.87,35.42-37.75s36.2-3.91,52.73,3.21c6.54,2.79,12.87,6.5,17.35,12,5.67,7,7.75,16.24,8.91,25.21,7.69,59.84-2.2,123.23,31.17,177.45,38.72,62.9,87.68,114.95,158.1,142.94,36.36,14.48,74.06,22.24,113.25,21.37,20-.42,40-1.65,60-3.17,18.2-1.41,33.29-9.91,44.64-23.89,8-9.82,14.9-20.63,21.44-31.5,10.59-17.67,20.19-35.92,30.8-53.55,11.07-18.42,24-35.48,40.17-49.85,14.4-12.81,30.38-23,49.87-25.56,24.35-3.15,48.43-1.5,70.12,11.2,30.57,17.85,44,46,45,80.51a124.56,124.56,0,0,1-1.57,22.66c-3.59,22.72-14.86,41-33.1,55-16.23,12.48-34.22,21.8-53,29.73-17.95,7.58-36.11,14.61-54,22.25a246.26,246.26,0,0,0-23.92,12c-31.81,18-52.22,44.95-61.76,80.16-6.38,23.6-9.53,47.78-12,72a517.83,517.83,0,0,0,.68,111.94c4.75,41.12,14,81.08,31.08,119a229.19,229.19,0,0,0,11.32,21.56c15.16,25.92,37.56,42.09,66.6,49.48,19,4.84,38.34,6.83,57.8,8.07,33.75,2.16,67.6,3.54,101.26,6.59,25.75,2.32,50.59,9.14,73.61,21.42,23.83,12.72,42.88,30.26,54.49,55.05,2.05,4.34,3.44,9,5.13,13.49q1.53,18.64,3.06,37.27c-1.53,6.81-2.52,13.79-4.75,20.35a114.4,114.4,0,0,1-9,19.94c-11.31,19.63-28.62,30.31-51,33.57-39.15,5.76-74.81-3.43-107.48-24.91-64-42-134.09-82-212.4-86-26.67-1.36-62.27-7.64-88.34-3.71-35.57,5.35-64.58,40.34-88.93,63.73-74.48,71.59-173,116.2-275.1,129.62a492.82,492.82,0,0,1-156-4.11c-42.18-8-97.38-46.23-137.94-20.6"/><path class="e" d="M624.93,684.54c27.64,6.65,55.21,19.42,77.84,41.54,16.73,16.35,32.71,33.41,46.16,52.58A142.9,142.9,0,0,1,763,803c6.52,14.83,3.92,28.91-6,41.7-8.92,11.53-20.81,18.29-34.67,22a252.65,252.65,0,0,1-76,8.61c-7.39-.27-14.78-.51-22.17-.94-26.36-1.53-50.76-10-74-21.79-33.31-16.79-48.21-45.41-45.06-82.65,1.63-19.29,8.84-36.42,17.85-53,6.45-11.87,17-19.8,29.09-25.49,22.5-10.52,45.94-12.21,72.93-6.94"/><path class="e" d="M1936.24,1790.27c-18.13-21.08-32.74-47-38.07-77.56-4-22.54-6.9-45.24-6.61-68.18a140.11,140.11,0,0,1,2.73-27.36c3.3-15.5,13.43-25.2,28.62-29.7,13.67-4,27-2.62,40.13,2.35a247,247,0,0,1,65.32,36.61c5.72,4.46,11.48,8.86,17.1,13.42,20.05,16.29,34.58,37,46.36,59.66,16.86,32.41,12.31,63.67-11.46,91.47-12.34,14.41-27.87,23.86-44.46,31.86-12,5.76-24.82,6.05-37.71,3.61-23.91-4.49-43.51-16.58-62-36.18"/><path class="f" d="M613.21,718.16c2.16.13,4.77.59,6.59,2.82,1.65,2.07,1.77,4.74.83,6.24s-2.69,2.11-4.35,2.67c-13.9,4.72-28,10.3-35.17,23.34-5.56,10.12-6.69,24.37-15,31.64-2.79,2.45-7.17,3.88-11.61.75-19-13.26-9.3-34.12-2.93-40.68,15.89-16.33,35.21-28.5,61.64-26.78"/><path class="f" d="M922.81,860.48a7.27,7.27,0,0,1,4,4.53,4.77,4.77,0,0,1-1.6,5,6.33,6.33,0,0,1-4.26.44c-12.22-1.43-24.93-2.29-35.07,5-7.87,5.67-13.85,16-22.75,18.58a7.6,7.6,0,0,1-9.08-3.63c-9.6-16.91,5.26-29.22,12.43-31.87,17.93-6.64,37-8.89,56.36,1.92"/><path class="f" d="M1130,1654.66c1.5-1.14,3.44-2.31,5.81-1.75a5,5,0,0,1,3.8,4c.18,1.61-.65,3-1.45,4.44-6.63,11.43-12.94,23.63-10.8,37.22,1.65,10.54,8.38,21.51,6.76,31.55-.54,3.41-2.67,6.95-7.24,7.26-19.39,1.38-24-19.28-23.22-27.72,1.86-21,8.16-41,26.34-55"/><path class="f" d="M2371.74,1345.28c1.39,2.2,2.79,5,1.72,8.21a7,7,0,0,1-6.05,4.78c-2.26,0-4.14-1.29-6-2.55-14.95-10.56-31-20.79-50-19.52-14.75,1-30.72,8.93-44.39,5.45-4.63-1.16-9.25-4.54-9.14-10.86.47-27,29.59-30.72,41.13-28.66,28.76,5.16,55.58,16.3,72.73,43.15"/><path class="f" d="M2185.3,598.35c1.77.67,3.8,1.7,4.56,4a5,5,0,0,1-1.41,5.37,7.38,7.38,0,0,1-4.54,1.1c-13.22.43-26.91,1.5-37.31,10.48-8.09,7-13.85,18.47-23.24,22.42-3.17,1.33-7.31,1.4-10-2.3-11.43-15.75,3.73-30.56,11.27-34.38,18.82-9.51,39.11-14.73,60.65-6.69"/><path class="f" d="M1980.81,1628.08a6.61,6.61,0,0,1,3,4.56c.3,2.18-.5,4.31-1.57,5.13s-2.28.66-3.46.52c-9.8-1.34-20-2.06-28.59,5.5-6.64,5.86-12,16.52-19.34,19.18-2.47.92-5.53.42-7.13-3.58-6.92-17.11,5.7-29.81,11.66-32.61,14.81-7,30.31-9.5,45.45,1.3"/><path class="f" d="M762.47,1296a7.27,7.27,0,0,1,3.95,4.53,4.78,4.78,0,0,1-1.6,5,6.4,6.4,0,0,1-4.26.46c-12.23-1.44-24.93-2.31-35.06,5-7.87,5.67-13.86,16-22.77,18.58a7.58,7.58,0,0,1-9.07-3.63c-9.59-16.9,5.26-29.21,12.45-31.87,17.91-6.64,36.95-8.89,56.36,1.92"/><path class="f" d="M1561.47,395.05a6.11,6.11,0,0,1,3.32,3.8,4,4,0,0,1-1.36,4.21,5.32,5.32,0,0,1-3.56.37c-10.23-1.21-20.87-1.92-29.37,4.19-6.59,4.75-11.61,13.45-19.07,15.56a6.35,6.35,0,0,1-7.61-3c-8-14.16,4.41-24.48,10.44-26.71,15-5.57,31-7.44,47.21,1.61"/><path class="f" d="M1110.38,472a6.91,6.91,0,0,1,5.19,2.23,4.5,4.5,0,0,1,.67,4.92,6,6,0,0,1-3.42,2.1c-11,3.71-22.07,8.12-27.71,18.39-4.39,8-5.29,19.19-11.82,24.93a7.11,7.11,0,0,1-9.16.58c-15-10.46-7.32-26.89-2.31-32.05,12.53-12.86,27.75-22.44,48.56-21.1"/></svg>