<svg xmlns="http://www.w3.org/2000/svg" viewBox="0 0 300 100"><defs><style>.a{fill:#fd0;stroke:#2c1e41;stroke-miterlimit:10;stroke-width:5px;}.b,.c{fill:#573c81;stroke:#231f20;stroke-linejoin:round;}.b{stroke-width:1.5px;}.c{stroke-width:0.5px;}</style></defs><rect class="a" x="2.5" y="2.5" width="295" height="95" rx="19.01"/><path class="b" d="M38.89,69.59A56.38,56.38,0,0,1,33,69.17V63.29c0-7.74.72-15.3.72-23a6.52,6.52,0,0,0-.06-1.08c-.78-.18-1.26,3.3-2.58,3.3-.72,0-7.26-1.5-7.26-2.22.24-2.7,6.78-12.9,7.26-13.38,1.86-.06,3.6-.12,5.46-.12,2.1,0,4.14.06,6.3.24.24,3.42.3,6.72.3,10.08,0,9.18-.66,18.06-.66,27.24,0,1.38,0,2.82.06,4.2C42.55,69.47,40.39,69.59,38.89,69.59Z"/><path class="c" d="M70.89,23.37a14.28,14.28,0,0,0-2.93,0h-.07s0,.05,0,.07c-.09.46-.07,2.21.12,12.7v0c-1.17.19-2.78,0-3.93.17-.08-.29.21-3.84-.17-12.8l0,0c-.74-.38-2.49-.17-2.88-.29a16.46,16.46,0,0,1-.09-3.77s0,0,0-.05A90.25,90.25,0,0,1,71,19.65,20.3,20.3,0,0,1,70.89,23.37Z"/><path class="c" d="M80.65,36.31v0a8.71,8.71,0,0,1-3.21-.09h0c-.38-1-.69-3-1.12-3.92a6.24,6.24,0,0,0-1.49,0c-.43,1-.51,3-1.06,4l-.07,0c-.26.07-1.18,0-3.36,0,0,0,0,0,0,0a158.76,158.76,0,0,1,3.67-16.75c.46-.07.84.07,3-.12l2,8.5Zm-6-6.84c.55,0,1.18,0,1.78,0C75.45,21.19,75.3,24.55,74.63,29.47Z"/><path class="c" d="M92.2,24.57a4.29,4.29,0,0,1,0,.63A5.8,5.8,0,0,1,85.62,30c.07.89,0,1.37.1,6v0l-.07,0a14.76,14.76,0,0,1-4,.1c-.19-4.66,0-11.21-.17-16.54,4-1,10.44-.55,10.73,4.9ZM85.05,23A.12.12,0,0,0,85,23a18,18,0,0,0,.22,3.6h.07c1-.07,2.4.07,3.17-.69A1.67,1.67,0,0,0,88,23.54,3.34,3.34,0,0,0,85.05,23Z"/><path class="c" d="M106.62,23.37a14.27,14.27,0,0,0-2.93,0h-.07s0,.05,0,.07c-.1.46-.07,2.21.12,12.7v0c-1.18.19-2.79,0-3.94.17-.07-.29.22-3.84-.17-12.8l0,0c-.75-.38-2.5-.17-2.88-.29a16.26,16.26,0,0,1-.1-3.77s0,0,0-.05a90.3,90.3,0,0,1,10.13.22A19.47,19.47,0,0,1,106.62,23.37Z"/><path class="c" d="M117.85,23.61A17.2,17.2,0,0,1,117.9,26c-.09,1.7,0,3.26-.12,4.92l-.07.79a7.19,7.19,0,0,1-.91,3.24,4.29,4.29,0,0,1-2.47,1.46,7.21,7.21,0,0,1-2.74.24c-1.32-.12-2.59-.4-3.17-1.68a5.55,5.55,0,0,1-.58-2.66c-.09-2.5-.28-5-.12-7.54a6.29,6.29,0,0,1,1.28-4.1,2.14,2.14,0,0,1,.55-.43,7,7,0,0,1,6.94.43,3.56,3.56,0,0,1,1,1.46A5.27,5.27,0,0,1,117.85,23.61Zm-3,2.74s-.07-.82-.09-1.37a2.41,2.41,0,0,0-1.25-2,1.93,1.93,0,0,0-1.87.34,3.11,3.11,0,0,0-1.13,1.65,15.5,15.5,0,0,0-.22,3.94,26,26,0,0,0,.46,3.38,2.28,2.28,0,0,0,3.62.31c.6-.79.36-.79.48-2.18,0-.65.05-1.18.05-1.25V28Z"/><path class="c" d="M133.19,19.24c-.07,3,.17,6.1.1,9.2-.13,2.61.19,6.4-2.79,7.51a7.06,7.06,0,0,1-4.49.38c-2.61-.77-3.05-4.46-2.93-6.91a12.29,12.29,0,0,1,3.72,0v.14c.08,1,.29,2.67,1.45,2.74.95.19,1.39-.75,1.46-1.68-.07-3.58-.14-7.39,0-11.21v-.17Z"/><path class="c" d="M145.07,32.71a4.26,4.26,0,0,1-3.94,4c-2.71.26-6-.91-6.14-3.87,0-4.22.17-8.54.09-12.76l0,0h0a14.75,14.75,0,0,1,3.39.12v0a95,95,0,0,0,.22,11.78,1.53,1.53,0,0,0,2.95-.12c.17-3.84.12-7.9.21-11.62.89-.07,2.74-.38,3.51.07A79.6,79.6,0,0,1,145.07,32.71Z"/><path class="c" d="M157.16,36.36a28.15,28.15,0,0,0-3.16,0c-.12-2.73,0-6.65-.34-9.33-.41.64-1.25,3.5-1.51,3.5-.48,0-1.47-3.38-1.49-3.34a61.41,61.41,0,0,0,.07,9.1,22.18,22.18,0,0,1-3.36.07s-.05,0-.07-.07c-.12-.43-.12-3.36,0-16.39a17.12,17.12,0,0,1,3.26-.12h0c.6.67,1.08,2.88,1.59,3.62a.19.19,0,0,0,.14.07c.19.08.84-3,1.42-3.74.45.07,2.54-.1,3.55-.1-.12,3.08.15,6,0,9.1Z"/><path class="c" d="M169.86,24.57c0,.22,0,.43,0,.63A5.81,5.81,0,0,1,163.29,30c.07.89,0,1.37.09,6v0l-.07,0a14.76,14.76,0,0,1-4,.1c-.19-4.66,0-11.21-.17-16.54,4-1,10.44-.55,10.73,4.9ZM162.71,23a.08.08,0,0,0-.07,0,17.32,17.32,0,0,0,.21,3.6h.07c1-.07,2.41.07,3.17-.69a1.67,1.67,0,0,0-.43-2.38A3.34,3.34,0,0,0,162.71,23Z"/><path class="c" d="M185.34,23.61a21,21,0,0,1,0,2.38c-.1,1.7,0,3.26-.12,4.92l-.07.79a7.31,7.31,0,0,1-.91,3.24,4.32,4.32,0,0,1-2.48,1.46,7.18,7.18,0,0,1-2.73.24c-1.32-.12-2.6-.4-3.17-1.68a5.55,5.55,0,0,1-.58-2.66,72.87,72.87,0,0,1-.12-7.54,6.33,6.33,0,0,1,1.27-4.1,2.38,2.38,0,0,1,.56-.43,7,7,0,0,1,6.93.43,3.59,3.59,0,0,1,1,1.46A5.63,5.63,0,0,1,185.34,23.61Zm-3,2.74s-.07-.82-.09-1.37a2.43,2.43,0,0,0-1.25-2,2,2,0,0,0-1.88.34A3.15,3.15,0,0,0,178,24.93a15.05,15.05,0,0,0-.22,3.94,24.36,24.36,0,0,0,.46,3.38,2.28,2.28,0,0,0,3.62.31c.6-.79.36-.79.48-2.18,0-.65,0-1.18,0-1.25V28Z"/><path class="c" d="M192.59,36.31c-.27,0-.84.09-1.51.09a7.19,7.19,0,0,1-2-.19A87.29,87.29,0,0,1,186.28,20v0c.36-.43,2.9-.36,3.4-.24.24,1.25,0,6.08,1.28,11.26,1.22-5.18,1.41-8.54,2.11-11.23a0,0,0,0,1,.05-.05c1.08.24,2.35,0,3.45.21C195.49,25.6,194.12,30.74,192.59,36.31Z"/><path class="c" d="M207.56,33.12a9.39,9.39,0,0,1-.19,3.14c-3.26,0-6.74.22-9.84,0,0-5.57-.29-10.92,0-16.42,3.72-.19,9.93-.28,9.93-.14a22.83,22.83,0,0,1,0,3.41v0c-2,.46-4.17.1-6.29.29h-.07l0,0a13.75,13.75,0,0,0,0,2.8l0,0c1,.07,2,.05,3,.07v0a26.3,26.3,0,0,1,0,3.34c-1,.26-2.57,0-2.91.26a12.52,12.52,0,0,0,0,3l0,0c2.11,0,4.1.19,6.28.12Z"/><path class="c" d="M220.4,36.26c-1.12,0-2.54.14-4,.05h0a29,29,0,0,0-3.34-6l-.05-.07a43.36,43.36,0,0,0,.12,5.86c-1.08.45-3.86.19-4.18.26.2,0,.08-15.17-.16-16.77a23.89,23.89,0,0,1,6.31-.34,5.14,5.14,0,0,1,4.25,7.68A3.64,3.64,0,0,1,216.23,29h-.12v0c1.34,2.38,3.31,4.61,4.27,7.25Zm-8-10.39h0a10.31,10.31,0,0,0,2.42,0c1.22-.27,1.32-2.19.43-2.88-.69-.65-1.87-.53-3-.07C212.36,23.73,212.29,25.15,212.41,25.87Z"/><path class="c" d="M234.78,23.37a14.28,14.28,0,0,0-2.93,0h-.07s0,.05,0,.07c-.09.46-.07,2.21.12,12.7v0c-1.17.19-2.78,0-3.93.17-.07-.29.22-3.84-.17-12.8l0,0c-.75-.38-2.5-.17-2.88-.29a16.26,16.26,0,0,1-.1-3.77s0,0,0-.05a90.07,90.07,0,0,1,10.12.22A18.67,18.67,0,0,1,234.78,23.37Z"/><path class="c" d="M246.4,36.19c-1.11.19-2.57.07-3.36.14h0c-.31-2.13-.1-4.56-.36-6.62l0,0a7.09,7.09,0,0,0-2.79.05c-.19,2.21.17,4.42-.14,6.43-.79.46-2.69-.16-3.27.15-.19-2.71-.43-11.83-.33-16.73v0h.07c1,.19,2.14-.2,3.05.07.29,2.21.12,4.27.5,6.31h0a8.65,8.65,0,0,0,2.59,0h0a46.6,46.6,0,0,0,.1-6.27,10.43,10.43,0,0,1,3.29-.26Z"/><path class="c" d="M258.23,33.12a10,10,0,0,1-.19,3.14c-3.27,0-6.75.22-9.85,0,0-5.57-.28-10.92,0-16.42,3.72-.19,9.94-.28,9.94-.14a24.26,24.26,0,0,1,0,3.41v0c-2,.46-4.18.1-6.29.29h-.08l0,0a13.75,13.75,0,0,0,0,2.8l0,0c1,.07,2,.05,3,.07v0a26.3,26.3,0,0,1,0,3.34c-1,.26-2.57,0-2.91.26a13.06,13.06,0,0,0,0,3l0,0c2.11,0,4.1.19,6.29.12Z"/><path class="c" d="M71.49,47.61a18.91,18.91,0,0,1,0,2.38c-.09,1.7,0,3.26-.12,4.92l-.07.79a7.06,7.06,0,0,1-.91,3.24A4.29,4.29,0,0,1,68,60.4a7.21,7.21,0,0,1-2.74.24c-1.32-.12-2.59-.4-3.17-1.68a5.54,5.54,0,0,1-.57-2.66,70.18,70.18,0,0,1-.12-7.54,6.28,6.28,0,0,1,1.27-4.1,2.55,2.55,0,0,1,.55-.43,7,7,0,0,1,6.94.43,3.56,3.56,0,0,1,1,1.46A5.65,5.65,0,0,1,71.49,47.61Zm-3,2.74s-.08-.82-.1-1.37a2.39,2.39,0,0,0-1.25-2,1.93,1.93,0,0,0-1.87.34,3.16,3.16,0,0,0-1.13,1.65,15.06,15.06,0,0,0-.21,3.94,24.36,24.36,0,0,0,.45,3.38,2.29,2.29,0,0,0,3.63.31c.6-.79.36-.79.48-2.18,0-.65,0-1.18,0-1.25V52Z"/><path class="c" d="M83.32,56.85c-.77,4.54-6,3.53-9.53,3.43a1.33,1.33,0,0,1-.53,0c-.19-5.55,0-11-.07-16.52l0,0c3.84-1.06,9.53-.94,9.53,4.44a7.56,7.56,0,0,1-1.17,3.74c-.12.22,0,.32.12.51C82.69,53.64,83.7,54.79,83.32,56.85ZM79.5,54.6a1.66,1.66,0,0,0-1-.82,11.86,11.86,0,0,0-1.87-.19c-.24.93-.46,2.59.07,3.36l0,0c.89,0,2.06.17,2.71-.6A1.9,1.9,0,0,0,79.5,54.6Zm.12-6.51a1.69,1.69,0,0,0-1.17-.89,3.17,3.17,0,0,0-1.92.08,14,14,0,0,0,.09,3c1,.12,2.28.24,2.79-.72A1.52,1.52,0,0,0,79.62,48.09Z"/><path class="c" d="M94.74,49a8.73,8.73,0,0,1-3.6,0c.39-1.75-2.73-2.4-3-.6a1.58,1.58,0,0,0,0,.65,1.63,1.63,0,0,0,1.56,1,5.82,5.82,0,0,1,4.15,2.52,5,5,0,0,1,.39,5.16,4.54,4.54,0,0,1-4.63,2.76c-2.81-.07-5.86-1.87-5.67-4.92v-.14a32.19,32.19,0,0,1,3.67,0c.12,2,3.63,2.09,3.24-.14-.19-1.54-2.08-1.75-3.43-2a3.54,3.54,0,0,1-1.63-.81,5.13,5.13,0,0,1,1.58-8.45,7.34,7.34,0,0,1,5.33.26A4.08,4.08,0,0,1,94.77,49Z"/><path class="c" d="M105.57,47.37a14.28,14.28,0,0,0-2.93,0h-.07s0,.05,0,.07c-.09.46-.07,2.21.12,12.7v0c-1.17.19-2.78,0-3.94.17-.07-.29.22-3.84-.16-12.8l0,0c-.74-.38-2.49-.17-2.88-.29a16.46,16.46,0,0,1-.09-3.77s0,0,0,0a90.25,90.25,0,0,1,10.13.22A20.3,20.3,0,0,1,105.57,47.37Z"/><path class="c" d="M115.33,60.31v0a8.71,8.71,0,0,1-3.21-.09h0c-.38-1-.69-3-1.13-3.92a6.16,6.16,0,0,0-1.48,0c-.44,1-.51,3-1.06,4l-.07,0c-.27.07-1.18,0-3.36,0,0,0,0,0,0,0a158.76,158.76,0,0,1,3.67-16.75c.46-.07.84.07,3-.12l2,8.5Zm-6-6.84c.55,0,1.18,0,1.77,0C110.12,45.19,110,48.55,109.31,53.47Z"/><path class="c" d="M119.53,47.64a46.89,46.89,0,0,0-.09,6.84,2.29,2.29,0,0,0,1.36,2.2,1.62,1.62,0,0,0,1.71-.84c.36-.74.14-1.58.31-2.37a24.86,24.86,0,0,1,3.22.14,5.26,5.26,0,0,1-4.68,7c-2.28.31-5.19-.51-5.45-3.2-.12-2.3-.15-4.77-.07-10a3.21,3.21,0,0,1,.26-1.6,5,5,0,0,1,1.32-2.09,3.49,3.49,0,0,1,1.22-.56c4.4-1.44,9,2.6,7.42,7a8.63,8.63,0,0,1-3.5-.1c-.19-1.27.19-3.26-1.68-3.19a2.37,2.37,0,0,0-1.2.38A.93.93,0,0,0,119.53,47.64Z"/><path class="c" d="M137.1,60.33c-.67-.07-1.75.15-9.48,0v-.44c.29-7.2.17-9.72.07-16.46a7.72,7.72,0,0,1,3.84.07c-.12,4.15.1,8.86,0,13v0c.62-.19,5.44.24,6.21.14a4.7,4.7,0,0,1,0,.53,6.06,6.06,0,0,0,0,.94C137.84,60.45,137.77,60.33,137.1,60.33Z"/><path class="c" d="M148.93,57.12a9.39,9.39,0,0,1-.19,3.14c-3.26,0-6.74.22-9.84,0,0-5.57-.29-10.92,0-16.42,3.72-.19,9.94-.28,9.94-.14a22.83,22.83,0,0,1,0,3.41v0c-2,.46-4.17.1-6.29.29h-.07l0,0a13.75,13.75,0,0,0,0,2.8l0,0c1,.07,2,.05,2.95.07v0a26.3,26.3,0,0,1,.05,3.34c-1,.26-2.57,0-2.91.26a12.52,12.52,0,0,0,0,3l0,0c2.12,0,4.11.19,6.29.12Z"/><path class="c" d="M160.45,49a8.73,8.73,0,0,1-3.6,0c.39-1.75-2.73-2.4-3-.6a1.58,1.58,0,0,0,0,.65,1.63,1.63,0,0,0,1.56,1,5.82,5.82,0,0,1,4.15,2.52,5,5,0,0,1,.39,5.16,4.54,4.54,0,0,1-4.63,2.76c-2.81-.07-5.86-1.87-5.67-4.92v-.14a32.19,32.19,0,0,1,3.67,0c.12,2,3.63,2.09,3.24-.14-.19-1.54-2.08-1.75-3.43-2a3.54,3.54,0,0,1-1.63-.81,5.13,5.13,0,0,1,1.58-8.45,7.34,7.34,0,0,1,5.33.26A4.08,4.08,0,0,1,160.48,49Z"/><path class="c" d="M164.32,61.8l-.2.93a12.72,12.72,0,0,0-1.65,0c-.1-.09.36-1.46.48-2.32l-1.13-.1a.08.08,0,0,1-.07,0c0-.08,0-.15.09-2.76v0h0a8.22,8.22,0,0,1,2.88,0h0l-.09,2.76h-.05s0,0,0,.07-.07.36-.09.53Z"/><path class="c" d="M181.19,49.05a5.29,5.29,0,0,1,.21,1.51,30.73,30.73,0,0,1-.33,4.52s0,0,0,0a16.92,16.92,0,0,1-3,5.09c-2.12.07-4.3.07-6.32.07l0,0c-.7-5.07-.27-10.9-.39-16.47l.08-.09c1.82-.46,3.93-.17,5.78-.24a4.66,4.66,0,0,1,2.62,2A11,11,0,0,1,181.19,49.05Zm-3.07,2.19c-.2-1-.48-2.19-1.56-2.57a5.79,5.79,0,0,0-1.81,0h-.07v.1c.12,1.73-.07,4.05,0,6.21.36.32,1.06.22,1.63.15.17,0,.27-.07.43-.15a2.47,2.47,0,0,0,.75-.76A3.78,3.78,0,0,0,178.12,51.24Z"/><path class="c" d="M192.76,47.61a18.91,18.91,0,0,1,0,2.38c-.09,1.7,0,3.26-.12,4.92l-.07.79a7.06,7.06,0,0,1-.91,3.24,4.29,4.29,0,0,1-2.47,1.46,7.21,7.21,0,0,1-2.74.24c-1.32-.12-2.59-.4-3.17-1.68a5.54,5.54,0,0,1-.57-2.66,70.18,70.18,0,0,1-.12-7.54,6.22,6.22,0,0,1,1.27-4.1,2.55,2.55,0,0,1,.55-.43,7,7,0,0,1,6.94.43,3.56,3.56,0,0,1,1,1.46A5.65,5.65,0,0,1,192.76,47.61Zm-3,2.74s-.08-.82-.1-1.37a2.39,2.39,0,0,0-1.25-2,1.93,1.93,0,0,0-1.87.34,3.16,3.16,0,0,0-1.13,1.65,15.06,15.06,0,0,0-.21,3.94,24.36,24.36,0,0,0,.45,3.38,2.29,2.29,0,0,0,3.63.31c.6-.79.36-.79.48-2.18,0-.65,0-1.18,0-1.25V52Z"/><path class="c" d="M204.44,56.71a4.25,4.25,0,0,1-3.93,4c-2.72.26-6-.91-6.15-3.87,0-4.22.17-8.54.1-12.76l0,0h0a14.68,14.68,0,0,1,3.38.12v0a97,97,0,0,0,.22,11.78,1.53,1.53,0,0,0,2.95-.12c.17-3.84.12-7.9.22-11.62.89-.07,2.73-.38,3.5.07A79.6,79.6,0,0,1,204.44,56.71Z"/><path class="c" d="M216.71,56.85c-.77,4.54-6.05,3.53-9.53,3.43a1.33,1.33,0,0,1-.53,0c-.19-5.55,0-11-.07-16.52l0,0c3.84-1.06,9.53-.94,9.53,4.44A7.47,7.47,0,0,1,215,51.88c-.12.22,0,.32.13.51C216.08,53.64,217.09,54.79,216.71,56.85Zm-3.82-2.25a1.66,1.66,0,0,0-1-.82,11.86,11.86,0,0,0-1.87-.19c-.24.93-.46,2.59.07,3.36l.05,0c.88,0,2.06.17,2.71-.6A1.9,1.9,0,0,0,212.89,54.6Zm.12-6.51a1.69,1.69,0,0,0-1.18-.89,3.17,3.17,0,0,0-1.92.08,14.85,14.85,0,0,0,.1,3c1,.12,2.28.24,2.78-.72A1.52,1.52,0,0,0,213,48.09Z"/><path class="c" d="M227.39,60.33c-.68-.07-1.76.15-9.48,0v-.44c.28-7.2.16-9.72.07-16.46a7.72,7.72,0,0,1,3.84.07c-.12,4.15.09,8.86,0,13v0c.63-.19,5.45.24,6.22.14a4.7,4.7,0,0,1,0,.53,6.06,6.06,0,0,0,0,.94C228.13,60.45,228.06,60.33,227.39,60.33Z"/><path class="c" d="M239.22,57.12a10,10,0,0,1-.19,3.14c-3.27,0-6.75.22-9.84,0,0-5.57-.29-10.92,0-16.42,3.72-.19,9.94-.28,9.94-.14a24.26,24.26,0,0,1,0,3.41v0c-2,.46-4.18.1-6.29.29h-.07l0,0a13.73,13.73,0,0,0,0,2.8l0,0c1,.07,2,.05,2.95.07v0a24.57,24.57,0,0,1,.05,3.34c-1,.26-2.57,0-2.9.26a12,12,0,0,0,0,3l0,0c2.11,0,4.1.19,6.29.12Z"/><path class="c" d="M254.27,47.37a14.28,14.28,0,0,0-2.93,0h-.07s0,.05,0,.07c-.09.46-.07,2.21.12,12.7v0c-1.17.19-2.78,0-3.93.17-.08-.29.21-3.84-.17-12.8l0,0c-.74-.38-2.49-.17-2.88-.29a16.46,16.46,0,0,1-.09-3.77s0,0,0,0a90.25,90.25,0,0,1,10.13.22A20.3,20.3,0,0,1,254.27,47.37Z"/><path class="c" d="M264,60.31v0a8.71,8.71,0,0,1-3.21-.09h0c-.38-1-.69-3-1.12-3.92a6.24,6.24,0,0,0-1.49,0c-.43,1-.51,3-1.06,4l-.07,0c-.26.07-1.18,0-3.36,0,0,0,0,0-.05,0a158.76,158.76,0,0,1,3.67-16.75c.46-.07.84.07,3-.12l2,8.5Zm-6-6.84c.55,0,1.18,0,1.78,0C258.83,45.19,258.68,48.55,258,53.47Z"/><path class="c" d="M275.58,48.57a4.29,4.29,0,0,1,0,.63A5.8,5.8,0,0,1,269,54c.07.89,0,1.37.1,6v0l-.07,0a14.76,14.76,0,0,1-4,.1c-.19-4.66,0-11.21-.17-16.54,4-1,10.44-.55,10.73,4.9ZM268.43,47a.12.12,0,0,0-.08,0,18,18,0,0,0,.22,3.6h.07c1-.07,2.4.07,3.17-.69a1.67,1.67,0,0,0-.43-2.38A3.34,3.34,0,0,0,268.43,47Z"/><path class="c" d="M70.89,71.37a14.28,14.28,0,0,0-2.93,0h-.07s0,0,0,.07c-.09.46-.07,2.21.12,12.7v0c-1.17.19-2.78,0-3.93.17-.08-.29.21-3.84-.17-12.8l0,0c-.74-.38-2.49-.17-2.88-.29a16.46,16.46,0,0,1-.09-3.77s0,0,0,0A90.25,90.25,0,0,1,71,67.65,20.3,20.3,0,0,1,70.89,71.37Z"/><path class="c" d="M82.12,71.61a21,21,0,0,1,0,2.38c-.1,1.7,0,3.26-.12,4.92L82,79.7a7.06,7.06,0,0,1-.91,3.24,4.29,4.29,0,0,1-2.47,1.46,7.21,7.21,0,0,1-2.74.24c-1.32-.12-2.59-.4-3.16-1.68a5.43,5.43,0,0,1-.58-2.66A70.18,70.18,0,0,1,72,72.76a6.28,6.28,0,0,1,1.27-4.1,2.55,2.55,0,0,1,.55-.43,7,7,0,0,1,6.94.43,3.47,3.47,0,0,1,1,1.46A5.29,5.29,0,0,1,82.12,71.61Zm-3,2.74s-.07-.82-.1-1.37a2.39,2.39,0,0,0-1.25-2,1.94,1.94,0,0,0-1.87.34,3.22,3.22,0,0,0-1.13,1.65,15.51,15.51,0,0,0-.21,3.94A26,26,0,0,0,75,80.25a2.29,2.29,0,0,0,3.63.31c.6-.79.36-.79.48-2.18,0-.65,0-1.18,0-1.25V76Z"/><path class="c" d="M97.45,67.24c-.07,3,.17,6.1.1,9.2-.12,2.61.19,6.4-2.78,7.51a7.06,7.06,0,0,1-4.49.38c-2.62-.77-3-4.46-2.93-6.91a12.3,12.3,0,0,1,3.72,0v.14c.07,1,.29,2.67,1.44,2.74,1,.19,1.39-.75,1.46-1.68-.07-3.58-.14-7.39,0-11.21v-.17Z"/><path class="c" d="M109.33,80.71a4.25,4.25,0,0,1-3.93,4c-2.71.26-6-.91-6.15-3.87,0-4.22.17-8.54.1-12.76l0,0h0a14.68,14.68,0,0,1,3.38.12v0A99,99,0,0,0,103,79.94a1.53,1.53,0,0,0,3-.12c.17-3.84.12-7.9.22-11.62.89-.07,2.73-.38,3.5.07A79.6,79.6,0,0,1,109.33,80.71Z"/><path class="c" d="M121.43,84.36a28.31,28.31,0,0,0-3.17,0c-.12-2.73,0-6.65-.34-9.33-.4.64-1.24,3.5-1.51,3.5-.48,0-1.46-3.38-1.49-3.34a60.08,60.08,0,0,0,.08,9.1,22.21,22.21,0,0,1-3.36.07s0,0-.08-.07c-.12-.43-.12-3.36,0-16.39a17.16,17.16,0,0,1,3.26-.12h0c.6.67,1.08,2.88,1.58,3.62a.21.21,0,0,0,.15.07c.19.08.84-3,1.41-3.74.46.07,2.55-.1,3.56-.1-.12,3.08.14,6,0,9.1Z"/><path class="c" d="M134.13,72.57a4.29,4.29,0,0,1,0,.63A5.8,5.8,0,0,1,127.55,78c.07.89,0,1.37.09,6v0l-.07,0a14.76,14.76,0,0,1-4,.1c-.19-4.66,0-11.21-.16-16.54,4-1.05,10.44-.55,10.73,4.9ZM127,71a.1.1,0,0,0-.07,0,16.63,16.63,0,0,0,.22,3.6h.07c1-.07,2.4.07,3.17-.69a1.66,1.66,0,0,0-.44-2.38A3.34,3.34,0,0,0,127,71Z"/><path class="c" d="M150,84.19c-1.11.19-2.57.07-3.36.14h0c-.31-2.13-.09-4.56-.35-6.62l0,0a7,7,0,0,0-2.78,0c-.2,2.21.16,4.42-.15,6.43-.79.46-2.69-.16-3.26.15-.19-2.71-.43-11.83-.34-16.73v0h.07c1,.19,2.14-.2,3.05.07.29,2.21.12,4.27.51,6.31h0a8.65,8.65,0,0,0,2.59,0h0a45,45,0,0,0,.09-6.27,10.43,10.43,0,0,1,3.29-.26Z"/><path class="c" d="M156,67.46v.1c0,5.49-.34,11.2,0,16.65-.53.53-3.69,0-4.37.22.46-5.79-.38-11.67.2-17v0c.16,0,.76,0,1,0,.58,0,1.2.09,2.64.07Z"/><path class="c" d="M167.7,75.88h.05l0,0a19.68,19.68,0,0,1,0,5.42,3.15,3.15,0,0,1-2.28,2.86c-1.58.45-3.55.81-5.09.17a3.87,3.87,0,0,1-2.25-2.84,12.11,12.11,0,0,1-.29-1.68,36.7,36.7,0,0,1-.24-5.49,22.38,22.38,0,0,1,.24-3.15,3.86,3.86,0,0,1,1.42-2.76,4.36,4.36,0,0,1,2.32-.88c3.58-.46,6.6,1.31,6.15,5.23l0,.14c-.07.1-.26.07-.76.1A14.3,14.3,0,0,1,164.7,73c-.19-.65-.7-2-1.63-2-.55,0-1.08-.12-1.47.27a2.13,2.13,0,0,0-.26.65,22.93,22.93,0,0,0-.36,6.91,3.13,3.13,0,0,0,.79,2.13,1.71,1.71,0,0,0,.55.22,3.17,3.17,0,0,0,1.49-.22,1.22,1.22,0,0,0,.75-.86c.07-.26.21-1.37,0-1.44-.38-.07-1.46.07-1.78-.05-.12-1,0-1.41-.09-2.52v0s0,0,0,0a.08.08,0,0,0,.05,0C163.6,75.48,167.05,75.88,167.7,75.88Z"/><path class="c" d="M179.75,84.19c-1.11.19-2.57.07-3.36.14h0c-.31-2.13-.09-4.56-.36-6.62l0,0a7,7,0,0,0-2.78,0c-.2,2.21.16,4.42-.15,6.43-.79.46-2.69-.16-3.26.15-.19-2.71-.43-11.83-.34-16.73v0h.07c1,.19,2.14-.2,3,.07.29,2.21.12,4.27.51,6.31h0a8.65,8.65,0,0,0,2.59,0h0a45,45,0,0,0,.09-6.27,10.43,10.43,0,0,1,3.29-.26Z"/><path class="c" d="M191.58,81.12a10,10,0,0,1-.19,3.14c-3.27,0-6.75.22-9.84-.05,0-5.57-.29-10.92,0-16.42,3.72-.19,9.94-.28,9.94-.14a22.83,22.83,0,0,1,0,3.41v0c-2,.46-4.18.1-6.29.29h-.07l0,0a13.73,13.73,0,0,0,0,2.8l0,0c1,.07,2,0,3,.07v0a24.57,24.57,0,0,1,0,3.34c-1,.26-2.57,0-2.9.26a12.52,12.52,0,0,0,0,3l0,0c2.11,0,4.11.19,6.29.12Z"/><path class="c" d="M204.42,84.26c-1.13,0-2.54.14-4,0h0a29,29,0,0,0-3.33-6l-.05-.07a41.78,41.78,0,0,0,.12,5.86c-1.08.45-3.87.19-4.18.26.19,0,.07-15.17-.17-16.77a24,24,0,0,1,6.32-.34,5.13,5.13,0,0,1,4.24,7.68A3.63,3.63,0,0,1,200.24,77h-.12v0c1.35,2.38,3.32,4.61,4.28,7.25Zm-8-10.39h0a10.39,10.39,0,0,0,2.43,0c1.22-.27,1.32-2.19.43-2.88-.7-.65-1.87-.53-3-.07C196.38,71.73,196.31,73.15,196.43,73.87Z"/><path class="c" d="M205.33,84.31h-.07a22.06,22.06,0,0,1,0-2.79,6.67,6.67,0,0,1,3,0s-.15,2.35-.15,2.8v0H208Z"/></svg>