<?xml version="1.0" encoding="utf-8"?>
<!-- Generator: Adobe Illustrator 27.8.1, SVG Export Plug-In . SVG Version: 6.00 Build 0)  -->
<svg version="1.1" id="Layer_1" xmlns="http://www.w3.org/2000/svg" xmlns:xlink="http://www.w3.org/1999/xlink" x="0px" y="0px"
	 viewBox="0 0 1147 1147" style="enable-background:new 0 0 1147 1147;" xml:space="preserve">
<style type="text/css">
	.st0{fill:#0C1C49;}
	.st1{fill:none;}
</style>
<g transform="translate(62,62)">
	<g transform="translate(434,0) scale(0.062,0.062)">
		<g transform="">
			<path class="st0" d="M250,0c58.3,0,250,0,250,0s0,170.2,0,250c0,62.3,0,250,0,250s-174.2,0-250,0C111.9,500,0,388,0,250
				C0,112,111.9,0,250,0z"/>
		</g>
	</g>
	<g transform="translate(465,0) scale(0.062,0.062)">
		<g transform="">
			<g>
				<path class="st0" d="M0,0v500h500C500,223.9,276.1,0,0,0z"/>
			</g>
		</g>
	</g>
	<g transform="translate(558,0) scale(0.062,0.062)">
		<g transform="">
			<path class="st0" d="M250,0c58.3,0,250,0,250,0s0,170.2,0,250c0,62.3,0,250,0,250s-174.2,0-250,0C111.9,500,0,388,0,250
				C0,112,111.9,0,250,0z"/>
		</g>
	</g>
	<g transform="translate(589,0) scale(0.062,0.062)">
		<g transform="">
			<path class="st0" d="M250,500c-58.3,0-250,0-250,0s0-170.2,0-250C0,187.7,0,0,0,0s174.3,0,250,0c138.1,0,250,111.9,250,250
				C500,388.1,388.1,500,250,500z"/>
		</g>
	</g>
	<g transform="translate(651,0) scale(0.062,0.062)">
		<g transform="">
			<path class="st0" d="M250,0c58.3,0,250,0,250,0s0,170.2,0,250c0,62.3,0,250,0,250s-174.2,0-250,0C111.9,500,0,388,0,250
				C0,112,111.9,0,250,0z"/>
		</g>
	</g>
	<g transform="translate(682,0) scale(0.31,0.31)">
		<g transform="">
			<rect x="0" y="0" class="st0" width="100" height="100"/>
		</g>
	</g>
	<g transform="translate(713,0) scale(0.062,0.062)">
		<g transform="">
			<g>
				<path class="st0" d="M0,0v500h500C500,223.9,276.1,0,0,0z"/>
			</g>
		</g>
	</g>
	<g transform="translate(279,31) scale(0.062,0.062)">
		<g transform="">
			<g>
				<path class="st0" d="M0,500h500V0C223.9,0,0,223.9,0,500z"/>
			</g>
		</g>
	</g>
	<g transform="translate(310,31) scale(0.062,0.062)">
		<g transform="">
			<g>
				<path class="st0" d="M0,0v500h500C500,223.9,276.1,0,0,0z"/>
			</g>
		</g>
	</g>
	<g transform="translate(372,31) scale(0.062,0.062)">
		<g transform="">
			<path class="st0" d="M500,250c0,58.3,0,250,0,250s-170.2,0-250,0c-62.3,0-250,0-250,0s0-174.2,0-250C0,111.9,111.9,0,250,0
				C388.1,0,500,111.9,500,250z"/>
		</g>
	</g>
	<g transform="translate(465,31) scale(0.062,0.062)">
		<g transform="">
			<path class="st0" d="M0,250C0,191.7,0,0,0,0s170.2,0,250,0c62.3,0,250,0,250,0s0,174.3,0,250c0,138.1-111.9,250-250,250
				C111.9,500,0,388.1,0,250z"/>
		</g>
	</g>
	<g transform="translate(527,31) scale(0.062,0.062)">
		<g transform="">
			<path class="st0" d="M500,250c0,58.3,0,250,0,250s-170.2,0-250,0c-62.3,0-250,0-250,0s0-174.2,0-250C0,111.9,111.9,0,250,0
				C388.1,0,500,111.9,500,250z"/>
		</g>
	</g>
	<g transform="translate(620,31) scale(0.062,0.062)">
		<g transform="">
			<path class="st0" d="M250,0c138.1,0,250,111.9,250,250c0,138.1-111.9,250-250,250C111.9,500,0,388.1,0,250C0,111.9,111.9,0,250,0
				z"/>
		</g>
	</g>
	<g transform="translate(713,31) scale(0.31,0.31)">
		<g transform="">
			<rect x="0" y="0" class="st0" width="100" height="100"/>
		</g>
	</g>
	<g transform="translate(744,31) scale(0.062,0.062)">
		<g transform="">
			<g>
				<path class="st0" d="M0,0v500h500C500,223.9,276.1,0,0,0z"/>
			</g>
		</g>
	</g>
	<g transform="translate(279,62) scale(0.062,0.062)">
		<g transform="">
			<g>
				<path class="st0" d="M500,500V0H0C0,276.1,223.9,500,500,500z"/>
			</g>
		</g>
	</g>
	<g transform="translate(310,62) scale(0.31,0.31)">
		<g transform="">
			<rect x="0" y="0" class="st0" width="100" height="100"/>
		</g>
	</g>
	<g transform="translate(341,62) scale(0.31,0.31)">
		<g transform="">
			<rect x="0" y="0" class="st0" width="100" height="100"/>
		</g>
	</g>
	<g transform="translate(372,62) scale(0.31,0.31)">
		<g transform="">
			<rect x="0" y="0" class="st0" width="100" height="100"/>
		</g>
	</g>
	<g transform="translate(434,62) scale(0.062,0.062)">
		<g transform="">
			<path class="st0" d="M250,0c138.1,0,250,111.9,250,250c0,138.1-111.9,250-250,250C111.9,500,0,388.1,0,250C0,111.9,111.9,0,250,0
				z"/>
		</g>
	</g>
	<g transform="translate(527,62) scale(0.31,0.31)">
		<g transform="">
			<rect x="0" y="0" class="st0" width="100" height="100"/>
		</g>
	</g>
	<g transform="translate(589,62) scale(0.062,0.062)">
		<g transform="">
			<path class="st0" d="M500,250c0,58.3,0,250,0,250s-170.2,0-250,0c-62.3,0-250,0-250,0s0-174.2,0-250C0,111.9,111.9,0,250,0
				C388.1,0,500,111.9,500,250z"/>
		</g>
	</g>
	<g transform="translate(713,62) scale(0.062,0.062)">
		<g transform="">
			<g>
				<path class="st0" d="M500,500V0H0C0,276.1,223.9,500,500,500z"/>
			</g>
		</g>
	</g>
	<g transform="translate(744,62) scale(0.062,0.062)">
		<g transform="">
			<g>
				<path class="st0" d="M500,0H0v500C276.1,500,500,276.1,500,0z"/>
			</g>
		</g>
	</g>
	<g transform="translate(372,93) scale(0.31,0.31)">
		<g transform="">
			<rect x="0" y="0" class="st0" width="100" height="100"/>
		</g>
	</g>
	<g transform="translate(403,93) scale(0.062,0.062)">
		<g transform="">
			<g>
				<path class="st0" d="M0,0v500h500C500,223.9,276.1,0,0,0z"/>
			</g>
		</g>
	</g>
	<g transform="translate(527,93) scale(0.062,0.062)">
		<g transform="">
			<path class="st0" d="M0,250C0,191.7,0,0,0,0s170.2,0,250,0c62.3,0,250,0,250,0s0,174.3,0,250c0,138.1-111.9,250-250,250
				C111.9,500,0,388.1,0,250z"/>
		</g>
	</g>
	<g transform="translate(589,93) scale(0.31,0.31)">
		<g transform="">
			<rect x="0" y="0" class="st0" width="100" height="100"/>
		</g>
	</g>
	<g transform="translate(651,93) scale(0.062,0.062)">
		<g transform="">
			<path class="st0" d="M250,0c138.1,0,250,111.9,250,250c0,138.1-111.9,250-250,250C111.9,500,0,388.1,0,250C0,111.9,111.9,0,250,0
				z"/>
		</g>
	</g>
	<g transform="translate(279,124) scale(0.062,0.062)">
		<g transform="">
			<path class="st0" d="M250,0c58.3,0,250,0,250,0s0,170.2,0,250c0,62.3,0,250,0,250s-174.2,0-250,0C111.9,500,0,388,0,250
				C0,112,111.9,0,250,0z"/>
		</g>
	</g>
	<g transform="translate(310,124) scale(0.31,0.31)">
		<g transform="">
			<rect x="0" y="0" class="st0" width="100" height="100"/>
		</g>
	</g>
	<g transform="translate(341,124) scale(0.31,0.31)">
		<g transform="">
			<rect x="0" y="0" class="st0" width="100" height="100"/>
		</g>
	</g>
	<g transform="translate(372,124) scale(0.31,0.31)">
		<g transform="">
			<rect x="0" y="0" class="st0" width="100" height="100"/>
		</g>
	</g>
	<g transform="translate(403,124) scale(0.062,0.062)">
		<g transform="">
			<g>
				<path class="st0" d="M500,0H0v500C276.1,500,500,276.1,500,0z"/>
			</g>
		</g>
	</g>
	<g transform="translate(496,124) scale(0.062,0.062)">
		<g transform="">
			<path class="st0" d="M250,0c138.1,0,250,111.9,250,250c0,138.1-111.9,250-250,250C111.9,500,0,388.1,0,250C0,111.9,111.9,0,250,0
				z"/>
		</g>
	</g>
	<g transform="translate(589,124) scale(0.062,0.062)">
		<g transform="">
			<path class="st0" d="M0,250C0,191.7,0,0,0,0s170.2,0,250,0c62.3,0,250,0,250,0s0,174.3,0,250c0,138.1-111.9,250-250,250
				C111.9,500,0,388.1,0,250z"/>
		</g>
	</g>
	<g transform="translate(713,124) scale(0.062,0.062)">
		<g transform="">
			<path class="st0" d="M250,0c58.3,0,250,0,250,0s0,170.2,0,250c0,62.3,0,250,0,250s-174.2,0-250,0C111.9,500,0,388,0,250
				C0,112,111.9,0,250,0z"/>
		</g>
	</g>
	<g transform="translate(744,124) scale(0.062,0.062)">
		<g transform="">
			<g>
				<path class="st0" d="M0,0v500h500C500,223.9,276.1,0,0,0z"/>
			</g>
		</g>
	</g>
	<g transform="translate(248,155) scale(0.062,0.062)">
		<g transform="">
			<path class="st0" d="M500,250c0,58.3,0,250,0,250s-170.2,0-250,0c-62.3,0-250,0-250,0s0-174.2,0-250C0,111.9,111.9,0,250,0
				C388.1,0,500,111.9,500,250z"/>
		</g>
	</g>
	<g transform="translate(310,155) scale(0.31,0.31)">
		<g transform="">
			<rect x="0" y="0" class="st0" width="100" height="100"/>
		</g>
	</g>
	<g transform="translate(372,155) scale(0.31,0.31)">
		<g transform="">
			<rect x="0" y="0" class="st0" width="100" height="100"/>
		</g>
	</g>
	<g transform="translate(434,155) scale(0.062,0.062)">
		<g transform="">
			<path class="st0" d="M500,250c0,58.3,0,250,0,250s-170.2,0-250,0c-62.3,0-250,0-250,0s0-174.2,0-250C0,111.9,111.9,0,250,0
				C388.1,0,500,111.9,500,250z"/>
		</g>
	</g>
	<g transform="translate(527,155) scale(0.062,0.062)">
		<g transform="">
			<path class="st0" d="M250,0c138.1,0,250,111.9,250,250c0,138.1-111.9,250-250,250C111.9,500,0,388.1,0,250C0,111.9,111.9,0,250,0
				z"/>
		</g>
	</g>
	<g transform="translate(620,155) scale(0.062,0.062)">
		<g transform="">
			<g>
				<path class="st0" d="M0,500h500V0C223.9,0,0,223.9,0,500z"/>
			</g>
		</g>
	</g>
	<g transform="translate(651,155) scale(0.31,0.31)">
		<g transform="">
			<rect x="0" y="0" class="st0" width="100" height="100"/>
		</g>
	</g>
	<g transform="translate(682,155) scale(0.062,0.062)">
		<g transform="">
			<g>
				<path class="st0" d="M0,0v500h500C500,223.9,276.1,0,0,0z"/>
			</g>
		</g>
	</g>
	<g transform="translate(744,155) scale(0.31,0.31)">
		<g transform="">
			<rect x="0" y="0" class="st0" width="100" height="100"/>
		</g>
	</g>
	<g transform="translate(248,186) scale(0.062,0.062)">
		<g transform="">
			<path class="st0" d="M0,250C0,191.7,0,0,0,0s170.2,0,250,0c62.3,0,250,0,250,0s0,174.3,0,250c0,138.1-111.9,250-250,250
				C111.9,500,0,388.1,0,250z"/>
		</g>
	</g>
	<g transform="translate(310,186) scale(0.062,0.062)">
		<g transform="">
			<path class="st0" d="M0,250C0,191.7,0,0,0,0s170.2,0,250,0c62.3,0,250,0,250,0s0,174.3,0,250c0,138.1-111.9,250-250,250
				C111.9,500,0,388.1,0,250z"/>
		</g>
	</g>
	<g transform="translate(372,186) scale(0.062,0.062)">
		<g transform="">
			<path class="st0" d="M0,250C0,191.7,0,0,0,0s170.2,0,250,0c62.3,0,250,0,250,0s0,174.3,0,250c0,138.1-111.9,250-250,250
				C111.9,500,0,388.1,0,250z"/>
		</g>
	</g>
	<g transform="translate(434,186) scale(0.062,0.062)">
		<g transform="">
			<path class="st0" d="M0,250C0,191.7,0,0,0,0s170.2,0,250,0c62.3,0,250,0,250,0s0,174.3,0,250c0,138.1-111.9,250-250,250
				C111.9,500,0,388.1,0,250z"/>
		</g>
	</g>
	<g transform="translate(496,186) scale(0.062,0.062)">
		<g transform="">
			<path class="st0" d="M250,0c138.1,0,250,111.9,250,250c0,138.1-111.9,250-250,250C111.9,500,0,388.1,0,250C0,111.9,111.9,0,250,0
				z"/>
		</g>
	</g>
	<g transform="translate(558,186) scale(0.062,0.062)">
		<g transform="">
			<path class="st0" d="M500,250c0,58.3,0,250,0,250s-170.2,0-250,0c-62.3,0-250,0-250,0s0-174.2,0-250C0,111.9,111.9,0,250,0
				C388.1,0,500,111.9,500,250z"/>
		</g>
	</g>
	<g transform="translate(620,186) scale(0.31,0.31)">
		<g transform="">
			<rect x="0" y="0" class="st0" width="100" height="100"/>
		</g>
	</g>
	<g transform="translate(682,186) scale(0.062,0.062)">
		<g transform="">
			<path class="st0" d="M0,250C0,191.7,0,0,0,0s170.2,0,250,0c62.3,0,250,0,250,0s0,174.3,0,250c0,138.1-111.9,250-250,250
				C111.9,500,0,388.1,0,250z"/>
		</g>
	</g>
	<g transform="translate(744,186) scale(0.31,0.31)">
		<g transform="">
			<rect x="0" y="0" class="st0" width="100" height="100"/>
		</g>
	</g>
	<g transform="translate(279,217) scale(0.062,0.062)">
		<g transform="">
			<path class="st0" d="M500,250c0,58.3,0,250,0,250s-170.2,0-250,0c-62.3,0-250,0-250,0s0-174.2,0-250C0,111.9,111.9,0,250,0
				C388.1,0,500,111.9,500,250z"/>
		</g>
	</g>
	<g transform="translate(527,217) scale(0.062,0.062)">
		<g transform="">
			<path class="st0" d="M250,0c58.3,0,250,0,250,0s0,170.2,0,250c0,62.3,0,250,0,250s-174.2,0-250,0C111.9,500,0,388,0,250
				C0,112,111.9,0,250,0z"/>
		</g>
	</g>
	<g transform="translate(558,217) scale(0.31,0.31)">
		<g transform="">
			<rect x="0" y="0" class="st0" width="100" height="100"/>
		</g>
	</g>
	<g transform="translate(589,217) scale(0.31,0.31)">
		<g transform="">
			<rect x="0" y="0" class="st0" width="100" height="100"/>
		</g>
	</g>
	<g transform="translate(620,217) scale(0.31,0.31)">
		<g transform="">
			<rect x="0" y="0" class="st0" width="100" height="100"/>
		</g>
	</g>
	<g transform="translate(651,217) scale(0.062,0.062)">
		<g transform="">
			<g>
				<path class="st0" d="M0,0v500h500C500,223.9,276.1,0,0,0z"/>
			</g>
		</g>
	</g>
	<g transform="translate(713,217) scale(0.062,0.062)">
		<g transform="">
			<path class="st0" d="M250,0c58.3,0,250,0,250,0s0,170.2,0,250c0,62.3,0,250,0,250s-174.2,0-250,0C111.9,500,0,388,0,250
				C0,112,111.9,0,250,0z"/>
		</g>
	</g>
	<g transform="translate(744,217) scale(0.31,0.31)">
		<g transform="">
			<rect x="0" y="0" class="st0" width="100" height="100"/>
		</g>
	</g>
	<g transform="translate(0,248) scale(0.062,0.062)">
		<g transform="">
			<path class="st0" d="M500,250c0,58.3,0,250,0,250s-170.2,0-250,0c-62.3,0-250,0-250,0s0-174.2,0-250C0,111.9,111.9,0,250,0
				C388.1,0,500,111.9,500,250z"/>
		</g>
	</g>
	<g transform="translate(93,248) scale(0.062,0.062)">
		<g transform="">
			<path class="st0" d="M500,250c0,58.3,0,250,0,250s-170.2,0-250,0c-62.3,0-250,0-250,0s0-174.2,0-250C0,111.9,111.9,0,250,0
				C388.1,0,500,111.9,500,250z"/>
		</g>
	</g>
	<g transform="translate(155,248) scale(0.062,0.062)">
		<g transform="">
			<path class="st0" d="M250,0c58.3,0,250,0,250,0s0,170.2,0,250c0,62.3,0,250,0,250s-174.2,0-250,0C111.9,500,0,388,0,250
				C0,112,111.9,0,250,0z"/>
		</g>
	</g>
	<g transform="translate(186,248) scale(0.062,0.062)">
		<g transform="">
			<path class="st0" d="M250,500c-58.3,0-250,0-250,0s0-170.2,0-250C0,187.7,0,0,0,0s174.3,0,250,0c138.1,0,250,111.9,250,250
				C500,388.1,388.1,500,250,500z"/>
		</g>
	</g>
	<g transform="translate(248,248) scale(0.062,0.062)">
		<g transform="">
			<g>
				<path class="st0" d="M0,500h500V0C223.9,0,0,223.9,0,500z"/>
			</g>
		</g>
	</g>
	<g transform="translate(279,248) scale(0.31,0.31)">
		<g transform="">
			<rect x="0" y="0" class="st0" width="100" height="100"/>
		</g>
	</g>
	<g transform="translate(310,248) scale(0.062,0.062)">
		<g transform="">
			<g>
				<path class="st0" d="M0,0v500h500C500,223.9,276.1,0,0,0z"/>
			</g>
		</g>
	</g>
	<g transform="translate(403,248) scale(0.062,0.062)">
		<g transform="">
			<path class="st0" d="M250,0c58.3,0,250,0,250,0s0,170.2,0,250c0,62.3,0,250,0,250s-174.2,0-250,0C111.9,500,0,388,0,250
				C0,112,111.9,0,250,0z"/>
		</g>
	</g>
	<g transform="translate(434,248) scale(0.31,0.31)">
		<g transform="">
			<rect x="0" y="0" class="st0" width="100" height="100"/>
		</g>
	</g>
	<g transform="translate(465,248) scale(0.31,0.31)">
		<g transform="">
			<rect x="0" y="0" class="st0" width="100" height="100"/>
		</g>
	</g>
	<g transform="translate(496,248) scale(0.062,0.062)">
		<g transform="">
			<g>
				<path class="st0" d="M0,0v500h500C500,223.9,276.1,0,0,0z"/>
			</g>
		</g>
	</g>
	<g transform="translate(589,248) scale(0.062,0.062)">
		<g transform="">
			<g>
				<path class="st0" d="M500,500V0H0C0,276.1,223.9,500,500,500z"/>
			</g>
		</g>
	</g>
	<g transform="translate(620,248) scale(0.31,0.31)">
		<g transform="">
			<rect x="0" y="0" class="st0" width="100" height="100"/>
		</g>
	</g>
	<g transform="translate(651,248) scale(0.062,0.062)">
		<g transform="">
			<g>
				<path class="st0" d="M500,0H0v500C276.1,500,500,276.1,500,0z"/>
			</g>
		</g>
	</g>
	<g transform="translate(744,248) scale(0.31,0.31)">
		<g transform="">
			<rect x="0" y="0" class="st0" width="100" height="100"/>
		</g>
	</g>
	<g transform="translate(775,248) scale(0.062,0.062)">
		<g transform="">
			<g>
				<path class="st0" d="M0,0v500h500C500,223.9,276.1,0,0,0z"/>
			</g>
		</g>
	</g>
	<g transform="translate(837,248) scale(0.062,0.062)">
		<g transform="">
			<path class="st0" d="M500,250c0,58.3,0,250,0,250s-170.2,0-250,0c-62.3,0-250,0-250,0s0-174.2,0-250C0,111.9,111.9,0,250,0
				C388.1,0,500,111.9,500,250z"/>
		</g>
	</g>
	<g transform="translate(0,279) scale(0.062,0.062)">
		<g transform="">
			<g>
				<path class="st0" d="M500,500V0H0C0,276.1,223.9,500,500,500z"/>
			</g>
		</g>
	</g>
	<g transform="translate(31,279) scale(0.31,0.31)">
		<g transform="">
			<rect x="0" y="0" class="st0" width="100" height="100"/>
		</g>
	</g>
	<g transform="translate(62,279) scale(0.31,0.31)">
		<g transform="">
			<rect x="0" y="0" class="st0" width="100" height="100"/>
		</g>
	</g>
	<g transform="translate(93,279) scale(0.31,0.31)">
		<g transform="">
			<rect x="0" y="0" class="st0" width="100" height="100"/>
		</g>
	</g>
	<g transform="translate(124,279) scale(0.062,0.062)">
		<g transform="">
			<path class="st0" d="M250,500c-58.3,0-250,0-250,0s0-170.2,0-250C0,187.7,0,0,0,0s174.3,0,250,0c138.1,0,250,111.9,250,250
				C500,388.1,388.1,500,250,500z"/>
		</g>
	</g>
	<g transform="translate(248,279) scale(0.31,0.31)">
		<g transform="">
			<rect x="0" y="0" class="st0" width="100" height="100"/>
		</g>
	</g>
	<g transform="translate(310,279) scale(0.062,0.062)">
		<g transform="">
			<g>
				<path class="st0" d="M500,500V0H0C0,276.1,223.9,500,500,500z"/>
			</g>
		</g>
	</g>
	<g transform="translate(341,279) scale(0.31,0.31)">
		<g transform="">
			<rect x="0" y="0" class="st0" width="100" height="100"/>
		</g>
	</g>
	<g transform="translate(372,279) scale(0.062,0.062)">
		<g transform="">
			<path class="st0" d="M250,500c-58.3,0-250,0-250,0s0-170.2,0-250C0,187.7,0,0,0,0s174.3,0,250,0c138.1,0,250,111.9,250,250
				C500,388.1,388.1,500,250,500z"/>
		</g>
	</g>
	<g transform="translate(496,279) scale(0.31,0.31)">
		<g transform="">
			<rect x="0" y="0" class="st0" width="100" height="100"/>
		</g>
	</g>
	<g transform="translate(620,279) scale(0.062,0.062)">
		<g transform="">
			<path class="st0" d="M0,250C0,191.7,0,0,0,0s170.2,0,250,0c62.3,0,250,0,250,0s0,174.3,0,250c0,138.1-111.9,250-250,250
				C111.9,500,0,388.1,0,250z"/>
		</g>
	</g>
	<g transform="translate(682,279) scale(0.062,0.062)">
		<g transform="">
			<path class="st0" d="M500,250c0,58.3,0,250,0,250s-170.2,0-250,0c-62.3,0-250,0-250,0s0-174.2,0-250C0,111.9,111.9,0,250,0
				C388.1,0,500,111.9,500,250z"/>
		</g>
	</g>
	<g transform="translate(744,279) scale(0.062,0.062)">
		<g transform="">
			<g>
				<path class="st0" d="M500,500V0H0C0,276.1,223.9,500,500,500z"/>
			</g>
		</g>
	</g>
	<g transform="translate(775,279) scale(0.31,0.31)">
		<g transform="">
			<rect x="0" y="0" class="st0" width="100" height="100"/>
		</g>
	</g>
	<g transform="translate(806,279) scale(0.31,0.31)">
		<g transform="">
			<rect x="0" y="0" class="st0" width="100" height="100"/>
		</g>
	</g>
	<g transform="translate(837,279) scale(0.31,0.31)">
		<g transform="">
			<rect x="0" y="0" class="st0" width="100" height="100"/>
		</g>
	</g>
	<g transform="translate(961,279) scale(0.062,0.062)">
		<g transform="">
			<path class="st0" d="M250,0c58.3,0,250,0,250,0s0,170.2,0,250c0,62.3,0,250,0,250s-174.2,0-250,0C111.9,500,0,388,0,250
				C0,112,111.9,0,250,0z"/>
		</g>
	</g>
	<g transform="translate(992,279) scale(0.062,0.062)">
		<g transform="">
			<g>
				<path class="st0" d="M0,0v500h500C500,223.9,276.1,0,0,0z"/>
			</g>
		</g>
	</g>
	<g transform="translate(62,310) scale(0.31,0.31)">
		<g transform="">
			<rect x="0" y="0" class="st0" width="100" height="100"/>
		</g>
	</g>
	<g transform="translate(93,310) scale(0.062,0.062)">
		<g transform="">
			<g>
				<path class="st0" d="M500,0H0v500C276.1,500,500,276.1,500,0z"/>
			</g>
		</g>
	</g>
	<g transform="translate(186,310) scale(0.062,0.062)">
		<g transform="">
			<path class="st0" d="M250,0c58.3,0,250,0,250,0s0,170.2,0,250c0,62.3,0,250,0,250s-174.2,0-250,0C111.9,500,0,388,0,250
				C0,112,111.9,0,250,0z"/>
		</g>
	</g>
	<g transform="translate(217,310) scale(0.31,0.31)">
		<g transform="">
			<rect x="0" y="0" class="st0" width="100" height="100"/>
		</g>
	</g>
	<g transform="translate(248,310) scale(0.31,0.31)">
		<g transform="">
			<rect x="0" y="0" class="st0" width="100" height="100"/>
		</g>
	</g>
	<g transform="translate(279,310) scale(0.062,0.062)">
		<g transform="">
			<g>
				<path class="st0" d="M0,0v500h500C500,223.9,276.1,0,0,0z"/>
			</g>
		</g>
	</g>
	<g transform="translate(341,310) scale(0.062,0.062)">
		<g transform="">
			<path class="st0" d="M0,250C0,191.7,0,0,0,0s170.2,0,250,0c62.3,0,250,0,250,0s0,174.3,0,250c0,138.1-111.9,250-250,250
				C111.9,500,0,388.1,0,250z"/>
		</g>
	</g>
	<g transform="translate(496,310) scale(0.31,0.31)">
		<g transform="">
			<rect x="0" y="0" class="st0" width="100" height="100"/>
		</g>
	</g>
	<g transform="translate(527,310) scale(0.062,0.062)">
		<g transform="">
			<g>
				<path class="st0" d="M0,0v500h500C500,223.9,276.1,0,0,0z"/>
			</g>
		</g>
	</g>
	<g transform="translate(589,310) scale(0.062,0.062)">
		<g transform="">
			<path class="st0" d="M500,250c0,58.3,0,250,0,250s-170.2,0-250,0c-62.3,0-250,0-250,0s0-174.2,0-250C0,111.9,111.9,0,250,0
				C388.1,0,500,111.9,500,250z"/>
		</g>
	</g>
	<g transform="translate(651,310) scale(0.062,0.062)">
		<g transform="">
			<path class="st0" d="M250,0c58.3,0,250,0,250,0s0,170.2,0,250c0,62.3,0,250,0,250s-174.2,0-250,0C111.9,500,0,388,0,250
				C0,112,111.9,0,250,0z"/>
		</g>
	</g>
	<g transform="translate(682,310) scale(0.062,0.062)">
		<g transform="">
			<g>
				<path class="st0" d="M500,0H0v500C276.1,500,500,276.1,500,0z"/>
			</g>
		</g>
	</g>
	<g transform="translate(775,310) scale(0.31,0.31)">
		<g transform="">
			<rect x="0" y="0" class="st0" width="100" height="100"/>
		</g>
	</g>
	<g transform="translate(806,310) scale(0.31,0.31)">
		<g transform="">
			<rect x="0" y="0" class="st0" width="100" height="100"/>
		</g>
	</g>
	<g transform="translate(837,310) scale(0.31,0.31)">
		<g transform="">
			<rect x="0" y="0" class="st0" width="100" height="100"/>
		</g>
	</g>
	<g transform="translate(868,310) scale(0.062,0.062)">
		<g transform="">
			<g>
				<path class="st0" d="M0,0v500h500C500,223.9,276.1,0,0,0z"/>
			</g>
		</g>
	</g>
	<g transform="translate(930,310) scale(0.062,0.062)">
		<g transform="">
			<path class="st0" d="M250,0c138.1,0,250,111.9,250,250c0,138.1-111.9,250-250,250C111.9,500,0,388.1,0,250C0,111.9,111.9,0,250,0
				z"/>
		</g>
	</g>
	<g transform="translate(992,310) scale(0.062,0.062)">
		<g transform="">
			<path class="st0" d="M0,250C0,191.7,0,0,0,0s170.2,0,250,0c62.3,0,250,0,250,0s0,174.3,0,250c0,138.1-111.9,250-250,250
				C111.9,500,0,388.1,0,250z"/>
		</g>
	</g>
	<g transform="translate(62,341) scale(0.062,0.062)">
		<g transform="">
			<path class="st0" d="M0,250C0,191.7,0,0,0,0s170.2,0,250,0c62.3,0,250,0,250,0s0,174.3,0,250c0,138.1-111.9,250-250,250
				C111.9,500,0,388.1,0,250z"/>
		</g>
	</g>
	<g transform="translate(155,341) scale(0.062,0.062)">
		<g transform="">
			<path class="st0" d="M250,0c138.1,0,250,111.9,250,250c0,138.1-111.9,250-250,250C111.9,500,0,388.1,0,250C0,111.9,111.9,0,250,0
				z"/>
		</g>
	</g>
	<g transform="translate(217,341) scale(0.062,0.062)">
		<g transform="">
			<g>
				<path class="st0" d="M500,500V0H0C0,276.1,223.9,500,500,500z"/>
			</g>
		</g>
	</g>
	<g transform="translate(248,341) scale(0.31,0.31)">
		<g transform="">
			<rect x="0" y="0" class="st0" width="100" height="100"/>
		</g>
	</g>
	<g transform="translate(279,341) scale(0.062,0.062)">
		<g transform="">
			<g>
				<path class="st0" d="M500,0H0v500C276.1,500,500,276.1,500,0z"/>
			</g>
		</g>
	</g>
	<g transform="translate(434,341) scale(0.062,0.062)">
		<g transform="">
			<path class="st0" d="M250,0c138.1,0,250,111.9,250,250c0,138.1-111.9,250-250,250C111.9,500,0,388.1,0,250C0,111.9,111.9,0,250,0
				z"/>
		</g>
	</g>
	<g transform="translate(496,341) scale(0.062,0.062)">
		<g transform="">
			<g>
				<path class="st0" d="M500,500V0H0C0,276.1,223.9,500,500,500z"/>
			</g>
		</g>
	</g>
	<g transform="translate(527,341) scale(0.062,0.062)">
		<g transform="">
			<g>
				<path class="st0" d="M500,0H0v500C276.1,500,500,276.1,500,0z"/>
			</g>
		</g>
	</g>
	<g transform="translate(589,341) scale(0.062,0.062)">
		<g transform="">
			<path class="st0" d="M0,250C0,191.7,0,0,0,0s170.2,0,250,0c62.3,0,250,0,250,0s0,174.3,0,250c0,138.1-111.9,250-250,250
				C111.9,500,0,388.1,0,250z"/>
		</g>
	</g>
	<g transform="translate(744,341) scale(0.062,0.062)">
		<g transform="">
			<g>
				<path class="st0" d="M0,500h500V0C223.9,0,0,223.9,0,500z"/>
			</g>
		</g>
	</g>
	<g transform="translate(775,341) scale(0.31,0.31)">
		<g transform="">
			<rect x="0" y="0" class="st0" width="100" height="100"/>
		</g>
	</g>
	<g transform="translate(868,341) scale(0.062,0.062)">
		<g transform="">
			<g>
				<path class="st0" d="M500,500V0H0C0,276.1,223.9,500,500,500z"/>
			</g>
		</g>
	</g>
	<g transform="translate(899,341) scale(0.062,0.062)">
		<g transform="">
			<g>
				<path class="st0" d="M0,0v500h500C500,223.9,276.1,0,0,0z"/>
			</g>
		</g>
	</g>
	<g transform="translate(93,372) scale(0.062,0.062)">
		<g transform="">
			<path class="st0" d="M250,0c138.1,0,250,111.9,250,250c0,138.1-111.9,250-250,250C111.9,500,0,388.1,0,250C0,111.9,111.9,0,250,0
				z"/>
		</g>
	</g>
	<g transform="translate(186,372) scale(0.062,0.062)">
		<g transform="">
			<path class="st0" d="M250,0c138.1,0,250,111.9,250,250c0,138.1-111.9,250-250,250C111.9,500,0,388.1,0,250C0,111.9,111.9,0,250,0
				z"/>
		</g>
	</g>
	<g transform="translate(310,372) scale(0.062,0.062)">
		<g transform="">
			<path class="st0" d="M250,0c58.3,0,250,0,250,0s0,170.2,0,250c0,62.3,0,250,0,250s-174.2,0-250,0C111.9,500,0,388,0,250
				C0,112,111.9,0,250,0z"/>
		</g>
	</g>
	<g transform="translate(341,372) scale(0.31,0.31)">
		<g transform="">
			<rect x="0" y="0" class="st0" width="100" height="100"/>
		</g>
	</g>
	<g transform="translate(372,372) scale(0.062,0.062)">
		<g transform="">
			<g>
				<path class="st0" d="M0,0v500h500C500,223.9,276.1,0,0,0z"/>
			</g>
		</g>
	</g>
	<g transform="translate(465,372) scale(0.062,0.062)">
		<g transform="">
			<path class="st0" d="M500,250c0,58.3,0,250,0,250s-170.2,0-250,0c-62.3,0-250,0-250,0s0-174.2,0-250C0,111.9,111.9,0,250,0
				C388.1,0,500,111.9,500,250z"/>
		</g>
	</g>
	<g transform="translate(713,372) scale(0.062,0.062)">
		<g transform="">
			<path class="st0" d="M250,0c58.3,0,250,0,250,0s0,170.2,0,250c0,62.3,0,250,0,250s-174.2,0-250,0C111.9,500,0,388,0,250
				C0,112,111.9,0,250,0z"/>
		</g>
	</g>
	<g transform="translate(744,372) scale(0.31,0.31)">
		<g transform="">
			<rect x="0" y="0" class="st0" width="100" height="100"/>
		</g>
	</g>
	<g transform="translate(775,372) scale(0.31,0.31)">
		<g transform="">
			<rect x="0" y="0" class="st0" width="100" height="100"/>
		</g>
	</g>
	<g transform="translate(806,372) scale(0.31,0.31)">
		<g transform="">
			<rect x="0" y="0" class="st0" width="100" height="100"/>
		</g>
	</g>
	<g transform="translate(837,372) scale(0.062,0.062)">
		<g transform="">
			<path class="st0" d="M250,500c-58.3,0-250,0-250,0s0-170.2,0-250C0,187.7,0,0,0,0s174.3,0,250,0c138.1,0,250,111.9,250,250
				C500,388.1,388.1,500,250,500z"/>
		</g>
	</g>
	<g transform="translate(899,372) scale(0.31,0.31)">
		<g transform="">
			<rect x="0" y="0" class="st0" width="100" height="100"/>
		</g>
	</g>
	<g transform="translate(992,372) scale(0.062,0.062)">
		<g transform="">
			<path class="st0" d="M500,250c0,58.3,0,250,0,250s-170.2,0-250,0c-62.3,0-250,0-250,0s0-174.2,0-250C0,111.9,111.9,0,250,0
				C388.1,0,500,111.9,500,250z"/>
		</g>
	</g>
	<g transform="translate(0,403) scale(0.062,0.062)">
		<g transform="">
			<g>
				<path class="st0" d="M0,500h500V0C223.9,0,0,223.9,0,500z"/>
			</g>
		</g>
	</g>
	<g transform="translate(31,403) scale(0.062,0.062)">
		<g transform="">
			<path class="st0" d="M250,500c-58.3,0-250,0-250,0s0-170.2,0-250C0,187.7,0,0,0,0s174.3,0,250,0c138.1,0,250,111.9,250,250
				C500,388.1,388.1,500,250,500z"/>
		</g>
	</g>
	<g transform="translate(124,403) scale(0.062,0.062)">
		<g transform="">
			<path class="st0" d="M250,0c58.3,0,250,0,250,0s0,170.2,0,250c0,62.3,0,250,0,250s-174.2,0-250,0C111.9,500,0,388,0,250
				C0,112,111.9,0,250,0z"/>
		</g>
	</g>
	<g transform="translate(155,403) scale(0.062,0.062)">
		<g transform="">
			<path class="st0" d="M250,500c-58.3,0-250,0-250,0s0-170.2,0-250C0,187.7,0,0,0,0s174.3,0,250,0c138.1,0,250,111.9,250,250
				C500,388.1,388.1,500,250,500z"/>
		</g>
	</g>
	<g transform="translate(341,403) scale(0.062,0.062)">
		<g transform="">
			<g>
				<path class="st0" d="M500,500V0H0C0,276.1,223.9,500,500,500z"/>
			</g>
		</g>
	</g>
	<g transform="translate(372,403) scale(0.31,0.31)">
		<g transform="">
			<rect x="0" y="0" class="st0" width="100" height="100"/>
		</g>
	</g>
	<g transform="translate(403,403) scale(0.062,0.062)">
		<g transform="">
			<path class="st0" d="M250,500c-58.3,0-250,0-250,0s0-170.2,0-250C0,187.7,0,0,0,0s174.3,0,250,0c138.1,0,250,111.9,250,250
				C500,388.1,388.1,500,250,500z"/>
		</g>
	</g>
	<g transform="translate(465,403) scale(0.062,0.062)">
		<g transform="">
			<g>
				<path class="st0" d="M500,500V0H0C0,276.1,223.9,500,500,500z"/>
			</g>
		</g>
	</g>
	<g transform="translate(496,403) scale(0.31,0.31)">
		<g transform="">
			<rect x="0" y="0" class="st0" width="100" height="100"/>
		</g>
	</g>
	<g transform="translate(527,403) scale(0.062,0.062)">
		<g transform="">
			<g>
				<path class="st0" d="M0,0v500h500C500,223.9,276.1,0,0,0z"/>
			</g>
		</g>
	</g>
	<g transform="translate(651,403) scale(0.062,0.062)">
		<g transform="">
			<g>
				<path class="st0" d="M0,500h500V0C223.9,0,0,223.9,0,500z"/>
			</g>
		</g>
	</g>
	<g transform="translate(682,403) scale(0.062,0.062)">
		<g transform="">
			<g>
				<path class="st0" d="M0,0v500h500C500,223.9,276.1,0,0,0z"/>
			</g>
		</g>
	</g>
	<g transform="translate(744,403) scale(0.062,0.062)">
		<g transform="">
			<path class="st0" d="M0,250C0,191.7,0,0,0,0s170.2,0,250,0c62.3,0,250,0,250,0s0,174.3,0,250c0,138.1-111.9,250-250,250
				C111.9,500,0,388.1,0,250z"/>
		</g>
	</g>
	<g transform="translate(806,403) scale(0.31,0.31)">
		<g transform="">
			<rect x="0" y="0" class="st0" width="100" height="100"/>
		</g>
	</g>
	<g transform="translate(868,403) scale(0.062,0.062)">
		<g transform="">
			<g>
				<path class="st0" d="M0,500h500V0C223.9,0,0,223.9,0,500z"/>
			</g>
		</g>
	</g>
	<g transform="translate(899,403) scale(0.062,0.062)">
		<g transform="">
			<g>
				<path class="st0" d="M500,0H0v500C276.1,500,500,276.1,500,0z"/>
			</g>
		</g>
	</g>
	<g transform="translate(961,403) scale(0.062,0.062)">
		<g transform="">
			<g>
				<path class="st0" d="M0,500h500V0C223.9,0,0,223.9,0,500z"/>
			</g>
		</g>
	</g>
	<g transform="translate(992,403) scale(0.062,0.062)">
		<g transform="">
			<g>
				<path class="st0" d="M500,0H0v500C276.1,500,500,276.1,500,0z"/>
			</g>
		</g>
	</g>
	<g transform="translate(0,434) scale(0.31,0.31)">
		<g transform="">
			<rect x="0" y="0" class="st0" width="100" height="100"/>
		</g>
	</g>
	<g transform="translate(93,434) scale(0.062,0.062)">
		<g transform="">
			<path class="st0" d="M500,250c0,58.3,0,250,0,250s-170.2,0-250,0c-62.3,0-250,0-250,0s0-174.2,0-250C0,111.9,111.9,0,250,0
				C388.1,0,500,111.9,500,250z"/>
		</g>
	</g>
	<g transform="translate(186,434) scale(0.062,0.062)">
		<g transform="">
			<path class="st0" d="M250,0c138.1,0,250,111.9,250,250c0,138.1-111.9,250-250,250C111.9,500,0,388.1,0,250C0,111.9,111.9,0,250,0
				z"/>
		</g>
	</g>
	<g transform="translate(248,434) scale(0.062,0.062)">
		<g transform="">
			<g>
				<path class="st0" d="M0,500h500V0C223.9,0,0,223.9,0,500z"/>
			</g>
		</g>
	</g>
	<g transform="translate(279,434) scale(0.062,0.062)">
		<g transform="">
			<g>
				<path class="st0" d="M0,0v500h500C500,223.9,276.1,0,0,0z"/>
			</g>
		</g>
	</g>
	<g transform="translate(527,434) scale(0.31,0.31)">
		<g transform="">
			<rect x="0" y="0" class="st0" width="100" height="100"/>
		</g>
	</g>
	<g transform="translate(558,434) scale(0.062,0.062)">
		<g transform="">
			<g>
				<path class="st0" d="M0,0v500h500C500,223.9,276.1,0,0,0z"/>
			</g>
		</g>
	</g>
	<g transform="translate(620,434) scale(0.062,0.062)">
		<g transform="">
			<path class="st0" d="M250,0c58.3,0,250,0,250,0s0,170.2,0,250c0,62.3,0,250,0,250s-174.2,0-250,0C111.9,500,0,388,0,250
				C0,112,111.9,0,250,0z"/>
		</g>
	</g>
	<g transform="translate(651,434) scale(0.31,0.31)">
		<g transform="">
			<rect x="0" y="0" class="st0" width="100" height="100"/>
		</g>
	</g>
	<g transform="translate(682,434) scale(0.31,0.31)">
		<g transform="">
			<rect x="0" y="0" class="st0" width="100" height="100"/>
		</g>
	</g>
	<g transform="translate(713,434) scale(0.062,0.062)">
		<g transform="">
			<path class="st0" d="M250,500c-58.3,0-250,0-250,0s0-170.2,0-250C0,187.7,0,0,0,0s174.3,0,250,0c138.1,0,250,111.9,250,250
				C500,388.1,388.1,500,250,500z"/>
		</g>
	</g>
	<g transform="translate(775,434) scale(0.062,0.062)">
		<g transform="">
			<path class="st0" d="M250,0c58.3,0,250,0,250,0s0,170.2,0,250c0,62.3,0,250,0,250s-174.2,0-250,0C111.9,500,0,388,0,250
				C0,112,111.9,0,250,0z"/>
		</g>
	</g>
	<g transform="translate(806,434) scale(0.31,0.31)">
		<g transform="">
			<rect x="0" y="0" class="st0" width="100" height="100"/>
		</g>
	</g>
	<g transform="translate(837,434) scale(0.31,0.31)">
		<g transform="">
			<rect x="0" y="0" class="st0" width="100" height="100"/>
		</g>
	</g>
	<g transform="translate(868,434) scale(0.31,0.31)">
		<g transform="">
			<rect x="0" y="0" class="st0" width="100" height="100"/>
		</g>
	</g>
	<g transform="translate(930,434) scale(0.062,0.062)">
		<g transform="">
			<path class="st0" d="M250,0c58.3,0,250,0,250,0s0,170.2,0,250c0,62.3,0,250,0,250s-174.2,0-250,0C111.9,500,0,388,0,250
				C0,112,111.9,0,250,0z"/>
		</g>
	</g>
	<g transform="translate(961,434) scale(0.31,0.31)">
		<g transform="">
			<rect x="0" y="0" class="st0" width="100" height="100"/>
		</g>
	</g>
	<g transform="translate(0,465) scale(0.31,0.31)">
		<g transform="">
			<rect x="0" y="0" class="st0" width="100" height="100"/>
		</g>
	</g>
	<g transform="translate(93,465) scale(0.31,0.31)">
		<g transform="">
			<rect x="0" y="0" class="st0" width="100" height="100"/>
		</g>
	</g>
	<g transform="translate(248,465) scale(0.062,0.062)">
		<g transform="">
			<g>
				<path class="st0" d="M500,500V0H0C0,276.1,223.9,500,500,500z"/>
			</g>
		</g>
	</g>
	<g transform="translate(279,465) scale(0.31,0.31)">
		<g transform="">
			<rect x="0" y="0" class="st0" width="100" height="100"/>
		</g>
	</g>
	<g transform="translate(310,465) scale(0.31,0.31)">
		<g transform="">
			<rect x="0" y="0" class="st0" width="100" height="100"/>
		</g>
	</g>
	<g transform="translate(341,465) scale(0.31,0.31)">
		<g transform="">
			<rect x="0" y="0" class="st0" width="100" height="100"/>
		</g>
	</g>
	<g transform="translate(372,465) scale(0.062,0.062)">
		<g transform="">
			<path class="st0" d="M250,500c-58.3,0-250,0-250,0s0-170.2,0-250C0,187.7,0,0,0,0s174.3,0,250,0c138.1,0,250,111.9,250,250
				C500,388.1,388.1,500,250,500z"/>
		</g>
	</g>
	<g transform="translate(465,465) scale(0.062,0.062)">
		<g transform="">
			<path class="st0" d="M250,0c138.1,0,250,111.9,250,250c0,138.1-111.9,250-250,250C111.9,500,0,388.1,0,250C0,111.9,111.9,0,250,0
				z"/>
		</g>
	</g>
	<g transform="translate(527,465) scale(0.31,0.31)">
		<g transform="">
			<rect x="0" y="0" class="st0" width="100" height="100"/>
		</g>
	</g>
	<g transform="translate(558,465) scale(0.31,0.31)">
		<g transform="">
			<rect x="0" y="0" class="st0" width="100" height="100"/>
		</g>
	</g>
	<g transform="translate(589,465) scale(0.062,0.062)">
		<g transform="">
			<g>
				<path class="st0" d="M0,0v500h500C500,223.9,276.1,0,0,0z"/>
			</g>
		</g>
	</g>
	<g transform="translate(651,465) scale(0.31,0.31)">
		<g transform="">
			<rect x="0" y="0" class="st0" width="100" height="100"/>
		</g>
	</g>
	<g transform="translate(744,465) scale(0.062,0.062)">
		<g transform="">
			<path class="st0" d="M500,250c0,58.3,0,250,0,250s-170.2,0-250,0c-62.3,0-250,0-250,0s0-174.2,0-250C0,111.9,111.9,0,250,0
				C388.1,0,500,111.9,500,250z"/>
		</g>
	</g>
	<g transform="translate(806,465) scale(0.31,0.31)">
		<g transform="">
			<rect x="0" y="0" class="st0" width="100" height="100"/>
		</g>
	</g>
	<g transform="translate(837,465) scale(0.31,0.31)">
		<g transform="">
			<rect x="0" y="0" class="st0" width="100" height="100"/>
		</g>
	</g>
	<g transform="translate(868,465) scale(0.31,0.31)">
		<g transform="">
			<rect x="0" y="0" class="st0" width="100" height="100"/>
		</g>
	</g>
	<g transform="translate(961,465) scale(0.31,0.31)">
		<g transform="">
			<rect x="0" y="0" class="st0" width="100" height="100"/>
		</g>
	</g>
	<g transform="translate(0,496) scale(0.062,0.062)">
		<g transform="">
			<g>
				<path class="st0" d="M500,500V0H0C0,276.1,223.9,500,500,500z"/>
			</g>
		</g>
	</g>
	<g transform="translate(31,496) scale(0.31,0.31)">
		<g transform="">
			<rect x="0" y="0" class="st0" width="100" height="100"/>
		</g>
	</g>
	<g transform="translate(62,496) scale(0.31,0.31)">
		<g transform="">
			<rect x="0" y="0" class="st0" width="100" height="100"/>
		</g>
	</g>
	<g transform="translate(93,496) scale(0.31,0.31)">
		<g transform="">
			<rect x="0" y="0" class="st0" width="100" height="100"/>
		</g>
	</g>
	<g transform="translate(186,496) scale(0.062,0.062)">
		<g transform="">
			<path class="st0" d="M250,0c138.1,0,250,111.9,250,250c0,138.1-111.9,250-250,250C111.9,500,0,388.1,0,250C0,111.9,111.9,0,250,0
				z"/>
		</g>
	</g>
	<g transform="translate(310,496) scale(0.062,0.062)">
		<g transform="">
			<g>
				<path class="st0" d="M500,500V0H0C0,276.1,223.9,500,500,500z"/>
			</g>
		</g>
	</g>
	<g transform="translate(341,496) scale(0.062,0.062)">
		<g transform="">
			<g>
				<path class="st0" d="M500,0H0v500C276.1,500,500,276.1,500,0z"/>
			</g>
		</g>
	</g>
	<g transform="translate(434,496) scale(0.062,0.062)">
		<g transform="">
			<path class="st0" d="M500,250c0,58.3,0,250,0,250s-170.2,0-250,0c-62.3,0-250,0-250,0s0-174.2,0-250C0,111.9,111.9,0,250,0
				C388.1,0,500,111.9,500,250z"/>
		</g>
	</g>
	<g transform="translate(527,496) scale(0.062,0.062)">
		<g transform="">
			<path class="st0" d="M0,250C0,191.7,0,0,0,0s170.2,0,250,0c62.3,0,250,0,250,0s0,174.3,0,250c0,138.1-111.9,250-250,250
				C111.9,500,0,388.1,0,250z"/>
		</g>
	</g>
	<g transform="translate(589,496) scale(0.062,0.062)">
		<g transform="">
			<path class="st0" d="M0,250C0,191.7,0,0,0,0s170.2,0,250,0c62.3,0,250,0,250,0s0,174.3,0,250c0,138.1-111.9,250-250,250
				C111.9,500,0,388.1,0,250z"/>
		</g>
	</g>
	<g transform="translate(651,496) scale(0.31,0.31)">
		<g transform="">
			<rect x="0" y="0" class="st0" width="100" height="100"/>
		</g>
	</g>
	<g transform="translate(682,496) scale(0.31,0.31)">
		<g transform="">
			<rect x="0" y="0" class="st0" width="100" height="100"/>
		</g>
	</g>
	<g transform="translate(713,496) scale(0.31,0.31)">
		<g transform="">
			<rect x="0" y="0" class="st0" width="100" height="100"/>
		</g>
	</g>
	<g transform="translate(744,496) scale(0.31,0.31)">
		<g transform="">
			<rect x="0" y="0" class="st0" width="100" height="100"/>
		</g>
	</g>
	<g transform="translate(806,496) scale(0.062,0.062)">
		<g transform="">
			<path class="st0" d="M0,250C0,191.7,0,0,0,0s170.2,0,250,0c62.3,0,250,0,250,0s0,174.3,0,250c0,138.1-111.9,250-250,250
				C111.9,500,0,388.1,0,250z"/>
		</g>
	</g>
	<g transform="translate(868,496) scale(0.062,0.062)">
		<g transform="">
			<g>
				<path class="st0" d="M500,500V0H0C0,276.1,223.9,500,500,500z"/>
			</g>
		</g>
	</g>
	<g transform="translate(899,496) scale(0.062,0.062)">
		<g transform="">
			<g>
				<path class="st0" d="M0,0v500h500C500,223.9,276.1,0,0,0z"/>
			</g>
		</g>
	</g>
	<g transform="translate(961,496) scale(0.062,0.062)">
		<g transform="">
			<path class="st0" d="M0,250C0,191.7,0,0,0,0s170.2,0,250,0c62.3,0,250,0,250,0s0,174.3,0,250c0,138.1-111.9,250-250,250
				C111.9,500,0,388.1,0,250z"/>
		</g>
	</g>
	<g transform="translate(31,527) scale(0.31,0.31)">
		<g transform="">
			<rect x="0" y="0" class="st0" width="100" height="100"/>
		</g>
	</g>
	<g transform="translate(93,527) scale(0.062,0.062)">
		<g transform="">
			<path class="st0" d="M0,250C0,191.7,0,0,0,0s170.2,0,250,0c62.3,0,250,0,250,0s0,174.3,0,250c0,138.1-111.9,250-250,250
				C111.9,500,0,388.1,0,250z"/>
		</g>
	</g>
	<g transform="translate(217,527) scale(0.062,0.062)">
		<g transform="">
			<path class="st0" d="M500,250c0,58.3,0,250,0,250s-170.2,0-250,0c-62.3,0-250,0-250,0s0-174.2,0-250C0,111.9,111.9,0,250,0
				C388.1,0,500,111.9,500,250z"/>
		</g>
	</g>
	<g transform="translate(372,527) scale(0.062,0.062)">
		<g transform="">
			<path class="st0" d="M250,0c58.3,0,250,0,250,0s0,170.2,0,250c0,62.3,0,250,0,250s-174.2,0-250,0C111.9,500,0,388,0,250
				C0,112,111.9,0,250,0z"/>
		</g>
	</g>
	<g transform="translate(403,527) scale(0.31,0.31)">
		<g transform="">
			<rect x="0" y="0" class="st0" width="100" height="100"/>
		</g>
	</g>
	<g transform="translate(434,527) scale(0.062,0.062)">
		<g transform="">
			<g>
				<path class="st0" d="M500,0H0v500C276.1,500,500,276.1,500,0z"/>
			</g>
		</g>
	</g>
	<g transform="translate(496,527) scale(0.062,0.062)">
		<g transform="">
			<path class="st0" d="M500,250c0,58.3,0,250,0,250s-170.2,0-250,0c-62.3,0-250,0-250,0s0-174.2,0-250C0,111.9,111.9,0,250,0
				C388.1,0,500,111.9,500,250z"/>
		</g>
	</g>
	<g transform="translate(651,527) scale(0.062,0.062)">
		<g transform="">
			<path class="st0" d="M0,250C0,191.7,0,0,0,0s170.2,0,250,0c62.3,0,250,0,250,0s0,174.3,0,250c0,138.1-111.9,250-250,250
				C111.9,500,0,388.1,0,250z"/>
		</g>
	</g>
	<g transform="translate(713,527) scale(0.062,0.062)">
		<g transform="">
			<g>
				<path class="st0" d="M500,500V0H0C0,276.1,223.9,500,500,500z"/>
			</g>
		</g>
	</g>
	<g transform="translate(744,527) scale(0.062,0.062)">
		<g transform="">
			<g>
				<path class="st0" d="M500,0H0v500C276.1,500,500,276.1,500,0z"/>
			</g>
		</g>
	</g>
	<g transform="translate(837,527) scale(0.062,0.062)">
		<g transform="">
			<path class="st0" d="M250,0c138.1,0,250,111.9,250,250c0,138.1-111.9,250-250,250C111.9,500,0,388.1,0,250C0,111.9,111.9,0,250,0
				z"/>
		</g>
	</g>
	<g transform="translate(899,527) scale(0.062,0.062)">
		<g transform="">
			<path class="st0" d="M0,250C0,191.7,0,0,0,0s170.2,0,250,0c62.3,0,250,0,250,0s0,174.3,0,250c0,138.1-111.9,250-250,250
				C111.9,500,0,388.1,0,250z"/>
		</g>
	</g>
	<g transform="translate(31,558) scale(0.062,0.062)">
		<g transform="">
			<g>
				<path class="st0" d="M500,500V0H0C0,276.1,223.9,500,500,500z"/>
			</g>
		</g>
	</g>
	<g transform="translate(62,558) scale(0.062,0.062)">
		<g transform="">
			<g>
				<path class="st0" d="M0,0v500h500C500,223.9,276.1,0,0,0z"/>
			</g>
		</g>
	</g>
	<g transform="translate(155,558) scale(0.062,0.062)">
		<g transform="">
			<g>
				<path class="st0" d="M0,500h500V0C223.9,0,0,223.9,0,500z"/>
			</g>
		</g>
	</g>
	<g transform="translate(186,558) scale(0.31,0.31)">
		<g transform="">
			<rect x="0" y="0" class="st0" width="100" height="100"/>
		</g>
	</g>
	<g transform="translate(217,558) scale(0.062,0.062)">
		<g transform="">
			<g>
				<path class="st0" d="M500,0H0v500C276.1,500,500,276.1,500,0z"/>
			</g>
		</g>
	</g>
	<g transform="translate(341,558) scale(0.062,0.062)">
		<g transform="">
			<path class="st0" d="M250,0c138.1,0,250,111.9,250,250c0,138.1-111.9,250-250,250C111.9,500,0,388.1,0,250C0,111.9,111.9,0,250,0
				z"/>
		</g>
	</g>
	<g transform="translate(496,558) scale(0.31,0.31)">
		<g transform="">
			<rect x="0" y="0" class="st0" width="100" height="100"/>
		</g>
	</g>
	<g transform="translate(558,558) scale(0.062,0.062)">
		<g transform="">
			<path class="st0" d="M500,250c0,58.3,0,250,0,250s-170.2,0-250,0c-62.3,0-250,0-250,0s0-174.2,0-250C0,111.9,111.9,0,250,0
				C388.1,0,500,111.9,500,250z"/>
		</g>
	</g>
	<g transform="translate(620,558) scale(0.062,0.062)">
		<g transform="">
			<path class="st0" d="M500,250c0,58.3,0,250,0,250s-170.2,0-250,0c-62.3,0-250,0-250,0s0-174.2,0-250C0,111.9,111.9,0,250,0
				C388.1,0,500,111.9,500,250z"/>
		</g>
	</g>
	<g transform="translate(682,558) scale(0.062,0.062)">
		<g transform="">
			<path class="st0" d="M250,0c138.1,0,250,111.9,250,250c0,138.1-111.9,250-250,250C111.9,500,0,388.1,0,250C0,111.9,111.9,0,250,0
				z"/>
		</g>
	</g>
	<g transform="translate(775,558) scale(0.062,0.062)">
		<g transform="">
			<g>
				<path class="st0" d="M0,500h500V0C223.9,0,0,223.9,0,500z"/>
			</g>
		</g>
	</g>
	<g transform="translate(806,558) scale(0.062,0.062)">
		<g transform="">
			<path class="st0" d="M250,500c-58.3,0-250,0-250,0s0-170.2,0-250C0,187.7,0,0,0,0s174.3,0,250,0c138.1,0,250,111.9,250,250
				C500,388.1,388.1,500,250,500z"/>
		</g>
	</g>
	<g transform="translate(930,558) scale(0.062,0.062)">
		<g transform="">
			<path class="st0" d="M250,0c58.3,0,250,0,250,0s0,170.2,0,250c0,62.3,0,250,0,250s-174.2,0-250,0C111.9,500,0,388,0,250
				C0,112,111.9,0,250,0z"/>
		</g>
	</g>
	<g transform="translate(961,558) scale(0.31,0.31)">
		<g transform="">
			<rect x="0" y="0" class="st0" width="100" height="100"/>
		</g>
	</g>
	<g transform="translate(992,558) scale(0.062,0.062)">
		<g transform="">
			<path class="st0" d="M250,500c-58.3,0-250,0-250,0s0-170.2,0-250C0,187.7,0,0,0,0s174.3,0,250,0c138.1,0,250,111.9,250,250
				C500,388.1,388.1,500,250,500z"/>
		</g>
	</g>
	<g transform="translate(62,589) scale(0.062,0.062)">
		<g transform="">
			<path class="st0" d="M0,250C0,191.7,0,0,0,0s170.2,0,250,0c62.3,0,250,0,250,0s0,174.3,0,250c0,138.1-111.9,250-250,250
				C111.9,500,0,388.1,0,250z"/>
		</g>
	</g>
	<g transform="translate(155,589) scale(0.31,0.31)">
		<g transform="">
			<rect x="0" y="0" class="st0" width="100" height="100"/>
		</g>
	</g>
	<g transform="translate(372,589) scale(0.062,0.062)">
		<g transform="">
			<path class="st0" d="M250,0c138.1,0,250,111.9,250,250c0,138.1-111.9,250-250,250C111.9,500,0,388.1,0,250C0,111.9,111.9,0,250,0
				z"/>
		</g>
	</g>
	<g transform="translate(434,589) scale(0.062,0.062)">
		<g transform="">
			<path class="st0" d="M500,250c0,58.3,0,250,0,250s-170.2,0-250,0c-62.3,0-250,0-250,0s0-174.2,0-250C0,111.9,111.9,0,250,0
				C388.1,0,500,111.9,500,250z"/>
		</g>
	</g>
	<g transform="translate(496,589) scale(0.31,0.31)">
		<g transform="">
			<rect x="0" y="0" class="st0" width="100" height="100"/>
		</g>
	</g>
	<g transform="translate(527,589) scale(0.31,0.31)">
		<g transform="">
			<rect x="0" y="0" class="st0" width="100" height="100"/>
		</g>
	</g>
	<g transform="translate(558,589) scale(0.31,0.31)">
		<g transform="">
			<rect x="0" y="0" class="st0" width="100" height="100"/>
		</g>
	</g>
	<g transform="translate(620,589) scale(0.062,0.062)">
		<g transform="">
			<g>
				<path class="st0" d="M500,500V0H0C0,276.1,223.9,500,500,500z"/>
			</g>
		</g>
	</g>
	<g transform="translate(651,589) scale(0.062,0.062)">
		<g transform="">
			<path class="st0" d="M250,500c-58.3,0-250,0-250,0s0-170.2,0-250C0,187.7,0,0,0,0s174.3,0,250,0c138.1,0,250,111.9,250,250
				C500,388.1,388.1,500,250,500z"/>
		</g>
	</g>
	<g transform="translate(713,589) scale(0.062,0.062)">
		<g transform="">
			<g>
				<path class="st0" d="M0,500h500V0C223.9,0,0,223.9,0,500z"/>
			</g>
		</g>
	</g>
	<g transform="translate(744,589) scale(0.31,0.31)">
		<g transform="">
			<rect x="0" y="0" class="st0" width="100" height="100"/>
		</g>
	</g>
	<g transform="translate(775,589) scale(0.062,0.062)">
		<g transform="">
			<g>
				<path class="st0" d="M500,0H0v500C276.1,500,500,276.1,500,0z"/>
			</g>
		</g>
	</g>
	<g transform="translate(837,589) scale(0.062,0.062)">
		<g transform="">
			<path class="st0" d="M250,0c138.1,0,250,111.9,250,250c0,138.1-111.9,250-250,250C111.9,500,0,388.1,0,250C0,111.9,111.9,0,250,0
				z"/>
		</g>
	</g>
	<g transform="translate(961,589) scale(0.062,0.062)">
		<g transform="">
			<path class="st0" d="M0,250C0,191.7,0,0,0,0s170.2,0,250,0c62.3,0,250,0,250,0s0,174.3,0,250c0,138.1-111.9,250-250,250
				C111.9,500,0,388.1,0,250z"/>
		</g>
	</g>
	<g transform="translate(0,620) scale(0.062,0.062)">
		<g transform="">
			<path class="st0" d="M250,0c58.3,0,250,0,250,0s0,170.2,0,250c0,62.3,0,250,0,250s-174.2,0-250,0C111.9,500,0,388,0,250
				C0,112,111.9,0,250,0z"/>
		</g>
	</g>
	<g transform="translate(31,620) scale(0.062,0.062)">
		<g transform="">
			<g>
				<path class="st0" d="M0,0v500h500C500,223.9,276.1,0,0,0z"/>
			</g>
		</g>
	</g>
	<g transform="translate(93,620) scale(0.062,0.062)">
		<g transform="">
			<path class="st0" d="M250,0c58.3,0,250,0,250,0s0,170.2,0,250c0,62.3,0,250,0,250s-174.2,0-250,0C111.9,500,0,388,0,250
				C0,112,111.9,0,250,0z"/>
		</g>
	</g>
	<g transform="translate(124,620) scale(0.31,0.31)">
		<g transform="">
			<rect x="0" y="0" class="st0" width="100" height="100"/>
		</g>
	</g>
	<g transform="translate(155,620) scale(0.31,0.31)">
		<g transform="">
			<rect x="0" y="0" class="st0" width="100" height="100"/>
		</g>
	</g>
	<g transform="translate(186,620) scale(0.31,0.31)">
		<g transform="">
			<rect x="0" y="0" class="st0" width="100" height="100"/>
		</g>
	</g>
	<g transform="translate(217,620) scale(0.31,0.31)">
		<g transform="">
			<rect x="0" y="0" class="st0" width="100" height="100"/>
		</g>
	</g>
	<g transform="translate(248,620) scale(0.062,0.062)">
		<g transform="">
			<g>
				<path class="st0" d="M0,0v500h500C500,223.9,276.1,0,0,0z"/>
			</g>
		</g>
	</g>
	<g transform="translate(403,620) scale(0.062,0.062)">
		<g transform="">
			<path class="st0" d="M250,0c58.3,0,250,0,250,0s0,170.2,0,250c0,62.3,0,250,0,250s-174.2,0-250,0C111.9,500,0,388,0,250
				C0,112,111.9,0,250,0z"/>
		</g>
	</g>
	<g transform="translate(434,620) scale(0.31,0.31)">
		<g transform="">
			<rect x="0" y="0" class="st0" width="100" height="100"/>
		</g>
	</g>
	<g transform="translate(496,620) scale(0.31,0.31)">
		<g transform="">
			<rect x="0" y="0" class="st0" width="100" height="100"/>
		</g>
	</g>
	<g transform="translate(527,620) scale(0.31,0.31)">
		<g transform="">
			<rect x="0" y="0" class="st0" width="100" height="100"/>
		</g>
	</g>
	<g transform="translate(558,620) scale(0.31,0.31)">
		<g transform="">
			<rect x="0" y="0" class="st0" width="100" height="100"/>
		</g>
	</g>
	<g transform="translate(682,620) scale(0.062,0.062)">
		<g transform="">
			<g>
				<path class="st0" d="M0,500h500V0C223.9,0,0,223.9,0,500z"/>
			</g>
		</g>
	</g>
	<g transform="translate(713,620) scale(0.31,0.31)">
		<g transform="">
			<rect x="0" y="0" class="st0" width="100" height="100"/>
		</g>
	</g>
	<g transform="translate(744,620) scale(0.31,0.31)">
		<g transform="">
			<rect x="0" y="0" class="st0" width="100" height="100"/>
		</g>
	</g>
	<g transform="translate(992,620) scale(0.062,0.062)">
		<g transform="">
			<path class="st0" d="M500,250c0,58.3,0,250,0,250s-170.2,0-250,0c-62.3,0-250,0-250,0s0-174.2,0-250C0,111.9,111.9,0,250,0
				C388.1,0,500,111.9,500,250z"/>
		</g>
	</g>
	<g transform="translate(31,651) scale(0.31,0.31)">
		<g transform="">
			<rect x="0" y="0" class="st0" width="100" height="100"/>
		</g>
	</g>
	<g transform="translate(62,651) scale(0.062,0.062)">
		<g transform="">
			<path class="st0" d="M250,500c-58.3,0-250,0-250,0s0-170.2,0-250C0,187.7,0,0,0,0s174.3,0,250,0c138.1,0,250,111.9,250,250
				C500,388.1,388.1,500,250,500z"/>
		</g>
	</g>
	<g transform="translate(124,651) scale(0.062,0.062)">
		<g transform="">
			<path class="st0" d="M0,250C0,191.7,0,0,0,0s170.2,0,250,0c62.3,0,250,0,250,0s0,174.3,0,250c0,138.1-111.9,250-250,250
				C111.9,500,0,388.1,0,250z"/>
		</g>
	</g>
	<g transform="translate(248,651) scale(0.31,0.31)">
		<g transform="">
			<rect x="0" y="0" class="st0" width="100" height="100"/>
		</g>
	</g>
	<g transform="translate(279,651) scale(0.062,0.062)">
		<g transform="">
			<path class="st0" d="M250,500c-58.3,0-250,0-250,0s0-170.2,0-250C0,187.7,0,0,0,0s174.3,0,250,0c138.1,0,250,111.9,250,250
				C500,388.1,388.1,500,250,500z"/>
		</g>
	</g>
	<g transform="translate(434,651) scale(0.31,0.31)">
		<g transform="">
			<rect x="0" y="0" class="st0" width="100" height="100"/>
		</g>
	</g>
	<g transform="translate(465,651) scale(0.31,0.31)">
		<g transform="">
			<rect x="0" y="0" class="st0" width="100" height="100"/>
		</g>
	</g>
	<g transform="translate(496,651) scale(0.062,0.062)">
		<g transform="">
			<g>
				<path class="st0" d="M500,0H0v500C276.1,500,500,276.1,500,0z"/>
			</g>
		</g>
	</g>
	<g transform="translate(558,651) scale(0.062,0.062)">
		<g transform="">
			<g>
				<path class="st0" d="M500,500V0H0C0,276.1,223.9,500,500,500z"/>
			</g>
		</g>
	</g>
	<g transform="translate(589,651) scale(0.31,0.31)">
		<g transform="">
			<rect x="0" y="0" class="st0" width="100" height="100"/>
		</g>
	</g>
	<g transform="translate(620,651) scale(0.31,0.31)">
		<g transform="">
			<rect x="0" y="0" class="st0" width="100" height="100"/>
		</g>
	</g>
	<g transform="translate(651,651) scale(0.31,0.31)">
		<g transform="">
			<rect x="0" y="0" class="st0" width="100" height="100"/>
		</g>
	</g>
	<g transform="translate(682,651) scale(0.062,0.062)">
		<g transform="">
			<g>
				<path class="st0" d="M500,0H0v500C276.1,500,500,276.1,500,0z"/>
			</g>
		</g>
	</g>
	<g transform="translate(744,651) scale(0.062,0.062)">
		<g transform="">
			<g>
				<path class="st0" d="M500,500V0H0C0,276.1,223.9,500,500,500z"/>
			</g>
		</g>
	</g>
	<g transform="translate(775,651) scale(0.31,0.31)">
		<g transform="">
			<rect x="0" y="0" class="st0" width="100" height="100"/>
		</g>
	</g>
	<g transform="translate(806,651) scale(0.062,0.062)">
		<g transform="">
			<g>
				<path class="st0" d="M0,0v500h500C500,223.9,276.1,0,0,0z"/>
			</g>
		</g>
	</g>
	<g transform="translate(899,651) scale(0.062,0.062)">
		<g transform="">
			<path class="st0" d="M250,0c138.1,0,250,111.9,250,250c0,138.1-111.9,250-250,250C111.9,500,0,388.1,0,250C0,111.9,111.9,0,250,0
				z"/>
		</g>
	</g>
	<g transform="translate(961,651) scale(0.062,0.062)">
		<g transform="">
			<path class="st0" d="M250,0c58.3,0,250,0,250,0s0,170.2,0,250c0,62.3,0,250,0,250s-174.2,0-250,0C111.9,500,0,388,0,250
				C0,112,111.9,0,250,0z"/>
		</g>
	</g>
	<g transform="translate(992,651) scale(0.31,0.31)">
		<g transform="">
			<rect x="0" y="0" class="st0" width="100" height="100"/>
		</g>
	</g>
	<g transform="translate(0,682) scale(0.062,0.062)">
		<g transform="">
			<path class="st0" d="M250,0c58.3,0,250,0,250,0s0,170.2,0,250c0,62.3,0,250,0,250s-174.2,0-250,0C111.9,500,0,388,0,250
				C0,112,111.9,0,250,0z"/>
		</g>
	</g>
	<g transform="translate(31,682) scale(0.31,0.31)">
		<g transform="">
			<rect x="0" y="0" class="st0" width="100" height="100"/>
		</g>
	</g>
	<g transform="translate(186,682) scale(0.062,0.062)">
		<g transform="">
			<path class="st0" d="M250,0c58.3,0,250,0,250,0s0,170.2,0,250c0,62.3,0,250,0,250s-174.2,0-250,0C111.9,500,0,388,0,250
				C0,112,111.9,0,250,0z"/>
		</g>
	</g>
	<g transform="translate(217,682) scale(0.31,0.31)">
		<g transform="">
			<rect x="0" y="0" class="st0" width="100" height="100"/>
		</g>
	</g>
	<g transform="translate(248,682) scale(0.062,0.062)">
		<g transform="">
			<g>
				<path class="st0" d="M500,0H0v500C276.1,500,500,276.1,500,0z"/>
			</g>
		</g>
	</g>
	<g transform="translate(403,682) scale(0.062,0.062)">
		<g transform="">
			<g>
				<path class="st0" d="M0,500h500V0C223.9,0,0,223.9,0,500z"/>
			</g>
		</g>
	</g>
	<g transform="translate(434,682) scale(0.31,0.31)">
		<g transform="">
			<rect x="0" y="0" class="st0" width="100" height="100"/>
		</g>
	</g>
	<g transform="translate(465,682) scale(0.062,0.062)">
		<g transform="">
			<g>
				<path class="st0" d="M500,0H0v500C276.1,500,500,276.1,500,0z"/>
			</g>
		</g>
	</g>
	<g transform="translate(527,682) scale(0.062,0.062)">
		<g transform="">
			<path class="st0" d="M250,0c138.1,0,250,111.9,250,250c0,138.1-111.9,250-250,250C111.9,500,0,388.1,0,250C0,111.9,111.9,0,250,0
				z"/>
		</g>
	</g>
	<g transform="translate(620,682) scale(0.062,0.062)">
		<g transform="">
			<g>
				<path class="st0" d="M500,500V0H0C0,276.1,223.9,500,500,500z"/>
			</g>
		</g>
	</g>
	<g transform="translate(651,682) scale(0.31,0.31)">
		<g transform="">
			<rect x="0" y="0" class="st0" width="100" height="100"/>
		</g>
	</g>
	<g transform="translate(775,682) scale(0.31,0.31)">
		<g transform="">
			<rect x="0" y="0" class="st0" width="100" height="100"/>
		</g>
	</g>
	<g transform="translate(806,682) scale(0.31,0.31)">
		<g transform="">
			<rect x="0" y="0" class="st0" width="100" height="100"/>
		</g>
	</g>
	<g transform="translate(930,682) scale(0.062,0.062)">
		<g transform="">
			<path class="st0" d="M250,0c138.1,0,250,111.9,250,250c0,138.1-111.9,250-250,250C111.9,500,0,388.1,0,250C0,111.9,111.9,0,250,0
				z"/>
		</g>
	</g>
	<g transform="translate(992,682) scale(0.31,0.31)">
		<g transform="">
			<rect x="0" y="0" class="st0" width="100" height="100"/>
		</g>
	</g>
	<g transform="translate(31,713) scale(0.062,0.062)">
		<g transform="">
			<g>
				<path class="st0" d="M500,500V0H0C0,276.1,223.9,500,500,500z"/>
			</g>
		</g>
	</g>
	<g transform="translate(62,713) scale(0.31,0.31)">
		<g transform="">
			<rect x="0" y="0" class="st0" width="100" height="100"/>
		</g>
	</g>
	<g transform="translate(93,713) scale(0.31,0.31)">
		<g transform="">
			<rect x="0" y="0" class="st0" width="100" height="100"/>
		</g>
	</g>
	<g transform="translate(124,713) scale(0.062,0.062)">
		<g transform="">
			<path class="st0" d="M250,500c-58.3,0-250,0-250,0s0-170.2,0-250C0,187.7,0,0,0,0s174.3,0,250,0c138.1,0,250,111.9,250,250
				C500,388.1,388.1,500,250,500z"/>
		</g>
	</g>
	<g transform="translate(217,713) scale(0.062,0.062)">
		<g transform="">
			<path class="st0" d="M0,250C0,191.7,0,0,0,0s170.2,0,250,0c62.3,0,250,0,250,0s0,174.3,0,250c0,138.1-111.9,250-250,250
				C111.9,500,0,388.1,0,250z"/>
		</g>
	</g>
	<g transform="translate(279,713) scale(0.062,0.062)">
		<g transform="">
			<path class="st0" d="M250,0c138.1,0,250,111.9,250,250c0,138.1-111.9,250-250,250C111.9,500,0,388.1,0,250C0,111.9,111.9,0,250,0
				z"/>
		</g>
	</g>
	<g transform="translate(403,713) scale(0.062,0.062)">
		<g transform="">
			<path class="st0" d="M0,250C0,191.7,0,0,0,0s170.2,0,250,0c62.3,0,250,0,250,0s0,174.3,0,250c0,138.1-111.9,250-250,250
				C111.9,500,0,388.1,0,250z"/>
		</g>
	</g>
	<g transform="translate(496,713) scale(0.062,0.062)">
		<g transform="">
			<path class="st0" d="M500,250c0,58.3,0,250,0,250s-170.2,0-250,0c-62.3,0-250,0-250,0s0-174.2,0-250C0,111.9,111.9,0,250,0
				C388.1,0,500,111.9,500,250z"/>
		</g>
	</g>
	<g transform="translate(651,713) scale(0.31,0.31)">
		<g transform="">
			<rect x="0" y="0" class="st0" width="100" height="100"/>
		</g>
	</g>
	<g transform="translate(682,713) scale(0.31,0.31)">
		<g transform="">
			<rect x="0" y="0" class="st0" width="100" height="100"/>
		</g>
	</g>
	<g transform="translate(713,713) scale(0.062,0.062)">
		<g transform="">
			<path class="st0" d="M250,500c-58.3,0-250,0-250,0s0-170.2,0-250C0,187.7,0,0,0,0s174.3,0,250,0c138.1,0,250,111.9,250,250
				C500,388.1,388.1,500,250,500z"/>
		</g>
	</g>
	<g transform="translate(775,713) scale(0.31,0.31)">
		<g transform="">
			<rect x="0" y="0" class="st0" width="100" height="100"/>
		</g>
	</g>
	<g transform="translate(806,713) scale(0.31,0.31)">
		<g transform="">
			<rect x="0" y="0" class="st0" width="100" height="100"/>
		</g>
	</g>
	<g transform="translate(837,713) scale(0.31,0.31)">
		<g transform="">
			<rect x="0" y="0" class="st0" width="100" height="100"/>
		</g>
	</g>
	<g transform="translate(868,713) scale(0.31,0.31)">
		<g transform="">
			<rect x="0" y="0" class="st0" width="100" height="100"/>
		</g>
	</g>
	<g transform="translate(899,713) scale(0.062,0.062)">
		<g transform="">
			<g>
				<path class="st0" d="M0,0v500h500C500,223.9,276.1,0,0,0z"/>
			</g>
		</g>
	</g>
	<g transform="translate(992,713) scale(0.062,0.062)">
		<g transform="">
			<path class="st0" d="M0,250C0,191.7,0,0,0,0s170.2,0,250,0c62.3,0,250,0,250,0s0,174.3,0,250c0,138.1-111.9,250-250,250
				C111.9,500,0,388.1,0,250z"/>
		</g>
	</g>
	<g transform="translate(0,744) scale(0.062,0.062)">
		<g transform="">
			<path class="st0" d="M250,0c138.1,0,250,111.9,250,250c0,138.1-111.9,250-250,250C111.9,500,0,388.1,0,250C0,111.9,111.9,0,250,0
				z"/>
		</g>
	</g>
	<g transform="translate(155,744) scale(0.062,0.062)">
		<g transform="">
			<path class="st0" d="M250,0c58.3,0,250,0,250,0s0,170.2,0,250c0,62.3,0,250,0,250s-174.2,0-250,0C111.9,500,0,388,0,250
				C0,112,111.9,0,250,0z"/>
		</g>
	</g>
	<g transform="translate(186,744) scale(0.062,0.062)">
		<g transform="">
			<path class="st0" d="M250,500c-58.3,0-250,0-250,0s0-170.2,0-250C0,187.7,0,0,0,0s174.3,0,250,0c138.1,0,250,111.9,250,250
				C500,388.1,388.1,500,250,500z"/>
		</g>
	</g>
	<g transform="translate(310,744) scale(0.062,0.062)">
		<g transform="">
			<path class="st0" d="M500,250c0,58.3,0,250,0,250s-170.2,0-250,0c-62.3,0-250,0-250,0s0-174.2,0-250C0,111.9,111.9,0,250,0
				C388.1,0,500,111.9,500,250z"/>
		</g>
	</g>
	<g transform="translate(372,744) scale(0.062,0.062)">
		<g transform="">
			<path class="st0" d="M250,0c138.1,0,250,111.9,250,250c0,138.1-111.9,250-250,250C111.9,500,0,388.1,0,250C0,111.9,111.9,0,250,0
				z"/>
		</g>
	</g>
	<g transform="translate(434,744) scale(0.062,0.062)">
		<g transform="">
			<path class="st0" d="M250,0c58.3,0,250,0,250,0s0,170.2,0,250c0,62.3,0,250,0,250s-174.2,0-250,0C111.9,500,0,388,0,250
				C0,112,111.9,0,250,0z"/>
		</g>
	</g>
	<g transform="translate(465,744) scale(0.31,0.31)">
		<g transform="">
			<rect x="0" y="0" class="st0" width="100" height="100"/>
		</g>
	</g>
	<g transform="translate(496,744) scale(0.31,0.31)">
		<g transform="">
			<rect x="0" y="0" class="st0" width="100" height="100"/>
		</g>
	</g>
	<g transform="translate(527,744) scale(0.062,0.062)">
		<g transform="">
			<path class="st0" d="M250,500c-58.3,0-250,0-250,0s0-170.2,0-250C0,187.7,0,0,0,0s174.3,0,250,0c138.1,0,250,111.9,250,250
				C500,388.1,388.1,500,250,500z"/>
		</g>
	</g>
	<g transform="translate(589,744) scale(0.062,0.062)">
		<g transform="">
			<path class="st0" d="M500,250c0,58.3,0,250,0,250s-170.2,0-250,0c-62.3,0-250,0-250,0s0-174.2,0-250C0,111.9,111.9,0,250,0
				C388.1,0,500,111.9,500,250z"/>
		</g>
	</g>
	<g transform="translate(651,744) scale(0.062,0.062)">
		<g transform="">
			<path class="st0" d="M0,250C0,191.7,0,0,0,0s170.2,0,250,0c62.3,0,250,0,250,0s0,174.3,0,250c0,138.1-111.9,250-250,250
				C111.9,500,0,388.1,0,250z"/>
		</g>
	</g>
	<g transform="translate(744,744) scale(0.062,0.062)">
		<g transform="">
			<g>
				<path class="st0" d="M0,500h500V0C223.9,0,0,223.9,0,500z"/>
			</g>
		</g>
	</g>
	<g transform="translate(775,744) scale(0.31,0.31)">
		<g transform="">
			<rect x="0" y="0" class="st0" width="100" height="100"/>
		</g>
	</g>
	<g transform="translate(806,744) scale(0.31,0.31)">
		<g transform="">
			<rect x="0" y="0" class="st0" width="100" height="100"/>
		</g>
	</g>
	<g transform="translate(837,744) scale(0.31,0.31)">
		<g transform="">
			<rect x="0" y="0" class="st0" width="100" height="100"/>
		</g>
	</g>
	<g transform="translate(868,744) scale(0.31,0.31)">
		<g transform="">
			<rect x="0" y="0" class="st0" width="100" height="100"/>
		</g>
	</g>
	<g transform="translate(899,744) scale(0.31,0.31)">
		<g transform="">
			<rect x="0" y="0" class="st0" width="100" height="100"/>
		</g>
	</g>
	<g transform="translate(961,744) scale(0.062,0.062)">
		<g transform="">
			<path class="st0" d="M500,250c0,58.3,0,250,0,250s-170.2,0-250,0c-62.3,0-250,0-250,0s0-174.2,0-250C0,111.9,111.9,0,250,0
				C388.1,0,500,111.9,500,250z"/>
		</g>
	</g>
	<g transform="translate(248,775) scale(0.062,0.062)">
		<g transform="">
			<path class="st0" d="M250,0c138.1,0,250,111.9,250,250c0,138.1-111.9,250-250,250C111.9,500,0,388.1,0,250C0,111.9,111.9,0,250,0
				z"/>
		</g>
	</g>
	<g transform="translate(310,775) scale(0.062,0.062)">
		<g transform="">
			<path class="st0" d="M0,250C0,191.7,0,0,0,0s170.2,0,250,0c62.3,0,250,0,250,0s0,174.3,0,250c0,138.1-111.9,250-250,250
				C111.9,500,0,388.1,0,250z"/>
		</g>
	</g>
	<g transform="translate(558,775) scale(0.062,0.062)">
		<g transform="">
			<path class="st0" d="M250,0c58.3,0,250,0,250,0s0,170.2,0,250c0,62.3,0,250,0,250s-174.2,0-250,0C111.9,500,0,388,0,250
				C0,112,111.9,0,250,0z"/>
		</g>
	</g>
	<g transform="translate(589,775) scale(0.31,0.31)">
		<g transform="">
			<rect x="0" y="0" class="st0" width="100" height="100"/>
		</g>
	</g>
	<g transform="translate(620,775) scale(0.062,0.062)">
		<g transform="">
			<g>
				<path class="st0" d="M0,0v500h500C500,223.9,276.1,0,0,0z"/>
			</g>
		</g>
	</g>
	<g transform="translate(713,775) scale(0.062,0.062)">
		<g transform="">
			<path class="st0" d="M250,0c58.3,0,250,0,250,0s0,170.2,0,250c0,62.3,0,250,0,250s-174.2,0-250,0C111.9,500,0,388,0,250
				C0,112,111.9,0,250,0z"/>
		</g>
	</g>
	<g transform="translate(744,775) scale(0.31,0.31)">
		<g transform="">
			<rect x="0" y="0" class="st0" width="100" height="100"/>
		</g>
	</g>
	<g transform="translate(868,775) scale(0.31,0.31)">
		<g transform="">
			<rect x="0" y="0" class="st0" width="100" height="100"/>
		</g>
	</g>
	<g transform="translate(899,775) scale(0.31,0.31)">
		<g transform="">
			<rect x="0" y="0" class="st0" width="100" height="100"/>
		</g>
	</g>
	<g transform="translate(961,775) scale(0.31,0.31)">
		<g transform="">
			<rect x="0" y="0" class="st0" width="100" height="100"/>
		</g>
	</g>
	<g transform="translate(992,775) scale(0.062,0.062)">
		<g transform="">
			<path class="st0" d="M250,500c-58.3,0-250,0-250,0s0-170.2,0-250C0,187.7,0,0,0,0s174.3,0,250,0c138.1,0,250,111.9,250,250
				C500,388.1,388.1,500,250,500z"/>
		</g>
	</g>
	<g transform="translate(372,806) scale(0.062,0.062)">
		<g transform="">
			<path class="st0" d="M250,0c58.3,0,250,0,250,0s0,170.2,0,250c0,62.3,0,250,0,250s-174.2,0-250,0C111.9,500,0,388,0,250
				C0,112,111.9,0,250,0z"/>
		</g>
	</g>
	<g transform="translate(403,806) scale(0.062,0.062)">
		<g transform="">
			<g>
				<path class="st0" d="M0,0v500h500C500,223.9,276.1,0,0,0z"/>
			</g>
		</g>
	</g>
	<g transform="translate(496,806) scale(0.062,0.062)">
		<g transform="">
			<path class="st0" d="M500,250c0,58.3,0,250,0,250s-170.2,0-250,0c-62.3,0-250,0-250,0s0-174.2,0-250C0,111.9,111.9,0,250,0
				C388.1,0,500,111.9,500,250z"/>
		</g>
	</g>
	<g transform="translate(620,806) scale(0.31,0.31)">
		<g transform="">
			<rect x="0" y="0" class="st0" width="100" height="100"/>
		</g>
	</g>
	<g transform="translate(651,806) scale(0.062,0.062)">
		<g transform="">
			<path class="st0" d="M250,500c-58.3,0-250,0-250,0s0-170.2,0-250C0,187.7,0,0,0,0s174.3,0,250,0c138.1,0,250,111.9,250,250
				C500,388.1,388.1,500,250,500z"/>
		</g>
	</g>
	<g transform="translate(744,806) scale(0.31,0.31)">
		<g transform="">
			<rect x="0" y="0" class="st0" width="100" height="100"/>
		</g>
	</g>
	<g transform="translate(806,806) scale(0.062,0.062)">
		<g transform="">
			<path class="st0" d="M250,0c138.1,0,250,111.9,250,250c0,138.1-111.9,250-250,250C111.9,500,0,388.1,0,250C0,111.9,111.9,0,250,0
				z"/>
		</g>
	</g>
	<g transform="translate(868,806) scale(0.31,0.31)">
		<g transform="">
			<rect x="0" y="0" class="st0" width="100" height="100"/>
		</g>
	</g>
	<g transform="translate(899,806) scale(0.31,0.31)">
		<g transform="">
			<rect x="0" y="0" class="st0" width="100" height="100"/>
		</g>
	</g>
	<g transform="translate(930,806) scale(0.31,0.31)">
		<g transform="">
			<rect x="0" y="0" class="st0" width="100" height="100"/>
		</g>
	</g>
	<g transform="translate(961,806) scale(0.062,0.062)">
		<g transform="">
			<g>
				<path class="st0" d="M500,0H0v500C276.1,500,500,276.1,500,0z"/>
			</g>
		</g>
	</g>
	<g transform="translate(248,837) scale(0.062,0.062)">
		<g transform="">
			<path class="st0" d="M250,0c58.3,0,250,0,250,0s0,170.2,0,250c0,62.3,0,250,0,250s-174.2,0-250,0C111.9,500,0,388,0,250
				C0,112,111.9,0,250,0z"/>
		</g>
	</g>
	<g transform="translate(279,837) scale(0.062,0.062)">
		<g transform="">
			<path class="st0" d="M250,500c-58.3,0-250,0-250,0s0-170.2,0-250C0,187.7,0,0,0,0s174.3,0,250,0c138.1,0,250,111.9,250,250
				C500,388.1,388.1,500,250,500z"/>
		</g>
	</g>
	<g transform="translate(403,837) scale(0.062,0.062)">
		<g transform="">
			<path class="st0" d="M0,250C0,191.7,0,0,0,0s170.2,0,250,0c62.3,0,250,0,250,0s0,174.3,0,250c0,138.1-111.9,250-250,250
				C111.9,500,0,388.1,0,250z"/>
		</g>
	</g>
	<g transform="translate(496,837) scale(0.31,0.31)">
		<g transform="">
			<rect x="0" y="0" class="st0" width="100" height="100"/>
		</g>
	</g>
	<g transform="translate(589,837) scale(0.062,0.062)">
		<g transform="">
			<g>
				<path class="st0" d="M0,500h500V0C223.9,0,0,223.9,0,500z"/>
			</g>
		</g>
	</g>
	<g transform="translate(620,837) scale(0.062,0.062)">
		<g transform="">
			<g>
				<path class="st0" d="M500,0H0v500C276.1,500,500,276.1,500,0z"/>
			</g>
		</g>
	</g>
	<g transform="translate(744,837) scale(0.31,0.31)">
		<g transform="">
			<rect x="0" y="0" class="st0" width="100" height="100"/>
		</g>
	</g>
	<g transform="translate(868,837) scale(0.31,0.31)">
		<g transform="">
			<rect x="0" y="0" class="st0" width="100" height="100"/>
		</g>
	</g>
	<g transform="translate(341,868) scale(0.062,0.062)">
		<g transform="">
			<path class="st0" d="M500,250c0,58.3,0,250,0,250s-170.2,0-250,0c-62.3,0-250,0-250,0s0-174.2,0-250C0,111.9,111.9,0,250,0
				C388.1,0,500,111.9,500,250z"/>
		</g>
	</g>
	<g transform="translate(434,868) scale(0.062,0.062)">
		<g transform="">
			<g>
				<path class="st0" d="M0,500h500V0C223.9,0,0,223.9,0,500z"/>
			</g>
		</g>
	</g>
	<g transform="translate(465,868) scale(0.31,0.31)">
		<g transform="">
			<rect x="0" y="0" class="st0" width="100" height="100"/>
		</g>
	</g>
	<g transform="translate(496,868) scale(0.062,0.062)">
		<g transform="">
			<g>
				<path class="st0" d="M500,0H0v500C276.1,500,500,276.1,500,0z"/>
			</g>
		</g>
	</g>
	<g transform="translate(589,868) scale(0.31,0.31)">
		<g transform="">
			<rect x="0" y="0" class="st0" width="100" height="100"/>
		</g>
	</g>
	<g transform="translate(682,868) scale(0.062,0.062)">
		<g transform="">
			<path class="st0" d="M250,0c138.1,0,250,111.9,250,250c0,138.1-111.9,250-250,250C111.9,500,0,388.1,0,250C0,111.9,111.9,0,250,0
				z"/>
		</g>
	</g>
	<g transform="translate(744,868) scale(0.31,0.31)">
		<g transform="">
			<rect x="0" y="0" class="st0" width="100" height="100"/>
		</g>
	</g>
	<g transform="translate(775,868) scale(0.31,0.31)">
		<g transform="">
			<rect x="0" y="0" class="st0" width="100" height="100"/>
		</g>
	</g>
	<g transform="translate(806,868) scale(0.31,0.31)">
		<g transform="">
			<rect x="0" y="0" class="st0" width="100" height="100"/>
		</g>
	</g>
	<g transform="translate(837,868) scale(0.31,0.31)">
		<g transform="">
			<rect x="0" y="0" class="st0" width="100" height="100"/>
		</g>
	</g>
	<g transform="translate(868,868) scale(0.31,0.31)">
		<g transform="">
			<rect x="0" y="0" class="st0" width="100" height="100"/>
		</g>
	</g>
	<g transform="translate(899,868) scale(0.062,0.062)">
		<g transform="">
			<path class="st0" d="M250,500c-58.3,0-250,0-250,0s0-170.2,0-250C0,187.7,0,0,0,0s174.3,0,250,0c138.1,0,250,111.9,250,250
				C500,388.1,388.1,500,250,500z"/>
		</g>
	</g>
	<g transform="translate(961,868) scale(0.062,0.062)">
		<g transform="">
			<g>
				<path class="st0" d="M0,500h500V0C223.9,0,0,223.9,0,500z"/>
			</g>
		</g>
	</g>
	<g transform="translate(992,868) scale(0.062,0.062)">
		<g transform="">
			<path class="st0" d="M250,500c-58.3,0-250,0-250,0s0-170.2,0-250C0,187.7,0,0,0,0s174.3,0,250,0c138.1,0,250,111.9,250,250
				C500,388.1,388.1,500,250,500z"/>
		</g>
	</g>
	<g transform="translate(248,899) scale(0.062,0.062)">
		<g transform="">
			<path class="st0" d="M250,0c58.3,0,250,0,250,0s0,170.2,0,250c0,62.3,0,250,0,250s-174.2,0-250,0C111.9,500,0,388,0,250
				C0,112,111.9,0,250,0z"/>
		</g>
	</g>
	<g transform="translate(279,899) scale(0.31,0.31)">
		<g transform="">
			<rect x="0" y="0" class="st0" width="100" height="100"/>
		</g>
	</g>
	<g transform="translate(310,899) scale(0.31,0.31)">
		<g transform="">
			<rect x="0" y="0" class="st0" width="100" height="100"/>
		</g>
	</g>
	<g transform="translate(341,899) scale(0.062,0.062)">
		<g transform="">
			<g>
				<path class="st0" d="M500,0H0v500C276.1,500,500,276.1,500,0z"/>
			</g>
		</g>
	</g>
	<g transform="translate(403,899) scale(0.062,0.062)">
		<g transform="">
			<path class="st0" d="M250,0c58.3,0,250,0,250,0s0,170.2,0,250c0,62.3,0,250,0,250s-174.2,0-250,0C111.9,500,0,388,0,250
				C0,112,111.9,0,250,0z"/>
		</g>
	</g>
	<g transform="translate(434,899) scale(0.31,0.31)">
		<g transform="">
			<rect x="0" y="0" class="st0" width="100" height="100"/>
		</g>
	</g>
	<g transform="translate(465,899) scale(0.062,0.062)">
		<g transform="">
			<g>
				<path class="st0" d="M500,0H0v500C276.1,500,500,276.1,500,0z"/>
			</g>
		</g>
	</g>
	<g transform="translate(527,899) scale(0.062,0.062)">
		<g transform="">
			<path class="st0" d="M250,0c138.1,0,250,111.9,250,250c0,138.1-111.9,250-250,250C111.9,500,0,388.1,0,250C0,111.9,111.9,0,250,0
				z"/>
		</g>
	</g>
	<g transform="translate(589,899) scale(0.062,0.062)">
		<g transform="">
			<g>
				<path class="st0" d="M500,500V0H0C0,276.1,223.9,500,500,500z"/>
			</g>
		</g>
	</g>
	<g transform="translate(620,899) scale(0.31,0.31)">
		<g transform="">
			<rect x="0" y="0" class="st0" width="100" height="100"/>
		</g>
	</g>
	<g transform="translate(651,899) scale(0.062,0.062)">
		<g transform="">
			<g>
				<path class="st0" d="M0,0v500h500C500,223.9,276.1,0,0,0z"/>
			</g>
		</g>
	</g>
	<g transform="translate(744,899) scale(0.31,0.31)">
		<g transform="">
			<rect x="0" y="0" class="st0" width="100" height="100"/>
		</g>
	</g>
	<g transform="translate(806,899) scale(0.062,0.062)">
		<g transform="">
			<path class="st0" d="M0,250C0,191.7,0,0,0,0s170.2,0,250,0c62.3,0,250,0,250,0s0,174.3,0,250c0,138.1-111.9,250-250,250
				C111.9,500,0,388.1,0,250z"/>
		</g>
	</g>
	<g transform="translate(868,899) scale(0.31,0.31)">
		<g transform="">
			<rect x="0" y="0" class="st0" width="100" height="100"/>
		</g>
	</g>
	<g transform="translate(961,899) scale(0.062,0.062)">
		<g transform="">
			<path class="st0" d="M0,250C0,191.7,0,0,0,0s170.2,0,250,0c62.3,0,250,0,250,0s0,174.3,0,250c0,138.1-111.9,250-250,250
				C111.9,500,0,388.1,0,250z"/>
		</g>
	</g>
	<g transform="translate(279,930) scale(0.062,0.062)">
		<g transform="">
			<g>
				<path class="st0" d="M500,500V0H0C0,276.1,223.9,500,500,500z"/>
			</g>
		</g>
	</g>
	<g transform="translate(310,930) scale(0.062,0.062)">
		<g transform="">
			<g>
				<path class="st0" d="M500,0H0v500C276.1,500,500,276.1,500,0z"/>
			</g>
		</g>
	</g>
	<g transform="translate(434,930) scale(0.062,0.062)">
		<g transform="">
			<path class="st0" d="M0,250C0,191.7,0,0,0,0s170.2,0,250,0c62.3,0,250,0,250,0s0,174.3,0,250c0,138.1-111.9,250-250,250
				C111.9,500,0,388.1,0,250z"/>
		</g>
	</g>
	<g transform="translate(558,930) scale(0.062,0.062)">
		<g transform="">
			<path class="st0" d="M500,250c0,58.3,0,250,0,250s-170.2,0-250,0c-62.3,0-250,0-250,0s0-174.2,0-250C0,111.9,111.9,0,250,0
				C388.1,0,500,111.9,500,250z"/>
		</g>
	</g>
	<g transform="translate(651,930) scale(0.31,0.31)">
		<g transform="">
			<rect x="0" y="0" class="st0" width="100" height="100"/>
		</g>
	</g>
	<g transform="translate(682,930) scale(0.062,0.062)">
		<g transform="">
			<g>
				<path class="st0" d="M0,0v500h500C500,223.9,276.1,0,0,0z"/>
			</g>
		</g>
	</g>
	<g transform="translate(744,930) scale(0.31,0.31)">
		<g transform="">
			<rect x="0" y="0" class="st0" width="100" height="100"/>
		</g>
	</g>
	<g transform="translate(775,930) scale(0.062,0.062)">
		<g transform="">
			<g>
				<path class="st0" d="M0,0v500h500C500,223.9,276.1,0,0,0z"/>
			</g>
		</g>
	</g>
	<g transform="translate(868,930) scale(0.062,0.062)">
		<g transform="">
			<path class="st0" d="M0,250C0,191.7,0,0,0,0s170.2,0,250,0c62.3,0,250,0,250,0s0,174.3,0,250c0,138.1-111.9,250-250,250
				C111.9,500,0,388.1,0,250z"/>
		</g>
	</g>
	<g transform="translate(930,930) scale(0.062,0.062)">
		<g transform="">
			<path class="st0" d="M250,0c138.1,0,250,111.9,250,250c0,138.1-111.9,250-250,250C111.9,500,0,388.1,0,250C0,111.9,111.9,0,250,0
				z"/>
		</g>
	</g>
	<g transform="translate(992,930) scale(0.062,0.062)">
		<g transform="">
			<path class="st0" d="M250,0c138.1,0,250,111.9,250,250c0,138.1-111.9,250-250,250C111.9,500,0,388.1,0,250C0,111.9,111.9,0,250,0
				z"/>
		</g>
	</g>
	<g transform="translate(341,961) scale(0.062,0.062)">
		<g transform="">
			<path class="st0" d="M250,0c58.3,0,250,0,250,0s0,170.2,0,250c0,62.3,0,250,0,250s-174.2,0-250,0C111.9,500,0,388,0,250
				C0,112,111.9,0,250,0z"/>
		</g>
	</g>
	<g transform="translate(372,961) scale(0.31,0.31)">
		<g transform="">
			<rect x="0" y="0" class="st0" width="100" height="100"/>
		</g>
	</g>
	<g transform="translate(403,961) scale(0.062,0.062)">
		<g transform="">
			<path class="st0" d="M250,500c-58.3,0-250,0-250,0s0-170.2,0-250C0,187.7,0,0,0,0s174.3,0,250,0c138.1,0,250,111.9,250,250
				C500,388.1,388.1,500,250,500z"/>
		</g>
	</g>
	<g transform="translate(465,961) scale(0.062,0.062)">
		<g transform="">
			<path class="st0" d="M250,0c58.3,0,250,0,250,0s0,170.2,0,250c0,62.3,0,250,0,250s-174.2,0-250,0C111.9,500,0,388,0,250
				C0,112,111.9,0,250,0z"/>
		</g>
	</g>
	<g transform="translate(496,961) scale(0.31,0.31)">
		<g transform="">
			<rect x="0" y="0" class="st0" width="100" height="100"/>
		</g>
	</g>
	<g transform="translate(527,961) scale(0.31,0.31)">
		<g transform="">
			<rect x="0" y="0" class="st0" width="100" height="100"/>
		</g>
	</g>
	<g transform="translate(558,961) scale(0.31,0.31)">
		<g transform="">
			<rect x="0" y="0" class="st0" width="100" height="100"/>
		</g>
	</g>
	<g transform="translate(651,961) scale(0.31,0.31)">
		<g transform="">
			<rect x="0" y="0" class="st0" width="100" height="100"/>
		</g>
	</g>
	<g transform="translate(682,961) scale(0.31,0.31)">
		<g transform="">
			<rect x="0" y="0" class="st0" width="100" height="100"/>
		</g>
	</g>
	<g transform="translate(713,961) scale(0.31,0.31)">
		<g transform="">
			<rect x="0" y="0" class="st0" width="100" height="100"/>
		</g>
	</g>
	<g transform="translate(744,961) scale(0.31,0.31)">
		<g transform="">
			<rect x="0" y="0" class="st0" width="100" height="100"/>
		</g>
	</g>
	<g transform="translate(775,961) scale(0.31,0.31)">
		<g transform="">
			<rect x="0" y="0" class="st0" width="100" height="100"/>
		</g>
	</g>
	<g transform="translate(806,961) scale(0.062,0.062)">
		<g transform="">
			<g>
				<path class="st0" d="M0,0v500h500C500,223.9,276.1,0,0,0z"/>
			</g>
		</g>
	</g>
	<g transform="translate(248,992) scale(0.062,0.062)">
		<g transform="">
			<path class="st0" d="M250,0c58.3,0,250,0,250,0s0,170.2,0,250c0,62.3,0,250,0,250s-174.2,0-250,0C111.9,500,0,388,0,250
				C0,112,111.9,0,250,0z"/>
		</g>
	</g>
	<g transform="translate(279,992) scale(0.062,0.062)">
		<g transform="">
			<path class="st0" d="M250,500c-58.3,0-250,0-250,0s0-170.2,0-250C0,187.7,0,0,0,0s174.3,0,250,0c138.1,0,250,111.9,250,250
				C500,388.1,388.1,500,250,500z"/>
		</g>
	</g>
	<g transform="translate(372,992) scale(0.062,0.062)">
		<g transform="">
			<path class="st0" d="M0,250C0,191.7,0,0,0,0s170.2,0,250,0c62.3,0,250,0,250,0s0,174.3,0,250c0,138.1-111.9,250-250,250
				C111.9,500,0,388.1,0,250z"/>
		</g>
	</g>
	<g transform="translate(434,992) scale(0.062,0.062)">
		<g transform="">
			<path class="st0" d="M250,0c138.1,0,250,111.9,250,250c0,138.1-111.9,250-250,250C111.9,500,0,388.1,0,250C0,111.9,111.9,0,250,0
				z"/>
		</g>
	</g>
	<g transform="translate(496,992) scale(0.062,0.062)">
		<g transform="">
			<path class="st0" d="M0,250C0,191.7,0,0,0,0s170.2,0,250,0c62.3,0,250,0,250,0s0,174.3,0,250c0,138.1-111.9,250-250,250
				C111.9,500,0,388.1,0,250z"/>
		</g>
	</g>
	<g transform="translate(558,992) scale(0.062,0.062)">
		<g transform="">
			<path class="st0" d="M0,250C0,191.7,0,0,0,0s170.2,0,250,0c62.3,0,250,0,250,0s0,174.3,0,250c0,138.1-111.9,250-250,250
				C111.9,500,0,388.1,0,250z"/>
		</g>
	</g>
	<g transform="translate(620,992) scale(0.062,0.062)">
		<g transform="">
			<path class="st0" d="M250,0c58.3,0,250,0,250,0s0,170.2,0,250c0,62.3,0,250,0,250s-174.2,0-250,0C111.9,500,0,388,0,250
				C0,112,111.9,0,250,0z"/>
		</g>
	</g>
	<g transform="translate(651,992) scale(0.062,0.062)">
		<g transform="">
			<g>
				<path class="st0" d="M500,0H0v500C276.1,500,500,276.1,500,0z"/>
			</g>
		</g>
	</g>
	<g transform="translate(744,992) scale(0.062,0.062)">
		<g transform="">
			<path class="st0" d="M0,250C0,191.7,0,0,0,0s170.2,0,250,0c62.3,0,250,0,250,0s0,174.3,0,250c0,138.1-111.9,250-250,250
				C111.9,500,0,388.1,0,250z"/>
		</g>
	</g>
	<g transform="translate(806,992) scale(0.062,0.062)">
		<g transform="">
			<path class="st0" d="M0,250C0,191.7,0,0,0,0s170.2,0,250,0c62.3,0,250,0,250,0s0,174.3,0,250c0,138.1-111.9,250-250,250
				C111.9,500,0,388.1,0,250z"/>
		</g>
	</g>
	<g transform="translate(868,992) scale(0.062,0.062)">
		<g transform="">
			<path class="st0" d="M250,0c58.3,0,250,0,250,0s0,170.2,0,250c0,62.3,0,250,0,250s-174.2,0-250,0C111.9,500,0,388,0,250
				C0,112,111.9,0,250,0z"/>
		</g>
	</g>
	<g transform="translate(899,992) scale(0.062,0.062)">
		<g transform="">
			<path class="st0" d="M250,500c-58.3,0-250,0-250,0s0-170.2,0-250C0,187.7,0,0,0,0s174.3,0,250,0c138.1,0,250,111.9,250,250
				C500,388.1,388.1,500,250,500z"/>
		</g>
	</g>
	<g transform="translate(961,992) scale(0.062,0.062)">
		<g transform="">
			<path class="st0" d="M250,0c138.1,0,250,111.9,250,250c0,138.1-111.9,250-250,250C111.9,500,0,388.1,0,250C0,111.9,111.9,0,250,0
				z"/>
		</g>
	</g>
	<g transform="translate(0,0) scale(2.17, 2.17)">
		<g transform="">
			<g>
				<path class="st1" d="M65.9,15H34.1c-4.1,0-7.9,1.3-11,3.4c-2.4,1.7-4.4,3.9-5.8,6.4c-1.5,2.7-2.3,5.7-2.3,8.9v32.5
					C15,76.6,23.6,85,34.1,85L50,85l15.9,0C76.4,85,85,76.6,85,66.2V33.8C85,23.4,76.4,15,65.9,15z"/>
				<path class="st0" d="M65.9,0H34.1l0,0C18.7,0,5.6,10.2,1.4,24.2c-0.4,1.4-0.8,2.9-1,4.4C0.1,30.3,0,32,0,33.8v32.5
					C0,84.8,15.3,100,34.1,100l15.9,0l15.9,0c18.8,0,34.1-15.1,34.1-33.8V33.8C100,15.1,84.7,0,65.9,0z M85,66.2
					C85,76.6,76.4,85,65.9,85L50,85l-15.9,0C23.6,85,15,76.6,15,66.2V33.8c0-3.2,0.8-6.3,2.3-8.9c1.4-2.6,3.4-4.8,5.8-6.4
					c3.1-2.1,6.9-3.4,11-3.4h31.7C76.4,15,85,23.4,85,33.8V66.2z"/>
			</g>
		</g>
	</g>
	<g transform="translate(806,0) scale(2.17, 2.17)">
		<g transform="">
			<g>
				<path class="st1" d="M65.9,15H34.1c-4.1,0-7.9,1.3-11,3.4c-2.4,1.7-4.4,3.9-5.8,6.4c-1.5,2.7-2.3,5.7-2.3,8.9v32.5
					C15,76.6,23.6,85,34.1,85L50,85l15.9,0C76.4,85,85,76.6,85,66.2V33.8C85,23.4,76.4,15,65.9,15z"/>
				<path class="st0" d="M65.9,0H34.1l0,0C18.7,0,5.6,10.2,1.4,24.2c-0.4,1.4-0.8,2.9-1,4.4C0.1,30.3,0,32,0,33.8v32.5
					C0,84.8,15.3,100,34.1,100l15.9,0l15.9,0c18.8,0,34.1-15.1,34.1-33.8V33.8C100,15.1,84.7,0,65.9,0z M85,66.2
					C85,76.6,76.4,85,65.9,85L50,85l-15.9,0C23.6,85,15,76.6,15,66.2V33.8c0-3.2,0.8-6.3,2.3-8.9c1.4-2.6,3.4-4.8,5.8-6.4
					c3.1-2.1,6.9-3.4,11-3.4h31.7C76.4,15,85,23.4,85,33.8V66.2z"/>
			</g>
		</g>
	</g>
	<g transform="translate(0,806) scale(2.17, 2.17)">
		<g transform="">
			<g>
				<path class="st1" d="M65.9,15H34.1c-4.1,0-7.9,1.3-11,3.4c-2.4,1.7-4.4,3.9-5.8,6.4c-1.5,2.7-2.3,5.7-2.3,8.9v32.5
					C15,76.6,23.6,85,34.1,85L50,85l15.9,0C76.4,85,85,76.6,85,66.2V33.8C85,23.4,76.4,15,65.9,15z"/>
				<path class="st0" d="M65.9,0H34.1l0,0C18.7,0,5.6,10.2,1.4,24.2c-0.4,1.4-0.8,2.9-1,4.4C0.1,30.3,0,32,0,33.8v32.5
					C0,84.8,15.3,100,34.1,100l15.9,0l15.9,0c18.8,0,34.1-15.1,34.1-33.8V33.8C100,15.1,84.7,0,65.9,0z M85,66.2
					C85,76.6,76.4,85,65.9,85L50,85l-15.9,0C23.6,85,15,76.6,15,66.2V33.8c0-3.2,0.8-6.3,2.3-8.9c1.4-2.6,3.4-4.8,5.8-6.4
					c3.1-2.1,6.9-3.4,11-3.4h31.7C76.4,15,85,23.4,85,33.8V66.2z"/>
			</g>
		</g>
	</g>
	<g transform="translate(62,62) scale(0.93, 0.93)">
		<g transform="">
			<g>
				<g id="XMLID_1_">
					<g>
						<path class="st0" d="M27.4,100C12.3,100,0,88,0,73.2V26.8c0-4.6,1.2-9,3.3-12.8c2-3.7,4.9-6.8,8.4-9.2C16.1,1.8,21.5,0,27.3,0
							h45.3C87.7,0,100,12,100,26.8v46.4C100,88,87.7,100,72.7,100H50L27.4,100L27.4,100z"/>
					</g>
				</g>
			</g>
		</g>
	</g>
	<g transform="translate(868,62) scale(0.93, 0.93)">
		<g transform="">
			<g>
				<g id="XMLID_00000068667491357588163510000002433509948442696364_">
					<g>
						<path class="st0" d="M27.4,100C12.3,100,0,88,0,73.2V26.8c0-4.6,1.2-9,3.3-12.8c2-3.7,4.9-6.8,8.4-9.2C16.1,1.8,21.5,0,27.3,0
							h45.3C87.7,0,100,12,100,26.8v46.4C100,88,87.7,100,72.7,100H50L27.4,100L27.4,100z"/>
					</g>
				</g>
			</g>
		</g>
	</g>
	<g transform="translate(62,868) scale(0.93, 0.93)">
		<g transform="">
			<g>
				<g id="XMLID_00000040565653713698056960000002260097070827437451_">
					<g>
						<path class="st0" d="M27.4,100C12.3,100,0,88,0,73.2V26.8c0-4.6,1.2-9,3.3-12.8c2-3.7,4.9-6.8,8.4-9.2C16.1,1.8,21.5,0,27.3,0
							h45.3C87.7,0,100,12,100,26.8v46.4C100,88,87.7,100,72.7,100H50L27.4,100L27.4,100z"/>
					</g>
				</g>
			</g>
		</g>
	</g>
</g>
</svg>
